G04*
G04 #@! TF.GenerationSoftware,Altium Limited,Altium Designer,20.1.8 (145)*
G04*
G04 Layer_Physical_Order=1*
G04 Layer_Color=255*
%FSLAX25Y25*%
%MOIN*%
G70*
G04*
G04 #@! TF.SameCoordinates,80DC2721-EA0D-41AB-A6B1-568E3CCDEEEF*
G04*
G04*
G04 #@! TF.FilePolarity,Positive*
G04*
G01*
G75*
%ADD18C,0.00800*%
%ADD73C,0.00984*%
%ADD74C,0.00799*%
%ADD75C,0.05906*%
%ADD76C,0.03937*%
%ADD77C,0.04331*%
%ADD78C,0.07874*%
%ADD79R,0.01100X0.05800*%
%ADD80R,0.04724X0.05512*%
%ADD81R,0.00984X0.00984*%
%ADD82R,0.00984X0.00984*%
%ADD83R,0.03937X0.02756*%
%ADD84R,0.09843X0.17323*%
%ADD85R,0.05512X0.04724*%
G04:AMPARAMS|DCode=86|XSize=38.27mil|YSize=31.58mil|CornerRadius=7.89mil|HoleSize=0mil|Usage=FLASHONLY|Rotation=90.000|XOffset=0mil|YOffset=0mil|HoleType=Round|Shape=RoundedRectangle|*
%AMROUNDEDRECTD86*
21,1,0.03827,0.01579,0,0,90.0*
21,1,0.02248,0.03158,0,0,90.0*
1,1,0.01579,0.00789,0.01124*
1,1,0.01579,0.00789,-0.01124*
1,1,0.01579,-0.00789,-0.01124*
1,1,0.01579,-0.00789,0.01124*
%
%ADD86ROUNDEDRECTD86*%
%ADD87R,0.03158X0.03827*%
%ADD88R,0.05512X0.05512*%
%ADD89R,0.05800X0.01100*%
%ADD90R,0.17323X0.09843*%
%ADD91R,0.03937X0.05906*%
%ADD92R,0.02756X0.03937*%
%ADD93R,0.03937X0.12205*%
%ADD94R,0.02362X0.07480*%
G04:AMPARAMS|DCode=95|XSize=29.53mil|YSize=13.78mil|CornerRadius=0.55mil|HoleSize=0mil|Usage=FLASHONLY|Rotation=90.000|XOffset=0mil|YOffset=0mil|HoleType=Round|Shape=RoundedRectangle|*
%AMROUNDEDRECTD95*
21,1,0.02953,0.01268,0,0,90.0*
21,1,0.02843,0.01378,0,0,90.0*
1,1,0.00110,0.00634,0.01421*
1,1,0.00110,0.00634,-0.01421*
1,1,0.00110,-0.00634,-0.01421*
1,1,0.00110,-0.00634,0.01421*
%
%ADD95ROUNDEDRECTD95*%
%ADD96R,0.02402X0.06299*%
%ADD97O,0.02402X0.06299*%
%ADD98R,0.06500X0.08500*%
%ADD99R,0.49213X0.13780*%
%ADD100R,0.03110X0.01024*%
%ADD101R,0.01024X0.03110*%
%ADD102R,0.06693X0.03543*%
%ADD103R,0.03543X0.06693*%
%ADD104R,0.15748X0.15748*%
%ADD105R,0.07087X0.13386*%
%ADD106R,0.07480X0.07480*%
%ADD107R,0.06299X0.05512*%
%ADD108R,0.01575X0.05315*%
%ADD109R,0.12205X0.03937*%
%ADD110R,0.07480X0.02362*%
%ADD111C,0.01575*%
%ADD112C,0.01378*%
%ADD113C,0.00803*%
%ADD114C,0.07087*%
%ADD115C,0.07874*%
%ADD116R,0.07874X0.07874*%
%ADD117O,0.06890X0.07874*%
%ADD118R,0.06890X0.07874*%
%ADD119C,0.05906*%
%ADD120O,0.07874X0.05906*%
%ADD121R,0.07874X0.05906*%
%ADD122O,0.06142X0.04528*%
%ADD123R,0.06142X0.04528*%
%ADD124R,0.07874X0.07874*%
%ADD125O,0.05906X0.07874*%
%ADD126R,0.05906X0.07874*%
%ADD127C,0.13780*%
%ADD128O,0.11811X0.13780*%
%ADD129O,0.03543X0.07087*%
%ADD130R,0.05906X0.05906*%
%ADD131O,0.07874X0.06000*%
%ADD132R,0.07874X0.06000*%
%ADD133R,0.05906X0.05906*%
%ADD134C,0.01772*%
%ADD135C,0.05000*%
%ADD136C,0.01087*%
G36*
X403727Y412395D02*
X405121Y412021D01*
X406454Y411469D01*
X407704Y410747D01*
X408849Y409869D01*
X409869Y408849D01*
X410747Y407704D01*
X411469Y406454D01*
X412021Y405121D01*
X412395Y403727D01*
X412583Y402296D01*
X412583Y401575D01*
X412583Y110236D01*
Y109515D01*
X412395Y108084D01*
X412021Y106690D01*
X411469Y105357D01*
X410747Y104107D01*
X409869Y102962D01*
X408849Y101942D01*
X407704Y101064D01*
X406454Y100342D01*
X405121Y99790D01*
X403727Y99416D01*
X402296Y99228D01*
X389792D01*
X389792Y129429D01*
X389730Y129741D01*
X389553Y130006D01*
X389288Y130183D01*
X388976Y130245D01*
X332932D01*
X332665Y130745D01*
X332790Y130932D01*
X332945Y131713D01*
Y133767D01*
X332963Y133793D01*
X333133Y134646D01*
X333113D01*
Y137379D01*
X333478Y137925D01*
X333609Y138583D01*
X333478Y139241D01*
X333105Y139798D01*
X332651Y140102D01*
X332605Y140479D01*
X332639Y140662D01*
X333220Y140972D01*
X334010Y141212D01*
X334013Y141210D01*
X334926Y140832D01*
X335906Y140703D01*
X341523D01*
Y136995D01*
X350209D01*
Y151981D01*
X341523D01*
Y148273D01*
X335906D01*
X334926Y148144D01*
X334013Y147766D01*
X333257Y147186D01*
X331887Y146857D01*
X330001Y146076D01*
X328261Y145010D01*
X326863Y143816D01*
X326378Y143880D01*
X325517Y143766D01*
X324714Y143434D01*
X324024Y142905D01*
X323495Y142215D01*
X323163Y141413D01*
X323049Y140551D01*
X323163Y139690D01*
X323495Y138887D01*
X323624Y138719D01*
X323537Y138507D01*
X323424Y138040D01*
X322900Y137999D01*
X322355Y139315D01*
X321334Y140981D01*
X320201Y142308D01*
X320065Y142467D01*
X319892Y142615D01*
X319891Y142616D01*
X319845Y142656D01*
X319845D01*
X319845Y142656D01*
X318937Y143401D01*
X317772Y144023D01*
X317434Y144126D01*
Y144501D01*
X315696D01*
X315684Y144528D01*
X315653Y144541D01*
X315267Y144803D01*
X315061Y144972D01*
X313896Y145595D01*
X312632Y145978D01*
X311746Y146066D01*
X311367Y146103D01*
X311367Y146106D01*
X311260Y146114D01*
X310853Y146338D01*
X310645Y146506D01*
Y148357D01*
X302544D01*
Y145670D01*
X302078Y144544D01*
X301915Y143307D01*
Y130245D01*
X298145D01*
X297832Y130183D01*
X297568Y130006D01*
X297391Y129741D01*
X297329Y129429D01*
Y124506D01*
X290860D01*
Y129429D01*
X290798Y129741D01*
X290621Y130006D01*
X290357Y130183D01*
X290044Y130245D01*
X287725D01*
Y155700D01*
X287725Y155701D01*
X287725Y156685D01*
X287709Y156764D01*
Y156844D01*
X287325Y158776D01*
X287294Y158851D01*
X287279Y158929D01*
X286525Y160749D01*
X286480Y160816D01*
X286450Y160890D01*
X285355Y162528D01*
X285298Y162585D01*
X285254Y162652D01*
X284557Y163348D01*
X284557Y163348D01*
X259828Y188078D01*
Y188595D01*
X259310D01*
X258155Y189750D01*
X257891Y189927D01*
X257579Y189989D01*
X257579Y189989D01*
X241043D01*
X240731Y189927D01*
X240466Y189750D01*
X240466Y189750D01*
X214458Y163742D01*
X214458Y163742D01*
X213762Y163046D01*
X213717Y162979D01*
X213661Y162922D01*
X212566Y161284D01*
X212536Y161210D01*
X212491Y161143D01*
X211737Y159323D01*
X211721Y159244D01*
X211691Y159170D01*
X211306Y157238D01*
Y157158D01*
X211291Y157079D01*
X211291Y156094D01*
Y147255D01*
X198141D01*
X197008Y147106D01*
X195951Y146668D01*
X195044Y145972D01*
X192737Y143666D01*
X192041Y142758D01*
X191604Y141702D01*
X191454Y140568D01*
Y138891D01*
X189800D01*
Y139557D01*
X189890Y139674D01*
X190223Y140477D01*
X190336Y141339D01*
X190223Y142200D01*
X189890Y143003D01*
X189362Y143692D01*
X188672Y144221D01*
X187869Y144554D01*
X187008Y144667D01*
X186146Y144554D01*
X185344Y144221D01*
X184654Y143692D01*
X184125Y143003D01*
X183793Y142200D01*
X183679Y141339D01*
X183793Y140477D01*
X184125Y139674D01*
X184215Y139557D01*
Y138891D01*
X147822D01*
Y130245D01*
X124619D01*
X124307Y130183D01*
X124042Y130006D01*
X123865Y129741D01*
X123803Y129429D01*
Y124103D01*
X123656Y123882D01*
X123594Y123570D01*
X123594Y99228D01*
X109515D01*
X108084Y99416D01*
X106690Y99790D01*
X105357Y100342D01*
X104107Y101064D01*
X102962Y101942D01*
X101942Y102962D01*
X101064Y104107D01*
X100342Y105357D01*
X99790Y106690D01*
X99416Y108084D01*
X99228Y109515D01*
Y110236D01*
X99228Y401575D01*
X99228Y402296D01*
X99416Y403727D01*
X99790Y405121D01*
X100342Y406454D01*
X101064Y407704D01*
X101942Y408849D01*
X102962Y409869D01*
X104107Y410747D01*
X105357Y411469D01*
X106690Y412021D01*
X108084Y412395D01*
X109515Y412583D01*
X155382D01*
Y386539D01*
X155444Y386227D01*
X155621Y385962D01*
X155624Y385960D01*
X155626Y385957D01*
X155656Y385937D01*
X155676Y385907D01*
X155941Y385730D01*
X156253Y385668D01*
X227165D01*
X227478Y385730D01*
X227742Y385907D01*
X227919Y386171D01*
X227981Y386483D01*
Y412583D01*
X351132D01*
X351562Y412414D01*
X351562Y412083D01*
Y398609D01*
X357099D01*
Y412083D01*
X357099Y412414D01*
X357529Y412583D01*
X380532D01*
X380962Y412414D01*
X380962Y412083D01*
Y398609D01*
X386499D01*
Y412083D01*
X386499Y412414D01*
X386929Y412583D01*
X402296D01*
X403727Y412395D01*
D02*
G37*
G36*
X232455Y159156D02*
X234435Y158680D01*
X236316Y157901D01*
X238053Y156837D01*
X239580Y155533D01*
X239596Y155509D01*
X239596Y155509D01*
X244586Y150519D01*
X244851Y150342D01*
X245163Y150280D01*
X245163Y150280D01*
X254177D01*
Y140468D01*
X236886D01*
Y149482D01*
X236886Y149482D01*
X236824Y149795D01*
X236647Y150059D01*
X235434Y151272D01*
X235434Y151273D01*
X235433Y151274D01*
X235396Y151310D01*
X235375Y151324D01*
X235363Y151334D01*
X235304Y151407D01*
X234402Y152147D01*
X234331Y152185D01*
X234269Y152236D01*
X233192Y152811D01*
X233116Y152834D01*
X233045Y152872D01*
X231876Y153227D01*
X231797Y153235D01*
X231720Y153258D01*
X230558Y153372D01*
X230465Y153363D01*
X230450Y153364D01*
X230425Y153369D01*
X230373D01*
X230372Y153369D01*
X230371Y153369D01*
X223293D01*
X223266Y153364D01*
X223239Y153367D01*
X223111Y153333D01*
X222981Y153307D01*
X222958Y153292D01*
X222932Y153285D01*
X222827Y153204D01*
X222716Y153130D01*
X222701Y153108D01*
X222680Y153091D01*
X222613Y152976D01*
X222539Y152866D01*
X222252Y152669D01*
X222079Y152591D01*
X221280Y152697D01*
X219779D01*
X219452Y153037D01*
X219390Y153349D01*
X219321Y153452D01*
X219213Y153614D01*
X219082Y153702D01*
X219076Y153708D01*
X218797Y153922D01*
X218702Y153969D01*
X218613Y154028D01*
X218560Y154039D01*
X218512Y154063D01*
X218405Y154070D01*
X218301Y154090D01*
X217417D01*
Y158587D01*
X218301D01*
X218405Y158607D01*
X218512Y158615D01*
X218560Y158638D01*
X218613Y158649D01*
X218702Y158708D01*
X218797Y158755D01*
X218991Y158904D01*
X219706Y159200D01*
X220526Y159308D01*
X230425D01*
X230452Y159313D01*
X232455Y159156D01*
D02*
G37*
G36*
X283980Y162771D02*
X284677Y162075D01*
X285771Y160437D01*
X286525Y158617D01*
X286909Y156685D01*
X286909Y155700D01*
X286909D01*
X286910Y155700D01*
Y129429D01*
X290044D01*
Y123690D01*
X298145D01*
Y129429D01*
X388976D01*
X388976Y99228D01*
X124409D01*
X124409Y123570D01*
X124619D01*
Y129429D01*
X147822D01*
Y123511D01*
X198635D01*
Y129429D01*
X201271D01*
X202251Y129477D01*
X204174Y129860D01*
X205985Y130610D01*
X207615Y131699D01*
X208342Y132358D01*
X212106Y136122D01*
Y138493D01*
X216978D01*
X217224Y137993D01*
X216989Y137687D01*
X216680Y136942D01*
X216575Y136142D01*
X216680Y135342D01*
X216989Y134597D01*
X217480Y133957D01*
X218120Y133466D01*
X218865Y133157D01*
X219665Y133052D01*
X221280D01*
X222079Y133157D01*
X222825Y133466D01*
X223465Y133957D01*
X223824Y134425D01*
X224890Y134102D01*
X226040Y133487D01*
X227049Y132659D01*
X227877Y131651D01*
X228492Y130500D01*
X228871Y129251D01*
X228924Y128706D01*
Y126661D01*
X231509D01*
Y129245D01*
X231333D01*
X231285Y129732D01*
X230766Y131442D01*
X229924Y133018D01*
X228790Y134400D01*
X227408Y135534D01*
X225832Y136377D01*
X224277Y136848D01*
X224264Y136942D01*
X223956Y137687D01*
X223465Y138327D01*
X222984Y138696D01*
X222924Y139187D01*
X222956Y139305D01*
X223570Y139776D01*
X224266Y140684D01*
X224704Y141740D01*
X224853Y142874D01*
X224704Y144008D01*
X224266Y145064D01*
X223570Y145972D01*
X222956Y146443D01*
X222924Y146562D01*
X222984Y147052D01*
X223465Y147421D01*
X223956Y148061D01*
X224264Y148807D01*
X224370Y149606D01*
X224264Y150406D01*
X223956Y151151D01*
X223465Y151791D01*
X223123Y152053D01*
X223293Y152553D01*
X230425D01*
X230479Y152560D01*
X231640Y152446D01*
X232808Y152092D01*
X233885Y151516D01*
X234786Y150776D01*
X234819Y150733D01*
X236070Y149482D01*
Y139653D01*
X254993D01*
Y151095D01*
X245163D01*
X240172Y156086D01*
X240179Y156093D01*
X238533Y157499D01*
X236688Y158630D01*
X234688Y159459D01*
X232583Y159964D01*
X230425Y160134D01*
Y160124D01*
X220472D01*
X219493Y159995D01*
X218580Y159617D01*
X218301Y159402D01*
X216602D01*
Y153275D01*
X218301D01*
X218580Y153061D01*
X218636Y153037D01*
Y152496D01*
X218120Y152283D01*
X217480Y151791D01*
X216989Y151151D01*
X216680Y150406D01*
X216575Y149606D01*
X216680Y148807D01*
X216989Y148061D01*
X217224Y147755D01*
X216978Y147255D01*
X212106D01*
Y156094D01*
X212106Y157079D01*
X212491Y159011D01*
X213244Y160831D01*
X214339Y162469D01*
X215035Y163165D01*
X241043Y189173D01*
X257579D01*
X283980Y162771D01*
D02*
G37*
G36*
X312045Y140229D02*
X312068Y140257D01*
X312857Y139652D01*
X314204Y139094D01*
X315272Y138953D01*
X315270Y138923D01*
X315463Y138885D01*
X315463Y138885D01*
X315466Y138884D01*
X315655Y138818D01*
X315970Y138625D01*
X315979Y138619D01*
X316316Y138262D01*
X316964Y137473D01*
X317598Y136287D01*
X317988Y135000D01*
X318117Y133692D01*
X318113Y133661D01*
Y130245D01*
X311471D01*
Y140016D01*
X311971Y140279D01*
X312045Y140229D01*
D02*
G37*
G36*
X211291Y136460D02*
X207780Y132949D01*
X207112Y132344D01*
X205599Y131333D01*
X203936Y130644D01*
X202151Y130289D01*
X201251Y130245D01*
X198635D01*
Y132726D01*
X198933Y133024D01*
X199629Y133932D01*
X200067Y134988D01*
X200216Y136122D01*
Y138493D01*
X211291D01*
Y136460D01*
D02*
G37*
%LPC*%
G36*
X368898Y401030D02*
X368240Y400899D01*
X367682Y400526D01*
X367473Y400213D01*
X367109Y400063D01*
X366369Y399494D01*
X365800Y398753D01*
X365443Y397891D01*
X365359Y397252D01*
X364571D01*
Y388172D01*
X364716D01*
X365050Y387672D01*
X364723Y386883D01*
X363990Y385928D01*
X363035Y385195D01*
X361922Y384734D01*
X361873Y384727D01*
X361386Y385053D01*
X360728Y385183D01*
X360071Y385053D01*
X359513Y384680D01*
X359140Y384122D01*
X359010Y383465D01*
X359140Y382807D01*
X359513Y382249D01*
X360071Y381877D01*
X360728Y381746D01*
X361386Y381877D01*
X361944Y382249D01*
X361946Y382252D01*
X362105Y382268D01*
X363429Y382669D01*
X364649Y383322D01*
X365719Y384199D01*
X366597Y385269D01*
X367249Y386489D01*
X367650Y387813D01*
X367686Y388172D01*
X368533D01*
Y397155D01*
X368837Y397526D01*
X369129Y397530D01*
X369492Y397089D01*
X369492Y396811D01*
Y388172D01*
X370250D01*
Y385745D01*
X370247D01*
X370152Y385266D01*
X369881Y384860D01*
X369764Y384782D01*
X369654Y384856D01*
X368996Y384987D01*
X368338Y384856D01*
X367781Y384483D01*
X367408Y383926D01*
X367277Y383268D01*
X367408Y382610D01*
X367781Y382052D01*
X368338Y381680D01*
X368996Y381549D01*
X369654Y381680D01*
X370212Y382052D01*
X370411Y382351D01*
X370850Y382533D01*
X371619Y383122D01*
X372208Y383890D01*
X372579Y384785D01*
X372705Y385745D01*
X372697D01*
Y388172D01*
X373454D01*
Y397252D01*
X369971D01*
X369921Y397252D01*
X369864Y397334D01*
X369837Y397473D01*
X369990Y398013D01*
X370113Y398096D01*
X370486Y398653D01*
X370617Y399311D01*
X370486Y399969D01*
X370113Y400526D01*
X369555Y400899D01*
X368898Y401030D01*
D02*
G37*
G36*
X115169Y388057D02*
X101365D01*
Y382521D01*
X115169D01*
Y388057D01*
D02*
G37*
G36*
X410447Y388021D02*
X396642D01*
Y382484D01*
X410447D01*
Y388021D01*
D02*
G37*
G36*
X370177Y405656D02*
X369519Y405525D01*
X368962Y405152D01*
X368589Y404595D01*
X368458Y403937D01*
X368589Y403279D01*
X368962Y402722D01*
X369519Y402349D01*
X370177Y402218D01*
X370835Y402349D01*
X371203Y402595D01*
X371474Y402559D01*
X372682Y402059D01*
X373720Y401262D01*
X374516Y400225D01*
X375017Y399016D01*
X375181Y397769D01*
X375171Y397720D01*
Y397252D01*
X374413D01*
Y388172D01*
X375161D01*
X375296Y386802D01*
X375695Y385484D01*
X376344Y384270D01*
X377218Y383206D01*
X378282Y382332D01*
X379497Y381683D01*
X380815Y381283D01*
X380897Y381275D01*
X380970Y381167D01*
X381527Y380794D01*
X382185Y380663D01*
X382843Y380794D01*
X383401Y381167D01*
X383773Y381724D01*
X383904Y382382D01*
X383773Y383040D01*
X383401Y383597D01*
X382843Y383970D01*
X382185Y384101D01*
X381527Y383970D01*
X381164Y383727D01*
X381000Y383749D01*
X379895Y384206D01*
X378947Y384934D01*
X378219Y385883D01*
X377761Y386987D01*
X377671Y387672D01*
X378110Y388172D01*
X378376D01*
Y397252D01*
X377708D01*
X377630Y397720D01*
X377630D01*
X377487Y399174D01*
X377063Y400572D01*
X376374Y401861D01*
X375447Y402990D01*
X374318Y403917D01*
X373029Y404606D01*
X371631Y405030D01*
X371463Y405046D01*
X371393Y405152D01*
X370835Y405525D01*
X370177Y405656D01*
D02*
G37*
G36*
X318910Y394501D02*
X308058D01*
Y387586D01*
X311362D01*
X311362Y384781D01*
X311349Y384763D01*
X311043Y384528D01*
X310516Y383842D01*
X310439Y383655D01*
X310384Y383573D01*
X310365Y383476D01*
X310185Y383043D01*
X310072Y382185D01*
X310160Y381516D01*
X309978Y381243D01*
X309912Y380909D01*
Y378067D01*
X309978Y377733D01*
X310167Y377450D01*
X310450Y377261D01*
X310784Y377195D01*
X312051D01*
X312385Y377261D01*
X312402Y377273D01*
X312418Y377261D01*
X312752Y377195D01*
X314020D01*
X314353Y377261D01*
X314370Y377273D01*
X314387Y377261D01*
X314721Y377195D01*
X315988D01*
X316322Y377261D01*
X316605Y377450D01*
X316794Y377733D01*
X316860Y378067D01*
Y380909D01*
X316794Y381243D01*
X316611Y381516D01*
X316683Y382058D01*
X317040Y382210D01*
X317187Y382221D01*
X317305Y382068D01*
X318232Y381356D01*
X319201Y380955D01*
X319257Y380871D01*
X319815Y380499D01*
X320472Y380368D01*
X321130Y380499D01*
X321688Y380871D01*
X322060Y381429D01*
X322191Y382087D01*
X322060Y382744D01*
X321688Y383302D01*
X321130Y383675D01*
X320472Y383805D01*
X319815Y383675D01*
X319685Y383588D01*
X319169Y383933D01*
X318770Y384531D01*
X318635Y385209D01*
X318640Y385236D01*
Y387586D01*
X318910D01*
Y394501D01*
D02*
G37*
G36*
X125607Y379934D02*
X116527D01*
Y379668D01*
X115821D01*
X115717Y379738D01*
X115059Y379869D01*
X114401Y379738D01*
X113844Y379365D01*
X113471Y378807D01*
X113340Y378150D01*
X113471Y377492D01*
X113844Y376934D01*
X114401Y376562D01*
X115059Y376431D01*
X115717Y376562D01*
X115821Y376631D01*
X116527D01*
Y375972D01*
X125607D01*
Y379934D01*
D02*
G37*
G36*
X126772Y370124D02*
X126114Y369993D01*
X126107Y369989D01*
X125607Y370091D01*
Y370091D01*
X116527D01*
Y366129D01*
X125607D01*
Y366555D01*
X126107Y366822D01*
X126114Y366817D01*
X126772Y366687D01*
X127429Y366817D01*
X127987Y367190D01*
X128360Y367748D01*
X128490Y368406D01*
X128360Y369063D01*
X127987Y369621D01*
X127429Y369993D01*
X126772Y370124D01*
D02*
G37*
G36*
X395284Y375013D02*
X386204D01*
Y371050D01*
X395284D01*
Y371808D01*
X395965D01*
X395967Y371809D01*
X396514Y371700D01*
X396801Y371508D01*
X397034Y371032D01*
X396903Y370374D01*
X397034Y369716D01*
X397407Y369159D01*
X397964Y368786D01*
X398622Y368655D01*
X399280Y368786D01*
X399837Y369159D01*
X400210Y369716D01*
X400341Y370374D01*
X400210Y371032D01*
X399837Y371589D01*
X399559Y371775D01*
X399334Y372319D01*
X398716Y373125D01*
X397910Y373744D01*
X396972Y374132D01*
X395965Y374265D01*
Y374255D01*
X395284D01*
Y375013D01*
D02*
G37*
G36*
X262611Y394501D02*
X251759D01*
Y387586D01*
X254875D01*
Y383166D01*
X254784Y383105D01*
X254411Y382547D01*
X254280Y381890D01*
X254411Y381232D01*
X254661Y380857D01*
X254427Y380357D01*
X242542D01*
X241996Y380722D01*
X241339Y380853D01*
X240681Y380722D01*
X240123Y380349D01*
X239751Y379792D01*
X239620Y379134D01*
X239751Y378476D01*
X240123Y377918D01*
X240681Y377546D01*
X241339Y377415D01*
X241996Y377546D01*
X242542Y377910D01*
X248718D01*
X249200Y377867D01*
X249200Y377410D01*
Y374546D01*
X246732D01*
X246327Y374816D01*
X245669Y374947D01*
X245011Y374816D01*
X244454Y374444D01*
X244081Y373886D01*
X243950Y373228D01*
X244081Y372571D01*
X244454Y372013D01*
X244746Y371818D01*
Y370750D01*
X244654Y370731D01*
X244128Y370380D01*
X243776Y369854D01*
X243653Y369234D01*
Y366986D01*
X243776Y366366D01*
X244128Y365840D01*
X244384Y365669D01*
X244476Y365054D01*
X244475Y365053D01*
X243246Y363824D01*
X239884D01*
Y358397D01*
X244153D01*
X244333Y358397D01*
X244711Y357967D01*
X244705Y357853D01*
X238667Y351814D01*
X238023Y351686D01*
X237466Y351314D01*
X237093Y350756D01*
X236962Y350098D01*
X237093Y349441D01*
X237466Y348883D01*
X238023Y348510D01*
X238681Y348380D01*
X239339Y348510D01*
X239896Y348883D01*
X240269Y349441D01*
X240397Y350084D01*
X241811Y351498D01*
X242200Y351316D01*
X242281Y351261D01*
X242408Y350622D01*
X242781Y350064D01*
X243338Y349692D01*
X243996Y349561D01*
X244654Y349692D01*
X245199Y350056D01*
X250086D01*
Y347724D01*
X252573D01*
X252652Y347324D01*
X252917Y346927D01*
X254906Y344939D01*
X255303Y344673D01*
X255771Y344580D01*
X261674D01*
X262142Y344673D01*
X262539Y344939D01*
X264762Y347161D01*
X265027Y347558D01*
X265120Y348027D01*
Y354088D01*
X269429Y358397D01*
X272791D01*
Y363824D01*
X268034D01*
Y360462D01*
X265936Y358364D01*
X265776Y358362D01*
X265311Y358815D01*
X265311Y358876D01*
Y363824D01*
X262082D01*
X260668Y365238D01*
Y370755D01*
X262611D01*
Y377373D01*
X263111Y377580D01*
X265410Y375281D01*
Y370749D01*
X265323Y370731D01*
X264797Y370380D01*
X264446Y369854D01*
X264322Y369234D01*
Y366986D01*
X264446Y366366D01*
X264797Y365840D01*
X265323Y365489D01*
X265943Y365366D01*
X267522D01*
X268142Y365489D01*
X268668Y365840D01*
X269019Y366366D01*
X269142Y366986D01*
Y369234D01*
X269019Y369854D01*
X268668Y370380D01*
X268142Y370731D01*
X267857Y370788D01*
Y375787D01*
X267764Y376256D01*
X267499Y376653D01*
X264153Y379999D01*
X263756Y380264D01*
X263287Y380357D01*
X259993D01*
X259731Y380857D01*
X259959Y381199D01*
X260089Y381857D01*
X259959Y382514D01*
X259586Y383072D01*
X259495Y383133D01*
Y386400D01*
X259995Y386449D01*
X260003Y386405D01*
X260289Y385978D01*
X261962Y384305D01*
X262389Y384019D01*
X262894Y383919D01*
X269927D01*
X278765Y375081D01*
X278573Y374619D01*
X278334D01*
Y367507D01*
X285446D01*
Y374619D01*
X283383D01*
X283105Y375034D01*
X282547Y375407D01*
X282070Y375502D01*
X271404Y386168D01*
X270977Y386453D01*
X270472Y386554D01*
X263439D01*
X262821Y387173D01*
X262611Y387586D01*
Y394501D01*
D02*
G37*
G36*
X380807Y371798D02*
X380149Y371667D01*
X379592Y371294D01*
X379219Y370737D01*
X379088Y370079D01*
X379219Y369421D01*
X379592Y368863D01*
X379948Y368625D01*
X380008Y368481D01*
X380516Y367819D01*
X381178Y367311D01*
X381948Y366992D01*
X382776Y366883D01*
Y366887D01*
X386204D01*
Y366129D01*
X395284D01*
Y370091D01*
X386204D01*
Y369334D01*
X382873D01*
X382699Y369484D01*
X382485Y369871D01*
X382526Y370079D01*
X382395Y370737D01*
X382023Y371294D01*
X381465Y371667D01*
X380807Y371798D01*
D02*
G37*
G36*
X396505Y379685D02*
X395847Y379554D01*
X395289Y379182D01*
X394917Y378624D01*
X394786Y377966D01*
X394917Y377309D01*
X395289Y376751D01*
X395847Y376378D01*
X396505Y376248D01*
X397162Y376378D01*
X397720Y376751D01*
X397771Y376828D01*
X398425D01*
X398438Y376830D01*
X399358Y376709D01*
X400227Y376349D01*
X400973Y375777D01*
X401546Y375030D01*
X401906Y374161D01*
X402027Y373241D01*
X402025Y373228D01*
Y373091D01*
X402035Y373037D01*
X401871Y371375D01*
X401371Y369726D01*
X400559Y368206D01*
X399465Y366873D01*
X398133Y365780D01*
X396613Y364967D01*
X395686Y364686D01*
X395284Y364984D01*
Y365170D01*
X386204D01*
Y363150D01*
X385790Y362929D01*
X384439Y361820D01*
X383331Y360469D01*
X382507Y358928D01*
X381999Y357255D01*
X381828Y355516D01*
X381847D01*
Y352975D01*
X381483Y352429D01*
X381352Y351772D01*
X381483Y351114D01*
X381856Y350556D01*
X382413Y350184D01*
X383071Y350053D01*
X383729Y350184D01*
X384286Y350556D01*
X384659Y351114D01*
X384790Y351772D01*
X384659Y352429D01*
X384294Y352975D01*
Y355516D01*
X384291Y355531D01*
X384414Y356775D01*
X384781Y357986D01*
X385378Y359102D01*
X386180Y360080D01*
X387158Y360882D01*
X387767Y361208D01*
X395284D01*
Y362061D01*
X396720Y362406D01*
X398348Y363080D01*
X399852Y364001D01*
X401192Y365146D01*
X402337Y366487D01*
X403258Y367990D01*
X403933Y369619D01*
X404344Y371333D01*
X404455Y372732D01*
X404455Y372738D01*
X404455Y372738D01*
X404483Y373091D01*
X404477Y373228D01*
X404477D01*
X404443Y373574D01*
X404361Y374409D01*
X404016Y375544D01*
X403457Y376591D01*
X402705Y377508D01*
X401788Y378260D01*
X400741Y378820D01*
X399606Y379164D01*
X398425Y379280D01*
Y379275D01*
X397581D01*
X397162Y379554D01*
X396505Y379685D01*
D02*
G37*
G36*
X285446Y365957D02*
X278334D01*
Y358846D01*
X285446D01*
Y360883D01*
X287131D01*
X287236Y360814D01*
X287894Y360683D01*
X288551Y360814D01*
X289109Y361186D01*
X289482Y361744D01*
X289613Y362402D01*
X289482Y363059D01*
X289109Y363617D01*
X288551Y363990D01*
X287894Y364120D01*
X287236Y363990D01*
X287131Y363920D01*
X285446D01*
Y365957D01*
D02*
G37*
G36*
X353937Y384196D02*
X333268D01*
X332800Y384103D01*
X332403Y383838D01*
X321738Y373173D01*
X321094Y373045D01*
X320537Y372672D01*
X320164Y372114D01*
X320033Y371457D01*
X320164Y370799D01*
X320537Y370241D01*
X321094Y369869D01*
X321752Y369738D01*
X322410Y369869D01*
X322967Y370241D01*
X323340Y370799D01*
X323468Y371442D01*
X330529Y378504D01*
X330991Y378312D01*
Y377125D01*
X330736Y376954D01*
X317702Y363920D01*
X311074D01*
X310882Y364382D01*
X312663Y366163D01*
X313751Y366493D01*
X314767Y367036D01*
X315656Y367766D01*
X315881Y368039D01*
X316044Y368238D01*
X316084Y368265D01*
X316193Y368421D01*
X316438Y368749D01*
X316788Y369593D01*
X316907Y370499D01*
X316890Y370631D01*
X316896Y370664D01*
Y373514D01*
X316911D01*
X316860Y373770D01*
Y375476D01*
X316794Y375810D01*
X316605Y376093D01*
X316322Y376282D01*
X315988Y376348D01*
X314721D01*
X314387Y376282D01*
X314104Y376093D01*
X313915Y375810D01*
X313849Y375476D01*
Y372634D01*
X313915Y372300D01*
X314104Y372017D01*
X314261Y371912D01*
Y371140D01*
X314261Y371044D01*
X314247Y370573D01*
X314172Y370297D01*
X314117Y370102D01*
X314123Y370117D01*
X314172Y370297D01*
X314244Y370555D01*
X314123Y370117D01*
X314077Y369999D01*
X314077Y369999D01*
X313793Y369629D01*
X313123Y369115D01*
X312884Y369016D01*
X312627Y369164D01*
X312427Y369368D01*
Y371856D01*
X312668Y372017D01*
X312857Y372300D01*
X312923Y372634D01*
Y375476D01*
X312857Y375810D01*
X312668Y376093D01*
X312385Y376282D01*
X312051Y376348D01*
X310784D01*
X310450Y376282D01*
X310167Y376093D01*
X309978Y375810D01*
X309912Y375476D01*
Y374000D01*
X309903Y373957D01*
Y373014D01*
X309892Y372998D01*
X309792Y372494D01*
Y369824D01*
X287304Y347336D01*
X287293Y347347D01*
X285936Y345760D01*
X284845Y343979D01*
X284047Y342050D01*
X283559Y340020D01*
X283395Y337938D01*
X283411D01*
X283411Y337938D01*
Y323713D01*
X283422Y323655D01*
X283261Y322016D01*
X282766Y320384D01*
X281962Y318880D01*
X281191Y317940D01*
X280868Y317573D01*
X280514Y317220D01*
X276284Y312989D01*
X276244Y312930D01*
X275141Y312083D01*
X273791Y311524D01*
X272827Y311397D01*
X272338Y311371D01*
Y311371D01*
X270328Y311213D01*
X268368Y310742D01*
X266505Y309971D01*
X264786Y308917D01*
X263627Y307927D01*
X263253Y307608D01*
X263253Y307608D01*
X262914Y307248D01*
X262716Y307051D01*
X262716Y307051D01*
X262705Y307061D01*
X261662Y305790D01*
X260887Y304339D01*
X260409Y302765D01*
X260248Y301128D01*
X260263D01*
X260263Y301128D01*
Y297453D01*
X256990D01*
Y303773D01*
X257121Y303861D01*
X257493Y304419D01*
X257624Y305077D01*
X257493Y305734D01*
X257121Y306292D01*
X256563Y306664D01*
X255906Y306795D01*
X255543Y306723D01*
X255043Y307083D01*
Y320984D01*
X254950Y321452D01*
X254685Y321849D01*
X246099Y330434D01*
Y330616D01*
X246076Y330735D01*
Y336922D01*
X236602D01*
Y334727D01*
X231312D01*
Y340932D01*
Y345932D01*
Y350932D01*
Y355932D01*
Y362064D01*
X232163D01*
X232708Y361699D01*
X233366Y361569D01*
X234024Y361699D01*
X234582Y362072D01*
X234954Y362630D01*
X235065Y363187D01*
X235356Y363340D01*
X235575Y363384D01*
X235882Y363076D01*
X236010Y362433D01*
X236383Y361875D01*
X236941Y361503D01*
X237598Y361372D01*
X238256Y361503D01*
X238814Y361875D01*
X239186Y362433D01*
X239317Y363090D01*
X239186Y363748D01*
X238814Y364306D01*
X238256Y364679D01*
X237613Y364807D01*
X233050Y369369D01*
X232653Y369634D01*
X232185Y369727D01*
X231312D01*
Y375932D01*
Y381076D01*
X223019D01*
Y375932D01*
Y374349D01*
X219665D01*
X219260Y374620D01*
X218602Y374750D01*
X217945Y374620D01*
X217540Y374349D01*
X178740D01*
X178236Y374249D01*
X177809Y373963D01*
X174259Y370413D01*
X173985Y370597D01*
X173327Y370727D01*
X172669Y370597D01*
X172111Y370224D01*
X171739Y369666D01*
X171608Y369009D01*
X171739Y368351D01*
X172111Y367793D01*
X172669Y367421D01*
X173327Y367290D01*
X173985Y367421D01*
X174067Y367476D01*
X174430Y367404D01*
X174934Y367504D01*
X175361Y367790D01*
X179286Y371714D01*
X217540D01*
X217945Y371444D01*
X218602Y371313D01*
X219260Y371444D01*
X219665Y371714D01*
X223019D01*
Y365932D01*
Y359821D01*
X217019D01*
X216942Y360205D01*
X216570Y360763D01*
X216012Y361135D01*
X215354Y361266D01*
X214697Y361135D01*
X214144Y360766D01*
X206845D01*
X203356Y364255D01*
X203261Y364733D01*
X202889Y365290D01*
X202331Y365663D01*
X201673Y365794D01*
X201015Y365663D01*
X200458Y365290D01*
X200085Y364733D01*
X199954Y364075D01*
X200085Y363417D01*
X200458Y362859D01*
X201015Y362487D01*
X201493Y362392D01*
X205368Y358517D01*
X205795Y358232D01*
X206299Y358131D01*
X206928D01*
X207080Y357631D01*
X207052Y357613D01*
X206680Y357055D01*
X206549Y356398D01*
X206680Y355740D01*
X207052Y355182D01*
X207610Y354810D01*
X208268Y354679D01*
X208926Y354810D01*
X209483Y355182D01*
X209856Y355740D01*
X209987Y356398D01*
X209856Y357055D01*
X209483Y357613D01*
X209456Y357631D01*
X209607Y358131D01*
X214439D01*
X214697Y357959D01*
X215051Y357889D01*
X215368Y357572D01*
X215795Y357287D01*
X216299Y357187D01*
X223019D01*
Y355932D01*
Y350932D01*
Y344727D01*
X222736D01*
X222268Y344634D01*
X221871Y344369D01*
X217639Y340137D01*
X217374Y339740D01*
X217280Y339272D01*
Y316802D01*
X216804Y316745D01*
Y316745D01*
X171661D01*
Y308452D01*
X173009D01*
Y307461D01*
X173102Y306992D01*
X173367Y306595D01*
X174832Y305130D01*
X174641Y304668D01*
X171077D01*
X167422Y308323D01*
X167025Y308588D01*
X166557Y308681D01*
X162728D01*
X162678Y309181D01*
X162969Y309239D01*
X163526Y309611D01*
X163899Y310169D01*
X164030Y310827D01*
X163899Y311485D01*
X163526Y312042D01*
X162969Y312415D01*
X162641Y312480D01*
Y314060D01*
X167239Y318658D01*
X206326D01*
X206724Y318392D01*
X207382Y318262D01*
X208040Y318392D01*
X208597Y318765D01*
X208970Y319322D01*
X209101Y319980D01*
X208970Y320638D01*
X208597Y321196D01*
X208040Y321568D01*
X207382Y321699D01*
X206724Y321568D01*
X206167Y321196D01*
X206106Y321105D01*
X166732D01*
X166264Y321012D01*
X165867Y320747D01*
X160988Y315868D01*
X160875Y315863D01*
X160446Y316239D01*
X160446Y316391D01*
Y320932D01*
Y325932D01*
Y330932D01*
Y335932D01*
Y340932D01*
Y345932D01*
Y350932D01*
Y355932D01*
Y360932D01*
Y365932D01*
Y370932D01*
Y372300D01*
X165410D01*
Y337205D01*
X165504Y336736D01*
X165769Y336340D01*
X178599Y323509D01*
X178727Y322866D01*
X179100Y322308D01*
X179657Y321936D01*
X180315Y321805D01*
X180973Y321936D01*
X181530Y322308D01*
X181903Y322866D01*
X182034Y323524D01*
X181903Y324181D01*
X181530Y324739D01*
X180973Y325112D01*
X180329Y325240D01*
X167857Y337712D01*
Y372300D01*
X169663D01*
X170208Y371936D01*
X170866Y371805D01*
X171524Y371936D01*
X172081Y372308D01*
X172454Y372866D01*
X172585Y373524D01*
X172454Y374181D01*
X172081Y374739D01*
X171524Y375112D01*
X170866Y375242D01*
X170208Y375112D01*
X169663Y374747D01*
X160446D01*
Y376827D01*
X161091Y376955D01*
X161648Y377328D01*
X162021Y377886D01*
X162152Y378543D01*
X162021Y379201D01*
X161648Y379759D01*
X161091Y380131D01*
X160446Y380260D01*
Y381076D01*
X152153D01*
Y375932D01*
Y369727D01*
X150704D01*
X145157Y375275D01*
X144760Y375540D01*
X144291Y375633D01*
X144107D01*
Y377808D01*
X134633D01*
Y370302D01*
X134210Y370117D01*
X134207D01*
X130164Y374160D01*
X129736Y374446D01*
X129232Y374546D01*
X125607D01*
Y375013D01*
X116527D01*
Y371050D01*
X125607D01*
Y371911D01*
X128687D01*
X132730Y367868D01*
X133157Y367582D01*
X133661Y367482D01*
X135866D01*
X136035Y366982D01*
X135709Y366732D01*
X135108Y365948D01*
X134730Y365035D01*
X134601Y364055D01*
X134730Y363075D01*
X135108Y362163D01*
X135709Y361379D01*
X136493Y360777D01*
X137406Y360399D01*
X138386Y360270D01*
X140354D01*
X141334Y360399D01*
X142247Y360777D01*
X143031Y361379D01*
X143632Y362163D01*
X143910Y362832D01*
X152153D01*
Y359727D01*
X143819D01*
X143351Y359634D01*
X142954Y359369D01*
X141300Y357716D01*
X140354Y357840D01*
X138386D01*
X137406Y357711D01*
X136493Y357333D01*
X135709Y356732D01*
X135108Y355948D01*
X134730Y355035D01*
X134601Y354055D01*
X134730Y353076D01*
X135108Y352163D01*
X135709Y351379D01*
X136493Y350777D01*
X137406Y350399D01*
X138386Y350270D01*
X140354D01*
X141334Y350399D01*
X142247Y350777D01*
X143031Y351379D01*
X143632Y352163D01*
X144010Y353076D01*
X144140Y354055D01*
X144010Y355035D01*
X143632Y355948D01*
X143355Y356310D01*
X144326Y357280D01*
X152153D01*
Y354727D01*
X149469D01*
X149000Y354634D01*
X148603Y354369D01*
X141766Y347532D01*
X141334Y347711D01*
X140354Y347840D01*
X138386D01*
X137406Y347711D01*
X136493Y347333D01*
X135709Y346732D01*
X135108Y345948D01*
X134730Y345035D01*
X134601Y344055D01*
X134730Y343075D01*
X135108Y342163D01*
X135709Y341379D01*
X136493Y340777D01*
X137406Y340399D01*
X138386Y340270D01*
X140354D01*
X141334Y340399D01*
X142247Y340777D01*
X143031Y341379D01*
X143632Y342163D01*
X144010Y343075D01*
X144140Y344055D01*
X144010Y345035D01*
X143635Y345940D01*
X149975Y352280D01*
X152153D01*
Y348278D01*
X152077Y348263D01*
X151681Y347997D01*
X141377Y337694D01*
X141334Y337711D01*
X140354Y337840D01*
X138386D01*
X137406Y337711D01*
X136493Y337333D01*
X135709Y336732D01*
X135108Y335948D01*
X134730Y335035D01*
X134601Y334055D01*
X134730Y333075D01*
X135108Y332163D01*
X135709Y331379D01*
X136493Y330777D01*
X137406Y330399D01*
X138386Y330270D01*
X140354D01*
X140556Y330296D01*
X140789Y329823D01*
X139965Y328998D01*
X139699Y328601D01*
X139606Y328133D01*
Y327840D01*
X138386D01*
X137406Y327711D01*
X136493Y327333D01*
X135709Y326732D01*
X135108Y325948D01*
X134730Y325035D01*
X134601Y324055D01*
X134730Y323076D01*
X135108Y322163D01*
X135709Y321379D01*
X136493Y320777D01*
X137406Y320399D01*
X138386Y320270D01*
X140354D01*
X141334Y320399D01*
X142247Y320777D01*
X143031Y321379D01*
X143632Y322163D01*
X144010Y323076D01*
X144140Y324055D01*
X144010Y325035D01*
X143632Y325948D01*
X143031Y326732D01*
X142354Y327251D01*
X142271Y327661D01*
X142286Y327858D01*
X144600Y330172D01*
X145062Y329981D01*
Y305585D01*
X145155Y305117D01*
X145420Y304720D01*
X151350Y298790D01*
X151747Y298524D01*
X151956Y298483D01*
Y291424D01*
X159461D01*
Y300898D01*
X152702D01*
X147509Y306092D01*
Y307687D01*
X147970Y307878D01*
X154056Y301792D01*
X154453Y301527D01*
X154921Y301434D01*
X159926D01*
X162399Y298961D01*
X162053Y298125D01*
X161924Y297146D01*
Y295177D01*
X162053Y294198D01*
X162431Y293285D01*
X163032Y292501D01*
X163816Y291899D01*
X164729Y291521D01*
X165709Y291392D01*
X166688Y291521D01*
X167601Y291899D01*
X168385Y292501D01*
X168987Y293285D01*
X169365Y294198D01*
X169494Y295177D01*
Y297146D01*
X169461Y297393D01*
X169935Y297626D01*
X171159Y296402D01*
X171556Y296136D01*
X171923Y296063D01*
Y295177D01*
X172053Y294198D01*
X172431Y293285D01*
X173032Y292501D01*
X173816Y291899D01*
X174729Y291521D01*
X175709Y291392D01*
X176688Y291521D01*
X177601Y291899D01*
X178385Y292501D01*
X178987Y293285D01*
X179365Y294198D01*
X179494Y295177D01*
Y297146D01*
X179365Y298125D01*
X178987Y299038D01*
X178385Y299822D01*
X178219Y299950D01*
X178389Y300450D01*
X179690D01*
X182048Y298092D01*
X181923Y297146D01*
Y295177D01*
X182053Y294198D01*
X182431Y293285D01*
X183032Y292501D01*
X183816Y291899D01*
X184729Y291521D01*
X185709Y291392D01*
X186688Y291521D01*
X187601Y291899D01*
X188385Y292501D01*
X188987Y293285D01*
X189365Y294198D01*
X189494Y295177D01*
Y297146D01*
X189365Y298125D01*
X188987Y299038D01*
X188385Y299822D01*
X187601Y300424D01*
X186688Y300802D01*
X185709Y300931D01*
X184729Y300802D01*
X183816Y300424D01*
X183454Y300146D01*
X181841Y301759D01*
X182032Y302221D01*
X187918D01*
X192048Y298092D01*
X191923Y297146D01*
Y295177D01*
X192052Y294198D01*
X192431Y293285D01*
X193032Y292501D01*
X193816Y291899D01*
X194729Y291521D01*
X195709Y291392D01*
X196688Y291521D01*
X197601Y291899D01*
X198385Y292501D01*
X198987Y293285D01*
X199365Y294198D01*
X199494Y295177D01*
Y297146D01*
X199365Y298125D01*
X198987Y299038D01*
X198385Y299822D01*
X197601Y300424D01*
X196688Y300802D01*
X195709Y300931D01*
X194729Y300802D01*
X193816Y300424D01*
X193454Y300146D01*
X189971Y303629D01*
X190162Y304091D01*
X196540D01*
X202186Y298446D01*
X202052Y298125D01*
X201923Y297146D01*
Y295177D01*
X202052Y294198D01*
X202431Y293285D01*
X203032Y292501D01*
X203816Y291899D01*
X204729Y291521D01*
X205709Y291392D01*
X206688Y291521D01*
X207601Y291899D01*
X208385Y292501D01*
X208906Y293180D01*
X209360Y293077D01*
X209406Y293051D01*
Y292717D01*
X209500Y292248D01*
X209765Y291851D01*
X210661Y290955D01*
X210496Y290413D01*
X210267Y290368D01*
X209710Y289995D01*
X209337Y289437D01*
X209209Y288794D01*
X208814Y288398D01*
X205499D01*
Y284043D01*
X207247D01*
Y282769D01*
X207341Y282301D01*
X207606Y281904D01*
X211503Y278007D01*
Y276816D01*
X208971Y274284D01*
X208706Y273887D01*
X208695Y273832D01*
X205499D01*
Y269476D01*
X211036D01*
Y272513D01*
X211060Y272632D01*
Y272912D01*
X213529Y275381D01*
X214087D01*
Y279737D01*
X213233D01*
X209694Y283276D01*
Y284043D01*
X211036D01*
Y287083D01*
X211583Y287192D01*
X212141Y287564D01*
X212513Y288122D01*
X212559Y288350D01*
X213101Y288515D01*
X221680Y279936D01*
X221739Y279896D01*
Y274889D01*
X227586D01*
X227737Y274389D01*
X227525Y274247D01*
X227152Y273689D01*
X227021Y273031D01*
X227152Y272374D01*
X227525Y271816D01*
X228082Y271444D01*
X228740Y271313D01*
X229398Y271444D01*
X229943Y271808D01*
X230768D01*
X231057Y271457D01*
X231188Y270799D01*
X231560Y270241D01*
X232118Y269869D01*
X232776Y269738D01*
X233433Y269869D01*
X233979Y270233D01*
X238583D01*
X239051Y270326D01*
X239448Y270591D01*
X240136Y271280D01*
X243191D01*
X243535Y271050D01*
X244193Y270919D01*
X244286Y270937D01*
X244672Y270620D01*
Y265977D01*
X236013D01*
X235545Y265884D01*
X235148Y265619D01*
X232501Y262971D01*
X232236Y262575D01*
X232143Y262106D01*
Y259057D01*
X232117Y258930D01*
Y256530D01*
X231743Y256330D01*
X231617Y256313D01*
X231004Y256435D01*
X230346Y256305D01*
X229788Y255932D01*
X229416Y255374D01*
X229285Y254716D01*
X229416Y254059D01*
X229788Y253501D01*
X230346Y253129D01*
X231004Y252998D01*
X231617Y253120D01*
X231743Y253103D01*
X232117Y252903D01*
Y249903D01*
X232211Y249435D01*
X232476Y249038D01*
X247654Y233860D01*
X248050Y233595D01*
X248216Y233562D01*
Y233353D01*
X250800D01*
Y233422D01*
X251476D01*
X251945Y233515D01*
X252342Y233781D01*
X254218Y235657D01*
X254483Y236054D01*
X254494Y236109D01*
X257690D01*
Y240465D01*
X252153D01*
Y237428D01*
X252129Y237309D01*
Y237029D01*
X251223Y236123D01*
X250800Y235938D01*
X250800Y235938D01*
Y235938D01*
X250800Y235938D01*
X249483D01*
X249428Y235949D01*
X249026D01*
X234564Y250410D01*
Y258829D01*
X234590Y258956D01*
Y261599D01*
X236520Y263530D01*
X244672D01*
Y262911D01*
X244172Y262510D01*
X243898Y262564D01*
X243240Y262434D01*
X242682Y262061D01*
X242310Y261504D01*
X242179Y260846D01*
X242310Y260188D01*
X242682Y259630D01*
X243240Y259258D01*
X243898Y259127D01*
X244555Y259258D01*
X244923Y259504D01*
X251069D01*
X251347Y259003D01*
X251239Y258465D01*
X251025Y258204D01*
X248279D01*
X248238Y258212D01*
X243713D01*
Y258280D01*
X241129D01*
Y258212D01*
X239411D01*
X238866Y258576D01*
X238208Y258707D01*
X237550Y258576D01*
X236993Y258204D01*
X236620Y257646D01*
X236489Y256988D01*
X236620Y256330D01*
X236993Y255773D01*
X237550Y255400D01*
X238208Y255269D01*
X238866Y255400D01*
X239411Y255765D01*
X241129D01*
Y255696D01*
X243713D01*
Y255765D01*
X244672D01*
Y255504D01*
X248404D01*
X248522Y255480D01*
X252232D01*
X252355Y255504D01*
X252656Y255054D01*
X252546Y254890D01*
X252415Y254232D01*
X252546Y253574D01*
X252910Y253029D01*
Y252499D01*
X253004Y252031D01*
X253269Y251634D01*
X253737Y251166D01*
X254134Y250900D01*
X254322Y250863D01*
Y245853D01*
X256336D01*
Y244218D01*
X256286Y244143D01*
X256155Y243485D01*
X256286Y242827D01*
X256659Y242270D01*
X257216Y241897D01*
X257874Y241766D01*
X258532Y241897D01*
X259089Y242270D01*
X259462Y242827D01*
X259593Y243485D01*
X259590Y243499D01*
X259621Y243696D01*
X260114Y243883D01*
X260584Y243632D01*
X260601Y243610D01*
X260866Y243213D01*
X261755Y242325D01*
X262152Y242059D01*
X262620Y241966D01*
X267869D01*
X267945Y241916D01*
X268602Y241785D01*
X269260Y241916D01*
X269818Y242288D01*
X270190Y242846D01*
X270321Y243504D01*
X270272Y243753D01*
X270722Y244053D01*
X270799Y244002D01*
X271457Y243871D01*
X272114Y244002D01*
X272179Y244045D01*
X272492Y243576D01*
X273049Y243203D01*
X273707Y243073D01*
X274365Y243203D01*
X274890Y243554D01*
X275320Y243267D01*
X275978Y243136D01*
X276636Y243267D01*
X277193Y243639D01*
X277566Y244197D01*
X277697Y244854D01*
X277566Y245512D01*
X277193Y246070D01*
X276770Y246353D01*
X276746Y246389D01*
Y249404D01*
X276722Y249522D01*
Y253254D01*
X270810D01*
Y255834D01*
X271076Y256232D01*
X271207Y256890D01*
X271135Y257252D01*
X271495Y257752D01*
X280478D01*
X284515Y253715D01*
X284324Y253254D01*
X281627D01*
X281310Y253640D01*
X281359Y253888D01*
X281228Y254545D01*
X280856Y255103D01*
X280298Y255476D01*
X279640Y255607D01*
X278982Y255476D01*
X278425Y255103D01*
X278052Y254545D01*
X277921Y253888D01*
X278043Y253278D01*
X278022Y253254D01*
X278022D01*
Y245853D01*
X279897D01*
Y244527D01*
X279833Y244205D01*
Y244165D01*
X277943Y242275D01*
X276040D01*
X275535Y242175D01*
X275108Y241889D01*
X274351Y241132D01*
X274065Y240705D01*
X273965Y240201D01*
Y234613D01*
X273478Y234126D01*
X273192Y233698D01*
X273092Y233194D01*
Y228327D01*
X272821Y227922D01*
X272691Y227264D01*
X272821Y226606D01*
X273194Y226048D01*
X273752Y225676D01*
X274410Y225545D01*
X275067Y225676D01*
X275275Y225815D01*
X275775Y225547D01*
Y221543D01*
X281312D01*
Y225898D01*
X280772D01*
X280459Y226279D01*
X280328Y226937D01*
X279956Y227495D01*
X279398Y227868D01*
X278740Y227998D01*
X278082Y227868D01*
X277525Y227495D01*
X277152Y226937D01*
X277021Y226279D01*
X276709Y225898D01*
X276126D01*
X275859Y226398D01*
X275997Y226606D01*
X276128Y227264D01*
X275997Y227922D01*
X275727Y228327D01*
Y232648D01*
X276214Y233136D01*
X276500Y233563D01*
X276600Y234067D01*
Y236109D01*
X278935D01*
X279088Y235879D01*
X279679Y235289D01*
X280106Y235003D01*
X280610Y234903D01*
X282566D01*
Y232960D01*
X289678D01*
Y239284D01*
X284053D01*
X283790Y239784D01*
X283904Y240354D01*
X283773Y241012D01*
X283401Y241570D01*
X282843Y241942D01*
X282185Y242073D01*
X282172Y242071D01*
X281925Y242531D01*
X282082Y242688D01*
X282368Y243115D01*
X282449Y243522D01*
X282562Y243637D01*
X282672Y243715D01*
X282968Y243852D01*
X283465Y243754D01*
X284122Y243884D01*
X284680Y244257D01*
X285053Y244815D01*
X285183Y245472D01*
X285496Y245853D01*
X286622D01*
Y247451D01*
X287063Y247687D01*
X287145Y247632D01*
X287803Y247501D01*
X288461Y247632D01*
X289018Y248005D01*
X289224Y248312D01*
X289832Y248411D01*
X291887Y246356D01*
Y240869D01*
X291522Y240323D01*
X291391Y239665D01*
X291522Y239008D01*
X291895Y238450D01*
X292453Y238077D01*
X293110Y237947D01*
X293768Y238077D01*
X294326Y238450D01*
X294698Y239008D01*
X294829Y239665D01*
X294698Y240323D01*
X294334Y240869D01*
Y246863D01*
X294241Y247331D01*
X293975Y247728D01*
X287185Y254519D01*
X287147Y254544D01*
X281850Y259841D01*
X281453Y260106D01*
X280985Y260199D01*
X273266D01*
X273061Y260583D01*
X273052Y260699D01*
X273176Y261319D01*
X273045Y261977D01*
X272672Y262534D01*
X272114Y262907D01*
X271888Y262952D01*
X271483Y263212D01*
X271525Y263495D01*
X271601Y263878D01*
X271470Y264536D01*
X271417Y264615D01*
X271684Y265115D01*
X273622D01*
X274041Y265198D01*
X274117Y264814D01*
X274489Y264256D01*
X275047Y263884D01*
X275705Y263753D01*
X276363Y263884D01*
X276920Y264256D01*
X277293Y264814D01*
X277406Y265383D01*
X277571Y265618D01*
X277625Y265673D01*
X277861Y265837D01*
X278430Y265951D01*
X278987Y266323D01*
X279360Y266881D01*
X279491Y267539D01*
X279362Y268185D01*
X279388Y268222D01*
X279732Y268540D01*
X279953Y268392D01*
X280610Y268262D01*
X281268Y268392D01*
X281826Y268765D01*
X282198Y269322D01*
X282220Y269430D01*
X288872D01*
Y265404D01*
Y262077D01*
X288019D01*
X287551Y261984D01*
X287154Y261719D01*
X286698Y261263D01*
X286055Y261135D01*
X285497Y260763D01*
X285125Y260205D01*
X284994Y259547D01*
X285125Y258890D01*
X285497Y258332D01*
X286055Y257959D01*
X286698Y257831D01*
X288702Y255828D01*
X288872Y255714D01*
Y255504D01*
X289395D01*
X289567Y255469D01*
X292224D01*
X292396Y255504D01*
X296272D01*
Y255765D01*
X297428D01*
Y255696D01*
X299783D01*
X300013Y255696D01*
X300013Y255696D01*
X300283D01*
Y255696D01*
X300513Y255696D01*
X302867D01*
Y258280D01*
X300513D01*
X300283Y258280D01*
X300283Y258280D01*
X300013D01*
Y258280D01*
X299783Y258280D01*
X297627D01*
X297414Y258774D01*
X299326Y260686D01*
X304021D01*
X305568Y259139D01*
Y252778D01*
X305203Y252233D01*
X305072Y251575D01*
X305203Y250917D01*
X305576Y250359D01*
X306134Y249987D01*
X306791Y249856D01*
X307449Y249987D01*
X308007Y250359D01*
X308379Y250917D01*
X308510Y251575D01*
X308379Y252233D01*
X308015Y252778D01*
Y259646D01*
X307922Y260114D01*
X307657Y260511D01*
X305393Y262775D01*
X305010Y263030D01*
X305002Y263069D01*
X305094Y263530D01*
X307378D01*
X313836Y257072D01*
Y252559D01*
X313929Y252091D01*
X314194Y251694D01*
X325157Y240731D01*
X324966Y240268D01*
X320657D01*
Y235913D01*
X322202D01*
Y234963D01*
X321837Y234418D01*
X321706Y233760D01*
X321837Y233102D01*
X322202Y232557D01*
Y231693D01*
X322295Y231225D01*
X322560Y230828D01*
X326237Y227151D01*
Y226184D01*
X326194Y225702D01*
X320657D01*
Y221346D01*
X322434D01*
X322632Y220867D01*
X323148Y220195D01*
X323148Y220195D01*
X323454Y219822D01*
X323874Y219274D01*
X324324Y218189D01*
X324397Y217636D01*
Y215440D01*
X328753D01*
Y218024D01*
X328684D01*
Y227658D01*
X328591Y228126D01*
X328326Y228523D01*
X324649Y232200D01*
Y232557D01*
X325013Y233102D01*
X325144Y233760D01*
X325024Y234363D01*
X325037Y234390D01*
X325170Y234563D01*
X325384Y234762D01*
X325689Y234702D01*
X330020D01*
X330488Y234795D01*
X330885Y235060D01*
X333168Y237343D01*
X333433Y237740D01*
X333526Y238208D01*
Y259504D01*
X334026Y259603D01*
X334123Y259367D01*
X334725Y258583D01*
X335509Y257982D01*
X336422Y257604D01*
X337402Y257475D01*
X338381Y257604D01*
X339294Y257982D01*
X340078Y258583D01*
X340680Y259367D01*
X341058Y260280D01*
X341187Y261260D01*
X341058Y262240D01*
X340680Y263152D01*
X340078Y263936D01*
X339294Y264538D01*
X339079Y264627D01*
X338962Y265217D01*
X341215Y267470D01*
X341691Y267292D01*
X341713Y267261D01*
X341588Y266634D01*
X341719Y265976D01*
X341985Y265578D01*
Y253445D01*
X342078Y252977D01*
X342343Y252580D01*
X349465Y245458D01*
Y231862D01*
X348796Y231585D01*
X348012Y230984D01*
X347411Y230200D01*
X347033Y229287D01*
X346904Y228307D01*
X347033Y227327D01*
X347411Y226414D01*
X348012Y225631D01*
X348796Y225029D01*
X349709Y224651D01*
X350689Y224522D01*
X351669Y224651D01*
X352582Y225029D01*
X353365Y225631D01*
X353967Y226414D01*
X354345Y227327D01*
X354474Y228307D01*
X354345Y229287D01*
X353967Y230200D01*
X353365Y230984D01*
X352582Y231585D01*
X351912Y231862D01*
Y245965D01*
X351819Y246433D01*
X351554Y246830D01*
X344432Y253952D01*
Y258178D01*
X344932Y258424D01*
X345509Y257982D01*
X346422Y257604D01*
X347402Y257475D01*
X348381Y257604D01*
X349294Y257982D01*
X350078Y258583D01*
X350680Y259367D01*
X351058Y260280D01*
X351187Y261260D01*
X351058Y262240D01*
X350775Y262923D01*
X354737Y266885D01*
X355199Y266694D01*
Y258308D01*
X354351Y257460D01*
X354086Y257063D01*
X353993Y256594D01*
Y244018D01*
X353628Y243473D01*
X353498Y242815D01*
X353628Y242157D01*
X354001Y241599D01*
X354559Y241227D01*
X355217Y241096D01*
X355874Y241227D01*
X356432Y241599D01*
X356544Y241768D01*
X357044Y241616D01*
Y202264D01*
X357137Y201796D01*
X357403Y201399D01*
X373284Y185517D01*
Y153150D01*
X373377Y152681D01*
X373643Y152285D01*
X376891Y149036D01*
X377288Y148771D01*
X377756Y148678D01*
X386203D01*
Y148072D01*
X395284D01*
Y152034D01*
X386203D01*
Y151125D01*
X378263D01*
X375731Y153656D01*
Y157461D01*
X376231Y157668D01*
X379791Y154109D01*
X380188Y153844D01*
X380656Y153751D01*
X386203D01*
Y152993D01*
X395284D01*
Y156955D01*
X386203D01*
Y156198D01*
X381163D01*
X377995Y159365D01*
Y177397D01*
X378457Y177588D01*
X396021Y160025D01*
Y147357D01*
X395632Y146968D01*
X395283Y147113D01*
Y147113D01*
X386203D01*
Y143150D01*
X395284D01*
Y143660D01*
X395744Y143752D01*
X396141Y144017D01*
X398109Y145985D01*
X398375Y146382D01*
X398468Y146850D01*
Y160531D01*
X398375Y161000D01*
X398109Y161397D01*
X379767Y179739D01*
Y191043D01*
X379674Y191511D01*
X379409Y191908D01*
X363723Y207593D01*
Y237478D01*
X364088Y238023D01*
X364219Y238681D01*
X364088Y239339D01*
X363715Y239896D01*
X363158Y240269D01*
X362500Y240400D01*
X361842Y240269D01*
X361285Y239896D01*
X360912Y239339D01*
X360781Y238681D01*
X360912Y238023D01*
X361277Y237478D01*
Y207087D01*
X361370Y206618D01*
X361635Y206222D01*
X365021Y202835D01*
X365029Y202811D01*
X364723Y202414D01*
X364632Y202475D01*
X364339Y202671D01*
X363681Y202801D01*
X363023Y202671D01*
X362466Y202298D01*
X362093Y201741D01*
X361962Y201083D01*
X361981Y200988D01*
X361520Y200742D01*
X359491Y202771D01*
Y295625D01*
X359856Y296171D01*
X359987Y296829D01*
X359953Y296999D01*
X361374Y298421D01*
X361917Y298256D01*
X361995Y297866D01*
X362367Y297308D01*
X362925Y296936D01*
X363583Y296805D01*
X363655Y296819D01*
X365312Y295163D01*
Y216531D01*
X365405Y216063D01*
X365670Y215666D01*
X386204Y195133D01*
Y192901D01*
X395284D01*
Y193658D01*
X396654D01*
X397122Y193752D01*
X397519Y194017D01*
X399129Y195626D01*
X399772Y195755D01*
X400330Y196127D01*
X400702Y196685D01*
X400833Y197343D01*
X400702Y198000D01*
X400330Y198558D01*
X399772Y198931D01*
X399114Y199061D01*
X398456Y198931D01*
X397899Y198558D01*
X397526Y198000D01*
X397398Y197357D01*
X396147Y196105D01*
X395284D01*
Y196863D01*
X387934D01*
X387437Y197360D01*
X387629Y197822D01*
X395284D01*
Y201784D01*
X386204D01*
X386204Y201784D01*
Y201784D01*
X385741Y201914D01*
X385120Y202535D01*
X385266Y202883D01*
X385351Y203012D01*
X385976Y203136D01*
X386533Y203509D01*
X386906Y204067D01*
X387037Y204724D01*
X386906Y205382D01*
X386533Y205940D01*
X385976Y206312D01*
X385318Y206443D01*
X384660Y206312D01*
X384103Y205940D01*
X383730Y205382D01*
X383606Y204757D01*
X383476Y204673D01*
X383129Y204527D01*
X375786Y211870D01*
X375833Y212106D01*
X375702Y212764D01*
X375330Y213322D01*
X374772Y213694D01*
X374114Y213825D01*
X373877Y213778D01*
X369432Y218223D01*
Y299902D01*
X369339Y300370D01*
X369074Y300767D01*
X367710Y302130D01*
X367631Y302528D01*
X367259Y303085D01*
X366952Y303291D01*
X366853Y303899D01*
X369077Y306123D01*
X369182Y306144D01*
X369579Y306409D01*
X372754Y309584D01*
X373216Y309393D01*
Y300853D01*
X382690D01*
Y304279D01*
X383180Y304354D01*
X383658Y303202D01*
X384417Y302212D01*
X385406Y301453D01*
X386559Y300975D01*
X387526Y300848D01*
X387567Y300843D01*
Y300338D01*
X387526Y300333D01*
X386559Y300206D01*
X385406Y299728D01*
X384417Y298969D01*
X383658Y297979D01*
X383180Y296827D01*
X382690Y296902D01*
Y300328D01*
X373216D01*
Y290854D01*
X382690D01*
Y294280D01*
X383180Y294354D01*
X383658Y293202D01*
X384417Y292212D01*
X385406Y291453D01*
X386559Y290975D01*
X387526Y290848D01*
X387567Y290843D01*
Y290338D01*
X387526Y290333D01*
X386559Y290206D01*
X385406Y289728D01*
X384417Y288969D01*
X383658Y287980D01*
X383180Y286827D01*
X382690Y286902D01*
Y290328D01*
X373216D01*
Y280854D01*
X382690D01*
Y284279D01*
X383180Y284354D01*
X383658Y283202D01*
X384417Y282212D01*
X385406Y281453D01*
X386559Y280976D01*
X387795Y280813D01*
X389032Y280976D01*
X390184Y281453D01*
X391174Y282212D01*
X391933Y283202D01*
X392410Y284354D01*
X392573Y285591D01*
X392410Y286827D01*
X391933Y287980D01*
X391174Y288969D01*
X390184Y289728D01*
X389032Y290206D01*
X388065Y290333D01*
X388023Y290338D01*
Y290843D01*
X388065Y290848D01*
X389032Y290975D01*
X390184Y291453D01*
X391174Y292212D01*
X391933Y293202D01*
X392410Y294354D01*
X392573Y295590D01*
X392410Y296827D01*
X391933Y297979D01*
X391174Y298969D01*
X390184Y299728D01*
X389032Y300206D01*
X388065Y300333D01*
X388023Y300338D01*
Y300843D01*
X388065Y300848D01*
X389032Y300975D01*
X390184Y301453D01*
X391174Y302212D01*
X391933Y303202D01*
X392410Y304354D01*
X392573Y305591D01*
X392410Y306827D01*
X391933Y307979D01*
X391174Y308969D01*
X390184Y309728D01*
X389032Y310206D01*
X387795Y310368D01*
X386559Y310206D01*
X385406Y309728D01*
X384417Y308969D01*
X383658Y307979D01*
X383180Y306827D01*
X382690Y306902D01*
Y310328D01*
X374150D01*
X373959Y310789D01*
X382361Y319192D01*
X382626Y319589D01*
X382720Y320057D01*
Y328332D01*
X383971Y329584D01*
X386204D01*
Y329174D01*
X395284D01*
Y333136D01*
X386204D01*
Y332031D01*
X383465D01*
X382996Y331938D01*
X382599Y331672D01*
X380956Y330029D01*
X380456Y330236D01*
Y331284D01*
X383676Y334505D01*
X386204D01*
Y334095D01*
X395284D01*
Y337234D01*
X396075D01*
X396808Y336502D01*
X396936Y335858D01*
X397300Y335313D01*
Y329247D01*
X395784Y327731D01*
X395284Y327938D01*
Y328215D01*
X386204D01*
Y324253D01*
X395284D01*
Y324859D01*
X395866D01*
X396334Y324952D01*
X396731Y325218D01*
X399389Y327875D01*
X399654Y328272D01*
X399747Y328740D01*
Y335313D01*
X400112Y335858D01*
X400243Y336516D01*
X400112Y337174D01*
X399739Y337731D01*
X399181Y338104D01*
X398538Y338232D01*
X397447Y339323D01*
X397050Y339588D01*
X396582Y339681D01*
X381568D01*
X381100Y339588D01*
X380703Y339323D01*
X375119Y333739D01*
X374854Y333342D01*
X374761Y332874D01*
Y319577D01*
X372908Y317725D01*
X372836Y317677D01*
X369827Y314668D01*
X369608Y314711D01*
X369317Y314865D01*
X369206Y315422D01*
X368833Y315979D01*
X368276Y316352D01*
X367618Y316483D01*
X366960Y316352D01*
X366403Y315979D01*
X366030Y315422D01*
X365899Y314764D01*
X366030Y314106D01*
X366403Y313548D01*
X366960Y313176D01*
X367517Y313065D01*
X367671Y312774D01*
X367714Y312555D01*
X367308Y312149D01*
X349803D01*
X349335Y312056D01*
X348938Y311790D01*
X332660Y295512D01*
X332198Y295703D01*
Y296076D01*
X325971D01*
X325764Y296576D01*
X329310Y300122D01*
X329575Y300519D01*
X329668Y300987D01*
Y307244D01*
Y325492D01*
X329664Y325516D01*
X329795Y326849D01*
X330191Y328153D01*
X330833Y329355D01*
X331698Y330409D01*
X332751Y331273D01*
X333953Y331916D01*
X335258Y332311D01*
X336111Y332395D01*
X336245Y332390D01*
X336614Y332374D01*
X337114Y332437D01*
X362709Y332385D01*
X362747Y332329D01*
X363305Y331956D01*
X363963Y331825D01*
X364620Y331956D01*
X365107Y332281D01*
X365391Y332201D01*
X365607Y332071D01*
Y324717D01*
X362609D01*
X362342Y325217D01*
X362415Y325326D01*
X362546Y325984D01*
X362415Y326642D01*
X362042Y327200D01*
X361485Y327572D01*
X360827Y327703D01*
X360169Y327572D01*
X359611Y327200D01*
X359239Y326642D01*
X359108Y325984D01*
X359239Y325326D01*
X359312Y325217D01*
X359044Y324717D01*
X355893D01*
Y322681D01*
X355248Y322553D01*
X354690Y322180D01*
X354317Y321622D01*
X354187Y320965D01*
X354317Y320307D01*
X354690Y319749D01*
X355248Y319377D01*
X355893Y319248D01*
Y317212D01*
X361430D01*
Y324126D01*
X361699Y324285D01*
X362192Y324010D01*
Y317212D01*
X367729D01*
Y321496D01*
X367952Y322033D01*
X368057Y322835D01*
X368054D01*
Y333268D01*
X368061D01*
X367939Y334198D01*
X367580Y335064D01*
X367009Y335808D01*
X366755Y336003D01*
X366925Y336503D01*
X367729D01*
Y344009D01*
X363950D01*
X363798Y344509D01*
X364011Y344651D01*
X364383Y345208D01*
X364514Y345866D01*
X364383Y346524D01*
X364011Y347082D01*
X363453Y347454D01*
X362795Y347585D01*
X362138Y347454D01*
X361580Y347082D01*
X361207Y346524D01*
X361076Y345866D01*
X361207Y345208D01*
X361580Y344651D01*
X361945Y344407D01*
X362163Y344056D01*
X362192Y343796D01*
Y336853D01*
X361430D01*
Y344009D01*
X355893D01*
Y336853D01*
X351686D01*
Y344107D01*
X346149D01*
Y337653D01*
X345713Y337383D01*
X345387Y337573D01*
Y344107D01*
X339850D01*
Y338492D01*
X339440Y338201D01*
X339087Y338379D01*
Y344107D01*
X333550D01*
Y336602D01*
X335475D01*
X335642Y336200D01*
X336038Y335684D01*
X336055Y335661D01*
X336223Y335533D01*
X336243Y335503D01*
X336410Y335388D01*
X336414Y335350D01*
X336283Y334874D01*
X334777Y334726D01*
X333011Y334190D01*
X331384Y333320D01*
X329957Y332149D01*
X328786Y330723D01*
X327916Y329095D01*
X327380Y327329D01*
X327200Y325492D01*
X327221D01*
Y307244D01*
Y301494D01*
X326734Y301006D01*
X326125Y301105D01*
X325920Y301412D01*
X325362Y301785D01*
X324705Y301916D01*
X324047Y301785D01*
X323501Y301420D01*
X315846D01*
X315378Y301327D01*
X314981Y301062D01*
X313987Y300068D01*
X312538D01*
X312178Y300568D01*
X312250Y300930D01*
X312150Y301434D01*
Y306613D01*
X313792Y308255D01*
X315268D01*
Y310839D01*
X315200D01*
Y311897D01*
X318418D01*
Y319009D01*
X313822D01*
Y346149D01*
X315761D01*
Y353261D01*
X313723D01*
Y354318D01*
X315761D01*
Y361124D01*
X316142Y361354D01*
X316523Y361124D01*
Y354318D01*
X322847D01*
Y356650D01*
X329331D01*
Y356646D01*
X330006Y356557D01*
X330636Y356297D01*
X330991Y356024D01*
Y351267D01*
X335347D01*
Y356804D01*
X333557D01*
X332924Y357629D01*
X331872Y358437D01*
X330646Y358944D01*
X329331Y359118D01*
Y359098D01*
X322847D01*
Y361430D01*
X319361D01*
X319279Y361544D01*
X319172Y361930D01*
X331880Y374638D01*
X332432Y374482D01*
X332455Y374387D01*
X333090Y372853D01*
X333958Y371437D01*
X335036Y370174D01*
X336299Y369096D01*
X337715Y368228D01*
X339249Y367592D01*
X340864Y367205D01*
X342520Y367074D01*
Y367084D01*
X353346D01*
X353815Y367177D01*
X353867Y367212D01*
X354343D01*
Y367639D01*
X354477Y367839D01*
X354570Y368307D01*
X354574D01*
X354465Y368852D01*
X354343Y369035D01*
Y371568D01*
X352465D01*
X351990Y371630D01*
X351001Y372040D01*
X350152Y372691D01*
X349500Y373540D01*
X349149Y374389D01*
X349359Y374835D01*
X349406Y374889D01*
X349914D01*
Y380426D01*
X345558D01*
Y374889D01*
X346574D01*
X346631Y374313D01*
X347003Y373085D01*
X347608Y371954D01*
X348422Y370961D01*
X349414Y370147D01*
X349633Y370031D01*
X349507Y369531D01*
X342520D01*
X342477Y369522D01*
X340932Y369674D01*
X339405Y370138D01*
X337998Y370890D01*
X336764Y371902D01*
X335752Y373135D01*
X335082Y374389D01*
X335306Y374889D01*
X335347D01*
Y380426D01*
X333105D01*
X332913Y380888D01*
X333774Y381749D01*
X336547D01*
X336698Y381249D01*
X336383Y381038D01*
X336010Y380481D01*
X335880Y379823D01*
X336010Y379165D01*
X336383Y378607D01*
X336941Y378235D01*
X337598Y378104D01*
X338256Y378235D01*
X338814Y378607D01*
X339186Y379165D01*
X339317Y379823D01*
X339186Y380481D01*
X338814Y381038D01*
X338498Y381249D01*
X338650Y381749D01*
X353430D01*
X357114Y378066D01*
X357369Y377895D01*
Y374594D01*
X358422D01*
Y366831D01*
X358432Y366782D01*
X358268Y365538D01*
X357769Y364334D01*
X356976Y363300D01*
X355942Y362506D01*
X354737Y362007D01*
X354089Y361922D01*
X352153D01*
Y357566D01*
X352982D01*
X353157Y357450D01*
X353740Y357334D01*
Y357340D01*
X367224D01*
Y357324D01*
X368810Y357480D01*
X370335Y357943D01*
X371741Y358694D01*
X372972Y359705D01*
X373983Y360937D01*
X374734Y362342D01*
X375197Y363867D01*
X375353Y365453D01*
X375338D01*
Y374594D01*
X376292D01*
Y380131D01*
X371936D01*
Y374594D01*
X372891D01*
Y365453D01*
X372904Y365386D01*
X372719Y363981D01*
X372151Y362609D01*
X371247Y361430D01*
X370069Y360526D01*
X368697Y359958D01*
X367291Y359773D01*
X367224Y359787D01*
X357027D01*
X356901Y360286D01*
X357576Y360647D01*
X358703Y361572D01*
X359628Y362699D01*
X360315Y363985D01*
X360739Y365380D01*
X360881Y366831D01*
X360869D01*
Y374594D01*
X361725D01*
Y380131D01*
X358687D01*
X358569Y380154D01*
X358486D01*
X354802Y383838D01*
X354405Y384103D01*
X353937Y384196D01*
D02*
G37*
G36*
X115169Y358658D02*
X101365D01*
Y353120D01*
X115169D01*
Y358658D01*
D02*
G37*
G36*
X410447Y358621D02*
X396642D01*
Y353084D01*
X410447D01*
Y358621D01*
D02*
G37*
G36*
X361725Y356509D02*
X357369D01*
Y351460D01*
X356721Y350963D01*
X355948Y350643D01*
X355121Y350534D01*
X355118Y350535D01*
X322847D01*
Y353261D01*
X316523D01*
Y346149D01*
X322847D01*
Y348088D01*
X355118D01*
Y348062D01*
X356588Y348256D01*
X357957Y348823D01*
X359133Y349725D01*
X360035Y350901D01*
X360064Y350972D01*
X361725D01*
Y356509D01*
D02*
G37*
G36*
X410447Y351066D02*
X396642D01*
Y345529D01*
X410447D01*
Y351066D01*
D02*
G37*
G36*
X115169D02*
X101365D01*
Y345529D01*
X115169D01*
Y351066D01*
D02*
G37*
G36*
X125607Y342943D02*
X116527D01*
Y342185D01*
X111828D01*
X111359Y342092D01*
X110962Y341827D01*
X105104Y335968D01*
X104460Y335840D01*
X103903Y335467D01*
X103530Y334910D01*
X103399Y334252D01*
X103530Y333594D01*
X103903Y333037D01*
X104460Y332664D01*
X105118Y332533D01*
X105776Y332664D01*
X106333Y333037D01*
X106706Y333594D01*
X106834Y334238D01*
X112334Y339738D01*
X116527D01*
Y338980D01*
X125607D01*
Y342943D01*
D02*
G37*
G36*
X374028Y344009D02*
X368491D01*
Y336503D01*
X369667D01*
X369738Y336417D01*
X369869Y335759D01*
X370241Y335202D01*
X370799Y334829D01*
X371457Y334699D01*
X372114Y334829D01*
X372672Y335202D01*
X373045Y335759D01*
X373176Y336417D01*
X373246Y336503D01*
X374028D01*
Y344009D01*
D02*
G37*
G36*
X125607Y338021D02*
X116527D01*
Y337264D01*
X114485D01*
X114017Y337171D01*
X113620Y336905D01*
X111403Y334688D01*
X110759Y334560D01*
X110202Y334188D01*
X109829Y333630D01*
X109698Y332972D01*
X109829Y332315D01*
X110202Y331757D01*
X110759Y331384D01*
X111417Y331254D01*
X112075Y331384D01*
X112633Y331757D01*
X113005Y332315D01*
X113133Y332958D01*
X114992Y334817D01*
X116527D01*
Y334059D01*
X125607D01*
Y338021D01*
D02*
G37*
G36*
X354921Y331443D02*
X354263Y331312D01*
X353706Y330940D01*
X353645Y330850D01*
X340059D01*
X340009Y330839D01*
X340002Y330838D01*
X339961Y330873D01*
X339960Y330872D01*
X339591Y330756D01*
X339507Y330718D01*
X339075Y330661D01*
X338727Y330616D01*
X337669Y330177D01*
X336760Y329480D01*
X336063Y328572D01*
X335625Y327513D01*
X335475Y326378D01*
X335489D01*
Y324816D01*
X333550D01*
Y317310D01*
X339087D01*
Y323767D01*
X339354Y323918D01*
X339850Y323635D01*
Y317310D01*
X339961D01*
X340112Y317126D01*
X340243Y316468D01*
X340615Y315911D01*
X341173Y315538D01*
X341831Y315407D01*
X342489Y315538D01*
X342584Y315602D01*
X343140Y315372D01*
X343195Y315090D01*
X343568Y314533D01*
X344126Y314160D01*
X344783Y314029D01*
X345441Y314160D01*
X345999Y314533D01*
X346372Y315090D01*
X346502Y315748D01*
X346372Y316406D01*
X345999Y316963D01*
X345441Y317336D01*
X345387Y317347D01*
Y324816D01*
X340733D01*
X340424Y325316D01*
X340517Y325787D01*
X340386Y326445D01*
X340014Y327002D01*
X339456Y327375D01*
X339273Y327411D01*
X339085Y327959D01*
X339270Y328197D01*
X339486Y328240D01*
X339961Y328302D01*
Y328302D01*
X340465Y328402D01*
X353865D01*
X354263Y328136D01*
X354921Y328006D01*
X355579Y328136D01*
X356137Y328509D01*
X356509Y329067D01*
X356640Y329724D01*
X356509Y330382D01*
X356137Y330940D01*
X355579Y331312D01*
X354921Y331443D01*
D02*
G37*
G36*
X273339Y347650D02*
X270755D01*
Y346410D01*
X270725Y346260D01*
Y343576D01*
X262763D01*
Y338865D01*
X262851D01*
Y337729D01*
X258885D01*
Y335105D01*
Y331169D01*
Y327232D01*
X262763D01*
Y323354D01*
X264820D01*
Y321063D01*
X264913Y320595D01*
X265145Y320248D01*
Y319509D01*
X265145Y319377D01*
X265145Y319377D01*
Y319009D01*
X265145D01*
X265145Y318877D01*
Y316947D01*
X264849Y316504D01*
X264718Y315846D01*
X264849Y315189D01*
X265222Y314631D01*
X265779Y314258D01*
X266437Y314128D01*
X267095Y314258D01*
X267652Y314631D01*
X268025Y315189D01*
X268156Y315846D01*
X268025Y316504D01*
X267729Y316947D01*
Y318877D01*
X267729Y319009D01*
X267729Y319009D01*
Y319377D01*
X267729D01*
X267729Y319509D01*
Y321961D01*
X267267D01*
Y323354D01*
X267355D01*
Y327320D01*
X268669D01*
Y323354D01*
X268757D01*
Y322047D01*
X268850Y321579D01*
X269115Y321182D01*
X269968Y320329D01*
Y319476D01*
X272552D01*
Y322060D01*
X271698D01*
X271204Y322554D01*
Y323354D01*
X271292D01*
Y327320D01*
X272605D01*
Y323354D01*
X275229D01*
Y327232D01*
X279107D01*
Y329200D01*
Y333137D01*
Y337729D01*
X274397D01*
Y333137D01*
Y329767D01*
X266732D01*
X266264Y329674D01*
X265867Y329408D01*
X265178Y328719D01*
X264913Y328323D01*
X264861Y328064D01*
X263595D01*
Y331169D01*
Y334658D01*
X264095Y334707D01*
X264160Y334382D01*
X264533Y333824D01*
X265090Y333451D01*
X265748Y333320D01*
X266406Y333451D01*
X266963Y333824D01*
X267336Y334382D01*
X267421Y334807D01*
X267790Y335082D01*
X267951Y335104D01*
X268504Y334994D01*
X269162Y335125D01*
X269719Y335497D01*
X270092Y336055D01*
X270223Y336713D01*
X270092Y337370D01*
X269719Y337928D01*
X269162Y338301D01*
X268836Y338365D01*
X268885Y338865D01*
X275229D01*
Y343576D01*
X273172D01*
Y345066D01*
X273339D01*
Y347650D01*
D02*
G37*
G36*
X274508Y319928D02*
X273850Y319797D01*
X273292Y319424D01*
X272920Y318866D01*
X272789Y318209D01*
X272920Y317551D01*
X273292Y316993D01*
X273850Y316621D01*
X274508Y316490D01*
X275166Y316621D01*
X275723Y316993D01*
X276096Y317551D01*
X276227Y318209D01*
X276096Y318866D01*
X275723Y319424D01*
X275166Y319797D01*
X274508Y319928D01*
D02*
G37*
G36*
X410447Y321666D02*
X396642D01*
Y316129D01*
X410447D01*
Y321666D01*
D02*
G37*
G36*
X115169D02*
X101365D01*
Y316129D01*
X115169D01*
Y321666D01*
D02*
G37*
G36*
X125607Y333100D02*
X116527D01*
Y329138D01*
X123758D01*
X129092Y323804D01*
Y319783D01*
X129185Y319315D01*
X129450Y318918D01*
X135060Y313308D01*
X135457Y313043D01*
X135925Y312950D01*
X138462D01*
X139008Y312585D01*
X139665Y312454D01*
X140323Y312585D01*
X140881Y312958D01*
X141253Y313515D01*
X141384Y314173D01*
X141253Y314831D01*
X140881Y315389D01*
X140323Y315761D01*
X139665Y315892D01*
X139008Y315761D01*
X138462Y315397D01*
X136432D01*
X131538Y320290D01*
Y324311D01*
X131445Y324779D01*
X131180Y325176D01*
X125607Y330749D01*
Y333100D01*
D02*
G37*
G36*
X124508Y311077D02*
X123271Y310914D01*
X122119Y310437D01*
X121129Y309678D01*
X120370Y308688D01*
X119893Y307536D01*
X119730Y306299D01*
X119893Y305063D01*
X120370Y303910D01*
X121129Y302921D01*
X122119Y302161D01*
X123271Y301684D01*
X124508Y301521D01*
X125744Y301684D01*
X126897Y302161D01*
X127886Y302921D01*
X128646Y303910D01*
X129123Y305063D01*
X129613Y304988D01*
Y301562D01*
X139087D01*
Y311036D01*
X129613D01*
Y307610D01*
X129123Y307536D01*
X128646Y308688D01*
X127886Y309678D01*
X126897Y310437D01*
X125744Y310914D01*
X124508Y311077D01*
D02*
G37*
G36*
X187414Y288398D02*
X181877D01*
Y284043D01*
X187414D01*
Y284800D01*
X188560D01*
X189106Y284436D01*
X189764Y284305D01*
X190422Y284436D01*
X190979Y284808D01*
X191352Y285366D01*
X191483Y286024D01*
X191352Y286681D01*
X190979Y287239D01*
X190422Y287612D01*
X189764Y287742D01*
X189106Y287612D01*
X188560Y287247D01*
X187414D01*
Y288398D01*
D02*
G37*
G36*
X160433Y286069D02*
X159775Y285938D01*
X159218Y285566D01*
X158845Y285008D01*
X158714Y284350D01*
X158845Y283693D01*
X159218Y283135D01*
X159775Y282762D01*
X160433Y282631D01*
X161091Y282762D01*
X161648Y283135D01*
X162021Y283693D01*
X162152Y284350D01*
X162021Y285008D01*
X161648Y285566D01*
X161091Y285938D01*
X160433Y286069D01*
D02*
G37*
G36*
X156705Y288398D02*
X151169D01*
Y284043D01*
X152714D01*
Y283173D01*
X152349Y282627D01*
X152218Y281969D01*
X152349Y281311D01*
X152722Y280754D01*
X153279Y280381D01*
X153937Y280250D01*
X154595Y280381D01*
X155152Y280754D01*
X155525Y281311D01*
X155656Y281969D01*
X155525Y282627D01*
X155160Y283173D01*
Y284043D01*
X156705D01*
Y288398D01*
D02*
G37*
G36*
X202264Y280951D02*
X201606Y280820D01*
X201048Y280448D01*
X200676Y279890D01*
X200545Y279232D01*
X200676Y278574D01*
X201048Y278017D01*
X201606Y277644D01*
X202264Y277513D01*
X202922Y277644D01*
X203479Y278017D01*
X203852Y278574D01*
X203983Y279232D01*
X203852Y279890D01*
X203479Y280448D01*
X202922Y280820D01*
X202264Y280951D01*
D02*
G37*
G36*
X388732Y279423D02*
X386858D01*
X385866Y279293D01*
X384942Y278910D01*
X384148Y278301D01*
X383539Y277507D01*
X383156Y276583D01*
X382690Y276699D01*
Y279391D01*
X373216D01*
Y271791D01*
X382690D01*
Y274482D01*
X383156Y274599D01*
X383539Y273674D01*
X384148Y272880D01*
X384942Y272271D01*
X385866Y271888D01*
X386858Y271758D01*
X388732D01*
X389724Y271888D01*
X390649Y272271D01*
X391442Y272880D01*
X392052Y273674D01*
X392435Y274599D01*
X392565Y275590D01*
X392435Y276583D01*
X392052Y277507D01*
X391442Y278301D01*
X390649Y278910D01*
X389724Y279293D01*
X388732Y279423D01*
D02*
G37*
G36*
X196752Y271896D02*
X196094Y271765D01*
X195537Y271393D01*
X195164Y270835D01*
X195033Y270177D01*
X195164Y269519D01*
X195537Y268962D01*
X196094Y268589D01*
X196752Y268458D01*
X197410Y268589D01*
X197967Y268962D01*
X198340Y269519D01*
X198471Y270177D01*
X198340Y270835D01*
X197967Y271393D01*
X197410Y271765D01*
X196752Y271896D01*
D02*
G37*
G36*
X124311Y291116D02*
X123074Y290954D01*
X121922Y290476D01*
X120932Y289717D01*
X120173Y288727D01*
X119696Y287575D01*
X119533Y286339D01*
X119696Y285102D01*
X120173Y283950D01*
X120932Y282960D01*
X121922Y282201D01*
X123074Y281723D01*
X124041Y281596D01*
X124083Y281591D01*
Y281086D01*
X124041Y281081D01*
X123074Y280954D01*
X121922Y280476D01*
X120932Y279717D01*
X120173Y278728D01*
X119696Y277575D01*
X119533Y276339D01*
X119696Y275102D01*
X120173Y273950D01*
X120932Y272960D01*
X121922Y272201D01*
X123074Y271724D01*
X124041Y271596D01*
X124083Y271591D01*
Y271087D01*
X124041Y271081D01*
X123074Y270954D01*
X121922Y270476D01*
X120932Y269717D01*
X120173Y268727D01*
X119696Y267575D01*
X119533Y266339D01*
X119696Y265102D01*
X120173Y263950D01*
X120932Y262960D01*
X121922Y262201D01*
X123074Y261723D01*
X124041Y261596D01*
X124083Y261591D01*
Y261087D01*
X124041Y261081D01*
X123074Y260954D01*
X121922Y260476D01*
X120932Y259717D01*
X120173Y258728D01*
X119696Y257575D01*
X119533Y256339D01*
X119696Y255102D01*
X120173Y253950D01*
X120932Y252960D01*
X121922Y252201D01*
X123074Y251724D01*
X124041Y251596D01*
X124083Y251591D01*
Y251086D01*
X124041Y251081D01*
X123074Y250954D01*
X121922Y250476D01*
X120932Y249717D01*
X120173Y248727D01*
X119696Y247575D01*
X119533Y246339D01*
X119696Y245102D01*
X120173Y243950D01*
X120932Y242960D01*
X121922Y242201D01*
X123074Y241723D01*
X124311Y241561D01*
X125548Y241723D01*
X126700Y242201D01*
X127690Y242960D01*
X128449Y243950D01*
X128926Y245102D01*
X129417Y245027D01*
Y241602D01*
X138891D01*
Y248984D01*
X138930Y249010D01*
X143544Y253625D01*
X172698D01*
X172889Y253163D01*
X171888Y252161D01*
X171877Y252169D01*
X170725Y252647D01*
X169488Y252809D01*
X168252Y252647D01*
X167099Y252169D01*
X166110Y251410D01*
X165350Y250420D01*
X164873Y249268D01*
X164710Y248031D01*
X164873Y246795D01*
X165350Y245642D01*
X166110Y244653D01*
X167099Y243894D01*
X168252Y243416D01*
X169488Y243254D01*
X170725Y243416D01*
X171877Y243894D01*
X172867Y244653D01*
X173626Y245642D01*
X174103Y246795D01*
X174594Y246720D01*
Y245583D01*
X160747Y231737D01*
X138595D01*
Y234855D01*
X129121D01*
Y231429D01*
X128631Y231355D01*
X128154Y232507D01*
X127394Y233497D01*
X126405Y234256D01*
X125252Y234733D01*
X124016Y234896D01*
X122779Y234733D01*
X121627Y234256D01*
X120637Y233497D01*
X119878Y232507D01*
X119401Y231355D01*
X119238Y230118D01*
X119401Y228882D01*
X119878Y227729D01*
X120637Y226740D01*
X121627Y225980D01*
X122779Y225503D01*
X124016Y225340D01*
X125252Y225503D01*
X126405Y225980D01*
X127394Y226740D01*
X128154Y227729D01*
X128631Y228882D01*
X129121Y228807D01*
Y225381D01*
X132240D01*
Y217828D01*
X129121D01*
Y214402D01*
X128631Y214327D01*
X128154Y215479D01*
X127394Y216469D01*
X126405Y217228D01*
X125252Y217706D01*
X124016Y217868D01*
X122779Y217706D01*
X121627Y217228D01*
X120637Y216469D01*
X119878Y215479D01*
X119401Y214327D01*
X119238Y213090D01*
X119401Y211854D01*
X119878Y210702D01*
X120637Y209712D01*
X121627Y208953D01*
X122779Y208475D01*
X124016Y208313D01*
X125252Y208475D01*
X126405Y208953D01*
X127394Y209712D01*
X128154Y210702D01*
X128631Y211854D01*
X129121Y211779D01*
Y208353D01*
X138595D01*
Y217828D01*
X135477D01*
Y225381D01*
X138595D01*
Y228500D01*
X161417D01*
X162037Y228623D01*
X162562Y228974D01*
X176883Y243295D01*
X184068D01*
Y246808D01*
X224781D01*
X225326Y246444D01*
X225984Y246313D01*
X226642Y246444D01*
X227200Y246816D01*
X227572Y247374D01*
X227703Y248031D01*
X227572Y248689D01*
X227200Y249247D01*
X226642Y249620D01*
X225984Y249750D01*
X225326Y249620D01*
X224781Y249255D01*
X184068D01*
Y252025D01*
X221555D01*
X222023Y252118D01*
X222420Y252383D01*
X227475Y257437D01*
X228118Y257565D01*
X228676Y257938D01*
X229049Y258496D01*
X229180Y259154D01*
X229049Y259811D01*
X228676Y260369D01*
X228118Y260742D01*
X227538Y260857D01*
X227378Y261138D01*
X227311Y261352D01*
X227572Y261744D01*
X227703Y262402D01*
X227572Y263059D01*
X227200Y263617D01*
X226642Y263990D01*
X225984Y264120D01*
X225971Y264118D01*
X225617Y264471D01*
X225636Y264567D01*
X225505Y265225D01*
X225133Y265782D01*
X224575Y266155D01*
X223917Y266286D01*
X223317Y266166D01*
X223090Y266306D01*
X222873Y266498D01*
X222880Y266535D01*
X222749Y267193D01*
X222377Y267751D01*
X221914Y268060D01*
X221989Y268541D01*
X221997Y268560D01*
X224879D01*
X225425Y268195D01*
X226083Y268065D01*
X226741Y268195D01*
X227298Y268568D01*
X227671Y269126D01*
X227801Y269783D01*
X227671Y270441D01*
X227298Y270999D01*
X226741Y271372D01*
X226083Y271502D01*
X225425Y271372D01*
X224879Y271007D01*
X220177D01*
X219709Y270914D01*
X219312Y270649D01*
X211679Y263016D01*
X180721D01*
Y264818D01*
X181593Y265689D01*
X181858Y266086D01*
X181951Y266554D01*
Y279016D01*
X181858Y279485D01*
X181593Y279882D01*
X178783Y282692D01*
Y284043D01*
X180328D01*
Y288398D01*
X179275D01*
X179147Y289044D01*
X178774Y289601D01*
X178217Y289974D01*
X177559Y290105D01*
X176901Y289974D01*
X176344Y289601D01*
X175971Y289044D01*
X175843Y288398D01*
X174791D01*
Y284043D01*
X176336D01*
Y282185D01*
X176429Y281717D01*
X176694Y281320D01*
X179504Y278510D01*
Y273832D01*
X174791D01*
Y269476D01*
X176336D01*
Y264586D01*
X175979Y264387D01*
X175849Y264366D01*
X165432Y274782D01*
X165035Y275048D01*
X164567Y275141D01*
X157202D01*
X156871Y275362D01*
X156403Y275455D01*
X151471D01*
X151003Y275362D01*
X150672Y275141D01*
X138891D01*
Y281076D01*
X129417D01*
Y277650D01*
X128926Y277575D01*
X128449Y278728D01*
X127690Y279717D01*
X126700Y280476D01*
X125548Y280954D01*
X124581Y281081D01*
X124539Y281086D01*
Y281591D01*
X124581Y281596D01*
X125548Y281723D01*
X126700Y282201D01*
X127690Y282960D01*
X128449Y283950D01*
X128926Y285102D01*
X129417Y285028D01*
Y281602D01*
X138891D01*
Y291076D01*
X129417D01*
Y287650D01*
X128926Y287575D01*
X128449Y288727D01*
X127690Y289717D01*
X126700Y290476D01*
X125548Y290954D01*
X124311Y291116D01*
D02*
G37*
G36*
X388732Y269423D02*
X386858D01*
X385866Y269293D01*
X384942Y268910D01*
X384148Y268301D01*
X383539Y267507D01*
X383156Y266583D01*
X382690Y266699D01*
Y269391D01*
X373216D01*
Y261790D01*
X382690D01*
Y264482D01*
X383156Y264598D01*
X383539Y263674D01*
X384148Y262880D01*
X384942Y262271D01*
X385866Y261888D01*
X386858Y261758D01*
X388732D01*
X389724Y261888D01*
X390649Y262271D01*
X391442Y262880D01*
X392052Y263674D01*
X392435Y264598D01*
X392565Y265591D01*
X392435Y266582D01*
X392052Y267507D01*
X391442Y268301D01*
X390649Y268910D01*
X389724Y269293D01*
X388732Y269423D01*
D02*
G37*
G36*
X387795Y260368D02*
X386559Y260206D01*
X385406Y259728D01*
X384417Y258969D01*
X383658Y257979D01*
X383180Y256827D01*
X382690Y256902D01*
Y260328D01*
X373216D01*
Y250853D01*
X382690D01*
Y254279D01*
X383180Y254354D01*
X383658Y253202D01*
X384417Y252212D01*
X385406Y251453D01*
X386559Y250975D01*
X387526Y250848D01*
X387567Y250843D01*
Y250338D01*
X387526Y250333D01*
X386559Y250206D01*
X385406Y249728D01*
X384417Y248969D01*
X383658Y247979D01*
X383180Y246827D01*
X382690Y246902D01*
Y250328D01*
X373216D01*
Y240854D01*
X382690D01*
Y244280D01*
X383180Y244354D01*
X383658Y243202D01*
X384417Y242212D01*
X385406Y241453D01*
X386559Y240975D01*
X387526Y240848D01*
X387567Y240843D01*
Y240338D01*
X387526Y240333D01*
X386559Y240206D01*
X385406Y239728D01*
X384417Y238969D01*
X383658Y237980D01*
X383180Y236827D01*
X382690Y236902D01*
Y240328D01*
X373216D01*
Y230854D01*
X382690D01*
Y234279D01*
X383180Y234354D01*
X383658Y233202D01*
X384417Y232212D01*
X385406Y231453D01*
X386559Y230976D01*
X387795Y230813D01*
X389032Y230976D01*
X390184Y231453D01*
X391174Y232212D01*
X391933Y233202D01*
X392410Y234354D01*
X392573Y235591D01*
X392410Y236827D01*
X391933Y237980D01*
X391174Y238969D01*
X390184Y239728D01*
X389032Y240206D01*
X388065Y240333D01*
X388023Y240338D01*
Y240843D01*
X388065Y240848D01*
X389032Y240975D01*
X390184Y241453D01*
X391174Y242212D01*
X391933Y243202D01*
X392410Y244354D01*
X392573Y245590D01*
X392410Y246827D01*
X391933Y247979D01*
X391174Y248969D01*
X390184Y249728D01*
X389032Y250206D01*
X388065Y250333D01*
X388023Y250338D01*
Y250843D01*
X388065Y250848D01*
X389032Y250975D01*
X390184Y251453D01*
X391174Y252212D01*
X391933Y253202D01*
X392410Y254354D01*
X392573Y255591D01*
X392410Y256827D01*
X391933Y257979D01*
X391174Y258969D01*
X390184Y259728D01*
X389032Y260206D01*
X387795Y260368D01*
D02*
G37*
G36*
X249803Y247585D02*
X249145Y247454D01*
X248588Y247082D01*
X248215Y246524D01*
X248084Y245866D01*
X248215Y245208D01*
X248588Y244651D01*
X249145Y244278D01*
X249803Y244147D01*
X250461Y244278D01*
X251019Y244651D01*
X251391Y245208D01*
X251522Y245866D01*
X251391Y246524D01*
X251019Y247082D01*
X250461Y247454D01*
X249803Y247585D01*
D02*
G37*
G36*
X302572Y240268D02*
X297035D01*
Y239387D01*
X296619Y239109D01*
X296247Y238551D01*
X296116Y237894D01*
X296247Y237236D01*
X296619Y236678D01*
X297035Y236401D01*
Y235913D01*
X302572D01*
Y240268D01*
D02*
G37*
G36*
X312402Y233510D02*
X311744Y233379D01*
X311186Y233007D01*
X310814Y232449D01*
X310683Y231791D01*
X310814Y231134D01*
X311186Y230576D01*
X311744Y230203D01*
X312402Y230072D01*
X313059Y230203D01*
X313617Y230576D01*
X313990Y231134D01*
X314120Y231791D01*
X313990Y232449D01*
X313617Y233007D01*
X313059Y233379D01*
X312402Y233510D01*
D02*
G37*
G36*
X257690Y225898D02*
X252153D01*
Y221543D01*
X257690D01*
Y225898D01*
D02*
G37*
G36*
X258858Y230065D02*
X258201Y229935D01*
X257643Y229562D01*
X257270Y229004D01*
X257139Y228346D01*
X257270Y227689D01*
X257643Y227131D01*
X258201Y226758D01*
X258858Y226628D01*
X259516Y226758D01*
X260062Y227123D01*
X260615D01*
X271217Y216521D01*
X271345Y215878D01*
X271718Y215320D01*
X272275Y214947D01*
X272933Y214817D01*
X273591Y214947D01*
X274149Y215320D01*
X274521Y215878D01*
X274652Y216535D01*
X274521Y217193D01*
X274149Y217751D01*
X273591Y218123D01*
X272947Y218251D01*
X261987Y229212D01*
X261590Y229477D01*
X261122Y229570D01*
X260062D01*
X259516Y229935D01*
X258858Y230065D01*
D02*
G37*
G36*
X354442Y222060D02*
X346936D01*
Y214554D01*
X354442D01*
Y222060D01*
D02*
G37*
G36*
X340689Y222092D02*
X339709Y221963D01*
X338796Y221585D01*
X338013Y220984D01*
X337411Y220200D01*
X337033Y219287D01*
X336904Y218307D01*
X337033Y217327D01*
X337411Y216414D01*
X338013Y215631D01*
X338796Y215029D01*
X339709Y214651D01*
X340689Y214522D01*
X341669Y214651D01*
X342582Y215029D01*
X343366Y215631D01*
X343967Y216414D01*
X344345Y217327D01*
X344474Y218307D01*
X344345Y219287D01*
X343967Y220200D01*
X343366Y220984D01*
X342582Y221585D01*
X341669Y221963D01*
X340689Y222092D01*
D02*
G37*
G36*
X410447Y214793D02*
X396642D01*
Y209256D01*
X410447D01*
Y214793D01*
D02*
G37*
G36*
X122047Y202506D02*
X121389Y202375D01*
X120947Y202080D01*
X119476D01*
Y199495D01*
X120947D01*
X121389Y199199D01*
X122047Y199069D01*
X122705Y199199D01*
X123263Y199572D01*
X123635Y200130D01*
X123766Y200787D01*
X123635Y201445D01*
X123263Y202003D01*
X122705Y202375D01*
X122047Y202506D01*
D02*
G37*
G36*
X386204Y191942D02*
X385704Y191603D01*
X385318Y191680D01*
X384660Y191549D01*
X384103Y191176D01*
X383730Y190618D01*
X383599Y189961D01*
X383730Y189303D01*
X384103Y188745D01*
X384660Y188373D01*
X385318Y188242D01*
X385704Y188319D01*
X386204Y187979D01*
Y187979D01*
X395284D01*
Y191942D01*
X386204D01*
Y191942D01*
D02*
G37*
G36*
X304429Y195813D02*
X303450Y195684D01*
X302537Y195306D01*
X301753Y194704D01*
X301151Y193920D01*
X300773Y193007D01*
X300644Y192028D01*
X300773Y191048D01*
X301151Y190135D01*
X301753Y189351D01*
X302537Y188750D01*
X303450Y188371D01*
X304429Y188242D01*
X305409Y188371D01*
X306322Y188750D01*
X307106Y189351D01*
X307707Y190135D01*
X308085Y191048D01*
X308214Y192028D01*
X308085Y193007D01*
X307707Y193920D01*
X307106Y194704D01*
X306322Y195306D01*
X305409Y195684D01*
X304429Y195813D01*
D02*
G37*
G36*
X274508D02*
X273528Y195684D01*
X272615Y195306D01*
X271831Y194704D01*
X271230Y193920D01*
X270852Y193007D01*
X270723Y192028D01*
X270852Y191048D01*
X271230Y190135D01*
X271831Y189351D01*
X272615Y188750D01*
X273528Y188371D01*
X274508Y188242D01*
X275487Y188371D01*
X276400Y188750D01*
X277184Y189351D01*
X277786Y190135D01*
X278164Y191048D01*
X278293Y192028D01*
X278164Y193007D01*
X277786Y193920D01*
X277184Y194704D01*
X276400Y195306D01*
X275487Y195684D01*
X274508Y195813D01*
D02*
G37*
G36*
X410447Y185393D02*
X396642D01*
Y179856D01*
X410447D01*
Y185393D01*
D02*
G37*
G36*
X195457Y224127D02*
X176535D01*
Y212684D01*
X181218D01*
Y199324D01*
X147822D01*
Y183944D01*
X154362D01*
Y179525D01*
X144647Y169809D01*
X124619D01*
Y174493D01*
X118224D01*
X117913Y174534D01*
X116152D01*
X110142Y180544D01*
X110093Y180582D01*
Y185886D01*
X110127Y185968D01*
X110290Y187205D01*
Y197244D01*
X110127Y198481D01*
X110052Y198662D01*
Y201587D01*
X107404D01*
X106748Y201859D01*
X105512Y202022D01*
X104275Y201859D01*
X103619Y201587D01*
X100578D01*
Y197358D01*
X100537Y197047D01*
Y196850D01*
X100578Y196540D01*
Y192113D01*
X100734D01*
Y188327D01*
X100700Y188244D01*
X100537Y187008D01*
Y177165D01*
X100700Y175929D01*
X101177Y174776D01*
X101936Y173787D01*
X102926Y173028D01*
X104078Y172550D01*
X104704Y172468D01*
X110795Y166377D01*
X111784Y165618D01*
X112937Y165141D01*
X113176Y165109D01*
Y155570D01*
X124619D01*
Y160254D01*
X146626D01*
X147863Y160416D01*
X149015Y160894D01*
X150004Y161653D01*
X162519Y174167D01*
X163278Y175157D01*
X163755Y176309D01*
X163918Y177546D01*
Y183944D01*
X198635D01*
Y199324D01*
X190774D01*
Y212684D01*
X195457D01*
Y224127D01*
D02*
G37*
G36*
X348377Y170569D02*
X347720Y170438D01*
X347162Y170065D01*
X346789Y169508D01*
X346659Y168850D01*
X346789Y168192D01*
X347162Y167634D01*
X347720Y167262D01*
X348377Y167131D01*
X349035Y167262D01*
X349593Y167634D01*
X349966Y168192D01*
X350096Y168850D01*
X349966Y169508D01*
X349593Y170065D01*
X349035Y170438D01*
X348377Y170569D01*
D02*
G37*
G36*
X410446Y169964D02*
X396641D01*
Y164427D01*
X410446D01*
Y169964D01*
D02*
G37*
G36*
X367323Y188636D02*
X366086Y188473D01*
X364934Y187996D01*
X363944Y187237D01*
X363185Y186247D01*
X362772Y185249D01*
X351633D01*
Y173806D01*
X362742D01*
Y144488D01*
X362905Y143252D01*
X363176Y142595D01*
Y136995D01*
X371863D01*
Y142595D01*
X372135Y143252D01*
X372298Y144488D01*
Y176842D01*
X372135Y178079D01*
X371657Y179232D01*
X371005Y180082D01*
X370701Y180480D01*
X371461Y181469D01*
X371938Y182622D01*
X372101Y183858D01*
X371938Y185095D01*
X371461Y186247D01*
X370701Y187237D01*
X369712Y187996D01*
X368559Y188473D01*
X367323Y188636D01*
D02*
G37*
G36*
X410446Y140564D02*
X396641D01*
Y135027D01*
X410446D01*
Y140564D01*
D02*
G37*
%LPD*%
G36*
X256287Y377561D02*
Y370755D01*
X258033D01*
Y364692D01*
X258133Y364188D01*
X258419Y363761D01*
X260554Y361626D01*
Y359547D01*
X260092Y359355D01*
X254113Y365334D01*
X253716Y365599D01*
X253248Y365692D01*
X248500D01*
X248233Y366192D01*
X248349Y366366D01*
X248473Y366986D01*
Y369234D01*
X248349Y369854D01*
X247998Y370380D01*
X247473Y370731D01*
X247380Y370750D01*
Y371911D01*
X249200D01*
Y370755D01*
X255524D01*
X255524Y377561D01*
X255906Y377791D01*
X256287Y377561D01*
D02*
G37*
G36*
X259111Y356875D02*
Y354835D01*
X257172D01*
Y347724D01*
X260886D01*
X261133Y347224D01*
X260983Y347027D01*
X256462D01*
X256312Y347224D01*
X256410Y347724D01*
X256410D01*
Y354835D01*
X250086D01*
Y352503D01*
X245199D01*
X244654Y352868D01*
X244015Y352995D01*
X243960Y353076D01*
X243778Y353465D01*
X248710Y358397D01*
X252122D01*
Y363245D01*
X252741D01*
X259111Y356875D01*
D02*
G37*
G36*
X223019Y341403D02*
Y335932D01*
Y330932D01*
Y325932D01*
Y324492D01*
X222836Y324369D01*
X220493Y322027D01*
X220228Y321630D01*
X220227Y321627D01*
X219727Y321677D01*
Y338765D01*
X222557Y341594D01*
X223019Y341403D01*
D02*
G37*
G36*
X307635Y360482D02*
Y336334D01*
X291548Y320247D01*
X291086Y320438D01*
Y339060D01*
X294798Y342772D01*
X295441Y342900D01*
X295999Y343273D01*
X296372Y343830D01*
X296502Y344488D01*
X296372Y345146D01*
X295999Y345704D01*
X295441Y346076D01*
X294783Y346207D01*
X294126Y346076D01*
X293568Y345704D01*
X293195Y345146D01*
X293068Y344502D01*
X288997Y340432D01*
X288903Y340291D01*
X288446Y340507D01*
X288675Y341263D01*
X289479Y342767D01*
X290524Y344040D01*
X290573Y344073D01*
X306173Y359673D01*
X306173Y359673D01*
X307173Y360673D01*
X307635Y360482D01*
D02*
G37*
G36*
X236602Y329416D02*
X243774D01*
X244010Y329062D01*
X252596Y320477D01*
Y314453D01*
X252134Y314261D01*
X245323Y321072D01*
X245601Y321434D01*
X245979Y322347D01*
X246108Y323327D01*
X245979Y324306D01*
X245601Y325219D01*
X244999Y326003D01*
X244215Y326605D01*
X243302Y326983D01*
X242323Y327112D01*
X240354D01*
X239375Y326983D01*
X238462Y326605D01*
X237678Y326003D01*
X237076Y325219D01*
X236956Y324930D01*
X236367Y324813D01*
X232108Y329071D01*
X231711Y329336D01*
X231312Y329415D01*
Y332280D01*
X236602D01*
Y329416D01*
D02*
G37*
G36*
X311375Y318277D02*
X311468Y317809D01*
X311733Y317412D01*
X312094Y317052D01*
Y311897D01*
X312753D01*
Y311157D01*
X312176Y311042D01*
X311651Y310692D01*
X309387Y308428D01*
X309036Y307903D01*
X308913Y307283D01*
Y302036D01*
X308413Y301829D01*
X306522Y303719D01*
X306125Y303985D01*
X305657Y304078D01*
X288650D01*
X288519Y304275D01*
X287961Y304647D01*
X287303Y304778D01*
X286645Y304647D01*
X286088Y304275D01*
X285715Y303717D01*
X285584Y303059D01*
X285715Y302401D01*
X286088Y301844D01*
X286386Y301644D01*
X286235Y301144D01*
X282404D01*
X281936Y301051D01*
X281539Y300786D01*
X281213Y300460D01*
X280751Y300651D01*
Y302264D01*
X280750Y302271D01*
X280865Y302851D01*
X281119Y303232D01*
X281626Y303432D01*
X282283Y303301D01*
X282941Y303432D01*
X283499Y303804D01*
X283872Y304362D01*
X284002Y305020D01*
X283872Y305678D01*
X283499Y306235D01*
X282941Y306608D01*
X282283Y306738D01*
X282189Y306720D01*
X281942Y307181D01*
X289456Y314694D01*
X290064Y314595D01*
X290269Y314288D01*
X290827Y313915D01*
X291485Y313785D01*
X292143Y313915D01*
X292700Y314288D01*
X293073Y314846D01*
X293204Y315503D01*
X293073Y316161D01*
X292700Y316719D01*
X292393Y316924D01*
X292294Y317532D01*
X309723Y334962D01*
X309989Y335359D01*
X310082Y335827D01*
Y346149D01*
X311375D01*
Y318277D01*
D02*
G37*
G36*
X226286Y305871D02*
X224592Y304177D01*
X223949Y304049D01*
X223391Y303676D01*
X223082Y303213D01*
X222601Y303289D01*
X222582Y303297D01*
Y315780D01*
X223019Y315932D01*
Y315932D01*
X226286D01*
Y305871D01*
D02*
G37*
G36*
X235257Y322462D02*
X235654Y322196D01*
X236122Y322103D01*
X236799D01*
X237076Y321434D01*
X237678Y320650D01*
X238462Y320049D01*
X239375Y319671D01*
X240354Y319542D01*
X242323D01*
X243269Y319666D01*
X250996Y311939D01*
Y289796D01*
X251089Y289328D01*
X251249Y289089D01*
Y287804D01*
X245694D01*
X245244Y288104D01*
X244587Y288235D01*
X243929Y288104D01*
X243371Y287731D01*
X242999Y287174D01*
X242868Y286516D01*
X242475Y286018D01*
X242210Y285996D01*
X235209Y292997D01*
X235150Y293037D01*
Y298044D01*
X228826D01*
Y290932D01*
X233814D01*
X234311Y290435D01*
X234120Y289973D01*
X228826D01*
Y282861D01*
X233814D01*
X234212Y282463D01*
X234021Y282001D01*
X228826D01*
Y275238D01*
X228800Y275092D01*
X228509Y274994D01*
X228064Y275346D01*
Y282001D01*
X223076D01*
X222677Y282400D01*
X222869Y282861D01*
X228064D01*
Y289973D01*
X223058D01*
X222939Y289997D01*
X222757D01*
X222284Y290470D01*
X222475Y290932D01*
X228064D01*
Y298044D01*
X223076D01*
X222582Y298538D01*
Y301625D01*
X222601Y301632D01*
X223082Y301708D01*
X223391Y301245D01*
X223949Y300873D01*
X224606Y300742D01*
X225264Y300873D01*
X225822Y301245D01*
X226194Y301803D01*
X226322Y302446D01*
X228375Y304499D01*
X228640Y304896D01*
X228733Y305364D01*
Y315932D01*
X231312D01*
Y316447D01*
X231475Y316556D01*
X234034Y319115D01*
X234300Y319512D01*
X234393Y319980D01*
Y320155D01*
X234757Y320701D01*
X234888Y321358D01*
X234757Y322016D01*
X234385Y322574D01*
X233827Y322946D01*
X233169Y323077D01*
X232511Y322946D01*
X231954Y322574D01*
X231812Y322361D01*
X231312Y322513D01*
Y325700D01*
X231812Y325907D01*
X235257Y322462D01*
D02*
G37*
G36*
X365999Y309240D02*
X356607Y299848D01*
X356145Y300039D01*
Y302537D01*
X356509Y303082D01*
X356640Y303740D01*
X356509Y304398D01*
X356137Y304956D01*
X355579Y305328D01*
X355478Y305858D01*
X355644Y305970D01*
X356017Y306527D01*
X356148Y307185D01*
X356017Y307843D01*
X355644Y308401D01*
X355087Y308773D01*
X354429Y308904D01*
X353771Y308773D01*
X353214Y308401D01*
X352841Y307843D01*
X352710Y307185D01*
X352841Y306527D01*
X353214Y305970D01*
X353771Y305597D01*
X353873Y305067D01*
X353706Y304956D01*
X353333Y304398D01*
X353202Y303740D01*
X353333Y303082D01*
X353698Y302537D01*
Y301525D01*
X353678Y301517D01*
X353198Y301442D01*
X352889Y301904D01*
X352331Y302277D01*
X351673Y302408D01*
X351015Y302277D01*
X350458Y301904D01*
X350085Y301347D01*
X349954Y300689D01*
X350085Y300031D01*
X350458Y299474D01*
X351015Y299101D01*
X351673Y298970D01*
X352331Y299101D01*
X352889Y299474D01*
X353198Y299936D01*
X353678Y299861D01*
X353698Y299853D01*
Y299192D01*
X353451Y298824D01*
X353358Y298355D01*
Y288899D01*
X352972Y288582D01*
X352737Y288628D01*
X352079Y288497D01*
X351893Y288373D01*
X351352Y288613D01*
X351341Y288691D01*
X351346Y288706D01*
X351356Y288730D01*
X351773Y289738D01*
X351919Y290846D01*
Y291831D01*
X351773Y292939D01*
X351346Y293971D01*
X350665Y294858D01*
X349779Y295539D01*
X348746Y295966D01*
X347638Y296112D01*
X346530Y295966D01*
X345497Y295539D01*
X344610Y294858D01*
X343930Y293971D01*
X343502Y292939D01*
X343356Y291831D01*
Y290846D01*
X343502Y289738D01*
X343930Y288706D01*
X344610Y287819D01*
X345497Y287139D01*
X346530Y286711D01*
X347638Y286565D01*
X348746Y286711D01*
X349779Y287139D01*
X350665Y287819D01*
X350929Y288162D01*
X351251Y288190D01*
X351380Y288097D01*
X351278Y287761D01*
X351149Y287567D01*
X351021Y286924D01*
X341162Y277065D01*
X340897Y276668D01*
X340804Y276200D01*
Y273812D01*
X340304Y273642D01*
X340078Y273936D01*
X339294Y274538D01*
X338381Y274916D01*
X337402Y275045D01*
X336422Y274916D01*
X335509Y274538D01*
X334725Y273936D01*
X334597Y273770D01*
X334098Y273940D01*
Y287915D01*
X334571Y288075D01*
X334768Y287819D01*
X335654Y287139D01*
X336687Y286711D01*
X337795Y286565D01*
X338903Y286711D01*
X339936Y287139D01*
X340823Y287819D01*
X341503Y288706D01*
X341931Y289738D01*
X342077Y290846D01*
Y291831D01*
X341931Y292939D01*
X341503Y293971D01*
X340823Y294858D01*
X339936Y295539D01*
X338903Y295966D01*
X337795Y296112D01*
X337372Y296057D01*
X337138Y296530D01*
X350310Y309702D01*
X365807D01*
X365999Y309240D01*
D02*
G37*
G36*
X209406Y299272D02*
X209360Y299246D01*
X208906Y299143D01*
X208385Y299822D01*
X207601Y300424D01*
X206688Y300802D01*
X205709Y300931D01*
X204729Y300802D01*
X203816Y300424D01*
X203733Y300360D01*
X197912Y306180D01*
X197515Y306445D01*
X197047Y306539D01*
X176885D01*
X175471Y307952D01*
X175493Y308452D01*
X209406D01*
Y299272D01*
D02*
G37*
G36*
X307852Y298930D02*
X307660Y298468D01*
X303332D01*
X303009Y298968D01*
X303097Y299410D01*
X302966Y300067D01*
X302593Y300625D01*
X302036Y300997D01*
X301378Y301128D01*
X300720Y300997D01*
X300163Y300625D01*
X299790Y300067D01*
X299659Y299410D01*
X299747Y298968D01*
X299424Y298468D01*
X295581D01*
X293263Y300786D01*
X292866Y301051D01*
X292464Y301131D01*
X292514Y301631D01*
X305151D01*
X307852Y298930D01*
D02*
G37*
G36*
X294210Y296379D02*
X294606Y296114D01*
X295075Y296021D01*
X323708D01*
Y286602D01*
X331650D01*
Y271568D01*
X331151Y271535D01*
X331058Y272239D01*
X330680Y273152D01*
X330078Y273936D01*
X329294Y274538D01*
X328381Y274916D01*
X327402Y275045D01*
X326422Y274916D01*
X325509Y274538D01*
X324725Y273936D01*
X324124Y273152D01*
X323745Y272239D01*
X323616Y271260D01*
X323745Y270280D01*
X324124Y269367D01*
X324725Y268583D01*
X325509Y267982D01*
X326422Y267604D01*
X327402Y267475D01*
X328381Y267604D01*
X329294Y267982D01*
X329422Y268080D01*
X329753Y267703D01*
X327858Y265809D01*
X327593Y265412D01*
X327514Y265013D01*
X325379D01*
X315806Y274586D01*
X315409Y274851D01*
X314941Y274944D01*
X312522D01*
X311977Y275308D01*
X311319Y275439D01*
X310661Y275308D01*
X310104Y274936D01*
X309731Y274378D01*
X309600Y273721D01*
X309731Y273063D01*
X310104Y272505D01*
X310661Y272132D01*
X311319Y272002D01*
X311977Y272132D01*
X312522Y272497D01*
X314434D01*
X323649Y263282D01*
Y257507D01*
X326178D01*
Y243878D01*
X326135Y243838D01*
X325712Y243636D01*
X316283Y253066D01*
Y257579D01*
X316189Y258047D01*
X315924Y258444D01*
X309321Y265047D01*
X309513Y265509D01*
X312879D01*
X314130Y264257D01*
X314258Y263614D01*
X314631Y263056D01*
X315189Y262684D01*
X315846Y262553D01*
X316504Y262684D01*
X317062Y263056D01*
X317435Y263614D01*
X317565Y264272D01*
X317435Y264929D01*
X317062Y265487D01*
X316504Y265860D01*
X315861Y265988D01*
X315028Y266820D01*
X315193Y267363D01*
X315422Y267408D01*
X315979Y267781D01*
X316352Y268338D01*
X316483Y268996D01*
X316352Y269654D01*
X315979Y270212D01*
X315422Y270584D01*
X314764Y270715D01*
X314106Y270584D01*
X313548Y270212D01*
X313278Y269807D01*
X301023D01*
X300662Y270307D01*
X300735Y270669D01*
X300604Y271327D01*
X300231Y271885D01*
X299674Y272257D01*
X299276Y272336D01*
X298338Y273274D01*
X298361Y273508D01*
X298734Y274066D01*
X298865Y274724D01*
X298734Y275381D01*
X298361Y275939D01*
X297803Y276312D01*
X297146Y276443D01*
X296772Y276368D01*
X296272Y276723D01*
Y279204D01*
Y283804D01*
X288872D01*
Y283527D01*
X284272D01*
X283804Y283434D01*
X283547Y283262D01*
X283117Y283509D01*
X283092Y283538D01*
X283117Y283661D01*
X282986Y284319D01*
X282613Y284877D01*
X282055Y285249D01*
X281398Y285380D01*
X280740Y285249D01*
X280182Y284877D01*
X279810Y284319D01*
X279679Y283661D01*
X279810Y283004D01*
X280182Y282446D01*
X280740Y282073D01*
X281398Y281943D01*
X281492Y281961D01*
X281739Y281501D01*
X280729Y280491D01*
X280531Y280194D01*
X274099Y273763D01*
X268162D01*
X267987Y274025D01*
X267619Y274270D01*
X267725Y274801D01*
X267882Y274833D01*
X268440Y275205D01*
X268812Y275763D01*
X268943Y276420D01*
X268812Y277078D01*
X268440Y277636D01*
X268041Y277903D01*
X268193Y278402D01*
X273988D01*
X274110Y278220D01*
X274668Y277848D01*
X275325Y277717D01*
X275983Y277848D01*
X276541Y278220D01*
X276913Y278778D01*
X277044Y279436D01*
X276913Y280094D01*
X276541Y280651D01*
X275983Y281024D01*
X275578Y281104D01*
X275221Y281605D01*
X275242Y281712D01*
X275112Y282370D01*
X274739Y282927D01*
X274181Y283300D01*
X273524Y283431D01*
X272866Y283300D01*
X272308Y282927D01*
X271936Y282370D01*
X271805Y281712D01*
X271877Y281349D01*
X271517Y280850D01*
X264975D01*
X260771Y285054D01*
Y286674D01*
X261271Y287034D01*
X261633Y286962D01*
X262291Y287093D01*
X262848Y287466D01*
X263221Y288023D01*
X263352Y288681D01*
X263221Y289339D01*
X263078Y289553D01*
X263345Y290054D01*
X286622D01*
Y290954D01*
X287122Y291210D01*
X287697Y291096D01*
X288355Y291227D01*
X288912Y291599D01*
X289285Y292157D01*
X289416Y292815D01*
X289285Y293473D01*
X288912Y294030D01*
X288355Y294403D01*
X287697Y294534D01*
X287122Y294420D01*
X286622Y294676D01*
Y297453D01*
X285299D01*
X284987Y297835D01*
X284914Y298197D01*
X285275Y298697D01*
X291891D01*
X294210Y296379D01*
D02*
G37*
G36*
X216804Y308452D02*
X217280Y308395D01*
Y292520D01*
X217374Y292052D01*
X217639Y291654D01*
X221385Y287908D01*
X221739Y287671D01*
Y283991D01*
X221277Y283799D01*
X211853Y293223D01*
Y308452D01*
X216804D01*
Y308452D01*
D02*
G37*
G36*
X241181Y283565D02*
X241578Y283299D01*
X242046Y283206D01*
X244672D01*
Y279668D01*
X237793D01*
X237526Y280168D01*
X237710Y280445D01*
X237841Y281102D01*
X237710Y281760D01*
X237337Y282318D01*
X237247Y282378D01*
Y282382D01*
X237154Y282850D01*
X236889Y283247D01*
X235209Y284927D01*
X235150Y284966D01*
Y288942D01*
X235612Y289134D01*
X241181Y283565D01*
D02*
G37*
G36*
X255873Y289053D02*
X256246Y288495D01*
X256804Y288122D01*
X257461Y287991D01*
X257824Y288064D01*
X258324Y287703D01*
Y284547D01*
X258417Y284079D01*
X258682Y283682D01*
X261742Y280623D01*
X261550Y280160D01*
X259252D01*
X258784Y280067D01*
X258387Y279802D01*
X256481Y277897D01*
X252072D01*
Y279488D01*
X252501Y279573D01*
X252897Y279838D01*
X254938Y281879D01*
X255203Y282276D01*
X255296Y282744D01*
Y289393D01*
X255796Y289442D01*
X255873Y289053D01*
D02*
G37*
G36*
X353599Y284903D02*
Y269208D01*
X349036Y264645D01*
X348381Y264916D01*
X347402Y265045D01*
X346422Y264916D01*
X345509Y264538D01*
X344932Y264095D01*
X344432Y264342D01*
Y265358D01*
X344523Y265418D01*
X344895Y265976D01*
X345026Y266634D01*
X344895Y267292D01*
X344523Y267849D01*
X343965Y268222D01*
X343307Y268353D01*
X342680Y268228D01*
X342649Y268250D01*
X342471Y268726D01*
X342893Y269148D01*
X343158Y269545D01*
X343251Y270013D01*
Y275693D01*
X352751Y285193D01*
X353099Y285263D01*
X353599Y284903D01*
D02*
G37*
G36*
X261055Y275184D02*
X261713Y275053D01*
X262370Y275184D01*
X262529Y275290D01*
X263029Y275023D01*
Y261413D01*
X261797Y260181D01*
X261153Y260053D01*
X260596Y259680D01*
X260223Y259122D01*
X260092Y258465D01*
X260223Y257807D01*
X260596Y257249D01*
X261153Y256877D01*
X261811Y256746D01*
X262469Y256877D01*
X263026Y257249D01*
X263399Y257807D01*
X263527Y258450D01*
X265118Y260041D01*
X265383Y260438D01*
X265476Y260906D01*
Y264528D01*
X265976Y264889D01*
X266339Y264817D01*
X266996Y264947D01*
X267247Y265115D01*
X268080D01*
X268347Y264615D01*
X268294Y264536D01*
X268163Y263878D01*
X268294Y263220D01*
X268667Y262663D01*
X269224Y262290D01*
X269451Y262245D01*
X269856Y261985D01*
X269814Y261702D01*
X269738Y261319D01*
X269861Y260699D01*
X269852Y260583D01*
X269647Y260199D01*
X268624D01*
X268156Y260106D01*
X267759Y259841D01*
X264707Y256789D01*
X264442Y256392D01*
X264349Y255924D01*
Y253254D01*
X256109D01*
X256016Y253330D01*
X255757Y253753D01*
X255853Y254232D01*
X255722Y254890D01*
X255349Y255448D01*
X254792Y255820D01*
X254134Y255951D01*
X253864Y255897D01*
X253617Y256358D01*
X253666Y256407D01*
X253931Y256804D01*
X253996Y257131D01*
X254174Y257249D01*
X254546Y257807D01*
X254677Y258465D01*
X254546Y259122D01*
X254174Y259680D01*
X253616Y260053D01*
X252958Y260183D01*
X252572Y260107D01*
X252072Y260456D01*
Y261277D01*
X254899Y261277D01*
X255445Y260912D01*
X256102Y260781D01*
X256760Y260912D01*
X257318Y261285D01*
X257690Y261842D01*
X257821Y262500D01*
X257690Y263158D01*
X257318Y263715D01*
X256760Y264088D01*
X256102Y264219D01*
X255445Y264088D01*
X254899Y263723D01*
X252072Y263723D01*
Y265312D01*
X255709D01*
X256177Y265405D01*
X256574Y265670D01*
X259231Y268328D01*
X259496Y268725D01*
X259590Y269193D01*
Y270450D01*
X259954Y270996D01*
X260085Y271654D01*
X259954Y272311D01*
X259582Y272869D01*
X259024Y273242D01*
X258624Y273321D01*
X258458Y273862D01*
X260144Y275548D01*
X260509D01*
X261055Y275184D01*
D02*
G37*
G36*
X331079Y242736D02*
X330696Y242426D01*
X330579Y242411D01*
X328625Y244365D01*
Y257507D01*
X331079D01*
Y242736D01*
D02*
G37*
%LPC*%
G36*
X303359Y319107D02*
X297035D01*
Y312228D01*
X296488Y312120D01*
X295930Y311747D01*
X295558Y311189D01*
X295427Y310531D01*
X295558Y309874D01*
X295930Y309316D01*
X296488Y308944D01*
X297146Y308813D01*
X297803Y308944D01*
X298361Y309316D01*
X298734Y309874D01*
X298865Y310531D01*
X298734Y311189D01*
X298529Y311495D01*
X298797Y311995D01*
X300942D01*
Y310839D01*
X300873D01*
Y310317D01*
X300705Y310148D01*
X300130Y310034D01*
X299572Y309661D01*
X299199Y309103D01*
X299069Y308446D01*
X299199Y307788D01*
X299572Y307230D01*
X300130Y306858D01*
X300787Y306727D01*
X301445Y306858D01*
X302003Y307230D01*
X302375Y307788D01*
X302468Y308255D01*
X303457D01*
Y310839D01*
X303389D01*
Y312727D01*
X303383Y312758D01*
Y313786D01*
X303359Y313904D01*
Y319107D01*
D02*
G37*
G36*
X307087Y292762D02*
X306429Y292631D01*
X305871Y292259D01*
X305499Y291701D01*
X305368Y291043D01*
X305499Y290386D01*
X305871Y289828D01*
X306429Y289455D01*
X307087Y289324D01*
X307744Y289455D01*
X308302Y289828D01*
X308675Y290386D01*
X308805Y291043D01*
X308675Y291701D01*
X308302Y292259D01*
X307744Y292631D01*
X307087Y292762D01*
D02*
G37*
G36*
X292224Y289613D02*
X291567Y289482D01*
X291009Y289109D01*
X290636Y288551D01*
X290506Y287894D01*
X290432Y287804D01*
X288872D01*
Y285104D01*
X296272D01*
Y287804D01*
X294017D01*
X293943Y287894D01*
X293812Y288551D01*
X293440Y289109D01*
X292882Y289482D01*
X292224Y289613D01*
D02*
G37*
%LPD*%
G36*
X129417Y275027D02*
Y271602D01*
X138891D01*
Y272694D01*
X151157D01*
X151626Y272787D01*
X151956Y273008D01*
X155918D01*
X156248Y272787D01*
X156717Y272694D01*
X164060D01*
X170365Y266389D01*
X170158Y265889D01*
X138891D01*
Y271076D01*
X129417D01*
Y267650D01*
X128926Y267575D01*
X128449Y268727D01*
X127690Y269717D01*
X126700Y270476D01*
X125548Y270954D01*
X124581Y271081D01*
X124539Y271087D01*
Y271591D01*
X124581Y271596D01*
X125548Y271724D01*
X126700Y272201D01*
X127690Y272960D01*
X128449Y273950D01*
X128926Y275102D01*
X129417Y275027D01*
D02*
G37*
G36*
Y265027D02*
Y261602D01*
X138891D01*
Y263442D01*
X170162D01*
X174045Y259559D01*
X173854Y259098D01*
X138891D01*
Y261076D01*
X129417D01*
Y257650D01*
X128926Y257575D01*
X128449Y258728D01*
X127690Y259717D01*
X126700Y260476D01*
X125548Y260954D01*
X124581Y261081D01*
X124539Y261087D01*
Y261591D01*
X124581Y261596D01*
X125548Y261723D01*
X126700Y262201D01*
X127690Y262960D01*
X128449Y263950D01*
X128926Y265102D01*
X129417Y265027D01*
D02*
G37*
G36*
X224000Y262213D02*
X224021Y262070D01*
X218022Y256071D01*
X143037D01*
X142569Y255978D01*
X142172Y255713D01*
X139353Y252894D01*
X138891Y253085D01*
Y256650D01*
X217224D01*
X217693Y256744D01*
X218090Y257009D01*
X223469Y262389D01*
X224000Y262213D01*
D02*
G37*
%LPC*%
G36*
X223635Y124324D02*
X221050D01*
Y123007D01*
X221040Y122952D01*
Y122933D01*
X221050Y122878D01*
Y122262D01*
X220755Y121819D01*
X220624Y121161D01*
X220755Y120504D01*
X221127Y119946D01*
X221685Y119573D01*
X222342Y119443D01*
X223000Y119573D01*
X223558Y119946D01*
X223931Y120504D01*
X224061Y121161D01*
X223931Y121819D01*
X223635Y122262D01*
Y124324D01*
D02*
G37*
G36*
X253016Y118158D02*
X251702Y118029D01*
X250438Y117646D01*
X249273Y117023D01*
X248252Y116185D01*
X247414Y115164D01*
X246792Y113999D01*
X246408Y112735D01*
X246279Y111421D01*
Y109452D01*
X246408Y108138D01*
X246792Y106874D01*
X247414Y105709D01*
X248252Y104688D01*
X249273Y103850D01*
X250438Y103227D01*
X251702Y102843D01*
X253016Y102714D01*
X254331Y102843D01*
X255595Y103227D01*
X256760Y103850D01*
X257781Y104688D01*
X258619Y105709D01*
X259242Y106874D01*
X259625Y108138D01*
X259754Y109452D01*
Y111421D01*
X259625Y112735D01*
X259242Y113999D01*
X258619Y115164D01*
X257781Y116185D01*
X256760Y117023D01*
X255595Y117646D01*
X254331Y118029D01*
X253016Y118158D01*
D02*
G37*
G36*
X217583D02*
X216269Y118029D01*
X215005Y117646D01*
X213840Y117023D01*
X212819Y116185D01*
X211981Y115164D01*
X211358Y113999D01*
X210975Y112735D01*
X210845Y111421D01*
Y109452D01*
X210975Y108138D01*
X211358Y106874D01*
X211981Y105709D01*
X212819Y104688D01*
X213840Y103850D01*
X215005Y103227D01*
X216269Y102843D01*
X217583Y102714D01*
X218898Y102843D01*
X220162Y103227D01*
X221327Y103850D01*
X222348Y104688D01*
X223186Y105709D01*
X223809Y106874D01*
X224192Y108138D01*
X224321Y109452D01*
Y111421D01*
X224192Y112735D01*
X223809Y113999D01*
X223186Y115164D01*
X222348Y116185D01*
X221327Y117023D01*
X220162Y117646D01*
X218898Y118029D01*
X217583Y118158D01*
D02*
G37*
G36*
X182150D02*
X180836Y118029D01*
X179572Y117646D01*
X178407Y117023D01*
X177386Y116185D01*
X176548Y115164D01*
X175925Y113999D01*
X175542Y112735D01*
X175412Y111421D01*
Y109452D01*
X175542Y108138D01*
X175925Y106874D01*
X176548Y105709D01*
X177386Y104688D01*
X178407Y103850D01*
X179572Y103227D01*
X180836Y102843D01*
X182150Y102714D01*
X183465Y102843D01*
X184729Y103227D01*
X185894Y103850D01*
X186915Y104688D01*
X187753Y105709D01*
X188375Y106874D01*
X188759Y108138D01*
X188888Y109452D01*
Y111421D01*
X188759Y112735D01*
X188375Y113999D01*
X187753Y115164D01*
X186915Y116185D01*
X185894Y117023D01*
X184729Y117646D01*
X183465Y118029D01*
X182150Y118158D01*
D02*
G37*
G36*
X358268Y117958D02*
X356953Y117829D01*
X355689Y117446D01*
X354524Y116823D01*
X353503Y115985D01*
X352665Y114964D01*
X352043Y113799D01*
X351659Y112535D01*
X351530Y111221D01*
Y109252D01*
X351659Y107938D01*
X352043Y106674D01*
X352665Y105509D01*
X353503Y104488D01*
X354524Y103650D01*
X355689Y103027D01*
X356953Y102644D01*
X358268Y102514D01*
X359582Y102644D01*
X360846Y103027D01*
X362011Y103650D01*
X363032Y104488D01*
X363870Y105509D01*
X364493Y106674D01*
X364876Y107938D01*
X365006Y109252D01*
Y111221D01*
X364876Y112535D01*
X364493Y113799D01*
X363870Y114964D01*
X363032Y115985D01*
X362011Y116823D01*
X360846Y117446D01*
X359582Y117829D01*
X358268Y117958D01*
D02*
G37*
G36*
X322835D02*
X321520Y117829D01*
X320256Y117446D01*
X319091Y116823D01*
X318070Y115985D01*
X317232Y114964D01*
X316610Y113799D01*
X316226Y112535D01*
X316097Y111221D01*
Y109252D01*
X316226Y107938D01*
X316610Y106674D01*
X317232Y105509D01*
X318070Y104488D01*
X319091Y103650D01*
X320256Y103027D01*
X321520Y102644D01*
X322835Y102514D01*
X324149Y102644D01*
X325413Y103027D01*
X326578Y103650D01*
X327599Y104488D01*
X328437Y105509D01*
X329060Y106674D01*
X329443Y107938D01*
X329573Y109252D01*
Y111221D01*
X329443Y112535D01*
X329060Y113799D01*
X328437Y114964D01*
X327599Y115985D01*
X326578Y116823D01*
X325413Y117446D01*
X324149Y117829D01*
X322835Y117958D01*
D02*
G37*
G36*
X287402D02*
X286087Y117829D01*
X284823Y117446D01*
X283658Y116823D01*
X282637Y115985D01*
X281799Y114964D01*
X281176Y113799D01*
X280793Y112535D01*
X280664Y111221D01*
Y109252D01*
X280793Y107938D01*
X281176Y106674D01*
X281799Y105509D01*
X282637Y104488D01*
X283658Y103650D01*
X284823Y103027D01*
X286087Y102644D01*
X287402Y102514D01*
X288716Y102644D01*
X289980Y103027D01*
X291145Y103650D01*
X292166Y104488D01*
X293004Y105509D01*
X293627Y106674D01*
X294010Y107938D01*
X294140Y109252D01*
Y111221D01*
X294010Y112535D01*
X293627Y113799D01*
X293004Y114964D01*
X292166Y115985D01*
X291145Y116823D01*
X289980Y117446D01*
X288716Y117829D01*
X287402Y117958D01*
D02*
G37*
%LPD*%
G36*
X254171Y117225D02*
X255281Y116888D01*
X256305Y116341D01*
X257201Y115605D01*
X257937Y114708D01*
X258484Y113685D01*
X258821Y112575D01*
X258939Y111380D01*
Y109492D01*
X258821Y108297D01*
X258484Y107187D01*
X257937Y106164D01*
X257202Y105267D01*
X256305Y104531D01*
X255281Y103984D01*
X254171Y103647D01*
X253016Y103534D01*
X251862Y103647D01*
X250752Y103984D01*
X249728Y104531D01*
X248832Y105267D01*
X248096Y106164D01*
X247549Y107187D01*
X247212Y108297D01*
X247094Y109492D01*
Y111380D01*
X247212Y112575D01*
X247549Y113685D01*
X248096Y114708D01*
X248832Y115605D01*
X249728Y116341D01*
X250752Y116888D01*
X251862Y117225D01*
X253016Y117339D01*
X254171Y117225D01*
D02*
G37*
G36*
X218738D02*
X219848Y116888D01*
X220871Y116341D01*
X221768Y115605D01*
X222504Y114708D01*
X223051Y113685D01*
X223388Y112575D01*
X223506Y111380D01*
Y109492D01*
X223388Y108297D01*
X223051Y107187D01*
X222504Y106164D01*
X221768Y105267D01*
X220871Y104531D01*
X219848Y103984D01*
X218738Y103647D01*
X217583Y103534D01*
X216429Y103647D01*
X215319Y103984D01*
X214295Y104531D01*
X213399Y105267D01*
X212663Y106164D01*
X212116Y107187D01*
X211779Y108297D01*
X211661Y109492D01*
Y111380D01*
X211779Y112575D01*
X212116Y113685D01*
X212663Y114708D01*
X213399Y115605D01*
X214295Y116341D01*
X215319Y116888D01*
X216429Y117225D01*
X217583Y117339D01*
X218738Y117225D01*
D02*
G37*
G36*
X183305D02*
X184415Y116888D01*
X185439Y116341D01*
X186335Y115605D01*
X187071Y114708D01*
X187618Y113685D01*
X187955Y112575D01*
X188073Y111380D01*
Y109492D01*
X187955Y108297D01*
X187618Y107187D01*
X187071Y106164D01*
X186335Y105267D01*
X185439Y104531D01*
X184415Y103984D01*
X183305Y103647D01*
X182150Y103534D01*
X180996Y103647D01*
X179885Y103984D01*
X178862Y104531D01*
X177965Y105267D01*
X177229Y106164D01*
X176683Y107187D01*
X176346Y108297D01*
X176228Y109492D01*
Y111380D01*
X176346Y112575D01*
X176683Y113685D01*
X177229Y114708D01*
X177965Y115605D01*
X178862Y116341D01*
X179885Y116888D01*
X180996Y117225D01*
X182150Y117339D01*
X183305Y117225D01*
D02*
G37*
G36*
X359422Y117025D02*
X360533Y116688D01*
X361556Y116141D01*
X362453Y115405D01*
X363189Y114508D01*
X363736Y113485D01*
X364072Y112375D01*
X364190Y111180D01*
Y109292D01*
X364072Y108097D01*
X363736Y106987D01*
X363189Y105964D01*
X362453Y105067D01*
X361556Y104331D01*
X360533Y103784D01*
X359422Y103447D01*
X358268Y103334D01*
X357113Y103447D01*
X356003Y103784D01*
X354980Y104331D01*
X354083Y105067D01*
X353347Y105964D01*
X352800Y106987D01*
X352463Y108097D01*
X352345Y109292D01*
Y111180D01*
X352463Y112375D01*
X352800Y113485D01*
X353347Y114508D01*
X354083Y115405D01*
X354980Y116141D01*
X356003Y116688D01*
X357113Y117025D01*
X358268Y117139D01*
X359422Y117025D01*
D02*
G37*
G36*
X323989D02*
X325099Y116688D01*
X326123Y116141D01*
X327020Y115405D01*
X327756Y114508D01*
X328303Y113485D01*
X328639Y112375D01*
X328757Y111180D01*
Y109292D01*
X328639Y108097D01*
X328303Y106987D01*
X327756Y105964D01*
X327020Y105067D01*
X326123Y104331D01*
X325099Y103784D01*
X323989Y103447D01*
X322835Y103334D01*
X321680Y103447D01*
X320570Y103784D01*
X319547Y104331D01*
X318650Y105067D01*
X317914Y105964D01*
X317367Y106987D01*
X317030Y108097D01*
X316912Y109292D01*
Y111180D01*
X317030Y112375D01*
X317367Y113485D01*
X317914Y114508D01*
X318650Y115405D01*
X319547Y116141D01*
X320570Y116688D01*
X321680Y117025D01*
X322835Y117139D01*
X323989Y117025D01*
D02*
G37*
G36*
X288556D02*
X289666Y116688D01*
X290690Y116141D01*
X291586Y115405D01*
X292322Y114508D01*
X292869Y113485D01*
X293206Y112375D01*
X293324Y111180D01*
Y109292D01*
X293206Y108097D01*
X292869Y106987D01*
X292322Y105964D01*
X291586Y105067D01*
X290690Y104331D01*
X289666Y103784D01*
X288556Y103447D01*
X287402Y103334D01*
X286247Y103447D01*
X285137Y103784D01*
X284114Y104331D01*
X283217Y105067D01*
X282481Y105964D01*
X281934Y106987D01*
X281597Y108097D01*
X281479Y109292D01*
Y111180D01*
X281597Y112375D01*
X281934Y113485D01*
X282481Y114508D01*
X283217Y115405D01*
X284114Y116141D01*
X285137Y116688D01*
X286247Y117025D01*
X287402Y117139D01*
X288556Y117025D01*
D02*
G37*
D18*
X359646Y377264D02*
X359547Y377362D01*
X333169Y377658D02*
X333221Y376680D01*
X333374Y375713D01*
X333627Y374768D01*
X333978Y373854D01*
X334422Y372982D01*
X334955Y372162D01*
X335571Y371401D01*
X336263Y370709D01*
X337024Y370093D01*
X337844Y369560D01*
X338717Y369115D01*
X339630Y368765D01*
X340576Y368511D01*
X341542Y368358D01*
X342520Y368307D01*
X380807Y370079D02*
X381071Y369094D01*
X381791Y368374D01*
X382776Y368110D01*
X282283Y305020D02*
X281229Y304810D01*
X280335Y304212D01*
X279737Y303318D01*
X279528Y302264D01*
X279525Y296739D02*
X279528Y296801D01*
X279525Y296739D02*
X279522Y296654D01*
X279373Y293754D02*
X279522Y294224D01*
X336516Y337500D02*
X337108Y336368D01*
X337108Y336368D02*
X338131Y336461D01*
X342323Y321358D02*
X342618Y321063D01*
X341831Y320276D01*
X339862Y329528D02*
X338889Y329373D01*
X338011Y328926D01*
X337314Y328229D01*
X336867Y327351D01*
X336713Y326378D01*
X339961Y329528D02*
X340059Y329626D01*
X336319Y321063D02*
X336713Y321457D01*
X336516Y340256D02*
X336417Y340354D01*
X354724Y329626D02*
X354823Y329724D01*
X336619Y333661D02*
X336614Y333661D01*
X335630Y333602D01*
X334659Y333424D01*
X333717Y333131D01*
X332818Y332726D01*
X331974Y332215D01*
X331197Y331607D01*
X330499Y330909D01*
X329891Y330133D01*
X329381Y329289D01*
X328976Y328389D01*
X328682Y327447D01*
X328504Y326477D01*
X328445Y325492D01*
X366831Y333268D02*
X366651Y334172D01*
X366139Y334938D01*
X365372Y335450D01*
X364469Y335630D01*
X342618Y340354D02*
X342737Y339303D01*
X343086Y338304D01*
X343649Y337409D01*
X344397Y336661D01*
X345293Y336098D01*
X346291Y335748D01*
X347342Y335630D01*
X364961Y320965D02*
X365896Y321215D01*
X366580Y321900D01*
X366831Y322835D01*
X390744Y363189D02*
X389742Y363123D01*
X388758Y362928D01*
X387808Y362605D01*
X386908Y362161D01*
X386073Y361603D01*
X385318Y360942D01*
X384657Y360187D01*
X384099Y359352D01*
X383655Y358452D01*
X383332Y357502D01*
X383137Y356517D01*
X383071Y355516D01*
X248372Y262754D02*
X248839Y262603D01*
X251654Y262541D02*
X251272Y262603D01*
X251654Y262541D02*
X251908Y262500D01*
X333169Y354035D02*
X333038Y355029D01*
X332655Y355955D01*
X332045Y356750D01*
X331250Y357360D01*
X330324Y357743D01*
X329331Y357874D01*
X353445Y360630D02*
X354415Y360706D01*
X355361Y360933D01*
X356260Y361306D01*
X357090Y361814D01*
X357829Y362446D01*
X358461Y363186D01*
X358970Y364016D01*
X359342Y364915D01*
X359569Y365861D01*
X359646Y366831D01*
X347736Y375590D02*
X347838Y374554D01*
X348141Y373557D01*
X348632Y372638D01*
X349293Y371832D01*
X350098Y371171D01*
X351017Y370680D01*
X352014Y370378D01*
X353051Y370276D01*
X353346Y368307D02*
X353150Y368504D01*
X355118Y349311D02*
X356104Y349422D01*
X357040Y349750D01*
X357880Y350277D01*
X358581Y350979D01*
X359109Y351818D01*
X359436Y352755D01*
X359547Y353740D01*
X353445Y358858D02*
X353740Y358563D01*
X367224D02*
X368205Y358633D01*
X369165Y358842D01*
X370087Y359186D01*
X370949Y359657D01*
X371736Y360246D01*
X372431Y360941D01*
X373020Y361728D01*
X373492Y362591D01*
X373835Y363512D01*
X374044Y364472D01*
X374114Y365453D01*
X396689Y377966D02*
X397008Y378033D01*
X403248Y373228D02*
X403155Y374169D01*
X402881Y375074D01*
X402435Y375908D01*
X401835Y376639D01*
X401105Y377238D01*
X400271Y377684D01*
X399366Y377958D01*
X398425Y378051D01*
X393248Y363090D02*
X394228Y363139D01*
X395199Y363283D01*
X396151Y363521D01*
X397075Y363852D01*
X397962Y364271D01*
X398804Y364776D01*
X399592Y365360D01*
X400319Y366020D01*
X400978Y366747D01*
X401563Y367535D01*
X402067Y368377D01*
X402487Y369264D01*
X402817Y370188D01*
X403056Y371140D01*
X403200Y372110D01*
X403248Y373091D01*
X392618Y363090D02*
X392520Y363189D01*
X398622Y370374D02*
X398420Y371391D01*
X397844Y372253D01*
X396982Y372829D01*
X395965Y373031D01*
X376395Y397720D02*
X376318Y398692D01*
X376090Y399641D01*
X375717Y400542D01*
X375207Y401374D01*
X374573Y402116D01*
X373832Y402750D01*
X373000Y403259D01*
X372098Y403633D01*
X371150Y403861D01*
X370177Y403937D01*
X376395Y388172D02*
X376483Y387167D01*
X376744Y386192D01*
X377170Y385277D01*
X377749Y384450D01*
X378463Y383737D01*
X379290Y383158D01*
X380205Y382731D01*
X381179Y382470D01*
X382185Y382382D01*
X368898Y399311D02*
X368000Y399132D01*
X367239Y398624D01*
X366730Y397863D01*
X366552Y396965D01*
X360728Y383366D02*
X361740Y383455D01*
X362720Y383717D01*
X363640Y384146D01*
X364472Y384729D01*
X365190Y385446D01*
X365772Y386278D01*
X366201Y387198D01*
X366463Y388178D01*
X366552Y389190D01*
X368996Y383268D02*
X369944Y383456D01*
X370748Y383993D01*
X371285Y384797D01*
X371473Y385745D01*
X230217Y127953D02*
X230149Y128981D01*
X229948Y129991D01*
X229617Y130966D01*
X229162Y131890D01*
X228589Y132746D01*
X227910Y133520D01*
X227136Y134200D01*
X226279Y134772D01*
X225356Y135227D01*
X224380Y135558D01*
X223370Y135759D01*
X222342Y135827D01*
X220472Y136142D02*
X220374Y136043D01*
X325689Y217023D02*
X325579Y218138D01*
X325254Y219210D01*
X324726Y220197D01*
X324016Y221063D01*
X323425Y222489D02*
X323579Y221717D01*
X324016Y221063D01*
X330906Y133661D02*
X331602Y133950D01*
X331890Y134646D01*
X275792Y245041D02*
X275978Y244854D01*
X277787Y242650D02*
X279127Y243989D01*
X275339Y242650D02*
X277787D01*
X273590Y240901D02*
X275339Y242650D01*
X271457Y245590D02*
X271465Y245598D01*
X275792Y245041D02*
Y245656D01*
X277522Y246256D02*
Y249404D01*
Y246256D02*
X279127Y244652D01*
Y243989D02*
Y244652D01*
X273542Y244956D02*
X273707Y244791D01*
X275522Y245926D02*
X275792Y245656D01*
X277372Y249553D02*
X277522Y249404D01*
X283368Y245568D02*
X283465Y245472D01*
X283272Y249553D02*
X283368Y249458D01*
Y245568D02*
Y249458D01*
X273590Y240421D02*
Y240901D01*
X272736Y239567D02*
X273590Y240421D01*
X275372Y249553D02*
X275522Y249404D01*
Y245926D02*
Y249404D01*
X273542Y244956D02*
Y249483D01*
X279372Y249553D02*
X279456Y249637D01*
X251654Y262541D02*
X251654Y262541D01*
X251908Y262500D02*
X256102Y262500D01*
X217224Y257874D02*
X223917Y264567D01*
X292588Y272638D02*
X297244D01*
X297111Y274689D02*
X297146Y274724D01*
X292572Y272654D02*
X292588Y272638D01*
X297244D02*
X299016Y270866D01*
X338131Y336461D02*
X339238D01*
X339280Y336419D01*
X161417Y311781D02*
X162311Y310888D01*
X161417Y311781D02*
Y314567D01*
X162311Y310827D02*
Y310888D01*
X279456Y253704D02*
X279640Y253888D01*
X279456Y249637D02*
Y253704D01*
X266831Y269238D02*
X267017Y269424D01*
X267768Y269488D02*
X274016D01*
X267201Y272539D02*
X274606D01*
X267017Y269424D02*
X267704D01*
X266931Y272809D02*
X267201Y272539D01*
X266772Y272809D02*
X266931D01*
X267704Y269424D02*
X267768Y269488D01*
X220177Y269783D02*
X226083D01*
X231912Y273542D02*
X237617D01*
X232776Y271457D02*
X238583D01*
X239630Y272503D02*
X248222D01*
X231401Y273031D02*
X231912Y273542D01*
X237617D02*
X238798Y274724D01*
X248080Y272646D02*
X248222Y272503D01*
X228740Y273031D02*
X231401D01*
X287489Y302873D02*
X288176D01*
X288195Y302854D01*
X305657D01*
X287303Y303059D02*
X287489Y302873D01*
X368209Y217717D02*
X386221Y199705D01*
X238208Y256988D02*
X248238D01*
X236024Y281201D02*
Y282382D01*
Y281201D02*
X236122Y281102D01*
X231988Y286024D02*
Y286417D01*
Y286024D02*
X233950Y284061D01*
X234344D01*
X236024Y282382D01*
X174705Y253248D02*
X221555D01*
X227461Y259154D01*
X225886Y262205D02*
Y262303D01*
X225984Y262402D01*
X143037Y254848D02*
X218529D01*
X225886Y262205D01*
X169488Y248031D02*
X174705Y253248D01*
X138065Y249876D02*
X143037Y254848D01*
X134744Y246555D02*
Y246929D01*
X137691Y249876D01*
X138065D01*
X134153Y246339D02*
X134528D01*
X134744Y246555D01*
X134153Y256339D02*
X135689Y257874D01*
X217224D01*
X175492Y259842D02*
X214469D01*
X170669Y264665D02*
X175492Y259842D01*
X214469D02*
X221161Y266535D01*
X212186Y261792D02*
X220177Y269783D01*
X176692Y261792D02*
X212186D01*
X164567Y273917D02*
X176692Y261792D01*
X136122Y264665D02*
X170669D01*
X134153Y266339D02*
X134449D01*
X136122Y264665D01*
X156717Y273917D02*
X164567D01*
X134291Y276339D02*
X136713Y273917D01*
X151157D01*
X151471Y274232D01*
X156403D01*
X156717Y273917D01*
X134153Y276339D02*
X134291D01*
X292572Y268653D02*
X292642Y268583D01*
X314088D01*
X314501Y268996D01*
X299016Y270669D02*
Y270866D01*
X314501Y268996D02*
X314764D01*
X292607Y274689D02*
X297111D01*
X292572Y274654D02*
X292607Y274689D01*
X314941Y273721D02*
X327402Y261260D01*
X311319Y273721D02*
X314941D01*
X390551Y326083D02*
X395866D01*
X282973Y272739D02*
X286808Y276575D01*
X292520D01*
X292541Y276554D02*
X292572D01*
X292520Y276575D02*
X292541Y276554D01*
X281546Y270654D02*
X292572D01*
X280610Y269980D02*
X280873D01*
X281546Y270654D01*
X273622Y266339D02*
X285837Y278554D01*
X292572D01*
X264253Y260906D02*
Y277283D01*
X266535Y266339D02*
X273622D01*
X261811Y258465D02*
X264253Y260906D01*
X266339Y266535D02*
X266535Y266339D01*
X262598Y278937D02*
X264253Y277283D01*
X274016Y269488D02*
X285081Y280554D01*
X274606Y272539D02*
X281594Y279528D01*
X285081Y280554D02*
X292572D01*
X259252Y278937D02*
X262598D01*
X258366Y269193D02*
Y271654D01*
X281594Y279528D02*
Y279626D01*
X275135D02*
X275325Y279436D01*
X264469Y279626D02*
X275135D01*
X284272Y282304D02*
X292343D01*
X281594Y279626D02*
X284272Y282304D01*
X292493Y282453D02*
X292572D01*
X292343Y282304D02*
X292493Y282453D01*
X330217Y240729D02*
Y241043D01*
X294390Y266732D02*
X313386D01*
X315846Y264272D01*
X315059Y252559D02*
Y257579D01*
X332302Y238208D02*
Y266161D01*
X327402Y243858D02*
X330217Y241043D01*
X332302Y266161D02*
X337402Y271260D01*
X315059Y252559D02*
X328740Y238878D01*
X327402Y243858D02*
Y261260D01*
X330020Y235925D02*
X332302Y238208D01*
X292572Y266754D02*
X294369D01*
X294390Y266732D01*
X343209Y266043D02*
X343799Y266634D01*
X350689Y228307D02*
Y245965D01*
X343209Y253445D02*
X350689Y245965D01*
X343209Y253445D02*
Y266043D01*
X343307Y266634D02*
X343799D01*
X355217Y242815D02*
Y256594D01*
X337402Y261260D02*
X337427Y261285D01*
Y265413D01*
X342028Y270013D01*
Y276200D01*
X267473Y293754D02*
Y297987D01*
X267658Y298173D01*
X267472Y293754D02*
X267473Y293754D01*
X270979Y304443D02*
X272160D01*
X272244Y304528D01*
X265453Y298917D02*
X270979Y304443D01*
X265453Y293873D02*
Y298917D01*
Y293873D02*
X265572Y293754D01*
X269744Y298976D02*
X289862Y319094D01*
X269744Y297394D02*
Y298976D01*
X269622Y297272D02*
X269744Y297394D01*
X269472Y293754D02*
X269622Y293903D01*
Y297272D01*
X302073Y309455D02*
X302165Y309547D01*
X301742Y309455D02*
X302073D01*
X300787Y308501D02*
X301742Y309455D01*
X300787Y308446D02*
Y308501D01*
X368498Y307274D02*
X368713D01*
X367815Y310925D02*
X373702Y316812D01*
X367364Y308874D02*
X368051D01*
X368713Y307274D02*
X381496Y320057D01*
X332874Y293996D02*
X349803Y310925D01*
X356182Y297693D02*
X367364Y308874D01*
X368051D02*
X379232Y320056D01*
X349803Y310925D02*
X367815D01*
X358268Y297044D02*
X368498Y307274D01*
X381496Y320057D02*
Y328839D01*
X379232Y320056D02*
Y331791D01*
X358268Y202264D02*
Y297044D01*
X366240Y301870D02*
X368209Y299902D01*
X366043Y301870D02*
X366240D01*
X368209Y217717D02*
Y299902D01*
X366535Y216531D02*
X387404Y195663D01*
X366535Y216531D02*
Y295669D01*
X363681Y298524D02*
X366535Y295669D01*
X386221Y199705D02*
X390354D01*
X390453Y199803D02*
X390744D01*
X390354Y199705D02*
X390453Y199803D01*
X387404Y195663D02*
Y195663D01*
Y195663D02*
X388185Y194882D01*
X396654D01*
X399114Y197343D01*
X275372Y293754D02*
Y302341D01*
X308858Y335827D01*
Y361828D01*
X289862Y319094D02*
Y339567D01*
X305657Y302854D02*
X309667Y298844D01*
X314494D01*
X315846Y300197D01*
X318445Y297244D02*
X324702D01*
X295075D02*
X295768D01*
X324702D02*
X328445Y300987D01*
X295768Y297244D02*
X318445D01*
X292398Y299921D02*
X295075Y297244D01*
X315846Y300197D02*
X324705D01*
X328445Y300987D02*
Y307244D01*
X354921Y298695D02*
Y303740D01*
X354582Y298355D02*
X354921Y298695D01*
X363583Y298524D02*
X363681D01*
X233341Y258930D02*
X233366Y258956D01*
Y262106D01*
X236013Y264754D01*
X249428Y234725D02*
X249508Y234646D01*
X248519Y234725D02*
X249428D01*
X233341Y249903D02*
X248519Y234725D01*
X233341Y249903D02*
Y258930D01*
X234941Y258268D02*
X235925Y259252D01*
X234941Y250984D02*
X249508Y236417D01*
X234941Y250984D02*
Y258268D01*
X235925Y259252D02*
X241929D01*
X236013Y264754D02*
X248372D01*
X323425Y231693D02*
Y233760D01*
Y238091D01*
X323425Y233760D02*
X323425Y233760D01*
X267468Y245820D02*
Y249358D01*
Y245820D02*
X267522Y245765D01*
Y245714D02*
Y245765D01*
X267468Y249358D02*
X267520Y249410D01*
X267472Y249457D02*
Y249553D01*
Y249457D02*
X267520Y249410D01*
X327461Y216732D02*
Y227658D01*
X323425Y231693D02*
X327461Y227658D01*
X390743Y145132D02*
X390993Y144882D01*
X395276D01*
X397244Y146850D01*
X378543Y179232D02*
X397244Y160531D01*
Y146850D02*
Y160531D01*
X378543Y179232D02*
Y191043D01*
X362500Y207087D02*
X378543Y191043D01*
X376772Y158858D02*
Y187992D01*
Y158858D02*
X380656Y154974D01*
X363681Y201083D02*
X376772Y187992D01*
X362500Y207087D02*
Y238681D01*
X248372Y274654D02*
X248522Y274503D01*
X251247D01*
X251341Y274410D01*
X253839D01*
X259638Y276772D02*
X261713D01*
X244201Y272646D02*
X248080D01*
X244193Y272638D02*
X244201Y272646D01*
X248302Y274724D02*
X248372Y274654D01*
X238798Y274724D02*
X248302D01*
X292224Y286603D02*
Y287894D01*
X292374Y286454D02*
X292572D01*
X292224Y286603D02*
X292374Y286454D01*
X354823Y268701D02*
Y287773D01*
X354582Y288014D02*
Y298355D01*
X347402Y261280D02*
X354823Y268701D01*
X354582Y288014D02*
X354823Y287773D01*
X356423Y257801D02*
Y288436D01*
X356182Y288677D02*
X356423Y288436D01*
X355217Y256594D02*
X356423Y257801D01*
X356182Y288677D02*
Y297693D01*
X248341Y286485D02*
X248372Y286454D01*
X244618Y286485D02*
X248341D01*
X244587Y286516D02*
X244618Y286485D01*
X248349Y284430D02*
X248372Y284454D01*
X242046Y284430D02*
X248349D01*
X234344Y292132D02*
X242046Y284430D01*
X259547Y284547D02*
X264469Y279626D01*
X332874Y269094D02*
Y293996D01*
X259547Y293628D02*
X259672Y293754D01*
X257567Y289816D02*
Y293648D01*
X259547Y284547D02*
Y293628D01*
X257567Y293648D02*
X257672Y293754D01*
X257461Y289710D02*
X257567Y289816D01*
X373725Y316812D02*
X375984Y319071D01*
X373702Y316812D02*
X373725D01*
X375984Y319071D02*
Y332874D01*
X379232Y331791D02*
X383169Y335728D01*
X396582Y338457D02*
X398524Y336516D01*
X381568Y338457D02*
X396582D01*
X375984Y332874D02*
X381568Y338457D01*
X398524Y328740D02*
Y336516D01*
X395866Y326083D02*
X398524Y328740D01*
X390551Y326083D02*
X390702Y326234D01*
X390744D01*
X328724Y264944D02*
X332874Y269094D01*
X327402Y261457D02*
X328724Y262779D01*
Y264944D01*
X327402Y261260D02*
Y261457D01*
X342028Y276200D02*
X352737Y286910D01*
X347402Y261260D02*
Y261280D01*
X325689Y235925D02*
X330020D01*
X323917Y238189D02*
X324994Y237113D01*
Y236620D02*
Y237113D01*
Y236620D02*
X325689Y235925D01*
X292572Y264754D02*
X307884D01*
X315059Y257579D01*
X285272Y249461D02*
Y249553D01*
Y249461D02*
X285422Y249311D01*
X287712D01*
X287803Y249220D01*
X306791Y251575D02*
Y259646D01*
X292572Y258854D02*
X292722Y259003D01*
X295913D01*
X298819Y261910D01*
X304528D01*
X306791Y259646D01*
X377953Y265256D02*
Y265591D01*
X377658Y264961D02*
X377953Y265256D01*
X273472Y249553D02*
X273542Y249483D01*
X377953Y305591D02*
Y305807D01*
X377854Y305906D02*
X377953Y305807D01*
X299803Y237894D02*
X299803Y237894D01*
X297835Y237894D02*
X299803D01*
X299803Y237894D02*
Y238091D01*
Y237894D02*
X299902Y237795D01*
X271465Y249546D02*
X271472Y249553D01*
X271465Y245598D02*
Y249546D01*
X286713Y259547D02*
X288019Y260854D01*
X286713Y259547D02*
X289567Y256693D01*
X265572Y255924D02*
X268624Y258976D01*
X280985D01*
X269488Y256890D02*
X269587Y256791D01*
X280985Y258976D02*
X286307Y253654D01*
X265572Y249553D02*
Y255924D01*
X269587Y250098D02*
Y256791D01*
X269472Y249553D02*
Y249984D01*
X269587Y250098D01*
X248372Y276554D02*
X248492Y276673D01*
X256988D01*
X259252Y278937D01*
X251769Y268903D02*
X259638Y276772D01*
X263572Y249553D02*
X263695Y249431D01*
Y245398D02*
Y249431D01*
Y245398D02*
X263817Y245276D01*
X261122Y228346D02*
X272933Y216535D01*
X258858Y228346D02*
X261122D01*
X293110Y239665D02*
Y246863D01*
X286319Y253654D02*
X293110Y246863D01*
X286307Y253654D02*
X286319D01*
X380656Y154974D02*
X390743D01*
X390592Y149902D02*
X390743Y150053D01*
X377756Y149902D02*
X390592D01*
X374508Y153150D02*
Y186024D01*
Y153150D02*
X377756Y149902D01*
X358268Y202264D02*
X374508Y186024D01*
X179331Y248031D02*
X225984D01*
X271949Y341220D02*
Y346260D01*
X272047Y346358D01*
X269980Y322047D02*
X271260Y320768D01*
X269980Y322047D02*
Y325709D01*
X248372Y266754D02*
X248522Y266603D01*
X251273D01*
X251341Y266535D01*
X255709D01*
X258366Y269193D01*
X265748Y335039D02*
Y335138D01*
X264075Y336811D02*
Y341220D01*
Y336811D02*
X265748Y335138D01*
X266043Y341220D02*
X266102Y341162D01*
Y339115D02*
Y341162D01*
Y339115D02*
X268504Y336713D01*
X250689Y268602D02*
Y268620D01*
X250872Y268804D01*
X250890D01*
X250990Y268903D01*
X251769D01*
X248372Y268653D02*
X250638D01*
X250689Y268602D01*
X227510Y318160D02*
X228248Y317421D01*
X227165Y318504D02*
X227510Y318160D01*
X249743Y360776D02*
Y361110D01*
X248565Y359597D02*
X249743Y360776D01*
X248180Y359597D02*
X248565D01*
X238681Y350098D02*
X248180Y359597D01*
X230610Y317421D02*
X233169Y319980D01*
Y321358D01*
X228248Y317421D02*
X230610D01*
X236122Y323327D02*
X241339D01*
X227165Y328504D02*
X227464Y328206D01*
X231243D01*
X236122Y323327D01*
X241339Y333465D02*
X242028D01*
X241004Y333504D02*
X241339Y333169D01*
Y333465D01*
X227165Y333504D02*
X241004D01*
X283270Y293756D02*
X283272Y293754D01*
X283270Y293756D02*
Y297832D01*
X283268Y297835D02*
X283270Y297832D01*
X282404Y299921D02*
X292398D01*
X363717Y333544D02*
X363963D01*
X281182Y293844D02*
Y298699D01*
X282404Y299921D01*
X363653Y333607D02*
X363654D01*
X281182Y293844D02*
X281272Y293754D01*
X363654Y333607D02*
X363717Y333544D01*
X166732Y319882D02*
X207283D01*
X207382Y319980D01*
X161417Y314567D02*
X166732Y319882D01*
X259659Y249540D02*
X259672Y249553D01*
X259659Y245584D02*
Y249540D01*
X259646Y245571D02*
X259659Y245584D01*
X257560Y244062D02*
Y249441D01*
X261572Y249553D02*
X261722Y249404D01*
X257560Y249441D02*
X257672Y249553D01*
X261722Y246444D02*
Y249404D01*
Y246444D02*
X261732Y246435D01*
Y244078D02*
X262620Y243190D01*
X257560Y244062D02*
X257874Y243748D01*
Y243485D02*
Y243748D01*
X261732Y244078D02*
Y246435D01*
X243898Y260846D02*
X243902Y260850D01*
X248369D01*
X248372Y260854D01*
X224606Y302461D02*
X227510Y305364D01*
Y318160D01*
X209449Y287303D02*
X210925Y288779D01*
X130315Y319783D02*
Y324311D01*
Y319783D02*
X135925Y314173D01*
X139665D01*
X123622Y331004D02*
X123741D01*
X124407Y330338D01*
Y330219D02*
Y330338D01*
Y330219D02*
X130315Y324311D01*
X121067Y331119D02*
X123507D01*
X123622Y331004D01*
X120784Y331119D02*
X121067D01*
Y336040D02*
X121932D01*
X166634Y373524D02*
X170866D01*
X156319D02*
X166634D01*
Y337205D02*
X180315Y323524D01*
X166634Y337205D02*
Y373524D01*
X177559Y286221D02*
Y288386D01*
Y282185D02*
Y286221D01*
X180728Y266554D02*
Y279016D01*
X177559Y282185D02*
X180728Y279016D01*
X179429Y265256D02*
X180728Y266554D01*
X177559Y264445D02*
Y271654D01*
Y264445D02*
X178440Y263564D01*
X179350D01*
X179429Y263484D01*
X186024Y286024D02*
X189764D01*
X184646Y286221D02*
X185827D01*
X186024Y286024D01*
X208465Y272047D02*
X209252D01*
X209836Y272632D01*
Y273419D01*
X212703Y276286D01*
Y276581D01*
X212795Y276673D01*
X208268Y271654D02*
Y271850D01*
X208465Y272047D01*
X208471Y282769D02*
X212795Y278445D01*
X208471Y282769D02*
Y286221D01*
X227510Y318160D02*
X227854Y317815D01*
X208471Y286221D02*
X209449Y287198D01*
Y287303D01*
X221358Y321161D02*
X223701Y323504D01*
X227165D01*
X221358Y298031D02*
Y321161D01*
X224902Y294488D02*
Y294882D01*
X222939Y296844D02*
X224902Y294882D01*
X222546Y296844D02*
X222939D01*
X221358Y298031D02*
X222546Y296844D01*
X222736Y343504D02*
X227165D01*
X218504Y339272D02*
X222736Y343504D01*
X218504Y292520D02*
Y339272D01*
X224213Y286811D02*
Y287500D01*
X222939Y288773D02*
X224213Y287500D01*
X222250Y288773D02*
X222939D01*
X218504Y292520D02*
X222250Y288773D01*
X224606Y286417D02*
X224902D01*
X224213Y286811D02*
X224606Y286417D01*
X209232Y312598D02*
X210604Y311227D01*
Y309209D02*
Y311227D01*
Y309209D02*
X210630Y309183D01*
X224902Y278445D02*
Y278839D01*
X222939Y280801D02*
X224902Y278839D01*
X222546Y280801D02*
X222939D01*
X210630Y292717D02*
X222546Y280801D01*
X210630Y292717D02*
Y309183D01*
X238583Y271457D02*
X239630Y272503D01*
X111828Y340961D02*
X121067D01*
X105118Y334252D02*
X111828Y340961D01*
X114485Y336040D02*
X121067D01*
X111417Y332972D02*
X114485Y336040D01*
X121932D02*
X122146Y335827D01*
X205709Y296161D02*
Y296654D01*
X197047Y305315D02*
X205709Y296654D01*
X174232Y307461D02*
X176378Y305315D01*
X197047D01*
X166557Y307457D02*
X170570Y303445D01*
X188425D02*
X195709Y296161D01*
X170570Y303445D02*
X188425D01*
X174232Y307461D02*
Y312598D01*
X156248Y305857D02*
X165894D01*
X170079Y301673D01*
X180197D01*
X185709Y296161D01*
X156299Y309646D02*
Y318504D01*
Y309646D02*
X158487Y307457D01*
X166557D01*
X155585Y304257D02*
X165034D01*
X174603Y297267D02*
X175709Y296161D01*
X172025Y297267D02*
X174603D01*
X165034Y304257D02*
X172025Y297267D01*
X151305Y310801D02*
X156248Y305857D01*
X155686Y322891D02*
X156299Y323504D01*
X152221Y322891D02*
X155686D01*
X151305Y321974D02*
X152221Y322891D01*
X151305Y310801D02*
Y321974D01*
X165709Y296161D02*
Y297382D01*
X160433Y302658D02*
X165709Y297382D01*
X154921Y302658D02*
X160433D01*
X148031Y309547D02*
X154921Y302658D01*
X149705Y310138D02*
Y327658D01*
Y310138D02*
X155585Y304257D01*
X150551Y328504D02*
X156299D01*
X149705Y327658D02*
X150551Y328504D01*
X148031Y309547D02*
Y330807D01*
X146285Y305585D02*
Y334277D01*
Y305585D02*
X152215Y299655D01*
X150984Y333760D02*
X155807D01*
X148031Y330807D02*
X150984Y333760D01*
X156063Y333504D02*
X156299D01*
X155807Y333760D02*
X156063Y333504D01*
X155709Y296161D02*
Y297102D01*
X153156Y299655D02*
X155709Y297102D01*
X152215Y299655D02*
X153156D01*
X140830Y328133D02*
X144685Y331988D01*
Y335039D01*
X152221Y342576D01*
X150512Y338504D02*
X156299D01*
X146285Y334277D02*
X150512Y338504D01*
X140830Y325515D02*
Y328133D01*
X155371Y342576D02*
X156299Y343504D01*
X152221Y342576D02*
X155371D01*
X139370Y324055D02*
X140830Y325515D01*
X154928Y347132D02*
X156299Y348504D01*
X152546Y347132D02*
X154928D01*
X139469Y334055D02*
X152546Y347132D01*
X139370Y334055D02*
X139469D01*
X143819Y358504D02*
X156299D01*
X139370Y354055D02*
X143819Y358504D01*
X140020Y344055D02*
X149469Y353504D01*
X156299D01*
X139370Y344055D02*
X140020D01*
X139370Y364055D02*
X155748D01*
X156299Y363504D01*
X150197Y368504D02*
X156299D01*
X140157Y374410D02*
X144291D01*
X150197Y368504D01*
X139370Y374055D02*
X139803D01*
X140157Y374410D01*
X227165Y368504D02*
X232185D01*
X237598Y363090D01*
X227165Y363504D02*
X227382Y363287D01*
X233366D01*
X243996Y351279D02*
X253248D01*
X243996Y351279D02*
X243996Y351279D01*
X266634Y368012D02*
Y375787D01*
X156299Y373504D02*
X156319Y373524D01*
X241339Y379134D02*
X263287D01*
X266634Y375787D01*
Y368012D02*
X266732Y368110D01*
X263897Y348027D02*
Y354594D01*
X270413Y360776D02*
Y361110D01*
X269234Y359597D02*
X270413Y360776D01*
X268899Y359597D02*
X269234D01*
X263897Y354594D02*
X268899Y359597D01*
X253783Y347792D02*
X255771Y345804D01*
X261674D02*
X263897Y348027D01*
X255771Y345804D02*
X261674D01*
X253783Y347792D02*
Y351139D01*
X260335Y351279D02*
Y357382D01*
X253248Y364469D02*
X260335Y357382D01*
X245621Y364469D02*
X253248D01*
X242263Y361110D02*
Y361445D01*
X243442Y362624D01*
X243776D01*
X245621Y364469D01*
X266732Y368110D02*
Y368110D01*
X241339Y323327D02*
X252220Y312446D01*
X251670Y282604D02*
X252472Y283406D01*
X252220Y289796D02*
Y312446D01*
X244876Y329928D02*
X253820Y320984D01*
Y290459D02*
Y320984D01*
X248522Y282604D02*
X251670D01*
X242028Y333465D02*
X244876Y330616D01*
X252472Y283406D02*
Y289544D01*
X252220Y289796D02*
X252472Y289544D01*
X244876Y329928D02*
Y330616D01*
X253820Y290459D02*
X254072Y290207D01*
X250492Y280703D02*
X252032D01*
X254072Y282744D01*
Y290207D01*
X248372Y280554D02*
X250342D01*
X250492Y280703D01*
X248372Y282453D02*
X248522Y282604D01*
X231988Y278445D02*
X248264D01*
X248372Y278554D01*
X231988Y294094D02*
Y294488D01*
Y294094D02*
X233950Y292132D01*
X234344D01*
X242421Y258760D02*
X248279D01*
X248372Y258854D01*
X241929Y259252D02*
X242421Y258760D01*
X249508Y234646D02*
X251476D01*
X254331Y238287D02*
X254921D01*
X253353Y237309D02*
X254331Y238287D01*
X253353Y236522D02*
Y237309D01*
X251476Y234646D02*
X253353Y236522D01*
X383465Y330807D02*
X390396D01*
X381496Y328839D02*
X383465Y330807D01*
X390396D02*
X390744Y331155D01*
X268025Y243190D02*
X268339Y243504D01*
X268602D01*
X262620Y243190D02*
X268025D01*
X383169Y335728D02*
X389173D01*
X389521Y336076D02*
X390744D01*
X389173Y335728D02*
X389521Y336076D01*
X309727Y362697D02*
X318209D01*
X331601Y376089D01*
X308858Y361828D02*
X309727Y362697D01*
X359646Y366831D02*
Y377264D01*
X342520Y368307D02*
X353051D01*
X353346D01*
X289862Y339567D02*
X294783Y344488D01*
X333268Y382972D02*
X353937D01*
X321752Y371457D02*
X333268Y382972D01*
X359547Y377362D02*
Y377953D01*
X358569Y378931D02*
X359547Y377953D01*
X357979Y378931D02*
X358569D01*
X353937Y382972D02*
X357979Y378931D01*
X333169Y377067D02*
Y377658D01*
X332191Y376089D02*
X333169Y377067D01*
X331601Y376089D02*
X332191D01*
X279528Y296801D02*
Y302264D01*
X279525Y296739D02*
X279525Y296739D01*
X279522Y294224D02*
Y296654D01*
X279372Y293754D02*
X279373Y293754D01*
X337108Y336368D02*
X337108Y336368D01*
X342323Y321358D02*
Y321555D01*
X341831Y317126D02*
Y320276D01*
X336713Y321457D02*
Y326378D01*
X339862Y329528D02*
X339961D01*
X336319Y340354D02*
X336417D01*
X336516Y337500D02*
Y340256D01*
X355906Y320965D02*
X358661D01*
X340059Y329626D02*
X354724D01*
X354823Y329724D02*
X354921D01*
X336619Y333661D02*
X363653Y333607D01*
X366831Y322835D02*
Y333268D01*
X347342Y335630D02*
X364469D01*
X328445Y307244D02*
Y325492D01*
X390744Y363189D02*
X392520D01*
X383071Y351772D02*
Y355516D01*
X248372Y262754D02*
Y262754D01*
X248839Y262603D02*
X251272Y262603D01*
X320079Y349311D02*
X355118D01*
X319685Y357874D02*
X329331D01*
X347736Y375590D02*
Y377658D01*
X353051Y368504D02*
X353150D01*
X353740Y358563D02*
X367224D01*
X374114Y365453D02*
Y377362D01*
X397047Y378051D02*
X398425D01*
X397008Y378033D02*
X397045Y378049D01*
X396505Y377966D02*
X396689D01*
X403248Y373091D02*
Y373228D01*
X392618Y363090D02*
X393248D01*
X397045Y378049D02*
X397047Y378051D01*
X376395Y388172D02*
Y392712D01*
Y397720D01*
X382776Y368110D02*
X390744D01*
Y373031D02*
X395965D01*
X366552Y392712D02*
Y396965D01*
X360728Y383366D02*
Y383465D01*
X366552Y389190D02*
Y392712D01*
X371473Y385745D02*
Y392712D01*
X292520Y256988D02*
X298721D01*
X292224Y256693D02*
X292520Y256988D01*
X298721D02*
X301575D01*
X278740Y224311D02*
Y226279D01*
X278543Y223721D02*
Y224114D01*
X278740Y224311D01*
X266437Y316634D02*
X266437Y316634D01*
Y315846D02*
Y316634D01*
X266437Y316634D02*
Y317717D01*
X248522Y256703D02*
X252232D01*
X252801Y257272D01*
X248372Y256854D02*
X248522Y256703D01*
X252801Y258307D02*
X252958Y258465D01*
X252801Y257272D02*
Y258307D01*
X255672Y249553D02*
Y251881D01*
X255522Y252031D02*
X255672Y251881D01*
X254603Y252031D02*
X255522D01*
X254134Y252499D02*
X254603Y252031D01*
X254134Y252499D02*
Y254232D01*
X289567Y256693D02*
X292224D01*
X288019Y260854D02*
X292572D01*
X285272Y292965D02*
Y293754D01*
Y292965D02*
X285422Y292815D01*
X287697D01*
X312598Y318277D02*
Y349705D01*
Y318277D02*
X313067Y317809D01*
X313294D01*
X315256Y315846D01*
Y315453D02*
Y315846D01*
X313976Y314665D02*
X314961Y315650D01*
X313976Y309547D02*
Y314665D01*
X315158Y315453D02*
X315256D01*
X314961Y315650D02*
X315158Y315453D01*
X312500Y349803D02*
Y355709D01*
Y349803D02*
X312598Y349705D01*
Y355807D02*
Y357874D01*
X312500Y355709D02*
X312598Y355807D01*
X266043Y325709D02*
Y327854D01*
X266732Y328543D02*
X276752D01*
X266043Y327854D02*
X266732Y328543D01*
X266437Y317717D02*
Y320669D01*
X266043Y321063D02*
Y325709D01*
Y321063D02*
X266437Y320669D01*
X300394Y315551D02*
X302159Y313786D01*
Y312733D02*
Y313786D01*
Y312733D02*
X302165Y312727D01*
Y309547D02*
Y312727D01*
X300197Y315551D02*
X300394D01*
X300394Y315551D01*
X313306Y370787D02*
Y374194D01*
X313287Y370768D02*
X313306Y370787D01*
X313386Y374055D02*
Y374114D01*
X313306Y374194D02*
X313386Y374114D01*
Y379488D02*
Y382185D01*
X120768Y200787D02*
X122047D01*
X222342Y121161D02*
Y122854D01*
X222263Y122933D02*
X222342Y122854D01*
X222342Y123031D02*
Y123031D01*
X222263Y122952D02*
X222342Y123031D01*
X222263Y122933D02*
Y122952D01*
X220374Y135827D02*
X222342D01*
X220374D02*
Y136043D01*
X325689Y216732D02*
Y217023D01*
X323425Y222489D02*
Y223524D01*
X153937Y281969D02*
Y286221D01*
X316142Y141619D02*
Y143209D01*
X331890Y134646D02*
Y138583D01*
D73*
X281799Y316642D02*
X282458Y317369D01*
X283043Y318157D01*
X283548Y318999D01*
X283967Y319886D01*
X284298Y320810D01*
X284536Y321762D01*
X284680Y322733D01*
X284728Y323713D01*
X272342Y310039D02*
X273421Y310124D01*
X274472Y310377D01*
X275471Y310790D01*
X276393Y311355D01*
X277215Y312058D01*
X272338Y310039D02*
X271334Y309996D01*
X270338Y309864D01*
X269357Y309647D01*
X268399Y309345D01*
X267471Y308960D01*
X266580Y308496D01*
X265733Y307957D01*
X264936Y307345D01*
X264195Y306666D01*
X317323Y385236D02*
X317477Y384263D01*
X317924Y383385D01*
X318621Y382688D01*
X319499Y382241D01*
X320472Y382087D01*
X315579Y373514D02*
X315367Y374042D01*
X312035Y367398D02*
X312936Y367598D01*
X313779Y367976D01*
X314528Y368516D01*
X315153Y369197D01*
X315498Y369892D01*
X315579Y370664D01*
X263648Y306119D02*
X263039Y305425D01*
X262526Y304657D01*
X262118Y303829D01*
X261821Y302955D01*
X261641Y302049D01*
X261580Y301128D01*
X265059Y304724D02*
X264424Y303951D01*
X263953Y303069D01*
X263663Y302112D01*
X263565Y301116D01*
X272342Y308055D02*
X271274Y307995D01*
X270219Y307816D01*
X269191Y307520D01*
X268202Y307110D01*
X267265Y306592D01*
X266393Y305973D01*
X265595Y305260D01*
X272350Y308055D02*
X273341Y308111D01*
X274321Y308277D01*
X275275Y308552D01*
X276193Y308932D01*
X277062Y309413D01*
X277873Y309988D01*
X278613Y310650D01*
X283206Y315242D02*
X283911Y316012D01*
X284547Y316841D01*
X285108Y317722D01*
X285591Y318648D01*
X285991Y319613D01*
X286305Y320610D01*
X286531Y321629D01*
X286667Y322665D01*
X286713Y323708D01*
X289641Y345005D02*
X288983Y344278D01*
X288398Y343489D01*
X287893Y342648D01*
X287474Y341760D01*
X287143Y340837D01*
X286905Y339884D01*
X286761Y338914D01*
X286713Y337934D01*
X288235Y346405D02*
X287530Y345634D01*
X286894Y344806D01*
X286333Y343925D01*
X285850Y342998D01*
X285450Y342033D01*
X285136Y341037D01*
X284910Y340017D01*
X284774Y338982D01*
X284728Y337938D01*
X278488Y240957D02*
X281151Y243620D01*
X276040Y240957D02*
X278488D01*
X275283Y240201D02*
X276040Y240957D01*
X275283Y234067D02*
Y240201D01*
X281151Y243620D02*
Y244205D01*
X281215Y244269D01*
Y249496D01*
X281272Y249553D01*
X261603Y288711D02*
Y293723D01*
X261572Y293754D02*
X261603Y293723D01*
Y288711D02*
X261633Y288681D01*
X206299Y359449D02*
X215354D01*
X201673Y364075D02*
X206299Y359449D01*
X174430Y368721D02*
X178740Y373031D01*
X173477Y368858D02*
X174293D01*
X173327Y369009D02*
X173477Y368858D01*
X174293D02*
X174430Y368721D01*
X133661Y368799D02*
X144882D01*
X146850Y366831D01*
X121850Y373228D02*
X129232D01*
X133661Y368799D01*
X121067Y373031D02*
X121653D01*
X121850Y373228D01*
X121067Y368110D02*
X121362Y368406D01*
X126772D01*
X178740Y373031D02*
X218602D01*
X226693D02*
X227165Y373504D01*
X218602Y373031D02*
X226693D01*
X216299Y358504D02*
X227165D01*
X215354Y359449D02*
X216299Y358504D01*
X246063Y368110D02*
Y372622D01*
X245669Y373015D02*
X246063Y372622D01*
X245669Y373015D02*
Y373228D01*
X251279D02*
X252362Y374311D01*
X245669Y373228D02*
X251279D01*
X261024Y391043D02*
X261221Y390846D01*
Y386910D02*
Y390846D01*
Y386910D02*
X262894Y385236D01*
X270472D02*
X281890Y373819D01*
X262894Y385236D02*
X270472D01*
X259350Y364692D02*
Y374213D01*
Y364692D02*
X261511Y362531D01*
X261846D01*
X262932Y361445D01*
Y361110D02*
Y361445D01*
X259350Y374213D02*
X259449Y374311D01*
X256150Y382339D02*
X256193Y382382D01*
Y390756D01*
X258220Y382007D02*
X258371Y381857D01*
X258220Y382007D02*
Y382339D01*
X258177Y382382D02*
X258220Y382339D01*
X256150Y382040D02*
Y382339D01*
X258177Y382382D02*
Y390756D01*
X255999Y381890D02*
X256150Y382040D01*
X255906Y391043D02*
X256193Y390756D01*
X258177Y390756D02*
X258465Y391043D01*
X255672Y293754D02*
Y304630D01*
X255906Y304863D02*
Y305077D01*
X255672Y304630D02*
X255906Y304863D01*
X280610Y236221D02*
X286122D01*
X280020Y236811D02*
X280610Y236221D01*
X280020Y236811D02*
Y237402D01*
X279134Y238287D02*
X280020Y237402D01*
X278543Y238287D02*
X279134D01*
X286122Y236122D02*
Y236221D01*
X286122Y236221D01*
X274410Y233194D02*
X275283Y234067D01*
X274410Y227264D02*
Y233194D01*
X277215Y312058D02*
X281799Y316642D01*
X272338Y310039D02*
X272342D01*
X317323Y385236D02*
Y391043D01*
X315579Y370664D02*
Y373514D01*
X311221Y373957D02*
X311319Y374055D01*
X311221Y372605D02*
Y373957D01*
X311109Y372494D02*
X311221Y372605D01*
X311109Y369279D02*
Y372494D01*
X288235Y346405D02*
X311109Y369279D01*
X305242Y360605D02*
X311806Y367169D01*
X312035Y367398D01*
X265059Y304724D02*
X265059Y304724D01*
X272342Y308055D02*
X272350D01*
X278613Y310650D02*
X283206Y315242D01*
X286713Y323708D02*
Y337934D01*
X263565Y293761D02*
X263572Y293754D01*
X263565Y293761D02*
Y301116D01*
X261572Y293754D02*
X261580Y293761D01*
Y301128D01*
X263648Y306119D02*
X264195Y306666D01*
X265059Y304724D02*
X265595Y305260D01*
X284728Y323713D02*
Y337938D01*
X289641Y345005D02*
X305242Y360605D01*
X268602Y170472D02*
Y170669D01*
X254984Y187644D02*
X256542Y187448D01*
D74*
X315366Y381531D02*
X315326Y382950D01*
X315366Y381531D02*
X315326Y381280D01*
X315326Y382950D02*
X314685Y383816D01*
X314764Y391043D02*
X314384Y390126D01*
X314384Y384437D02*
X314685Y383816D01*
X312585Y390126D02*
X312205Y391043D01*
X312229Y383920D02*
X312585Y384589D01*
X312229Y383920D02*
X311514Y383105D01*
X311302Y382264D01*
X311450Y381410D01*
X311503Y381033D02*
X311450Y381410D01*
X311503Y381033D02*
X311497Y380909D01*
X311417Y379488D02*
X311497Y379840D01*
X314764Y391043D02*
X314764Y391043D01*
X315326Y379517D02*
X315354Y379488D01*
X315326Y381280D02*
X315326Y379517D01*
X314384Y384437D02*
Y390126D01*
X314685Y383816D02*
X314685Y383816D01*
X312585Y384589D02*
X312585Y390126D01*
X312229Y383920D02*
X312229Y383920D01*
X311503Y381033D02*
X311503Y381033D01*
X311497Y379840D02*
Y380909D01*
Y379840D02*
Y379840D01*
X311417Y379488D02*
X311417Y379488D01*
X311417Y379488D02*
X311417Y379488D01*
D75*
X237496Y153410D02*
X236769Y154069D01*
X235981Y154653D01*
X235139Y155158D01*
X234252Y155577D01*
X233328Y155908D01*
X232376Y156146D01*
X231405Y156290D01*
X230425Y156339D01*
X237496Y153410D02*
X245532Y145374D01*
X220472Y156339D02*
X230425D01*
X335906Y144488D02*
X345866D01*
D76*
X320905Y133661D02*
X320856Y134635D01*
X320709Y135599D01*
X320465Y136543D01*
X320127Y137458D01*
X319698Y138334D01*
X319183Y139162D01*
X318587Y139934D01*
X317917Y140642D01*
X316142Y141619D02*
X315461Y141726D01*
X317917Y140642D02*
X317093Y141247D01*
X316142Y141619D01*
X313861Y142375D02*
X314609Y141922D01*
X315461Y141726D01*
X311343Y143307D02*
X311260Y143307D01*
X313861Y142375D02*
X313102Y142879D01*
X312247Y143195D01*
X311343Y143307D01*
X124016Y229528D02*
Y230118D01*
X320905Y125984D02*
Y133661D01*
X317917Y140642D02*
X317917Y140642D01*
X315461Y141726D02*
X315461Y141726D01*
X306693Y143307D02*
X311260D01*
X306594D02*
X306693D01*
X320866Y125984D02*
X320905D01*
X187008Y135107D02*
X190914Y131201D01*
X187008Y135107D02*
Y141339D01*
D77*
X335906Y144488D02*
X334925Y144440D01*
X333955Y144296D01*
X333003Y144058D01*
X332079Y143727D01*
X331191Y143307D01*
X330350Y142803D01*
X329562Y142218D01*
X328834Y141559D01*
X328175Y140832D01*
X327591Y140044D01*
X327086Y139202D01*
X326667Y138315D01*
X326336Y137391D01*
X326098Y136439D01*
X325954Y135468D01*
X325905Y134488D01*
Y133661D02*
Y134488D01*
D78*
X306594Y128740D02*
X306693Y128839D01*
X277532Y152598D02*
X277483Y153579D01*
X277339Y154549D01*
X277101Y155501D01*
X276770Y156425D01*
X276351Y157312D01*
X275846Y158154D01*
X275262Y158942D01*
X274603Y159669D01*
X273875Y160328D01*
X273087Y160913D01*
X272246Y161418D01*
X271358Y161837D01*
X270434Y162168D01*
X269482Y162406D01*
X268512Y162550D01*
X267531Y162598D01*
X277532Y145374D02*
X276506Y145320D01*
X275491Y145159D01*
X274499Y144894D01*
X273539Y144526D01*
X272624Y144059D01*
X271762Y143500D01*
X270964Y142853D01*
X270238Y142127D01*
X269591Y141328D01*
X269032Y140466D01*
X268565Y139551D01*
X268197Y138592D01*
X267931Y137600D01*
X267770Y136585D01*
X267717Y135559D01*
X250366Y170894D02*
X250427Y169894D01*
X250607Y168909D01*
X250905Y167952D01*
X251316Y167039D01*
X251835Y166181D01*
X252452Y165393D01*
X253161Y164685D01*
X253949Y164067D01*
X254806Y163549D01*
X255720Y163137D01*
X256676Y162839D01*
X257662Y162659D01*
X258661Y162598D01*
X365819Y178543D02*
Y180512D01*
X367520Y144488D02*
Y176842D01*
X365819Y178543D02*
X367520Y176842D01*
X118898Y165032D02*
X146626D01*
X159140Y177546D01*
Y188681D01*
X162093Y191634D01*
X173228D01*
X118898Y165032D02*
Y168772D01*
X105315Y177165D02*
X106764D01*
X114173Y169756D01*
X117913D01*
X118898Y168772D01*
X185996Y218406D02*
X189736D01*
X174213Y192815D02*
X184224D01*
X185996Y194587D01*
Y218406D01*
X173228Y191634D02*
Y191831D01*
X174213Y192815D01*
X105512Y187205D02*
Y197244D01*
X306693Y128839D02*
Y143307D01*
X277532Y145374D02*
Y152598D01*
X267717Y110236D02*
Y135559D01*
X258661Y162598D02*
X267531D01*
X250366Y170894D02*
Y182874D01*
X105315Y177165D02*
Y187008D01*
X105512Y187205D01*
X105315Y196850D02*
Y197047D01*
X105512Y197244D01*
D79*
X273472Y293754D02*
D03*
X271472D02*
D03*
X255672Y249553D02*
D03*
X257672D02*
D03*
X259672D02*
D03*
X261572D02*
D03*
X263572D02*
D03*
X265572D02*
D03*
X267472D02*
D03*
X269472D02*
D03*
X271472D02*
D03*
X273472D02*
D03*
X275372D02*
D03*
X277372D02*
D03*
X279372D02*
D03*
X281272D02*
D03*
X283272D02*
D03*
X285272D02*
D03*
Y293754D02*
D03*
X283272D02*
D03*
X281272D02*
D03*
X279372D02*
D03*
X277372D02*
D03*
X275372D02*
D03*
X269472D02*
D03*
X267472D02*
D03*
X265572D02*
D03*
X263572D02*
D03*
X261572D02*
D03*
X259672D02*
D03*
X257672D02*
D03*
X255672D02*
D03*
D80*
X300197Y315551D02*
D03*
X307283D02*
D03*
X322342Y315453D02*
D03*
X315256D02*
D03*
X319685Y357874D02*
D03*
X312598D02*
D03*
X319685Y349705D02*
D03*
X312598D02*
D03*
X259449Y374311D02*
D03*
X252362D02*
D03*
X231988Y286417D02*
D03*
X224902D02*
D03*
X231988Y294488D02*
D03*
X224902D02*
D03*
X231988Y278445D02*
D03*
X224902D02*
D03*
X260335Y351279D02*
D03*
X253248D02*
D03*
D81*
X302165Y309547D02*
D03*
X303937D02*
D03*
X313976D02*
D03*
X315748D02*
D03*
X272047Y346358D02*
D03*
X273819D02*
D03*
X271260Y320768D02*
D03*
X273031D02*
D03*
X266437Y317717D02*
D03*
X268209D02*
D03*
X266437Y320669D02*
D03*
X268209D02*
D03*
X327461Y216732D02*
D03*
X325689D02*
D03*
X230217Y127953D02*
D03*
X228445D02*
D03*
X222342Y123031D02*
D03*
X220571D02*
D03*
X118996Y200787D02*
D03*
X120768D02*
D03*
D82*
X249508Y236417D02*
D03*
Y234646D02*
D03*
X353445Y360630D02*
D03*
Y358858D02*
D03*
X353051Y368504D02*
D03*
Y370276D02*
D03*
X179429Y265256D02*
D03*
Y263484D02*
D03*
X212795Y278445D02*
D03*
Y276673D02*
D03*
X242421Y256988D02*
D03*
Y258760D02*
D03*
X301575Y256988D02*
D03*
Y258760D02*
D03*
X298721Y256988D02*
D03*
Y258760D02*
D03*
X316142Y144980D02*
D03*
Y143209D02*
D03*
D83*
X299803Y238091D02*
D03*
Y223524D02*
D03*
X323425Y238091D02*
D03*
Y223524D02*
D03*
X153937Y286221D02*
D03*
Y271654D02*
D03*
X177559Y286221D02*
D03*
Y271654D02*
D03*
X184646Y286221D02*
D03*
Y271654D02*
D03*
X208268Y286221D02*
D03*
Y271654D02*
D03*
X254921Y238287D02*
D03*
Y223721D02*
D03*
X278543Y238287D02*
D03*
Y223721D02*
D03*
D84*
X118898Y165032D02*
D03*
Y133031D02*
D03*
D85*
X286122Y236122D02*
D03*
Y229035D02*
D03*
D86*
X266732Y368110D02*
D03*
X246063D02*
D03*
D87*
X270413Y361110D02*
D03*
X262932D02*
D03*
X242263D02*
D03*
X249743D02*
D03*
D88*
X281890Y362402D02*
D03*
Y371063D02*
D03*
D89*
X292572Y256854D02*
D03*
Y258854D02*
D03*
Y260854D02*
D03*
Y262754D02*
D03*
Y264754D02*
D03*
Y266754D02*
D03*
Y268653D02*
D03*
Y270654D02*
D03*
Y272654D02*
D03*
Y274654D02*
D03*
Y276554D02*
D03*
Y278554D02*
D03*
Y280554D02*
D03*
Y282453D02*
D03*
Y284454D02*
D03*
Y286454D02*
D03*
X248372D02*
D03*
Y284454D02*
D03*
Y282453D02*
D03*
Y280554D02*
D03*
Y278554D02*
D03*
Y276554D02*
D03*
Y274654D02*
D03*
Y272654D02*
D03*
Y270654D02*
D03*
Y268653D02*
D03*
Y266754D02*
D03*
Y264754D02*
D03*
Y262754D02*
D03*
Y260854D02*
D03*
Y258854D02*
D03*
Y256854D02*
D03*
D90*
X361094Y179528D02*
D03*
X329095D02*
D03*
X153996Y218406D02*
D03*
X185996D02*
D03*
X245532Y145374D02*
D03*
X277532D02*
D03*
X218366Y182874D02*
D03*
X250366D02*
D03*
D91*
X336319Y321063D02*
D03*
X342618D02*
D03*
X348917D02*
D03*
X336319Y340354D02*
D03*
X342618D02*
D03*
X348917D02*
D03*
X358661Y320965D02*
D03*
X364961D02*
D03*
X371260D02*
D03*
X358661Y340256D02*
D03*
X364961D02*
D03*
X371260D02*
D03*
D92*
X374114Y377362D02*
D03*
X359547D02*
D03*
X374114Y353740D02*
D03*
X359547D02*
D03*
X347736Y377658D02*
D03*
X333169D02*
D03*
X347736Y354035D02*
D03*
X333169D02*
D03*
D93*
X383731Y405512D02*
D03*
X354331D02*
D03*
D94*
X376395Y392712D02*
D03*
X371473D02*
D03*
X366552D02*
D03*
X361631D02*
D03*
D95*
X311417Y374055D02*
D03*
X313386D02*
D03*
X315354D02*
D03*
Y379488D02*
D03*
X313386D02*
D03*
X311417D02*
D03*
D96*
X320905Y133661D02*
D03*
D97*
X325905D02*
D03*
X330906D02*
D03*
X335906D02*
D03*
X320905Y154921D02*
D03*
X325905D02*
D03*
X330906D02*
D03*
X335906D02*
D03*
D98*
X294094Y128740D02*
D03*
X306594D02*
D03*
X294094Y143307D02*
D03*
X306594D02*
D03*
D99*
X173228Y191634D02*
D03*
Y131201D02*
D03*
D100*
X261240Y338386D02*
D03*
Y336417D02*
D03*
Y334449D02*
D03*
Y332480D02*
D03*
Y330512D02*
D03*
Y328543D02*
D03*
X276752D02*
D03*
Y330512D02*
D03*
Y332480D02*
D03*
Y334449D02*
D03*
Y336417D02*
D03*
Y338386D02*
D03*
D101*
X264075Y325709D02*
D03*
X266043D02*
D03*
X268012D02*
D03*
X269980D02*
D03*
X271949D02*
D03*
X273917D02*
D03*
Y341220D02*
D03*
X271949D02*
D03*
X269980D02*
D03*
X268012D02*
D03*
X266043D02*
D03*
X264075D02*
D03*
D102*
X227165Y383504D02*
D03*
Y378504D02*
D03*
Y373504D02*
D03*
Y368504D02*
D03*
Y363504D02*
D03*
Y358504D02*
D03*
Y353504D02*
D03*
Y348504D02*
D03*
Y343504D02*
D03*
Y338504D02*
D03*
Y333504D02*
D03*
Y328504D02*
D03*
Y323504D02*
D03*
Y318504D02*
D03*
X156299D02*
D03*
Y323504D02*
D03*
Y328504D02*
D03*
Y333504D02*
D03*
Y338504D02*
D03*
Y343504D02*
D03*
Y348504D02*
D03*
Y353504D02*
D03*
Y358504D02*
D03*
Y363504D02*
D03*
Y368504D02*
D03*
Y373504D02*
D03*
Y378504D02*
D03*
Y383504D02*
D03*
D103*
X214232Y312598D02*
D03*
X209232D02*
D03*
X204232D02*
D03*
X199232D02*
D03*
X194232D02*
D03*
X189232D02*
D03*
X184232D02*
D03*
X179232D02*
D03*
X174232D02*
D03*
X169232D02*
D03*
D104*
X188976Y354331D02*
D03*
D105*
X367520Y144488D02*
D03*
X345866D02*
D03*
D106*
X251181Y401575D02*
D03*
X260630D02*
D03*
X307480D02*
D03*
X316929D02*
D03*
D107*
X243307Y391929D02*
D03*
X268504D02*
D03*
X299606D02*
D03*
X324803D02*
D03*
D108*
X250787Y391043D02*
D03*
X253346D02*
D03*
X255906D02*
D03*
X258465D02*
D03*
X261024D02*
D03*
X307087D02*
D03*
X309646D02*
D03*
X312205D02*
D03*
X314764D02*
D03*
X317323D02*
D03*
D109*
X403544Y355853D02*
D03*
Y385253D02*
D03*
X403543Y137795D02*
D03*
Y167195D02*
D03*
X403544Y318898D02*
D03*
Y348298D02*
D03*
X108267D02*
D03*
Y318898D02*
D03*
Y385289D02*
D03*
Y355889D02*
D03*
X403544Y182624D02*
D03*
Y212024D02*
D03*
D110*
X390744Y363189D02*
D03*
Y368110D02*
D03*
Y373031D02*
D03*
Y377953D02*
D03*
X390743Y145132D02*
D03*
Y150053D02*
D03*
Y154974D02*
D03*
Y159895D02*
D03*
X390744Y326234D02*
D03*
Y331155D02*
D03*
Y336076D02*
D03*
Y340998D02*
D03*
X121067Y340961D02*
D03*
Y336040D02*
D03*
Y331119D02*
D03*
Y326198D02*
D03*
Y377953D02*
D03*
Y373031D02*
D03*
Y368110D02*
D03*
Y363189D02*
D03*
X390744Y189961D02*
D03*
Y194882D02*
D03*
Y199803D02*
D03*
Y204724D02*
D03*
D111*
X310531Y300930D02*
Y307283D01*
X133858Y230118D02*
X161417D01*
X179331Y248031D01*
X133858Y213090D02*
Y230118D01*
X310531Y307283D02*
X312795Y309547D01*
X371457Y336417D02*
Y339272D01*
X371260Y339469D02*
Y340256D01*
Y339469D02*
X371457Y339272D01*
D112*
X281890Y362402D02*
X287894D01*
X348917Y340354D02*
X349213Y337716D01*
X385318Y189961D02*
X390744D01*
X115059Y378150D02*
X118504D01*
X118701Y377953D02*
X121067D01*
X118504Y378150D02*
X118701Y377953D01*
D113*
X312795Y309547D02*
X313976D01*
D114*
X198141Y142874D02*
X220472D01*
X195835Y140568D02*
X198141Y142874D01*
X195835Y136122D02*
Y140568D01*
X190914Y131201D02*
X195835Y136122D01*
D115*
X124016Y213090D02*
D03*
X114173D02*
D03*
X124016Y230118D02*
D03*
X114173D02*
D03*
X148819Y107087D02*
D03*
X138976D02*
D03*
X169488Y248031D02*
D03*
X159646D02*
D03*
X124508Y306299D02*
D03*
X114665D02*
D03*
X105315Y187008D02*
D03*
Y177165D02*
D03*
X397638Y235591D02*
D03*
X387795D02*
D03*
X397638Y245590D02*
D03*
X387795D02*
D03*
X397638Y255591D02*
D03*
X387795D02*
D03*
X397638Y285591D02*
D03*
X387795D02*
D03*
X397638Y295590D02*
D03*
X387795D02*
D03*
X397638Y305591D02*
D03*
X387795D02*
D03*
X124311Y246339D02*
D03*
X114469D02*
D03*
X124311Y256339D02*
D03*
X114469D02*
D03*
X124311Y266339D02*
D03*
X114469D02*
D03*
X124311Y276339D02*
D03*
X114469D02*
D03*
X124311Y286339D02*
D03*
X114469D02*
D03*
X367323Y183858D02*
D03*
D116*
X133858Y213090D02*
D03*
Y230118D02*
D03*
X158661Y107087D02*
D03*
X179331Y248031D02*
D03*
X134350Y306299D02*
D03*
X377953Y235591D02*
D03*
Y245590D02*
D03*
Y255591D02*
D03*
Y285591D02*
D03*
Y295590D02*
D03*
Y305591D02*
D03*
X134153Y246339D02*
D03*
Y256339D02*
D03*
Y266339D02*
D03*
Y276339D02*
D03*
Y286339D02*
D03*
D117*
X337795Y291339D02*
D03*
X347638D02*
D03*
D118*
X327953D02*
D03*
D119*
X274508Y192028D02*
D03*
X304429D02*
D03*
X337402Y261260D02*
D03*
X347402D02*
D03*
X327402Y271260D02*
D03*
X337402D02*
D03*
X347402D02*
D03*
X340689Y228307D02*
D03*
X350689D02*
D03*
X340689Y218307D02*
D03*
D120*
X139370Y324055D02*
D03*
Y334055D02*
D03*
Y344055D02*
D03*
Y354055D02*
D03*
Y364055D02*
D03*
X241339Y323327D02*
D03*
Y313484D02*
D03*
D121*
X139370Y374055D02*
D03*
X241339Y333169D02*
D03*
D122*
X220472Y129410D02*
D03*
Y136142D02*
D03*
Y142874D02*
D03*
Y149606D02*
D03*
D123*
Y156339D02*
D03*
D124*
X105315Y196850D02*
D03*
D125*
X205709Y296161D02*
D03*
X195709D02*
D03*
X185709D02*
D03*
X175709D02*
D03*
X165709D02*
D03*
D126*
X155709D02*
D03*
D127*
X110236Y110236D02*
D03*
X401575D02*
D03*
Y401575D02*
D03*
X110236D02*
D03*
D128*
X302102Y110036D02*
D03*
X287402Y110236D02*
D03*
X196850D02*
D03*
X182150Y110436D02*
D03*
X372968Y110036D02*
D03*
X358268Y110236D02*
D03*
X232283D02*
D03*
X217583Y110436D02*
D03*
X337535Y110036D02*
D03*
X322835Y110236D02*
D03*
X267717D02*
D03*
X253016Y110436D02*
D03*
D129*
X242913Y401575D02*
D03*
X268898D02*
D03*
X299213D02*
D03*
X325197D02*
D03*
D130*
X327402Y261260D02*
D03*
D131*
X397638Y265591D02*
D03*
X387795D02*
D03*
X397638Y275590D02*
D03*
X387795D02*
D03*
D132*
X377953Y265591D02*
D03*
Y275590D02*
D03*
D133*
X350689Y218307D02*
D03*
D134*
X275978Y244854D02*
D03*
X271457Y245590D02*
D03*
X282185Y240354D02*
D03*
X273707Y244791D02*
D03*
X283465Y245472D02*
D03*
X264173Y375098D02*
D03*
X303445Y254035D02*
D03*
X299902Y252362D02*
D03*
X296358Y254134D02*
D03*
X292913Y252067D02*
D03*
X289469Y254429D02*
D03*
X256102Y262500D02*
D03*
X223917Y264567D02*
D03*
X408662Y392126D02*
D03*
X406299Y377953D02*
D03*
X408662Y373228D02*
D03*
X406299Y368504D02*
D03*
X408662Y363780D02*
D03*
X406299Y340158D02*
D03*
X408662Y335433D02*
D03*
X406299Y330709D02*
D03*
X408662Y325984D02*
D03*
X406299Y311811D02*
D03*
X408662Y307087D02*
D03*
X406299Y302362D02*
D03*
X408662Y297638D02*
D03*
X406299Y292913D02*
D03*
X408662Y288189D02*
D03*
X406299Y283465D02*
D03*
X408662Y278740D02*
D03*
X406299Y274016D02*
D03*
X408662Y269291D02*
D03*
X406299Y264567D02*
D03*
X408662Y259842D02*
D03*
X406299Y255118D02*
D03*
X408662Y250394D02*
D03*
X406299Y245669D02*
D03*
X408662Y240945D02*
D03*
X406299Y236221D02*
D03*
X408662Y231496D02*
D03*
X406299Y226772D02*
D03*
X408662Y222047D02*
D03*
X406299Y217323D02*
D03*
Y207874D02*
D03*
X408662Y203150D02*
D03*
X406299Y198425D02*
D03*
X408662Y193701D02*
D03*
X406299Y188976D02*
D03*
X408662Y174803D02*
D03*
X406299Y160630D02*
D03*
X408662Y155905D02*
D03*
X406299Y151181D02*
D03*
X408662Y146457D02*
D03*
X406299Y141732D02*
D03*
Y132283D02*
D03*
X408662Y127559D02*
D03*
X406299Y122835D02*
D03*
X408662Y118110D02*
D03*
X403937Y392126D02*
D03*
Y363780D02*
D03*
X401575Y340158D02*
D03*
X403937Y335433D02*
D03*
X401575Y330709D02*
D03*
X403937Y325984D02*
D03*
X401575Y311811D02*
D03*
X403937Y307087D02*
D03*
Y297638D02*
D03*
Y288189D02*
D03*
Y278740D02*
D03*
Y269291D02*
D03*
Y259842D02*
D03*
Y250394D02*
D03*
Y240945D02*
D03*
Y231496D02*
D03*
X401575Y226772D02*
D03*
X403937Y222047D02*
D03*
X401575Y217323D02*
D03*
Y207874D02*
D03*
X403937Y203150D02*
D03*
X401575Y198425D02*
D03*
X403937Y193701D02*
D03*
X401575Y188976D02*
D03*
X403937Y174803D02*
D03*
X401575Y160630D02*
D03*
X403937Y155905D02*
D03*
X401575Y151181D02*
D03*
X403937Y146457D02*
D03*
X401575Y141732D02*
D03*
Y132283D02*
D03*
X403937Y127559D02*
D03*
X401575Y122835D02*
D03*
X399213Y392126D02*
D03*
Y325984D02*
D03*
X396850Y311811D02*
D03*
Y226772D02*
D03*
X399213Y222047D02*
D03*
X396850Y217323D02*
D03*
Y207874D02*
D03*
X399213Y203150D02*
D03*
Y193701D02*
D03*
X396850Y188976D02*
D03*
X399213Y174803D02*
D03*
X396850Y141732D02*
D03*
Y132283D02*
D03*
X399213Y127559D02*
D03*
X396850Y122835D02*
D03*
X392126Y406299D02*
D03*
Y396850D02*
D03*
X394488Y392126D02*
D03*
X392126Y387402D02*
D03*
Y359055D02*
D03*
X394488Y354331D02*
D03*
X392126Y349606D02*
D03*
X394488Y344882D02*
D03*
X392126Y321260D02*
D03*
X394488Y316535D02*
D03*
X392126Y311811D02*
D03*
X394488Y250394D02*
D03*
Y240945D02*
D03*
Y222047D02*
D03*
Y212598D02*
D03*
Y184252D02*
D03*
X392126Y179528D02*
D03*
X394488Y174803D02*
D03*
X392126Y170079D02*
D03*
Y141732D02*
D03*
X394488Y137008D02*
D03*
X392126Y132283D02*
D03*
X394488Y127559D02*
D03*
X392126Y122835D02*
D03*
X394488Y118110D02*
D03*
X392126Y113386D02*
D03*
Y103937D02*
D03*
X389764Y401575D02*
D03*
X387402Y396850D02*
D03*
X389764Y392126D02*
D03*
X387402Y387402D02*
D03*
Y359055D02*
D03*
X389764Y354331D02*
D03*
X387402Y349606D02*
D03*
X389764Y344882D02*
D03*
X387402Y321260D02*
D03*
X389764Y184252D02*
D03*
X387402Y179528D02*
D03*
X389764Y174803D02*
D03*
X387402Y141732D02*
D03*
X389764Y137008D02*
D03*
X387402Y132283D02*
D03*
X382677Y387402D02*
D03*
X385039Y382677D02*
D03*
Y363780D02*
D03*
Y344882D02*
D03*
Y325984D02*
D03*
X382677Y311811D02*
D03*
X385039Y184252D02*
D03*
X382677Y179528D02*
D03*
Y170079D02*
D03*
X385039Y165354D02*
D03*
X382677Y160630D02*
D03*
X385039Y146457D02*
D03*
X382677Y141732D02*
D03*
X385039Y137008D02*
D03*
X382677Y132283D02*
D03*
X377953Y406299D02*
D03*
X380315Y392126D02*
D03*
Y363780D02*
D03*
X377953Y359055D02*
D03*
X380315Y354331D02*
D03*
X377953Y340158D02*
D03*
Y311811D02*
D03*
Y226772D02*
D03*
X380315Y222047D02*
D03*
X377953Y217323D02*
D03*
X380315Y212598D02*
D03*
Y165354D02*
D03*
Y146457D02*
D03*
X377953Y141732D02*
D03*
X380315Y137008D02*
D03*
X377953Y132283D02*
D03*
X373228Y406299D02*
D03*
Y226772D02*
D03*
X375591Y222047D02*
D03*
X373228Y217323D02*
D03*
Y151181D02*
D03*
X375591Y146457D02*
D03*
X373228Y141732D02*
D03*
X375591Y137008D02*
D03*
X373228Y132283D02*
D03*
X368504Y406299D02*
D03*
X370866Y363780D02*
D03*
Y240945D02*
D03*
Y231496D02*
D03*
Y222047D02*
D03*
X368504Y207874D02*
D03*
X370866Y203150D02*
D03*
X368504Y132283D02*
D03*
X363780Y406299D02*
D03*
Y255118D02*
D03*
X366142Y212598D02*
D03*
X363780Y132283D02*
D03*
X359055Y406299D02*
D03*
X361417Y401575D02*
D03*
X359055Y387402D02*
D03*
Y170079D02*
D03*
X361417Y165354D02*
D03*
X359055Y160630D02*
D03*
X361417Y155905D02*
D03*
X359055Y151181D02*
D03*
X361417Y146457D02*
D03*
X359055Y141732D02*
D03*
X361417Y137008D02*
D03*
X359055Y132283D02*
D03*
X354331Y396850D02*
D03*
X356693Y392126D02*
D03*
X354331Y387402D02*
D03*
Y340158D02*
D03*
Y207874D02*
D03*
X356693Y165354D02*
D03*
X354331Y160630D02*
D03*
X356693Y155905D02*
D03*
X354331Y151181D02*
D03*
X356693Y146457D02*
D03*
X354331Y141732D02*
D03*
X356693Y137008D02*
D03*
X354331Y132283D02*
D03*
X349606Y406299D02*
D03*
Y396850D02*
D03*
X351969Y392126D02*
D03*
Y316535D02*
D03*
Y269291D02*
D03*
Y259842D02*
D03*
Y212598D02*
D03*
Y165354D02*
D03*
X349606Y160630D02*
D03*
X351969Y155905D02*
D03*
Y146457D02*
D03*
Y137008D02*
D03*
X349606Y132283D02*
D03*
X344882Y406299D02*
D03*
X347244Y401575D02*
D03*
X344882Y396850D02*
D03*
X347244Y392126D02*
D03*
X344882Y198425D02*
D03*
X347244Y184252D02*
D03*
Y165354D02*
D03*
X344882Y160630D02*
D03*
X347244Y155905D02*
D03*
X344882Y132283D02*
D03*
X340158Y406299D02*
D03*
X342520Y401575D02*
D03*
X340158Y396850D02*
D03*
X342520Y392126D02*
D03*
X340158Y377953D02*
D03*
X342520Y373228D02*
D03*
X340158Y359055D02*
D03*
X342520Y354331D02*
D03*
Y307087D02*
D03*
Y288189D02*
D03*
X340158Y283465D02*
D03*
Y198425D02*
D03*
X342520Y184252D02*
D03*
Y165354D02*
D03*
X340158Y160630D02*
D03*
X342520Y155905D02*
D03*
X340158Y151181D02*
D03*
Y132283D02*
D03*
X335433Y406299D02*
D03*
X337795Y401575D02*
D03*
X335433Y396850D02*
D03*
X337795Y392126D02*
D03*
X335433Y387402D02*
D03*
X337795Y307087D02*
D03*
X335433Y283465D02*
D03*
Y226772D02*
D03*
Y207874D02*
D03*
Y198425D02*
D03*
X337795Y165354D02*
D03*
X335433Y160630D02*
D03*
X330709Y406299D02*
D03*
X333071Y401575D02*
D03*
X330709Y396850D02*
D03*
X333071Y392126D02*
D03*
X330709Y387402D02*
D03*
Y321260D02*
D03*
X333071Y316535D02*
D03*
Y307087D02*
D03*
X330709Y283465D02*
D03*
X333071Y231496D02*
D03*
X330709Y226772D02*
D03*
X333071Y222047D02*
D03*
X330709Y217323D02*
D03*
X333071Y212598D02*
D03*
X330709Y207874D02*
D03*
Y198425D02*
D03*
Y170079D02*
D03*
X325984Y387402D02*
D03*
X328346Y354331D02*
D03*
Y344882D02*
D03*
X325984Y330709D02*
D03*
Y321260D02*
D03*
Y283465D02*
D03*
X328346Y231496D02*
D03*
Y212598D02*
D03*
X325984Y207874D02*
D03*
Y198425D02*
D03*
Y170079D02*
D03*
X328346Y165354D02*
D03*
X321260Y387402D02*
D03*
X323622Y344882D02*
D03*
X321260Y321260D02*
D03*
X323622Y307087D02*
D03*
X321260Y283465D02*
D03*
Y274016D02*
D03*
Y226772D02*
D03*
Y217323D02*
D03*
X323622Y212598D02*
D03*
X321260Y207874D02*
D03*
Y198425D02*
D03*
Y170079D02*
D03*
X323622Y165354D02*
D03*
X318898Y373228D02*
D03*
Y344882D02*
D03*
X316535Y321260D02*
D03*
X318898Y288189D02*
D03*
X316535Y283465D02*
D03*
Y236221D02*
D03*
X318898Y231496D02*
D03*
X316535Y226772D02*
D03*
X318898Y222047D02*
D03*
X316535Y217323D02*
D03*
X318898Y212598D02*
D03*
X316535Y207874D02*
D03*
Y198425D02*
D03*
X318898Y184252D02*
D03*
X316535Y179528D02*
D03*
X318898Y174803D02*
D03*
X316535Y170079D02*
D03*
X318898Y165354D02*
D03*
X316535Y160630D02*
D03*
Y151181D02*
D03*
X318898Y146457D02*
D03*
X316535Y132283D02*
D03*
X314173Y307087D02*
D03*
Y288189D02*
D03*
X311811Y283465D02*
D03*
Y264567D02*
D03*
Y236221D02*
D03*
Y226772D02*
D03*
X314173Y222047D02*
D03*
X311811Y217323D02*
D03*
X314173Y212598D02*
D03*
X311811Y207874D02*
D03*
Y198425D02*
D03*
X314173Y184252D02*
D03*
X311811Y179528D02*
D03*
X314173Y174803D02*
D03*
X311811Y170079D02*
D03*
X314173Y165354D02*
D03*
X311811Y160630D02*
D03*
X314173Y155905D02*
D03*
X311811Y151181D02*
D03*
X314173Y146457D02*
D03*
Y137008D02*
D03*
X307087Y377953D02*
D03*
Y368504D02*
D03*
Y321260D02*
D03*
Y236221D02*
D03*
Y226772D02*
D03*
X309449Y222047D02*
D03*
X307087Y217323D02*
D03*
X309449Y212598D02*
D03*
X307087Y198425D02*
D03*
X309449Y184252D02*
D03*
X307087Y179528D02*
D03*
X309449Y174803D02*
D03*
X307087Y170079D02*
D03*
X309449Y165354D02*
D03*
X307087Y160630D02*
D03*
X309449Y155905D02*
D03*
X307087Y151181D02*
D03*
X302362Y406299D02*
D03*
Y396850D02*
D03*
X304724Y392126D02*
D03*
X302362Y387402D02*
D03*
X304724Y382677D02*
D03*
X302362Y377953D02*
D03*
X304724Y373228D02*
D03*
X302362Y368504D02*
D03*
Y321260D02*
D03*
Y226772D02*
D03*
X304724Y222047D02*
D03*
X302362Y217323D02*
D03*
Y207874D02*
D03*
X304724Y203150D02*
D03*
X302362Y198425D02*
D03*
X304724Y184252D02*
D03*
X302362Y179528D02*
D03*
X304724Y174803D02*
D03*
X302362Y170079D02*
D03*
X304724Y165354D02*
D03*
X302362Y160630D02*
D03*
X304724Y155905D02*
D03*
X302362Y151181D02*
D03*
X297638Y406299D02*
D03*
Y396850D02*
D03*
Y387402D02*
D03*
X300000Y382677D02*
D03*
X297638Y377953D02*
D03*
X300000Y373228D02*
D03*
X297638Y368504D02*
D03*
X300000Y363780D02*
D03*
X297638Y359055D02*
D03*
X300000Y344882D02*
D03*
X297638Y330709D02*
D03*
Y321260D02*
D03*
Y292913D02*
D03*
Y226772D02*
D03*
Y207874D02*
D03*
X300000Y203150D02*
D03*
X297638Y198425D02*
D03*
X300000Y174803D02*
D03*
X297638Y170079D02*
D03*
X300000Y165354D02*
D03*
X297638Y160630D02*
D03*
X300000Y155905D02*
D03*
X297638Y151181D02*
D03*
X300000Y146457D02*
D03*
Y137008D02*
D03*
X292913Y406299D02*
D03*
X295276Y401575D02*
D03*
X292913Y396850D02*
D03*
Y387402D02*
D03*
X295276Y382677D02*
D03*
X292913Y377953D02*
D03*
X295276Y373228D02*
D03*
X292913Y368504D02*
D03*
X295276Y363780D02*
D03*
X292913Y330709D02*
D03*
Y292913D02*
D03*
Y217323D02*
D03*
X295276Y212598D02*
D03*
Y203150D02*
D03*
Y193701D02*
D03*
Y174803D02*
D03*
X292913Y170079D02*
D03*
X295276Y165354D02*
D03*
X292913Y160630D02*
D03*
X295276Y155905D02*
D03*
X292913Y151181D02*
D03*
X295276Y137008D02*
D03*
X288189Y406299D02*
D03*
X290551Y401575D02*
D03*
X288189Y396850D02*
D03*
X290551Y392126D02*
D03*
X288189Y387402D02*
D03*
X290551Y382677D02*
D03*
X288189Y377953D02*
D03*
X290551Y373228D02*
D03*
X288189Y368504D02*
D03*
X290551Y363780D02*
D03*
Y354331D02*
D03*
X288189Y349606D02*
D03*
X290551Y297638D02*
D03*
Y222047D02*
D03*
X288189Y217323D02*
D03*
Y198425D02*
D03*
Y170079D02*
D03*
X290551Y165354D02*
D03*
X288189Y160630D02*
D03*
X290551Y155905D02*
D03*
Y137008D02*
D03*
X283465Y406299D02*
D03*
X285827Y401575D02*
D03*
X283465Y396850D02*
D03*
X285827Y392126D02*
D03*
X283465Y387402D02*
D03*
X285827Y382677D02*
D03*
X283465Y377953D02*
D03*
X285827Y354331D02*
D03*
X283465Y349606D02*
D03*
X285827Y288189D02*
D03*
Y222047D02*
D03*
X283465Y217323D02*
D03*
Y207874D02*
D03*
X285827Y203150D02*
D03*
X283465Y198425D02*
D03*
X285827Y184252D02*
D03*
X283465Y170079D02*
D03*
X285827Y165354D02*
D03*
X278740Y406299D02*
D03*
X281102Y401575D02*
D03*
X278740Y396850D02*
D03*
X281102Y392126D02*
D03*
X278740Y387402D02*
D03*
X281102Y382677D02*
D03*
Y354331D02*
D03*
X278740Y349606D02*
D03*
X281102Y344882D02*
D03*
Y335433D02*
D03*
Y325984D02*
D03*
X278740Y321260D02*
D03*
X281102Y288189D02*
D03*
X278740Y217323D02*
D03*
Y207874D02*
D03*
X281102Y203150D02*
D03*
X278740Y198425D02*
D03*
Y188976D02*
D03*
X281102Y184252D02*
D03*
X274016Y406299D02*
D03*
X276378Y401575D02*
D03*
X274016Y396850D02*
D03*
X276378Y392126D02*
D03*
X274016Y387402D02*
D03*
X276378Y382677D02*
D03*
X274016Y377953D02*
D03*
X276378Y363780D02*
D03*
X274016Y359055D02*
D03*
X276378Y354331D02*
D03*
X274016Y349606D02*
D03*
X276378Y344882D02*
D03*
Y325984D02*
D03*
Y288189D02*
D03*
X274016Y207874D02*
D03*
X276378Y203150D02*
D03*
X274016Y198425D02*
D03*
X276378Y184252D02*
D03*
X269291Y377953D02*
D03*
X271654Y354331D02*
D03*
X269291Y349606D02*
D03*
Y226772D02*
D03*
X271654Y212598D02*
D03*
X269291Y207874D02*
D03*
X271654Y203150D02*
D03*
X269291Y198425D02*
D03*
Y188976D02*
D03*
X271654Y184252D02*
D03*
X266929Y382677D02*
D03*
Y354331D02*
D03*
Y344882D02*
D03*
Y212598D02*
D03*
X264567Y207874D02*
D03*
X266929Y203150D02*
D03*
X264567Y198425D02*
D03*
X266929Y193701D02*
D03*
X264567Y188976D02*
D03*
X266929Y184252D02*
D03*
X262205Y382677D02*
D03*
Y222047D02*
D03*
X259842Y217323D02*
D03*
Y207874D02*
D03*
X262205Y203150D02*
D03*
Y193701D02*
D03*
X255118Y340158D02*
D03*
X257480Y335433D02*
D03*
X255118Y330709D02*
D03*
X257480Y325984D02*
D03*
Y316535D02*
D03*
Y231496D02*
D03*
X255118Y217323D02*
D03*
X252756Y382677D02*
D03*
Y344882D02*
D03*
X250394Y340158D02*
D03*
X252756Y335433D02*
D03*
X250394Y330709D02*
D03*
X252756Y325984D02*
D03*
Y231496D02*
D03*
X250394Y226772D02*
D03*
Y217323D02*
D03*
X252756Y212598D02*
D03*
X250394Y207874D02*
D03*
X245669Y406299D02*
D03*
Y396850D02*
D03*
X248031Y392126D02*
D03*
X245669Y387402D02*
D03*
X248031Y382677D02*
D03*
Y344882D02*
D03*
X245669Y340158D02*
D03*
X248031Y335433D02*
D03*
Y307087D02*
D03*
X245669Y292913D02*
D03*
X248031Y240945D02*
D03*
Y231496D02*
D03*
X245669Y226772D02*
D03*
X248031Y222047D02*
D03*
X245669Y217323D02*
D03*
X248031Y212598D02*
D03*
X245669Y207874D02*
D03*
Y198425D02*
D03*
X240945Y406299D02*
D03*
Y396850D02*
D03*
Y387402D02*
D03*
X243307Y382677D02*
D03*
X240945Y368504D02*
D03*
X243307Y344882D02*
D03*
X240945Y340158D02*
D03*
X243307Y307087D02*
D03*
Y250394D02*
D03*
X240945Y236221D02*
D03*
X243307Y231496D02*
D03*
X240945Y226772D02*
D03*
X243307Y222047D02*
D03*
X240945Y217323D02*
D03*
X243307Y212598D02*
D03*
X240945Y207874D02*
D03*
X243307Y203150D02*
D03*
X240945Y198425D02*
D03*
X243307Y193701D02*
D03*
X236221Y406299D02*
D03*
X238583Y401575D02*
D03*
X236221Y396850D02*
D03*
X238583Y392126D02*
D03*
X236221Y387402D02*
D03*
X238583Y382677D02*
D03*
Y373228D02*
D03*
X236221Y368504D02*
D03*
Y359055D02*
D03*
X238583Y344882D02*
D03*
X236221Y340158D02*
D03*
Y311811D02*
D03*
X238583Y307087D02*
D03*
Y297638D02*
D03*
Y240945D02*
D03*
X236221Y236221D02*
D03*
X238583Y231496D02*
D03*
X236221Y226772D02*
D03*
X238583Y222047D02*
D03*
X236221Y217323D02*
D03*
X238583Y212598D02*
D03*
X236221Y207874D02*
D03*
X238583Y203150D02*
D03*
X236221Y198425D02*
D03*
X238583Y193701D02*
D03*
X236221Y188976D02*
D03*
X231496Y406299D02*
D03*
X233858Y401575D02*
D03*
X231496Y396850D02*
D03*
X233858Y392126D02*
D03*
X231496Y387402D02*
D03*
X233858Y382677D02*
D03*
Y373228D02*
D03*
Y354331D02*
D03*
Y316535D02*
D03*
X231496Y311811D02*
D03*
X233858Y307087D02*
D03*
X231496Y245669D02*
D03*
X233858Y240945D02*
D03*
X231496Y236221D02*
D03*
X233858Y231496D02*
D03*
X231496Y226772D02*
D03*
X233858Y222047D02*
D03*
X231496Y217323D02*
D03*
X233858Y212598D02*
D03*
X231496Y207874D02*
D03*
X233858Y203150D02*
D03*
X231496Y198425D02*
D03*
X233858Y193701D02*
D03*
X231496Y188976D02*
D03*
X233858Y155905D02*
D03*
X229134Y401575D02*
D03*
Y392126D02*
D03*
Y240945D02*
D03*
X226772Y236221D02*
D03*
X229134Y231496D02*
D03*
X226772Y226772D02*
D03*
X229134Y222047D02*
D03*
X226772Y217323D02*
D03*
X229134Y212598D02*
D03*
X226772Y207874D02*
D03*
X229134Y203150D02*
D03*
X226772Y198425D02*
D03*
X229134Y193701D02*
D03*
Y184252D02*
D03*
Y155905D02*
D03*
X222047Y368504D02*
D03*
Y349606D02*
D03*
Y330709D02*
D03*
X224410Y250394D02*
D03*
X222047Y245669D02*
D03*
X224410Y240945D02*
D03*
X222047Y236221D02*
D03*
X224410Y231496D02*
D03*
X222047Y226772D02*
D03*
X224410Y222047D02*
D03*
X222047Y217323D02*
D03*
X224410Y212598D02*
D03*
X222047Y207874D02*
D03*
X224410Y203150D02*
D03*
X222047Y198425D02*
D03*
X224410Y193701D02*
D03*
X219685Y382677D02*
D03*
Y363780D02*
D03*
Y354331D02*
D03*
X217323Y349606D02*
D03*
X219685Y344882D02*
D03*
Y278740D02*
D03*
Y250394D02*
D03*
X217323Y245669D02*
D03*
X219685Y240945D02*
D03*
X217323Y236221D02*
D03*
X219685Y231496D02*
D03*
X217323Y226772D02*
D03*
X219685Y222047D02*
D03*
X217323Y217323D02*
D03*
X219685Y212598D02*
D03*
X217323Y207874D02*
D03*
X219685Y203150D02*
D03*
X217323Y198425D02*
D03*
X219685Y193701D02*
D03*
X217323Y170079D02*
D03*
X214961Y382677D02*
D03*
Y354331D02*
D03*
X212598Y349606D02*
D03*
X214961Y344882D02*
D03*
X212598Y340158D02*
D03*
X214961Y335433D02*
D03*
X212598Y330709D02*
D03*
X214961Y325984D02*
D03*
X212598Y283465D02*
D03*
X214961Y250394D02*
D03*
X212598Y245669D02*
D03*
X214961Y240945D02*
D03*
X212598Y236221D02*
D03*
X214961Y231496D02*
D03*
X212598Y226772D02*
D03*
X214961Y222047D02*
D03*
X212598Y217323D02*
D03*
X214961Y212598D02*
D03*
X212598Y207874D02*
D03*
X214961Y203150D02*
D03*
X212598Y198425D02*
D03*
X214961Y193701D02*
D03*
X212598Y170079D02*
D03*
X210236Y382677D02*
D03*
X207874Y264567D02*
D03*
X210236Y250394D02*
D03*
X207874Y245669D02*
D03*
X210236Y240945D02*
D03*
X207874Y236221D02*
D03*
X210236Y231496D02*
D03*
X207874Y226772D02*
D03*
X210236Y222047D02*
D03*
X207874Y217323D02*
D03*
X210236Y212598D02*
D03*
X207874Y207874D02*
D03*
X210236Y203150D02*
D03*
X207874Y198425D02*
D03*
X210236Y193701D02*
D03*
X207874Y188976D02*
D03*
Y170079D02*
D03*
X210236Y165354D02*
D03*
X207874Y160630D02*
D03*
X210236Y155905D02*
D03*
Y137008D02*
D03*
X205512Y382677D02*
D03*
X203150Y368504D02*
D03*
Y359055D02*
D03*
X205512Y354331D02*
D03*
X203150Y349606D02*
D03*
X205512Y344882D02*
D03*
X203150Y340158D02*
D03*
X205512Y335433D02*
D03*
X203150Y330709D02*
D03*
X205512Y325984D02*
D03*
X203150Y302362D02*
D03*
Y274016D02*
D03*
X205512Y250394D02*
D03*
X203150Y245669D02*
D03*
X205512Y240945D02*
D03*
X203150Y236221D02*
D03*
X205512Y231496D02*
D03*
X203150Y226772D02*
D03*
X205512Y222047D02*
D03*
X203150Y217323D02*
D03*
X205512Y212598D02*
D03*
X203150Y207874D02*
D03*
X205512Y203150D02*
D03*
X203150Y198425D02*
D03*
X205512Y193701D02*
D03*
Y137008D02*
D03*
X203150Y132283D02*
D03*
X200787Y382677D02*
D03*
X198425Y359055D02*
D03*
X200787Y354331D02*
D03*
X198425Y349606D02*
D03*
X200787Y344882D02*
D03*
X198425Y340158D02*
D03*
X200787Y335433D02*
D03*
X198425Y330709D02*
D03*
X200787Y325984D02*
D03*
Y307087D02*
D03*
Y297638D02*
D03*
Y288189D02*
D03*
X198425Y274016D02*
D03*
X200787Y269291D02*
D03*
X198425Y264567D02*
D03*
X200787Y250394D02*
D03*
X198425Y245669D02*
D03*
X200787Y240945D02*
D03*
X198425Y236221D02*
D03*
X200787Y231496D02*
D03*
X198425Y226772D02*
D03*
X200787Y222047D02*
D03*
X198425Y217323D02*
D03*
X200787Y212598D02*
D03*
X198425Y207874D02*
D03*
X200787Y203150D02*
D03*
Y193701D02*
D03*
X198425Y179528D02*
D03*
X200787Y174803D02*
D03*
X198425Y160630D02*
D03*
X200787Y155905D02*
D03*
X196063Y382677D02*
D03*
Y363780D02*
D03*
Y344882D02*
D03*
X193701Y340158D02*
D03*
X196063Y335433D02*
D03*
X193701Y330709D02*
D03*
X196063Y325984D02*
D03*
X193701Y302362D02*
D03*
X196063Y288189D02*
D03*
X193701Y274016D02*
D03*
Y264567D02*
D03*
X196063Y250394D02*
D03*
X193701Y245669D02*
D03*
X196063Y240945D02*
D03*
X193701Y236221D02*
D03*
X196063Y231496D02*
D03*
X193701Y226772D02*
D03*
Y207874D02*
D03*
X196063Y203150D02*
D03*
X193701Y179528D02*
D03*
X196063Y174803D02*
D03*
Y165354D02*
D03*
X193701Y160630D02*
D03*
X191339Y382677D02*
D03*
Y363780D02*
D03*
Y344882D02*
D03*
X188976Y340158D02*
D03*
X191339Y335433D02*
D03*
X188976Y330709D02*
D03*
X191339Y325984D02*
D03*
Y288189D02*
D03*
X188976Y274016D02*
D03*
Y264567D02*
D03*
X191339Y250394D02*
D03*
X188976Y245669D02*
D03*
X191339Y240945D02*
D03*
X188976Y236221D02*
D03*
X191339Y231496D02*
D03*
X188976Y226772D02*
D03*
Y179528D02*
D03*
X191339Y174803D02*
D03*
Y165354D02*
D03*
X188976Y160630D02*
D03*
X186614Y382677D02*
D03*
Y363780D02*
D03*
Y344882D02*
D03*
X184252Y340158D02*
D03*
X186614Y335433D02*
D03*
X184252Y330709D02*
D03*
X186614Y325984D02*
D03*
X184252Y264567D02*
D03*
X186614Y250394D02*
D03*
Y240945D02*
D03*
X184252Y236221D02*
D03*
X186614Y231496D02*
D03*
X184252Y226772D02*
D03*
Y179528D02*
D03*
X186614Y174803D02*
D03*
Y165354D02*
D03*
X184252Y160630D02*
D03*
X181890Y382677D02*
D03*
Y363780D02*
D03*
X179528Y359055D02*
D03*
Y349606D02*
D03*
X181890Y344882D02*
D03*
X179528Y340158D02*
D03*
X181890Y335433D02*
D03*
X179528Y330709D02*
D03*
X181890Y325984D02*
D03*
Y240945D02*
D03*
X179528Y236221D02*
D03*
X181890Y231496D02*
D03*
X179528Y226772D02*
D03*
Y179528D02*
D03*
X181890Y174803D02*
D03*
Y165354D02*
D03*
X179528Y160630D02*
D03*
X177165Y382677D02*
D03*
Y363780D02*
D03*
X174803Y359055D02*
D03*
X177165Y354331D02*
D03*
X174803Y349606D02*
D03*
X177165Y344882D02*
D03*
X174803Y340158D02*
D03*
X177165Y335433D02*
D03*
Y240945D02*
D03*
X174803Y236221D02*
D03*
X177165Y231496D02*
D03*
X174803Y226772D02*
D03*
Y179528D02*
D03*
X177165Y174803D02*
D03*
Y165354D02*
D03*
X174803Y160630D02*
D03*
Y141732D02*
D03*
X172441Y382677D02*
D03*
X170079Y377953D02*
D03*
X172441Y363780D02*
D03*
X170079Y359055D02*
D03*
X172441Y354331D02*
D03*
X170079Y349606D02*
D03*
X172441Y344882D02*
D03*
X170079Y340158D02*
D03*
X172441Y335433D02*
D03*
X170079Y330709D02*
D03*
X172441Y325984D02*
D03*
X170079Y292913D02*
D03*
X172441Y288189D02*
D03*
X170079Y283465D02*
D03*
Y274016D02*
D03*
X172441Y231496D02*
D03*
X170079Y226772D02*
D03*
X172441Y222047D02*
D03*
X170079Y207874D02*
D03*
X172441Y203150D02*
D03*
X170079Y179528D02*
D03*
X172441Y174803D02*
D03*
Y165354D02*
D03*
X170079Y160630D02*
D03*
Y141732D02*
D03*
X167717Y382677D02*
D03*
X165354Y377953D02*
D03*
Y330709D02*
D03*
X167717Y325984D02*
D03*
X165354Y311811D02*
D03*
X167717Y288189D02*
D03*
X165354Y283465D02*
D03*
X167717Y240945D02*
D03*
Y231496D02*
D03*
X165354Y207874D02*
D03*
X167717Y203150D02*
D03*
X165354Y179528D02*
D03*
X167717Y174803D02*
D03*
Y165354D02*
D03*
X165354Y160630D02*
D03*
Y151181D02*
D03*
Y141732D02*
D03*
X162992Y363780D02*
D03*
Y354331D02*
D03*
Y344882D02*
D03*
Y335433D02*
D03*
Y325984D02*
D03*
Y288189D02*
D03*
Y240945D02*
D03*
X160630Y236221D02*
D03*
Y207874D02*
D03*
X162992Y203150D02*
D03*
Y165354D02*
D03*
X160630Y160630D02*
D03*
X162992Y155905D02*
D03*
X160630Y151181D02*
D03*
X162992Y146457D02*
D03*
X160630Y141732D02*
D03*
X158268Y240945D02*
D03*
X155905Y207874D02*
D03*
X158268Y203150D02*
D03*
Y165354D02*
D03*
X155905Y160630D02*
D03*
X158268Y155905D02*
D03*
X155905Y151181D02*
D03*
X158268Y146457D02*
D03*
X155905Y141732D02*
D03*
X151181Y406299D02*
D03*
X153543Y401575D02*
D03*
X151181Y396850D02*
D03*
X153543Y392126D02*
D03*
X151181Y387402D02*
D03*
Y377953D02*
D03*
Y349606D02*
D03*
Y330709D02*
D03*
X153543Y250394D02*
D03*
X151181Y245669D02*
D03*
X153543Y240945D02*
D03*
X151181Y226772D02*
D03*
Y207874D02*
D03*
X153543Y203150D02*
D03*
X151181Y179528D02*
D03*
Y160630D02*
D03*
X153543Y155905D02*
D03*
X151181Y151181D02*
D03*
X153543Y146457D02*
D03*
X151181Y141732D02*
D03*
X146457Y406299D02*
D03*
X148819Y401575D02*
D03*
X146457Y396850D02*
D03*
X148819Y392126D02*
D03*
X146457Y387402D02*
D03*
X148819Y382677D02*
D03*
X146457Y377953D02*
D03*
X148819Y373228D02*
D03*
X146457Y302362D02*
D03*
X148819Y297638D02*
D03*
X146457Y292913D02*
D03*
X148819Y288189D02*
D03*
X146457Y283465D02*
D03*
X148819Y278740D02*
D03*
Y250394D02*
D03*
X146457Y245669D02*
D03*
Y226772D02*
D03*
Y207874D02*
D03*
X148819Y203150D02*
D03*
X146457Y198425D02*
D03*
Y188976D02*
D03*
Y179528D02*
D03*
X148819Y155905D02*
D03*
X146457Y151181D02*
D03*
X148819Y146457D02*
D03*
X146457Y141732D02*
D03*
Y132283D02*
D03*
X141732Y406299D02*
D03*
X144095Y401575D02*
D03*
X141732Y396850D02*
D03*
X144095Y392126D02*
D03*
X141732Y387402D02*
D03*
X144095Y382677D02*
D03*
Y307087D02*
D03*
X141732Y302362D02*
D03*
X144095Y297638D02*
D03*
X141732Y292913D02*
D03*
X144095Y288189D02*
D03*
Y269291D02*
D03*
Y250394D02*
D03*
X141732Y245669D02*
D03*
Y226772D02*
D03*
Y217323D02*
D03*
X144095Y212598D02*
D03*
X141732Y207874D02*
D03*
X144095Y203150D02*
D03*
X141732Y198425D02*
D03*
X144095Y193701D02*
D03*
X141732Y188976D02*
D03*
X144095Y184252D02*
D03*
X141732Y179528D02*
D03*
X144095Y174803D02*
D03*
Y155905D02*
D03*
X141732Y151181D02*
D03*
X144095Y146457D02*
D03*
X141732Y141732D02*
D03*
X144095Y137008D02*
D03*
X141732Y132283D02*
D03*
X137008Y406299D02*
D03*
X139370Y401575D02*
D03*
X137008Y396850D02*
D03*
X139370Y392126D02*
D03*
X137008Y387402D02*
D03*
X139370Y382677D02*
D03*
X137008Y359055D02*
D03*
X139370Y297638D02*
D03*
X137008Y292913D02*
D03*
X139370Y222047D02*
D03*
Y203150D02*
D03*
Y193701D02*
D03*
Y184252D02*
D03*
X137008Y179528D02*
D03*
X139370Y174803D02*
D03*
Y155905D02*
D03*
X137008Y151181D02*
D03*
X139370Y146457D02*
D03*
X137008Y141732D02*
D03*
X139370Y137008D02*
D03*
X137008Y132283D02*
D03*
X132283Y406299D02*
D03*
X134646Y401575D02*
D03*
X132283Y396850D02*
D03*
X134646Y392126D02*
D03*
X132283Y387402D02*
D03*
X134646Y382677D02*
D03*
X132283Y377953D02*
D03*
Y359055D02*
D03*
Y349606D02*
D03*
Y340158D02*
D03*
X134646Y297638D02*
D03*
X132283Y292913D02*
D03*
X134646Y184252D02*
D03*
X132283Y179528D02*
D03*
X134646Y174803D02*
D03*
Y155905D02*
D03*
X132283Y151181D02*
D03*
X134646Y146457D02*
D03*
X132283Y141732D02*
D03*
X134646Y137008D02*
D03*
X132283Y132283D02*
D03*
X127559Y406299D02*
D03*
X129921Y401575D02*
D03*
X127559Y396850D02*
D03*
X129921Y392126D02*
D03*
X127559Y387402D02*
D03*
X129921Y382677D02*
D03*
X127559Y377953D02*
D03*
X129921Y363780D02*
D03*
X127559Y359055D02*
D03*
X129921Y354331D02*
D03*
X127559Y349606D02*
D03*
X129921Y344882D02*
D03*
X127559Y340158D02*
D03*
Y311811D02*
D03*
X129921Y297638D02*
D03*
X127559Y292913D02*
D03*
X129921Y222047D02*
D03*
Y203150D02*
D03*
Y184252D02*
D03*
Y155905D02*
D03*
X127559Y151181D02*
D03*
X129921Y146457D02*
D03*
X127559Y141732D02*
D03*
X129921Y137008D02*
D03*
X127559Y132283D02*
D03*
X122835Y406299D02*
D03*
X125197Y401575D02*
D03*
X122835Y396850D02*
D03*
X125197Y392126D02*
D03*
X122835Y387402D02*
D03*
X125197Y382677D02*
D03*
X122835Y359055D02*
D03*
X125197Y354331D02*
D03*
X122835Y349606D02*
D03*
X125197Y344882D02*
D03*
X122835Y321260D02*
D03*
X125197Y316535D02*
D03*
X122835Y236221D02*
D03*
Y179528D02*
D03*
Y151181D02*
D03*
X125197Y146457D02*
D03*
X118110Y406299D02*
D03*
X120473Y401575D02*
D03*
X118110Y396850D02*
D03*
X120473Y392126D02*
D03*
X118110Y387402D02*
D03*
X120473Y382677D02*
D03*
X118110Y359055D02*
D03*
X120473Y354331D02*
D03*
X118110Y349606D02*
D03*
X120473Y344882D02*
D03*
X118110Y311811D02*
D03*
X120473Y297638D02*
D03*
X118110Y292913D02*
D03*
Y236221D02*
D03*
Y217323D02*
D03*
Y207874D02*
D03*
X120473Y184252D02*
D03*
X118110Y179528D02*
D03*
Y151181D02*
D03*
X120473Y146457D02*
D03*
X118110Y122835D02*
D03*
X120473Y118110D02*
D03*
X118110Y113386D02*
D03*
X120473Y108661D02*
D03*
X118110Y103937D02*
D03*
X115748Y392126D02*
D03*
X113386Y311811D02*
D03*
X115748Y297638D02*
D03*
X113386Y292913D02*
D03*
X115748Y240945D02*
D03*
X113386Y236221D02*
D03*
X115748Y222047D02*
D03*
Y203150D02*
D03*
X113386Y198425D02*
D03*
Y179528D02*
D03*
Y151181D02*
D03*
X115748Y146457D02*
D03*
X113386Y122835D02*
D03*
X115748Y118110D02*
D03*
X111024Y392126D02*
D03*
X108661Y377953D02*
D03*
X111024Y373228D02*
D03*
X108661Y368504D02*
D03*
X111024Y363780D02*
D03*
X108661Y311811D02*
D03*
Y302362D02*
D03*
X111024Y297638D02*
D03*
X108661Y292913D02*
D03*
Y283465D02*
D03*
Y274016D02*
D03*
Y264567D02*
D03*
Y255118D02*
D03*
Y245669D02*
D03*
X111024Y240945D02*
D03*
X108661Y236221D02*
D03*
Y226772D02*
D03*
X111024Y222047D02*
D03*
X108661Y217323D02*
D03*
Y207874D02*
D03*
X111024Y203150D02*
D03*
X108661Y160630D02*
D03*
X111024Y155905D02*
D03*
X108661Y151181D02*
D03*
X111024Y146457D02*
D03*
X108661Y141732D02*
D03*
X111024Y137008D02*
D03*
X108661Y132283D02*
D03*
X111024Y127559D02*
D03*
X108661Y122835D02*
D03*
X106299Y392126D02*
D03*
X103937Y377953D02*
D03*
X106299Y373228D02*
D03*
X103937Y368504D02*
D03*
X106299Y363780D02*
D03*
X103937Y340158D02*
D03*
Y330709D02*
D03*
X106299Y325984D02*
D03*
X103937Y311811D02*
D03*
X106299Y307087D02*
D03*
X103937Y302362D02*
D03*
X106299Y297638D02*
D03*
X103937Y292913D02*
D03*
X106299Y288189D02*
D03*
X103937Y283465D02*
D03*
X106299Y278740D02*
D03*
X103937Y274016D02*
D03*
X106299Y269291D02*
D03*
X103937Y264567D02*
D03*
X106299Y259842D02*
D03*
X103937Y255118D02*
D03*
X106299Y250394D02*
D03*
X103937Y245669D02*
D03*
X106299Y240945D02*
D03*
X103937Y236221D02*
D03*
X106299Y231496D02*
D03*
X103937Y226772D02*
D03*
X106299Y222047D02*
D03*
X103937Y217323D02*
D03*
X106299Y212598D02*
D03*
X103937Y207874D02*
D03*
X106299Y203150D02*
D03*
X103937Y170079D02*
D03*
X106299Y165354D02*
D03*
X103937Y160630D02*
D03*
X106299Y155905D02*
D03*
X103937Y151181D02*
D03*
X106299Y146457D02*
D03*
X103937Y141732D02*
D03*
X106299Y137008D02*
D03*
X103937Y132283D02*
D03*
X106299Y127559D02*
D03*
X103937Y122835D02*
D03*
X106299Y118110D02*
D03*
X103937Y103937D02*
D03*
X297146Y274724D02*
D03*
X339280Y336419D02*
D03*
X320472Y382087D02*
D03*
X162311Y310827D02*
D03*
X279640Y253888D02*
D03*
X266831Y269238D02*
D03*
X266772Y272809D02*
D03*
X267224Y276420D02*
D03*
X231004Y254716D02*
D03*
X227461Y259154D02*
D03*
X226083Y269783D02*
D03*
X232776Y271457D02*
D03*
X287303Y303059D02*
D03*
X266993Y303578D02*
D03*
X398524Y336516D02*
D03*
X374114Y212106D02*
D03*
X249803Y245866D02*
D03*
X238208Y256988D02*
D03*
X236122Y281102D02*
D03*
X196752Y270177D02*
D03*
X225984Y262402D02*
D03*
X221161Y266535D02*
D03*
X299016Y270669D02*
D03*
X311319Y273721D02*
D03*
X269882Y263878D02*
D03*
X282973Y272739D02*
D03*
X280610Y269980D02*
D03*
X266339Y266535D02*
D03*
X275705Y265472D02*
D03*
X277772Y267539D02*
D03*
X258366Y271654D02*
D03*
X275325Y279436D02*
D03*
X281398Y283661D02*
D03*
X330217Y240729D02*
D03*
X315846Y264272D02*
D03*
X328740Y238878D02*
D03*
X355217Y242815D02*
D03*
X343307Y266634D02*
D03*
X314764Y268996D02*
D03*
X267658Y298173D02*
D03*
X300787Y308446D02*
D03*
X297146Y310531D02*
D03*
X354429Y307185D02*
D03*
X366043Y301870D02*
D03*
X385318Y204724D02*
D03*
X399114Y197343D02*
D03*
X291485Y315503D02*
D03*
X272244Y304528D02*
D03*
X310531Y300930D02*
D03*
X301378Y299410D02*
D03*
X307087Y291043D02*
D03*
X324705Y300197D02*
D03*
X351673Y300689D02*
D03*
X363583Y298524D02*
D03*
X323425Y233760D02*
D03*
X267522Y245714D02*
D03*
X362500Y238681D02*
D03*
X253839Y274410D02*
D03*
X261713Y276772D02*
D03*
X244193Y272638D02*
D03*
X273524Y281712D02*
D03*
X292224Y287894D02*
D03*
X358268Y296829D02*
D03*
X244587Y286516D02*
D03*
X261633Y288681D02*
D03*
X257461Y289710D02*
D03*
X367618Y314764D02*
D03*
X354921Y303740D02*
D03*
X352737Y286910D02*
D03*
X287803Y249220D02*
D03*
X306791Y251575D02*
D03*
X297835Y237894D02*
D03*
X271457Y261319D02*
D03*
X286713Y259547D02*
D03*
X269488Y256890D02*
D03*
X261811Y258465D02*
D03*
X263817Y245276D02*
D03*
X258858Y228346D02*
D03*
X272933Y216535D02*
D03*
X293110Y239665D02*
D03*
X363681Y201083D02*
D03*
X225984Y248031D02*
D03*
X265748Y335039D02*
D03*
X268504Y336713D02*
D03*
X238681Y350098D02*
D03*
X233169Y321358D02*
D03*
X283268Y297835D02*
D03*
X274508Y318209D02*
D03*
X207382Y319980D02*
D03*
X259646Y245571D02*
D03*
X257874Y243485D02*
D03*
X243898Y260846D02*
D03*
X224606Y302461D02*
D03*
X210925Y288779D02*
D03*
X139665Y314173D02*
D03*
X180315Y323524D02*
D03*
X177559Y288386D02*
D03*
X189764Y286024D02*
D03*
X160433Y284350D02*
D03*
X228740Y273031D02*
D03*
X105118Y334252D02*
D03*
X111417Y332972D02*
D03*
X201673Y364075D02*
D03*
X173327Y369009D02*
D03*
X146850Y366831D02*
D03*
X126772Y368406D02*
D03*
X218602Y373031D02*
D03*
X215354Y359547D02*
D03*
X245669Y373228D02*
D03*
X237598Y363090D02*
D03*
X233366Y363287D02*
D03*
X243996Y351279D02*
D03*
X170866Y373524D02*
D03*
X241339Y379134D02*
D03*
X281890Y373819D02*
D03*
X258371Y381857D02*
D03*
X255999Y381890D02*
D03*
X255906Y305077D02*
D03*
X274410Y227264D02*
D03*
X268602Y243504D02*
D03*
X294783Y344488D02*
D03*
X321752Y371457D02*
D03*
X337598Y379823D02*
D03*
X287894Y362402D02*
D03*
X282283Y305020D02*
D03*
X338798Y325787D02*
D03*
X341831Y317126D02*
D03*
X355906Y320965D02*
D03*
X349213Y337716D02*
D03*
X354921Y329724D02*
D03*
X363963Y333544D02*
D03*
X360827Y325984D02*
D03*
X383071Y351772D02*
D03*
X396505Y377966D02*
D03*
X398622Y370374D02*
D03*
X370177Y403937D02*
D03*
X382185Y382382D02*
D03*
X380807Y370079D02*
D03*
X368898Y399311D02*
D03*
X360728Y383465D02*
D03*
X368996Y383268D02*
D03*
X278740Y226279D02*
D03*
X312402Y231791D02*
D03*
X266437Y315846D02*
D03*
X252958Y258465D02*
D03*
X254134Y254232D02*
D03*
X287697Y292815D02*
D03*
X344783Y315748D02*
D03*
X202264Y279232D02*
D03*
X160433Y378543D02*
D03*
X362795Y345866D02*
D03*
X313287Y370768D02*
D03*
X313386Y382185D02*
D03*
X371457Y336417D02*
D03*
X385318Y189961D02*
D03*
X115059Y378150D02*
D03*
X208268Y356398D02*
D03*
X122047Y200787D02*
D03*
X222342Y121161D02*
D03*
X348377Y168850D02*
D03*
X254984Y187644D02*
D03*
X153937Y281969D02*
D03*
X331890Y138583D02*
D03*
D135*
X326378Y140551D02*
D03*
X187008Y141339D02*
D03*
D136*
X299702Y114936D02*
D03*
X297802Y113136D02*
D03*
X307302Y110036D02*
D03*
X306502Y106836D02*
D03*
X302102Y104236D02*
D03*
X304602Y105136D02*
D03*
X299202Y105236D02*
D03*
X297302Y107436D02*
D03*
X297002Y110336D02*
D03*
X302202Y115836D02*
D03*
X306702Y113036D02*
D03*
X304902Y114936D02*
D03*
X292502Y110136D02*
D03*
X291902Y107136D02*
D03*
X289902Y105236D02*
D03*
X287302Y104336D02*
D03*
X284502Y105336D02*
D03*
X282602Y107436D02*
D03*
X282202Y110536D02*
D03*
X282902Y113436D02*
D03*
X284602Y115236D02*
D03*
X287302Y116036D02*
D03*
X290202Y115036D02*
D03*
X292002Y113136D02*
D03*
X194450Y115136D02*
D03*
X192550Y113336D02*
D03*
X202050Y110236D02*
D03*
X201250Y107036D02*
D03*
X196850Y104436D02*
D03*
X199350Y105336D02*
D03*
X193950Y105436D02*
D03*
X192050Y107636D02*
D03*
X191750Y110536D02*
D03*
X196950Y116036D02*
D03*
X201450Y113236D02*
D03*
X199650Y115136D02*
D03*
X187250Y110336D02*
D03*
X186650Y107336D02*
D03*
X184650Y105436D02*
D03*
X182050Y104536D02*
D03*
X179250Y105536D02*
D03*
X177350Y107636D02*
D03*
X176950Y110736D02*
D03*
X177650Y113636D02*
D03*
X179350Y115436D02*
D03*
X182050Y116236D02*
D03*
X184950Y115236D02*
D03*
X186750Y113336D02*
D03*
X370568Y114936D02*
D03*
X368668Y113136D02*
D03*
X378168Y110036D02*
D03*
X377368Y106836D02*
D03*
X372968Y104236D02*
D03*
X375468Y105136D02*
D03*
X370068Y105236D02*
D03*
X368168Y107436D02*
D03*
X367868Y110336D02*
D03*
X373068Y115836D02*
D03*
X377568Y113036D02*
D03*
X375768Y114936D02*
D03*
X363368Y110136D02*
D03*
X362768Y107136D02*
D03*
X360768Y105236D02*
D03*
X358168Y104336D02*
D03*
X355368Y105336D02*
D03*
X353468Y107436D02*
D03*
X353068Y110536D02*
D03*
X353768Y113436D02*
D03*
X355468Y115236D02*
D03*
X358168Y116036D02*
D03*
X361068Y115036D02*
D03*
X362868Y113136D02*
D03*
X229884Y115136D02*
D03*
X227983Y113336D02*
D03*
X237484Y110236D02*
D03*
X236684Y107036D02*
D03*
X232283Y104436D02*
D03*
X234784Y105336D02*
D03*
X229383Y105436D02*
D03*
X227484Y107636D02*
D03*
X227184Y110536D02*
D03*
X232383Y116036D02*
D03*
X236883Y113236D02*
D03*
X235084Y115136D02*
D03*
X222684Y110336D02*
D03*
X222083Y107336D02*
D03*
X220083Y105436D02*
D03*
X217483Y104536D02*
D03*
X214684Y105536D02*
D03*
X212784Y107636D02*
D03*
X212384Y110736D02*
D03*
X213084Y113636D02*
D03*
X214784Y115436D02*
D03*
X217483Y116236D02*
D03*
X220384Y115236D02*
D03*
X222183Y113336D02*
D03*
X335135Y114936D02*
D03*
X333235Y113136D02*
D03*
X342735Y110036D02*
D03*
X341935Y106836D02*
D03*
X337535Y104236D02*
D03*
X340035Y105136D02*
D03*
X334635Y105236D02*
D03*
X332735Y107436D02*
D03*
X332435Y110336D02*
D03*
X337635Y115836D02*
D03*
X342135Y113036D02*
D03*
X340335Y114936D02*
D03*
X327935Y110136D02*
D03*
X327335Y107136D02*
D03*
X325335Y105236D02*
D03*
X322735Y104336D02*
D03*
X319935Y105336D02*
D03*
X318035Y107436D02*
D03*
X317635Y110536D02*
D03*
X318335Y113436D02*
D03*
X320035Y115236D02*
D03*
X322735Y116036D02*
D03*
X325635Y115036D02*
D03*
X327435Y113136D02*
D03*
X265317Y115136D02*
D03*
X263417Y113336D02*
D03*
X272917Y110236D02*
D03*
X272116Y107036D02*
D03*
X267717Y104436D02*
D03*
X270216Y105336D02*
D03*
X264816Y105436D02*
D03*
X262916Y107636D02*
D03*
X262616Y110536D02*
D03*
X267816Y116036D02*
D03*
X272317Y113236D02*
D03*
X270516Y115136D02*
D03*
X258117Y110336D02*
D03*
X257517Y107336D02*
D03*
X255517Y105436D02*
D03*
X252917Y104536D02*
D03*
X250116Y105536D02*
D03*
X248217Y107636D02*
D03*
X247816Y110736D02*
D03*
X248517Y113636D02*
D03*
X250217Y115436D02*
D03*
X252917Y116236D02*
D03*
X255817Y115236D02*
D03*
X257616Y113336D02*
D03*
M02*
