G04*
G04 #@! TF.GenerationSoftware,Altium Limited,Altium Designer,20.1.8 (145)*
G04*
G04 Layer_Color=8388736*
%FSLAX25Y25*%
%MOIN*%
G70*
G04*
G04 #@! TF.SameCoordinates,80DC2721-EA0D-41AB-A6B1-568E3CCDEEEF*
G04*
G04*
G04 #@! TF.FilePolarity,Negative*
G04*
G01*
G75*
%ADD21R,0.01900X0.06600*%
%ADD22R,0.05524X0.06312*%
%ADD23R,0.01378X0.01378*%
%ADD24R,0.01378X0.01378*%
%ADD25R,0.04737X0.03556*%
%ADD26R,0.10642X0.18123*%
%ADD27R,0.06312X0.05524*%
G04:AMPARAMS|DCode=28|XSize=46.27mil|YSize=39.58mil|CornerRadius=11.89mil|HoleSize=0mil|Usage=FLASHONLY|Rotation=90.000|XOffset=0mil|YOffset=0mil|HoleType=Round|Shape=RoundedRectangle|*
%AMROUNDEDRECTD28*
21,1,0.04627,0.01579,0,0,90.0*
21,1,0.02248,0.03958,0,0,90.0*
1,1,0.02379,0.00789,0.01124*
1,1,0.02379,0.00789,-0.01124*
1,1,0.02379,-0.00789,-0.01124*
1,1,0.02379,-0.00789,0.01124*
%
%ADD28ROUNDEDRECTD28*%
%ADD29R,0.03958X0.04627*%
%ADD30R,0.06312X0.06312*%
%ADD31R,0.06600X0.01900*%
%ADD32R,0.18123X0.10642*%
%ADD33R,0.04737X0.06706*%
%ADD34R,0.03556X0.04737*%
%ADD35R,0.04737X0.13005*%
%ADD36R,0.03162X0.08280*%
G04:AMPARAMS|DCode=37|XSize=37.53mil|YSize=21.78mil|CornerRadius=4.55mil|HoleSize=0mil|Usage=FLASHONLY|Rotation=90.000|XOffset=0mil|YOffset=0mil|HoleType=Round|Shape=RoundedRectangle|*
%AMROUNDEDRECTD37*
21,1,0.03753,0.01268,0,0,90.0*
21,1,0.02843,0.02178,0,0,90.0*
1,1,0.00910,0.00634,0.01421*
1,1,0.00910,0.00634,-0.01421*
1,1,0.00910,-0.00634,-0.01421*
1,1,0.00910,-0.00634,0.01421*
%
%ADD37ROUNDEDRECTD37*%
%ADD38R,0.03202X0.07099*%
%ADD39O,0.03202X0.07099*%
%ADD40R,0.07300X0.09300*%
%ADD41R,0.50013X0.14580*%
%ADD42R,0.03810X0.01724*%
%ADD43R,0.01724X0.03810*%
%ADD44R,0.07493X0.04343*%
%ADD45R,0.04343X0.07493*%
%ADD46R,0.16548X0.16548*%
%ADD47R,0.07887X0.14186*%
%ADD48R,0.08280X0.08280*%
%ADD49R,0.07099X0.06312*%
%ADD50R,0.02375X0.06115*%
%ADD51R,0.13005X0.04737*%
%ADD52R,0.08280X0.03162*%
%ADD53C,0.08674*%
%ADD54R,0.08674X0.08674*%
%ADD55O,0.07690X0.08674*%
%ADD56R,0.07690X0.08674*%
%ADD57C,0.06706*%
%ADD58O,0.08674X0.06706*%
%ADD59R,0.08674X0.06706*%
%ADD60O,0.06942X0.05328*%
%ADD61R,0.06942X0.05328*%
%ADD62R,0.08674X0.08674*%
%ADD63O,0.06706X0.08674*%
%ADD64R,0.06706X0.08674*%
%ADD65C,0.14580*%
%ADD66O,0.12611X0.14580*%
%ADD67O,0.04343X0.07887*%
%ADD68R,0.06706X0.06706*%
%ADD69O,0.08674X0.06800*%
%ADD70R,0.08674X0.06800*%
%ADD71R,0.06706X0.06706*%
%ADD72C,0.01887*%
D21*
X273472Y293754D02*
D03*
X271472D02*
D03*
X255672Y249553D02*
D03*
X257672D02*
D03*
X259672D02*
D03*
X261572D02*
D03*
X263572D02*
D03*
X265572D02*
D03*
X267472D02*
D03*
X269472D02*
D03*
X271472D02*
D03*
X273472D02*
D03*
X275372D02*
D03*
X277372D02*
D03*
X279372D02*
D03*
X281272D02*
D03*
X283272D02*
D03*
X285272D02*
D03*
Y293754D02*
D03*
X283272D02*
D03*
X281272D02*
D03*
X279372D02*
D03*
X277372D02*
D03*
X275372D02*
D03*
X269472D02*
D03*
X267472D02*
D03*
X265572D02*
D03*
X263572D02*
D03*
X261572D02*
D03*
X259672D02*
D03*
X257672D02*
D03*
X255672D02*
D03*
D22*
X300197Y315551D02*
D03*
X307283D02*
D03*
X322342Y315453D02*
D03*
X315256D02*
D03*
X319685Y357874D02*
D03*
X312598D02*
D03*
X319685Y349705D02*
D03*
X312598D02*
D03*
X259449Y374311D02*
D03*
X252362D02*
D03*
X231988Y286417D02*
D03*
X224902D02*
D03*
X231988Y294488D02*
D03*
X224902D02*
D03*
X231988Y278445D02*
D03*
X224902D02*
D03*
X260335Y351279D02*
D03*
X253248D02*
D03*
D23*
X302165Y309547D02*
D03*
X303937D02*
D03*
X313976D02*
D03*
X315748D02*
D03*
X272047Y346358D02*
D03*
X273819D02*
D03*
X271260Y320768D02*
D03*
X273031D02*
D03*
X266437Y317717D02*
D03*
X268209D02*
D03*
X266437Y320669D02*
D03*
X268209D02*
D03*
X327461Y216732D02*
D03*
X325689D02*
D03*
X230217Y127953D02*
D03*
X228445D02*
D03*
X222342Y123031D02*
D03*
X220571D02*
D03*
X118996Y200787D02*
D03*
X120768D02*
D03*
D24*
X249508Y236417D02*
D03*
Y234646D02*
D03*
X353445Y360630D02*
D03*
Y358858D02*
D03*
X353051Y368504D02*
D03*
Y370276D02*
D03*
X179429Y265256D02*
D03*
Y263484D02*
D03*
X212795Y278445D02*
D03*
Y276673D02*
D03*
X242421Y256988D02*
D03*
Y258760D02*
D03*
X301575Y256988D02*
D03*
Y258760D02*
D03*
X298721Y256988D02*
D03*
Y258760D02*
D03*
X316142Y144980D02*
D03*
Y143209D02*
D03*
D25*
X299803Y238091D02*
D03*
Y223524D02*
D03*
X323425Y238091D02*
D03*
Y223524D02*
D03*
X153937Y286221D02*
D03*
Y271654D02*
D03*
X177559Y286221D02*
D03*
Y271654D02*
D03*
X184646Y286221D02*
D03*
Y271654D02*
D03*
X208268Y286221D02*
D03*
Y271654D02*
D03*
X254921Y238287D02*
D03*
Y223721D02*
D03*
X278543Y238287D02*
D03*
Y223721D02*
D03*
D26*
X118898Y165032D02*
D03*
Y133031D02*
D03*
D27*
X286122Y236122D02*
D03*
Y229035D02*
D03*
D28*
X266732Y368110D02*
D03*
X246063D02*
D03*
D29*
X270413Y361110D02*
D03*
X262932D02*
D03*
X242263D02*
D03*
X249743D02*
D03*
D30*
X281890Y362402D02*
D03*
Y371063D02*
D03*
D31*
X292572Y256854D02*
D03*
Y258854D02*
D03*
Y260854D02*
D03*
Y262754D02*
D03*
Y264754D02*
D03*
Y266754D02*
D03*
Y268653D02*
D03*
Y270654D02*
D03*
Y272654D02*
D03*
Y274654D02*
D03*
Y276554D02*
D03*
Y278554D02*
D03*
Y280554D02*
D03*
Y282453D02*
D03*
Y284454D02*
D03*
Y286454D02*
D03*
X248372D02*
D03*
Y284454D02*
D03*
Y282453D02*
D03*
Y280554D02*
D03*
Y278554D02*
D03*
Y276554D02*
D03*
Y274654D02*
D03*
Y272654D02*
D03*
Y270654D02*
D03*
Y268653D02*
D03*
Y266754D02*
D03*
Y264754D02*
D03*
Y262754D02*
D03*
Y260854D02*
D03*
Y258854D02*
D03*
Y256854D02*
D03*
D32*
X361094Y179528D02*
D03*
X329095D02*
D03*
X153996Y218406D02*
D03*
X185996D02*
D03*
X245532Y145374D02*
D03*
X277532D02*
D03*
X218366Y182874D02*
D03*
X250366D02*
D03*
D33*
X336319Y321063D02*
D03*
X342618D02*
D03*
X348917D02*
D03*
X336319Y340354D02*
D03*
X342618D02*
D03*
X348917D02*
D03*
X358661Y320965D02*
D03*
X364961D02*
D03*
X371260D02*
D03*
X358661Y340256D02*
D03*
X364961D02*
D03*
X371260D02*
D03*
D34*
X374114Y377362D02*
D03*
X359547D02*
D03*
X374114Y353740D02*
D03*
X359547D02*
D03*
X347736Y377658D02*
D03*
X333169D02*
D03*
X347736Y354035D02*
D03*
X333169D02*
D03*
D35*
X383731Y405512D02*
D03*
X354331D02*
D03*
D36*
X376395Y392712D02*
D03*
X371473D02*
D03*
X366552D02*
D03*
X361631D02*
D03*
D37*
X311417Y374055D02*
D03*
X313386D02*
D03*
X315354D02*
D03*
Y379488D02*
D03*
X313386D02*
D03*
X311417D02*
D03*
D38*
X320905Y133661D02*
D03*
D39*
X325905D02*
D03*
X330906D02*
D03*
X335906D02*
D03*
X320905Y154921D02*
D03*
X325905D02*
D03*
X330906D02*
D03*
X335906D02*
D03*
D40*
X294094Y128740D02*
D03*
X306594D02*
D03*
X294094Y143307D02*
D03*
X306594D02*
D03*
D41*
X173228Y191634D02*
D03*
Y131201D02*
D03*
D42*
X261240Y338386D02*
D03*
Y336417D02*
D03*
Y334449D02*
D03*
Y332480D02*
D03*
Y330512D02*
D03*
Y328543D02*
D03*
X276752D02*
D03*
Y330512D02*
D03*
Y332480D02*
D03*
Y334449D02*
D03*
Y336417D02*
D03*
Y338386D02*
D03*
D43*
X264075Y325709D02*
D03*
X266043D02*
D03*
X268012D02*
D03*
X269980D02*
D03*
X271949D02*
D03*
X273917D02*
D03*
Y341220D02*
D03*
X271949D02*
D03*
X269980D02*
D03*
X268012D02*
D03*
X266043D02*
D03*
X264075D02*
D03*
D44*
X227165Y383504D02*
D03*
Y378504D02*
D03*
Y373504D02*
D03*
Y368504D02*
D03*
Y363504D02*
D03*
Y358504D02*
D03*
Y353504D02*
D03*
Y348504D02*
D03*
Y343504D02*
D03*
Y338504D02*
D03*
Y333504D02*
D03*
Y328504D02*
D03*
Y323504D02*
D03*
Y318504D02*
D03*
X156299D02*
D03*
Y323504D02*
D03*
Y328504D02*
D03*
Y333504D02*
D03*
Y338504D02*
D03*
Y343504D02*
D03*
Y348504D02*
D03*
Y353504D02*
D03*
Y358504D02*
D03*
Y363504D02*
D03*
Y368504D02*
D03*
Y373504D02*
D03*
Y378504D02*
D03*
Y383504D02*
D03*
D45*
X214232Y312598D02*
D03*
X209232D02*
D03*
X204232D02*
D03*
X199232D02*
D03*
X194232D02*
D03*
X189232D02*
D03*
X184232D02*
D03*
X179232D02*
D03*
X174232D02*
D03*
X169232D02*
D03*
D46*
X188976Y354331D02*
D03*
D47*
X367520Y144488D02*
D03*
X345866D02*
D03*
D48*
X251181Y401575D02*
D03*
X260630D02*
D03*
X307480D02*
D03*
X316929D02*
D03*
D49*
X243307Y391929D02*
D03*
X268504D02*
D03*
X299606D02*
D03*
X324803D02*
D03*
D50*
X250787Y391043D02*
D03*
X253346D02*
D03*
X255906D02*
D03*
X258465D02*
D03*
X261024D02*
D03*
X307087D02*
D03*
X309646D02*
D03*
X312205D02*
D03*
X314764D02*
D03*
X317323D02*
D03*
D51*
X403544Y355853D02*
D03*
Y385253D02*
D03*
X403543Y137795D02*
D03*
Y167195D02*
D03*
X403544Y318898D02*
D03*
Y348298D02*
D03*
X108267D02*
D03*
Y318898D02*
D03*
Y385289D02*
D03*
Y355889D02*
D03*
X403544Y182624D02*
D03*
Y212024D02*
D03*
D52*
X390744Y363189D02*
D03*
Y368110D02*
D03*
Y373031D02*
D03*
Y377953D02*
D03*
X390743Y145132D02*
D03*
Y150053D02*
D03*
Y154974D02*
D03*
Y159895D02*
D03*
X390744Y326234D02*
D03*
Y331155D02*
D03*
Y336076D02*
D03*
Y340998D02*
D03*
X121067Y340961D02*
D03*
Y336040D02*
D03*
Y331119D02*
D03*
Y326198D02*
D03*
Y377953D02*
D03*
Y373031D02*
D03*
Y368110D02*
D03*
Y363189D02*
D03*
X390744Y189961D02*
D03*
Y194882D02*
D03*
Y199803D02*
D03*
Y204724D02*
D03*
D53*
X124016Y213090D02*
D03*
X114173D02*
D03*
X124016Y230118D02*
D03*
X114173D02*
D03*
X148819Y107087D02*
D03*
X138976D02*
D03*
X169488Y248031D02*
D03*
X159646D02*
D03*
X124508Y306299D02*
D03*
X114665D02*
D03*
X105315Y187008D02*
D03*
Y177165D02*
D03*
X397638Y235591D02*
D03*
X387795D02*
D03*
X397638Y245590D02*
D03*
X387795D02*
D03*
X397638Y255591D02*
D03*
X387795D02*
D03*
X397638Y285591D02*
D03*
X387795D02*
D03*
X397638Y295590D02*
D03*
X387795D02*
D03*
X397638Y305591D02*
D03*
X387795D02*
D03*
X124311Y246339D02*
D03*
X114469D02*
D03*
X124311Y256339D02*
D03*
X114469D02*
D03*
X124311Y266339D02*
D03*
X114469D02*
D03*
X124311Y276339D02*
D03*
X114469D02*
D03*
X124311Y286339D02*
D03*
X114469D02*
D03*
D54*
X133858Y213090D02*
D03*
Y230118D02*
D03*
X158661Y107087D02*
D03*
X179331Y248031D02*
D03*
X134350Y306299D02*
D03*
X377953Y235591D02*
D03*
Y245590D02*
D03*
Y255591D02*
D03*
Y285591D02*
D03*
Y295590D02*
D03*
Y305591D02*
D03*
X134153Y246339D02*
D03*
Y256339D02*
D03*
Y266339D02*
D03*
Y276339D02*
D03*
Y286339D02*
D03*
D55*
X337795Y291339D02*
D03*
X347638D02*
D03*
D56*
X327953D02*
D03*
D57*
X274508Y192028D02*
D03*
X304429D02*
D03*
X337402Y261260D02*
D03*
X347402D02*
D03*
X327402Y271260D02*
D03*
X337402D02*
D03*
X347402D02*
D03*
X340689Y228307D02*
D03*
X350689D02*
D03*
X340689Y218307D02*
D03*
D58*
X139370Y324055D02*
D03*
Y334055D02*
D03*
Y344055D02*
D03*
Y354055D02*
D03*
Y364055D02*
D03*
X241339Y323327D02*
D03*
Y313484D02*
D03*
D59*
X139370Y374055D02*
D03*
X241339Y333169D02*
D03*
D60*
X220472Y129410D02*
D03*
Y136142D02*
D03*
Y142874D02*
D03*
Y149606D02*
D03*
D61*
Y156339D02*
D03*
D62*
X105315Y196850D02*
D03*
D63*
X205709Y296161D02*
D03*
X195709D02*
D03*
X185709D02*
D03*
X175709D02*
D03*
X165709D02*
D03*
D64*
X155709D02*
D03*
D65*
X110236Y110236D02*
D03*
X401575D02*
D03*
Y401575D02*
D03*
X110236D02*
D03*
D66*
X302102Y110036D02*
D03*
X287402Y110236D02*
D03*
X196850D02*
D03*
X182150Y110436D02*
D03*
X372968Y110036D02*
D03*
X358268Y110236D02*
D03*
X232283D02*
D03*
X217583Y110436D02*
D03*
X337535Y110036D02*
D03*
X322835Y110236D02*
D03*
X267717D02*
D03*
X253016Y110436D02*
D03*
D67*
X242913Y401575D02*
D03*
X268898D02*
D03*
X299213D02*
D03*
X325197D02*
D03*
D68*
X327402Y261260D02*
D03*
D69*
X397638Y265591D02*
D03*
X387795D02*
D03*
X397638Y275590D02*
D03*
X387795D02*
D03*
D70*
X377953Y265591D02*
D03*
Y275590D02*
D03*
D71*
X350689Y218307D02*
D03*
D72*
X299702Y114936D02*
D03*
X297802Y113136D02*
D03*
X307302Y110036D02*
D03*
X306502Y106836D02*
D03*
X302102Y104236D02*
D03*
X304602Y105136D02*
D03*
X299202Y105236D02*
D03*
X297302Y107436D02*
D03*
X297002Y110336D02*
D03*
X302202Y115836D02*
D03*
X306702Y113036D02*
D03*
X292502Y110136D02*
D03*
X291902Y107136D02*
D03*
X289902Y105236D02*
D03*
X287302Y104336D02*
D03*
X284502Y105336D02*
D03*
X282602Y107436D02*
D03*
X282202Y110536D02*
D03*
X282902Y113436D02*
D03*
X284602Y115236D02*
D03*
X287302Y116036D02*
D03*
X290202Y115036D02*
D03*
X292002Y113136D02*
D03*
X194450Y115136D02*
D03*
X192550Y113336D02*
D03*
X202050Y110236D02*
D03*
X201250Y107036D02*
D03*
X196850Y104436D02*
D03*
X199350Y105336D02*
D03*
X193950Y105436D02*
D03*
X192050Y107636D02*
D03*
X191750Y110536D02*
D03*
X196950Y116036D02*
D03*
X201450Y113236D02*
D03*
X187250Y110336D02*
D03*
X186650Y107336D02*
D03*
X184650Y105436D02*
D03*
X182050Y104536D02*
D03*
X179250Y105536D02*
D03*
X177350Y107636D02*
D03*
X176950Y110736D02*
D03*
X177650Y113636D02*
D03*
X179350Y115436D02*
D03*
X182050Y116236D02*
D03*
X184950Y115236D02*
D03*
X186750Y113336D02*
D03*
X370568Y114936D02*
D03*
X368668Y113136D02*
D03*
X378168Y110036D02*
D03*
X377368Y106836D02*
D03*
X372968Y104236D02*
D03*
X375468Y105136D02*
D03*
X370068Y105236D02*
D03*
X368168Y107436D02*
D03*
X367868Y110336D02*
D03*
X373068Y115836D02*
D03*
X377568Y113036D02*
D03*
X363368Y110136D02*
D03*
X362768Y107136D02*
D03*
X360768Y105236D02*
D03*
X358168Y104336D02*
D03*
X355368Y105336D02*
D03*
X353468Y107436D02*
D03*
X353068Y110536D02*
D03*
X353768Y113436D02*
D03*
X355468Y115236D02*
D03*
X358168Y116036D02*
D03*
X361068Y115036D02*
D03*
X362868Y113136D02*
D03*
X229884Y115136D02*
D03*
X227983Y113336D02*
D03*
X237484Y110236D02*
D03*
X236684Y107036D02*
D03*
X232283Y104436D02*
D03*
X234784Y105336D02*
D03*
X229383Y105436D02*
D03*
X227484Y107636D02*
D03*
X227184Y110536D02*
D03*
X232383Y116036D02*
D03*
X236883Y113236D02*
D03*
X222684Y110336D02*
D03*
X222083Y107336D02*
D03*
X220083Y105436D02*
D03*
X217483Y104536D02*
D03*
X214684Y105536D02*
D03*
X212784Y107636D02*
D03*
X212384Y110736D02*
D03*
X213084Y113636D02*
D03*
X214784Y115436D02*
D03*
X217483Y116236D02*
D03*
X220384Y115236D02*
D03*
X222183Y113336D02*
D03*
X335135Y114936D02*
D03*
X333235Y113136D02*
D03*
X342735Y110036D02*
D03*
X341935Y106836D02*
D03*
X337535Y104236D02*
D03*
X340035Y105136D02*
D03*
X334635Y105236D02*
D03*
X332735Y107436D02*
D03*
X332435Y110336D02*
D03*
X337635Y115836D02*
D03*
X342135Y113036D02*
D03*
X327935Y110136D02*
D03*
X327335Y107136D02*
D03*
X325335Y105236D02*
D03*
X322735Y104336D02*
D03*
X319935Y105336D02*
D03*
X318035Y107436D02*
D03*
X317635Y110536D02*
D03*
X318335Y113436D02*
D03*
X320035Y115236D02*
D03*
X322735Y116036D02*
D03*
X325635Y115036D02*
D03*
X327435Y113136D02*
D03*
X265317Y115136D02*
D03*
X263417Y113336D02*
D03*
X272917Y110236D02*
D03*
X272116Y107036D02*
D03*
X267717Y104436D02*
D03*
X270216Y105336D02*
D03*
X264816Y105436D02*
D03*
X262916Y107636D02*
D03*
X262616Y110536D02*
D03*
X267816Y116036D02*
D03*
X272317Y113236D02*
D03*
X258117Y110336D02*
D03*
X257517Y107336D02*
D03*
X255517Y105436D02*
D03*
X252917Y104536D02*
D03*
X250116Y105536D02*
D03*
X248217Y107636D02*
D03*
X247816Y110736D02*
D03*
X248517Y113636D02*
D03*
X250217Y115436D02*
D03*
X252917Y116236D02*
D03*
X255817Y115236D02*
D03*
X257616Y113336D02*
D03*
M02*
