G04*
G04 #@! TF.GenerationSoftware,Altium Limited,Altium Designer,20.1.8 (145)*
G04*
G04 Layer_Color=32896*
%FSLAX25Y25*%
%MOIN*%
G70*
G04*
G04 #@! TF.SameCoordinates,80DC2721-EA0D-41AB-A6B1-568E3CCDEEEF*
G04*
G04*
G04 #@! TF.FilePolarity,Positive*
G04*
G01*
G75*
%ADD10C,0.01000*%
%ADD11C,0.01000*%
%ADD12C,0.00787*%
%ADD13C,0.00394*%
%ADD14C,0.00700*%
%ADD15C,0.00197*%
%ADD16C,0.00600*%
%ADD17C,0.00500*%
%ADD169R,0.15000X0.01000*%
D10*
X276812Y228767D02*
X276141Y229438D01*
X275470Y228767D01*
X276141Y228096D01*
X276812Y228767D01*
X343996Y336811D02*
X343209D01*
X343996D01*
X366831Y337205D02*
X366043D01*
X366831D01*
D11*
X276341Y228767D02*
D03*
D12*
X372854Y366211D02*
X371970Y365844D01*
X371604Y364961D01*
X371970Y364077D01*
X372854Y363711D01*
X319843Y301189D02*
X319055D01*
X319843D01*
X167150Y145984D02*
X166362D01*
X167150D01*
X101868Y345325D02*
X121068D01*
X101868Y322025D02*
Y345325D01*
Y322025D02*
X121068D01*
Y345325D01*
X372854Y358931D02*
Y363711D01*
Y366211D02*
Y371431D01*
X352854D02*
X372854D01*
X352854Y358931D02*
Y371431D01*
Y358931D02*
X372854D01*
X390744Y322021D02*
Y345321D01*
X409944D01*
Y322021D02*
Y345321D01*
X390744Y322021D02*
X409944D01*
X390744Y185761D02*
Y209061D01*
X409944D01*
Y185761D02*
Y209061D01*
X390744Y185761D02*
X409944D01*
X357331Y392712D02*
X380631D01*
X357331D02*
Y411912D01*
X380631D01*
Y392712D02*
Y411912D01*
X390744Y358989D02*
Y382289D01*
X409944D01*
Y358989D02*
Y382289D01*
X390744Y358989D02*
X409944D01*
D13*
X339026Y335138D02*
X339493Y334328D01*
X340428D01*
X340896Y335138D01*
X361860Y335531D02*
X362328Y334722D01*
X363263D01*
X363730Y335531D01*
X260741Y242167D02*
X269833D01*
X266388D02*
X275441D01*
Y230167D02*
Y242167D01*
X260741Y230167D02*
X275441D01*
X260741D02*
Y242167D01*
X362669Y340474D02*
X364869D01*
X363769Y339374D02*
Y341574D01*
X364769Y341437D02*
Y343006D01*
Y341437D02*
X376869D01*
Y349311D01*
X364769D02*
X376869D01*
X364769Y343006D02*
Y349311D01*
X374369Y341437D02*
Y349174D01*
X374069Y341537D02*
Y349274D01*
X373769Y341537D02*
Y349274D01*
X340896Y335138D02*
X343209D01*
X336910Y323917D02*
X343209D01*
Y335138D01*
X336910Y323917D02*
Y335138D01*
X339026D01*
X363730Y335531D02*
X366043D01*
X359744Y324311D02*
X366043D01*
Y335531D01*
X359744Y324311D02*
Y335531D01*
X361860D01*
X321921Y375021D02*
X324121D01*
X323021Y373921D02*
Y376121D01*
X324021Y375984D02*
Y377554D01*
Y375984D02*
X336121D01*
Y383858D01*
X324021D02*
X336121D01*
X324021Y377554D02*
Y383858D01*
X333621Y375984D02*
Y383721D01*
X333321Y376084D02*
Y383821D01*
X333021Y376084D02*
Y383821D01*
X288360Y185140D02*
Y197440D01*
X286260Y185140D02*
X288360D01*
X286260D02*
Y197440D01*
X288360D01*
X318484Y143904D02*
X333484D01*
X325984Y142524D02*
X333484D01*
Y162284D01*
X318484D02*
X333484D01*
X318484Y142524D02*
Y162284D01*
Y142524D02*
X325984D01*
X334384Y162504D02*
Y164403D01*
X333384Y163504D02*
X335284D01*
D14*
X224595Y214837D02*
Y218636D01*
X222696D01*
X222063Y218003D01*
Y216736D01*
X222696Y216103D01*
X224595D01*
X223329D02*
X222063Y214837D01*
X220163D02*
X218897D01*
X218264Y215470D01*
Y216736D01*
X218897Y217370D01*
X220163D01*
X220796Y216736D01*
Y215470D01*
X220163Y214837D01*
X216998Y218636D02*
Y214837D01*
X215098D01*
X214465Y215470D01*
Y216103D01*
Y216736D01*
X215098Y217370D01*
X216998D01*
X212566Y214837D02*
X211300D01*
X210666Y215470D01*
Y216736D01*
X211300Y217370D01*
X212566D01*
X213199Y216736D01*
Y215470D01*
X212566Y214837D01*
X208767Y218003D02*
Y217370D01*
X209400D01*
X208134D01*
X208767D01*
Y215470D01*
X208134Y214837D01*
X199903Y218003D02*
X200536Y218636D01*
X201803D01*
X202436Y218003D01*
Y215470D01*
X201803Y214837D01*
X200536D01*
X199903Y215470D01*
X198004Y214837D02*
X196738D01*
X196105Y215470D01*
Y216736D01*
X196738Y217370D01*
X198004D01*
X198637Y216736D01*
Y215470D01*
X198004Y214837D01*
X194838D02*
Y217370D01*
X192939D01*
X192306Y216736D01*
Y214837D01*
X190406Y218003D02*
Y217370D01*
X191040D01*
X189773D01*
X190406D01*
Y215470D01*
X189773Y214837D01*
X187874Y217370D02*
Y214837D01*
Y216103D01*
X187241Y216736D01*
X186608Y217370D01*
X185975D01*
X183442Y214837D02*
X182176D01*
X181543Y215470D01*
Y216736D01*
X182176Y217370D01*
X183442D01*
X184075Y216736D01*
Y215470D01*
X183442Y214837D01*
X180276D02*
X179010D01*
X179643D01*
Y218636D01*
X180276D01*
X177111Y214837D02*
X175844D01*
X176478D01*
Y218636D01*
X177111D01*
X172046Y214837D02*
X173312D01*
X173945Y215470D01*
Y216736D01*
X173312Y217370D01*
X172046D01*
X171413Y216736D01*
Y216103D01*
X173945D01*
X170146Y217370D02*
Y214837D01*
Y216103D01*
X169513Y216736D01*
X168880Y217370D01*
X168247D01*
X162549Y214837D02*
Y218636D01*
X160649D01*
X160016Y218003D01*
Y216736D01*
X160649Y216103D01*
X162549D01*
X161282D02*
X160016Y214837D01*
X156217D02*
X158750D01*
X156217Y217370D01*
Y218003D01*
X156851Y218636D01*
X158117D01*
X158750Y218003D01*
X224595Y212397D02*
X223329D01*
X223962D01*
Y208598D01*
X224595D01*
X223329D01*
X221430D02*
X219530D01*
X218897Y209232D01*
X219530Y209865D01*
X220796D01*
X221430Y210498D01*
X220796Y211131D01*
X218897D01*
X216998D02*
X215732D01*
X215098Y210498D01*
Y208598D01*
X216998D01*
X217631Y209232D01*
X216998Y209865D01*
X215098D01*
X213199Y211131D02*
X211933D01*
X211300Y210498D01*
Y208598D01*
X213199D01*
X213832Y209232D01*
X213199Y209865D01*
X211300D01*
X207501Y211131D02*
X209400D01*
X210033Y210498D01*
Y209232D01*
X209400Y208598D01*
X207501D01*
X202436Y212397D02*
Y208598D01*
X201169Y209865D01*
X199903Y208598D01*
Y212397D01*
X198637Y208598D02*
Y209232D01*
X198004D01*
Y208598D01*
X198637D01*
X224595Y202360D02*
Y206159D01*
X223329Y204892D01*
X222063Y206159D01*
Y202360D01*
X220163Y204892D02*
X218897D01*
X218264Y204259D01*
Y202360D01*
X220163D01*
X220796Y202993D01*
X220163Y203626D01*
X218264D01*
X216998Y204892D02*
Y202993D01*
X216365Y202360D01*
X214465D01*
Y201727D01*
X215098Y201094D01*
X215732D01*
X214465Y202360D02*
Y204892D01*
X206868Y202360D02*
X209400D01*
X206868Y204892D01*
Y205526D01*
X207501Y206159D01*
X208767D01*
X209400Y205526D01*
X205601D02*
X204968Y206159D01*
X203702D01*
X203069Y205526D01*
Y202993D01*
X203702Y202360D01*
X204968D01*
X205601Y202993D01*
Y205526D01*
X199270Y202360D02*
X201803D01*
X199270Y204892D01*
Y205526D01*
X199903Y206159D01*
X201169D01*
X201803Y205526D01*
X198004D02*
X197371Y206159D01*
X196105D01*
X195471Y205526D01*
Y202993D01*
X196105Y202360D01*
X197371D01*
X198004Y202993D01*
Y205526D01*
D15*
X354698Y347232D02*
X358098D01*
Y348832D01*
X354698D02*
X358098D01*
X354698Y347232D02*
Y348832D01*
X271272Y370150D02*
Y373550D01*
X269672D02*
X271272D01*
X269672Y370150D02*
Y373550D01*
Y370150D02*
X271272D01*
X274127D02*
Y373550D01*
X272527D02*
X274127D01*
X272527Y370150D02*
Y373550D01*
Y370150D02*
X274127D01*
X164850Y379698D02*
Y383098D01*
Y379698D02*
X166450D01*
Y383098D01*
X164850D02*
X166450D01*
X161798Y379698D02*
Y383098D01*
Y379698D02*
X163398D01*
Y383098D01*
X161798D02*
X163398D01*
X284028Y260322D02*
X287428D01*
Y261922D01*
X284028D02*
X287428D01*
X284028Y260322D02*
Y261922D01*
X276745Y254515D02*
X280145D01*
Y256115D01*
X276745D02*
X280145D01*
X276745Y254515D02*
Y256115D01*
X254993Y255032D02*
X258393D01*
X254993Y253432D02*
Y255032D01*
Y253432D02*
X258393D01*
Y255032D01*
X282985Y235111D02*
Y238511D01*
X281385D02*
X282985D01*
X281385Y235111D02*
Y238511D01*
Y235111D02*
X282985D01*
X280131D02*
Y238511D01*
X278531D02*
X280131D01*
X278531Y235111D02*
Y238511D01*
Y235111D02*
X280131D01*
X286883Y295584D02*
X290283D01*
X286883Y293984D02*
Y295584D01*
Y293984D02*
X290283D01*
Y295584D01*
X288694Y283733D02*
Y287133D01*
X287094D02*
X288694D01*
X287094Y283733D02*
Y287133D01*
Y283733D02*
X288694D01*
X251956Y259619D02*
Y263019D01*
Y259619D02*
X253556D01*
Y263019D01*
X251956D02*
X253556D01*
D16*
X130177Y322352D02*
X126978D01*
Y323952D01*
X127511Y324485D01*
X128044D01*
X128577Y323952D01*
Y322352D01*
Y323952D01*
X129111Y324485D01*
X129644D01*
X130177Y323952D01*
Y322352D01*
Y325551D02*
X126978D01*
Y327684D01*
Y331949D02*
X130177D01*
X129111Y333015D01*
X130177Y334082D01*
X126978D01*
Y335681D02*
Y336747D01*
X127511Y337281D01*
X128577D01*
X129111Y336747D01*
Y335681D01*
X128577Y335148D01*
X127511D01*
X126978Y335681D01*
X129644Y338880D02*
X129111D01*
Y338347D01*
Y339413D01*
Y338880D01*
X127511D01*
X126978Y339413D01*
Y341546D02*
Y342612D01*
X127511Y343145D01*
X128577D01*
X129111Y342612D01*
Y341546D01*
X128577Y341013D01*
X127511D01*
X126978Y341546D01*
X129111Y344212D02*
X126978D01*
X128044D01*
X128577Y344745D01*
X129111Y345278D01*
Y345811D01*
X382561Y335850D02*
X382028Y336383D01*
Y337450D01*
X382561Y337983D01*
X383094D01*
X383627Y337450D01*
Y336383D01*
X384160Y335850D01*
X384694D01*
X385227Y336383D01*
Y337450D01*
X384694Y337983D01*
X382028Y334784D02*
X385227D01*
Y333184D01*
X384694Y332651D01*
X382561D01*
X382028Y333184D01*
Y334784D01*
Y331585D02*
X385227D01*
X384160Y330518D01*
X385227Y329452D01*
X382028D01*
X382421Y200483D02*
Y199416D01*
Y199950D01*
X385620D01*
Y200483D01*
Y199416D01*
Y195684D02*
Y197817D01*
X383488Y195684D01*
X382955D01*
X382421Y196217D01*
Y197284D01*
X382955Y197817D01*
Y192485D02*
X382421Y193018D01*
Y194085D01*
X382955Y194618D01*
X385087D01*
X385620Y194085D01*
Y193018D01*
X385087Y192485D01*
X382758Y378468D02*
X382225Y379001D01*
Y380068D01*
X382758Y380601D01*
X384891D01*
X385424Y380068D01*
Y379001D01*
X384891Y378468D01*
X385424Y377402D02*
X383291D01*
X382225Y376336D01*
X383291Y375269D01*
X385424D01*
X383824D01*
Y377402D01*
X385424Y374203D02*
X382225D01*
X385424Y372070D01*
X382225D01*
Y367805D02*
X385424D01*
Y366205D01*
X384891Y365672D01*
X384357D01*
X383824Y366205D01*
Y367805D01*
Y366205D01*
X383291Y365672D01*
X382758D01*
X382225Y366205D01*
Y367805D01*
X383291Y364606D02*
X384891D01*
X385424Y364073D01*
Y362473D01*
X383291D01*
X385424Y361407D02*
Y359807D01*
X384891Y359274D01*
X384357Y359807D01*
Y360874D01*
X383824Y361407D01*
X383291Y360874D01*
Y359274D01*
X377399Y386216D02*
X377932Y386749D01*
X378999D01*
X379532Y386216D01*
Y384083D01*
X378999Y383550D01*
X377932D01*
X377399Y384083D01*
X376333Y383550D02*
Y385683D01*
X375266Y386749D01*
X374200Y385683D01*
Y383550D01*
Y385150D01*
X376333D01*
X373134Y383550D02*
Y386749D01*
X371001Y383550D01*
Y386749D01*
X366736D02*
Y383550D01*
X365136D01*
X364603Y384083D01*
Y384617D01*
X365136Y385150D01*
X366736D01*
X365136D01*
X364603Y385683D01*
Y386216D01*
X365136Y386749D01*
X366736D01*
X363537Y385683D02*
Y384083D01*
X363004Y383550D01*
X361404D01*
Y385683D01*
X360338Y383550D02*
X358738D01*
X358205Y384083D01*
X358738Y384617D01*
X359805D01*
X360338Y385150D01*
X359805Y385683D01*
X358205D01*
X128535Y177534D02*
Y180733D01*
X126936D01*
X126403Y180200D01*
Y179134D01*
X126936Y178601D01*
X128535D01*
X127469D02*
X126403Y177534D01*
X123204D02*
X125336D01*
X123204Y179667D01*
Y180200D01*
X123737Y180733D01*
X124803D01*
X125336Y180200D01*
X122137Y177534D02*
X121071D01*
X121604D01*
Y180733D01*
X122137Y180200D01*
X216175Y375960D02*
Y379159D01*
X214575D01*
X214042Y378625D01*
Y377559D01*
X214575Y377026D01*
X216175D01*
X215108D02*
X214042Y375960D01*
X210843D02*
X212976D01*
X210843Y378092D01*
Y378625D01*
X211376Y379159D01*
X212443D01*
X212976Y378625D01*
X207644Y379159D02*
X208711Y378625D01*
X209777Y377559D01*
Y376493D01*
X209244Y375960D01*
X208177D01*
X207644Y376493D01*
Y377026D01*
X208177Y377559D01*
X209777D01*
X216175Y380389D02*
Y383588D01*
X214575D01*
X214042Y383054D01*
Y381988D01*
X214575Y381455D01*
X216175D01*
X215108D02*
X214042Y380389D01*
X210843D02*
X212976D01*
X210843Y382521D01*
Y383054D01*
X211376Y383588D01*
X212443D01*
X212976Y383054D01*
X207644Y383588D02*
X209777D01*
Y381988D01*
X208711Y382521D01*
X208177D01*
X207644Y381988D01*
Y380922D01*
X208177Y380389D01*
X209244D01*
X209777Y380922D01*
X259711Y234080D02*
X257579Y230881D01*
Y234080D02*
X259711Y230881D01*
X256512D02*
X255446D01*
X255979D01*
Y234080D01*
X256512Y233547D01*
X324100Y340999D02*
Y338333D01*
X323567Y337800D01*
X322500D01*
X321967Y338333D01*
Y340999D01*
X320901Y337800D02*
X319835D01*
X320368D01*
Y340999D01*
X320901Y340466D01*
X318235Y337800D02*
X317169D01*
X317702D01*
Y340999D01*
X318235Y340466D01*
X270185Y352289D02*
Y349623D01*
X269652Y349090D01*
X268586D01*
X268053Y349623D01*
Y352289D01*
X264854D02*
X265920Y351755D01*
X266986Y350689D01*
Y349623D01*
X266453Y349090D01*
X265387D01*
X264854Y349623D01*
Y350156D01*
X265387Y350689D01*
X266986D01*
X342331Y323056D02*
Y320390D01*
X341798Y319857D01*
X340732D01*
X340198Y320390D01*
Y323056D01*
X337533Y319857D02*
Y323056D01*
X339132Y321457D01*
X337000D01*
X365363Y323253D02*
Y320587D01*
X364829Y320054D01*
X363763D01*
X363230Y320587D01*
Y323253D01*
X362164Y322720D02*
X361631Y323253D01*
X360564D01*
X360031Y322720D01*
Y322187D01*
X360564Y321654D01*
X361097D01*
X360564D01*
X360031Y321120D01*
Y320587D01*
X360564Y320054D01*
X361631D01*
X362164Y320587D01*
X377822Y356816D02*
Y354150D01*
X377289Y353617D01*
X376222D01*
X375689Y354150D01*
Y356816D01*
X374623Y353617D02*
X373556D01*
X374090D01*
Y356816D01*
X374623Y356283D01*
X255742Y211097D02*
Y214296D01*
X254142D01*
X253609Y213763D01*
Y212697D01*
X254142Y212164D01*
X255742D01*
X254675D02*
X253609Y211097D01*
X250410D02*
X252543D01*
X250410Y213230D01*
Y213763D01*
X250943Y214296D01*
X252010D01*
X252543Y213763D01*
X247744Y211097D02*
Y214296D01*
X249344Y212697D01*
X247211D01*
X255742Y206767D02*
Y209966D01*
X254142D01*
X253609Y209433D01*
Y208366D01*
X254142Y207833D01*
X255742D01*
X254675D02*
X253609Y206767D01*
X250410D02*
X252543D01*
X250410Y208899D01*
Y209433D01*
X250943Y209966D01*
X252010D01*
X252543Y209433D01*
X249344D02*
X248811Y209966D01*
X247744D01*
X247211Y209433D01*
Y208899D01*
X247744Y208366D01*
X248277D01*
X247744D01*
X247211Y207833D01*
Y207300D01*
X247744Y206767D01*
X248811D01*
X249344Y207300D01*
X291667Y216806D02*
Y220005D01*
X290067D01*
X289534Y219472D01*
Y218406D01*
X290067Y217872D01*
X291667D01*
X290600D02*
X289534Y216806D01*
X286335D02*
X288468D01*
X286335Y218939D01*
Y219472D01*
X286868Y220005D01*
X287935D01*
X288468Y219472D01*
X283136Y216806D02*
X285269D01*
X283136Y218939D01*
Y219472D01*
X283669Y220005D01*
X284736D01*
X285269Y219472D01*
X129069Y182456D02*
Y185655D01*
X127469D01*
X126936Y185121D01*
Y184055D01*
X127469Y183522D01*
X129069D01*
X128002D02*
X126936Y182456D01*
X123737D02*
X125870D01*
X123737Y184588D01*
Y185121D01*
X124270Y185655D01*
X125336D01*
X125870Y185121D01*
X122670D02*
X122137Y185655D01*
X121071D01*
X120538Y185121D01*
Y182989D01*
X121071Y182456D01*
X122137D01*
X122670Y182989D01*
Y185121D01*
X351440Y182554D02*
Y185753D01*
X349840D01*
X349307Y185220D01*
Y184153D01*
X349840Y183620D01*
X351440D01*
X350373D02*
X349307Y182554D01*
X348241D02*
X347174D01*
X347708D01*
Y185753D01*
X348241Y185220D01*
X345575Y183087D02*
X345042Y182554D01*
X343975D01*
X343442Y183087D01*
Y185220D01*
X343975Y185753D01*
X345042D01*
X345575Y185220D01*
Y184687D01*
X345042Y184153D01*
X343442D01*
X351243Y186983D02*
Y190182D01*
X349643D01*
X349110Y189649D01*
Y188583D01*
X349643Y188049D01*
X351243D01*
X350177D02*
X349110Y186983D01*
X348044D02*
X346977D01*
X347511D01*
Y190182D01*
X348044Y189649D01*
X345378D02*
X344845Y190182D01*
X343778D01*
X343245Y189649D01*
Y189116D01*
X343778Y188583D01*
X343245Y188049D01*
Y187516D01*
X343778Y186983D01*
X344845D01*
X345378Y187516D01*
Y188049D01*
X344845Y188583D01*
X345378Y189116D01*
Y189649D01*
X344845Y188583D02*
X343778D01*
X321912Y357652D02*
Y360852D01*
X320313D01*
X319779Y360318D01*
Y359252D01*
X320313Y358719D01*
X321912D01*
X320846D02*
X319779Y357652D01*
X318713D02*
X317647D01*
X318180D01*
Y360852D01*
X318713Y360318D01*
X313915Y360852D02*
X316047D01*
Y359252D01*
X314981Y359785D01*
X314448D01*
X313915Y359252D01*
Y358186D01*
X314448Y357652D01*
X315514D01*
X316047Y358186D01*
X310790Y236393D02*
Y239592D01*
X309191D01*
X308657Y239058D01*
Y237992D01*
X309191Y237459D01*
X310790D01*
X309724D02*
X308657Y236393D01*
X307591D02*
X306525D01*
X307058D01*
Y239592D01*
X307591Y239058D01*
X303326Y236393D02*
Y239592D01*
X304925Y237992D01*
X302793D01*
X322010Y365920D02*
Y369119D01*
X320411D01*
X319878Y368586D01*
Y367520D01*
X320411Y366986D01*
X322010D01*
X320944D02*
X319878Y365920D01*
X318811D02*
X317745D01*
X318278D01*
Y369119D01*
X318811Y368586D01*
X316146D02*
X315613Y369119D01*
X314546D01*
X314013Y368586D01*
Y368053D01*
X314546Y367520D01*
X315079D01*
X314546D01*
X314013Y366986D01*
Y366453D01*
X314546Y365920D01*
X315613D01*
X316146Y366453D01*
X264900Y292000D02*
Y295199D01*
X263300D01*
X262767Y294666D01*
Y293600D01*
X263300Y293066D01*
X264900D01*
X263834D02*
X262767Y292000D01*
X261701D02*
X260635D01*
X261168D01*
Y295199D01*
X261701Y294666D01*
X256903Y292000D02*
X259035D01*
X256903Y294133D01*
Y294666D01*
X257436Y295199D01*
X258502D01*
X259035Y294666D01*
X198433Y284030D02*
Y287229D01*
X196834D01*
X196301Y286696D01*
Y285630D01*
X196834Y285097D01*
X198433D01*
X197367D02*
X196301Y284030D01*
X195235Y286696D02*
X194701Y287229D01*
X193635D01*
X193102Y286696D01*
Y286163D01*
X193635Y285630D01*
X193102Y285097D01*
Y284564D01*
X193635Y284030D01*
X194701D01*
X195235Y284564D01*
Y285097D01*
X194701Y285630D01*
X195235Y286163D01*
Y286696D01*
X194701Y285630D02*
X193635D01*
X163689Y283932D02*
Y287131D01*
X162090D01*
X161557Y286598D01*
Y285531D01*
X162090Y284998D01*
X163689D01*
X162623D02*
X161557Y283932D01*
X158891D02*
Y287131D01*
X160491Y285531D01*
X158358D01*
X285200Y376800D02*
Y379999D01*
X283600D01*
X283067Y379466D01*
Y378399D01*
X283600Y377866D01*
X285200D01*
X284134D02*
X283067Y376800D01*
X282001Y379466D02*
X281468Y379999D01*
X280401D01*
X279868Y379466D01*
Y378933D01*
X280401Y378399D01*
X280935D01*
X280401D01*
X279868Y377866D01*
Y377333D01*
X280401Y376800D01*
X281468D01*
X282001Y377333D01*
X349024Y391609D02*
Y394808D01*
X347425D01*
X346891Y394275D01*
Y393209D01*
X347425Y392675D01*
X349024D01*
X347958D02*
X346891Y391609D01*
X343692D02*
X345825D01*
X343692Y393742D01*
Y394275D01*
X344226Y394808D01*
X345292D01*
X345825Y394275D01*
X348688Y373597D02*
Y376796D01*
X347088D01*
X346555Y376263D01*
Y375197D01*
X347088Y374664D01*
X348688D01*
X347621D02*
X346555Y373597D01*
X345489D02*
X344423D01*
X344956D01*
Y376796D01*
X345489Y376263D01*
X282423Y196473D02*
Y198606D01*
X282956Y199139D01*
X284022D01*
X284556Y198606D01*
Y196473D01*
X284022Y195940D01*
X282956D01*
X283489Y197006D02*
X282423Y195940D01*
X282956D02*
X282423Y196473D01*
X281357Y198606D02*
X280823Y199139D01*
X279757D01*
X279224Y198606D01*
Y198073D01*
X279757Y197539D01*
X280290D01*
X279757D01*
X279224Y197006D01*
Y196473D01*
X279757Y195940D01*
X280823D01*
X281357Y196473D01*
X323926Y168233D02*
Y165034D01*
X322326D01*
X321793Y165568D01*
Y167700D01*
X322326Y168233D01*
X323926D01*
X318594D02*
X320727D01*
Y166634D01*
X319660Y167167D01*
X319127D01*
X318594Y166634D01*
Y165568D01*
X319127Y165034D01*
X320194D01*
X320727Y165568D01*
X197400Y164199D02*
Y161000D01*
X195800D01*
X195267Y161533D01*
Y163666D01*
X195800Y164199D01*
X197400D01*
X192602Y161000D02*
Y164199D01*
X194201Y162600D01*
X192068D01*
X321268Y381521D02*
Y378322D01*
X319669D01*
X319135Y378855D01*
Y380988D01*
X319669Y381521D01*
X321268D01*
X318069Y380988D02*
X317536Y381521D01*
X316470D01*
X315936Y380988D01*
Y380454D01*
X316470Y379921D01*
X317003D01*
X316470D01*
X315936Y379388D01*
Y378855D01*
X316470Y378322D01*
X317536D01*
X318069Y378855D01*
X372408Y353765D02*
Y350566D01*
X370809D01*
X370276Y351099D01*
Y353232D01*
X370809Y353765D01*
X372408D01*
X369209Y350566D02*
X368143D01*
X368676D01*
Y353765D01*
X369209Y353232D01*
X290322Y238074D02*
X290855Y238607D01*
X291921D01*
X292454Y238074D01*
Y235942D01*
X291921Y235408D01*
X290855D01*
X290322Y235942D01*
X287123Y235408D02*
X289255D01*
X287123Y237541D01*
Y238074D01*
X287656Y238607D01*
X288722D01*
X289255Y238074D01*
X283924Y235408D02*
X286056D01*
X283924Y237541D01*
Y238074D01*
X284457Y238607D01*
X285523D01*
X286056Y238074D01*
X254257Y266519D02*
X254790Y267052D01*
X255856D01*
X256390Y266519D01*
Y264386D01*
X255856Y263853D01*
X254790D01*
X254257Y264386D01*
X251058Y263853D02*
X253191D01*
X251058Y265986D01*
Y266519D01*
X251591Y267052D01*
X252658D01*
X253191Y266519D01*
X249992Y263853D02*
X248925D01*
X249459D01*
Y267052D01*
X249992Y266519D01*
X286581Y266027D02*
X287115Y266560D01*
X288181D01*
X288714Y266027D01*
Y263894D01*
X288181Y263361D01*
X287115D01*
X286581Y263894D01*
X283383Y263361D02*
X285515D01*
X283383Y265494D01*
Y266027D01*
X283916Y266560D01*
X284982D01*
X285515Y266027D01*
X282316D02*
X281783Y266560D01*
X280717D01*
X280184Y266027D01*
Y263894D01*
X280717Y263361D01*
X281783D01*
X282316Y263894D01*
Y266027D01*
X280508Y259925D02*
X281041Y260458D01*
X282107D01*
X282640Y259925D01*
Y257792D01*
X282107Y257259D01*
X281041D01*
X280508Y257792D01*
X279441Y257259D02*
X278375D01*
X278908D01*
Y260458D01*
X279441Y259925D01*
X276776D02*
X276242Y260458D01*
X275176D01*
X274643Y259925D01*
Y259391D01*
X275176Y258858D01*
X274643Y258325D01*
Y257792D01*
X275176Y257259D01*
X276242D01*
X276776Y257792D01*
Y258325D01*
X276242Y258858D01*
X276776Y259391D01*
Y259925D01*
X276242Y258858D02*
X275176D01*
X260232Y258744D02*
X260765Y259277D01*
X261832D01*
X262365Y258744D01*
Y256611D01*
X261832Y256078D01*
X260765D01*
X260232Y256611D01*
X259166Y256078D02*
X258100D01*
X258633D01*
Y259277D01*
X259166Y258744D01*
X256500Y259277D02*
X254367D01*
Y258744D01*
X256500Y256611D01*
Y256078D01*
X282279Y233448D02*
X282813Y233981D01*
X283879D01*
X284412Y233448D01*
Y231316D01*
X283879Y230782D01*
X282813D01*
X282279Y231316D01*
X281213Y230782D02*
X280147D01*
X280680D01*
Y233981D01*
X281213Y233448D01*
X276948Y230782D02*
Y233981D01*
X278547Y232382D01*
X276415D01*
X290350Y299098D02*
X290883Y299631D01*
X291950D01*
X292483Y299098D01*
Y296965D01*
X291950Y296432D01*
X290883D01*
X290350Y296965D01*
X289284Y296432D02*
X288218D01*
X288751D01*
Y299631D01*
X289284Y299098D01*
X286618D02*
X286085Y299631D01*
X285019D01*
X284486Y299098D01*
Y298565D01*
X285019Y298031D01*
X285552D01*
X285019D01*
X284486Y297498D01*
Y296965D01*
X285019Y296432D01*
X286085D01*
X286618Y296965D01*
X289563Y291421D02*
X290096Y291954D01*
X291162D01*
X291696Y291421D01*
Y289288D01*
X291162Y288755D01*
X290096D01*
X289563Y289288D01*
X288497Y288755D02*
X287430D01*
X287963D01*
Y291954D01*
X288497Y291421D01*
X283698Y288755D02*
X285831D01*
X283698Y290887D01*
Y291421D01*
X284231Y291954D01*
X285298D01*
X285831Y291421D01*
X275632Y377051D02*
X276165Y377584D01*
X277231D01*
X277764Y377051D01*
Y374918D01*
X277231Y374385D01*
X276165D01*
X275632Y374918D01*
X274565D02*
X274032Y374385D01*
X272966D01*
X272433Y374918D01*
Y377051D01*
X272966Y377584D01*
X274032D01*
X274565Y377051D01*
Y376517D01*
X274032Y375984D01*
X272433D01*
X268840Y377149D02*
X269373Y377682D01*
X270440D01*
X270973Y377149D01*
Y375016D01*
X270440Y374483D01*
X269373D01*
X268840Y375016D01*
X267774Y377149D02*
X267241Y377682D01*
X266174D01*
X265641Y377149D01*
Y376616D01*
X266174Y376083D01*
X265641Y375550D01*
Y375016D01*
X266174Y374483D01*
X267241D01*
X267774Y375016D01*
Y375550D01*
X267241Y376083D01*
X267774Y376616D01*
Y377149D01*
X267241Y376083D02*
X266174D01*
X160277Y377936D02*
X160810Y378470D01*
X161877D01*
X162410Y377936D01*
Y375804D01*
X161877Y375271D01*
X160810D01*
X160277Y375804D01*
X159211Y378470D02*
X157078D01*
Y377936D01*
X159211Y375804D01*
Y375271D01*
X167954Y377740D02*
X168488Y378273D01*
X169554D01*
X170087Y377740D01*
Y375607D01*
X169554Y375074D01*
X168488D01*
X167954Y375607D01*
X164755Y378273D02*
X165822Y377740D01*
X166888Y376673D01*
Y375607D01*
X166355Y375074D01*
X165289D01*
X164755Y375607D01*
Y376140D01*
X165289Y376673D01*
X166888D01*
X356299Y345751D02*
X356832Y346285D01*
X357899D01*
X358432Y345751D01*
Y343619D01*
X357899Y343086D01*
X356832D01*
X356299Y343619D01*
X355233Y343086D02*
X354167D01*
X354700D01*
Y346285D01*
X355233Y345751D01*
D17*
X248031Y375000D02*
X247539Y375852D01*
X246555D01*
X246063Y375000D01*
X246555Y374148D01*
X247539D01*
X248031Y375000D01*
X317362Y325728D02*
X323661D01*
X297205D02*
X303071D01*
X297205Y311083D02*
X298189D01*
X322638D02*
X323661D01*
X297205D02*
Y325728D01*
X323661Y311083D02*
Y325728D01*
X262795Y353346D02*
X265748D01*
Y356299D01*
Y370079D02*
Y373031D01*
X262795D02*
X265748D01*
X246063Y353346D02*
X249016D01*
X246063D02*
Y356299D01*
X247455Y373031D02*
X249016D01*
X246063Y371640D02*
X247455Y373031D01*
X246063Y370079D02*
Y371640D01*
X172327Y141713D02*
X193468D01*
X172327Y157343D02*
X193468D01*
D169*
X325984Y144404D02*
D03*
M02*
