G04*
G04 #@! TF.GenerationSoftware,Altium Limited,Altium Designer,20.1.8 (145)*
G04*
G04 Layer_Physical_Order=3*
G04 Layer_Color=16440176*
%FSLAX25Y25*%
%MOIN*%
G70*
G04*
G04 #@! TF.SameCoordinates,80DC2721-EA0D-41AB-A6B1-568E3CCDEEEF*
G04*
G04*
G04 #@! TF.FilePolarity,Positive*
G04*
G01*
G75*
%ADD18C,0.00800*%
%ADD115C,0.07874*%
%ADD119C,0.05906*%
%ADD120O,0.07874X0.05906*%
%ADD123R,0.06142X0.04528*%
%ADD127C,0.13780*%
%ADD128O,0.11811X0.13780*%
%ADD129O,0.03543X0.07087*%
%ADD131O,0.07874X0.06000*%
%ADD134C,0.01772*%
%ADD136C,0.01087*%
G36*
X403727Y412395D02*
X405121Y412021D01*
X406454Y411469D01*
X407704Y410747D01*
X408849Y409869D01*
X409869Y408849D01*
X410747Y407704D01*
X411469Y406454D01*
X412021Y405121D01*
X412395Y403727D01*
X412583Y402296D01*
X412583Y401575D01*
X412583Y110236D01*
Y109515D01*
X412395Y108084D01*
X412021Y106690D01*
X411469Y105357D01*
X410747Y104107D01*
X409869Y102962D01*
X408849Y101942D01*
X407704Y101064D01*
X406454Y100342D01*
X405121Y99790D01*
X403727Y99416D01*
X402296Y99228D01*
X109515D01*
X108084Y99416D01*
X106690Y99790D01*
X105357Y100342D01*
X104107Y101064D01*
X102962Y101942D01*
X101942Y102962D01*
X101064Y104107D01*
X100342Y105357D01*
X99790Y106690D01*
X99416Y108084D01*
X99228Y109515D01*
Y110236D01*
X99228Y401575D01*
X99228Y402296D01*
X99416Y403727D01*
X99790Y405121D01*
X100342Y406454D01*
X101064Y407704D01*
X101942Y408849D01*
X102962Y409869D01*
X104107Y410747D01*
X105357Y411469D01*
X106690Y412021D01*
X108084Y412395D01*
X109515Y412583D01*
X155395D01*
Y386539D01*
X155456Y386232D01*
X155630Y385971D01*
X155633Y385969D01*
X155635Y385966D01*
X155665Y385946D01*
X155685Y385916D01*
X155946Y385742D01*
X156253Y385681D01*
X227165D01*
X227473Y385742D01*
X227733Y385916D01*
X227907Y386176D01*
X227968Y386483D01*
Y412583D01*
X402296D01*
X403727Y412395D01*
D02*
G37*
%LPC*%
G36*
X370177Y405643D02*
X369524Y405513D01*
X368971Y405143D01*
X368601Y404590D01*
X368471Y403937D01*
X368601Y403284D01*
X368971Y402731D01*
X369524Y402361D01*
X370177Y402231D01*
X370830Y402361D01*
X371384Y402731D01*
X371753Y403284D01*
X371883Y403937D01*
X371753Y404590D01*
X371384Y405143D01*
X370830Y405513D01*
X370177Y405643D01*
D02*
G37*
G36*
X368898Y401017D02*
X368245Y400887D01*
X367691Y400517D01*
X367321Y399964D01*
X367192Y399311D01*
X367321Y398658D01*
X367691Y398105D01*
X368245Y397735D01*
X368898Y397605D01*
X369550Y397735D01*
X370104Y398105D01*
X370474Y398658D01*
X370604Y399311D01*
X370474Y399964D01*
X370104Y400517D01*
X369550Y400887D01*
X368898Y401017D01*
D02*
G37*
G36*
X360728Y385171D02*
X360075Y385041D01*
X359522Y384671D01*
X359152Y384117D01*
X359022Y383465D01*
X359152Y382812D01*
X359522Y382258D01*
X360075Y381888D01*
X360728Y381759D01*
X361381Y381888D01*
X361935Y382258D01*
X362304Y382812D01*
X362434Y383465D01*
X362304Y384117D01*
X361935Y384671D01*
X361381Y385041D01*
X360728Y385171D01*
D02*
G37*
G36*
X368996Y384974D02*
X368343Y384844D01*
X367790Y384474D01*
X367420Y383921D01*
X367290Y383268D01*
X367420Y382615D01*
X367790Y382061D01*
X368343Y381692D01*
X368996Y381562D01*
X369649Y381692D01*
X370202Y382061D01*
X370572Y382615D01*
X370702Y383268D01*
X370572Y383921D01*
X370202Y384474D01*
X369649Y384844D01*
X368996Y384974D01*
D02*
G37*
G36*
X382185Y384088D02*
X381532Y383958D01*
X380979Y383588D01*
X380609Y383035D01*
X380479Y382382D01*
X380609Y381729D01*
X380979Y381176D01*
X381532Y380806D01*
X382185Y380676D01*
X382838Y380806D01*
X383391Y381176D01*
X383761Y381729D01*
X383891Y382382D01*
X383761Y383035D01*
X383391Y383588D01*
X382838Y383958D01*
X382185Y384088D01*
D02*
G37*
G36*
X313386Y383891D02*
X312733Y383761D01*
X312179Y383391D01*
X311810Y382838D01*
X311680Y382185D01*
X311810Y381532D01*
X312179Y380979D01*
X312733Y380609D01*
X313386Y380479D01*
X314039Y380609D01*
X314592Y380979D01*
X314962Y381532D01*
X315092Y382185D01*
X314962Y382838D01*
X314592Y383391D01*
X314039Y383761D01*
X313386Y383891D01*
D02*
G37*
G36*
X320472Y383793D02*
X319820Y383663D01*
X319266Y383293D01*
X318896Y382739D01*
X318766Y382087D01*
X318896Y381434D01*
X319266Y380880D01*
X319820Y380510D01*
X320472Y380381D01*
X321125Y380510D01*
X321679Y380880D01*
X322049Y381434D01*
X322178Y382087D01*
X322049Y382739D01*
X321679Y383293D01*
X321125Y383663D01*
X320472Y383793D01*
D02*
G37*
G36*
X255999Y383596D02*
X255346Y383466D01*
X254793Y383096D01*
X254423Y382543D01*
X254293Y381890D01*
X254423Y381237D01*
X254793Y380683D01*
X255346Y380314D01*
X255999Y380184D01*
X256652Y380314D01*
X257162Y380654D01*
X257164Y380650D01*
X257718Y380280D01*
X258371Y380151D01*
X259023Y380280D01*
X259577Y380650D01*
X259947Y381204D01*
X260077Y381857D01*
X259947Y382509D01*
X259577Y383063D01*
X259023Y383433D01*
X258371Y383563D01*
X257718Y383433D01*
X257208Y383092D01*
X257206Y383096D01*
X256652Y383466D01*
X255999Y383596D01*
D02*
G37*
G36*
X337598Y381529D02*
X336946Y381399D01*
X336392Y381029D01*
X336022Y380476D01*
X335892Y379823D01*
X336022Y379170D01*
X336392Y378616D01*
X336946Y378247D01*
X337598Y378117D01*
X338251Y378247D01*
X338805Y378616D01*
X339175Y379170D01*
X339304Y379823D01*
X339175Y380476D01*
X338805Y381029D01*
X338251Y381399D01*
X337598Y381529D01*
D02*
G37*
G36*
X241339Y380840D02*
X240686Y380710D01*
X240132Y380340D01*
X239762Y379787D01*
X239633Y379134D01*
X239762Y378481D01*
X240132Y377927D01*
X240686Y377558D01*
X241339Y377428D01*
X241991Y377558D01*
X242545Y377927D01*
X242915Y378481D01*
X243045Y379134D01*
X242915Y379787D01*
X242545Y380340D01*
X241991Y380710D01*
X241339Y380840D01*
D02*
G37*
G36*
X160433Y380249D02*
X159780Y380119D01*
X159227Y379750D01*
X158857Y379196D01*
X158727Y378543D01*
X158857Y377890D01*
X159227Y377337D01*
X159780Y376967D01*
X160433Y376837D01*
X161086Y376967D01*
X161639Y377337D01*
X162009Y377890D01*
X162139Y378543D01*
X162009Y379196D01*
X161639Y379750D01*
X161086Y380119D01*
X160433Y380249D01*
D02*
G37*
G36*
X115059Y379856D02*
X114406Y379726D01*
X113853Y379356D01*
X113483Y378802D01*
X113353Y378150D01*
X113483Y377497D01*
X113853Y376943D01*
X114406Y376573D01*
X115059Y376444D01*
X115712Y376573D01*
X116265Y376943D01*
X116635Y377497D01*
X116765Y378150D01*
X116635Y378802D01*
X116265Y379356D01*
X115712Y379726D01*
X115059Y379856D01*
D02*
G37*
G36*
X396505Y379672D02*
X395852Y379542D01*
X395298Y379173D01*
X394928Y378619D01*
X394799Y377966D01*
X394928Y377313D01*
X395298Y376760D01*
X395852Y376390D01*
X396505Y376260D01*
X397157Y376390D01*
X397711Y376760D01*
X398081Y377313D01*
X398211Y377966D01*
X398081Y378619D01*
X397711Y379173D01*
X397157Y379542D01*
X396505Y379672D01*
D02*
G37*
G36*
X281890Y375525D02*
X281237Y375395D01*
X280683Y375025D01*
X280314Y374472D01*
X280184Y373819D01*
X280314Y373166D01*
X280683Y372613D01*
X281237Y372243D01*
X281890Y372113D01*
X282543Y372243D01*
X283096Y372613D01*
X283466Y373166D01*
X283596Y373819D01*
X283466Y374472D01*
X283096Y375025D01*
X282543Y375395D01*
X281890Y375525D01*
D02*
G37*
G36*
X170866Y375230D02*
X170213Y375100D01*
X169660Y374730D01*
X169290Y374177D01*
X169160Y373524D01*
X169290Y372871D01*
X169660Y372317D01*
X170213Y371948D01*
X170866Y371818D01*
X171519Y371948D01*
X172073Y372317D01*
X172442Y372871D01*
X172572Y373524D01*
X172442Y374177D01*
X172073Y374730D01*
X171519Y375100D01*
X170866Y375230D01*
D02*
G37*
G36*
X245669Y374934D02*
X245016Y374804D01*
X244463Y374435D01*
X244093Y373881D01*
X243963Y373228D01*
X244093Y372575D01*
X244463Y372022D01*
X245016Y371652D01*
X245669Y371522D01*
X246322Y371652D01*
X246876Y372022D01*
X247245Y372575D01*
X247375Y373228D01*
X247245Y373881D01*
X246876Y374435D01*
X246322Y374804D01*
X245669Y374934D01*
D02*
G37*
G36*
X218602Y374738D02*
X217950Y374608D01*
X217396Y374238D01*
X217026Y373684D01*
X216896Y373031D01*
X217026Y372379D01*
X217396Y371825D01*
X217950Y371455D01*
X218602Y371325D01*
X219255Y371455D01*
X219809Y371825D01*
X220179Y372379D01*
X220308Y373031D01*
X220179Y373684D01*
X219809Y374238D01*
X219255Y374608D01*
X218602Y374738D01*
D02*
G37*
G36*
X144095Y377795D02*
X134646D01*
Y370315D01*
X144095D01*
Y377795D01*
D02*
G37*
G36*
X321752Y373163D02*
X321099Y373033D01*
X320546Y372663D01*
X320176Y372110D01*
X320046Y371457D01*
X320176Y370804D01*
X320546Y370250D01*
X321099Y369881D01*
X321752Y369751D01*
X322405Y369881D01*
X322958Y370250D01*
X323328Y370804D01*
X323458Y371457D01*
X323328Y372110D01*
X322958Y372663D01*
X322405Y373033D01*
X321752Y373163D01*
D02*
G37*
G36*
X398622Y372080D02*
X397969Y371950D01*
X397416Y371580D01*
X397046Y371027D01*
X396916Y370374D01*
X397046Y369721D01*
X397416Y369168D01*
X397969Y368798D01*
X398622Y368668D01*
X399275Y368798D01*
X399828Y369168D01*
X400198Y369721D01*
X400328Y370374D01*
X400198Y371027D01*
X399828Y371580D01*
X399275Y371950D01*
X398622Y372080D01*
D02*
G37*
G36*
X380807Y371785D02*
X380154Y371655D01*
X379601Y371285D01*
X379231Y370732D01*
X379101Y370079D01*
X379231Y369426D01*
X379601Y368872D01*
X380154Y368503D01*
X380807Y368373D01*
X381460Y368503D01*
X382013Y368872D01*
X382383Y369426D01*
X382513Y370079D01*
X382383Y370732D01*
X382013Y371285D01*
X381460Y371655D01*
X380807Y371785D01*
D02*
G37*
G36*
X173327Y370715D02*
X172674Y370585D01*
X172120Y370215D01*
X171751Y369661D01*
X171621Y369009D01*
X171751Y368356D01*
X172120Y367802D01*
X172674Y367432D01*
X173327Y367303D01*
X173980Y367432D01*
X174533Y367802D01*
X174903Y368356D01*
X175033Y369009D01*
X174903Y369661D01*
X174533Y370215D01*
X173980Y370585D01*
X173327Y370715D01*
D02*
G37*
G36*
X126772Y370111D02*
X126119Y369982D01*
X125565Y369612D01*
X125196Y369058D01*
X125066Y368406D01*
X125196Y367753D01*
X125565Y367199D01*
X126119Y366829D01*
X126772Y366700D01*
X127425Y366829D01*
X127978Y367199D01*
X128348Y367753D01*
X128478Y368406D01*
X128348Y369058D01*
X127978Y369612D01*
X127425Y369982D01*
X126772Y370111D01*
D02*
G37*
G36*
X146850Y368537D02*
X146197Y368407D01*
X145644Y368037D01*
X145274Y367484D01*
X145144Y366831D01*
X145274Y366178D01*
X145644Y365624D01*
X146197Y365255D01*
X146850Y365125D01*
X147503Y365255D01*
X148057Y365624D01*
X148426Y366178D01*
X148556Y366831D01*
X148426Y367484D01*
X148057Y368037D01*
X147503Y368407D01*
X146850Y368537D01*
D02*
G37*
G36*
X201673Y365781D02*
X201020Y365651D01*
X200467Y365281D01*
X200097Y364728D01*
X199967Y364075D01*
X200097Y363422D01*
X200467Y362868D01*
X201020Y362499D01*
X201673Y362369D01*
X202326Y362499D01*
X202880Y362868D01*
X203249Y363422D01*
X203379Y364075D01*
X203249Y364728D01*
X202880Y365281D01*
X202326Y365651D01*
X201673Y365781D01*
D02*
G37*
G36*
X233366Y364993D02*
X232713Y364863D01*
X232160Y364494D01*
X231790Y363940D01*
X231660Y363287D01*
X231790Y362634D01*
X232160Y362081D01*
X232713Y361711D01*
X233366Y361581D01*
X234019Y361711D01*
X234573Y362081D01*
X234942Y362634D01*
X235072Y363287D01*
X234942Y363940D01*
X234573Y364494D01*
X234019Y364863D01*
X233366Y364993D01*
D02*
G37*
G36*
X237598Y364796D02*
X236946Y364667D01*
X236392Y364297D01*
X236022Y363743D01*
X235892Y363090D01*
X236022Y362438D01*
X236392Y361884D01*
X236946Y361514D01*
X237598Y361385D01*
X238251Y361514D01*
X238805Y361884D01*
X239175Y362438D01*
X239304Y363090D01*
X239175Y363743D01*
X238805Y364297D01*
X238251Y364667D01*
X237598Y364796D01*
D02*
G37*
G36*
X287894Y364108D02*
X287241Y363978D01*
X286687Y363608D01*
X286318Y363054D01*
X286188Y362402D01*
X286318Y361749D01*
X286687Y361195D01*
X287241Y360825D01*
X287894Y360696D01*
X288547Y360825D01*
X289100Y361195D01*
X289470Y361749D01*
X289600Y362402D01*
X289470Y363054D01*
X289100Y363608D01*
X288547Y363978D01*
X287894Y364108D01*
D02*
G37*
G36*
X140354Y367828D02*
X138386D01*
X137409Y367699D01*
X136500Y367322D01*
X135718Y366723D01*
X135119Y365941D01*
X134742Y365032D01*
X134613Y364055D01*
X134742Y363079D01*
X135119Y362169D01*
X135718Y361388D01*
X136500Y360788D01*
X137409Y360411D01*
X138386Y360283D01*
X140354D01*
X141331Y360411D01*
X142241Y360788D01*
X143022Y361388D01*
X143621Y362169D01*
X143998Y363079D01*
X144127Y364055D01*
X143998Y365032D01*
X143621Y365941D01*
X143022Y366723D01*
X142241Y367322D01*
X141331Y367699D01*
X140354Y367828D01*
D02*
G37*
G36*
X215354Y361253D02*
X214702Y361123D01*
X214148Y360754D01*
X213778Y360200D01*
X213648Y359547D01*
X213778Y358894D01*
X214148Y358341D01*
X214702Y357971D01*
X215354Y357841D01*
X216007Y357971D01*
X216561Y358341D01*
X216931Y358894D01*
X217060Y359547D01*
X216931Y360200D01*
X216561Y360754D01*
X216007Y361123D01*
X215354Y361253D01*
D02*
G37*
G36*
X208268Y358104D02*
X207615Y357974D01*
X207061Y357604D01*
X206692Y357050D01*
X206562Y356398D01*
X206692Y355745D01*
X207061Y355191D01*
X207615Y354821D01*
X208268Y354692D01*
X208921Y354821D01*
X209474Y355191D01*
X209844Y355745D01*
X209974Y356398D01*
X209844Y357050D01*
X209474Y357604D01*
X208921Y357974D01*
X208268Y358104D01*
D02*
G37*
G36*
X140354Y357827D02*
X138386D01*
X137409Y357699D01*
X136500Y357322D01*
X135718Y356723D01*
X135119Y355941D01*
X134742Y355031D01*
X134613Y354055D01*
X134742Y353079D01*
X135119Y352169D01*
X135718Y351388D01*
X136500Y350788D01*
X137409Y350411D01*
X138386Y350283D01*
X140354D01*
X141331Y350411D01*
X142241Y350788D01*
X143022Y351388D01*
X143621Y352169D01*
X143998Y353079D01*
X144127Y354055D01*
X143998Y355031D01*
X143621Y355941D01*
X143022Y356723D01*
X142241Y357322D01*
X141331Y357699D01*
X140354Y357827D01*
D02*
G37*
G36*
X383071Y353478D02*
X382418Y353348D01*
X381865Y352978D01*
X381495Y352425D01*
X381365Y351772D01*
X381495Y351119D01*
X381865Y350565D01*
X382418Y350196D01*
X383071Y350066D01*
X383724Y350196D01*
X384277Y350565D01*
X384647Y351119D01*
X384777Y351772D01*
X384647Y352425D01*
X384277Y352978D01*
X383724Y353348D01*
X383071Y353478D01*
D02*
G37*
G36*
X243996Y352986D02*
X243343Y352856D01*
X242790Y352486D01*
X242420Y351932D01*
X242290Y351279D01*
X242420Y350627D01*
X242790Y350073D01*
X243343Y349703D01*
X243996Y349573D01*
X244649Y349703D01*
X245202Y350073D01*
X245572Y350627D01*
X245702Y351279D01*
X245572Y351932D01*
X245202Y352486D01*
X244649Y352856D01*
X243996Y352986D01*
D02*
G37*
G36*
X238681Y351804D02*
X238028Y351675D01*
X237475Y351305D01*
X237105Y350751D01*
X236975Y350098D01*
X237105Y349446D01*
X237475Y348892D01*
X238028Y348522D01*
X238681Y348392D01*
X239334Y348522D01*
X239887Y348892D01*
X240257Y349446D01*
X240387Y350098D01*
X240257Y350751D01*
X239887Y351305D01*
X239334Y351675D01*
X238681Y351804D01*
D02*
G37*
G36*
X362795Y347572D02*
X362142Y347442D01*
X361589Y347073D01*
X361219Y346519D01*
X361089Y345866D01*
X361219Y345213D01*
X361589Y344660D01*
X362142Y344290D01*
X362795Y344160D01*
X363448Y344290D01*
X364002Y344660D01*
X364371Y345213D01*
X364501Y345866D01*
X364371Y346519D01*
X364002Y347073D01*
X363448Y347442D01*
X362795Y347572D01*
D02*
G37*
G36*
X294783Y346194D02*
X294131Y346064D01*
X293577Y345694D01*
X293207Y345141D01*
X293077Y344488D01*
X293207Y343835D01*
X293577Y343282D01*
X294131Y342912D01*
X294783Y342782D01*
X295436Y342912D01*
X295990Y343282D01*
X296360Y343835D01*
X296490Y344488D01*
X296360Y345141D01*
X295990Y345694D01*
X295436Y346064D01*
X294783Y346194D01*
D02*
G37*
G36*
X140354Y347828D02*
X138386D01*
X137409Y347699D01*
X136500Y347322D01*
X135718Y346723D01*
X135119Y345941D01*
X134742Y345031D01*
X134613Y344055D01*
X134742Y343079D01*
X135119Y342169D01*
X135718Y341388D01*
X136500Y340788D01*
X137409Y340411D01*
X138386Y340283D01*
X140354D01*
X141331Y340411D01*
X142241Y340788D01*
X143022Y341388D01*
X143621Y342169D01*
X143998Y343079D01*
X144127Y344055D01*
X143998Y345031D01*
X143621Y345941D01*
X143022Y346723D01*
X142241Y347322D01*
X141331Y347699D01*
X140354Y347828D01*
D02*
G37*
G36*
X268504Y338419D02*
X267851Y338289D01*
X267298Y337919D01*
X266928Y337366D01*
X266840Y336924D01*
X266461Y336658D01*
X266311Y336633D01*
X265748Y336745D01*
X265095Y336615D01*
X264542Y336246D01*
X264172Y335692D01*
X264044Y335047D01*
X263219Y334222D01*
X262956Y333829D01*
X262864Y333366D01*
X262864Y333366D01*
Y290472D01*
X262364Y290205D01*
X262286Y290257D01*
X261633Y290387D01*
X260980Y290257D01*
X260427Y289887D01*
X260057Y289334D01*
X259927Y288681D01*
X260057Y288028D01*
X260427Y287475D01*
X260980Y287105D01*
X261633Y286975D01*
X262286Y287105D01*
X262364Y287157D01*
X262864Y286890D01*
Y284360D01*
X257510Y279006D01*
X257248Y278613D01*
X257155Y278150D01*
X257155Y278150D01*
Y272853D01*
X256790Y272306D01*
X256660Y271654D01*
X256731Y271297D01*
X256370Y270797D01*
X245350D01*
X245198Y271297D01*
X245399Y271431D01*
X245769Y271985D01*
X245899Y272638D01*
X245769Y273291D01*
X245399Y273844D01*
X244846Y274214D01*
X244193Y274344D01*
X243540Y274214D01*
X242987Y273844D01*
X242617Y273291D01*
X242487Y272638D01*
X242617Y271985D01*
X242987Y271431D01*
X243187Y271297D01*
X243036Y270797D01*
X234860D01*
X234450Y271297D01*
X234482Y271457D01*
X234352Y272110D01*
X233982Y272663D01*
X233429Y273033D01*
X232776Y273163D01*
X232123Y273033D01*
X231569Y272663D01*
X231199Y272110D01*
X231070Y271457D01*
X231101Y271297D01*
X230691Y270797D01*
X227418D01*
X227289Y270990D01*
X226735Y271360D01*
X226083Y271490D01*
X225430Y271360D01*
X224876Y270990D01*
X224506Y270436D01*
X224377Y269783D01*
X224408Y269624D01*
X223998Y269124D01*
X222539D01*
X222539Y269124D01*
X222076Y269032D01*
X221683Y268770D01*
X221154Y268240D01*
X220509Y268112D01*
X219955Y267742D01*
X219585Y267188D01*
X219455Y266535D01*
X219585Y265883D01*
X219955Y265329D01*
X220509Y264959D01*
X221161Y264829D01*
X221814Y264959D01*
X222224Y264632D01*
X222211Y264567D01*
X222341Y263914D01*
X222711Y263361D01*
X223265Y262991D01*
X223917Y262861D01*
X223947Y262867D01*
X224301Y262513D01*
X224278Y262402D01*
X224408Y261749D01*
X224778Y261195D01*
X225331Y260825D01*
X225930Y260706D01*
X225950Y260685D01*
X226059Y260496D01*
X226162Y260221D01*
X225885Y259806D01*
X225755Y259154D01*
X225885Y258501D01*
X226254Y257947D01*
X226808Y257577D01*
X227461Y257448D01*
X228114Y257577D01*
X228667Y257947D01*
X229037Y258501D01*
X229161Y259124D01*
X237169D01*
X237292Y258951D01*
X237165Y258304D01*
X237002Y258194D01*
X236632Y257641D01*
X236502Y256988D01*
X236553Y256730D01*
X236146Y256230D01*
X231958D01*
X231798Y256198D01*
X231657Y256293D01*
X231004Y256422D01*
X230351Y256293D01*
X229798Y255923D01*
X229428Y255369D01*
X229298Y254716D01*
X229428Y254064D01*
X229798Y253510D01*
X230351Y253140D01*
X231004Y253011D01*
X231657Y253140D01*
X232210Y253510D01*
X232410Y253809D01*
X240256D01*
X240256Y253809D01*
X240719Y253901D01*
X241112Y254164D01*
X242135Y255187D01*
X252204D01*
X252518Y254687D01*
X252428Y254232D01*
X252558Y253579D01*
X252927Y253026D01*
X253481Y252656D01*
X254134Y252526D01*
X254787Y252656D01*
X255340Y253026D01*
X255710Y253579D01*
X255840Y254232D01*
X255749Y254687D01*
X256064Y255187D01*
X260827D01*
X260827Y255187D01*
X261290Y255279D01*
X261447Y255384D01*
X262598D01*
X262598Y255384D01*
X263062Y255476D01*
X263455Y255738D01*
X269292Y261576D01*
X269753Y261330D01*
X269751Y261319D01*
X269881Y260666D01*
X270246Y260119D01*
Y258951D01*
X269746Y258544D01*
X269488Y258596D01*
X268835Y258466D01*
X268282Y258096D01*
X267912Y257543D01*
X267782Y256890D01*
X267912Y256237D01*
X268282Y255683D01*
X268835Y255314D01*
X269488Y255184D01*
X269746Y255235D01*
X270246Y254828D01*
Y246790D01*
X269881Y246243D01*
X269774Y245709D01*
X269443Y245497D01*
X269270Y245445D01*
X269186Y245501D01*
X269228Y245714D01*
X269099Y246367D01*
X268729Y246921D01*
X268478Y247089D01*
X268455Y247202D01*
X268193Y247594D01*
X268193Y247594D01*
X266014Y249773D01*
X265621Y250036D01*
X265158Y250128D01*
X265157Y250128D01*
X252953D01*
X252953Y250128D01*
X252489Y250036D01*
X252097Y249773D01*
X249880Y247557D01*
X249803Y247572D01*
X249150Y247442D01*
X248597Y247073D01*
X248227Y246519D01*
X248097Y245866D01*
X248227Y245213D01*
X248597Y244660D01*
X249150Y244290D01*
X249803Y244160D01*
X250456Y244290D01*
X251009Y244660D01*
X251379Y245213D01*
X251483Y245736D01*
X253454Y247707D01*
X259243D01*
X259293Y247207D01*
X258993Y247147D01*
X258439Y246777D01*
X258069Y246224D01*
X257940Y245571D01*
X257664Y245149D01*
X257221Y245061D01*
X256668Y244691D01*
X256298Y244138D01*
X256168Y243485D01*
X256298Y242832D01*
X256668Y242279D01*
X257221Y241909D01*
X257874Y241779D01*
X258527Y241909D01*
X259080Y242279D01*
X259450Y242832D01*
X259580Y243485D01*
X259856Y243907D01*
X260298Y243995D01*
X260852Y244365D01*
X261222Y244918D01*
X261352Y245571D01*
X261222Y246224D01*
X260852Y246777D01*
X260298Y247147D01*
X259999Y247207D01*
X260048Y247707D01*
X264656D01*
X265563Y246800D01*
X265531Y246321D01*
X265080Y246397D01*
X265024Y246482D01*
X264470Y246852D01*
X263817Y246982D01*
X263164Y246852D01*
X262611Y246482D01*
X262241Y245929D01*
X262111Y245276D01*
X262241Y244623D01*
X262611Y244069D01*
X263164Y243699D01*
X263817Y243570D01*
X264431Y243692D01*
X264548Y243682D01*
X264931Y243477D01*
Y240059D01*
X264931Y240059D01*
X265023Y239596D01*
X265286Y239203D01*
X271585Y232904D01*
X271585Y232904D01*
X271978Y232641D01*
X272441Y232549D01*
X310340D01*
X310747Y232049D01*
X310696Y231791D01*
X310825Y231138D01*
X311195Y230585D01*
X311749Y230215D01*
X312402Y230085D01*
X313054Y230215D01*
X313608Y230585D01*
X313978Y231138D01*
X314108Y231791D01*
X314056Y232049D01*
X314463Y232549D01*
X322225D01*
X322772Y232184D01*
X323425Y232054D01*
X324078Y232184D01*
X324632Y232554D01*
X325001Y233107D01*
X325131Y233760D01*
X325001Y234413D01*
X324632Y234966D01*
X324078Y235336D01*
X323425Y235466D01*
X322772Y235336D01*
X322225Y234970D01*
X272942D01*
X267352Y240561D01*
Y241725D01*
X267852Y241993D01*
X267950Y241928D01*
X268602Y241798D01*
X269255Y241928D01*
X269809Y242298D01*
X270179Y242851D01*
X270308Y243504D01*
X270253Y243780D01*
X270703Y244081D01*
X270804Y244014D01*
X271457Y243884D01*
X272110Y244014D01*
X272182Y244062D01*
X272501Y243585D01*
X273054Y243215D01*
X273707Y243085D01*
X274360Y243215D01*
X274890Y243569D01*
X275325Y243278D01*
X275978Y243148D01*
X276631Y243278D01*
X277184Y243648D01*
X277554Y244202D01*
X277595Y244405D01*
X278710Y245521D01*
X278710Y245521D01*
X278973Y245914D01*
X279065Y246377D01*
X279065Y246377D01*
Y251902D01*
X279451Y252219D01*
X279640Y252182D01*
X280293Y252311D01*
X280847Y252681D01*
X281216Y253235D01*
X281346Y253888D01*
X281216Y254540D01*
X280847Y255094D01*
X280293Y255464D01*
X279640Y255594D01*
X279451Y255556D01*
X279065Y255873D01*
Y266462D01*
X279348Y266886D01*
X279478Y267539D01*
X279348Y268191D01*
X279326Y268225D01*
X279686Y268585D01*
X279957Y268404D01*
X280610Y268274D01*
X281263Y268404D01*
X281817Y268774D01*
X282186Y269327D01*
X282405Y269474D01*
X282480Y269459D01*
X282480Y269459D01*
X297816D01*
X298363Y269093D01*
X299016Y268963D01*
X299669Y269093D01*
X300222Y269463D01*
X300592Y270016D01*
X300722Y270669D01*
X300592Y271322D01*
X300222Y271876D01*
X299669Y272245D01*
X299016Y272375D01*
X298363Y272245D01*
X297816Y271880D01*
X284966D01*
X284607Y272380D01*
X284679Y272739D01*
X284648Y272896D01*
X285058Y273396D01*
X296121D01*
X296493Y273148D01*
X297146Y273018D01*
X297798Y273148D01*
X298352Y273517D01*
X298722Y274071D01*
X298852Y274724D01*
X298821Y274879D01*
X299138Y275266D01*
X307865D01*
X309663Y273467D01*
X309743Y273068D01*
X310113Y272514D01*
X310666Y272144D01*
X311319Y272014D01*
X311972Y272144D01*
X312525Y272514D01*
X312895Y273068D01*
X313025Y273721D01*
X312895Y274373D01*
X312525Y274927D01*
X311972Y275297D01*
X311319Y275427D01*
X311160Y275395D01*
X309222Y277332D01*
X308829Y277595D01*
X308366Y277687D01*
X308366Y277687D01*
X298052D01*
X297885Y277720D01*
X297885Y277720D01*
X296406D01*
X296240Y277687D01*
X276620D01*
X276468Y278187D01*
X276532Y278229D01*
X276902Y278783D01*
X277031Y279436D01*
X276902Y280089D01*
X276532Y280642D01*
X275978Y281012D01*
X275615Y281084D01*
X275205Y281589D01*
X275230Y281712D01*
X275100Y282365D01*
X274730Y282918D01*
X274177Y283288D01*
X273524Y283418D01*
X272871Y283288D01*
X272317Y282918D01*
X271948Y282365D01*
X271818Y281712D01*
X271948Y281059D01*
X272317Y280505D01*
X272871Y280136D01*
X273234Y280063D01*
X273644Y279559D01*
X273619Y279436D01*
X273749Y278783D01*
X274119Y278229D01*
X274182Y278187D01*
X274031Y277687D01*
X268341D01*
X267877Y277997D01*
X267224Y278127D01*
X266571Y277997D01*
X266018Y277627D01*
X265648Y277073D01*
X265518Y276420D01*
X265648Y275768D01*
X265585Y275726D01*
X265580Y275725D01*
X265187Y275462D01*
X265187Y275462D01*
X260776Y271052D01*
X260410Y271078D01*
X260052Y271552D01*
X260072Y271654D01*
X259942Y272306D01*
X259577Y272853D01*
Y276370D01*
X260077Y276419D01*
X260137Y276119D01*
X260506Y275565D01*
X261060Y275196D01*
X261713Y275066D01*
X262366Y275196D01*
X262919Y275565D01*
X263289Y276119D01*
X263417Y276764D01*
X270639Y283986D01*
X270902Y284379D01*
X270994Y284842D01*
X270994Y284843D01*
Y302749D01*
X271494Y303016D01*
X271591Y302951D01*
X272244Y302822D01*
X272897Y302951D01*
X273450Y303321D01*
X273820Y303875D01*
X273950Y304528D01*
X273820Y305180D01*
X273450Y305734D01*
X272897Y306104D01*
X272244Y306234D01*
X271591Y306104D01*
X271494Y306039D01*
X270994Y306306D01*
Y334774D01*
X270994Y334774D01*
X270902Y335237D01*
X270639Y335630D01*
X270639Y335630D01*
X270102Y336168D01*
X270210Y336713D01*
X270080Y337366D01*
X269710Y337919D01*
X269157Y338289D01*
X268504Y338419D01*
D02*
G37*
G36*
X349213Y339422D02*
X348560Y339292D01*
X348006Y338922D01*
X347637Y338369D01*
X347507Y337716D01*
X347637Y337063D01*
X348006Y336509D01*
X348560Y336140D01*
X349213Y336010D01*
X349866Y336140D01*
X350419Y336509D01*
X350789Y337063D01*
X350919Y337716D01*
X350789Y338369D01*
X350419Y338922D01*
X349866Y339292D01*
X349213Y339422D01*
D02*
G37*
G36*
X398524Y338222D02*
X397871Y338092D01*
X397317Y337722D01*
X396948Y337169D01*
X396818Y336516D01*
X396948Y335863D01*
X397317Y335309D01*
X397871Y334940D01*
X398524Y334810D01*
X399177Y334940D01*
X399730Y335309D01*
X400100Y335863D01*
X400230Y336516D01*
X400100Y337169D01*
X399730Y337722D01*
X399177Y338092D01*
X398524Y338222D01*
D02*
G37*
G36*
X339280Y338125D02*
X338627Y337995D01*
X338073Y337626D01*
X337703Y337072D01*
X337574Y336419D01*
X337703Y335766D01*
X338073Y335213D01*
X338627Y334843D01*
X339280Y334713D01*
X339932Y334843D01*
X340486Y335213D01*
X340856Y335766D01*
X340985Y336419D01*
X340856Y337072D01*
X340486Y337626D01*
X339932Y337995D01*
X339280Y338125D01*
D02*
G37*
G36*
X371457Y338123D02*
X370804Y337994D01*
X370250Y337624D01*
X369881Y337070D01*
X369751Y336417D01*
X369881Y335765D01*
X370250Y335211D01*
X370804Y334841D01*
X371457Y334711D01*
X372110Y334841D01*
X372663Y335211D01*
X373033Y335765D01*
X373163Y336417D01*
X373033Y337070D01*
X372663Y337624D01*
X372110Y337994D01*
X371457Y338123D01*
D02*
G37*
G36*
X105118Y335958D02*
X104465Y335828D01*
X103912Y335458D01*
X103542Y334905D01*
X103412Y334252D01*
X103542Y333599D01*
X103912Y333046D01*
X104465Y332676D01*
X105118Y332546D01*
X105771Y332676D01*
X106324Y333046D01*
X106694Y333599D01*
X106824Y334252D01*
X106694Y334905D01*
X106324Y335458D01*
X105771Y335828D01*
X105118Y335958D01*
D02*
G37*
G36*
X363963Y335250D02*
X363310Y335120D01*
X362756Y334750D01*
X362386Y334197D01*
X362257Y333544D01*
X362386Y332891D01*
X362756Y332338D01*
X363310Y331968D01*
X363963Y331838D01*
X364616Y331968D01*
X365169Y332338D01*
X365539Y332891D01*
X365669Y333544D01*
X365539Y334197D01*
X365169Y334750D01*
X364616Y335120D01*
X363963Y335250D01*
D02*
G37*
G36*
X111417Y334678D02*
X110765Y334549D01*
X110211Y334179D01*
X109841Y333625D01*
X109711Y332972D01*
X109841Y332320D01*
X110211Y331766D01*
X110765Y331396D01*
X111417Y331266D01*
X112070Y331396D01*
X112624Y331766D01*
X112994Y332320D01*
X113123Y332972D01*
X112994Y333625D01*
X112624Y334179D01*
X112070Y334549D01*
X111417Y334678D01*
D02*
G37*
G36*
X140354Y337827D02*
X138386D01*
X137409Y337699D01*
X136500Y337322D01*
X135718Y336723D01*
X135119Y335941D01*
X134742Y335032D01*
X134613Y334055D01*
X134742Y333079D01*
X135119Y332169D01*
X135718Y331388D01*
X136500Y330788D01*
X137409Y330411D01*
X138386Y330283D01*
X140354D01*
X141331Y330411D01*
X142241Y330788D01*
X143022Y331388D01*
X143621Y332169D01*
X143998Y333079D01*
X144127Y334055D01*
X143998Y335032D01*
X143621Y335941D01*
X143022Y336723D01*
X142241Y337322D01*
X141331Y337699D01*
X140354Y337827D01*
D02*
G37*
G36*
X246063Y336909D02*
X236614D01*
Y329429D01*
X246063D01*
Y336909D01*
D02*
G37*
G36*
X354921Y331430D02*
X354268Y331301D01*
X353715Y330931D01*
X353345Y330377D01*
X353215Y329724D01*
X353345Y329071D01*
X353715Y328518D01*
X354268Y328148D01*
X354921Y328018D01*
X355574Y328148D01*
X356128Y328518D01*
X356497Y329071D01*
X356627Y329724D01*
X356497Y330377D01*
X356128Y330931D01*
X355574Y331301D01*
X354921Y331430D01*
D02*
G37*
G36*
X360827Y327690D02*
X360174Y327560D01*
X359620Y327191D01*
X359251Y326637D01*
X359121Y325984D01*
X359251Y325331D01*
X359620Y324778D01*
X360174Y324408D01*
X360827Y324278D01*
X361480Y324408D01*
X362033Y324778D01*
X362403Y325331D01*
X362533Y325984D01*
X362403Y326637D01*
X362033Y327191D01*
X361480Y327560D01*
X360827Y327690D01*
D02*
G37*
G36*
X338798Y327493D02*
X338146Y327363D01*
X337592Y326993D01*
X337222Y326440D01*
X337092Y325787D01*
X337222Y325134D01*
X337592Y324581D01*
X338146Y324211D01*
X338798Y324081D01*
X339451Y324211D01*
X340005Y324581D01*
X340375Y325134D01*
X340504Y325787D01*
X340375Y326440D01*
X340005Y326993D01*
X339451Y327363D01*
X338798Y327493D01*
D02*
G37*
G36*
X180315Y325230D02*
X179662Y325100D01*
X179109Y324730D01*
X178739Y324177D01*
X178609Y323524D01*
X178739Y322871D01*
X179109Y322317D01*
X179662Y321948D01*
X180315Y321818D01*
X180968Y321948D01*
X181521Y322317D01*
X181891Y322871D01*
X182021Y323524D01*
X181891Y324177D01*
X181521Y324730D01*
X180968Y325100D01*
X180315Y325230D01*
D02*
G37*
G36*
X140354Y327828D02*
X138386D01*
X137409Y327699D01*
X136500Y327322D01*
X135718Y326723D01*
X135119Y325941D01*
X134742Y325031D01*
X134613Y324055D01*
X134742Y323079D01*
X135119Y322169D01*
X135718Y321388D01*
X136500Y320788D01*
X137409Y320411D01*
X138386Y320283D01*
X140354D01*
X141331Y320411D01*
X142241Y320788D01*
X143022Y321388D01*
X143621Y322169D01*
X143998Y323079D01*
X144127Y324055D01*
X143998Y325031D01*
X143621Y325941D01*
X143022Y326723D01*
X142241Y327322D01*
X141331Y327699D01*
X140354Y327828D01*
D02*
G37*
G36*
X233169Y323064D02*
X232516Y322934D01*
X231963Y322565D01*
X231593Y322011D01*
X231463Y321358D01*
X231593Y320705D01*
X231963Y320152D01*
X232516Y319782D01*
X233169Y319652D01*
X233822Y319782D01*
X234376Y320152D01*
X234745Y320705D01*
X234875Y321358D01*
X234745Y322011D01*
X234376Y322565D01*
X233822Y322934D01*
X233169Y323064D01*
D02*
G37*
G36*
X242323Y327099D02*
X240354D01*
X239378Y326971D01*
X238468Y326594D01*
X237687Y325994D01*
X237087Y325213D01*
X236710Y324303D01*
X236582Y323327D01*
X236710Y322350D01*
X237087Y321441D01*
X237687Y320659D01*
X238468Y320060D01*
X239378Y319683D01*
X240354Y319554D01*
X242323D01*
X243299Y319683D01*
X244209Y320060D01*
X244990Y320659D01*
X245590Y321441D01*
X245967Y322350D01*
X246095Y323327D01*
X245967Y324303D01*
X245590Y325213D01*
X244990Y325994D01*
X244209Y326594D01*
X243299Y326971D01*
X242323Y327099D01*
D02*
G37*
G36*
X355906Y322671D02*
X355253Y322541D01*
X354699Y322171D01*
X354329Y321617D01*
X354200Y320965D01*
X354329Y320312D01*
X354699Y319758D01*
X355253Y319388D01*
X355906Y319259D01*
X356558Y319388D01*
X357112Y319758D01*
X357482Y320312D01*
X357611Y320965D01*
X357482Y321617D01*
X357112Y322171D01*
X356558Y322541D01*
X355906Y322671D01*
D02*
G37*
G36*
X207382Y321686D02*
X206729Y321556D01*
X206176Y321187D01*
X205806Y320633D01*
X205676Y319980D01*
X205806Y319327D01*
X206176Y318774D01*
X206729Y318404D01*
X207382Y318274D01*
X208035Y318404D01*
X208588Y318774D01*
X208958Y319327D01*
X209088Y319980D01*
X208958Y320633D01*
X208588Y321187D01*
X208035Y321556D01*
X207382Y321686D01*
D02*
G37*
G36*
X341831Y318832D02*
X341178Y318702D01*
X340624Y318332D01*
X340255Y317779D01*
X340125Y317126D01*
X340255Y316473D01*
X340624Y315920D01*
X341178Y315550D01*
X341831Y315420D01*
X342484Y315550D01*
X342593Y315623D01*
X343148Y315393D01*
X343207Y315095D01*
X343577Y314542D01*
X344131Y314172D01*
X344783Y314042D01*
X345436Y314172D01*
X345990Y314542D01*
X346360Y315095D01*
X346490Y315748D01*
X346360Y316401D01*
X345990Y316954D01*
X345436Y317324D01*
X344783Y317454D01*
X344131Y317324D01*
X344022Y317251D01*
X343466Y317481D01*
X343407Y317779D01*
X343037Y318332D01*
X342484Y318702D01*
X341831Y318832D01*
D02*
G37*
G36*
X367618Y316470D02*
X366965Y316340D01*
X366412Y315970D01*
X366042Y315417D01*
X365912Y314764D01*
X366042Y314111D01*
X366412Y313558D01*
X366965Y313188D01*
X367618Y313058D01*
X368271Y313188D01*
X368824Y313558D01*
X369194Y314111D01*
X369324Y314764D01*
X369194Y315417D01*
X368824Y315970D01*
X368271Y316340D01*
X367618Y316470D01*
D02*
G37*
G36*
X139665Y315879D02*
X139013Y315749D01*
X138459Y315380D01*
X138089Y314826D01*
X137959Y314173D01*
X138089Y313520D01*
X138459Y312967D01*
X139013Y312597D01*
X139665Y312467D01*
X140318Y312597D01*
X140872Y312967D01*
X141242Y313520D01*
X141371Y314173D01*
X141242Y314826D01*
X140872Y315380D01*
X140318Y315749D01*
X139665Y315879D01*
D02*
G37*
G36*
X162311Y312533D02*
X161658Y312403D01*
X161105Y312033D01*
X160735Y311480D01*
X160605Y310827D01*
X160735Y310174D01*
X161105Y309620D01*
X161658Y309251D01*
X162311Y309121D01*
X162964Y309251D01*
X163517Y309620D01*
X163887Y310174D01*
X164017Y310827D01*
X163887Y311480D01*
X163517Y312033D01*
X162964Y312403D01*
X162311Y312533D01*
D02*
G37*
G36*
X297146Y312238D02*
X296493Y312108D01*
X295939Y311738D01*
X295569Y311184D01*
X295440Y310531D01*
X295569Y309879D01*
X295939Y309325D01*
X296493Y308955D01*
X297146Y308825D01*
X297798Y308955D01*
X298352Y309325D01*
X298722Y309879D01*
X298852Y310531D01*
X298722Y311184D01*
X298352Y311738D01*
X297798Y312108D01*
X297146Y312238D01*
D02*
G37*
G36*
X300787Y310152D02*
X300134Y310022D01*
X299581Y309652D01*
X299211Y309099D01*
X299081Y308446D01*
X299211Y307793D01*
X299581Y307239D01*
X300134Y306870D01*
X300787Y306740D01*
X301440Y306870D01*
X301994Y307239D01*
X302363Y307793D01*
X302493Y308446D01*
X302363Y309099D01*
X301994Y309652D01*
X301440Y310022D01*
X300787Y310152D01*
D02*
G37*
G36*
X387795Y310356D02*
X386562Y310193D01*
X385413Y309717D01*
X384426Y308960D01*
X383668Y307973D01*
X383192Y306824D01*
X383177Y306708D01*
X382677Y306740D01*
Y310315D01*
X373228D01*
Y300866D01*
X382677D01*
Y304441D01*
X383177Y304473D01*
X383192Y304357D01*
X383668Y303208D01*
X384426Y302221D01*
X385413Y301464D01*
X386562Y300988D01*
X387439Y300872D01*
X387664Y300843D01*
Y300338D01*
X387439Y300309D01*
X386562Y300193D01*
X385413Y299717D01*
X384426Y298960D01*
X383668Y297973D01*
X383192Y296824D01*
X383177Y296708D01*
X382677Y296740D01*
Y300315D01*
X373228D01*
Y290866D01*
X382677D01*
Y294441D01*
X383177Y294473D01*
X383192Y294357D01*
X383668Y293208D01*
X384426Y292221D01*
X385413Y291464D01*
X386562Y290988D01*
X387439Y290872D01*
X387664Y290843D01*
Y290338D01*
X387439Y290309D01*
X386562Y290193D01*
X385413Y289717D01*
X384426Y288960D01*
X383668Y287973D01*
X383192Y286824D01*
X383177Y286708D01*
X382677Y286740D01*
Y290315D01*
X373228D01*
Y280866D01*
X382677D01*
Y284441D01*
X383177Y284473D01*
X383192Y284357D01*
X383668Y283208D01*
X384426Y282221D01*
X385413Y281464D01*
X386562Y280988D01*
X387795Y280825D01*
X389029Y280988D01*
X390178Y281464D01*
X391165Y282221D01*
X391922Y283208D01*
X392398Y284357D01*
X392561Y285591D01*
X392398Y286824D01*
X391922Y287973D01*
X391165Y288960D01*
X390178Y289717D01*
X389029Y290193D01*
X388151Y290309D01*
X387927Y290338D01*
Y290843D01*
X388151Y290872D01*
X389029Y290988D01*
X390178Y291464D01*
X391165Y292221D01*
X391922Y293208D01*
X392398Y294357D01*
X392561Y295590D01*
X392398Y296824D01*
X391922Y297973D01*
X391165Y298960D01*
X390178Y299717D01*
X389029Y300193D01*
X388151Y300309D01*
X387927Y300338D01*
Y300843D01*
X388151Y300872D01*
X389029Y300988D01*
X390178Y301464D01*
X391165Y302221D01*
X391922Y303208D01*
X392398Y304357D01*
X392561Y305591D01*
X392398Y306824D01*
X391922Y307973D01*
X391165Y308960D01*
X390178Y309717D01*
X389029Y310193D01*
X387795Y310356D01*
D02*
G37*
G36*
X274508Y319915D02*
X273855Y319785D01*
X273302Y319415D01*
X272932Y318862D01*
X272802Y318209D01*
X272932Y317556D01*
X273302Y317002D01*
X273855Y316633D01*
X274500Y316504D01*
X283632Y307372D01*
Y306732D01*
X283132Y306465D01*
X282936Y306596D01*
X282283Y306726D01*
X281631Y306596D01*
X281077Y306226D01*
X280707Y305673D01*
X280577Y305020D01*
X280707Y304367D01*
X281077Y303813D01*
X281631Y303444D01*
X282283Y303314D01*
X282663Y303389D01*
X282909Y302928D01*
X282412Y302431D01*
X282149Y302038D01*
X282057Y301575D01*
X282057Y301575D01*
Y299035D01*
X281692Y298487D01*
X281562Y297835D01*
X281692Y297182D01*
X282061Y296628D01*
X282615Y296258D01*
X283268Y296129D01*
X283921Y296258D01*
X284474Y296628D01*
X284844Y297182D01*
X284974Y297835D01*
X284844Y298487D01*
X284478Y299035D01*
Y301073D01*
X285400Y301995D01*
X286044Y301932D01*
X286097Y301853D01*
X286650Y301483D01*
X287303Y301353D01*
X287956Y301483D01*
X288509Y301853D01*
X288879Y302406D01*
X289009Y303059D01*
X288879Y303712D01*
X288509Y304265D01*
X287956Y304635D01*
X287303Y304765D01*
X286650Y304635D01*
X286553Y304570D01*
X286053Y304838D01*
Y307874D01*
X285961Y308337D01*
X285699Y308730D01*
X285699Y308730D01*
X276212Y318216D01*
X276084Y318862D01*
X275714Y319415D01*
X275161Y319785D01*
X274508Y319915D01*
D02*
G37*
G36*
X255906Y306783D02*
X255253Y306653D01*
X254699Y306283D01*
X254329Y305729D01*
X254200Y305077D01*
X254329Y304424D01*
X254699Y303870D01*
X255253Y303500D01*
X255906Y303370D01*
X256558Y303500D01*
X257112Y303870D01*
X257482Y304424D01*
X257611Y305077D01*
X257482Y305729D01*
X257112Y306283D01*
X256558Y306653D01*
X255906Y306783D01*
D02*
G37*
G36*
X124508Y311064D02*
X123275Y310902D01*
X122125Y310426D01*
X121138Y309669D01*
X120381Y308682D01*
X119905Y307533D01*
X119743Y306299D01*
X119905Y305066D01*
X120381Y303917D01*
X121138Y302930D01*
X122125Y302172D01*
X123275Y301696D01*
X124508Y301534D01*
X125741Y301696D01*
X126891Y302172D01*
X127877Y302930D01*
X128635Y303917D01*
X129111Y305066D01*
X129126Y305182D01*
X129626Y305149D01*
Y301575D01*
X139075D01*
Y311024D01*
X129626D01*
Y307449D01*
X129126Y307416D01*
X129111Y307533D01*
X128635Y308682D01*
X127877Y309669D01*
X126891Y310426D01*
X125741Y310902D01*
X124508Y311064D01*
D02*
G37*
G36*
X224606Y304167D02*
X223953Y304037D01*
X223400Y303667D01*
X223030Y303114D01*
X222900Y302461D01*
X223030Y301808D01*
X223400Y301254D01*
X223953Y300885D01*
X224606Y300755D01*
X225259Y300885D01*
X225813Y301254D01*
X226182Y301808D01*
X226312Y302461D01*
X226182Y303114D01*
X225813Y303667D01*
X225259Y304037D01*
X224606Y304167D01*
D02*
G37*
G36*
X354429Y308891D02*
X353776Y308761D01*
X353223Y308391D01*
X352853Y307838D01*
X352723Y307185D01*
X352853Y306532D01*
X353223Y305979D01*
X353776Y305609D01*
X353799Y305604D01*
X353905Y305073D01*
X353715Y304946D01*
X353345Y304393D01*
X353215Y303740D01*
X353345Y303087D01*
X353715Y302534D01*
X354063Y302301D01*
X353911Y301801D01*
X352942D01*
X352880Y301895D01*
X352326Y302265D01*
X351673Y302395D01*
X351020Y302265D01*
X350467Y301895D01*
X350097Y301342D01*
X349967Y300689D01*
X350097Y300036D01*
X350467Y299483D01*
X351020Y299113D01*
X351673Y298983D01*
X352326Y299113D01*
X352726Y299380D01*
X361014D01*
X361878Y298516D01*
X362006Y297871D01*
X362376Y297317D01*
X362930Y296948D01*
X363583Y296818D01*
X364235Y296948D01*
X364789Y297317D01*
X365159Y297871D01*
X365289Y298524D01*
X365159Y299177D01*
X364789Y299730D01*
X364235Y300100D01*
X363590Y300228D01*
X362372Y301447D01*
X361979Y301709D01*
X361516Y301801D01*
X361516Y301801D01*
X355931D01*
X355779Y302301D01*
X356128Y302534D01*
X356497Y303087D01*
X356627Y303740D01*
X356497Y304393D01*
X356128Y304946D01*
X355814Y305156D01*
X355724Y305747D01*
X355731Y305767D01*
X355919Y305974D01*
X360128D01*
X364363Y301740D01*
X364467Y301217D01*
X364837Y300664D01*
X365390Y300294D01*
X366043Y300164D01*
X366696Y300294D01*
X367250Y300664D01*
X367619Y301217D01*
X367749Y301870D01*
X367619Y302523D01*
X367250Y303076D01*
X366696Y303446D01*
X366043Y303576D01*
X365966Y303561D01*
X361486Y308041D01*
X361093Y308303D01*
X360630Y308396D01*
X360630Y308396D01*
X355629D01*
X355082Y308761D01*
X354429Y308891D01*
D02*
G37*
G36*
X291485Y317209D02*
X290832Y317080D01*
X290278Y316710D01*
X289909Y316156D01*
X289779Y315503D01*
X289909Y314851D01*
X289931Y314817D01*
Y311614D01*
X289931Y311614D01*
X290023Y311151D01*
X290286Y310758D01*
X297766Y303278D01*
X298159Y303015D01*
X298622Y302923D01*
X298622Y302923D01*
X306826D01*
X308827Y300922D01*
X308955Y300277D01*
X309325Y299724D01*
X309879Y299354D01*
X310531Y299224D01*
X311184Y299354D01*
X311738Y299724D01*
X312108Y300277D01*
X312238Y300930D01*
X312108Y301583D01*
X311738Y302136D01*
X311184Y302506D01*
X310539Y302634D01*
X308184Y304990D01*
X307791Y305252D01*
X307328Y305345D01*
X307328Y305345D01*
X299124D01*
X292352Y312116D01*
Y314071D01*
X292691Y314297D01*
X293061Y314851D01*
X293191Y315503D01*
X293061Y316156D01*
X292691Y316710D01*
X292138Y317080D01*
X291485Y317209D01*
D02*
G37*
G36*
X324705Y301903D02*
X324052Y301773D01*
X323498Y301403D01*
X323129Y300850D01*
X322999Y300197D01*
X323129Y299544D01*
X323498Y298991D01*
X324013Y298647D01*
X324052Y298621D01*
X324459Y298517D01*
X324453Y298462D01*
X324268Y298039D01*
X312872D01*
X312872Y298039D01*
X312409Y297947D01*
X312016Y297685D01*
X312016Y297685D01*
X307079Y292748D01*
X306434Y292619D01*
X305880Y292250D01*
X305510Y291696D01*
X305381Y291043D01*
X305510Y290390D01*
X305880Y289837D01*
X306434Y289467D01*
X307087Y289337D01*
X307739Y289467D01*
X308293Y289837D01*
X308663Y290390D01*
X308791Y291036D01*
X313373Y295618D01*
X323721D01*
Y286614D01*
X332185D01*
Y295618D01*
X334957D01*
X335127Y295118D01*
X334777Y294849D01*
X334098Y293965D01*
X333672Y292936D01*
X333526Y291831D01*
Y290846D01*
X333672Y289742D01*
X334098Y288712D01*
X334777Y287828D01*
X335661Y287150D01*
X336690Y286723D01*
X337795Y286578D01*
X338900Y286723D01*
X339930Y287150D01*
X340814Y287828D01*
X341492Y288712D01*
X341919Y289742D01*
X342064Y290846D01*
Y291831D01*
X341919Y292936D01*
X341492Y293965D01*
X340814Y294849D01*
X340463Y295118D01*
X340633Y295618D01*
X344800D01*
X344970Y295118D01*
X344619Y294849D01*
X343941Y293965D01*
X343514Y292936D01*
X343369Y291831D01*
Y290846D01*
X343514Y289742D01*
X343941Y288712D01*
X344619Y287828D01*
X345503Y287150D01*
X346533Y286723D01*
X347638Y286578D01*
X348743Y286723D01*
X349772Y287150D01*
X350656Y287828D01*
X351335Y288712D01*
X351761Y289742D01*
X351907Y290846D01*
Y291831D01*
X351761Y292936D01*
X351335Y293965D01*
X350656Y294849D01*
X350306Y295118D01*
X350476Y295618D01*
X357068D01*
X357615Y295252D01*
X358268Y295123D01*
X358921Y295252D01*
X359474Y295622D01*
X359844Y296176D01*
X359974Y296829D01*
X359844Y297481D01*
X359474Y298035D01*
X358921Y298405D01*
X358268Y298535D01*
X357615Y298405D01*
X357068Y298039D01*
X325142D01*
X324956Y298462D01*
X324951Y298517D01*
X325358Y298621D01*
X325397Y298647D01*
X325911Y298991D01*
X326281Y299544D01*
X326411Y300197D01*
X326281Y300850D01*
X325911Y301403D01*
X325358Y301773D01*
X324705Y301903D01*
D02*
G37*
G36*
X301378Y301115D02*
X300725Y300986D01*
X300172Y300616D01*
X299802Y300062D01*
X299672Y299410D01*
X299802Y298757D01*
X300172Y298203D01*
X300725Y297833D01*
X301378Y297704D01*
X302031Y297833D01*
X302584Y298203D01*
X302954Y298757D01*
X303084Y299410D01*
X302954Y300062D01*
X302584Y300616D01*
X302031Y300986D01*
X301378Y301115D01*
D02*
G37*
G36*
X159449Y300886D02*
X151969D01*
Y291437D01*
X159449D01*
Y300886D01*
D02*
G37*
G36*
X205709Y300918D02*
X204732Y300790D01*
X203822Y300413D01*
X203041Y299813D01*
X202442Y299032D01*
X202065Y298122D01*
X201936Y297146D01*
Y295177D01*
X202065Y294201D01*
X202442Y293291D01*
X203041Y292510D01*
X203822Y291910D01*
X204732Y291533D01*
X205709Y291405D01*
X206685Y291533D01*
X207595Y291910D01*
X208376Y292510D01*
X208976Y293291D01*
X209352Y294201D01*
X209481Y295177D01*
Y297146D01*
X209352Y298122D01*
X208976Y299032D01*
X208376Y299813D01*
X207595Y300413D01*
X206685Y300790D01*
X205709Y300918D01*
D02*
G37*
G36*
X195709D02*
X194732Y300790D01*
X193823Y300413D01*
X193041Y299813D01*
X192442Y299032D01*
X192065Y298122D01*
X191936Y297146D01*
Y295177D01*
X192065Y294201D01*
X192442Y293291D01*
X193041Y292510D01*
X193823Y291910D01*
X194732Y291533D01*
X195709Y291405D01*
X196685Y291533D01*
X197595Y291910D01*
X198376Y292510D01*
X198976Y293291D01*
X199353Y294201D01*
X199481Y295177D01*
Y297146D01*
X199353Y298122D01*
X198976Y299032D01*
X198376Y299813D01*
X197595Y300413D01*
X196685Y300790D01*
X195709Y300918D01*
D02*
G37*
G36*
X185709D02*
X184732Y300790D01*
X183823Y300413D01*
X183041Y299813D01*
X182442Y299032D01*
X182065Y298122D01*
X181936Y297146D01*
Y295177D01*
X182065Y294201D01*
X182442Y293291D01*
X183041Y292510D01*
X183823Y291910D01*
X184732Y291533D01*
X185709Y291405D01*
X186685Y291533D01*
X187595Y291910D01*
X188376Y292510D01*
X188976Y293291D01*
X189353Y294201D01*
X189481Y295177D01*
Y297146D01*
X189353Y298122D01*
X188976Y299032D01*
X188376Y299813D01*
X187595Y300413D01*
X186685Y300790D01*
X185709Y300918D01*
D02*
G37*
G36*
X175709D02*
X174732Y300790D01*
X173822Y300413D01*
X173041Y299813D01*
X172442Y299032D01*
X172065Y298122D01*
X171936Y297146D01*
Y295177D01*
X172065Y294201D01*
X172442Y293291D01*
X173041Y292510D01*
X173822Y291910D01*
X174732Y291533D01*
X175709Y291405D01*
X176685Y291533D01*
X177595Y291910D01*
X178376Y292510D01*
X178976Y293291D01*
X179352Y294201D01*
X179481Y295177D01*
Y297146D01*
X179352Y298122D01*
X178976Y299032D01*
X178376Y299813D01*
X177595Y300413D01*
X176685Y300790D01*
X175709Y300918D01*
D02*
G37*
G36*
X165709D02*
X164732Y300790D01*
X163822Y300413D01*
X163041Y299813D01*
X162442Y299032D01*
X162065Y298122D01*
X161936Y297146D01*
Y295177D01*
X162065Y294201D01*
X162442Y293291D01*
X163041Y292510D01*
X163822Y291910D01*
X164732Y291533D01*
X165709Y291405D01*
X166685Y291533D01*
X167595Y291910D01*
X168376Y292510D01*
X168976Y293291D01*
X169352Y294201D01*
X169481Y295177D01*
Y297146D01*
X169352Y298122D01*
X168976Y299032D01*
X168376Y299813D01*
X167595Y300413D01*
X166685Y300790D01*
X165709Y300918D01*
D02*
G37*
G36*
X287697Y294521D02*
X287044Y294391D01*
X286491Y294021D01*
X286121Y293468D01*
X285991Y292815D01*
X286121Y292162D01*
X286491Y291609D01*
X287044Y291239D01*
X287697Y291109D01*
X288350Y291239D01*
X288903Y291609D01*
X289273Y292162D01*
X289403Y292815D01*
X289273Y293468D01*
X288903Y294021D01*
X288350Y294391D01*
X287697Y294521D01*
D02*
G37*
G36*
X257461Y291416D02*
X256809Y291286D01*
X256255Y290917D01*
X255885Y290363D01*
X255755Y289710D01*
X255885Y289057D01*
X256255Y288504D01*
X256809Y288134D01*
X257461Y288004D01*
X258114Y288134D01*
X258668Y288504D01*
X259038Y289057D01*
X259167Y289710D01*
X259038Y290363D01*
X258668Y290917D01*
X258114Y291286D01*
X257461Y291416D01*
D02*
G37*
G36*
X210925Y290486D02*
X210272Y290356D01*
X209719Y289986D01*
X209349Y289432D01*
X209219Y288779D01*
X209349Y288127D01*
X209719Y287573D01*
X210272Y287203D01*
X210925Y287073D01*
X211578Y287203D01*
X212132Y287573D01*
X212501Y288127D01*
X212631Y288779D01*
X212501Y289432D01*
X212132Y289986D01*
X211578Y290356D01*
X210925Y290486D01*
D02*
G37*
G36*
X177559Y290092D02*
X176906Y289962D01*
X176353Y289592D01*
X175983Y289039D01*
X175853Y288386D01*
X175983Y287733D01*
X176353Y287179D01*
X176906Y286810D01*
X177559Y286680D01*
X178212Y286810D01*
X178765Y287179D01*
X179135Y287733D01*
X179265Y288386D01*
X179135Y289039D01*
X178765Y289592D01*
X178212Y289962D01*
X177559Y290092D01*
D02*
G37*
G36*
X292224Y289600D02*
X291571Y289470D01*
X291018Y289100D01*
X290648Y288547D01*
X290518Y287894D01*
X290648Y287241D01*
X291018Y286687D01*
X291571Y286318D01*
X292224Y286188D01*
X292877Y286318D01*
X293431Y286687D01*
X293801Y287241D01*
X293930Y287894D01*
X293801Y288547D01*
X293431Y289100D01*
X292877Y289470D01*
X292224Y289600D01*
D02*
G37*
G36*
X352737Y288615D02*
X352084Y288486D01*
X351531Y288116D01*
X351161Y287562D01*
X351031Y286910D01*
X351161Y286257D01*
X351531Y285703D01*
X352084Y285333D01*
X352737Y285204D01*
X353390Y285333D01*
X353943Y285703D01*
X354313Y286257D01*
X354443Y286910D01*
X354313Y287562D01*
X353943Y288116D01*
X353390Y288486D01*
X352737Y288615D01*
D02*
G37*
G36*
X244587Y288222D02*
X243934Y288092D01*
X243380Y287722D01*
X243010Y287169D01*
X242881Y286516D01*
X243010Y285863D01*
X243380Y285309D01*
X243934Y284940D01*
X244587Y284810D01*
X245239Y284940D01*
X245793Y285309D01*
X246163Y285863D01*
X246293Y286516D01*
X246163Y287169D01*
X245793Y287722D01*
X245239Y288092D01*
X244587Y288222D01*
D02*
G37*
G36*
X189764Y287730D02*
X189111Y287600D01*
X188558Y287230D01*
X188188Y286677D01*
X188058Y286024D01*
X188188Y285371D01*
X188558Y284817D01*
X189111Y284448D01*
X189764Y284318D01*
X190417Y284448D01*
X190970Y284817D01*
X191340Y285371D01*
X191470Y286024D01*
X191340Y286677D01*
X190970Y287230D01*
X190417Y287600D01*
X189764Y287730D01*
D02*
G37*
G36*
X160433Y286056D02*
X159780Y285927D01*
X159227Y285557D01*
X158857Y285003D01*
X158727Y284350D01*
X158857Y283698D01*
X159227Y283144D01*
X159780Y282774D01*
X160433Y282644D01*
X161086Y282774D01*
X161639Y283144D01*
X162009Y283698D01*
X162139Y284350D01*
X162009Y285003D01*
X161639Y285557D01*
X161086Y285927D01*
X160433Y286056D01*
D02*
G37*
G36*
X281398Y285367D02*
X280745Y285238D01*
X280191Y284868D01*
X279821Y284314D01*
X279692Y283661D01*
X279821Y283009D01*
X280191Y282455D01*
X280745Y282085D01*
X281398Y281955D01*
X282050Y282085D01*
X282604Y282455D01*
X282974Y283009D01*
X283104Y283661D01*
X282974Y284314D01*
X282604Y284868D01*
X282050Y285238D01*
X281398Y285367D01*
D02*
G37*
G36*
X124311Y291104D02*
X123078Y290941D01*
X121928Y290465D01*
X120941Y289708D01*
X120184Y288721D01*
X119708Y287572D01*
X119546Y286339D01*
X119708Y285105D01*
X120184Y283956D01*
X120941Y282969D01*
X121928Y282212D01*
X123078Y281736D01*
X123955Y281620D01*
X124179Y281591D01*
Y281086D01*
X123955Y281057D01*
X123078Y280941D01*
X121928Y280465D01*
X120941Y279708D01*
X120184Y278721D01*
X119708Y277572D01*
X119546Y276339D01*
X119708Y275105D01*
X120184Y273956D01*
X120941Y272969D01*
X121928Y272212D01*
X123078Y271736D01*
X123955Y271620D01*
X124179Y271591D01*
Y271087D01*
X123955Y271057D01*
X123078Y270941D01*
X121928Y270465D01*
X120941Y269708D01*
X120184Y268721D01*
X119708Y267572D01*
X119546Y266339D01*
X119708Y265105D01*
X120184Y263956D01*
X120941Y262969D01*
X121928Y262212D01*
X123078Y261736D01*
X123955Y261620D01*
X124179Y261591D01*
Y261087D01*
X123955Y261057D01*
X123078Y260941D01*
X121928Y260465D01*
X120941Y259708D01*
X120184Y258721D01*
X119708Y257572D01*
X119546Y256339D01*
X119708Y255105D01*
X120184Y253956D01*
X120941Y252969D01*
X121928Y252212D01*
X123078Y251736D01*
X123955Y251620D01*
X124179Y251591D01*
Y251086D01*
X123955Y251057D01*
X123078Y250941D01*
X121928Y250465D01*
X120941Y249708D01*
X120184Y248721D01*
X119708Y247572D01*
X119546Y246339D01*
X119708Y245105D01*
X120184Y243956D01*
X120941Y242969D01*
X121928Y242212D01*
X123078Y241736D01*
X124311Y241573D01*
X125544Y241736D01*
X126694Y242212D01*
X127681Y242969D01*
X128438Y243956D01*
X128914Y245105D01*
X128929Y245221D01*
X129429Y245189D01*
Y241614D01*
X138878D01*
Y251063D01*
X129429D01*
Y247488D01*
X128929Y247456D01*
X128914Y247572D01*
X128438Y248721D01*
X127681Y249708D01*
X126694Y250465D01*
X125544Y250941D01*
X124667Y251057D01*
X124443Y251086D01*
Y251591D01*
X124667Y251620D01*
X125544Y251736D01*
X126694Y252212D01*
X127681Y252969D01*
X128438Y253956D01*
X128914Y255105D01*
X128929Y255222D01*
X129429Y255189D01*
Y251614D01*
X138878D01*
Y261063D01*
X129429D01*
Y257488D01*
X128929Y257456D01*
X128914Y257572D01*
X128438Y258721D01*
X127681Y259708D01*
X126694Y260465D01*
X125544Y260941D01*
X124667Y261057D01*
X124443Y261087D01*
Y261591D01*
X124667Y261620D01*
X125544Y261736D01*
X126694Y262212D01*
X127681Y262969D01*
X128438Y263956D01*
X128914Y265105D01*
X128929Y265222D01*
X129429Y265189D01*
Y261614D01*
X138878D01*
Y271063D01*
X129429D01*
Y267489D01*
X128929Y267456D01*
X128914Y267572D01*
X128438Y268721D01*
X127681Y269708D01*
X126694Y270465D01*
X125544Y270941D01*
X124667Y271057D01*
X124443Y271087D01*
Y271591D01*
X124667Y271620D01*
X125544Y271736D01*
X126694Y272212D01*
X127681Y272969D01*
X128438Y273956D01*
X128914Y275105D01*
X128929Y275221D01*
X129429Y275189D01*
Y271614D01*
X138878D01*
Y281063D01*
X129429D01*
Y277488D01*
X128929Y277456D01*
X128914Y277572D01*
X128438Y278721D01*
X127681Y279708D01*
X126694Y280465D01*
X125544Y280941D01*
X124667Y281057D01*
X124443Y281086D01*
Y281591D01*
X124667Y281620D01*
X125544Y281736D01*
X126694Y282212D01*
X127681Y282969D01*
X128438Y283956D01*
X128914Y285105D01*
X128929Y285222D01*
X129429Y285189D01*
Y281614D01*
X138878D01*
Y291063D01*
X129429D01*
Y287489D01*
X128929Y287456D01*
X128914Y287572D01*
X128438Y288721D01*
X127681Y289708D01*
X126694Y290465D01*
X125544Y290941D01*
X124311Y291104D01*
D02*
G37*
G36*
X153937Y283675D02*
X153284Y283545D01*
X152731Y283176D01*
X152361Y282622D01*
X152231Y281969D01*
X152361Y281316D01*
X152731Y280763D01*
X153284Y280393D01*
X153937Y280263D01*
X154590Y280393D01*
X155143Y280763D01*
X155513Y281316D01*
X155643Y281969D01*
X155513Y282622D01*
X155143Y283176D01*
X154590Y283545D01*
X153937Y283675D01*
D02*
G37*
G36*
X236122Y282808D02*
X235469Y282679D01*
X234916Y282309D01*
X234546Y281755D01*
X234416Y281102D01*
X234546Y280450D01*
X234916Y279896D01*
X235469Y279526D01*
X236122Y279396D01*
X236775Y279526D01*
X237328Y279896D01*
X237698Y280450D01*
X237828Y281102D01*
X237698Y281755D01*
X237328Y282309D01*
X236775Y282679D01*
X236122Y282808D01*
D02*
G37*
G36*
X202264Y280938D02*
X201611Y280808D01*
X201058Y280439D01*
X200688Y279885D01*
X200558Y279232D01*
X200688Y278579D01*
X201058Y278026D01*
X201611Y277656D01*
X202264Y277526D01*
X202917Y277656D01*
X203470Y278026D01*
X203840Y278579D01*
X203970Y279232D01*
X203840Y279885D01*
X203470Y280439D01*
X202917Y280808D01*
X202264Y280938D01*
D02*
G37*
G36*
X388732Y279411D02*
X386858D01*
X385870Y279280D01*
X384948Y278899D01*
X384157Y278292D01*
X383550Y277501D01*
X383168Y276579D01*
X382677Y276652D01*
Y279378D01*
X373228D01*
Y271803D01*
X382677D01*
Y274529D01*
X383168Y274602D01*
X383550Y273680D01*
X384157Y272889D01*
X384948Y272282D01*
X385870Y271901D01*
X386858Y271771D01*
X388732D01*
X389721Y271901D01*
X390642Y272282D01*
X391434Y272889D01*
X392041Y273680D01*
X392422Y274602D01*
X392552Y275590D01*
X392422Y276579D01*
X392041Y277501D01*
X391434Y278292D01*
X390642Y278899D01*
X389721Y279280D01*
X388732Y279411D01*
D02*
G37*
G36*
X253839Y276115D02*
X253186Y275986D01*
X252632Y275616D01*
X252262Y275062D01*
X252133Y274410D01*
X252262Y273757D01*
X252632Y273203D01*
X253186Y272833D01*
X253839Y272704D01*
X254491Y272833D01*
X255045Y273203D01*
X255415Y273757D01*
X255545Y274410D01*
X255415Y275062D01*
X255045Y275616D01*
X254491Y275986D01*
X253839Y276115D01*
D02*
G37*
G36*
X228740Y274738D02*
X228087Y274608D01*
X227534Y274238D01*
X227164Y273684D01*
X227034Y273031D01*
X227164Y272379D01*
X227534Y271825D01*
X228087Y271455D01*
X228740Y271325D01*
X229393Y271455D01*
X229946Y271825D01*
X230316Y272379D01*
X230446Y273031D01*
X230316Y273684D01*
X229946Y274238D01*
X229393Y274608D01*
X228740Y274738D01*
D02*
G37*
G36*
X196752Y271883D02*
X196099Y271753D01*
X195546Y271384D01*
X195176Y270830D01*
X195046Y270177D01*
X195176Y269524D01*
X195546Y268971D01*
X196099Y268601D01*
X196752Y268471D01*
X197405Y268601D01*
X197958Y268971D01*
X198328Y269524D01*
X198458Y270177D01*
X198328Y270830D01*
X197958Y271384D01*
X197405Y271753D01*
X196752Y271883D01*
D02*
G37*
G36*
X337402Y275032D02*
X336425Y274904D01*
X335515Y274527D01*
X334734Y273927D01*
X334135Y273146D01*
X333758Y272236D01*
X333629Y271260D01*
X333758Y270284D01*
X334135Y269374D01*
X334734Y268592D01*
X335515Y267993D01*
X336425Y267616D01*
X337402Y267487D01*
X338378Y267616D01*
X339288Y267993D01*
X340069Y268592D01*
X340669Y269374D01*
X341045Y270284D01*
X341174Y271260D01*
X341045Y272236D01*
X340669Y273146D01*
X340069Y273927D01*
X339288Y274527D01*
X338378Y274904D01*
X337402Y275032D01*
D02*
G37*
G36*
X327402D02*
X326425Y274904D01*
X325515Y274527D01*
X324734Y273927D01*
X324135Y273146D01*
X323758Y272236D01*
X323629Y271260D01*
X323758Y270284D01*
X324135Y269374D01*
X324734Y268592D01*
X325515Y267993D01*
X326425Y267616D01*
X327402Y267487D01*
X328378Y267616D01*
X329288Y267993D01*
X330069Y268592D01*
X330669Y269374D01*
X331045Y270284D01*
X331174Y271260D01*
X331045Y272236D01*
X330669Y273146D01*
X330069Y273927D01*
X329288Y274527D01*
X328378Y274904D01*
X327402Y275032D01*
D02*
G37*
G36*
X314764Y270702D02*
X314111Y270572D01*
X313558Y270202D01*
X313188Y269649D01*
X313058Y268996D01*
X313188Y268343D01*
X313558Y267790D01*
X314111Y267420D01*
X314764Y267290D01*
X315417Y267420D01*
X315970Y267790D01*
X316340Y268343D01*
X316470Y268996D01*
X316340Y269649D01*
X315970Y270202D01*
X315417Y270572D01*
X314764Y270702D01*
D02*
G37*
G36*
X388732Y269411D02*
X386858D01*
X385870Y269281D01*
X384948Y268899D01*
X384157Y268292D01*
X383550Y267501D01*
X383168Y266579D01*
X382677Y266652D01*
Y269378D01*
X373228D01*
Y261803D01*
X382677D01*
Y264529D01*
X383168Y264602D01*
X383550Y263681D01*
X384157Y262889D01*
X384948Y262282D01*
X385870Y261901D01*
X386858Y261771D01*
X388732D01*
X389721Y261901D01*
X390642Y262282D01*
X391434Y262889D01*
X392041Y263681D01*
X392422Y264602D01*
X392552Y265591D01*
X392422Y266579D01*
X392041Y267501D01*
X391434Y268292D01*
X390642Y268899D01*
X389721Y269281D01*
X388732Y269411D01*
D02*
G37*
G36*
X343307Y268340D02*
X342654Y268210D01*
X342101Y267840D01*
X341731Y267287D01*
X341601Y266634D01*
X341731Y265981D01*
X342101Y265427D01*
X342654Y265058D01*
X343307Y264928D01*
X343960Y265058D01*
X344513Y265427D01*
X344883Y265981D01*
X345013Y266634D01*
X344883Y267287D01*
X344513Y267840D01*
X343960Y268210D01*
X343307Y268340D01*
D02*
G37*
G36*
X315846Y265978D02*
X315194Y265848D01*
X314640Y265478D01*
X314270Y264925D01*
X314141Y264272D01*
X314270Y263619D01*
X314640Y263065D01*
X315194Y262696D01*
X315846Y262566D01*
X316499Y262696D01*
X317053Y263065D01*
X317423Y263619D01*
X317552Y264272D01*
X317423Y264925D01*
X317053Y265478D01*
X316499Y265848D01*
X315846Y265978D01*
D02*
G37*
G36*
X286713Y261253D02*
X286060Y261123D01*
X285506Y260754D01*
X285137Y260200D01*
X285007Y259547D01*
X285137Y258894D01*
X285506Y258341D01*
X286060Y257971D01*
X286713Y257841D01*
X287366Y257971D01*
X287919Y258341D01*
X288289Y258894D01*
X288419Y259547D01*
X288289Y260200D01*
X287919Y260754D01*
X287366Y261123D01*
X286713Y261253D01*
D02*
G37*
G36*
X331142Y265000D02*
X323661D01*
Y257520D01*
X331142D01*
Y265000D01*
D02*
G37*
G36*
X347402Y265032D02*
X346425Y264904D01*
X345515Y264527D01*
X344734Y263927D01*
X344135Y263146D01*
X343758Y262236D01*
X343629Y261260D01*
X343758Y260283D01*
X344135Y259374D01*
X344734Y258592D01*
X345515Y257993D01*
X346425Y257616D01*
X347402Y257487D01*
X348378Y257616D01*
X349288Y257993D01*
X350069Y258592D01*
X350669Y259374D01*
X351045Y260283D01*
X351174Y261260D01*
X351045Y262236D01*
X350669Y263146D01*
X350069Y263927D01*
X349288Y264527D01*
X348378Y264904D01*
X347402Y265032D01*
D02*
G37*
G36*
X337402D02*
X336425Y264904D01*
X335515Y264527D01*
X334734Y263927D01*
X334135Y263146D01*
X333758Y262236D01*
X333629Y261260D01*
X333758Y260283D01*
X334135Y259374D01*
X334734Y258592D01*
X335515Y257993D01*
X336425Y257616D01*
X337402Y257487D01*
X338378Y257616D01*
X339288Y257993D01*
X340069Y258592D01*
X340669Y259374D01*
X341045Y260283D01*
X341174Y261260D01*
X341045Y262236D01*
X340669Y263146D01*
X340069Y263927D01*
X339288Y264527D01*
X338378Y264904D01*
X337402Y265032D01*
D02*
G37*
G36*
X387795Y260356D02*
X386562Y260193D01*
X385413Y259717D01*
X384426Y258960D01*
X383668Y257973D01*
X383192Y256824D01*
X383177Y256708D01*
X382677Y256740D01*
Y260315D01*
X373228D01*
Y250866D01*
X382677D01*
Y254441D01*
X383177Y254473D01*
X383192Y254357D01*
X383668Y253208D01*
X384426Y252221D01*
X385413Y251464D01*
X386562Y250988D01*
X387439Y250872D01*
X387664Y250843D01*
Y250338D01*
X387439Y250309D01*
X386562Y250193D01*
X385413Y249717D01*
X384426Y248960D01*
X383668Y247973D01*
X383192Y246824D01*
X383177Y246708D01*
X382677Y246740D01*
Y250315D01*
X373228D01*
Y240866D01*
X382677D01*
Y244441D01*
X383177Y244473D01*
X383192Y244357D01*
X383668Y243208D01*
X384426Y242221D01*
X385413Y241464D01*
X386562Y240988D01*
X387439Y240872D01*
X387664Y240843D01*
Y240338D01*
X387439Y240309D01*
X386562Y240193D01*
X385413Y239717D01*
X384426Y238960D01*
X383668Y237973D01*
X383192Y236824D01*
X383177Y236708D01*
X382677Y236740D01*
Y240315D01*
X373228D01*
Y230866D01*
X382677D01*
Y234441D01*
X383177Y234473D01*
X383192Y234357D01*
X383668Y233208D01*
X384426Y232221D01*
X385413Y231464D01*
X386562Y230988D01*
X387795Y230825D01*
X389029Y230988D01*
X390178Y231464D01*
X391165Y232221D01*
X391922Y233208D01*
X392398Y234357D01*
X392561Y235591D01*
X392398Y236824D01*
X391922Y237973D01*
X391165Y238960D01*
X390178Y239717D01*
X389029Y240193D01*
X388151Y240309D01*
X387927Y240338D01*
Y240843D01*
X388151Y240872D01*
X389029Y240988D01*
X390178Y241464D01*
X391165Y242221D01*
X391922Y243208D01*
X392398Y244357D01*
X392561Y245590D01*
X392398Y246824D01*
X391922Y247973D01*
X391165Y248960D01*
X390178Y249717D01*
X389029Y250193D01*
X388151Y250309D01*
X387927Y250338D01*
Y250843D01*
X388151Y250872D01*
X389029Y250988D01*
X390178Y251464D01*
X391165Y252221D01*
X391922Y253208D01*
X392398Y254357D01*
X392561Y255591D01*
X392398Y256824D01*
X391922Y257973D01*
X391165Y258960D01*
X390178Y259717D01*
X389029Y260193D01*
X387795Y260356D01*
D02*
G37*
G36*
X306791Y253281D02*
X306138Y253151D01*
X305585Y252781D01*
X305215Y252228D01*
X305085Y251575D01*
X305215Y250922D01*
X305585Y250368D01*
X306138Y249999D01*
X306791Y249869D01*
X307444Y249999D01*
X307998Y250368D01*
X308367Y250922D01*
X308497Y251575D01*
X308367Y252228D01*
X307998Y252781D01*
X307444Y253151D01*
X306791Y253281D01*
D02*
G37*
G36*
X287803Y250926D02*
X287150Y250796D01*
X286597Y250427D01*
X286227Y249873D01*
X286097Y249220D01*
X286227Y248567D01*
X286597Y248014D01*
X287150Y247644D01*
X287803Y247514D01*
X288456Y247644D01*
X289009Y248014D01*
X289379Y248567D01*
X289509Y249220D01*
X289379Y249873D01*
X289009Y250427D01*
X288456Y250796D01*
X287803Y250926D01*
D02*
G37*
G36*
X225984Y249738D02*
X225331Y249608D01*
X224778Y249238D01*
X224408Y248684D01*
X224278Y248031D01*
X224408Y247379D01*
X224778Y246825D01*
X225331Y246455D01*
X225984Y246325D01*
X226637Y246455D01*
X227191Y246825D01*
X227560Y247379D01*
X227690Y248031D01*
X227560Y248684D01*
X227191Y249238D01*
X226637Y249608D01*
X225984Y249738D01*
D02*
G37*
G36*
X283465Y247178D02*
X282812Y247049D01*
X282258Y246679D01*
X281888Y246125D01*
X281759Y245472D01*
X281888Y244820D01*
X282258Y244266D01*
X282812Y243896D01*
X283465Y243766D01*
X284117Y243896D01*
X284671Y244266D01*
X285041Y244820D01*
X285171Y245472D01*
X285041Y246125D01*
X284671Y246679D01*
X284117Y247049D01*
X283465Y247178D01*
D02*
G37*
G36*
X169488Y252797D02*
X168255Y252634D01*
X167106Y252158D01*
X166119Y251401D01*
X165361Y250414D01*
X164885Y249265D01*
X164723Y248031D01*
X164885Y246798D01*
X165361Y245649D01*
X166119Y244662D01*
X167106Y243905D01*
X168255Y243429D01*
X169488Y243266D01*
X170721Y243429D01*
X171871Y243905D01*
X172858Y244662D01*
X173615Y245649D01*
X174091Y246798D01*
X174106Y246914D01*
X174606Y246882D01*
Y243307D01*
X184055D01*
Y252756D01*
X174606D01*
Y249181D01*
X174106Y249149D01*
X174091Y249265D01*
X173615Y250414D01*
X172858Y251401D01*
X171871Y252158D01*
X170721Y252634D01*
X169488Y252797D01*
D02*
G37*
G36*
X355217Y244521D02*
X354564Y244391D01*
X354010Y244021D01*
X353640Y243468D01*
X353510Y242815D01*
X353640Y242162D01*
X354010Y241609D01*
X354564Y241239D01*
X355217Y241109D01*
X355869Y241239D01*
X356423Y241609D01*
X356793Y242162D01*
X356923Y242815D01*
X356793Y243468D01*
X356423Y244021D01*
X355869Y244391D01*
X355217Y244521D01*
D02*
G37*
G36*
X282185Y242060D02*
X281532Y241931D01*
X280979Y241561D01*
X280609Y241007D01*
X280479Y240354D01*
X280609Y239702D01*
X280979Y239148D01*
X281532Y238778D01*
X282185Y238648D01*
X282838Y238778D01*
X283391Y239148D01*
X283761Y239702D01*
X283891Y240354D01*
X283761Y241007D01*
X283391Y241561D01*
X282838Y241931D01*
X282185Y242060D01*
D02*
G37*
G36*
X293110Y241371D02*
X292457Y241242D01*
X291904Y240872D01*
X291534Y240318D01*
X291404Y239665D01*
X291534Y239013D01*
X291904Y238459D01*
X292457Y238089D01*
X293110Y237959D01*
X293763Y238089D01*
X294317Y238459D01*
X294686Y239013D01*
X294816Y239665D01*
X294686Y240318D01*
X294317Y240872D01*
X293763Y241242D01*
X293110Y241371D01*
D02*
G37*
G36*
X330217Y242435D02*
X329564Y242305D01*
X329010Y241935D01*
X328640Y241382D01*
X328510Y240729D01*
X328547Y240546D01*
X328087Y240454D01*
X327534Y240084D01*
X327164Y239531D01*
X327034Y238878D01*
X327164Y238225D01*
X327534Y237672D01*
X328087Y237302D01*
X328740Y237172D01*
X329393Y237302D01*
X329946Y237672D01*
X330316Y238225D01*
X330446Y238878D01*
X330410Y239061D01*
X330869Y239153D01*
X331423Y239523D01*
X331793Y240076D01*
X331923Y240729D01*
X331793Y241382D01*
X331423Y241935D01*
X330869Y242305D01*
X330217Y242435D01*
D02*
G37*
G36*
X362500Y240387D02*
X361847Y240257D01*
X361294Y239887D01*
X360924Y239334D01*
X360794Y238681D01*
X360924Y238028D01*
X361294Y237475D01*
X361847Y237105D01*
X362500Y236975D01*
X363153Y237105D01*
X363706Y237475D01*
X364076Y238028D01*
X364206Y238681D01*
X364076Y239334D01*
X363706Y239887D01*
X363153Y240257D01*
X362500Y240387D01*
D02*
G37*
G36*
X297835Y239600D02*
X297182Y239470D01*
X296628Y239100D01*
X296258Y238547D01*
X296129Y237894D01*
X296258Y237241D01*
X296628Y236687D01*
X297182Y236318D01*
X297835Y236188D01*
X298487Y236318D01*
X299041Y236687D01*
X299411Y237241D01*
X299541Y237894D01*
X299411Y238547D01*
X299041Y239100D01*
X298487Y239470D01*
X297835Y239600D01*
D02*
G37*
G36*
X258858Y230052D02*
X258205Y229923D01*
X257652Y229553D01*
X257282Y228999D01*
X257152Y228346D01*
X257282Y227694D01*
X257652Y227140D01*
X258205Y226770D01*
X258858Y226641D01*
X259511Y226770D01*
X260065Y227140D01*
X260434Y227694D01*
X260564Y228346D01*
X260434Y228999D01*
X260065Y229553D01*
X259511Y229923D01*
X258858Y230052D01*
D02*
G37*
G36*
X274410Y228970D02*
X273757Y228840D01*
X273203Y228470D01*
X272833Y227917D01*
X272704Y227264D01*
X272833Y226611D01*
X273203Y226058D01*
X273757Y225688D01*
X274410Y225558D01*
X275062Y225688D01*
X275616Y226058D01*
X275986Y226611D01*
X276115Y227264D01*
X275986Y227917D01*
X275616Y228470D01*
X275062Y228840D01*
X274410Y228970D01*
D02*
G37*
G36*
X124016Y234883D02*
X122782Y234721D01*
X121633Y234245D01*
X120646Y233488D01*
X119889Y232501D01*
X119413Y231351D01*
X119251Y230118D01*
X119413Y228885D01*
X119889Y227735D01*
X120646Y226749D01*
X121633Y225991D01*
X122782Y225515D01*
X124016Y225353D01*
X125249Y225515D01*
X126398Y225991D01*
X127385Y226749D01*
X128142Y227735D01*
X128619Y228885D01*
X128634Y229001D01*
X129134Y228968D01*
Y225394D01*
X138583D01*
Y234842D01*
X129134D01*
Y231268D01*
X128634Y231235D01*
X128619Y231351D01*
X128142Y232501D01*
X127385Y233488D01*
X126398Y234245D01*
X125249Y234721D01*
X124016Y234883D01*
D02*
G37*
G36*
X278740Y227986D02*
X278087Y227856D01*
X277534Y227486D01*
X277164Y226932D01*
X277034Y226279D01*
X277164Y225627D01*
X277534Y225073D01*
X278087Y224703D01*
X278740Y224573D01*
X279393Y224703D01*
X279946Y225073D01*
X280316Y225627D01*
X280446Y226279D01*
X280316Y226932D01*
X279946Y227486D01*
X279393Y227856D01*
X278740Y227986D01*
D02*
G37*
G36*
X350689Y232080D02*
X349713Y231951D01*
X348803Y231574D01*
X348022Y230975D01*
X347422Y230193D01*
X347045Y229283D01*
X346917Y228307D01*
X347045Y227331D01*
X347422Y226421D01*
X348022Y225640D01*
X348803Y225040D01*
X349713Y224663D01*
X350689Y224535D01*
X351665Y224663D01*
X352575Y225040D01*
X353357Y225640D01*
X353956Y226421D01*
X354333Y227331D01*
X354461Y228307D01*
X354333Y229283D01*
X353956Y230193D01*
X353357Y230975D01*
X352575Y231574D01*
X351665Y231951D01*
X350689Y232080D01*
D02*
G37*
G36*
X272933Y218241D02*
X272280Y218112D01*
X271727Y217742D01*
X271357Y217188D01*
X271227Y216535D01*
X271357Y215883D01*
X271727Y215329D01*
X272280Y214959D01*
X272933Y214829D01*
X273586Y214959D01*
X274139Y215329D01*
X274509Y215883D01*
X274639Y216535D01*
X274509Y217188D01*
X274139Y217742D01*
X273586Y218112D01*
X272933Y218241D01*
D02*
G37*
G36*
X354429Y222047D02*
X346949D01*
Y214567D01*
X354429D01*
Y222047D01*
D02*
G37*
G36*
X340689Y222079D02*
X339713Y221951D01*
X338803Y221574D01*
X338021Y220975D01*
X337422Y220193D01*
X337045Y219284D01*
X336917Y218307D01*
X337045Y217331D01*
X337422Y216421D01*
X338021Y215640D01*
X338803Y215040D01*
X339713Y214663D01*
X340689Y214535D01*
X341665Y214663D01*
X342575Y215040D01*
X343356Y215640D01*
X343956Y216421D01*
X344333Y217331D01*
X344461Y218307D01*
X344333Y219284D01*
X343956Y220193D01*
X343356Y220975D01*
X342575Y221574D01*
X341665Y221951D01*
X340689Y222079D01*
D02*
G37*
G36*
X374114Y213812D02*
X373461Y213682D01*
X372908Y213313D01*
X372538Y212759D01*
X372408Y212106D01*
X372538Y211453D01*
X372908Y210900D01*
X373461Y210530D01*
X374114Y210400D01*
X374767Y210530D01*
X375321Y210900D01*
X375690Y211453D01*
X375820Y212106D01*
X375690Y212759D01*
X375321Y213313D01*
X374767Y213682D01*
X374114Y213812D01*
D02*
G37*
G36*
X124016Y217856D02*
X122782Y217693D01*
X121633Y217217D01*
X120646Y216460D01*
X119889Y215473D01*
X119413Y214324D01*
X119251Y213090D01*
X119413Y211857D01*
X119889Y210708D01*
X120646Y209721D01*
X121633Y208964D01*
X122782Y208488D01*
X124016Y208325D01*
X125249Y208488D01*
X126398Y208964D01*
X127385Y209721D01*
X128142Y210708D01*
X128619Y211857D01*
X128634Y211973D01*
X129134Y211941D01*
Y208366D01*
X138583D01*
Y217815D01*
X129134D01*
Y214240D01*
X128634Y214208D01*
X128619Y214324D01*
X128142Y215473D01*
X127385Y216460D01*
X126398Y217217D01*
X125249Y217693D01*
X124016Y217856D01*
D02*
G37*
G36*
X385318Y206430D02*
X384665Y206301D01*
X384112Y205931D01*
X383742Y205377D01*
X383612Y204724D01*
X383742Y204072D01*
X384112Y203518D01*
X384665Y203148D01*
X385318Y203018D01*
X385971Y203148D01*
X386524Y203518D01*
X386894Y204072D01*
X387024Y204724D01*
X386894Y205377D01*
X386524Y205931D01*
X385971Y206301D01*
X385318Y206430D01*
D02*
G37*
G36*
X363681Y202789D02*
X363028Y202659D01*
X362475Y202289D01*
X362105Y201735D01*
X361975Y201083D01*
X362105Y200430D01*
X362475Y199876D01*
X363028Y199506D01*
X363681Y199377D01*
X364334Y199506D01*
X364887Y199876D01*
X365257Y200430D01*
X365387Y201083D01*
X365257Y201735D01*
X364887Y202289D01*
X364334Y202659D01*
X363681Y202789D01*
D02*
G37*
G36*
X122047Y202493D02*
X121394Y202363D01*
X120841Y201994D01*
X120471Y201440D01*
X120341Y200787D01*
X120471Y200134D01*
X120841Y199581D01*
X121394Y199211D01*
X122047Y199081D01*
X122700Y199211D01*
X123254Y199581D01*
X123623Y200134D01*
X123753Y200787D01*
X123623Y201440D01*
X123254Y201994D01*
X122700Y202363D01*
X122047Y202493D01*
D02*
G37*
G36*
X399114Y199048D02*
X398461Y198919D01*
X397908Y198549D01*
X397538Y197995D01*
X397408Y197343D01*
X397538Y196690D01*
X397908Y196136D01*
X398461Y195766D01*
X399114Y195636D01*
X399767Y195766D01*
X400320Y196136D01*
X400690Y196690D01*
X400820Y197343D01*
X400690Y197995D01*
X400320Y198549D01*
X399767Y198919D01*
X399114Y199048D01*
D02*
G37*
G36*
X304429Y195800D02*
X303453Y195671D01*
X302543Y195295D01*
X301762Y194695D01*
X301162Y193914D01*
X300785Y193004D01*
X300657Y192028D01*
X300785Y191051D01*
X301162Y190141D01*
X301762Y189360D01*
X302543Y188760D01*
X303453Y188384D01*
X304429Y188255D01*
X305405Y188384D01*
X306315Y188760D01*
X307097Y189360D01*
X307696Y190141D01*
X308073Y191051D01*
X308202Y192028D01*
X308073Y193004D01*
X307696Y193914D01*
X307097Y194695D01*
X306315Y195295D01*
X305405Y195671D01*
X304429Y195800D01*
D02*
G37*
G36*
X274508D02*
X273532Y195671D01*
X272622Y195295D01*
X271840Y194695D01*
X271241Y193914D01*
X270864Y193004D01*
X270735Y192028D01*
X270864Y191051D01*
X271241Y190141D01*
X271840Y189360D01*
X272622Y188760D01*
X273532Y188384D01*
X274508Y188255D01*
X275484Y188384D01*
X276394Y188760D01*
X277175Y189360D01*
X277775Y190141D01*
X278152Y191051D01*
X278280Y192028D01*
X278152Y193004D01*
X277775Y193914D01*
X277175Y194695D01*
X276394Y195295D01*
X275484Y195671D01*
X274508Y195800D01*
D02*
G37*
G36*
X385318Y191667D02*
X384665Y191537D01*
X384112Y191167D01*
X383742Y190613D01*
X383612Y189961D01*
X383742Y189308D01*
X384112Y188754D01*
X384665Y188384D01*
X385318Y188255D01*
X385971Y188384D01*
X386524Y188754D01*
X386894Y189308D01*
X387024Y189961D01*
X386894Y190613D01*
X386524Y191167D01*
X385971Y191537D01*
X385318Y191667D01*
D02*
G37*
G36*
X254984Y189350D02*
X254332Y189220D01*
X253778Y188850D01*
X253408Y188297D01*
X253278Y187644D01*
X253408Y186991D01*
X253778Y186438D01*
X254332Y186068D01*
X254984Y185938D01*
X255637Y186068D01*
X256191Y186438D01*
X256561Y186991D01*
X256691Y187644D01*
X256561Y188297D01*
X256191Y188850D01*
X255637Y189220D01*
X254984Y189350D01*
D02*
G37*
G36*
X367323Y188623D02*
X366090Y188461D01*
X364940Y187985D01*
X363953Y187228D01*
X363196Y186241D01*
X362720Y185092D01*
X362558Y183858D01*
X362720Y182625D01*
X363196Y181476D01*
X363953Y180489D01*
X364940Y179732D01*
X366090Y179255D01*
X367323Y179093D01*
X368556Y179255D01*
X369705Y179732D01*
X370692Y180489D01*
X371450Y181476D01*
X371926Y182625D01*
X372088Y183858D01*
X371926Y185092D01*
X371450Y186241D01*
X370692Y187228D01*
X369705Y187985D01*
X368556Y188461D01*
X367323Y188623D01*
D02*
G37*
G36*
X110039Y201575D02*
X100591D01*
Y192126D01*
X104165D01*
X104198Y191626D01*
X104082Y191611D01*
X102932Y191135D01*
X101945Y190377D01*
X101188Y189391D01*
X100712Y188241D01*
X100550Y187008D01*
X100712Y185775D01*
X101188Y184625D01*
X101945Y183638D01*
X102932Y182881D01*
X104082Y182405D01*
X104585Y182339D01*
Y181834D01*
X104082Y181768D01*
X102932Y181292D01*
X101945Y180535D01*
X101188Y179548D01*
X100712Y178399D01*
X100550Y177165D01*
X100712Y175932D01*
X101188Y174783D01*
X101945Y173796D01*
X102932Y173039D01*
X104082Y172563D01*
X105315Y172400D01*
X106548Y172563D01*
X107698Y173039D01*
X108684Y173796D01*
X109442Y174783D01*
X109918Y175932D01*
X110080Y177165D01*
X109918Y178399D01*
X109442Y179548D01*
X108684Y180535D01*
X107698Y181292D01*
X106548Y181768D01*
X106045Y181834D01*
Y182339D01*
X106548Y182405D01*
X107698Y182881D01*
X108684Y183638D01*
X109442Y184625D01*
X109918Y185775D01*
X110080Y187008D01*
X109918Y188241D01*
X109442Y189391D01*
X108684Y190377D01*
X107698Y191135D01*
X106548Y191611D01*
X106432Y191626D01*
X106465Y192126D01*
X110039D01*
Y201575D01*
D02*
G37*
G36*
X348377Y170556D02*
X347725Y170426D01*
X347171Y170056D01*
X346801Y169503D01*
X346672Y168850D01*
X346801Y168197D01*
X347171Y167644D01*
X347725Y167274D01*
X348377Y167144D01*
X349030Y167274D01*
X349584Y167644D01*
X349954Y168197D01*
X350083Y168850D01*
X349954Y169503D01*
X349584Y170056D01*
X349030Y170426D01*
X348377Y170556D01*
D02*
G37*
G36*
X221280Y152684D02*
X219665D01*
X218869Y152579D01*
X218127Y152271D01*
X217489Y151782D01*
X217000Y151145D01*
X216693Y150403D01*
X216588Y149606D01*
X216693Y148810D01*
X217000Y148067D01*
X217489Y147430D01*
X218127Y146941D01*
X218869Y146634D01*
X219665Y146529D01*
X221280D01*
X222076Y146634D01*
X222818Y146941D01*
X223456Y147430D01*
X223945Y148067D01*
X224252Y148810D01*
X224357Y149606D01*
X224252Y150403D01*
X223945Y151145D01*
X223456Y151782D01*
X222818Y152271D01*
X222076Y152579D01*
X221280Y152684D01*
D02*
G37*
G36*
Y145951D02*
X219665D01*
X218869Y145847D01*
X218127Y145539D01*
X217489Y145050D01*
X217000Y144413D01*
X216693Y143670D01*
X216588Y142874D01*
X216693Y142078D01*
X217000Y141335D01*
X217489Y140698D01*
X218127Y140209D01*
X218869Y139901D01*
X219665Y139796D01*
X221280D01*
X222076Y139901D01*
X222818Y140209D01*
X223456Y140698D01*
X223945Y141335D01*
X224252Y142078D01*
X224357Y142874D01*
X224252Y143670D01*
X223945Y144413D01*
X223456Y145050D01*
X222818Y145539D01*
X222076Y145847D01*
X221280Y145951D01*
D02*
G37*
G36*
X187008Y144654D02*
X186150Y144541D01*
X185350Y144210D01*
X184663Y143683D01*
X184136Y142997D01*
X183805Y142197D01*
X183692Y141339D01*
X183805Y140480D01*
X184136Y139681D01*
X184663Y138994D01*
X185350Y138467D01*
X186150Y138136D01*
X187008Y138023D01*
X187866Y138136D01*
X188666Y138467D01*
X189353Y138994D01*
X189879Y139681D01*
X190211Y140480D01*
X190324Y141339D01*
X190211Y142197D01*
X189879Y142997D01*
X189353Y143683D01*
X188666Y144210D01*
X187866Y144541D01*
X187008Y144654D01*
D02*
G37*
G36*
X326378Y143867D02*
X325520Y143754D01*
X324720Y143423D01*
X324033Y142896D01*
X323506Y142209D01*
X323175Y141409D01*
X323062Y140551D01*
X323175Y139693D01*
X323506Y138893D01*
X324033Y138207D01*
X324720Y137680D01*
X325520Y137348D01*
X326378Y137235D01*
X327236Y137348D01*
X328036Y137680D01*
X328723Y138207D01*
X329250Y138893D01*
X329581Y139693D01*
X329694Y140551D01*
X329581Y141409D01*
X329250Y142209D01*
X328723Y142896D01*
X328036Y143423D01*
X327236Y143754D01*
X326378Y143867D01*
D02*
G37*
G36*
X331890Y140289D02*
X331237Y140159D01*
X330683Y139789D01*
X330314Y139235D01*
X330184Y138583D01*
X330314Y137930D01*
X330683Y137376D01*
X331237Y137006D01*
X331890Y136877D01*
X332543Y137006D01*
X333096Y137376D01*
X333466Y137930D01*
X333596Y138583D01*
X333466Y139235D01*
X333096Y139789D01*
X332543Y140159D01*
X331890Y140289D01*
D02*
G37*
G36*
X221280Y139219D02*
X219665D01*
X218869Y139114D01*
X218127Y138807D01*
X217489Y138318D01*
X217000Y137680D01*
X216693Y136938D01*
X216588Y136142D01*
X216693Y135345D01*
X217000Y134603D01*
X217489Y133966D01*
X218127Y133476D01*
X218869Y133169D01*
X219665Y133064D01*
X221280D01*
X222076Y133169D01*
X222818Y133476D01*
X223456Y133966D01*
X223945Y134603D01*
X224252Y135345D01*
X224357Y136142D01*
X224252Y136938D01*
X223945Y137680D01*
X223456Y138318D01*
X222818Y138807D01*
X222076Y139114D01*
X221280Y139219D01*
D02*
G37*
G36*
Y132487D02*
X219665D01*
X218869Y132382D01*
X218127Y132075D01*
X217489Y131586D01*
X217000Y130948D01*
X216693Y130206D01*
X216588Y129410D01*
X216693Y128613D01*
X217000Y127871D01*
X217489Y127233D01*
X218127Y126744D01*
X218869Y126437D01*
X219665Y126332D01*
X221280D01*
X222076Y126437D01*
X222818Y126744D01*
X223456Y127233D01*
X223945Y127871D01*
X224252Y128613D01*
X224357Y129410D01*
X224252Y130206D01*
X223945Y130948D01*
X223456Y131586D01*
X222818Y132075D01*
X222076Y132382D01*
X221280Y132487D01*
D02*
G37*
G36*
X148819Y111852D02*
X147586Y111689D01*
X146436Y111213D01*
X145449Y110456D01*
X144692Y109469D01*
X144216Y108320D01*
X144150Y107816D01*
X143646D01*
X143579Y108320D01*
X143103Y109469D01*
X142346Y110456D01*
X141359Y111213D01*
X140210Y111689D01*
X138976Y111852D01*
X137743Y111689D01*
X136594Y111213D01*
X135607Y110456D01*
X134850Y109469D01*
X134374Y108320D01*
X134211Y107087D01*
X134374Y105853D01*
X134850Y104704D01*
X135607Y103717D01*
X136594Y102960D01*
X137743Y102484D01*
X138976Y102321D01*
X140210Y102484D01*
X141359Y102960D01*
X142346Y103717D01*
X143103Y104704D01*
X143579Y105853D01*
X143646Y106357D01*
X144150D01*
X144216Y105853D01*
X144692Y104704D01*
X145449Y103717D01*
X146436Y102960D01*
X147586Y102484D01*
X148819Y102321D01*
X150052Y102484D01*
X151201Y102960D01*
X152188Y103717D01*
X152946Y104704D01*
X153422Y105853D01*
X153437Y105970D01*
X153937Y105937D01*
Y102362D01*
X163386D01*
Y111811D01*
X153937D01*
Y108237D01*
X153437Y108204D01*
X153422Y108320D01*
X152946Y109469D01*
X152188Y110456D01*
X151201Y111213D01*
X150052Y111689D01*
X148819Y111852D01*
D02*
G37*
G36*
X267717Y117946D02*
X266405Y117816D01*
X265143Y117434D01*
X263980Y116812D01*
X262961Y115976D01*
X262125Y114957D01*
X261503Y113794D01*
X261121Y112532D01*
X260991Y111221D01*
Y109252D01*
X261121Y107940D01*
X261503Y106678D01*
X262125Y105516D01*
X262961Y104497D01*
X263980Y103660D01*
X265143Y103039D01*
X266405Y102656D01*
X267717Y102527D01*
X269029Y102656D01*
X270290Y103039D01*
X271453Y103660D01*
X272472Y104497D01*
X273308Y105516D01*
X273930Y106678D01*
X274313Y107940D01*
X274442Y109252D01*
Y111221D01*
X274313Y112532D01*
X273930Y113794D01*
X273308Y114957D01*
X272472Y115976D01*
X271453Y116812D01*
X270290Y117434D01*
X269029Y117816D01*
X267717Y117946D01*
D02*
G37*
G36*
X232283D02*
X230971Y117816D01*
X229710Y117434D01*
X228547Y116812D01*
X227528Y115976D01*
X226692Y114957D01*
X226070Y113794D01*
X225687Y112532D01*
X225558Y111221D01*
Y109252D01*
X225687Y107940D01*
X226070Y106678D01*
X226692Y105516D01*
X227528Y104497D01*
X228547Y103660D01*
X229710Y103039D01*
X230971Y102656D01*
X232283Y102527D01*
X233595Y102656D01*
X234857Y103039D01*
X236020Y103660D01*
X237039Y104497D01*
X237875Y105516D01*
X238497Y106678D01*
X238879Y107940D01*
X239009Y109252D01*
Y111221D01*
X238879Y112532D01*
X238497Y113794D01*
X237875Y114957D01*
X237039Y115976D01*
X236020Y116812D01*
X234857Y117434D01*
X233595Y117816D01*
X232283Y117946D01*
D02*
G37*
G36*
X196850D02*
X195538Y117816D01*
X194277Y117434D01*
X193114Y116812D01*
X192095Y115976D01*
X191259Y114957D01*
X190637Y113794D01*
X190254Y112532D01*
X190125Y111221D01*
Y109252D01*
X190254Y107940D01*
X190637Y106678D01*
X191259Y105516D01*
X192095Y104497D01*
X193114Y103660D01*
X194277Y103039D01*
X195538Y102656D01*
X196850Y102527D01*
X198162Y102656D01*
X199424Y103039D01*
X200587Y103660D01*
X201606Y104497D01*
X202442Y105516D01*
X203064Y106678D01*
X203447Y107940D01*
X203576Y109252D01*
Y111221D01*
X203447Y112532D01*
X203064Y113794D01*
X202442Y114957D01*
X201606Y115976D01*
X200587Y116812D01*
X199424Y117434D01*
X198162Y117816D01*
X196850Y117946D01*
D02*
G37*
G36*
X372968Y117746D02*
X371656Y117616D01*
X370394Y117234D01*
X369231Y116612D01*
X368212Y115776D01*
X367376Y114757D01*
X366754Y113594D01*
X366372Y112332D01*
X366242Y111021D01*
Y109052D01*
X366372Y107740D01*
X366754Y106478D01*
X367376Y105316D01*
X368212Y104297D01*
X369231Y103460D01*
X370394Y102839D01*
X371656Y102456D01*
X372968Y102327D01*
X374280Y102456D01*
X375541Y102839D01*
X376704Y103460D01*
X377723Y104297D01*
X378560Y105316D01*
X379181Y106478D01*
X379564Y107740D01*
X379693Y109052D01*
Y111021D01*
X379564Y112332D01*
X379181Y113594D01*
X378560Y114757D01*
X377723Y115776D01*
X376704Y116612D01*
X375541Y117234D01*
X374280Y117616D01*
X372968Y117746D01*
D02*
G37*
G36*
X337535D02*
X336223Y117616D01*
X334961Y117234D01*
X333798Y116612D01*
X332779Y115776D01*
X331943Y114757D01*
X331321Y113594D01*
X330939Y112332D01*
X330809Y111021D01*
Y109052D01*
X330939Y107740D01*
X331321Y106478D01*
X331943Y105316D01*
X332779Y104297D01*
X333798Y103460D01*
X334961Y102839D01*
X336223Y102456D01*
X337535Y102327D01*
X338847Y102456D01*
X340108Y102839D01*
X341271Y103460D01*
X342290Y104297D01*
X343127Y105316D01*
X343748Y106478D01*
X344131Y107740D01*
X344260Y109052D01*
Y111021D01*
X344131Y112332D01*
X343748Y113594D01*
X343127Y114757D01*
X342290Y115776D01*
X341271Y116612D01*
X340108Y117234D01*
X338847Y117616D01*
X337535Y117746D01*
D02*
G37*
G36*
X302102D02*
X300789Y117616D01*
X299528Y117234D01*
X298365Y116612D01*
X297346Y115776D01*
X296510Y114757D01*
X295888Y113594D01*
X295505Y112332D01*
X295376Y111021D01*
Y109052D01*
X295505Y107740D01*
X295888Y106478D01*
X296510Y105316D01*
X297346Y104297D01*
X298365Y103460D01*
X299528Y102839D01*
X300789Y102456D01*
X302102Y102327D01*
X303414Y102456D01*
X304675Y102839D01*
X305838Y103460D01*
X306857Y104297D01*
X307693Y105316D01*
X308315Y106478D01*
X308698Y107740D01*
X308827Y109052D01*
Y111021D01*
X308698Y112332D01*
X308315Y113594D01*
X307693Y114757D01*
X306857Y115776D01*
X305838Y116612D01*
X304675Y117234D01*
X303414Y117616D01*
X302102Y117746D01*
D02*
G37*
%LPD*%
G36*
X268573Y334272D02*
Y316249D01*
X268073Y316199D01*
X268013Y316499D01*
X267643Y317053D01*
X267090Y317423D01*
X266437Y317552D01*
X265784Y317423D01*
X265726Y317384D01*
X265285Y317620D01*
Y332865D01*
X265756Y333335D01*
X266401Y333463D01*
X266954Y333833D01*
X267324Y334386D01*
X267399Y334762D01*
X267544Y334845D01*
X267938Y334908D01*
X268573Y334272D01*
D02*
G37*
G36*
Y315444D02*
Y305090D01*
X268497Y305028D01*
X268073Y304869D01*
X267646Y305154D01*
X266993Y305284D01*
X266340Y305154D01*
X265787Y304784D01*
X265786Y304783D01*
X265285Y304935D01*
Y314073D01*
X265726Y314309D01*
X265784Y314270D01*
X266437Y314141D01*
X267090Y314270D01*
X267643Y314640D01*
X268013Y315194D01*
X268073Y315493D01*
X268573Y315444D01*
D02*
G37*
G36*
X265787Y302372D02*
X266340Y302002D01*
X266993Y301872D01*
X267646Y302002D01*
X268073Y302287D01*
X268497Y302128D01*
X268573Y302066D01*
Y300130D01*
X268073Y299797D01*
X267658Y299879D01*
X267005Y299749D01*
X266452Y299379D01*
X266082Y298826D01*
X265952Y298173D01*
X266082Y297520D01*
X266452Y296967D01*
X267005Y296597D01*
X267658Y296467D01*
X268073Y296550D01*
X268573Y296216D01*
Y285344D01*
X261705Y278476D01*
X261060Y278348D01*
X260830Y278194D01*
X260511Y278583D01*
X264931Y283002D01*
X264931Y283002D01*
X265193Y283395D01*
X265285Y283858D01*
Y302222D01*
X265786Y302373D01*
X265787Y302372D01*
D02*
G37*
G36*
X254448Y262758D02*
X254396Y262500D01*
X254467Y262144D01*
X254107Y261644D01*
X248425D01*
X248425Y261644D01*
X247962Y261552D01*
X247569Y261289D01*
X247569Y261289D01*
X246546Y260266D01*
X245882D01*
X245565Y260652D01*
X245604Y260846D01*
X245474Y261498D01*
X245104Y262052D01*
X244550Y262422D01*
X243898Y262552D01*
X243245Y262422D01*
X242691Y262052D01*
X242321Y261498D01*
X242192Y260846D01*
X242230Y260652D01*
X241913Y260266D01*
X239872D01*
X238947Y261191D01*
X238554Y261453D01*
X238090Y261545D01*
X238090Y261545D01*
X228642D01*
X228178Y261453D01*
X227786Y261191D01*
X227785Y261191D01*
X227407Y261519D01*
X227560Y261749D01*
X227689Y262394D01*
X228553Y263258D01*
X254041D01*
X254448Y262758D01*
D02*
G37*
G36*
X276644Y263531D02*
Y246879D01*
X276268Y246503D01*
X275978Y246561D01*
X275418Y246449D01*
X274918Y246714D01*
Y254047D01*
X274918Y254047D01*
X274826Y254510D01*
X274701Y254697D01*
Y262755D01*
X275713Y263767D01*
X276144Y263853D01*
X276644Y263531D01*
D02*
G37*
D18*
X275978Y244854D02*
X275982Y244859D01*
X271457Y245590D02*
Y261319D01*
X273707Y244791D02*
Y254047D01*
X275982Y244859D02*
X276336D01*
X277854Y246377D02*
Y267456D01*
X276336Y244859D02*
X277854Y246377D01*
X273490Y254264D02*
X273707Y254047D01*
X273490Y254264D02*
Y263257D01*
X247047Y259055D02*
X248425Y260433D01*
X263386D01*
X275098Y272146D01*
X221161Y266535D02*
X222539Y267913D01*
X262106D01*
X266772Y272579D01*
X223917Y264567D02*
X225590Y266240D01*
X263189D01*
X228051Y264469D02*
X264272D01*
X266339Y266535D01*
X225984Y262402D02*
X228051Y264469D01*
X296406Y276509D02*
X297885D01*
X296373Y276476D02*
X296406Y276509D01*
X267280Y276476D02*
X296373D01*
X297919D02*
X308366D01*
X297028Y274606D02*
X297146Y274724D01*
X297885Y276509D02*
X297919Y276476D01*
X308366D02*
X311122Y273721D01*
X267224Y276420D02*
X267280Y276476D01*
X277772Y267539D02*
X277854Y267456D01*
X266645Y269052D02*
X266831Y269238D01*
X266001Y269052D02*
X266645D01*
X263189Y266240D02*
X266001Y269052D01*
X266772Y272579D02*
Y272809D01*
X231958Y255020D02*
X240256D01*
X231004Y254716D02*
X231190Y254902D01*
X231841D01*
X231958Y255020D01*
X227461Y259154D02*
X228642Y260335D01*
X226269Y269598D02*
X226956D01*
X226083Y269783D02*
X226269Y269598D01*
X226956D02*
X226967Y269587D01*
X261024D01*
X267337Y245900D02*
X267522Y245714D01*
X267337Y245900D02*
Y246738D01*
X265158Y248917D02*
X267337Y246738D01*
X249902Y245866D02*
X252953Y248917D01*
X265158D01*
X249803Y245866D02*
X249902D01*
X168898Y247835D02*
X169095Y248031D01*
X169488D01*
X228642Y260335D02*
X238090D01*
X239370Y259055D01*
X247047D01*
X241634Y256398D02*
X260827D01*
X240256Y255020D02*
X241634Y256398D01*
X261024Y256594D02*
X262598D01*
X260827Y256398D02*
X261024Y256594D01*
X262598D02*
X269882Y263878D01*
X275098Y272146D02*
X281004D01*
X282480Y270669D02*
X299016D01*
X281004Y272146D02*
X282480Y270669D01*
X266043Y274606D02*
X297028D01*
X261024Y269587D02*
X266043Y274606D01*
X311122Y273721D02*
X311319D01*
X273490Y263257D02*
X275705Y265472D01*
X258366Y271654D02*
Y278150D01*
X264075Y283858D02*
Y333366D01*
X258366Y278150D02*
X264075Y283858D01*
X261713Y276772D02*
X269783Y284842D01*
X268690Y335868D02*
X269783Y334774D01*
Y284842D02*
Y334774D01*
X354429Y307185D02*
X360630D01*
X365945Y301870D02*
X366043D01*
X360630Y307185D02*
X365945Y301870D01*
X291142Y311614D02*
Y315160D01*
X291485Y315503D01*
X298622Y304134D02*
X307328D01*
X310531Y300930D01*
X307087Y291043D02*
X312872Y296829D01*
X351673Y300689D02*
X351772Y300590D01*
X361516D01*
X363583Y298524D01*
X272441Y233760D02*
X323425D01*
X266142Y240059D02*
X272441Y233760D01*
X267269Y245714D02*
X267522D01*
X266142Y244587D02*
X267269Y245714D01*
X266142Y240059D02*
Y244587D01*
X312872Y296829D02*
X358268D01*
X264075Y333366D02*
X265748Y335039D01*
X268504Y336713D02*
X268690Y336527D01*
Y335868D02*
Y336527D01*
X283268Y301575D02*
X284842Y303150D01*
X283268Y297835D02*
Y301575D01*
X284842Y303150D02*
Y307874D01*
X274508Y318209D02*
X284842Y307874D01*
X291142Y311614D02*
X298622Y304134D01*
D115*
X114173Y213090D02*
D03*
Y230118D02*
D03*
X169488Y248031D02*
D03*
X159646D02*
D03*
X114665Y306299D02*
D03*
X397638Y235591D02*
D03*
Y245590D02*
D03*
Y255591D02*
D03*
Y285591D02*
D03*
Y295590D02*
D03*
Y305591D02*
D03*
X114469Y246339D02*
D03*
Y256339D02*
D03*
Y266339D02*
D03*
Y276339D02*
D03*
Y286339D02*
D03*
D119*
X347402Y271260D02*
D03*
X340689Y228307D02*
D03*
D120*
X241339Y313484D02*
D03*
D123*
X220472Y156339D02*
D03*
D127*
X110236Y110236D02*
D03*
X401575D02*
D03*
Y401575D02*
D03*
X110236D02*
D03*
D128*
X287402Y110236D02*
D03*
X182150Y110436D02*
D03*
X358268Y110236D02*
D03*
X217583Y110436D02*
D03*
X322835Y110236D02*
D03*
X253016Y110436D02*
D03*
D129*
X242913Y401575D02*
D03*
X268898D02*
D03*
X299213D02*
D03*
X325197D02*
D03*
D131*
X397638Y265591D02*
D03*
Y275590D02*
D03*
D134*
X275978Y244854D02*
D03*
X271457Y245590D02*
D03*
X273707Y244791D02*
D03*
X264173Y375098D02*
D03*
X303445Y254035D02*
D03*
X299902Y252362D02*
D03*
X296358Y254134D02*
D03*
X292913Y252067D02*
D03*
X289469Y254429D02*
D03*
X223917Y264567D02*
D03*
X408662Y392126D02*
D03*
X406299Y377953D02*
D03*
X408662Y373228D02*
D03*
X406299Y368504D02*
D03*
X408662Y363780D02*
D03*
X406299Y340158D02*
D03*
X408662Y335433D02*
D03*
X406299Y330709D02*
D03*
X408662Y325984D02*
D03*
X406299Y311811D02*
D03*
X408662Y307087D02*
D03*
X406299Y302362D02*
D03*
X408662Y297638D02*
D03*
X406299Y292913D02*
D03*
X408662Y288189D02*
D03*
X406299Y283465D02*
D03*
X408662Y278740D02*
D03*
X406299Y274016D02*
D03*
X408662Y269291D02*
D03*
X406299Y264567D02*
D03*
X408662Y259842D02*
D03*
X406299Y255118D02*
D03*
X408662Y250394D02*
D03*
X406299Y245669D02*
D03*
X408662Y240945D02*
D03*
X406299Y236221D02*
D03*
X408662Y231496D02*
D03*
X406299Y226772D02*
D03*
X408662Y222047D02*
D03*
X406299Y217323D02*
D03*
Y207874D02*
D03*
X408662Y203150D02*
D03*
X406299Y198425D02*
D03*
X408662Y193701D02*
D03*
X406299Y188976D02*
D03*
X408662Y174803D02*
D03*
X406299Y160630D02*
D03*
X408662Y155905D02*
D03*
X406299Y151181D02*
D03*
X408662Y146457D02*
D03*
X406299Y141732D02*
D03*
Y132283D02*
D03*
X408662Y127559D02*
D03*
X406299Y122835D02*
D03*
X408662Y118110D02*
D03*
X403937Y392126D02*
D03*
Y363780D02*
D03*
X401575Y340158D02*
D03*
X403937Y335433D02*
D03*
X401575Y330709D02*
D03*
X403937Y325984D02*
D03*
X401575Y311811D02*
D03*
X403937Y307087D02*
D03*
Y297638D02*
D03*
Y288189D02*
D03*
Y278740D02*
D03*
Y269291D02*
D03*
Y259842D02*
D03*
Y250394D02*
D03*
Y240945D02*
D03*
Y231496D02*
D03*
X401575Y226772D02*
D03*
X403937Y222047D02*
D03*
X401575Y217323D02*
D03*
Y207874D02*
D03*
X403937Y203150D02*
D03*
X401575Y198425D02*
D03*
X403937Y193701D02*
D03*
X401575Y188976D02*
D03*
X403937Y174803D02*
D03*
X401575Y160630D02*
D03*
X403937Y155905D02*
D03*
X401575Y151181D02*
D03*
X403937Y146457D02*
D03*
X401575Y141732D02*
D03*
Y132283D02*
D03*
X403937Y127559D02*
D03*
X401575Y122835D02*
D03*
X399213Y392126D02*
D03*
Y325984D02*
D03*
X396850Y311811D02*
D03*
Y226772D02*
D03*
X399213Y222047D02*
D03*
X396850Y217323D02*
D03*
Y207874D02*
D03*
X399213Y203150D02*
D03*
Y193701D02*
D03*
X396850Y188976D02*
D03*
X399213Y174803D02*
D03*
X396850Y141732D02*
D03*
Y132283D02*
D03*
X399213Y127559D02*
D03*
X396850Y122835D02*
D03*
X392126Y406299D02*
D03*
Y396850D02*
D03*
X394488Y392126D02*
D03*
X392126Y387402D02*
D03*
Y359055D02*
D03*
X394488Y354331D02*
D03*
X392126Y349606D02*
D03*
X394488Y344882D02*
D03*
X392126Y321260D02*
D03*
X394488Y316535D02*
D03*
X392126Y311811D02*
D03*
X394488Y250394D02*
D03*
Y240945D02*
D03*
Y222047D02*
D03*
Y212598D02*
D03*
Y184252D02*
D03*
X392126Y179528D02*
D03*
X394488Y174803D02*
D03*
X392126Y170079D02*
D03*
Y141732D02*
D03*
X394488Y137008D02*
D03*
X392126Y132283D02*
D03*
X394488Y127559D02*
D03*
X392126Y122835D02*
D03*
X394488Y118110D02*
D03*
X392126Y113386D02*
D03*
Y103937D02*
D03*
X389764Y401575D02*
D03*
X387402Y396850D02*
D03*
X389764Y392126D02*
D03*
X387402Y387402D02*
D03*
Y359055D02*
D03*
X389764Y354331D02*
D03*
X387402Y349606D02*
D03*
X389764Y344882D02*
D03*
X387402Y321260D02*
D03*
X389764Y184252D02*
D03*
X387402Y179528D02*
D03*
X389764Y174803D02*
D03*
X387402Y141732D02*
D03*
X389764Y137008D02*
D03*
X387402Y132283D02*
D03*
X382677Y387402D02*
D03*
X385039Y382677D02*
D03*
Y363780D02*
D03*
Y344882D02*
D03*
Y325984D02*
D03*
X382677Y311811D02*
D03*
X385039Y184252D02*
D03*
X382677Y179528D02*
D03*
Y170079D02*
D03*
X385039Y165354D02*
D03*
X382677Y160630D02*
D03*
X385039Y146457D02*
D03*
X382677Y141732D02*
D03*
X385039Y137008D02*
D03*
X382677Y132283D02*
D03*
X377953Y406299D02*
D03*
X380315Y392126D02*
D03*
Y363780D02*
D03*
X377953Y359055D02*
D03*
X380315Y354331D02*
D03*
X377953Y340158D02*
D03*
Y311811D02*
D03*
Y226772D02*
D03*
X380315Y222047D02*
D03*
X377953Y217323D02*
D03*
X380315Y212598D02*
D03*
Y165354D02*
D03*
Y146457D02*
D03*
X377953Y141732D02*
D03*
X380315Y137008D02*
D03*
X377953Y132283D02*
D03*
X373228Y406299D02*
D03*
Y226772D02*
D03*
X375591Y222047D02*
D03*
X373228Y217323D02*
D03*
Y151181D02*
D03*
X375591Y146457D02*
D03*
X373228Y141732D02*
D03*
X375591Y137008D02*
D03*
X373228Y132283D02*
D03*
X368504Y406299D02*
D03*
X370866Y363780D02*
D03*
Y240945D02*
D03*
Y231496D02*
D03*
Y222047D02*
D03*
X368504Y207874D02*
D03*
X370866Y203150D02*
D03*
X368504Y132283D02*
D03*
X363780Y406299D02*
D03*
Y255118D02*
D03*
X366142Y212598D02*
D03*
X363780Y132283D02*
D03*
X359055Y406299D02*
D03*
X361417Y401575D02*
D03*
X359055Y387402D02*
D03*
Y170079D02*
D03*
X361417Y165354D02*
D03*
X359055Y160630D02*
D03*
X361417Y155905D02*
D03*
X359055Y151181D02*
D03*
X361417Y146457D02*
D03*
X359055Y141732D02*
D03*
X361417Y137008D02*
D03*
X359055Y132283D02*
D03*
X354331Y396850D02*
D03*
X356693Y392126D02*
D03*
X354331Y387402D02*
D03*
Y340158D02*
D03*
Y207874D02*
D03*
X356693Y165354D02*
D03*
X354331Y160630D02*
D03*
X356693Y155905D02*
D03*
X354331Y151181D02*
D03*
X356693Y146457D02*
D03*
X354331Y141732D02*
D03*
X356693Y137008D02*
D03*
X354331Y132283D02*
D03*
X349606Y406299D02*
D03*
Y396850D02*
D03*
X351969Y392126D02*
D03*
Y316535D02*
D03*
Y269291D02*
D03*
Y259842D02*
D03*
Y212598D02*
D03*
Y165354D02*
D03*
X349606Y160630D02*
D03*
X351969Y155905D02*
D03*
Y146457D02*
D03*
Y137008D02*
D03*
X349606Y132283D02*
D03*
X344882Y406299D02*
D03*
X347244Y401575D02*
D03*
X344882Y396850D02*
D03*
X347244Y392126D02*
D03*
X344882Y198425D02*
D03*
X347244Y184252D02*
D03*
Y165354D02*
D03*
X344882Y160630D02*
D03*
X347244Y155905D02*
D03*
X344882Y132283D02*
D03*
X340158Y406299D02*
D03*
X342520Y401575D02*
D03*
X340158Y396850D02*
D03*
X342520Y392126D02*
D03*
X340158Y377953D02*
D03*
X342520Y373228D02*
D03*
X340158Y359055D02*
D03*
X342520Y354331D02*
D03*
Y307087D02*
D03*
Y288189D02*
D03*
X340158Y283465D02*
D03*
Y198425D02*
D03*
X342520Y184252D02*
D03*
Y165354D02*
D03*
X340158Y160630D02*
D03*
X342520Y155905D02*
D03*
X340158Y151181D02*
D03*
Y132283D02*
D03*
X335433Y406299D02*
D03*
X337795Y401575D02*
D03*
X335433Y396850D02*
D03*
X337795Y392126D02*
D03*
X335433Y387402D02*
D03*
X337795Y307087D02*
D03*
X335433Y283465D02*
D03*
Y226772D02*
D03*
Y207874D02*
D03*
Y198425D02*
D03*
X337795Y165354D02*
D03*
X335433Y160630D02*
D03*
X330709Y406299D02*
D03*
X333071Y401575D02*
D03*
X330709Y396850D02*
D03*
X333071Y392126D02*
D03*
X330709Y387402D02*
D03*
Y321260D02*
D03*
X333071Y316535D02*
D03*
Y307087D02*
D03*
X330709Y283465D02*
D03*
X333071Y231496D02*
D03*
X330709Y226772D02*
D03*
X333071Y222047D02*
D03*
X330709Y217323D02*
D03*
X333071Y212598D02*
D03*
X330709Y207874D02*
D03*
Y198425D02*
D03*
Y170079D02*
D03*
X325984Y387402D02*
D03*
X328346Y354331D02*
D03*
Y344882D02*
D03*
X325984Y330709D02*
D03*
Y321260D02*
D03*
Y283465D02*
D03*
X328346Y231496D02*
D03*
Y212598D02*
D03*
X325984Y207874D02*
D03*
Y198425D02*
D03*
Y170079D02*
D03*
X328346Y165354D02*
D03*
X321260Y387402D02*
D03*
X323622Y344882D02*
D03*
X321260Y321260D02*
D03*
X323622Y307087D02*
D03*
X321260Y283465D02*
D03*
Y274016D02*
D03*
Y226772D02*
D03*
Y217323D02*
D03*
X323622Y212598D02*
D03*
X321260Y207874D02*
D03*
Y198425D02*
D03*
Y170079D02*
D03*
X323622Y165354D02*
D03*
X318898Y373228D02*
D03*
Y344882D02*
D03*
X316535Y321260D02*
D03*
X318898Y288189D02*
D03*
X316535Y283465D02*
D03*
Y236221D02*
D03*
X318898Y231496D02*
D03*
X316535Y226772D02*
D03*
X318898Y222047D02*
D03*
X316535Y217323D02*
D03*
X318898Y212598D02*
D03*
X316535Y207874D02*
D03*
Y198425D02*
D03*
X318898Y184252D02*
D03*
X316535Y179528D02*
D03*
X318898Y174803D02*
D03*
X316535Y170079D02*
D03*
X318898Y165354D02*
D03*
X316535Y160630D02*
D03*
Y151181D02*
D03*
X318898Y146457D02*
D03*
X316535Y132283D02*
D03*
X314173Y307087D02*
D03*
Y288189D02*
D03*
X311811Y283465D02*
D03*
Y264567D02*
D03*
Y236221D02*
D03*
Y226772D02*
D03*
X314173Y222047D02*
D03*
X311811Y217323D02*
D03*
X314173Y212598D02*
D03*
X311811Y207874D02*
D03*
Y198425D02*
D03*
X314173Y184252D02*
D03*
X311811Y179528D02*
D03*
X314173Y174803D02*
D03*
X311811Y170079D02*
D03*
X314173Y165354D02*
D03*
X311811Y160630D02*
D03*
X314173Y155905D02*
D03*
X311811Y151181D02*
D03*
X314173Y146457D02*
D03*
Y137008D02*
D03*
X307087Y377953D02*
D03*
Y368504D02*
D03*
Y321260D02*
D03*
Y236221D02*
D03*
Y226772D02*
D03*
X309449Y222047D02*
D03*
X307087Y217323D02*
D03*
X309449Y212598D02*
D03*
X307087Y198425D02*
D03*
X309449Y184252D02*
D03*
X307087Y179528D02*
D03*
X309449Y174803D02*
D03*
X307087Y170079D02*
D03*
X309449Y165354D02*
D03*
X307087Y160630D02*
D03*
X309449Y155905D02*
D03*
X307087Y151181D02*
D03*
X302362Y406299D02*
D03*
Y396850D02*
D03*
X304724Y392126D02*
D03*
X302362Y387402D02*
D03*
X304724Y382677D02*
D03*
X302362Y377953D02*
D03*
X304724Y373228D02*
D03*
X302362Y368504D02*
D03*
Y321260D02*
D03*
Y226772D02*
D03*
X304724Y222047D02*
D03*
X302362Y217323D02*
D03*
Y207874D02*
D03*
X304724Y203150D02*
D03*
X302362Y198425D02*
D03*
X304724Y184252D02*
D03*
X302362Y179528D02*
D03*
X304724Y174803D02*
D03*
X302362Y170079D02*
D03*
X304724Y165354D02*
D03*
X302362Y160630D02*
D03*
X304724Y155905D02*
D03*
X302362Y151181D02*
D03*
X297638Y406299D02*
D03*
Y396850D02*
D03*
Y387402D02*
D03*
X300000Y382677D02*
D03*
X297638Y377953D02*
D03*
X300000Y373228D02*
D03*
X297638Y368504D02*
D03*
X300000Y363780D02*
D03*
X297638Y359055D02*
D03*
X300000Y344882D02*
D03*
X297638Y330709D02*
D03*
Y321260D02*
D03*
Y292913D02*
D03*
Y226772D02*
D03*
Y207874D02*
D03*
X300000Y203150D02*
D03*
X297638Y198425D02*
D03*
X300000Y174803D02*
D03*
X297638Y170079D02*
D03*
X300000Y165354D02*
D03*
X297638Y160630D02*
D03*
X300000Y155905D02*
D03*
X297638Y151181D02*
D03*
X300000Y146457D02*
D03*
Y137008D02*
D03*
X292913Y406299D02*
D03*
X295276Y401575D02*
D03*
X292913Y396850D02*
D03*
Y387402D02*
D03*
X295276Y382677D02*
D03*
X292913Y377953D02*
D03*
X295276Y373228D02*
D03*
X292913Y368504D02*
D03*
X295276Y363780D02*
D03*
X292913Y330709D02*
D03*
Y292913D02*
D03*
Y217323D02*
D03*
X295276Y212598D02*
D03*
Y203150D02*
D03*
Y193701D02*
D03*
Y174803D02*
D03*
X292913Y170079D02*
D03*
X295276Y165354D02*
D03*
X292913Y160630D02*
D03*
X295276Y155905D02*
D03*
X292913Y151181D02*
D03*
X295276Y137008D02*
D03*
X288189Y406299D02*
D03*
X290551Y401575D02*
D03*
X288189Y396850D02*
D03*
X290551Y392126D02*
D03*
X288189Y387402D02*
D03*
X290551Y382677D02*
D03*
X288189Y377953D02*
D03*
X290551Y373228D02*
D03*
X288189Y368504D02*
D03*
X290551Y363780D02*
D03*
Y354331D02*
D03*
X288189Y349606D02*
D03*
X290551Y297638D02*
D03*
Y222047D02*
D03*
X288189Y217323D02*
D03*
Y198425D02*
D03*
Y170079D02*
D03*
X290551Y165354D02*
D03*
X288189Y160630D02*
D03*
X290551Y155905D02*
D03*
Y137008D02*
D03*
X283465Y406299D02*
D03*
X285827Y401575D02*
D03*
X283465Y396850D02*
D03*
X285827Y392126D02*
D03*
X283465Y387402D02*
D03*
X285827Y382677D02*
D03*
X283465Y377953D02*
D03*
X285827Y354331D02*
D03*
X283465Y349606D02*
D03*
X285827Y288189D02*
D03*
Y222047D02*
D03*
X283465Y217323D02*
D03*
Y207874D02*
D03*
X285827Y203150D02*
D03*
X283465Y198425D02*
D03*
X285827Y184252D02*
D03*
X283465Y170079D02*
D03*
X285827Y165354D02*
D03*
X278740Y406299D02*
D03*
X281102Y401575D02*
D03*
X278740Y396850D02*
D03*
X281102Y392126D02*
D03*
X278740Y387402D02*
D03*
X281102Y382677D02*
D03*
Y354331D02*
D03*
X278740Y349606D02*
D03*
X281102Y344882D02*
D03*
Y335433D02*
D03*
Y325984D02*
D03*
X278740Y321260D02*
D03*
X281102Y288189D02*
D03*
X278740Y217323D02*
D03*
Y207874D02*
D03*
X281102Y203150D02*
D03*
X278740Y198425D02*
D03*
Y188976D02*
D03*
X281102Y184252D02*
D03*
X274016Y406299D02*
D03*
X276378Y401575D02*
D03*
X274016Y396850D02*
D03*
X276378Y392126D02*
D03*
X274016Y387402D02*
D03*
X276378Y382677D02*
D03*
X274016Y377953D02*
D03*
X276378Y363780D02*
D03*
X274016Y359055D02*
D03*
X276378Y354331D02*
D03*
X274016Y349606D02*
D03*
X276378Y344882D02*
D03*
Y325984D02*
D03*
Y288189D02*
D03*
X274016Y207874D02*
D03*
X276378Y203150D02*
D03*
X274016Y198425D02*
D03*
X276378Y184252D02*
D03*
X269291Y377953D02*
D03*
X271654Y354331D02*
D03*
X269291Y349606D02*
D03*
Y226772D02*
D03*
X271654Y212598D02*
D03*
X269291Y207874D02*
D03*
X271654Y203150D02*
D03*
X269291Y198425D02*
D03*
Y188976D02*
D03*
X271654Y184252D02*
D03*
X266929Y382677D02*
D03*
Y354331D02*
D03*
Y344882D02*
D03*
Y212598D02*
D03*
X264567Y207874D02*
D03*
X266929Y203150D02*
D03*
X264567Y198425D02*
D03*
X266929Y193701D02*
D03*
X264567Y188976D02*
D03*
X266929Y184252D02*
D03*
X262205Y382677D02*
D03*
Y222047D02*
D03*
X259842Y217323D02*
D03*
Y207874D02*
D03*
X262205Y203150D02*
D03*
Y193701D02*
D03*
X255118Y340158D02*
D03*
X257480Y335433D02*
D03*
X255118Y330709D02*
D03*
X257480Y325984D02*
D03*
Y316535D02*
D03*
Y231496D02*
D03*
X255118Y217323D02*
D03*
X252756Y382677D02*
D03*
Y344882D02*
D03*
X250394Y340158D02*
D03*
X252756Y335433D02*
D03*
X250394Y330709D02*
D03*
X252756Y325984D02*
D03*
Y231496D02*
D03*
X250394Y226772D02*
D03*
Y217323D02*
D03*
X252756Y212598D02*
D03*
X250394Y207874D02*
D03*
X245669Y406299D02*
D03*
Y396850D02*
D03*
X248031Y392126D02*
D03*
X245669Y387402D02*
D03*
X248031Y382677D02*
D03*
Y344882D02*
D03*
X245669Y340158D02*
D03*
X248031Y335433D02*
D03*
Y307087D02*
D03*
X245669Y292913D02*
D03*
X248031Y240945D02*
D03*
Y231496D02*
D03*
X245669Y226772D02*
D03*
X248031Y222047D02*
D03*
X245669Y217323D02*
D03*
X248031Y212598D02*
D03*
X245669Y207874D02*
D03*
Y198425D02*
D03*
X240945Y406299D02*
D03*
Y396850D02*
D03*
Y387402D02*
D03*
X243307Y382677D02*
D03*
X240945Y368504D02*
D03*
X243307Y344882D02*
D03*
X240945Y340158D02*
D03*
X243307Y307087D02*
D03*
Y250394D02*
D03*
X240945Y236221D02*
D03*
X243307Y231496D02*
D03*
X240945Y226772D02*
D03*
X243307Y222047D02*
D03*
X240945Y217323D02*
D03*
X243307Y212598D02*
D03*
X240945Y207874D02*
D03*
X243307Y203150D02*
D03*
X240945Y198425D02*
D03*
X243307Y193701D02*
D03*
X236221Y406299D02*
D03*
X238583Y401575D02*
D03*
X236221Y396850D02*
D03*
X238583Y392126D02*
D03*
X236221Y387402D02*
D03*
X238583Y382677D02*
D03*
Y373228D02*
D03*
X236221Y368504D02*
D03*
Y359055D02*
D03*
X238583Y344882D02*
D03*
X236221Y340158D02*
D03*
Y311811D02*
D03*
X238583Y307087D02*
D03*
Y297638D02*
D03*
Y240945D02*
D03*
X236221Y236221D02*
D03*
X238583Y231496D02*
D03*
X236221Y226772D02*
D03*
X238583Y222047D02*
D03*
X236221Y217323D02*
D03*
X238583Y212598D02*
D03*
X236221Y207874D02*
D03*
X238583Y203150D02*
D03*
X236221Y198425D02*
D03*
X238583Y193701D02*
D03*
X236221Y188976D02*
D03*
X231496Y406299D02*
D03*
X233858Y401575D02*
D03*
X231496Y396850D02*
D03*
X233858Y392126D02*
D03*
X231496Y387402D02*
D03*
X233858Y382677D02*
D03*
Y373228D02*
D03*
Y354331D02*
D03*
Y316535D02*
D03*
X231496Y311811D02*
D03*
X233858Y307087D02*
D03*
X231496Y245669D02*
D03*
X233858Y240945D02*
D03*
X231496Y236221D02*
D03*
X233858Y231496D02*
D03*
X231496Y226772D02*
D03*
X233858Y222047D02*
D03*
X231496Y217323D02*
D03*
X233858Y212598D02*
D03*
X231496Y207874D02*
D03*
X233858Y203150D02*
D03*
X231496Y198425D02*
D03*
X233858Y193701D02*
D03*
X231496Y188976D02*
D03*
X233858Y155905D02*
D03*
X229134Y401575D02*
D03*
Y392126D02*
D03*
Y240945D02*
D03*
X226772Y236221D02*
D03*
X229134Y231496D02*
D03*
X226772Y226772D02*
D03*
X229134Y222047D02*
D03*
X226772Y217323D02*
D03*
X229134Y212598D02*
D03*
X226772Y207874D02*
D03*
X229134Y203150D02*
D03*
X226772Y198425D02*
D03*
X229134Y193701D02*
D03*
Y184252D02*
D03*
Y155905D02*
D03*
X222047Y368504D02*
D03*
Y349606D02*
D03*
Y330709D02*
D03*
X224410Y250394D02*
D03*
X222047Y245669D02*
D03*
X224410Y240945D02*
D03*
X222047Y236221D02*
D03*
X224410Y231496D02*
D03*
X222047Y226772D02*
D03*
X224410Y222047D02*
D03*
X222047Y217323D02*
D03*
X224410Y212598D02*
D03*
X222047Y207874D02*
D03*
X224410Y203150D02*
D03*
X222047Y198425D02*
D03*
X224410Y193701D02*
D03*
X219685Y382677D02*
D03*
Y363780D02*
D03*
Y354331D02*
D03*
X217323Y349606D02*
D03*
X219685Y344882D02*
D03*
Y278740D02*
D03*
Y250394D02*
D03*
X217323Y245669D02*
D03*
X219685Y240945D02*
D03*
X217323Y236221D02*
D03*
X219685Y231496D02*
D03*
X217323Y226772D02*
D03*
X219685Y222047D02*
D03*
X217323Y217323D02*
D03*
X219685Y212598D02*
D03*
X217323Y207874D02*
D03*
X219685Y203150D02*
D03*
X217323Y198425D02*
D03*
X219685Y193701D02*
D03*
X217323Y170079D02*
D03*
X214961Y382677D02*
D03*
Y354331D02*
D03*
X212598Y349606D02*
D03*
X214961Y344882D02*
D03*
X212598Y340158D02*
D03*
X214961Y335433D02*
D03*
X212598Y330709D02*
D03*
X214961Y325984D02*
D03*
X212598Y283465D02*
D03*
X214961Y250394D02*
D03*
X212598Y245669D02*
D03*
X214961Y240945D02*
D03*
X212598Y236221D02*
D03*
X214961Y231496D02*
D03*
X212598Y226772D02*
D03*
X214961Y222047D02*
D03*
X212598Y217323D02*
D03*
X214961Y212598D02*
D03*
X212598Y207874D02*
D03*
X214961Y203150D02*
D03*
X212598Y198425D02*
D03*
X214961Y193701D02*
D03*
X212598Y170079D02*
D03*
X210236Y382677D02*
D03*
X207874Y264567D02*
D03*
X210236Y250394D02*
D03*
X207874Y245669D02*
D03*
X210236Y240945D02*
D03*
X207874Y236221D02*
D03*
X210236Y231496D02*
D03*
X207874Y226772D02*
D03*
X210236Y222047D02*
D03*
X207874Y217323D02*
D03*
X210236Y212598D02*
D03*
X207874Y207874D02*
D03*
X210236Y203150D02*
D03*
X207874Y198425D02*
D03*
X210236Y193701D02*
D03*
X207874Y188976D02*
D03*
Y170079D02*
D03*
X210236Y165354D02*
D03*
X207874Y160630D02*
D03*
X210236Y155905D02*
D03*
Y137008D02*
D03*
X205512Y382677D02*
D03*
X203150Y368504D02*
D03*
Y359055D02*
D03*
X205512Y354331D02*
D03*
X203150Y349606D02*
D03*
X205512Y344882D02*
D03*
X203150Y340158D02*
D03*
X205512Y335433D02*
D03*
X203150Y330709D02*
D03*
X205512Y325984D02*
D03*
X203150Y302362D02*
D03*
Y274016D02*
D03*
X205512Y250394D02*
D03*
X203150Y245669D02*
D03*
X205512Y240945D02*
D03*
X203150Y236221D02*
D03*
X205512Y231496D02*
D03*
X203150Y226772D02*
D03*
X205512Y222047D02*
D03*
X203150Y217323D02*
D03*
X205512Y212598D02*
D03*
X203150Y207874D02*
D03*
X205512Y203150D02*
D03*
X203150Y198425D02*
D03*
X205512Y193701D02*
D03*
Y137008D02*
D03*
X203150Y132283D02*
D03*
X200787Y382677D02*
D03*
X198425Y359055D02*
D03*
X200787Y354331D02*
D03*
X198425Y349606D02*
D03*
X200787Y344882D02*
D03*
X198425Y340158D02*
D03*
X200787Y335433D02*
D03*
X198425Y330709D02*
D03*
X200787Y325984D02*
D03*
Y307087D02*
D03*
Y297638D02*
D03*
Y288189D02*
D03*
X198425Y274016D02*
D03*
X200787Y269291D02*
D03*
X198425Y264567D02*
D03*
X200787Y250394D02*
D03*
X198425Y245669D02*
D03*
X200787Y240945D02*
D03*
X198425Y236221D02*
D03*
X200787Y231496D02*
D03*
X198425Y226772D02*
D03*
X200787Y222047D02*
D03*
X198425Y217323D02*
D03*
X200787Y212598D02*
D03*
X198425Y207874D02*
D03*
X200787Y203150D02*
D03*
Y193701D02*
D03*
X198425Y179528D02*
D03*
X200787Y174803D02*
D03*
X198425Y160630D02*
D03*
X200787Y155905D02*
D03*
X196063Y382677D02*
D03*
Y363780D02*
D03*
Y344882D02*
D03*
X193701Y340158D02*
D03*
X196063Y335433D02*
D03*
X193701Y330709D02*
D03*
X196063Y325984D02*
D03*
X193701Y302362D02*
D03*
X196063Y288189D02*
D03*
X193701Y274016D02*
D03*
Y264567D02*
D03*
X196063Y250394D02*
D03*
X193701Y245669D02*
D03*
X196063Y240945D02*
D03*
X193701Y236221D02*
D03*
X196063Y231496D02*
D03*
X193701Y226772D02*
D03*
Y207874D02*
D03*
X196063Y203150D02*
D03*
X193701Y179528D02*
D03*
X196063Y174803D02*
D03*
Y165354D02*
D03*
X193701Y160630D02*
D03*
X191339Y382677D02*
D03*
Y363780D02*
D03*
Y344882D02*
D03*
X188976Y340158D02*
D03*
X191339Y335433D02*
D03*
X188976Y330709D02*
D03*
X191339Y325984D02*
D03*
Y288189D02*
D03*
X188976Y274016D02*
D03*
Y264567D02*
D03*
X191339Y250394D02*
D03*
X188976Y245669D02*
D03*
X191339Y240945D02*
D03*
X188976Y236221D02*
D03*
X191339Y231496D02*
D03*
X188976Y226772D02*
D03*
Y179528D02*
D03*
X191339Y174803D02*
D03*
Y165354D02*
D03*
X188976Y160630D02*
D03*
X186614Y382677D02*
D03*
Y363780D02*
D03*
Y344882D02*
D03*
X184252Y340158D02*
D03*
X186614Y335433D02*
D03*
X184252Y330709D02*
D03*
X186614Y325984D02*
D03*
X184252Y264567D02*
D03*
X186614Y250394D02*
D03*
Y240945D02*
D03*
X184252Y236221D02*
D03*
X186614Y231496D02*
D03*
X184252Y226772D02*
D03*
Y179528D02*
D03*
X186614Y174803D02*
D03*
Y165354D02*
D03*
X184252Y160630D02*
D03*
X181890Y382677D02*
D03*
Y363780D02*
D03*
X179528Y359055D02*
D03*
Y349606D02*
D03*
X181890Y344882D02*
D03*
X179528Y340158D02*
D03*
X181890Y335433D02*
D03*
X179528Y330709D02*
D03*
X181890Y325984D02*
D03*
Y240945D02*
D03*
X179528Y236221D02*
D03*
X181890Y231496D02*
D03*
X179528Y226772D02*
D03*
Y179528D02*
D03*
X181890Y174803D02*
D03*
Y165354D02*
D03*
X179528Y160630D02*
D03*
X177165Y382677D02*
D03*
Y363780D02*
D03*
X174803Y359055D02*
D03*
X177165Y354331D02*
D03*
X174803Y349606D02*
D03*
X177165Y344882D02*
D03*
X174803Y340158D02*
D03*
X177165Y335433D02*
D03*
Y240945D02*
D03*
X174803Y236221D02*
D03*
X177165Y231496D02*
D03*
X174803Y226772D02*
D03*
Y179528D02*
D03*
X177165Y174803D02*
D03*
Y165354D02*
D03*
X174803Y160630D02*
D03*
Y141732D02*
D03*
X172441Y382677D02*
D03*
X170079Y377953D02*
D03*
X172441Y363780D02*
D03*
X170079Y359055D02*
D03*
X172441Y354331D02*
D03*
X170079Y349606D02*
D03*
X172441Y344882D02*
D03*
X170079Y340158D02*
D03*
X172441Y335433D02*
D03*
X170079Y330709D02*
D03*
X172441Y325984D02*
D03*
X170079Y292913D02*
D03*
X172441Y288189D02*
D03*
X170079Y283465D02*
D03*
Y274016D02*
D03*
X172441Y231496D02*
D03*
X170079Y226772D02*
D03*
X172441Y222047D02*
D03*
X170079Y207874D02*
D03*
X172441Y203150D02*
D03*
X170079Y179528D02*
D03*
X172441Y174803D02*
D03*
Y165354D02*
D03*
X170079Y160630D02*
D03*
Y141732D02*
D03*
X167717Y382677D02*
D03*
X165354Y377953D02*
D03*
Y330709D02*
D03*
X167717Y325984D02*
D03*
X165354Y311811D02*
D03*
X167717Y288189D02*
D03*
X165354Y283465D02*
D03*
X167717Y240945D02*
D03*
Y231496D02*
D03*
X165354Y207874D02*
D03*
X167717Y203150D02*
D03*
X165354Y179528D02*
D03*
X167717Y174803D02*
D03*
Y165354D02*
D03*
X165354Y160630D02*
D03*
Y151181D02*
D03*
Y141732D02*
D03*
X162992Y363780D02*
D03*
Y354331D02*
D03*
Y344882D02*
D03*
Y335433D02*
D03*
Y325984D02*
D03*
Y288189D02*
D03*
Y240945D02*
D03*
X160630Y236221D02*
D03*
Y207874D02*
D03*
X162992Y203150D02*
D03*
Y165354D02*
D03*
X160630Y160630D02*
D03*
X162992Y155905D02*
D03*
X160630Y151181D02*
D03*
X162992Y146457D02*
D03*
X160630Y141732D02*
D03*
X158268Y240945D02*
D03*
X155905Y207874D02*
D03*
X158268Y203150D02*
D03*
Y165354D02*
D03*
X155905Y160630D02*
D03*
X158268Y155905D02*
D03*
X155905Y151181D02*
D03*
X158268Y146457D02*
D03*
X155905Y141732D02*
D03*
X151181Y406299D02*
D03*
X153543Y401575D02*
D03*
X151181Y396850D02*
D03*
X153543Y392126D02*
D03*
X151181Y387402D02*
D03*
Y377953D02*
D03*
Y349606D02*
D03*
Y330709D02*
D03*
X153543Y250394D02*
D03*
X151181Y245669D02*
D03*
X153543Y240945D02*
D03*
X151181Y226772D02*
D03*
Y207874D02*
D03*
X153543Y203150D02*
D03*
X151181Y179528D02*
D03*
Y160630D02*
D03*
X153543Y155905D02*
D03*
X151181Y151181D02*
D03*
X153543Y146457D02*
D03*
X151181Y141732D02*
D03*
X146457Y406299D02*
D03*
X148819Y401575D02*
D03*
X146457Y396850D02*
D03*
X148819Y392126D02*
D03*
X146457Y387402D02*
D03*
X148819Y382677D02*
D03*
X146457Y377953D02*
D03*
X148819Y373228D02*
D03*
X146457Y302362D02*
D03*
X148819Y297638D02*
D03*
X146457Y292913D02*
D03*
X148819Y288189D02*
D03*
X146457Y283465D02*
D03*
X148819Y278740D02*
D03*
Y250394D02*
D03*
X146457Y245669D02*
D03*
Y226772D02*
D03*
Y207874D02*
D03*
X148819Y203150D02*
D03*
X146457Y198425D02*
D03*
Y188976D02*
D03*
Y179528D02*
D03*
X148819Y155905D02*
D03*
X146457Y151181D02*
D03*
X148819Y146457D02*
D03*
X146457Y141732D02*
D03*
Y132283D02*
D03*
X141732Y406299D02*
D03*
X144095Y401575D02*
D03*
X141732Y396850D02*
D03*
X144095Y392126D02*
D03*
X141732Y387402D02*
D03*
X144095Y382677D02*
D03*
Y307087D02*
D03*
X141732Y302362D02*
D03*
X144095Y297638D02*
D03*
X141732Y292913D02*
D03*
X144095Y288189D02*
D03*
Y269291D02*
D03*
Y250394D02*
D03*
X141732Y245669D02*
D03*
Y226772D02*
D03*
Y217323D02*
D03*
X144095Y212598D02*
D03*
X141732Y207874D02*
D03*
X144095Y203150D02*
D03*
X141732Y198425D02*
D03*
X144095Y193701D02*
D03*
X141732Y188976D02*
D03*
X144095Y184252D02*
D03*
X141732Y179528D02*
D03*
X144095Y174803D02*
D03*
Y155905D02*
D03*
X141732Y151181D02*
D03*
X144095Y146457D02*
D03*
X141732Y141732D02*
D03*
X144095Y137008D02*
D03*
X141732Y132283D02*
D03*
X137008Y406299D02*
D03*
X139370Y401575D02*
D03*
X137008Y396850D02*
D03*
X139370Y392126D02*
D03*
X137008Y387402D02*
D03*
X139370Y382677D02*
D03*
X137008Y359055D02*
D03*
X139370Y297638D02*
D03*
X137008Y292913D02*
D03*
X139370Y222047D02*
D03*
Y203150D02*
D03*
Y193701D02*
D03*
Y184252D02*
D03*
X137008Y179528D02*
D03*
X139370Y174803D02*
D03*
Y155905D02*
D03*
X137008Y151181D02*
D03*
X139370Y146457D02*
D03*
X137008Y141732D02*
D03*
X139370Y137008D02*
D03*
X137008Y132283D02*
D03*
X132283Y406299D02*
D03*
X134646Y401575D02*
D03*
X132283Y396850D02*
D03*
X134646Y392126D02*
D03*
X132283Y387402D02*
D03*
X134646Y382677D02*
D03*
X132283Y377953D02*
D03*
Y359055D02*
D03*
Y349606D02*
D03*
Y340158D02*
D03*
X134646Y297638D02*
D03*
X132283Y292913D02*
D03*
X134646Y184252D02*
D03*
X132283Y179528D02*
D03*
X134646Y174803D02*
D03*
Y155905D02*
D03*
X132283Y151181D02*
D03*
X134646Y146457D02*
D03*
X132283Y141732D02*
D03*
X134646Y137008D02*
D03*
X132283Y132283D02*
D03*
X127559Y406299D02*
D03*
X129921Y401575D02*
D03*
X127559Y396850D02*
D03*
X129921Y392126D02*
D03*
X127559Y387402D02*
D03*
X129921Y382677D02*
D03*
X127559Y377953D02*
D03*
X129921Y363780D02*
D03*
X127559Y359055D02*
D03*
X129921Y354331D02*
D03*
X127559Y349606D02*
D03*
X129921Y344882D02*
D03*
X127559Y340158D02*
D03*
Y311811D02*
D03*
X129921Y297638D02*
D03*
X127559Y292913D02*
D03*
X129921Y222047D02*
D03*
Y203150D02*
D03*
Y184252D02*
D03*
Y155905D02*
D03*
X127559Y151181D02*
D03*
X129921Y146457D02*
D03*
X127559Y141732D02*
D03*
X129921Y137008D02*
D03*
X127559Y132283D02*
D03*
X122835Y406299D02*
D03*
X125197Y401575D02*
D03*
X122835Y396850D02*
D03*
X125197Y392126D02*
D03*
X122835Y387402D02*
D03*
X125197Y382677D02*
D03*
X122835Y359055D02*
D03*
X125197Y354331D02*
D03*
X122835Y349606D02*
D03*
X125197Y344882D02*
D03*
X122835Y321260D02*
D03*
X125197Y316535D02*
D03*
X122835Y236221D02*
D03*
Y179528D02*
D03*
Y151181D02*
D03*
X125197Y146457D02*
D03*
X118110Y406299D02*
D03*
X120473Y401575D02*
D03*
X118110Y396850D02*
D03*
X120473Y392126D02*
D03*
X118110Y387402D02*
D03*
X120473Y382677D02*
D03*
X118110Y359055D02*
D03*
X120473Y354331D02*
D03*
X118110Y349606D02*
D03*
X120473Y344882D02*
D03*
X118110Y311811D02*
D03*
X120473Y297638D02*
D03*
X118110Y292913D02*
D03*
Y236221D02*
D03*
Y217323D02*
D03*
Y207874D02*
D03*
X120473Y184252D02*
D03*
X118110Y179528D02*
D03*
Y151181D02*
D03*
X120473Y146457D02*
D03*
X118110Y122835D02*
D03*
X120473Y118110D02*
D03*
X118110Y113386D02*
D03*
X120473Y108661D02*
D03*
X118110Y103937D02*
D03*
X115748Y392126D02*
D03*
X113386Y311811D02*
D03*
X115748Y297638D02*
D03*
X113386Y292913D02*
D03*
X115748Y240945D02*
D03*
X113386Y236221D02*
D03*
X115748Y222047D02*
D03*
Y203150D02*
D03*
X113386Y198425D02*
D03*
Y179528D02*
D03*
Y151181D02*
D03*
X115748Y146457D02*
D03*
X113386Y122835D02*
D03*
X115748Y118110D02*
D03*
X111024Y392126D02*
D03*
X108661Y377953D02*
D03*
X111024Y373228D02*
D03*
X108661Y368504D02*
D03*
X111024Y363780D02*
D03*
X108661Y311811D02*
D03*
Y302362D02*
D03*
X111024Y297638D02*
D03*
X108661Y292913D02*
D03*
Y283465D02*
D03*
Y274016D02*
D03*
Y264567D02*
D03*
Y255118D02*
D03*
Y245669D02*
D03*
X111024Y240945D02*
D03*
X108661Y236221D02*
D03*
Y226772D02*
D03*
X111024Y222047D02*
D03*
X108661Y217323D02*
D03*
Y207874D02*
D03*
X111024Y203150D02*
D03*
X108661Y160630D02*
D03*
X111024Y155905D02*
D03*
X108661Y151181D02*
D03*
X111024Y146457D02*
D03*
X108661Y141732D02*
D03*
X111024Y137008D02*
D03*
X108661Y132283D02*
D03*
X111024Y127559D02*
D03*
X108661Y122835D02*
D03*
X106299Y392126D02*
D03*
X103937Y377953D02*
D03*
X106299Y373228D02*
D03*
X103937Y368504D02*
D03*
X106299Y363780D02*
D03*
X103937Y340158D02*
D03*
Y330709D02*
D03*
X106299Y325984D02*
D03*
X103937Y311811D02*
D03*
X106299Y307087D02*
D03*
X103937Y302362D02*
D03*
X106299Y297638D02*
D03*
X103937Y292913D02*
D03*
X106299Y288189D02*
D03*
X103937Y283465D02*
D03*
X106299Y278740D02*
D03*
X103937Y274016D02*
D03*
X106299Y269291D02*
D03*
X103937Y264567D02*
D03*
X106299Y259842D02*
D03*
X103937Y255118D02*
D03*
X106299Y250394D02*
D03*
X103937Y245669D02*
D03*
X106299Y240945D02*
D03*
X103937Y236221D02*
D03*
X106299Y231496D02*
D03*
X103937Y226772D02*
D03*
X106299Y222047D02*
D03*
X103937Y217323D02*
D03*
X106299Y212598D02*
D03*
X103937Y207874D02*
D03*
X106299Y203150D02*
D03*
X103937Y170079D02*
D03*
X106299Y165354D02*
D03*
X103937Y160630D02*
D03*
X106299Y155905D02*
D03*
X103937Y151181D02*
D03*
X106299Y146457D02*
D03*
X103937Y141732D02*
D03*
X106299Y137008D02*
D03*
X103937Y132283D02*
D03*
X106299Y127559D02*
D03*
X103937Y122835D02*
D03*
X106299Y118110D02*
D03*
X103937Y103937D02*
D03*
X297146Y274724D02*
D03*
X266831Y269238D02*
D03*
X266772Y272809D02*
D03*
X267224Y276420D02*
D03*
X231004Y254716D02*
D03*
X227461Y259154D02*
D03*
X226083Y269783D02*
D03*
X249803Y245866D02*
D03*
X225984Y262402D02*
D03*
X221161Y266535D02*
D03*
X299016Y270669D02*
D03*
X311319Y273721D02*
D03*
X269882Y263878D02*
D03*
X266339Y266535D02*
D03*
X275705Y265472D02*
D03*
X277772Y267539D02*
D03*
X258366Y271654D02*
D03*
X354429Y307185D02*
D03*
X366043Y301870D02*
D03*
X291485Y315503D02*
D03*
X310531Y300930D02*
D03*
X307087Y291043D02*
D03*
X351673Y300689D02*
D03*
X363583Y298524D02*
D03*
X323425Y233760D02*
D03*
X267522Y245714D02*
D03*
X261713Y276772D02*
D03*
X358268Y296829D02*
D03*
X271457Y261319D02*
D03*
X265748Y335039D02*
D03*
X268504Y336713D02*
D03*
X283268Y297835D02*
D03*
X274508Y318209D02*
D03*
X313287Y370768D02*
D03*
X222342Y121161D02*
D03*
D136*
X292502Y110136D02*
D03*
X291902Y107136D02*
D03*
X289902Y105236D02*
D03*
X287302Y104336D02*
D03*
X284502Y105336D02*
D03*
X282602Y107436D02*
D03*
X282202Y110536D02*
D03*
X282902Y113436D02*
D03*
X284602Y115236D02*
D03*
X287302Y116036D02*
D03*
X290202Y115036D02*
D03*
X292002Y113136D02*
D03*
X187250Y110336D02*
D03*
X186650Y107336D02*
D03*
X184650Y105436D02*
D03*
X182050Y104536D02*
D03*
X179250Y105536D02*
D03*
X177350Y107636D02*
D03*
X176950Y110736D02*
D03*
X177650Y113636D02*
D03*
X179350Y115436D02*
D03*
X182050Y116236D02*
D03*
X184950Y115236D02*
D03*
X186750Y113336D02*
D03*
X363368Y110136D02*
D03*
X362768Y107136D02*
D03*
X360768Y105236D02*
D03*
X358168Y104336D02*
D03*
X355368Y105336D02*
D03*
X353468Y107436D02*
D03*
X353068Y110536D02*
D03*
X353768Y113436D02*
D03*
X355468Y115236D02*
D03*
X358168Y116036D02*
D03*
X361068Y115036D02*
D03*
X362868Y113136D02*
D03*
X222684Y110336D02*
D03*
X222083Y107336D02*
D03*
X220083Y105436D02*
D03*
X217483Y104536D02*
D03*
X214684Y105536D02*
D03*
X212784Y107636D02*
D03*
X212384Y110736D02*
D03*
X213084Y113636D02*
D03*
X214784Y115436D02*
D03*
X217483Y116236D02*
D03*
X220384Y115236D02*
D03*
X222183Y113336D02*
D03*
X327935Y110136D02*
D03*
X327335Y107136D02*
D03*
X325335Y105236D02*
D03*
X322735Y104336D02*
D03*
X319935Y105336D02*
D03*
X318035Y107436D02*
D03*
X317635Y110536D02*
D03*
X318335Y113436D02*
D03*
X320035Y115236D02*
D03*
X322735Y116036D02*
D03*
X325635Y115036D02*
D03*
X327435Y113136D02*
D03*
X258117Y110336D02*
D03*
X257517Y107336D02*
D03*
X255517Y105436D02*
D03*
X252917Y104536D02*
D03*
X250116Y105536D02*
D03*
X248217Y107636D02*
D03*
X247816Y110736D02*
D03*
X248517Y113636D02*
D03*
X250217Y115436D02*
D03*
X252917Y116236D02*
D03*
X255817Y115236D02*
D03*
X257616Y113336D02*
D03*
M02*
