G04*
G04 #@! TF.GenerationSoftware,Altium Limited,Altium Designer,20.1.8 (145)*
G04*
G04 Layer_Color=65535*
%FSLAX25Y25*%
%MOIN*%
G70*
G04*
G04 #@! TF.SameCoordinates,80DC2721-EA0D-41AB-A6B1-568E3CCDEEEF*
G04*
G04*
G04 #@! TF.FilePolarity,Positive*
G04*
G01*
G75*
%ADD10C,0.01000*%
%ADD11C,0.01000*%
%ADD12C,0.00787*%
%ADD13C,0.00394*%
%ADD14C,0.00700*%
%ADD15C,0.00197*%
%ADD16C,0.00600*%
%ADD17C,0.00500*%
%ADD18C,0.00800*%
%ADD19C,0.00598*%
%ADD20R,0.01500X0.33661*%
G36*
X191732Y408283D02*
X179881D01*
Y410059D01*
X191732D01*
Y408283D01*
D02*
G37*
G36*
X181890Y398409D02*
Y398319D01*
X170046D01*
Y398435D01*
X169993D01*
Y408090D01*
X172047D01*
Y400216D01*
X179881D01*
Y408090D01*
X181890D01*
Y398409D01*
D02*
G37*
G36*
X172047Y408155D02*
X162205D01*
Y392456D01*
X160150D01*
Y410059D01*
X172047D01*
Y408155D01*
D02*
G37*
G36*
X221260Y408145D02*
Y390491D01*
X219373D01*
Y408145D01*
X211417D01*
Y390496D01*
X209504D01*
Y408145D01*
X201575D01*
Y404365D01*
Y398456D01*
Y398445D01*
X191732D01*
Y398440D01*
X189756D01*
Y398445D01*
X189756D01*
Y400216D01*
X189756D01*
Y408090D01*
X191732D01*
Y400216D01*
X199641D01*
Y404365D01*
X199638D01*
Y410059D01*
X221260D01*
Y408145D01*
D02*
G37*
G36*
X162205Y390474D02*
X160156D01*
Y392342D01*
X162205D01*
Y390474D01*
D02*
G37*
G36*
X221260Y388506D02*
X219366D01*
Y390374D01*
X221260D01*
Y388506D01*
D02*
G37*
G36*
X211417Y388473D02*
X209481D01*
Y390374D01*
X211417D01*
Y388473D01*
D02*
G37*
D10*
X253972Y254654D02*
X253222Y255086D01*
Y254221D01*
X253972Y254654D01*
X141732Y236811D02*
X140945D01*
X141732D01*
X314429Y192028D02*
X314409Y193028D01*
X314349Y194026D01*
X314249Y195022D01*
X314109Y196012D01*
X313930Y196997D01*
X313712Y197973D01*
X313455Y198940D01*
X313159Y199896D01*
X312825Y200839D01*
X312454Y201768D01*
X312046Y202681D01*
X311601Y203577D01*
X311121Y204455D01*
X310607Y205313D01*
X310058Y206150D01*
X309477Y206964D01*
X308863Y207754D01*
X308218Y208519D01*
X307543Y209258D01*
X306839Y209968D01*
X306108Y210651D01*
X305349Y211303D01*
X304565Y211925D01*
X303757Y212514D01*
X302926Y213071D01*
X302073Y213594D01*
X301200Y214083D01*
X300308Y214536D01*
X299399Y214953D01*
X298474Y215334D01*
X297534Y215677D01*
X296582Y215983D01*
X295617Y216250D01*
X294643Y216478D01*
X293661Y216667D01*
X292672Y216816D01*
X291677Y216926D01*
X290679Y216996D01*
X289679Y217026D01*
X288679Y217016D01*
X287680Y216966D01*
X286683Y216876D01*
X285691Y216747D01*
X284705Y216577D01*
X283727Y216369D01*
X282758Y216121D01*
X281799Y215835D01*
X280853Y215510D01*
X279920Y215148D01*
X279002Y214749D01*
X278102Y214314D01*
X277219Y213843D01*
X276356Y213337D01*
X275514Y212797D01*
X274694Y212224D01*
X273898Y211618D01*
X273127Y210981D01*
X272381Y210313D01*
X271663Y209617D01*
X270974Y208892D01*
X270314Y208140D01*
X269685Y207362D01*
X269087Y206560D01*
X268522Y205734D01*
X267990Y204887D01*
X267493Y204019D01*
X267030Y203132D01*
X266604Y202226D01*
X266214Y201305D01*
X265862Y200369D01*
X265547Y199419D01*
X265270Y198458D01*
X265032Y197486D01*
X264833Y196505D01*
X264674Y195518D01*
X264554Y194525D01*
X264474Y193527D01*
X264434Y192528D01*
X264434Y191527D01*
X264474Y190528D01*
X264554Y189530D01*
X264674Y188537D01*
X264833Y187549D01*
X265032Y186569D01*
X265270Y185597D01*
X265547Y184636D01*
X265862Y183686D01*
X266214Y182750D01*
X266604Y181829D01*
X267030Y180924D01*
X267493Y180036D01*
X267990Y179168D01*
X268522Y178321D01*
X269087Y177495D01*
X269685Y176693D01*
X270314Y175915D01*
X270974Y175163D01*
X271663Y174439D01*
X272381Y173742D01*
X273127Y173074D01*
X273898Y172437D01*
X274694Y171832D01*
X275514Y171258D01*
X276356Y170718D01*
X277219Y170212D01*
X278102Y169741D01*
X279002Y169306D01*
X279920Y168907D01*
X280853Y168545D01*
X281799Y168220D01*
X282758Y167934D01*
X283727Y167686D01*
X284705Y167478D01*
X285691Y167308D01*
X286683Y167179D01*
X287680Y167089D01*
X288679Y167039D01*
X289679Y167029D01*
X290679Y167059D01*
X291677Y167129D01*
X292672Y167239D01*
X293661Y167388D01*
X294643Y167577D01*
X295617Y167806D01*
X296582Y168073D01*
X297534Y168378D01*
X298474Y168721D01*
X299399Y169102D01*
X300308Y169519D01*
X301200Y169972D01*
X302073Y170461D01*
X302926Y170984D01*
X303757Y171541D01*
X304566Y172131D01*
X305349Y172752D01*
X306108Y173405D01*
X306840Y174087D01*
X307543Y174798D01*
X308218Y175536D01*
X308863Y176301D01*
X309477Y177091D01*
X310058Y177905D01*
X310607Y178742D01*
X311121Y179600D01*
X311601Y180478D01*
X312046Y181374D01*
X312454Y182288D01*
X312825Y183217D01*
X313159Y184160D01*
X313455Y185115D01*
X313712Y186082D01*
X313930Y187058D01*
X314109Y188043D01*
X314249Y189033D01*
X314349Y190029D01*
X314409Y191027D01*
X314429Y192028D01*
X187205Y254724D02*
X186417D01*
X187205D01*
X142224Y312992D02*
X141437D01*
X142224D01*
X332382Y324213D02*
X331594D01*
X332382D01*
X354724Y324114D02*
X353937D01*
X354724D01*
X235039Y340650D02*
X234252D01*
X235039D01*
X108661Y207776D02*
X139370D01*
X108661D02*
Y218602D01*
X139370Y207776D02*
Y218602D01*
X108661D02*
Y235630D01*
X139370Y218602D02*
Y235630D01*
X109449D02*
X139370D01*
X108661D02*
X109449D01*
X133465Y101772D02*
X164173D01*
X133465D02*
Y112598D01*
X164173Y101772D02*
Y112598D01*
X134252D02*
X164173D01*
X133465D02*
X134252D01*
X322441Y296654D02*
X353150D01*
Y285827D02*
Y296654D01*
X322441Y285827D02*
Y296654D01*
Y285827D02*
X352362D01*
X353150D01*
X154134Y242717D02*
X184843D01*
X154134D02*
Y253543D01*
X184843Y242717D02*
Y253543D01*
X154921D02*
X184843D01*
X154134D02*
X154921D01*
X109153Y300984D02*
X139862D01*
X109153D02*
Y311811D01*
X139862Y300984D02*
Y311811D01*
X109941D02*
X139862D01*
X109153D02*
X109941D01*
X110630Y171653D02*
Y202362D01*
X99803Y171653D02*
X110630D01*
X99803Y202362D02*
X110630D01*
X99803Y172441D02*
Y202362D01*
Y171653D02*
Y172441D01*
X289345Y122740D02*
Y129990D01*
Y122740D02*
X311345D01*
Y134740D01*
X289345D02*
X311345D01*
X289345Y129990D02*
Y134740D01*
Y137307D02*
Y144557D01*
Y137307D02*
X311345D01*
Y149307D01*
X289345D02*
X311345D01*
X289345Y144557D02*
Y149307D01*
X246654Y307972D02*
Y338681D01*
X235827Y307972D02*
X246654D01*
X235827Y338681D02*
X246654D01*
X235827Y308760D02*
Y338681D01*
Y307972D02*
Y308760D01*
X372441Y230079D02*
X402362D01*
X403150D01*
Y311083D01*
X372441D02*
X403150D01*
X372441Y230079D02*
Y311083D01*
X139665Y240768D02*
Y291850D01*
X108957Y240768D02*
X139665D01*
X108957D02*
Y291850D01*
X109744D01*
X139665D01*
X282004Y343318D02*
X284289Y340461D01*
Y337319D01*
X286574Y343318D02*
X284289Y340461D01*
X136313Y293938D02*
X137313Y294938D01*
Y296937D01*
X136313Y297937D01*
X135314D01*
X134314Y296937D01*
Y294938D01*
X133314Y293938D01*
X132315D01*
X131315Y294938D01*
Y296937D01*
X132315Y297937D01*
X124161Y297543D02*
Y293545D01*
X126160Y295544D02*
X122161D01*
X114484Y297740D02*
Y293741D01*
X105408Y231222D02*
X106407Y232221D01*
Y234221D01*
X105408Y235221D01*
X104408D01*
X103409Y234221D01*
Y232221D01*
X102409Y231222D01*
X101409D01*
X100409Y232221D01*
Y234221D01*
X101409Y235221D01*
X100409Y226223D02*
Y228223D01*
X101409Y229222D01*
X103409D01*
X104408Y228223D01*
Y226223D01*
X103409Y225224D01*
X102409D01*
Y229222D01*
X104408Y223224D02*
X100409D01*
X102409D01*
X103409Y222225D01*
X104408Y221225D01*
Y220225D01*
Y217226D02*
X100409Y215227D01*
X104408Y213228D01*
X100409Y210228D02*
Y208229D01*
X101409Y207229D01*
X103409D01*
X104408Y208229D01*
Y210228D01*
X103409Y211228D01*
X101409D01*
X100409Y210228D01*
X294898Y328947D02*
X298897Y322949D01*
Y328947D02*
X294898Y322949D01*
X244701Y119898D02*
Y127769D01*
X248637D01*
X249948Y126457D01*
Y123833D01*
X248637Y122521D01*
X244701D01*
X253884Y119898D02*
X256508D01*
X257820Y121210D01*
Y123833D01*
X256508Y125145D01*
X253884D01*
X252572Y123833D01*
Y121210D01*
X253884Y119898D01*
X260444Y125145D02*
Y121210D01*
X261756Y119898D01*
X263068Y121210D01*
X264380Y119898D01*
X265691Y121210D01*
Y125145D01*
X272251Y119898D02*
X269627D01*
X268315Y121210D01*
Y123833D01*
X269627Y125145D01*
X272251D01*
X273563Y123833D01*
Y122521D01*
X268315D01*
X276187Y125145D02*
Y119898D01*
Y122521D01*
X277499Y123833D01*
X278811Y125145D01*
X280122D01*
X375793Y227991D02*
X374793Y226991D01*
Y224992D01*
X375793Y223992D01*
X376793D01*
X377792Y224992D01*
Y226991D01*
X378792Y227991D01*
X379792D01*
X380791Y226991D01*
Y224992D01*
X379792Y223992D01*
X387946Y224386D02*
Y228384D01*
X385946Y226385D02*
X389945D01*
X397622Y224189D02*
Y228188D01*
D11*
X145294Y378455D02*
D03*
X151532Y301861D02*
D03*
D12*
X311811Y369685D02*
X311024D01*
X311811D01*
X257579Y338583D02*
X256791D01*
X257579D01*
X151319Y383584D02*
X150531D01*
X151319D01*
X264173Y387795D02*
X263386D01*
X264173D01*
X320472D02*
X319685D01*
X320472D01*
X102362Y132677D02*
X134646D01*
X101575Y164173D02*
Y168898D01*
X99213Y166535D02*
X104331D01*
X105905Y165354D02*
X131102D01*
X134646Y161811D01*
X102362Y130709D02*
X134646D01*
X102362D02*
Y161811D01*
X105905Y165354D01*
X134646Y130709D02*
Y161811D01*
X328740Y163779D02*
Y196063D01*
X360236Y196850D02*
X364961D01*
X362598Y194095D02*
Y199213D01*
X361417Y167323D02*
Y192520D01*
X357874Y163779D02*
X361417Y167323D01*
X326772Y163779D02*
Y196063D01*
X357874D01*
X361417Y192520D01*
X326772Y163779D02*
X357874D01*
X151673Y202658D02*
X182776D01*
Y234941D02*
X186319Y231398D01*
X151673Y234941D02*
X182776D01*
X151673Y202658D02*
Y234941D01*
X182776Y202658D02*
X186319Y206201D01*
Y231398D01*
X187500Y232972D02*
Y238090D01*
X185138Y235728D02*
X189862D01*
X153642Y202658D02*
Y234941D01*
X243209Y129626D02*
X274311D01*
Y161909D02*
X277854Y158366D01*
X243209Y161909D02*
X274311D01*
X243209Y129626D02*
Y161909D01*
X274311Y129626D02*
X277854Y133169D01*
Y158366D01*
X279035Y159941D02*
Y165059D01*
X276673Y162697D02*
X281398D01*
X245177Y129626D02*
Y161909D01*
X216043Y167126D02*
X247146D01*
Y199409D02*
X250689Y195866D01*
X216043Y199409D02*
X247146D01*
X216043Y167126D02*
Y199409D01*
X247146Y167126D02*
X250689Y170669D01*
Y195866D01*
X251870Y197441D02*
Y202559D01*
X249508Y200197D02*
X254232D01*
X218012Y167126D02*
Y199409D01*
X357431Y392712D02*
X380731D01*
Y411912D01*
X357431D02*
X380731D01*
X357431Y392712D02*
Y411912D01*
X352402Y256260D02*
Y276260D01*
X322402D02*
X352402D01*
X322402Y256260D02*
Y276260D01*
Y256260D02*
X352402D01*
X390744Y358853D02*
Y382153D01*
Y358853D02*
X409944D01*
Y382153D01*
X390744D02*
X409944D01*
X390743Y140795D02*
Y164095D01*
Y140795D02*
X409943D01*
Y164095D01*
X390743D02*
X409943D01*
X390744Y321898D02*
Y345198D01*
Y321898D02*
X409944D01*
Y345198D01*
X390744D02*
X409944D01*
X121067Y321998D02*
Y345298D01*
X101867D02*
X121067D01*
X101867Y321998D02*
Y345298D01*
Y321998D02*
X121067D01*
X335689Y213307D02*
Y233307D01*
Y213307D02*
X355689D01*
X335689Y233307D02*
X355689D01*
Y213307D02*
Y233307D01*
X121067Y358989D02*
Y382289D01*
X101867D02*
X121067D01*
X101867Y358989D02*
Y382289D01*
Y358989D02*
X121067D01*
X390744Y185624D02*
Y208924D01*
Y185624D02*
X409944D01*
Y208924D01*
X390744D02*
X409944D01*
X141732Y287618D02*
Y285939D01*
Y286778D01*
X146770D01*
X145930Y287618D01*
X141732Y275024D02*
Y278382D01*
X145091Y275024D01*
X145930D01*
X146770Y275863D01*
Y277543D01*
X145930Y278382D01*
Y268307D02*
X146770Y267467D01*
Y265788D01*
X145930Y264948D01*
X145091D01*
X144251Y265788D01*
Y266628D01*
Y265788D01*
X143412Y264948D01*
X142572D01*
X141732Y265788D01*
Y267467D01*
X142572Y268307D01*
X141732Y255712D02*
X146770D01*
X144251Y258231D01*
Y254873D01*
X146770Y244797D02*
Y248156D01*
X144251D01*
X145091Y246477D01*
Y245637D01*
X144251Y244797D01*
X142572D01*
X141732Y245637D01*
Y247316D01*
X142572Y248156D01*
X370374Y234311D02*
Y235990D01*
Y235151D01*
X365336D01*
X366176Y234311D01*
X370374Y246905D02*
Y243547D01*
X367016Y246905D01*
X366176D01*
X365336Y246066D01*
Y244387D01*
X366176Y243547D01*
Y253622D02*
X365336Y254462D01*
Y256141D01*
X366176Y256981D01*
X367016D01*
X367855Y256141D01*
Y255302D01*
Y256141D01*
X368695Y256981D01*
X369534D01*
X370374Y256141D01*
Y254462D01*
X369534Y253622D01*
X370374Y266217D02*
X365336D01*
X367855Y263698D01*
Y267056D01*
X365336Y277132D02*
Y273773D01*
X367855D01*
X367016Y275453D01*
Y276292D01*
X367855Y277132D01*
X369534D01*
X370374Y276292D01*
Y274613D01*
X369534Y273773D01*
X365336Y287207D02*
X366176Y285528D01*
X367855Y283849D01*
X369534D01*
X370374Y284688D01*
Y286368D01*
X369534Y287207D01*
X368695D01*
X367855Y286368D01*
Y283849D01*
X365336Y293924D02*
Y297283D01*
X366176D01*
X369534Y293924D01*
X370374D01*
X366176Y304000D02*
X365336Y304839D01*
Y306519D01*
X366176Y307358D01*
X367016D01*
X367855Y306519D01*
X368695Y307358D01*
X369534D01*
X370374Y306519D01*
Y304839D01*
X369534Y304000D01*
X368695D01*
X367855Y304839D01*
X367016Y304000D01*
X366176D01*
X367855Y304839D02*
Y306519D01*
D13*
X318406Y143041D02*
X319289Y143407D01*
X319655Y144291D01*
X319289Y145175D01*
X318406Y145541D01*
X302559Y240059D02*
X304134Y241634D01*
X319094D02*
X320669Y240059D01*
X304134Y241634D02*
X319094D01*
Y220374D02*
X320669Y221949D01*
Y240059D01*
X304134Y220374D02*
X319094D01*
X302559Y221949D02*
X304134Y220374D01*
X302559Y221949D02*
Y240059D01*
X260532Y363510D02*
Y365610D01*
X272832D01*
Y363510D02*
Y365610D01*
X260532Y363510D02*
X272832D01*
X286790Y372532D02*
Y374732D01*
X285690Y373632D02*
X287890D01*
X284258Y372632D02*
X285827D01*
Y360532D02*
Y372632D01*
X277953Y360532D02*
X285827D01*
X277953D02*
Y372632D01*
X284258D01*
X278090Y363032D02*
X285827D01*
X277990Y363332D02*
X285727D01*
X277990Y363632D02*
X285727D01*
X156693Y288189D02*
X158268Y289764D01*
X173228D02*
X174803Y288189D01*
X158268Y289764D02*
X173228D01*
Y268504D02*
X174803Y270079D01*
Y288189D01*
X158268Y268504D02*
X173228D01*
X156693Y270079D02*
X158268Y268504D01*
X156693Y270079D02*
Y288189D01*
X187402D02*
X188976Y289764D01*
X203937D02*
X205512Y288189D01*
X188976Y289764D02*
X203937D01*
Y268504D02*
X205512Y270079D01*
Y288189D01*
X188976Y268504D02*
X203937D01*
X187402Y270079D02*
X188976Y268504D01*
X187402Y270079D02*
Y288189D01*
X307429Y186428D02*
X310829D01*
X309129Y184728D02*
Y186428D01*
Y184728D02*
Y188128D01*
X275787Y221752D02*
Y239862D01*
X274213Y241437D02*
X275787Y239862D01*
X259252Y241437D02*
X274213D01*
X257677Y221752D02*
Y239862D01*
X259252Y241437D01*
Y220177D02*
X274213D01*
X257677Y221752D02*
X259252Y220177D01*
X274213D02*
X275787Y221752D01*
X143970Y320455D02*
Y377755D01*
X134770Y320455D02*
X143970D01*
X134770D02*
Y377755D01*
X143970D01*
X333169Y336811D02*
X352067D01*
Y324606D02*
Y336811D01*
X333169Y325787D02*
Y336811D01*
Y325787D02*
X334350Y324606D01*
X352067D01*
X355512Y336713D02*
X374409D01*
Y324508D02*
Y336713D01*
X355512Y325689D02*
Y336713D01*
Y325689D02*
X356693Y324508D01*
X374409D01*
X224572Y126039D02*
Y126043D01*
Y126039D02*
Y159605D01*
X224672Y159705D01*
X216572Y126043D02*
Y159705D01*
Y126043D02*
X226172D01*
Y159705D01*
X216572D02*
X226172D01*
X357579Y356496D02*
X375689D01*
X377264Y358071D01*
Y373031D01*
X357579Y374606D02*
X375689D01*
X377264Y373031D01*
X356004Y358071D02*
Y373031D01*
X357579Y374606D01*
X356004Y358071D02*
X357579Y356496D01*
X331201Y356791D02*
X349311D01*
X350886Y358366D01*
Y373327D01*
X331201Y374902D02*
X349311D01*
X350886Y373327D01*
X329626Y358366D02*
Y373327D01*
X331201Y374902D01*
X329626Y358366D02*
X331201Y356791D01*
X318406Y137661D02*
Y143041D01*
Y145541D02*
Y150961D01*
X338405D01*
Y137661D02*
Y150961D01*
X318406Y137661D02*
X338405D01*
X239863Y363510D02*
X252163D01*
Y365610D01*
X239863D02*
X252163D01*
X239863Y363510D02*
Y365610D01*
X140228Y125417D02*
X207228D01*
X140228D02*
Y197417D01*
X207228D01*
Y163732D02*
Y197417D01*
Y125417D02*
Y163732D01*
X152009Y300761D02*
X209309D01*
Y291561D02*
Y300761D01*
X152009Y291561D02*
X209309D01*
X152009D02*
Y300761D01*
X342593Y146974D02*
Y157488D01*
X370793D01*
Y130988D02*
Y157488D01*
X342593Y130988D02*
X370793D01*
X342593D02*
Y146974D01*
X306902Y102236D02*
X308902Y104236D01*
X306702Y117736D02*
X308902Y115536D01*
Y104236D02*
Y115536D01*
X282902Y117736D02*
X306702D01*
X280602Y115436D02*
X282902Y117736D01*
X280602Y111842D02*
Y115436D01*
X283302Y102236D02*
X306902D01*
X280602Y104936D02*
X283302Y102236D01*
X280602Y104936D02*
Y111842D01*
X309302Y102236D02*
X310902D01*
X310102Y101536D02*
Y102936D01*
X201650Y102436D02*
X203650Y104436D01*
X201450Y117936D02*
X203650Y115736D01*
Y104436D02*
Y115736D01*
X177650Y117936D02*
X201450D01*
X175350Y115636D02*
X177650Y117936D01*
X175350Y112042D02*
Y115636D01*
X178050Y102436D02*
X201650D01*
X175350Y105136D02*
X178050Y102436D01*
X175350Y105136D02*
Y112042D01*
X204050Y102436D02*
X205650D01*
X204850Y101736D02*
Y103136D01*
X377768Y102236D02*
X379768Y104236D01*
X377568Y117736D02*
X379768Y115536D01*
Y104236D02*
Y115536D01*
X353768Y117736D02*
X377568D01*
X351468Y115436D02*
X353768Y117736D01*
X351468Y111842D02*
Y115436D01*
X354168Y102236D02*
X377768D01*
X351468Y104936D02*
X354168Y102236D01*
X351468Y104936D02*
Y111842D01*
X380168Y102236D02*
X381768D01*
X380968Y101536D02*
Y102936D01*
X237084Y102436D02*
X239084Y104436D01*
X236883Y117936D02*
X239084Y115736D01*
Y104436D02*
Y115736D01*
X213084Y117936D02*
X236883D01*
X210784Y115636D02*
X213084Y117936D01*
X210784Y112042D02*
Y115636D01*
X213484Y102436D02*
X237084D01*
X210784Y105136D02*
X213484Y102436D01*
X210784Y105136D02*
Y112042D01*
X239483Y102436D02*
X241084D01*
X240283Y101736D02*
Y103136D01*
X342335Y102236D02*
X344335Y104236D01*
X342135Y117736D02*
X344335Y115536D01*
Y104236D02*
Y115536D01*
X318335Y117736D02*
X342135D01*
X316035Y115436D02*
X318335Y117736D01*
X316035Y111842D02*
Y115436D01*
X318735Y102236D02*
X342335D01*
X316035Y104936D02*
X318735Y102236D01*
X316035Y104936D02*
Y111842D01*
X344735Y102236D02*
X346335D01*
X345535Y101536D02*
Y102936D01*
X272516Y102436D02*
X274517Y104436D01*
X272317Y117936D02*
X274517Y115736D01*
Y104436D02*
Y115736D01*
X248517Y117936D02*
X272317D01*
X246217Y115636D02*
X248517Y117936D01*
X246217Y112042D02*
Y115636D01*
X248917Y102436D02*
X272516D01*
X246217Y105136D02*
X248917Y102436D01*
X246217Y105136D02*
Y112042D01*
X274917Y102436D02*
X276517D01*
X275716Y101736D02*
Y103136D01*
D14*
X286221Y325984D02*
X285957Y326969D01*
X285236Y327689D01*
X284252Y327953D01*
X283268Y327689D01*
X282547Y326969D01*
X282283Y325984D01*
X282547Y325000D01*
X283268Y324279D01*
X284252Y324016D01*
X285236Y324279D01*
X285957Y325000D01*
X286221Y325984D01*
X284252D02*
Y335827D01*
X291311Y323200D02*
X294094Y325984D01*
X291311Y328768D02*
X294094Y325984D01*
X284252D02*
X294094D01*
X281468Y333043D02*
X284252Y335827D01*
X287036Y333043D01*
D15*
X301351Y308747D02*
X304751D01*
X301351D02*
Y310347D01*
X304751D01*
Y308747D02*
Y310347D01*
X313162Y308747D02*
X316562D01*
X313162D02*
Y310347D01*
X316562D01*
Y308747D02*
Y310347D01*
X271233Y345558D02*
X274633D01*
X271233D02*
Y347158D01*
X274633D01*
Y345558D02*
Y347158D01*
X270446Y319968D02*
X273846D01*
X270446D02*
Y321568D01*
X273846D01*
Y319968D02*
Y321568D01*
X265623Y316916D02*
X269023D01*
X265623D02*
Y318516D01*
X269023D01*
Y316916D02*
Y318516D01*
X265623Y319869D02*
X269023D01*
X265623D02*
Y321469D01*
X269023D01*
Y319869D02*
Y321469D01*
X324875Y217532D02*
X328275D01*
Y215932D02*
Y217532D01*
X324875Y215932D02*
X328275D01*
X324875D02*
Y217532D01*
X248708Y233832D02*
Y237231D01*
X250308D01*
Y233832D02*
Y237231D01*
X248708Y233832D02*
X250308D01*
X352645Y358044D02*
Y361444D01*
X354245D01*
Y358044D02*
Y361444D01*
X352645Y358044D02*
X354245D01*
X353851Y367690D02*
Y371090D01*
X352251Y367690D02*
X353851D01*
X352251D02*
Y371090D01*
X353851D01*
X178629Y262670D02*
Y266070D01*
X180229D01*
Y262670D02*
Y266070D01*
X178629Y262670D02*
X180229D01*
X211995Y275859D02*
Y279259D01*
X213595D01*
Y275859D02*
Y279259D01*
X211995Y275859D02*
X213595D01*
X243221Y256174D02*
Y259574D01*
X241621Y256174D02*
X243221D01*
X241621D02*
Y259574D01*
X243221D01*
X302375Y256174D02*
Y259574D01*
X300775Y256174D02*
X302375D01*
X300775D02*
Y259574D01*
X302375D01*
X299520Y256174D02*
Y259574D01*
X297920Y256174D02*
X299520D01*
X297920D02*
Y259574D01*
X299520D01*
X315342Y145794D02*
X316942D01*
X315342Y142394D02*
Y145794D01*
Y142394D02*
X316942D01*
Y145794D01*
X231031Y127153D02*
Y128753D01*
X227631D02*
X231031D01*
X227631Y127153D02*
Y128753D01*
Y127153D02*
X231031D01*
X223157Y122231D02*
Y123831D01*
X219757D02*
X223157D01*
X219757Y122231D02*
Y123831D01*
Y122231D02*
X223157D01*
X118182Y199987D02*
Y201587D01*
Y199987D02*
X121582D01*
Y201587D01*
X118182D02*
X121582D01*
D16*
X250772Y251954D02*
Y255053D01*
Y291354D02*
X253872D01*
X290172Y288253D02*
Y291354D01*
Y251954D02*
Y255053D01*
X287072Y291354D02*
X290172D01*
X250772Y288253D02*
Y291354D01*
Y251954D02*
X253872D01*
X287072D02*
X290172D01*
X172811Y334508D02*
X171745D01*
X172278D01*
Y331842D01*
X171745Y331309D01*
X171212D01*
X170679Y331842D01*
X173878Y334508D02*
Y331309D01*
X176010D01*
X179209Y333975D02*
X178676Y334508D01*
X177610D01*
X177077Y333975D01*
Y331842D01*
X177610Y331309D01*
X178676D01*
X179209Y331842D01*
X182408Y334508D02*
X181342D01*
X181875D01*
Y331842D01*
X181342Y331309D01*
X180809D01*
X180276Y331842D01*
X183475Y334508D02*
Y331309D01*
X185607D01*
X188806Y333975D02*
X188273Y334508D01*
X187207D01*
X186674Y333975D01*
Y331842D01*
X187207Y331309D01*
X188273D01*
X188806Y331842D01*
X192005Y334508D02*
X190939D01*
X191472D01*
Y331842D01*
X190939Y331309D01*
X190406D01*
X189873Y331842D01*
X193072Y334508D02*
Y331309D01*
X195204D01*
X198403Y333975D02*
X197870Y334508D01*
X196804D01*
X196271Y333975D01*
Y331842D01*
X196804Y331309D01*
X197870D01*
X198403Y331842D01*
X201602Y334508D02*
X200536D01*
X201069D01*
Y331842D01*
X200536Y331309D01*
X200003D01*
X199469Y331842D01*
X202668Y334508D02*
Y331309D01*
X204801D01*
X208000Y333975D02*
X207467Y334508D01*
X206401D01*
X205867Y333975D01*
Y331842D01*
X206401Y331309D01*
X207467D01*
X208000Y331842D01*
X333671Y300904D02*
X334204Y301437D01*
X335270D01*
X335804Y300904D01*
Y300370D01*
X335270Y299837D01*
X334737D01*
X335270D01*
X335804Y299304D01*
Y298771D01*
X335270Y298238D01*
X334204D01*
X333671Y298771D01*
X336870Y301437D02*
Y299304D01*
X337936Y298238D01*
X339002Y299304D01*
Y301437D01*
X340069Y300904D02*
X340602Y301437D01*
X341668D01*
X342201Y300904D01*
Y300370D01*
X341668Y299837D01*
X341135D01*
X341668D01*
X342201Y299304D01*
Y298771D01*
X341668Y298238D01*
X340602D01*
X340069Y298771D01*
X138789Y114380D02*
Y116512D01*
X139855Y117578D01*
X140922Y116512D01*
Y114380D01*
Y115979D01*
X138789D01*
X141988Y116512D02*
Y114913D01*
X142521Y114380D01*
X144121D01*
Y116512D01*
X145187D02*
X147320Y114380D01*
X146253Y115446D01*
X147320Y116512D01*
X145187Y114380D01*
X151585D02*
X152651D01*
X152118D01*
Y117578D01*
X151585Y117045D01*
X156383Y114380D02*
X154251D01*
X156383Y116512D01*
Y117045D01*
X155850Y117578D01*
X154784D01*
X154251Y117045D01*
X157450Y117578D02*
Y115446D01*
X158516Y114380D01*
X159582Y115446D01*
Y117578D01*
X260836Y219252D02*
Y216053D01*
X262436D01*
X262969Y216586D01*
Y217119D01*
X262436Y217652D01*
X260836D01*
X262436D01*
X262969Y218185D01*
Y218719D01*
X262436Y219252D01*
X260836D01*
X265635D02*
X264568D01*
X264035Y218719D01*
Y216586D01*
X264568Y216053D01*
X265635D01*
X266168Y216586D01*
Y218719D01*
X265635Y219252D01*
X268834D02*
X267767D01*
X267234Y218719D01*
Y216586D01*
X267767Y216053D01*
X268834D01*
X269367Y216586D01*
Y218719D01*
X268834Y219252D01*
X270433D02*
X272566D01*
X271499D01*
Y216053D01*
X273632Y218719D02*
X274165Y219252D01*
X275232D01*
X275765Y218719D01*
Y216586D01*
X275232Y216053D01*
X274165D01*
X273632Y216586D01*
Y218719D01*
X305817Y216053D02*
Y218185D01*
X307416D01*
X307949Y217652D01*
Y216053D01*
X309015D02*
Y219252D01*
X310615D01*
X311148Y218719D01*
Y217652D01*
X310615Y217119D01*
X309015D01*
X310082D02*
X311148Y216053D01*
X314347Y218719D02*
X313814Y219252D01*
X312748D01*
X312214Y218719D01*
Y218185D01*
X312748Y217652D01*
X313814D01*
X314347Y217119D01*
Y216586D01*
X313814Y216053D01*
X312748D01*
X312214Y216586D01*
X315413Y219252D02*
X317546D01*
X316480D01*
Y216053D01*
X361919Y349862D02*
Y346663D01*
X363518D01*
X364052Y347196D01*
Y347729D01*
X363518Y348263D01*
X361919D01*
X363518D01*
X364052Y348796D01*
Y349329D01*
X363518Y349862D01*
X361919D01*
X365118D02*
X367250D01*
X366184D01*
Y346663D01*
X368317D02*
Y349862D01*
X370449Y346663D01*
Y349862D01*
X373649Y346663D02*
X371516D01*
X373649Y348796D01*
Y349329D01*
X373115Y349862D01*
X372049D01*
X371516Y349329D01*
X335246Y350354D02*
Y347155D01*
X336845D01*
X337378Y347688D01*
Y348221D01*
X336845Y348755D01*
X335246D01*
X336845D01*
X337378Y349288D01*
Y349821D01*
X336845Y350354D01*
X335246D01*
X338445D02*
X340577D01*
X339511D01*
Y347155D01*
X341644D02*
Y350354D01*
X343776Y347155D01*
Y350354D01*
X344843Y347155D02*
X345909D01*
X345376D01*
Y350354D01*
X344843Y349821D01*
X358209Y215528D02*
Y213395D01*
X361408D01*
Y215528D01*
X359808Y213395D02*
Y214462D01*
X361408Y216594D02*
X359275D01*
Y218194D01*
X359808Y218727D01*
X361408D01*
X359275Y221926D02*
Y220326D01*
X359808Y219793D01*
X360875D01*
X361408Y220326D01*
Y221926D01*
Y223525D02*
Y224592D01*
X360875Y225125D01*
X359808D01*
X359275Y224592D01*
Y223525D01*
X359808Y222992D01*
X360875D01*
X361408Y223525D01*
X358209Y228324D02*
X361408D01*
Y226724D01*
X360875Y226191D01*
X359808D01*
X359275Y226724D01*
Y228324D01*
X361408Y230990D02*
Y229923D01*
X360875Y229390D01*
X359808D01*
X359275Y229923D01*
Y230990D01*
X359808Y231523D01*
X360342D01*
Y229390D01*
X359275Y232589D02*
X361408D01*
X360342D01*
X359808Y233122D01*
X359275Y233655D01*
Y234189D01*
X114781Y190935D02*
X115315Y190402D01*
Y189336D01*
X114781Y188803D01*
X114248D01*
X113715Y189336D01*
X113182Y188803D01*
X112649D01*
X112116Y189336D01*
Y190402D01*
X112649Y190935D01*
X113182D01*
X113715Y190402D01*
X114248Y190935D01*
X114781D01*
X113715Y190402D02*
Y189336D01*
X115315Y187736D02*
X113182D01*
X112116Y186670D01*
X113182Y185604D01*
X115315D01*
X112116Y182938D02*
X115315D01*
X113715Y184537D01*
Y182405D01*
X382028Y141053D02*
X385227D01*
Y142652D01*
X384694Y143185D01*
X384160D01*
X383627Y142652D01*
Y141053D01*
Y142652D01*
X383094Y143185D01*
X382561D01*
X382028Y142652D01*
Y141053D01*
X385227Y144252D02*
X382028D01*
Y145851D01*
X382561Y146384D01*
X383627D01*
X384160Y145851D01*
Y144252D01*
Y145318D02*
X385227Y146384D01*
Y150650D02*
X382028D01*
X383094Y151716D01*
X382028Y152782D01*
X385227D01*
Y154382D02*
Y155448D01*
X384694Y155981D01*
X383627D01*
X383094Y155448D01*
Y154382D01*
X383627Y153849D01*
X384694D01*
X385227Y154382D01*
X382561Y157581D02*
X383094D01*
Y157048D01*
Y158114D01*
Y157581D01*
X384694D01*
X385227Y158114D01*
Y160247D02*
Y161313D01*
X384694Y161846D01*
X383627D01*
X383094Y161313D01*
Y160247D01*
X383627Y159713D01*
X384694D01*
X385227Y160247D01*
X383094Y162912D02*
X385227D01*
X384160D01*
X383627Y163446D01*
X383094Y163979D01*
Y164512D01*
X382126Y324878D02*
Y322746D01*
X383726D01*
Y323812D01*
Y322746D01*
X385325D01*
Y325945D02*
X382126D01*
Y327544D01*
X382659Y328077D01*
X383726D01*
X384259Y327544D01*
Y325945D01*
Y327011D02*
X385325Y328077D01*
Y332343D02*
X382126D01*
X383193Y333409D01*
X382126Y334475D01*
X385325D01*
Y336075D02*
Y337141D01*
X384792Y337674D01*
X383726D01*
X383193Y337141D01*
Y336075D01*
X383726Y335542D01*
X384792D01*
X385325Y336075D01*
X382659Y339274D02*
X383193D01*
Y338740D01*
Y339807D01*
Y339274D01*
X384792D01*
X385325Y339807D01*
Y341939D02*
Y343006D01*
X384792Y343539D01*
X383726D01*
X383193Y343006D01*
Y341939D01*
X383726Y341406D01*
X384792D01*
X385325Y341939D01*
X383193Y344605D02*
X385325D01*
X384259D01*
X383726Y345139D01*
X383193Y345672D01*
Y346205D01*
X129980Y342346D02*
Y344479D01*
X128381D01*
Y343412D01*
Y344479D01*
X126781D01*
X129980Y341280D02*
X126781D01*
Y339147D01*
Y334882D02*
X129980D01*
X128914Y333816D01*
X129980Y332749D01*
X126781D01*
Y331150D02*
Y330083D01*
X127314Y329550D01*
X128381D01*
X128914Y330083D01*
Y331150D01*
X128381Y331683D01*
X127314D01*
X126781Y331150D01*
X129447Y327951D02*
X128914D01*
Y328484D01*
Y327418D01*
Y327951D01*
X127314D01*
X126781Y327418D01*
Y325285D02*
Y324219D01*
X127314Y323685D01*
X128381D01*
X128914Y324219D01*
Y325285D01*
X128381Y325818D01*
X127314D01*
X126781Y325285D01*
X128914Y322619D02*
X126781D01*
X127847D01*
X128381Y322086D01*
X128914Y321553D01*
Y321020D01*
X129685Y374671D02*
Y375737D01*
X129152Y376270D01*
X127019D01*
X126486Y375737D01*
Y374671D01*
X127019Y374137D01*
X129152D01*
X129685Y374671D01*
Y373071D02*
X126486D01*
Y370938D01*
X129685Y367740D02*
Y369872D01*
X126486D01*
Y367740D01*
X128085Y369872D02*
Y368806D01*
X129685Y366673D02*
X126486D01*
Y365074D01*
X127019Y364541D01*
X129152D01*
X129685Y365074D01*
Y366673D01*
X382421Y192332D02*
Y193399D01*
Y192865D01*
X385620D01*
Y192332D01*
Y193399D01*
Y197131D02*
Y194998D01*
X383488Y197131D01*
X382955D01*
X382421Y196598D01*
Y195531D01*
X382955Y194998D01*
Y200330D02*
X382421Y199796D01*
Y198730D01*
X382955Y198197D01*
X385087D01*
X385620Y198730D01*
Y199796D01*
X385087Y200330D01*
X382856Y361000D02*
X382323Y360467D01*
Y359401D01*
X382856Y358868D01*
X384989D01*
X385522Y359401D01*
Y360467D01*
X384989Y361000D01*
X385522Y362067D02*
X383389D01*
X382323Y363133D01*
X383389Y364199D01*
X385522D01*
X383923D01*
Y362067D01*
X385522Y365266D02*
X382323D01*
X385522Y367398D01*
X382323D01*
Y371664D02*
X385522D01*
Y373263D01*
X384989Y373796D01*
X384456D01*
X383923Y373263D01*
Y371664D01*
Y373263D01*
X383389Y373796D01*
X382856D01*
X382323Y373263D01*
Y371664D01*
X383389Y374863D02*
X384989D01*
X385522Y375396D01*
Y376995D01*
X383389D01*
X385522Y378062D02*
Y379661D01*
X384989Y380194D01*
X384456Y379661D01*
Y378595D01*
X383923Y378062D01*
X383389Y378595D01*
Y380194D01*
X360311Y386238D02*
X359778Y386771D01*
X358712D01*
X358179Y386238D01*
Y384106D01*
X358712Y383572D01*
X359778D01*
X360311Y384106D01*
X361378Y383572D02*
Y385705D01*
X362444Y386771D01*
X363510Y385705D01*
Y383572D01*
Y385172D01*
X361378D01*
X364577Y383572D02*
Y386771D01*
X366709Y383572D01*
Y386771D01*
X370975D02*
Y383572D01*
X372574D01*
X373107Y384106D01*
Y384639D01*
X372574Y385172D01*
X370975D01*
X372574D01*
X373107Y385705D01*
Y386238D01*
X372574Y386771D01*
X370975D01*
X374174Y385705D02*
Y384106D01*
X374707Y383572D01*
X376306D01*
Y385705D01*
X377373Y383572D02*
X378972D01*
X379505Y384106D01*
X378972Y384639D01*
X377906D01*
X377373Y385172D01*
X377906Y385705D01*
X379505D01*
X186197Y267324D02*
X184065D01*
Y264125D01*
X186197D01*
X184065Y265725D02*
X185131D01*
X189396Y266791D02*
X188863Y267324D01*
X187797D01*
X187264Y266791D01*
Y266258D01*
X187797Y265725D01*
X188863D01*
X189396Y265192D01*
Y264658D01*
X188863Y264125D01*
X187797D01*
X187264Y264658D01*
X190463Y264125D02*
Y267324D01*
X192062D01*
X192595Y266791D01*
Y265725D01*
X192062Y265192D01*
X190463D01*
X193661Y263592D02*
X195794D01*
X196860Y267324D02*
Y264125D01*
X198460D01*
X198993Y264658D01*
Y265192D01*
X198460Y265725D01*
X196860D01*
X198460D01*
X198993Y266258D01*
Y266791D01*
X198460Y267324D01*
X196860D01*
X201659D02*
X200593D01*
X200059Y266791D01*
Y264658D01*
X200593Y264125D01*
X201659D01*
X202192Y264658D01*
Y266791D01*
X201659Y267324D01*
X204858D02*
X203792D01*
X203258Y266791D01*
Y264658D01*
X203792Y264125D01*
X204858D01*
X205391Y264658D01*
Y266791D01*
X204858Y267324D01*
X206457D02*
X208590D01*
X207524D01*
Y264125D01*
X157851Y267324D02*
X155718D01*
Y264125D01*
X157851D01*
X155718Y265725D02*
X156784D01*
X161050Y266791D02*
X160517Y267324D01*
X159450D01*
X158917Y266791D01*
Y266258D01*
X159450Y265725D01*
X160517D01*
X161050Y265192D01*
Y264658D01*
X160517Y264125D01*
X159450D01*
X158917Y264658D01*
X162116Y264125D02*
Y267324D01*
X163716D01*
X164249Y266791D01*
Y265725D01*
X163716Y265192D01*
X162116D01*
X165315Y263592D02*
X167448D01*
X170647Y267324D02*
X168514D01*
Y264125D01*
X170647D01*
X168514Y265725D02*
X169580D01*
X171713Y264125D02*
Y267324D01*
X173846Y264125D01*
Y267324D01*
X323107Y254152D02*
X322573Y254685D01*
X321507D01*
X320974Y254152D01*
Y253619D01*
X321507Y253085D01*
X322573D01*
X323107Y252552D01*
Y252019D01*
X322573Y251486D01*
X321507D01*
X320974Y252019D01*
X324173Y254685D02*
Y251486D01*
X325239Y252552D01*
X326306Y251486D01*
Y254685D01*
X328971D02*
X327905D01*
X327372Y254152D01*
Y252019D01*
X327905Y251486D01*
X328971D01*
X329505Y252019D01*
Y254152D01*
X328971Y254685D01*
X333770D02*
Y251486D01*
X335369D01*
X335903Y252019D01*
Y254152D01*
X335369Y254685D01*
X333770D01*
X336969D02*
X338035D01*
X337502D01*
Y251486D01*
X336969D01*
X338035D01*
X341234Y254685D02*
X340168D01*
X339635Y254152D01*
Y252019D01*
X340168Y251486D01*
X341234D01*
X341767Y252019D01*
Y254152D01*
X341234Y254685D01*
X348165Y254152D02*
X347632Y254685D01*
X346566D01*
X346033Y254152D01*
Y252019D01*
X346566Y251486D01*
X347632D01*
X348165Y252019D01*
X349232Y254685D02*
Y251486D01*
X351364D01*
X352431Y254685D02*
Y251486D01*
Y252552D01*
X354563Y254685D01*
X352964Y253085D01*
X354563Y251486D01*
X331112Y277667D02*
Y279800D01*
X332711D01*
X333244Y279266D01*
Y277667D01*
X334311D02*
Y280866D01*
X335910D01*
X336443Y280333D01*
Y279266D01*
X335910Y278733D01*
X334311D01*
X335377D02*
X336443Y277667D01*
X339642Y280333D02*
X339109Y280866D01*
X338043D01*
X337510Y280333D01*
Y279800D01*
X338043Y279266D01*
X339109D01*
X339642Y278733D01*
Y278200D01*
X339109Y277667D01*
X338043D01*
X337510Y278200D01*
X340709Y280866D02*
X342841D01*
X341775D01*
Y277667D01*
X349239Y280333D02*
X348706Y280866D01*
X347640D01*
X347107Y280333D01*
Y278200D01*
X347640Y277667D01*
X348706D01*
X349239Y278200D01*
Y279266D01*
X348173D01*
X350306Y277667D02*
Y280866D01*
X352438Y277667D01*
Y280866D01*
X353505D02*
Y277667D01*
X355104D01*
X355637Y278200D01*
Y280333D01*
X355104Y280866D01*
X353505D01*
X307063Y385156D02*
X306530Y385689D01*
X305464D01*
X304931Y385156D01*
Y384622D01*
X305464Y384089D01*
X306530D01*
X307063Y383556D01*
Y383023D01*
X306530Y382490D01*
X305464D01*
X304931Y383023D01*
X308130Y385689D02*
X310262D01*
X309196D01*
Y382490D01*
X311329D02*
Y385689D01*
X312395Y384622D01*
X313461Y385689D01*
Y382490D01*
X314528Y385156D02*
X315061Y385689D01*
X316127D01*
X316660Y385156D01*
Y384622D01*
X316127Y384089D01*
X315594D01*
X316127D01*
X316660Y383556D01*
Y383023D01*
X316127Y382490D01*
X315061D01*
X314528Y383023D01*
X319859Y382490D02*
X317727D01*
X319859Y384622D01*
Y385156D01*
X319326Y385689D01*
X318260D01*
X317727Y385156D01*
X250764Y385689D02*
X248632D01*
Y382490D01*
X250764D01*
X248632Y384089D02*
X249698D01*
X253963Y385156D02*
X253430Y385689D01*
X252364D01*
X251831Y385156D01*
Y384622D01*
X252364Y384089D01*
X253430D01*
X253963Y383556D01*
Y383023D01*
X253430Y382490D01*
X252364D01*
X251831Y383023D01*
X255029Y382490D02*
Y385689D01*
X256629D01*
X257162Y385156D01*
Y384089D01*
X256629Y383556D01*
X255029D01*
X258228Y385156D02*
X258762Y385689D01*
X259828D01*
X260361Y385156D01*
Y384622D01*
X259828Y384089D01*
X259295D01*
X259828D01*
X260361Y383556D01*
Y383023D01*
X259828Y382490D01*
X258762D01*
X258228Y383023D01*
X263560Y382490D02*
X261427D01*
X263560Y384622D01*
Y385156D01*
X263027Y385689D01*
X261961D01*
X261427Y385156D01*
X117356Y205200D02*
X116822Y205733D01*
X115756D01*
X115223Y205200D01*
Y203067D01*
X115756Y202534D01*
X116822D01*
X117356Y203067D01*
X118422Y205200D02*
X118955Y205733D01*
X120021D01*
X120554Y205200D01*
Y204667D01*
X120021Y204134D01*
X119488D01*
X120021D01*
X120554Y203601D01*
Y203067D01*
X120021Y202534D01*
X118955D01*
X118422Y203067D01*
X121621Y205200D02*
X122154Y205733D01*
X123220D01*
X123753Y205200D01*
Y204667D01*
X123220Y204134D01*
X122687D01*
X123220D01*
X123753Y203601D01*
Y203067D01*
X123220Y202534D01*
X122154D01*
X121621Y203067D01*
X320017Y163017D02*
Y160351D01*
X320550Y159818D01*
X321617D01*
X322150Y160351D01*
Y163017D01*
X323216Y159818D02*
X324282D01*
X323749D01*
Y163017D01*
X323216Y162484D01*
X325882D02*
X326415Y163017D01*
X327481D01*
X328014Y162484D01*
Y160351D01*
X327481Y159818D01*
X326415D01*
X325882Y160351D01*
Y162484D01*
X227157Y159474D02*
Y156808D01*
X227690Y156274D01*
X228756D01*
X229290Y156808D01*
Y159474D01*
X230356Y156808D02*
X230889Y156274D01*
X231956D01*
X232489Y156808D01*
Y158940D01*
X231956Y159474D01*
X230889D01*
X230356Y158940D01*
Y158407D01*
X230889Y157874D01*
X232489D01*
X302846Y376009D02*
Y373343D01*
X303379Y372810D01*
X304446D01*
X304979Y373343D01*
Y376009D01*
X306045Y375476D02*
X306578Y376009D01*
X307645D01*
X308178Y375476D01*
Y374943D01*
X307645Y374410D01*
X308178Y373876D01*
Y373343D01*
X307645Y372810D01*
X306578D01*
X306045Y373343D01*
Y373876D01*
X306578Y374410D01*
X306045Y374943D01*
Y375476D01*
X306578Y374410D02*
X307645D01*
X243988Y292741D02*
Y290075D01*
X244521Y289542D01*
X245587D01*
X246120Y290075D01*
Y292741D01*
X247187D02*
X249319D01*
Y292208D01*
X247187Y290075D01*
Y289542D01*
X146941Y407111D02*
Y404446D01*
X147474Y403912D01*
X148540D01*
X149073Y404446D01*
Y407111D01*
X152272D02*
X150139D01*
Y405512D01*
X151206Y406045D01*
X151739D01*
X152272Y405512D01*
Y404446D01*
X151739Y403912D01*
X150673D01*
X150139Y404446D01*
X253929Y344119D02*
Y341453D01*
X254462Y340920D01*
X255528D01*
X256061Y341453D01*
Y344119D01*
X259260Y340920D02*
X257128D01*
X259260Y343053D01*
Y343586D01*
X258727Y344119D01*
X257661D01*
X257128Y343586D01*
X313226Y366412D02*
Y369611D01*
X314825D01*
X315358Y369078D01*
Y368012D01*
X314825Y367479D01*
X313226D01*
X314292D02*
X315358Y366412D01*
X316425D02*
X317491D01*
X316958D01*
Y369611D01*
X316425Y369078D01*
X319091Y369611D02*
X321223D01*
Y369078D01*
X319091Y366946D01*
Y366412D01*
X313521Y362279D02*
Y365477D01*
X315121D01*
X315654Y364944D01*
Y363878D01*
X315121Y363345D01*
X313521D01*
X314587D02*
X315654Y362279D01*
X316720D02*
X317786D01*
X317253D01*
Y365477D01*
X316720Y364944D01*
X321518Y365477D02*
X320452Y364944D01*
X319386Y363878D01*
Y362812D01*
X319919Y362279D01*
X320985D01*
X321518Y362812D01*
Y363345D01*
X320985Y363878D01*
X319386D01*
X283542Y240625D02*
Y243824D01*
X285142D01*
X285675Y243291D01*
Y242224D01*
X285142Y241691D01*
X283542D01*
X284609D02*
X285675Y240625D01*
X286741D02*
X287808D01*
X287275D01*
Y243824D01*
X286741Y243291D01*
X289407Y240625D02*
X290473D01*
X289940D01*
Y243824D01*
X289407Y243291D01*
X221986Y299286D02*
Y302485D01*
X223585D01*
X224118Y301952D01*
Y300886D01*
X223585Y300353D01*
X221986D01*
X223052D02*
X224118Y299286D01*
X225184D02*
X226251D01*
X225718D01*
Y302485D01*
X225184Y301952D01*
X227850D02*
X228383Y302485D01*
X229450D01*
X229983Y301952D01*
Y299819D01*
X229450Y299286D01*
X228383D01*
X227850Y299819D01*
Y301952D01*
X254125Y355192D02*
Y358391D01*
X255725D01*
X256258Y357858D01*
Y356791D01*
X255725Y356258D01*
X254125D01*
X255192D02*
X256258Y355192D01*
X257325Y355725D02*
X257858Y355192D01*
X258924D01*
X259457Y355725D01*
Y357858D01*
X258924Y358391D01*
X257858D01*
X257325Y357858D01*
Y357325D01*
X257858Y356791D01*
X259457D01*
X222137Y307751D02*
Y310950D01*
X223737D01*
X224270Y310417D01*
Y309350D01*
X223737Y308817D01*
X222137D01*
X223204D02*
X224270Y307751D01*
X225336Y310950D02*
X227469D01*
Y310417D01*
X225336Y308284D01*
Y307751D01*
X222137Y303519D02*
Y306718D01*
X223737D01*
X224270Y306184D01*
Y305118D01*
X223737Y304585D01*
X222137D01*
X223204D02*
X224270Y303519D01*
X227469Y306718D02*
X226403Y306184D01*
X225336Y305118D01*
Y304052D01*
X225869Y303519D01*
X226936D01*
X227469Y304052D01*
Y304585D01*
X226936Y305118D01*
X225336D01*
X253633Y367298D02*
Y370497D01*
X255233D01*
X255766Y369964D01*
Y368898D01*
X255233Y368365D01*
X253633D01*
X254700D02*
X255766Y367298D01*
X258965Y370497D02*
X256832D01*
Y368898D01*
X257899Y369431D01*
X258432D01*
X258965Y368898D01*
Y367831D01*
X258432Y367298D01*
X257365D01*
X256832Y367831D01*
X245136Y355233D02*
Y357365D01*
X244603Y357899D01*
X243537D01*
X243004Y357365D01*
Y355233D01*
X243537Y354700D01*
X244603D01*
X244070Y355766D02*
X245136Y354700D01*
X244603D02*
X245136Y355233D01*
X248335Y354700D02*
X246202D01*
X248335Y356832D01*
Y357365D01*
X247802Y357899D01*
X246736D01*
X246202Y357365D01*
X266831Y355627D02*
Y357759D01*
X266298Y358292D01*
X265231D01*
X264698Y357759D01*
Y355627D01*
X265231Y355093D01*
X266298D01*
X265764Y356160D02*
X266831Y355093D01*
X266298D02*
X266831Y355627D01*
X267897Y355093D02*
X268963D01*
X268430D01*
Y358292D01*
X267897Y357759D01*
X304339Y169119D02*
Y165920D01*
X306471D01*
X309670Y168586D02*
X309137Y169119D01*
X308071D01*
X307538Y168586D01*
Y168053D01*
X308071Y167520D01*
X309137D01*
X309670Y166987D01*
Y166453D01*
X309137Y165920D01*
X308071D01*
X307538Y166453D01*
X310737Y165920D02*
X311803D01*
X311270D01*
Y169119D01*
X310737Y168586D01*
X357423Y315773D02*
Y312574D01*
X359555D01*
X362754Y315773D02*
X360622D01*
Y312574D01*
X362754D01*
X360622Y314173D02*
X361688D01*
X363821Y315773D02*
Y312574D01*
X365420D01*
X365953Y313107D01*
Y315240D01*
X365420Y315773D01*
X363821D01*
X369152Y312574D02*
X367020D01*
X369152Y314706D01*
Y315240D01*
X368619Y315773D01*
X367553D01*
X367020Y315240D01*
X337582Y316068D02*
Y312869D01*
X339714D01*
X342913Y316068D02*
X340781D01*
Y312869D01*
X342913D01*
X340781Y314469D02*
X341847D01*
X343980Y316068D02*
Y312869D01*
X345579D01*
X346112Y313402D01*
Y315535D01*
X345579Y316068D01*
X343980D01*
X347179Y312869D02*
X348245D01*
X347712D01*
Y316068D01*
X347179Y315535D01*
X342500Y163499D02*
Y160300D01*
X344633D01*
X347832D02*
X345699D01*
X347832Y162433D01*
Y162966D01*
X347299Y163499D01*
X346232D01*
X345699Y162966D01*
X142356Y202387D02*
Y199188D01*
X144488D01*
X145554D02*
X146621D01*
X146088D01*
Y202387D01*
X145554Y201854D01*
X278400Y380699D02*
Y377500D01*
X279999D01*
X280533Y378033D01*
Y380166D01*
X279999Y380699D01*
X278400D01*
X283732Y377500D02*
X281599D01*
X283732Y379633D01*
Y380166D01*
X283198Y380699D01*
X282132D01*
X281599Y380166D01*
X166248Y257464D02*
X165715Y257997D01*
X164649D01*
X164116Y257464D01*
Y255331D01*
X164649Y254798D01*
X165715D01*
X166248Y255331D01*
X167315Y254798D02*
Y257997D01*
X169447Y254798D01*
Y257997D01*
X172646Y254798D02*
X170513D01*
X172646Y256931D01*
Y257464D01*
X172113Y257997D01*
X171047D01*
X170513Y257464D01*
X175312Y254798D02*
Y257997D01*
X173712Y256398D01*
X175845D01*
X236533Y346766D02*
X235999Y347299D01*
X234933D01*
X234400Y346766D01*
Y344633D01*
X234933Y344100D01*
X235999D01*
X236533Y344633D01*
X237599Y344100D02*
Y347299D01*
X239732Y344100D01*
Y347299D01*
X240798D02*
X242931D01*
Y346766D01*
X240798Y344633D01*
Y344100D01*
X179875Y304708D02*
X179342Y305241D01*
X178276D01*
X177743Y304708D01*
Y302575D01*
X178276Y302042D01*
X179342D01*
X179875Y302575D01*
X180942Y302042D02*
Y305241D01*
X183074Y302042D01*
Y305241D01*
X186273D02*
X185207Y304708D01*
X184141Y303642D01*
Y302575D01*
X184674Y302042D01*
X185740D01*
X186273Y302575D01*
Y303109D01*
X185740Y303642D01*
X184141D01*
X137139Y382956D02*
X136606Y383489D01*
X135539D01*
X135006Y382956D01*
Y380823D01*
X135539Y380290D01*
X136606D01*
X137139Y380823D01*
X138205Y380290D02*
Y383489D01*
X140338Y380290D01*
Y383489D01*
X143537D02*
X141404D01*
Y381890D01*
X142471Y382423D01*
X143004D01*
X143537Y381890D01*
Y380823D01*
X143004Y380290D01*
X141937D01*
X141404Y380823D01*
X267060Y166519D02*
X266527Y167052D01*
X265461D01*
X264928Y166519D01*
Y164386D01*
X265461Y163853D01*
X266527D01*
X267060Y164386D01*
X269726Y163853D02*
Y167052D01*
X268127Y165453D01*
X270259D01*
X273458Y163853D02*
X271326D01*
X273458Y165986D01*
Y166519D01*
X272925Y167052D01*
X271859D01*
X271326Y166519D01*
X304700Y322818D02*
X304167Y323352D01*
X303100D01*
X302567Y322818D01*
Y320686D01*
X303100Y320152D01*
X304167D01*
X304700Y320686D01*
X307365Y320152D02*
Y323352D01*
X305766Y321752D01*
X307899D01*
X308965Y320152D02*
X310031D01*
X309498D01*
Y323352D01*
X308965Y322818D01*
X301017Y307169D02*
X300484Y307702D01*
X299417D01*
X298884Y307169D01*
Y305036D01*
X299417Y304503D01*
X300484D01*
X301017Y305036D01*
X303683Y304503D02*
Y307702D01*
X302083Y306102D01*
X304216D01*
X305282Y307169D02*
X305815Y307702D01*
X306882D01*
X307415Y307169D01*
Y305036D01*
X306882Y304503D01*
X305815D01*
X305282Y305036D01*
Y307169D01*
X312434D02*
X311901Y307702D01*
X310835D01*
X310302Y307169D01*
Y305036D01*
X310835Y304503D01*
X311901D01*
X312434Y305036D01*
X313501Y307169D02*
X314034Y307702D01*
X315100D01*
X315633Y307169D01*
Y306635D01*
X315100Y306102D01*
X314567D01*
X315100D01*
X315633Y305569D01*
Y305036D01*
X315100Y304503D01*
X314034D01*
X313501Y305036D01*
X316700D02*
X317233Y304503D01*
X318299D01*
X318832Y305036D01*
Y307169D01*
X318299Y307702D01*
X317233D01*
X316700Y307169D01*
Y306635D01*
X317233Y306102D01*
X318832D01*
X314895Y322621D02*
X314362Y323155D01*
X313295D01*
X312762Y322621D01*
Y320489D01*
X313295Y319956D01*
X314362D01*
X314895Y320489D01*
X315961Y322621D02*
X316494Y323155D01*
X317561D01*
X318094Y322621D01*
Y322088D01*
X317561Y321555D01*
X317028D01*
X317561D01*
X318094Y321022D01*
Y320489D01*
X317561Y319956D01*
X316494D01*
X315961Y320489D01*
X319160Y322621D02*
X319693Y323155D01*
X320760D01*
X321293Y322621D01*
Y322088D01*
X320760Y321555D01*
X321293Y321022D01*
Y320489D01*
X320760Y319956D01*
X319693D01*
X319160Y320489D01*
Y321022D01*
X319693Y321555D01*
X319160Y322088D01*
Y322621D01*
X319693Y321555D02*
X320760D01*
X358596Y161696D02*
X358063Y162229D01*
X356996D01*
X356463Y161696D01*
Y159564D01*
X356996Y159030D01*
X358063D01*
X358596Y159564D01*
X359662Y161696D02*
X360195Y162229D01*
X361262D01*
X361795Y161696D01*
Y161163D01*
X361262Y160630D01*
X360728D01*
X361262D01*
X361795Y160097D01*
Y159564D01*
X361262Y159030D01*
X360195D01*
X359662Y159564D01*
X364994Y162229D02*
X363927Y161696D01*
X362861Y160630D01*
Y159564D01*
X363394Y159030D01*
X364460D01*
X364994Y159564D01*
Y160097D01*
X364460Y160630D01*
X362861D01*
X174737Y239157D02*
X174204Y239690D01*
X173138D01*
X172605Y239157D01*
Y237024D01*
X173138Y236491D01*
X174204D01*
X174737Y237024D01*
X175804Y239157D02*
X176337Y239690D01*
X177403D01*
X177936Y239157D01*
Y238624D01*
X177403Y238090D01*
X176870D01*
X177403D01*
X177936Y237557D01*
Y237024D01*
X177403Y236491D01*
X176337D01*
X175804Y237024D01*
X181135Y239690D02*
X179003D01*
Y238090D01*
X180069Y238624D01*
X180602D01*
X181135Y238090D01*
Y237024D01*
X180602Y236491D01*
X179536D01*
X179003Y237024D01*
X129363Y169570D02*
X128830Y170103D01*
X127764D01*
X127231Y169570D01*
Y167438D01*
X127764Y166904D01*
X128830D01*
X129363Y167438D01*
X130430Y169570D02*
X130963Y170103D01*
X132029D01*
X132562Y169570D01*
Y169037D01*
X132029Y168504D01*
X131496D01*
X132029D01*
X132562Y167971D01*
Y167438D01*
X132029Y166904D01*
X130963D01*
X130430Y167438D01*
X135228Y166904D02*
Y170103D01*
X133629Y168504D01*
X135761D01*
X310466Y155003D02*
X309933Y155536D01*
X308866D01*
X308333Y155003D01*
Y152871D01*
X308866Y152338D01*
X309933D01*
X310466Y152871D01*
X311532Y155003D02*
X312065Y155536D01*
X313132D01*
X313665Y155003D01*
Y154470D01*
X313132Y153937D01*
X312598D01*
X313132D01*
X313665Y153404D01*
Y152871D01*
X313132Y152338D01*
X312065D01*
X311532Y152871D01*
X316864Y152338D02*
X314731D01*
X316864Y154470D01*
Y155003D01*
X316331Y155536D01*
X315264D01*
X314731Y155003D01*
X290871Y153428D02*
X290338Y153962D01*
X289271D01*
X288738Y153428D01*
Y151296D01*
X289271Y150763D01*
X290338D01*
X290871Y151296D01*
X291937Y153428D02*
X292471Y153962D01*
X293537D01*
X294070Y153428D01*
Y152895D01*
X293537Y152362D01*
X293004D01*
X293537D01*
X294070Y151829D01*
Y151296D01*
X293537Y150763D01*
X292471D01*
X291937Y151296D01*
X295136Y150763D02*
X296203D01*
X295669D01*
Y153962D01*
X295136Y153428D01*
X290338Y158153D02*
X289805Y158686D01*
X288738D01*
X288205Y158153D01*
Y156020D01*
X288738Y155487D01*
X289805D01*
X290338Y156020D01*
X291404Y158153D02*
X291937Y158686D01*
X293004D01*
X293537Y158153D01*
Y157620D01*
X293004Y157087D01*
X292471D01*
X293004D01*
X293537Y156553D01*
Y156020D01*
X293004Y155487D01*
X291937D01*
X291404Y156020D01*
X294603Y158153D02*
X295136Y158686D01*
X296203D01*
X296736Y158153D01*
Y156020D01*
X296203Y155487D01*
X295136D01*
X294603Y156020D01*
Y158153D01*
X239895Y203133D02*
X239362Y203666D01*
X238295D01*
X237762Y203133D01*
Y201001D01*
X238295Y200467D01*
X239362D01*
X239895Y201001D01*
X243094Y200467D02*
X240961D01*
X243094Y202600D01*
Y203133D01*
X242561Y203666D01*
X241494D01*
X240961Y203133D01*
X244160Y201001D02*
X244693Y200467D01*
X245760D01*
X246293Y201001D01*
Y203133D01*
X245760Y203666D01*
X244693D01*
X244160Y203133D01*
Y202600D01*
X244693Y202067D01*
X246293D01*
X226214Y124098D02*
X225681Y124631D01*
X224614D01*
X224081Y124098D01*
Y121965D01*
X224614Y121432D01*
X225681D01*
X226214Y121965D01*
X229413Y121432D02*
X227280D01*
X229413Y123565D01*
Y124098D01*
X228880Y124631D01*
X227813D01*
X227280Y124098D01*
X230479D02*
X231012Y124631D01*
X232079D01*
X232612Y124098D01*
Y123565D01*
X232079Y123031D01*
X232612Y122498D01*
Y121965D01*
X232079Y121432D01*
X231012D01*
X230479Y121965D01*
Y122498D01*
X231012Y123031D01*
X230479Y123565D01*
Y124098D01*
X231012Y123031D02*
X232079D01*
X230151Y132956D02*
X229618Y133489D01*
X228551D01*
X228018Y132956D01*
Y130823D01*
X228551Y130290D01*
X229618D01*
X230151Y130823D01*
X233350Y130290D02*
X231217D01*
X233350Y132423D01*
Y132956D01*
X232817Y133489D01*
X231750D01*
X231217Y132956D01*
X234416Y133489D02*
X236549D01*
Y132956D01*
X234416Y130823D01*
Y130290D01*
X359383Y370850D02*
X358850Y371383D01*
X357784D01*
X357250Y370850D01*
Y368717D01*
X357784Y368184D01*
X358850D01*
X359383Y368717D01*
X362582Y368184D02*
X360449D01*
X362582Y370317D01*
Y370850D01*
X362049Y371383D01*
X360983D01*
X360449Y370850D01*
X365781Y371383D02*
X364715Y370850D01*
X363648Y369783D01*
Y368717D01*
X364182Y368184D01*
X365248D01*
X365781Y368717D01*
Y369250D01*
X365248Y369783D01*
X363648D01*
X359974Y361007D02*
X359440Y361540D01*
X358374D01*
X357841Y361007D01*
Y358875D01*
X358374Y358342D01*
X359440D01*
X359974Y358875D01*
X363173Y358342D02*
X361040D01*
X363173Y360474D01*
Y361007D01*
X362639Y361540D01*
X361573D01*
X361040Y361007D01*
X366372Y361540D02*
X364239D01*
Y359941D01*
X365305Y360474D01*
X365838D01*
X366372Y359941D01*
Y358875D01*
X365838Y358342D01*
X364772D01*
X364239Y358875D01*
X324147Y214058D02*
X323614Y214592D01*
X322547D01*
X322014Y214058D01*
Y211926D01*
X322547Y211393D01*
X323614D01*
X324147Y211926D01*
X327346Y211393D02*
X325213D01*
X327346Y213525D01*
Y214058D01*
X326813Y214592D01*
X325746D01*
X325213Y214058D01*
X330012Y211393D02*
Y214592D01*
X328412Y212992D01*
X330545D01*
X246982Y242011D02*
X246448Y242544D01*
X245382D01*
X244849Y242011D01*
Y239879D01*
X245382Y239345D01*
X246448D01*
X246982Y239879D01*
X250181Y239345D02*
X248048D01*
X250181Y241478D01*
Y242011D01*
X249647Y242544D01*
X248581D01*
X248048Y242011D01*
X251247D02*
X251780Y242544D01*
X252846D01*
X253380Y242011D01*
Y241478D01*
X252846Y240945D01*
X252313D01*
X252846D01*
X253380Y240412D01*
Y239879D01*
X252846Y239345D01*
X251780D01*
X251247Y239879D01*
X300201Y263468D02*
X299668Y264001D01*
X298601D01*
X298068Y263468D01*
Y261335D01*
X298601Y260802D01*
X299668D01*
X300201Y261335D01*
X301267Y260802D02*
X302333D01*
X301800D01*
Y264001D01*
X301267Y263468D01*
X303933Y261335D02*
X304466Y260802D01*
X305533D01*
X306066Y261335D01*
Y263468D01*
X305533Y264001D01*
X304466D01*
X303933Y263468D01*
Y262935D01*
X304466Y262402D01*
X306066D01*
X305811Y258940D02*
X305278Y259473D01*
X304212D01*
X303678Y258940D01*
Y256808D01*
X304212Y256275D01*
X305278D01*
X305811Y256808D01*
X306877Y256275D02*
X307944D01*
X307411D01*
Y259473D01*
X306877Y258940D01*
X311676Y259473D02*
X310610Y258940D01*
X309543Y257874D01*
Y256808D01*
X310076Y256275D01*
X311143D01*
X311676Y256808D01*
Y257341D01*
X311143Y257874D01*
X309543D01*
X237504Y263665D02*
X236971Y264198D01*
X235905D01*
X235371Y263665D01*
Y261532D01*
X235905Y260999D01*
X236971D01*
X237504Y261532D01*
X238570Y260999D02*
X239637D01*
X239104D01*
Y264198D01*
X238570Y263665D01*
X243369Y264198D02*
X241236D01*
Y262598D01*
X242302Y263132D01*
X242836D01*
X243369Y262598D01*
Y261532D01*
X242836Y260999D01*
X241769D01*
X241236Y261532D01*
X214514Y283054D02*
X213980Y283588D01*
X212914D01*
X212381Y283054D01*
Y280922D01*
X212914Y280389D01*
X213980D01*
X214514Y280922D01*
X215580Y280389D02*
X216646D01*
X216113D01*
Y283588D01*
X215580Y283054D01*
X218246Y280389D02*
X219312D01*
X218779D01*
Y283588D01*
X218246Y283054D01*
X180811Y261302D02*
X180278Y261836D01*
X179212D01*
X178679Y261302D01*
Y259170D01*
X179212Y258637D01*
X180278D01*
X180811Y259170D01*
X181877Y258637D02*
X182944D01*
X182411D01*
Y261836D01*
X181877Y261302D01*
X184543D02*
X185076Y261836D01*
X186143D01*
X186676Y261302D01*
Y259170D01*
X186143Y258637D01*
X185076D01*
X184543Y259170D01*
Y261302D01*
X277124Y322621D02*
X276591Y323155D01*
X275525D01*
X274992Y322621D01*
Y320489D01*
X275525Y319956D01*
X276591D01*
X277124Y320489D01*
X280323Y323155D02*
X278191D01*
Y321555D01*
X279257Y322088D01*
X279790D01*
X280323Y321555D01*
Y320489D01*
X279790Y319956D01*
X278724D01*
X278191Y320489D01*
X272203Y350771D02*
X271670Y351304D01*
X270604D01*
X270070Y350771D01*
Y348638D01*
X270604Y348105D01*
X271670D01*
X272203Y348638D01*
X274869Y348105D02*
Y351304D01*
X273269Y349705D01*
X275402D01*
X261573Y322720D02*
X261040Y323253D01*
X259974D01*
X259440Y322720D01*
Y320587D01*
X259974Y320054D01*
X261040D01*
X261573Y320587D01*
X262639Y322720D02*
X263173Y323253D01*
X264239D01*
X264772Y322720D01*
Y322187D01*
X264239Y321654D01*
X263706D01*
X264239D01*
X264772Y321120D01*
Y320587D01*
X264239Y320054D01*
X263173D01*
X262639Y320587D01*
X261573Y318291D02*
X261040Y318824D01*
X259974D01*
X259440Y318291D01*
Y316158D01*
X259974Y315625D01*
X261040D01*
X261573Y316158D01*
X264772Y315625D02*
X262639D01*
X264772Y317758D01*
Y318291D01*
X264239Y318824D01*
X263173D01*
X262639Y318291D01*
D17*
X310020Y374213D02*
Y379331D01*
X316752Y374213D02*
Y379331D01*
X275138Y341535D02*
X277067D01*
Y339606D02*
Y341535D01*
X260925Y325394D02*
X262854D01*
X260925D02*
Y327323D01*
X277067Y325394D02*
Y327323D01*
X275138Y325394D02*
X277067D01*
X260925Y339606D02*
Y341535D01*
X262854D01*
X156299Y312618D02*
Y315571D01*
Y312618D02*
X166142D01*
X217323D02*
X227165D01*
Y315571D01*
X156299Y387421D02*
Y413012D01*
X227165D01*
Y387421D02*
Y413012D01*
X240945Y405905D02*
Y407087D01*
X270866Y405905D02*
Y407087D01*
X240945Y395669D02*
Y397244D01*
X270866Y395669D02*
Y397244D01*
X240945Y407283D02*
X270866D01*
X297244Y405905D02*
Y407087D01*
X327165Y405905D02*
Y407087D01*
X297244Y395669D02*
Y397244D01*
X327165Y395669D02*
Y397244D01*
X297244Y407283D02*
X327165D01*
X196268Y213044D02*
Y216143D01*
X197817D01*
X198334Y215626D01*
Y214593D01*
X197817Y214077D01*
X196268D01*
X197301D02*
X198334Y213044D01*
X199883D02*
X200916D01*
X201433Y213560D01*
Y214593D01*
X200916Y215110D01*
X199883D01*
X199367Y214593D01*
Y213560D01*
X199883Y213044D01*
X202466Y216143D02*
Y213044D01*
X204015D01*
X204532Y213560D01*
Y214077D01*
Y214593D01*
X204015Y215110D01*
X202466D01*
X206081Y213044D02*
X207114D01*
X207631Y213560D01*
Y214593D01*
X207114Y215110D01*
X206081D01*
X205565Y214593D01*
Y213560D01*
X206081Y213044D01*
X209180Y215626D02*
Y215110D01*
X208664D01*
X209697D01*
X209180D01*
Y213560D01*
X209697Y213044D01*
X216411Y215626D02*
X215895Y216143D01*
X214862D01*
X214345Y215626D01*
Y213560D01*
X214862Y213044D01*
X215895D01*
X216411Y213560D01*
X217961Y213044D02*
X218994D01*
X219510Y213560D01*
Y214593D01*
X218994Y215110D01*
X217961D01*
X217444Y214593D01*
Y213560D01*
X217961Y213044D01*
X220543D02*
Y215110D01*
X222093D01*
X222609Y214593D01*
Y213044D01*
X224159Y215626D02*
Y215110D01*
X223642D01*
X224675D01*
X224159D01*
Y213560D01*
X224675Y213044D01*
X226225Y215110D02*
Y213044D01*
Y214077D01*
X226741Y214593D01*
X227258Y215110D01*
X227774D01*
X229840Y213044D02*
X230873D01*
X231390Y213560D01*
Y214593D01*
X230873Y215110D01*
X229840D01*
X229324Y214593D01*
Y213560D01*
X229840Y213044D01*
X232423D02*
X233456D01*
X232939D01*
Y216143D01*
X232423D01*
X235005Y213044D02*
X236038D01*
X235522D01*
Y216143D01*
X235005D01*
X239137Y213044D02*
X238104D01*
X237588Y213560D01*
Y214593D01*
X238104Y215110D01*
X239137D01*
X239654Y214593D01*
Y214077D01*
X237588D01*
X240687Y215110D02*
Y213044D01*
Y214077D01*
X241203Y214593D01*
X241720Y215110D01*
X242236D01*
X246885Y213044D02*
Y216143D01*
X248434D01*
X248951Y215626D01*
Y214593D01*
X248434Y214077D01*
X246885D01*
X247918D02*
X248951Y213044D01*
X252050D02*
X249984D01*
X252050Y215110D01*
Y215626D01*
X251533Y216143D01*
X250500D01*
X249984Y215626D01*
X196268Y211224D02*
X197301D01*
X196784D01*
Y208125D01*
X196268D01*
X197301D01*
X198850D02*
X200400D01*
X200916Y208642D01*
X200400Y209158D01*
X199367D01*
X198850Y209675D01*
X199367Y210191D01*
X200916D01*
X202466D02*
X203499D01*
X204015Y209675D01*
Y208125D01*
X202466D01*
X201949Y208642D01*
X202466Y209158D01*
X204015D01*
X205565Y210191D02*
X206598D01*
X207114Y209675D01*
Y208125D01*
X205565D01*
X205048Y208642D01*
X205565Y209158D01*
X207114D01*
X210213Y210191D02*
X208664D01*
X208147Y209675D01*
Y208642D01*
X208664Y208125D01*
X210213D01*
X214345Y211224D02*
Y208125D01*
X215378Y209158D01*
X216411Y208125D01*
Y211224D01*
X217444Y208125D02*
Y208642D01*
X217961D01*
Y208125D01*
X217444D01*
X196268Y203206D02*
Y206305D01*
X197301Y205272D01*
X198334Y206305D01*
Y203206D01*
X199883Y205272D02*
X200916D01*
X201433Y204756D01*
Y203206D01*
X199883D01*
X199367Y203723D01*
X199883Y204239D01*
X201433D01*
X202466Y205272D02*
Y203723D01*
X202982Y203206D01*
X204532D01*
Y202690D01*
X204015Y202173D01*
X203499D01*
X204532Y203206D02*
Y205272D01*
X210730Y203206D02*
X208664D01*
X210730Y205272D01*
Y205789D01*
X210213Y206305D01*
X209180D01*
X208664Y205789D01*
X211763D02*
X212279Y206305D01*
X213312D01*
X213829Y205789D01*
Y203723D01*
X213312Y203206D01*
X212279D01*
X211763Y203723D01*
Y205789D01*
X216928Y203206D02*
X214862D01*
X216928Y205272D01*
Y205789D01*
X216411Y206305D01*
X215378D01*
X214862Y205789D01*
X217961D02*
X218477Y206305D01*
X219510D01*
X220027Y205789D01*
Y203723D01*
X219510Y203206D01*
X218477D01*
X217961Y203723D01*
Y205789D01*
D18*
X105697Y315145D02*
X102498D01*
X100898Y313545D01*
X102498Y311946D01*
X105697D01*
X104897Y302349D02*
X105697Y303149D01*
Y304748D01*
X104897Y305548D01*
X104097D01*
X103298Y304748D01*
Y303149D01*
X102498Y302349D01*
X101698D01*
X100898Y303149D01*
Y304748D01*
X101698Y305548D01*
X105697Y300749D02*
X100898D01*
X102498Y299150D01*
X100898Y297551D01*
X105697D01*
X410986Y248832D02*
X406188D01*
Y251231D01*
X406988Y252030D01*
X408587D01*
X409387Y251231D01*
Y248832D01*
X406188Y253630D02*
X410986D01*
X409387Y255229D01*
X410986Y256829D01*
X406188D01*
X410986Y258428D02*
X406188D01*
X407787Y260028D01*
X406188Y261627D01*
X410986D01*
X406188Y270425D02*
Y268825D01*
X406988Y268025D01*
X410187D01*
X410986Y268825D01*
Y270425D01*
X410187Y271224D01*
X406988D01*
X406188Y270425D01*
X407787Y272824D02*
X410187D01*
X410986Y273623D01*
Y276023D01*
X407787D01*
X406988Y278422D02*
X407787D01*
Y277622D01*
Y279222D01*
Y278422D01*
X410187D01*
X410986Y279222D01*
X412586Y281621D02*
X407787D01*
Y284020D01*
X408587Y284820D01*
X410187D01*
X410986Y284020D01*
Y281621D01*
X407787Y286419D02*
X410187D01*
X410986Y287219D01*
Y289618D01*
X407787D01*
X406988Y292018D02*
X407787D01*
Y291218D01*
Y292817D01*
Y292018D01*
X410187D01*
X410986Y292817D01*
X101709Y291129D02*
X104708D01*
X106208Y289630D01*
X104708Y288130D01*
X101709D01*
X103958D01*
Y291129D01*
X101709Y286631D02*
X104708D01*
Y284381D01*
X103958Y283632D01*
X101709D01*
X104708Y281382D02*
Y279883D01*
X103958Y279133D01*
X101709D01*
Y281382D01*
X102459Y282132D01*
X103208Y281382D01*
Y279133D01*
X101709Y277634D02*
Y276134D01*
Y276884D01*
X106208D01*
Y277634D01*
X101709Y273135D02*
Y271635D01*
X102459Y270886D01*
X103958D01*
X104708Y271635D01*
Y273135D01*
X103958Y273885D01*
X102459D01*
X101709Y273135D01*
X100209Y267887D02*
Y267137D01*
X100959Y266387D01*
X104708D01*
Y268636D01*
X103958Y269386D01*
X102459D01*
X101709Y268636D01*
Y266387D01*
X106208Y260389D02*
Y258890D01*
Y259639D01*
X101709D01*
Y260389D01*
Y258890D01*
Y256640D02*
X104708D01*
Y254391D01*
X103958Y253641D01*
X101709D01*
X100209Y252142D02*
X104708D01*
Y249892D01*
X103958Y249143D01*
X102459D01*
X101709Y249892D01*
Y252142D01*
X104708Y247643D02*
X102459D01*
X101709Y246893D01*
Y244644D01*
X104708D01*
X105458Y242395D02*
X104708D01*
Y243145D01*
Y241645D01*
Y242395D01*
X102459D01*
X101709Y241645D01*
X352992Y208760D02*
X349660D01*
X347994Y210426D01*
X349660Y212092D01*
X352992D01*
X350493D01*
Y208760D01*
X340454D02*
Y212092D01*
X338787Y210426D02*
X342120D01*
X340158Y234646D02*
Y237978D01*
X347600Y234646D02*
X352598D01*
Y237145D01*
X351765Y237978D01*
X350932D01*
X350099Y237145D01*
Y234646D01*
Y237145D01*
X349266Y237978D01*
X348433D01*
X347600Y237145D01*
Y234646D01*
D19*
X219390Y161713D02*
Y160646D01*
Y161179D01*
X222589D01*
X222056Y161713D01*
D20*
X225422Y142874D02*
D03*
M02*
