G04*
G04 #@! TF.GenerationSoftware,Altium Limited,Altium Designer,20.1.8 (145)*
G04*
G04 Layer_Color=16711935*
%FSLAX25Y25*%
%MOIN*%
G70*
G04*
G04 #@! TF.SameCoordinates,80DC2721-EA0D-41AB-A6B1-568E3CCDEEEF*
G04*
G04*
G04 #@! TF.FilePolarity,Positive*
G04*
G01*
G75*
%ADD16C,0.00600*%
D16*
X98425Y110236D02*
X98466Y109261D01*
X98586Y108292D01*
X98787Y107337D01*
X99065Y106401D01*
X99420Y105492D01*
X99849Y104615D01*
X100348Y103776D01*
X100916Y102982D01*
X101547Y102237D01*
X102237Y101547D01*
X102982Y100916D01*
X103776Y100348D01*
X104615Y99849D01*
X105492Y99420D01*
X106401Y99065D01*
X107337Y98787D01*
X108292Y98586D01*
X109261Y98466D01*
X110236Y98425D01*
X401575D02*
X402550Y98466D01*
X403519Y98586D01*
X404474Y98787D01*
X405410Y99065D01*
X406319Y99420D01*
X407196Y99849D01*
X408035Y100348D01*
X408829Y100916D01*
X409574Y101547D01*
X410264Y102237D01*
X410895Y102982D01*
X411463Y103776D01*
X411962Y104615D01*
X412391Y105492D01*
X412746Y106401D01*
X413024Y107337D01*
X413225Y108292D01*
X413345Y109261D01*
X413386Y110236D01*
X413386Y401575D02*
X413345Y402550D01*
X413225Y403519D01*
X413024Y404474D01*
X412746Y405410D01*
X412391Y406319D01*
X411962Y407196D01*
X411463Y408035D01*
X410895Y408829D01*
X410264Y409574D01*
X409574Y410264D01*
X408829Y410895D01*
X408035Y411463D01*
X407196Y411962D01*
X406319Y412391D01*
X405410Y412746D01*
X404474Y413024D01*
X403519Y413225D01*
X402550Y413345D01*
X401575Y413386D01*
X110236D02*
X109261Y413345D01*
X108292Y413225D01*
X107337Y413024D01*
X106401Y412746D01*
X105492Y412391D01*
X104615Y411962D01*
X103776Y411463D01*
X102982Y410895D01*
X102237Y410264D01*
X101547Y409574D01*
X100916Y408829D01*
X100348Y408035D01*
X99849Y407196D01*
X99420Y406319D01*
X99065Y405410D01*
X98787Y404474D01*
X98586Y403519D01*
X98466Y402550D01*
X98425Y401575D01*
X98425Y401575D02*
X98425Y401575D01*
X110236Y98425D02*
X401575Y98425D01*
X98425Y401575D02*
X98425Y110236D01*
X413386D02*
X413386Y401575D01*
X110236Y413386D02*
X110236Y413386D01*
X401329D02*
X401575D01*
X110236D02*
X401329D01*
M02*
