M48
;Layer_Color=9474304
;FILE_FORMAT=2:5
INCH,TZ
;TYPE=PLATED
T1F00S00C0.00787
T3F00S00C0.02800
T4F00S00C0.03543
T5F00S00C0.03740
T6F00S00C0.03937
T7F00S00C0.04016
T8F00S00C0.04724
T9F00S00C0.08268
T10F00S00C0.11811
%
T01
X103937Y103937
X118110
X120473Y108661
X118110Y113386
X120473Y118110
X115748
X113386Y122835
X118110
X108661
X103937
X106299Y127559
X111024
X108661Y132283
X103937
X106299Y137008
X111024
X108661Y141732
X103937
X106299Y146457
X111024
X115748
X120473
X125197
X129921
X134646
X139370
X144095
X148819
X153543
X151181Y151181
X155905
X153543Y155905
X148819
X144095
X139370
X134646
X129921
X127559Y151181
X132283
X137008
X141732
X146457
Y141732
X151181
X155905
X141732
X137008
X132283
X127559
X129921Y137008
X134646
X139370
X144095
X141732Y132283
X146457
X137008
X132283
X127559
X122835Y151181
X118110
X113386
X108661
X103937
X106299Y155905
X111024
X106299Y118110
X179350Y115436
X177650Y113636
X176950Y110736
X177350Y107636
X179250Y105536
X182050Y104536
X184650Y105436
X186650Y107336
X187250Y110336
X186750Y113336
X184950Y115236
X182050Y116236
X192550Y113336
X191750Y110536
X192050Y107636
X193950Y105436
X196850Y104436
X199350Y105336
X201250Y107036
X202050Y110236
X201450Y113236
X199650Y115136
X196950Y116036
X194450Y115136
X213084Y113636
X214784Y115436
X217483Y116236
X220384Y115236
X222183Y113336
X222684Y110336
X222083Y107336
X220083Y105436
X217483Y104536
X214684Y105536
X212784Y107636
X212384Y110736
X227184Y110536
X227484Y107636
X229383Y105436
X232283Y104436
X234784Y105336
X236684Y107036
X237484Y110236
X236883Y113236
X235084Y115136
X232383Y116036
X229884Y115136
X227983Y113336
X222342Y121161
X210236Y137008
X205512
X203150Y132283
X200787Y155905
X210236
X229134
X233858
X290551
X295276
X300000
X304724
X309449
X307087Y151181
X311811
X302362
X297638
X292913
X300000Y146457
Y137008
X295276
X290551
X290202Y115036
X292002Y113136
X292502Y110136
X291902Y107136
X289902Y105236
X287302Y104336
X284502Y105336
X282602Y107436
X282202Y110536
X282902Y113436
X284602Y115236
X287302Y116036
X297802Y113136
X297002Y110336
X297302Y107436
X299202Y105236
X302102Y104236
X304602Y105136
X306502Y106836
X307302Y110036
X306702Y113036
X304902Y114936
X302202Y115836
X299702Y114936
X272317Y113236
X272917Y110236
X272116Y107036
X270216Y105336
X267717Y104436
X264816Y105436
X262916Y107636
X262616Y110536
X263417Y113336
X265317Y115136
X267816Y116036
X270516Y115136
X257616Y113336
X258117Y110336
X257517Y107336
X255517Y105436
X252917Y104536
X250116Y105536
X248217Y107636
X247816Y110736
X248517Y113636
X250217Y115436
X252917Y116236
X255817Y115236
X174803Y141732
X170079
X165354
X160630
X162992Y146457
X158268
X160630Y151181
X165354
X162992Y155905
X158268
X314173
X316535Y151181
X318898Y146457
X314173
Y137008
X316535Y132283
X320035Y115236
X318335Y113436
X317635Y110536
X318035Y107436
X319935Y105336
X322735Y104336
X325335Y105236
X327335Y107136
X327935Y110136
X327435Y113136
X325635Y115036
X322735Y116036
X333235Y113136
X332435Y110336
X332735Y107436
X334635Y105236
X337535Y104236
X340035Y105136
X341935Y106836
X342735Y110036
X342135Y113036
X340335Y114936
X337635Y115836
X335135Y114936
X353768Y113436
X355468Y115236
X358168Y116036
X361068Y115036
X362868Y113136
X363368Y110136
X362768Y107136
X360768Y105236
X358168Y104336
X355368Y105336
X353468Y107436
X353068Y110536
X367868Y110336
X368168Y107436
X370068Y105236
X372968Y104236
X375468Y105136
X377368Y106836
X378168Y110036
X377568Y113036
X375768Y114936
X373068Y115836
X370568Y114936
X368668Y113136
X368504Y132283
X373228
X377953
X382677
X387402
X392126
X396850
X401575
X406299
X408662Y127559
X403937
X399213
X394488
X392126Y122835
X396850
X401575
X406299
X408662Y118110
X394488
X392126Y113386
Y103937
X394488Y137008
X389764
X385039
X380315
X375591
X373228Y141732
X377953
X382677
X387402
X392126
X396850
X401575
X406299
X408662Y146457
X403937
X401575Y151181
X406299
X408662Y155905
X403937
X385039Y146457
X380315
X375591
X373228Y151181
X359055
X354331
X356693Y155905
X361417
Y146457
X356693
X351969
X354331Y141732
X359055
X361417Y137008
X356693
X351969
X349606Y132283
X354331
X359055
X363780
X344882
X340158
X331890Y138583
X340158Y151181
X342520Y155905
X347244
X351969
X349606Y160630
X354331
X359055
X361417Y165354
X356693
X351969
X347244
X348377Y168850
X342520Y165354
X337795
X335433Y160630
X340158
X344882
X328346Y165354
X323622
X318898
X314173
X316535Y170079
X321260
X325984
X330709
X318898Y174803
X314173
X316535Y179528
X318898Y184252
X314173
X316535Y198425
X321260
X325984
X330709
X335433
X340158
X344882
X347244Y184252
X342520
X335433Y207874
X330709
X325984
X321260
X316535
X318898Y212598
X323622
X328346
X333071
X330709Y217323
X333071Y222047
X330709Y226772
X335433
X333071Y231496
X328346
X323425Y233760
X318898Y231496
X316535Y236221
Y226772
X321260
X318898Y222047
X314173
X316535Y217323
X321260
X314173Y212598
X351969
X354331Y207874
X368504
X370866Y203150
X363681Y201083
X366142Y212598
X374114Y212106
X373228Y217323
X377953
X380315Y222047
X375591
X370866
X373228Y226772
X377953
X370866Y231496
Y240945
X362500Y238681
X355217Y242815
X351969Y259842
Y269291
X343307Y266634
X340158Y283465
X335433
X330709
X325984
X321260
X316535
X318898Y288189
X314173
Y307087
X323622
X324705Y300197
X333071Y307087
X337795
X342520
X354429Y307185
X354921Y303740
X351673Y300689
X358268Y296829
X363583Y298524
X366043Y301870
X377953Y311811
X382677
X392126
X396850
X401575
X406299
X408662Y307087
X403937
X406299Y302362
X408662Y297638
X403937
X406299Y292913
X408662Y288189
X403937
X406299Y283465
X408662Y278740
X403937
X406299Y274016
X408662Y269291
X403937
X406299Y264567
X408662Y259842
X403937
X406299Y255118
X408662Y250394
X403937
X406299Y245669
X408662Y240945
X403937
X406299Y236221
X408662Y231496
X403937
X401575Y226772
X406299
X408662Y222047
X403937
X399213
X394488
X396850Y226772
Y217323
X401575
X406299
Y207874
X401575
X396850
X399213Y203150
X403937
X408662
X406299Y198425
X401575
X399114Y197343
X399213Y193701
X403937
X408662
X406299Y188976
X401575
X396850
X394488Y184252
X389764
X385039
X385318Y189961
X387402Y179528
X392126
X394488Y174803
X399213
X403937
X408662
X406299Y160630
X401575
X392126Y170079
X389764Y174803
X382677Y179528
Y170079
X385039Y165354
X380315
X382677Y160630
X359055Y170079
X316535Y160630
X328740Y238878
X330217Y240729
X315846Y264272
X314764Y268996
X321260Y274016
X342520Y288189
X352737Y286910
X363780Y255118
X394488Y250394
Y240945
Y212598
X380315
X385318Y204724
X311811Y207874
X309449Y212598
X307087Y217323
X311811
X309449Y222047
X304724
X302362Y226772
X307087
X311811
X312402Y231791
X311811Y236221
X307087
X297835Y237894
X293110Y239665
X282185Y240354
X283465Y245472
X287803Y249220
X289469Y254429
X292913Y252067
X296358Y254134
X299902Y252362
X303445Y254035
X306791Y251575
X311811Y264567
X311319Y273721
X311811Y283465
X307087Y291043
X297638Y292913
X292913
X287697Y292815
X285827Y288189
X281102
X276378
X273524Y281712
X275325Y279436
X281398Y283661
X282973Y272739
X280610Y269980
X277772Y267539
X275705Y265472
X269882Y263878
X271457Y261319
X269488Y256890
X261811Y258465
X252958
X254134Y254232
X256102Y262500
X258366Y271654
X253839Y274410
X261713Y276772
X267224Y276420
X266772Y272809
X266831Y269238
X266339Y266535
X267522Y245714
X268602Y243504
X271457Y245590
X273707Y244791
X275978Y244854
X263817Y245276
X259646Y245571
X257874Y243485
X249803Y245866
X248031Y240945
Y231496
X252756
X257480
X258858Y228346
X262205Y222047
X259842Y217323
X255118
X250394
X245669
X240945
X236221
X231496
X226772
X222047
X217323
X212598
X207874
X203150
X198425
X200787Y222047
X205512
X210236
X214961
X219685
X224410
X229134
X233858
X238583
X243307
X248031
X245669Y226772
X250394
X240945
X236221
X231496
X226772
X222047
X217323
X212598
X207874
X203150
X198425
X193701
X188976
X184252
X179528
X174803
X170079
X172441Y231496
X177165
X181890
X186614
X191339
X196063
X200787
X205512
X210236
X214961
X219685
X224410
X229134
X233858
X238583
X243307
X240945Y236221
X236221
X231496
X226772
X222047
X217323
X212598
X207874
X203150
X198425
X193701
X188976
X184252
X179528
X174803
X177165Y240945
X181890
X186614
X191339
X196063
X200787
X205512
X210236
X214961
X219685
X224410
X229134
X233858
X238583
X231496Y245669
X225984Y248031
X224410Y250394
X219685
X214961
X210236
X205512
X200787
X196063
X191339
X186614
X188976Y245669
X193701
X198425
X203150
X207874
X212598
X217323
X222047
X231004Y254716
X227461Y259154
X225984Y262402
X223917Y264567
X221161Y266535
X226083Y269783
X228740Y273031
X232776Y271457
X244193Y272638
X243898Y260846
X238208Y256988
X243307Y250394
X244587Y286516
X245669Y292913
X238583Y297638
Y307087
X243307
X248031
X255906Y305077
X266993Y303578
X267658Y298173
X272244Y304528
X282283Y305020
X287303Y303059
X290551Y297638
X283268Y297835
X292224Y287894
X297146Y274724
X299016Y270669
X286713Y259547
X279640Y253888
X278740Y226279
X274410Y227264
X269291Y226772
X272933Y216535
X271654Y212598
X266929
X264567Y207874
X269291
X274016
X278740
X283465
X285827Y203150
X281102
X276378
X271654
X266929
X262205
X259842Y207874
X250394
X245669
X240945
X236221
X231496
X226772
X222047
X217323
X212598
X207874
X203150
X198425
X193701
X196063Y203150
X200787
X205512
X210236
X214961
X219685
X224410
X229134
X233858
X238583
X243307
X240945Y198425
X245669
X243307Y193701
X238583
X233858
X229134
X224410
X219685
X214961
X210236
X205512
X200787
X203150Y198425
X207874
X212598
X217323
X222047
X226772
X231496
X236221
Y188976
X231496
X229134Y184252
X217323Y170079
X212598
X207874
X210236Y165354
X207874Y160630
X198425
X193701
X188976
X184252
X179528
X174803
X170079
X165354
X160630
X162992Y165354
X167717
X172441
X177165
X181890
X186614
X191339
X196063
Y174803
X200787
X198425Y179528
X193701
X188976
X184252
X179528
X174803
X170079
X165354
X167717Y174803
X172441
X177165
X181890
X186614
X191339
X207874Y188976
X210236Y212598
X214961
X219685
X224410
X229134
X233858
X238583
X243307
X248031
X252756
X264567Y198425
X269291
X274016
X278740
X283465
X288189
X297638
X302362
X307087
X311811
X304724Y203150
X300000
X295276
X297638Y207874
X302362
Y217323
X292913
X288189
X283465
X278740
X285827Y222047
X290551
X297638Y226772
X295276Y212598
Y193701
X304724Y184252
X309449
X307087Y179528
X311811
X309449Y174803
X304724
X300000
X295276
X292913Y170079
X297638
X302362
X307087
X311811
X309449Y165354
X304724
X300000
X295276
X290551
X285827
X283465Y170079
X288189
Y160630
X292913
X297638
X302362
X307087
X311811
X302362Y179528
X285827Y184252
X281102
X276378
X271654
X266929
X264567Y188976
X269291
X266929Y193701
X262205
X254984Y187644
X278740Y188976
X205512Y212598
X200787
X170079Y207874
X165354
X160630
X162992Y203150
X167717
X172441
X158268
X172441Y222047
X167717Y231496
Y240945
X162992
X158268
X160630Y236221
X170079Y274016
Y283465
X165354
X160433Y284350
X162992Y288189
X167717
X172441
X177559Y288386
X170079Y292913
X165354Y311811
X162311Y310827
X193701Y302362
X203150
X200787Y307087
Y297638
Y288189
X196063
X191339
X189764Y286024
X188976Y274016
X193701
X198425
X203150
X202264Y279232
X200787Y269291
X196752Y270177
X198425Y264567
X193701
X188976
X184252
X207874
X212598Y283465
X210925Y288779
X219685Y278740
X236122Y281102
X233858Y307087
X231496Y311811
X236221
X224606Y302461
X257461Y289710
X261633Y288681
X301378Y299410
X300787Y308446
X297146Y310531
X310531Y300930
X158268Y165354
X155905Y160630
X151181
Y179528
X146457
X141732
X137008
X132283
X134646Y184252
X139370
X144095
X141732Y188976
X146457
X144095Y193701
X139370
X141732Y198425
X146457
X148819Y203150
X153543
X151181Y207874
X155905
X146457
X141732
X144095Y212598
X141732Y217323
X139370Y222047
X141732Y226772
X146457
X151181
X153543Y240945
X151181Y245669
X146457
X141732
X144095Y250394
X148819
X153543
X144095Y269291
X148819Y278740
X146457Y283465
X148819Y288189
X144095
X141732Y292913
X146457
X148819Y297638
X144095
X139370
X134646
X129921
X127559Y292913
X132283
X137008
X141732Y302362
X146457
X144095Y307087
X127559Y311811
X118110
X113386
X108661
X103937
X106299Y307087
X103937Y302362
X108661
X111024Y297638
X115748
X120473
X118110Y292913
X113386
X108661
X103937
X106299Y297638
Y288189
X103937Y283465
X108661
X106299Y278740
X103937Y274016
X108661
X106299Y269291
X103937Y264567
X108661
X106299Y259842
X103937Y255118
X108661
X106299Y250394
X103937Y245669
X108661
X111024Y240945
X115748
X113386Y236221
X118110
X122835
X108661
X103937
X106299Y240945
Y231496
X103937Y226772
X108661
X111024Y222047
X115748
X118110Y217323
Y207874
X115748Y203150
X111024
X106299
X103937Y207874
X108661
X106299Y212598
X103937Y217323
X108661
X106299Y222047
X129921
Y203150
X139370
X144095
X122047Y200787
X113386Y198425
Y179528
X118110
X122835
X120473Y184252
X129921
X134646Y174803
X139370
X144095
X103937Y170079
X106299Y165354
X103937Y160630
X108661
X153937Y281969
X139665Y314173
X125197Y316535
X122835Y321260
X106299Y325984
X103937Y330709
X105118Y334252
X103937Y340158
X111417Y332972
X120473Y344882
X125197
X129921
X127559Y349606
X132283
X129921Y354331
X125197
X120473
X118110Y359055
X122835
X127559
X132283
X137008
X129921Y363780
X126772Y368406
X127559Y377953
X132283
X134646Y382677
X139370
X144095
X148819
X146457Y387402
X151181
X153543Y392126
X148819
X144095
X139370
X134646
X129921
X125197
X120473
X115748
X111024
X106299
X103937Y377953
X108661
X115059Y378150
X111024Y373228
X106299
X103937Y368504
X108661
X111024Y363780
X106299
X118110Y349606
X122835
X127559Y340158
X132283
X151181Y349606
Y330709
X146850Y366831
X148819Y373228
X146457Y377953
X151181
Y396850
X146457
X141732
X137008
X132283
X127559
X122835
X118110
X120473Y401575
X125197
X129921
X134646
X139370
X144095
X148819
X153543
X151181Y406299
X146457
X141732
X137008
X132283
X127559
X122835
X118110
Y387402
X122835
X127559
X132283
X137008
X141732
X129921Y382677
X125197
X120473
X160433Y378543
X165354Y377953
X170079
X170866Y373524
X173327Y369009
X172441Y363780
X177165
X181890
X186614
X191339
X196063
X201673Y364075
X203150Y368504
Y359055
X198425
X200787Y354331
X205512
X208268Y356398
X214961Y354331
X219685
X217323Y349606
X222047
X219685Y344882
X214961
X212598Y349606
Y340158
X214961Y335433
X212598Y330709
X214961Y325984
X205512
X200787
X196063
X191339
X186614
X181890
X180315Y323524
X179528Y330709
X184252
X188976
X193701
X198425
X203150
X205512Y335433
X200787
X196063
X191339
X186614
X181890
X177165
X172441
X170079Y340158
X174803
X179528
X184252
X188976
X193701
X198425
X203150
X205512Y344882
X200787
X196063
X191339
X186614
X181890
X177165
X172441
X170079Y349606
X174803
X179528
X177165Y354331
X172441
X170079Y359055
X174803
X179528
X162992Y363780
Y354331
Y344882
Y335433
X165354Y330709
X170079
X172441Y325984
X167717
X162992
X207382Y319980
X222047Y330709
X233169Y321358
X233858Y316535
X257480
Y325984
X252756
X250394Y330709
X255118
X257480Y335433
X252756
X248031
X245669Y340158
X250394
X255118
X252756Y344882
X248031
X243307
X238583
X238681Y350098
X243996Y351279
X233858Y354331
X236221Y359055
X237598Y363090
X233366Y363287
X236221Y368504
X240945
X238583Y373228
X233858
Y382677
X238583
X243307
X248031
X252756
X255999Y381890
X258371Y381857
X262205Y382677
X266929
X269291Y377953
X274016
X276378Y382677
X281102
X285827
X290551
X295276
X300000
X304724
X302362Y387402
X297638
X292913
X288189
X283465
X278740
X274016
X276378Y392126
X281102
X285827
X290551
X288189Y396850
X292913
X297638
X302362
X304724Y392126
X302362Y406299
X297638
X292913
X288189
X283465
X278740
X274016
X276378Y401575
X281102
X285827
X290551
X295276
X283465Y396850
X278740
X274016
X283465Y377953
X288189
X292913
X297638
X302362
X307087
X304724Y373228
X300000
X295276
X290551
X288189Y368504
X292913
X297638
X302362
X307087
X300000Y363780
X295276
X290551
X287894Y362402
X285827Y354331
X290551
X288189Y349606
X283465
X278740
X274016
X269291
X271654Y354331
X276378
X281102
Y344882
X276378
X266929
Y354331
X274016Y359055
X276378Y363780
X281890Y373819
X264173Y375098
X245669Y373228
X241339Y379134
X240945Y387402
X245669
X248031Y392126
X245669Y396850
X240945
X236221
X231496
X233858Y401575
X238583
X236221Y406299
X240945
X245669
X231496
X229134Y401575
Y392126
X233858
X238583
X236221Y387402
X231496
X219685Y382677
X214961
X210236
X205512
X200787
X196063
X191339
X186614
X181890
X177165
X172441
X167717
X218602Y373031
X222047Y368504
X219685Y363780
X215354Y359547
X203150Y349606
X198425
X236221Y340158
X240945
X265748Y335039
X268504Y336713
X281102Y335433
Y325984
X276378
X278740Y321260
X274508Y318209
X266437Y315846
X291485Y315503
X297638Y321260
X302362
X307087
X297638Y330709
X292913
X294783Y344488
X300000Y344882
X297638Y359055
X313287Y370768
X318898Y373228
X321752Y371457
X320472Y382087
X321260Y387402
X325984
X330709
X335433
X337795Y392126
X342520
X347244
X351969
X356693
X354331Y396850
X349606
X344882
X340158
X335433
X330709
X333071Y401575
X337795
X342520
X347244
X344882Y406299
X349606
X359055
X363780
X368504
X370177Y403937
X373228Y406299
X377953
X392126
X389764Y401575
X387402Y396850
X392126
X394488Y392126
X399213
X403937
X408662
X406299Y377953
X408662Y373228
X406299Y368504
X408662Y363780
X403937
X398622Y370374
X396505Y377966
X392126Y387402
X387402
X382677
X382185Y382382
X385039Y382677
X389764Y392126
X380315
X368898Y399311
X361417Y401575
X359055Y387402
X354331
X360728Y383465
X368996Y383268
X370866Y363780
X380315
X385039
X387402Y359055
X392126
X394488Y354331
X389764
X387402Y349606
X392126
X394488Y344882
X389764
X385039
X383071Y351772
X380315Y354331
X377953Y359055
X380807Y370079
X377953Y340158
X371457Y336417
X363963Y333544
X360827Y325984
X354921Y329724
X355906Y320965
X351969Y316535
X344783Y315748
X341831Y317126
X333071Y316535
X330709Y321260
X325984
X321260
X316535
X325984Y330709
X328346Y344882
X323622
X318898
X328346Y354331
X342520
X340158Y359055
X342520Y373228
X340158Y377953
X337598Y379823
X333071Y392126
X330709Y406299
X335433
X340158
X313386Y382185
X339280Y336419
X338798Y325787
X349213Y337716
X354331Y340158
X362795Y345866
X367618Y314764
X387402Y321260
X392126
X394488Y316535
X399213Y325984
X403937
X408662
X406299Y330709
X401575
X403937Y335433
X408662
X406299Y340158
X401575
X398524Y336516
X385039Y325984
T03
X187008Y141339
X326378Y140551
T04
X340689Y218307
Y228307
X350689
Y218307
X347402Y261260
X337402
X327402
Y271260
X337402
X347402
T05
X220472Y129410
Y136142
Y142874
Y149606
Y156339
T06
X367323Y183858
X304429Y192028
X274508
T07
X165709Y296161
X175709
X185709
X195709
X205709
X155709
X139370Y324055
Y334055
Y344055
Y354055
Y364055
Y374055
T08
X138976Y107087
X148819
X158661
X377953Y235591
X387795
X397638
Y245590
X387795
X377953
Y255591
X387795
X397638
Y265591
X387795
X377953
Y275590
X387795
X397638
Y285591
X387795
X377953
Y295590
X387795
X397638
Y305591
X387795
X377953
X347638Y291339
X337795
X327953
X179331Y248031
X169488
X159646
X134153Y246339
X124311
X114469
Y256339
X124311
X134153
Y266339
X124311
X114469
Y276339
X124311
X134153
Y286339
X124311
X114469
X114665Y306299
X124508
X134350
X133858Y230118
X124016
X114173
Y213090
X124016
X133858
X105315Y196850
Y187008
Y177165
X241339Y313484
Y323327
Y333169
T09
X182150Y110436
X196850Y110236
X217583Y110436
X232283Y110236
X253016Y110436
X267717Y110236
X287402
X302102Y110036
X322835Y110236
X337535Y110036
X358268Y110236
X372968Y110036
T10
X110236Y110236
X401575
X110236Y401575
X401575
M30
