M48
;Layer_Color=9474304
;FILE_FORMAT=2:5
INCH,TZ
;TYPE=PLATED
T1F00S00C0.00787
T2F00S00C0.00800
T3F00S00C0.01181
T4F00S00C0.01200
T5F00S00C0.01772
T6F00S00C0.01968
T8F00S00C0.02800
T9F00S00C0.03150
T10F00S00C0.03740
T11F00S00C0.03937
T12F00S00C0.04016
T13F00S00C0.04724
T14F00S00C0.08268
T15F00S00C0.11811
%
T01
X140643Y107305
X143443Y106305
X146043Y107205
X148043Y109105
X148643Y112105
X148143Y115105
X146343Y117005
X143443Y118005
X140743Y117205
X139043Y115405
X138343Y112505
X138743Y109405
X153443
X153143Y112305
X153943Y115105
X155843Y116905
X155343Y107205
X141732Y153543
X118110
X112205
X106299
X100394
X177165
X184153Y132382
X161043Y116905
X158343Y117805
X162843Y115005
X163443Y112005
X162643Y108805
X160743Y107105
X158243Y106205
X211509Y107305
X214310Y106305
X216910Y107205
X218910Y109105
X219510Y112105
X219009Y115105
X217210Y117005
X214310Y118005
X211610Y117205
X209910Y115405
X209209Y112505
X209610Y109405
X224309
X224009Y112305
X224810Y115105
X226710Y116905
X229209Y117805
X231909Y116905
X233710Y115005
X234310Y112005
X233509Y108805
X231609Y107105
X229110Y106205
X226209Y107205
X274606Y112205
X282044Y112505
X282444Y109405
X284344Y107305
X287144Y106305
X289744Y107205
X291744Y109105
X292344Y112105
X291844Y115105
X290044Y117005
X287144Y118005
X284444Y117205
X282744Y115405
X277559Y118110
X271654
X274606Y124016
X280512
X286417
X292323
X289370Y129921
X283465
X277559
X271654
X265748
X268701Y135827
X274606
X280512
X277559Y141732
X271654
X265748
X268701Y147638
X274606
X280512
X277559Y153543
X283465
X289370
X295275
X301181
X271654
X265748
X262795Y147638
Y135827
X255118Y132677
X262795Y124016
X268701
X297644Y115105
X296844Y112305
X297144Y109405
X299044Y107205
X301944Y106205
X304444Y107105
X306344Y108805
X307144Y112005
X306544Y115005
X304744Y116905
X302044Y117805
X299544Y116905
X248031Y153543
X212598
X395669
X413386
X405905Y132087
X381516Y116905
X378816Y117805
X376316Y116905
X374416Y115105
X373616Y112305
X373916Y109405
X375816Y107205
X378716Y106205
X381216Y107105
X383116Y108805
X383916Y112005
X383316Y115005
X368616Y115105
X369116Y112105
X368516Y109105
X366516Y107205
X363916Y106305
X361116Y107305
X359216Y109405
X358816Y112505
X359516Y115405
X361216Y117205
X363916Y118005
X366816Y117005
X432350Y115405
X434050Y117205
X436750Y118005
X439650Y117005
X441450Y115105
X441950Y112105
X441350Y109105
X439350Y107205
X436750Y106305
X433950Y107305
X432050Y109405
X431650Y112505
X446450Y112305
X446750Y109405
X448650Y107205
X451550Y106205
X454050Y107105
X455950Y108805
X456750Y112005
X456150Y115005
X454350Y116905
X451650Y117805
X449150Y116905
X447250Y115105
X466535Y153543
X484252
X475295Y131102
X475393Y159449
X481299
X487205
X484252Y165354
X478346
X472441
X475393Y171260
X481299
X487205
X484252Y177165
X478346
X472441
X475393Y183071
X469488
X472441Y188976
X478346
Y200787
X472441
X475393Y206693
X472441Y212598
X478346
X484252
X487205Y218504
X481299
X484252Y224409
X487205Y230315
X472441Y236220
Y259842
X478346
X475393Y265748
X469488
X472441Y271654
X478346
X475393Y277559
Y289370
X469488
X472441Y295275
X478346
X484252
X475393Y301181
X469488
Y159449
X463583
X466535Y165354
Y177165
X463583Y183071
X458858Y174114
X456398Y174409
X453642Y174016
X444980Y185039
X440256Y184350
X439370Y187795
X435925Y184153
X437106Y180610
X437697Y177756
X432480Y176673
X425197Y177165
X407480
Y165354
X401575
X404527Y159449
X410433
X416338
X434055
X398622
X392716
X389764Y165354
X395669Y177165
X382579Y179724
X379232
X376673Y179528
X373819Y180020
X362894Y180118
X360352Y179930
X359547Y177657
X360138Y175197
X359646Y171752
X360236Y165354
X363189Y159449
X357283
X342520Y165354
X345472Y171260
X339567
X333661
X336614Y177165
X342520
X348425
X345472Y194882
Y206693
X346260Y212205
X339567Y218504
X342520Y224409
X339567Y230315
X334646Y230020
X327756Y230315
X321850
X315945
X312992Y224409
X318898
X324803
X330709
X333661Y242126
X339567
X336614Y248031
X330709
X324803
X318898
X321850Y242126
X327756
X318898Y259842
X321850Y265748
X318898Y271654
X324803
X336614
X334744Y275590
X336614Y283465
X330709
X331398Y286221
X324803Y283465
X320866Y281988
X318898Y283465
X313976Y280118
X318898Y298031
Y308169
X319291Y311811
X330709Y298228
X330413Y294783
X337205Y297146
X341240Y290059
X354429Y289961
X350000Y281890
X346260Y278839
X357283Y265748
X363878Y262598
X365453Y259744
X380905Y253937
X392716
X389764Y248031
X395669
X398622Y242126
X404527
X416338
X422244
X428150
X425197Y248031
X419291
X413386
X416338Y253937
X422244
X428150
X425197Y259842
X431102
X437008
X442913
X448819
X454724
X460630
X466535
X463583Y265748
X457677
X451771
X454724Y271654
X460630
X463583Y277559
X466634Y278150
X466535Y275590
X457677Y277559
X451771
X445866
X437992Y278150
X437697Y272539
X431102Y271654
X425197
X419291
X422244Y277559
X428150
X425197Y283465
X431102
Y295275
X434055Y301181
X439960
X437008Y307086
X442913
X431102
X425197
X416338Y301181
X410433
X404527
X407480Y307086
Y295275
X413386
X411417Y288386
X404527Y289370
X407480Y283465
X410433Y277559
X404527
X399213Y274311
X392716Y277559
X386811
X383858Y283465
X380905Y289370
X375000
X377067Y286319
X372047Y283465
X369094Y289370
X372047Y295275
X375000Y301181
X380905
X386811
X392716
X394193Y298327
X395669Y295275
X394390Y288779
X395669Y283465
X392716Y265748
X404527
X407480Y259842
X413386
X419291
X422244Y265748
X428150
X434055
X439960
X445866Y253937
X451771
X457677
X463583
X460630Y248031
X454724
X448819
X451771Y242126
X457677
X463583
X460630Y236220
X466535
X463583Y230315
X457677
X451771
X445866
X442913Y236220
X448819
X454724
Y224409
X460630
X448819
X442913
X437008Y236220
X431102
X445866Y242126
Y206693
Y194882
X439960
X437008Y200787
X434055Y206693
X422244Y194882
X404527
X398622
X401575Y200787
X407480
X404527Y206693
X398622
X392716
X386811
X383858Y212598
X389764
X395669
X401575
X398622Y218504
X392716
X386811
Y230315
X392716
X398622
X404527
X410433
X416338
X419291Y224409
X410433Y253937
X404527
X416338Y265748
X419291Y283465
X446949Y291142
X448819Y295275
X454724
X460630
X466535
X457677Y289370
X451771
X454724Y283465
X460630
Y200787
X454724
X448819Y188976
X383858Y200787
X366142
X372047Y224409
X368799Y231594
X380905Y230315
X392716Y242126
X383858Y295275
Y307086
X389764
X395669
X372047
X353839Y307776
X351690Y310940
X348031Y306398
X348130Y302658
X315945Y218504
X312992Y212598
X315945Y206693
X312992Y200787
X315945Y194882
X321850
X327756
X333661
X330709Y188976
X324803
X318898
X312992
X315945Y183071
X312992Y165354
X307086
X301181
X295275
X298228Y171260
X304134
X310039
X307086Y177165
X301181
X295275
X298228Y183071
X295275Y188976
X289370
X283465
X277559
X271654
X274606Y194882
Y183071
X271654Y177165
X277559
X274606Y171260
X268701
X262795
X256890
X250984
X248031Y165354
X253937
X259842
X265748
X271654
X277559
X280512Y159449
X286417
X292323
X298228
X304134
X274606
X268701
X262795
X256890
X250984
X245079
X242126Y165354
X240158Y176673
X227559Y177165
X228445Y180413
X225995Y181997
X217924
X218504Y184449
X219007Y178847
X215748Y177264
X214577Y175107
X206693Y177165
X200787
X197835Y183071
X203740Y184843
X209646Y183071
X209350Y196752
X224409Y200787
Y212598
Y224409
Y236220
X212598
Y248031
X200787
X194882
X188976
X183071
X177165
X171260
X165354
X159449
X162401Y253937
X168307
X174213
X180118
X186024
X191929
X197835
X197736Y259941
X197835Y265748
X200787Y271654
X192717Y271949
X189665Y272244
X189469Y276969
X192717
X197835Y277559
X200787Y283465
X206693
Y295275
X212598
X218504
X215453Y291043
X215551Y301181
X209646
X206693Y307086
X200787
X194882
X188976
X183661Y305118
X177165Y307086
X171260
X165354
X183071Y295275
X184646Y290945
X183071Y283465
X177165
X175984Y277165
X180118Y277559
X186024
X183071Y271654
X180118Y265748
X174213
X171260Y271654
X165354
X159449
X162401Y277559
X168307
X156496
X159449Y283465
X156496Y265748
X159449Y259842
X165354
X171260
X156496Y253937
Y242126
X186024
X191929
X197835
X194882Y236220
X200787
X197835Y230315
X191929
X186024
X183071Y236220
X188976
Y224409
X194882
X200787
X197835Y218504
X191929
X194882Y212598
X200787
X212598
Y224409
X183071
X186024Y206693
X183071Y200787
X188976
X186024Y194882
X188976Y177165
Y165354
X194882
X196368Y170481
X197835Y159449
X191929
X186024
X180118
X174213
X171260Y165354
X177165
X183071
X177362Y176575
X174311Y178248
X172343Y179823
X170177Y181496
X167815Y183563
X165453Y185531
X163779Y187795
X161417Y189567
X159843Y191634
X162401Y194882
X156496
X212598Y165354
X248031Y188976
X253937
X256890Y194882
X262795
X250984
X245079
X248031Y200787
X253937
X250984Y206693
X256890Y230315
X262795
X268701
X274606
X280512
X286417
X292323
X298228
X304134
X310039
X307086Y224409
X301181
X304134Y218504
X310039
X307086Y212598
X301181
X304134Y206693
X310039
X307086Y200787
X301181
X304134Y194882
X310039
X298228Y206693
Y218504
Y242126
X304134
X301181Y248031
X307086
X295275
X289370
X283465
X277559
X271654
X265748
X259842
X253937
X248031
X245079Y242126
X248031Y236220
X256890Y242126
X262795
X268701
X274606
X280512
X286417
X292323
X289370Y259842
X295275
X301181
X304134Y265748
X310039
X304232Y275689
X306791Y279429
X310335Y282579
X307102Y287416
X302968Y289975
X300787Y291437
X299016Y284547
X296161Y280807
X293406Y281398
X290748
X287219Y283971
X285053Y291282
X277756Y292913
X270374Y294390
X272244Y288090
X274803Y285433
X260827Y285925
X260249Y282691
X256496Y284744
X254535Y283465
X252264Y283563
X251279Y281201
X251575Y278740
X256201Y279134
X263300Y277277
X265663Y277179
X265650Y269980
X271555Y272638
X273242Y263989
X269587Y262795
X259842Y259842
X253937
X252953Y263386
X256890Y265748
X233268
X227362
X221457
Y277559
X234646Y279035
X236220Y271654
X230315
Y259842
X236220
X239173Y289370
X245669Y285236
X250394Y287008
X259055Y287992
X259842Y292224
X257806Y294322
X262303Y301181
X255512Y305118
X248524Y305020
X247146Y310138
X242126Y307086
X236220
X245079Y301181
X272441Y302756
X276772Y307579
X280709Y311910
X283957Y300197
X308563Y298327
X309117Y294418
X311713Y290453
X295093Y269895
X291437Y266437
X283465Y259842
X218504Y307086
X200787Y295275
X194882
X153543
Y283465
X147638
X150591Y277559
X147638Y271654
X153543
X150591Y265748
X144685
X141732Y259842
X147638
X153543
X150591Y253937
X144685
X147638Y248031
X153543
X150591Y242126
X144685
X147638Y236220
X153543
X144685Y230315
X126969
X121063
X115157
X118110Y236220
X124016
X129921
X126969Y242126
X121063
X115157
X109252
X103346
X100394Y248031
X106299
X112205
X118110
X115157Y253937
X109252
X103346
X100394Y259842
X106299
X103346Y265748
X100394Y271654
X118110
X124016
X126969Y277559
X121063
X115157
X112205Y283465
X118110
X124016
X132874Y289370
X136811Y311614
X106299Y307086
X100394
X126969Y265748
X129921Y259842
X135827
X129921Y212598
X124016
X118110
X121063Y206693
X126969
X132874
X138779
X144685
X150591
X147638Y212598
Y200787
X153543
X150591Y194882
X147638Y188976
X145374Y176083
X135827Y177165
X129921
X124016
X118110
X121063Y183071
X126969
X124016Y188976
X118110
X121063Y194882
X126969
X124016Y200787
X129921
X118110
X112205
X106299
X100394
X103346Y194882
X109252
X115157
Y206693
X100394Y212598
Y224409
Y236220
Y188976
Y177165
Y165354
X103346Y159449
X115157
X121063
X126969
X124016Y165354
X129921
X126969Y171260
X121063
X115157
X118110Y165354
X115157Y183071
X141732Y165354
X138779Y312992
X141732Y318898
X147638
X154035Y320866
X150591Y324803
X144685
X141732Y330709
X147638
X153543
X150591Y336614
X144685
X141732Y342520
X147638
X153543
X150591Y348425
X144685
X141732Y354331
X147638
X153543
X150591Y360236
X144685
X141732Y366142
X147638
X153543
X150591Y372047
Y383858
X144685
X129921Y389764
X124016
X118110
X112205
X106299
X100394
Y401575
X124016
X129921
X132874Y407480
X126969
X121063
Y395669
X126969
X132874
X121063Y383858
X115157
X118110Y377953
X124016
X126969Y372047
X124016Y366142
X129921
X112205
X100394
Y377953
X106299
X109252Y348425
X115157
X118110Y342520
X121063Y336614
X118110Y330709
X124016
X121063Y324803
X115157
X109252
X103346
X100394Y330709
X112205
X109252Y336614
X103346Y348425
X100394Y318898
X106299
X112205
X118110
X124016
X103346Y312992
X159449Y318898
X165354
X168307Y324803
X174213
X180118
X186024
X183071Y330709
X188976
X194882
X200000Y327953
Y319783
X197835Y312992
X203740
X209646
X215551
X214173Y322835
X212598Y330709
X215551Y336614
X221457
X230315Y342520
X242126
Y354331
X239173Y353150
X248031Y354331
X250984Y360236
X256890
X262795
X268701
X265748Y366142
X271654
X268701Y372047
X262795
X265748Y377953
X271654
X274606Y383858
X278937Y387008
X269882Y387205
X262795Y383858
X256890
X253937Y389764
X259842
X262795Y395669
X256890
X253937Y401575
X259842
X262795Y407480
X256890
X215551
X209646
X212598Y401575
X215551Y395669
X209646
X212598Y389764
X215551Y383858
X212598Y377953
X218504
X221358Y376673
X224409Y377953
X217137Y371278
X215650Y369390
X212598Y366142
X215551Y360236
X212598Y354331
X215551Y348425
X197835
X191929
X186024
X180118
X177165Y342520
X183071
X188976
X194882
X197835Y336614
X191929
X186024
X174213
X168307
X162401
X156496
X159449Y342520
X165354
X171260
Y330709
X177165
Y318898
X183071
X189272Y318602
X162401Y324803
X156496
X159449Y330709
X165354
X156496Y348425
X159449Y366142
X165354
X171260
X177165
X183071
X188976
X194882
X197835Y360236
X191929
X186024
X180118
X183071Y354331
X188976
X194882
X200787
Y377953
X197835Y383858
X191929
X186024
X180118
X174213
X168307
X162401
X156496
Y372047
X162401
X168307
X174213
X180118
X186024
X191929
X227362Y360236
X245079
X242126Y330709
X248031
X253937
X259842
X265748
X262795Y324803
X256890
X256594Y320276
X255512Y313386
X250000Y312795
X262795Y312992
X273721Y314173
X273425Y319980
X275295Y322146
X277559Y318898
X280512Y324803
X285531Y319783
X287697Y317618
X292815Y321358
X291732Y325295
X294882Y326673
X296850Y322933
X301870Y315945
X308775Y324032
X305020Y327854
X308169Y331988
X303051Y335925
X307972Y345768
X290354Y347736
X289272Y344291
X287598Y340256
X285531Y338189
X279035Y344488
X275394Y347638
X271654Y342520
X270571Y338681
X265748Y342520
X259842
X245079Y324803
X233268
X230315Y330709
X233268Y312992
X280512Y360236
X289370Y366142
X292323Y372047
X293701Y374508
X304134Y372047
X310039
X309449Y374311
X307086Y366142
X301181
Y389764
X307086
X301181Y401575
X304134Y407480
X287697Y389469
X312992Y389764
X318898Y401575
X324803
X330709
X327756Y407480
X321850
X315945
X351378
X357283
X363189
X369094
X366142Y401575
X354331
X348425Y389764
X342520
X336614
X339567Y395669
Y383858
X341142Y380807
X344685Y376772
X348425Y377953
X354331
X351378Y383858
X363189
X366142Y377953
X372047
X375000Y383858
X380905
X386811
X392716
X402461Y381988
X410433Y383858
X416338
X422244
X428150
X433760Y384013
X434765Y388503
X431102Y377953
X437303Y376279
X439960Y372047
X437008Y366142
X442913
X439960Y360236
X434055
X428150
X422244
X416338
X410433
X404527
X398622
X392716
Y348425
X386811
X380905
X382283Y351575
X380905Y360236
X377953Y366142
X383858
X386811Y372047
X383858Y377953
Y389764
X377953
X380905Y395669
X375000
X389764Y401575
X395669
X401575
X407480
X410433Y395669
X416338
X422244
X419291Y389764
X413386
Y377953
X410138Y371850
X407480Y366142
X413386
X425197
X431102
X435138Y354232
X439960Y348425
X445866
X451771
X457677
X454724Y354331
X448819
Y342520
X454724
X460630
X466535Y354331
X457677Y360236
X460630Y366142
X457677Y372047
X451771
X454724Y377953
Y389764
X452067Y390059
X448819Y389764
X449409Y385236
X463583Y383858
X460630Y389764
X466535
X463583Y395669
X457677
X460630Y401575
X466535
X463583Y407480
X457677
X445866
X439960
X434055
X428150
X438583Y400689
X404527Y407480
X398622
X392716
X401575Y366142
X404527Y348425
X410433
X416338
X422244
X428150
X425197Y342520
X431102
X437008
X442913
Y330709
X448819
X454724
X460630Y318898
X442913
X437008
X431102
X425197
X423917Y321654
X418898Y319980
X419291Y330709
X425197
X428150Y336614
X422244
X416338
X413386Y342520
X419291
X407480
X401575
X395669
X389764
X383858
X377953
X372047
X369291Y340059
X369094Y348425
X371457Y351575
X372047Y354331
X366142
X360236
X363189Y348425
X357283
X357579Y342224
X360236Y342520
X361713Y338484
X356791Y335630
X351279Y345374
X345472Y348425
X340354Y349902
X342520Y330709
X345472Y324803
X348425Y318898
X346850Y316929
X348130Y314961
X356988Y315059
X372047Y318898
X377953
X383858
X383268Y322638
X380905Y312992
X386811
X392716
X404527
X401575Y318898
Y330709
X407480
X411811Y327165
X404527Y336614
X398622
X389764Y330709
X375000Y348425
X316535Y345965
X316831Y342224
X312894Y336024
X312992Y330906
X321850Y329429
X325787Y328248
X327854Y334154
X333661Y324803
X336614Y318898
X334394Y312697
X319094Y318012
X320768Y361417
X318898Y366142
X324803
X321850Y372047
X315945
X312992Y366142
X333661Y383858
X437008Y330709
X469488Y336614
X475393
X472441Y342520
X475393Y348425
X481299
X487205
Y360236
Y372047
Y383858
X481299
X475393
X469488
X472441Y389764
X478346
X484252
X469488Y395669
Y407480
Y372047
Y360236
X472441Y354331
X469488Y348425
X478346Y318898
X484252
T02
X283366Y283366
X252756Y383957
X237848Y385630
X235577
T03
X147441Y154626
X151870
X156693
X161024
X165847
X217618Y155118
X222047
X226870
X231201
X236024
X367520Y154035
X371949
X376772
X381102
X385925
X440453Y154921
X444882
X449705
X454036
X458858
Y159252
Y163386
X454036
Y159252
X449705
Y163386
X444882
Y159252
X440453
Y163386
X385925Y162500
Y158366
X381102
Y162500
X376772
Y158366
X371949
Y162500
X367520
Y158366
X380610Y258858
X307776Y271555
X301181Y281594
X236024Y163583
Y159449
X231201
Y163583
X226870
Y159449
X222047
Y163583
X217618
Y159449
X165847Y158957
Y163091
X161024
Y158957
X156693
Y163091
X151870
Y158957
X147441
Y163091
T04
X487795Y310335
X450787Y401772
X450742Y406599
X450787Y411319
X421358Y411417
X421342Y406599
X421457Y401968
X413189
X413143Y406599
X413189Y411319
X383563Y410827
X383743Y406599
X383760Y401968
X376083
X375955Y406398
X375984Y410925
X346555Y410728
Y406398
Y401968
X480118Y340354
X483858
X487500
T05
X191811Y378563
X227264Y348130
X268110Y349803
X322146Y346850
T06
X112205Y41339
X118110
X124016
X129921
X135827
X141732
X147638
X153543
X150591Y47244
X144685
X138779
X132874
X126969
X121063
X124016Y53150
X129921
X135827
X141732
X147638
X153543
X150591Y59055
X144685
X138779
X132874
X126969
X121063
X115157
X112205Y64961
X118110
X124016
X129921
X135827
X141732
X147638
X153543
X150591Y70866
X144685
X138779
X132874
X126969
X121063
X115157
X109252
X103346
X100394Y76772
X106299
X112205
X118110
X124016
X129921
X135827
X141732
X147638
X153543
X150591Y82677
X144685
X138779
X132874
X126969
X121063
X115157
X109252
X103346
X100394Y88583
X106299
X112205
X118110
X124016
X129921
X135827
X141732
X147638
X153543
X150591Y94488
X144685
X138779
X132874
X126969
X121063
X115157
X109252
X103346
X100394Y100394
X106299
X112205
X118110
X124016
X129921
X135827
X141732
X147638
X153543
X106299Y64961
X100394
X103346Y59055
X100394Y53150
X159449
X165354
X171260
X177165
X183071
X188976
X194882
X200787
X206693
X212598
X218504
X224409
X230315
X236220
X242126
X248031
X253937
X259842
X265748
X271654
X277559
X283465
X289370
X295275
X301181
X307086
X310039Y59055
X304134
X298228
X292323
X286417
X280512
X274606
X268701
X262795
X256890
X250984
X245079
X239173
X233268
X227362
X221457
X215551
X209646
X203740
X197835
X191929
X186024
X180118
X174213
X168307
X162401
X156496
X159449Y64961
X165354
X171260
X177165
X183071
X188976
X194882
X200787
X206693
X212598
X218504
X224409
X230315
X236220
X242126
X248031
X253937
X259842
X265748
X271654
X277559
X283465
X289370
X295275
X301181
X307086
X310039Y70866
X304134
X298228
X292323
X286417
X280512
X274606
X268701
X262795
X256890
X250984
X245079
X239173
X233268
X227362
X221457
X215551
X209646
X203740
X197835
X191929
X186024
X180118
X174213
X168307
X162401
X156496
X159449Y76772
X165354
X171260
X177165
X183071
X188976
X194882
X200787
X206693
X212598
X218504
X224409
X230315
X236220
X242126
X248031
X253937
X259842
X265748
X271654
X277559
X283465
X289370
X295275
X301181
X307086
X310039Y82677
X304134
X298228
X292323
X286417
X280512
X274606
X268701
X262795
X256890
X250984
X245079
X239173
X233268
X227362
X221457
X215551
X209646
X203740
X197835
X191929
X186024
X180118
X174213
X168307
X162401
X156496
X159449Y88583
X165354
X171260
X177165
X183071
X188976
X194882
X200787
X206693
X212598
X218504
X224409
X230315
X236220
X242126
X248031
X253937
X259842
X265748
X271654
X277559
X283465
X289370
X295275
X301181
X307086
X310039Y94488
X304134
X298228
X292323
X286417
X280512
X274606
X268701
X262795
X256890
X250984
X245079
X239173
X233268
X227362
X221457
X215551
X209646
X203740
X197835
X191929
X186024
X180118
X174213
X168307
X162401
X156496
X159449Y100394
X165354
X171260
X177165
X183071
X188976
X194882
X200787
X206693
X212598
X218504
X224409
X230315
X236220
X242126
X248031
X253937
X259842
X265748
X271654
X277559
X283465
X289370
X295275
X301181
X307086
X310039Y106299
Y118110
Y47244
X304134
X298228
X292323
X286417
X280512
X274606
X268701
X262795
X256890
X250984
X245079
X239173
X233268
X227362
X221457
X215551
X209646
X203740
X197835
X191929
X186024
X180118
X174213
X168307
X162401
X156496
X159449Y41339
X165354
X171260
X177165
X183071
X188976
X194882
X200787
X206693
X212598
X218504
X224409
X230315
X236220
X242126
X248031
X253937
X259842
X265748
X271654
X277559
X283465
X289370
X295275
X301181
X307086
X312992
X318898
X324803
X330709
X336614
X342520
X348425
X354331
X360236
X366142
X372047
X377953
X383858
X389764
X395669
X401575
X407480
X413386
X419291
X425197
X431102
X437008
X442913
X448819
X454724
X460630
X466535
X463583Y47244
X457677
X451771
X445866
X439960
X434055
X428150
X422244
X416338
X410433
X404527
X398622
X392716
X386811
X380905
X375000
X369094
X363189
X357283
X351378
X345472
X339567
X333661
X327756
X321850
X315945
X312992Y53150
X318898
X324803
X330709
X336614
X342520
X348425
X354331
X360236
X366142
X372047
X377953
X383858
X389764
X395669
X401575
X407480
X413386
X419291
X425197
X431102
X437008
X442913
X448819
X454724
X460630
X466535
X463583Y59055
X457677
X451771
X445866
X439960
X434055
X428150
X422244
X416338
X410433
X404527
X398622
X392716
X386811
X380905
X375000
X369094
X363189
X357283
X351378
X345472
X339567
X333661
X327756
X321850
X315945
X312992Y64961
X318898
X324803
X330709
X336614
X342520
X348425
X354331
X360236
X366142
X372047
X377953
X383858
X389764
X395669
X401575
X407480
X413386
X419291
X425197
X431102
X437008
X442913
X448819
X454724
X460630
X466535
X463583Y70866
X457677
X451771
X445866
X439960
X434055
X428150
X422244
X416338
X410433
X404527
X398622
X392716
X386811
X380905
X375000
X369094
X363189
X357283
X351378
X345472
X339567
X333661
X327756
X321850
X315945
X312992Y76772
X318898
X324803
X330709
X336614
X342520
X348425
X354331
X360236
X366142
X372047
X377953
X383858
X389764
X395669
X401575
X407480
X413386
X419291
X425197
X431102
X437008
X442913
X448819
X454724
X460630
X466535
X463583Y82677
X457677
X451771
X445866
X439960
X434055
X428150
X422244
X416338
X410433
X404527
X398622
X392716
X386811
X380905
X375000
X369094
X363189
X357283
X351378
X345472
X339567
X333661
X327756
X321850
X315945
X312992Y88583
X318898
X324803
X330709
X336614
X342520
X348425
X354331
X360236
X366142
X372047
X377953
X383858
X389764
X395669
X401575
X407480
X413386
X419291
X425197
X431102
X437008
X442913
X448819
X454724
X460630
X466535
X463583Y94488
X457677
X451771
X445866
X439960
X434055
X428150
X422244
X416338
X410433
X404527
X398622
X392716
X386811
X380905
X375000
X369094
X363189
X357283
X351378
X345472
X339567
X333661
X327756
X321850
X315945
X312992Y100394
X318898
X324803
X330709
X336614
X342520
X348425
X354331
X360236
X366142
X372047
X377953
X383858
X389764
X395669
X401575
X407480
X413386
X419291
X425197
X431102
X437008
X442913
X448819
X454724
X460630
X466535
X351378Y106299
X345472
X339567
X333661
X327756
X321850
X315945
X312992Y112205
X318898
X324803
X330709
X336614
X342520
X348425
X354331
X351378Y118110
X345472
X339567
X333661
X327756
X321850
X315945
X472441Y100394
X478346
X484252
X487205Y94488
X481299
X475393
X469488
X472441Y88583
X478346
X484252
X487205Y82677
X481299
X475393
X469488
X472441Y76772
X478346
X484252
X487205Y70866
X481299
X475393
X469488
X472441Y64961
X478346
X484252
X487205Y59055
X475393
X469488
Y47244
X472441Y41339
X478346
T08
X369390Y212303
X400394Y223721
T09
X405973Y152783
X440158Y206594
X399114Y259154
X360335Y331791
T10
X261142Y202658
X267874
X274606
X281339
X288071
T11
X341732Y248031
X311811
T12
X158563Y298721
X168563
X178563
X188563
X148563
X138563
X105315Y332697
Y342697
Y352697
Y362697
Y372697
Y382697
T13
X108268Y114567
Y124409
Y134252
X484055Y185531
Y195374
Y205217
X483268Y264862
Y274705
Y284547
X451279Y302756
X362402Y300197
Y310039
X226969
Y300197
X121894Y301957
Y292114
X111894
Y301957
Y311799
X121894
X107972Y230217
Y220374
Y210531
X108071Y183957
Y174114
Y164272
X226969Y319882
X362402
X361614Y362598
X371417Y362618
Y372618
X361575
X351732
Y362618
X451279Y322441
Y312598
X479626Y357579
Y367421
Y377264
T14
X143543Y112205
X158243Y112005
X214409Y112205
X229110Y112005
X287244Y112205
X301944Y112005
X364016Y112205
X378716Y112005
X436850Y112205
X451550Y112005
T15
X110236Y51181
X480315
X110236Y401575
X480315
M30
