G04*
G04 #@! TF.GenerationSoftware,Altium Limited,Altium Designer,18.0.7 (293)*
G04*
G04 Layer_Color=32896*
%FSLAX25Y25*%
%MOIN*%
G70*
G01*
G75*
%ADD10C,0.01000*%
%ADD11C,0.00394*%
%ADD12C,0.01000*%
%ADD13C,0.00787*%
%ADD14C,0.00197*%
%ADD15C,0.00500*%
%ADD16C,0.00700*%
%ADD20C,0.00598*%
D10*
X296300Y265775D02*
X295629Y266446D01*
X294958Y265775D01*
X295629Y265104D01*
X296300Y265775D01*
X469295Y153126D02*
X474045D01*
X469295Y131126D02*
Y153126D01*
Y131126D02*
X481295D01*
Y153126D01*
X474045D02*
X481295D01*
X399905Y152929D02*
X404656D01*
X399905Y130929D02*
Y152929D01*
Y130929D02*
X411905D01*
Y152929D01*
X404656D02*
X411905D01*
X249118Y153618D02*
X253868D01*
X249118Y131618D02*
Y153618D01*
Y131618D02*
X261118D01*
Y153618D01*
X253868D02*
X261118D01*
X178154Y153815D02*
X182904D01*
X178154Y131815D02*
Y153815D01*
Y131815D02*
X190154D01*
Y153815D01*
X182904D02*
X190154D01*
X393344Y384624D02*
X394343Y385624D01*
X396343D01*
X397342Y384624D01*
Y380626D01*
X396343Y379626D01*
X394343D01*
X393344Y380626D01*
X391344Y379626D02*
Y383625D01*
X389345Y385624D01*
X387346Y383625D01*
Y379626D01*
Y382625D01*
X391344D01*
X385346Y379626D02*
Y385624D01*
X381348Y379626D01*
Y385624D01*
X373350D02*
Y379626D01*
X370351D01*
X369352Y380626D01*
Y381625D01*
X370351Y382625D01*
X373350D01*
X370351D01*
X369352Y383625D01*
Y384624D01*
X370351Y385624D01*
X373350D01*
X367352Y383625D02*
Y380626D01*
X366353Y379626D01*
X363353D01*
Y383625D01*
X361354Y379626D02*
X358355D01*
X357355Y380626D01*
X358355Y381625D01*
X360354D01*
X361354Y382625D01*
X360354Y383625D01*
X357355D01*
D11*
X331325Y252461D02*
X333425D01*
Y264761D01*
X331325D02*
X333425D01*
X331325Y252461D02*
Y264761D01*
X457305Y358556D02*
Y360756D01*
X456205Y359656D02*
X458405D01*
X458268Y358656D02*
X459837D01*
X458268Y346556D02*
Y358656D01*
Y346556D02*
X466142D01*
Y358656D01*
X459837D02*
X466142D01*
X458268Y349056D02*
X466005D01*
X458368Y349356D02*
X466105D01*
X458368Y349656D02*
X466105Y349656D01*
X448842Y371670D02*
X448842Y376870D01*
X425764Y371670D02*
X448842D01*
X425764D02*
Y382070D01*
X448842D01*
X448842Y376870D01*
X401272Y376554D02*
X403472D01*
X402372Y375453D02*
Y377654D01*
X401372Y374021D02*
Y375590D01*
X389272D02*
X401372D01*
X389272Y367717D02*
Y375590D01*
Y367717D02*
X401372D01*
Y374021D01*
X391772Y367853D02*
Y375590D01*
X392072Y367754D02*
Y375490D01*
X392372Y367754D02*
Y375490D01*
X288182Y396928D02*
X290382D01*
X289282Y395828D02*
Y398028D01*
X288282Y394395D02*
Y395965D01*
X276182D02*
X288282D01*
X276182Y388090D02*
Y395965D01*
Y388090D02*
X288282D01*
Y394395D01*
X278682Y388228D02*
Y395965D01*
X278982Y388128D02*
Y395865D01*
X279282Y388128D02*
Y395865D01*
X280229Y279175D02*
X289321D01*
X285876D02*
X294929D01*
Y267175D02*
Y279175D01*
X280229Y267175D02*
X294929D01*
X280229D02*
Y279175D01*
D12*
X295829Y265775D02*
D03*
D13*
X333169Y367982D02*
X332285Y367616D01*
X331919Y366732D01*
X332285Y365848D01*
X333169Y365482D01*
X471457Y313812D02*
X490657D01*
Y337112D01*
X471457D02*
X490657D01*
X471457Y313812D02*
Y337112D01*
X333169Y365482D02*
X333169Y360702D01*
X333169Y367982D02*
Y373202D01*
X313169Y373202D02*
X333169Y373202D01*
X313169Y360702D02*
Y373202D01*
Y360702D02*
X333169Y360702D01*
X447606Y393701D02*
Y412901D01*
X424305D02*
X447606D01*
X424305Y393701D02*
Y412901D01*
Y393701D02*
X447606D01*
X335105D02*
Y412901D01*
X311806D02*
X335105D01*
X311806Y393701D02*
Y412901D01*
Y393701D02*
X335105D01*
X372884Y393598D02*
Y412798D01*
X349584D02*
X372884D01*
X349584Y393598D02*
Y412798D01*
Y393598D02*
X372884D01*
X410106Y393799D02*
Y412999D01*
X386806D02*
X410106D01*
X386806Y393799D02*
Y412999D01*
Y393799D02*
X410106D01*
D14*
X240932Y383044D02*
Y386444D01*
Y383044D02*
X242532D01*
Y386444D01*
X240932D02*
X242532D01*
X265820Y262980D02*
X269220D01*
Y264580D01*
X265820D02*
X269220D01*
X265820Y262980D02*
Y264580D01*
X270839Y264653D02*
X274239D01*
Y266253D01*
X270839D02*
X274239D01*
X270839Y264653D02*
Y266253D01*
Y261798D02*
X274239D01*
Y263398D01*
X270839D02*
X274239D01*
X270839Y261798D02*
Y263398D01*
X270741Y271961D02*
X274141D01*
X270741Y270361D02*
Y271961D01*
Y270361D02*
X274141D01*
Y271961D01*
X321332Y351292D02*
X324731D01*
X321332Y349692D02*
Y351292D01*
Y349692D02*
X324731D01*
Y351292D01*
X469993Y274875D02*
Y278275D01*
X468393D02*
X469993D01*
X468393Y274875D02*
Y278275D01*
Y274875D02*
X469993D01*
X435839Y274481D02*
Y277881D01*
X434239D02*
X435839D01*
X434239Y274481D02*
Y277881D01*
Y274481D02*
X435839D01*
X301745Y322920D02*
X305145D01*
Y324520D01*
X301745D02*
X305145D01*
X301745Y322920D02*
Y324520D01*
X302335Y325972D02*
X305735D01*
Y327572D01*
X302335D02*
X305735D01*
X302335Y325972D02*
Y327572D01*
X308576Y292001D02*
Y295401D01*
X306976D02*
X308576D01*
X306976Y292001D02*
Y295401D01*
Y292001D02*
X308576D01*
X304501Y297527D02*
X307901D01*
Y299127D01*
X304501D02*
X307901D01*
X304501Y297527D02*
Y299127D01*
X308379Y321332D02*
Y324731D01*
X306779D02*
X308379D01*
X306779Y321332D02*
Y324731D01*
Y321332D02*
X308379D01*
X273202Y302054D02*
X276602D01*
Y303654D01*
X273202D02*
X276602D01*
X273202Y302054D02*
Y303654D01*
X275578Y293576D02*
Y296976D01*
Y293576D02*
X277178D01*
Y296976D01*
X275578D02*
X277178D01*
X272625Y293576D02*
Y296976D01*
Y293576D02*
X274225D01*
Y296976D01*
X272625D02*
X274225D01*
X329993Y300676D02*
X333393D01*
Y302276D01*
X329993D02*
X333393D01*
X329993Y300676D02*
Y302276D01*
X188300Y273005D02*
Y276405D01*
X186700D02*
X188300D01*
X186700Y273005D02*
Y276405D01*
Y273005D02*
X188300D01*
X193491D02*
Y276405D01*
Y273005D02*
X195091D01*
Y276405D01*
X193491D02*
X195091D01*
D15*
X227756Y380610D02*
X227264Y381463D01*
X226279D01*
X225787Y380610D01*
X226279Y379758D01*
X227264D01*
X227756Y380610D01*
X225787Y375689D02*
Y377250D01*
X227179Y378642D01*
X228740D01*
X225787Y358957D02*
Y361910D01*
Y358957D02*
X228740D01*
X242520Y378642D02*
X245472D01*
Y375689D02*
Y378642D01*
Y358957D02*
Y361910D01*
X242520Y358957D02*
X245472D01*
D16*
X306594Y388386D02*
Y393898D01*
Y388386D02*
X453051D01*
Y393898D01*
D20*
X296187Y285201D02*
X294053Y282001D01*
Y285201D02*
X296187Y282001D01*
X292987D02*
X291920D01*
X292454D01*
Y285201D01*
X292987Y284667D01*
X311960Y364173D02*
X309293D01*
X308760Y364706D01*
Y365773D01*
X309293Y366306D01*
X311960D01*
X308760Y367373D02*
Y368440D01*
Y367906D01*
X311960D01*
X311426Y367373D01*
X308760Y370039D02*
Y371106D01*
Y370573D01*
X311960D01*
X311426Y370039D01*
X248917Y383318D02*
Y380651D01*
X248384Y380118D01*
X247317D01*
X246784Y380651D01*
Y383318D01*
X243584Y380118D02*
X245718D01*
X243584Y382251D01*
Y382785D01*
X244118Y383318D01*
X245184D01*
X245718Y382785D01*
X343209Y375000D02*
Y378200D01*
X341609D01*
X341075Y377666D01*
Y376600D01*
X341609Y376067D01*
X343209D01*
X342142D02*
X341075Y375000D01*
X337876D02*
X340009D01*
X337876Y377133D01*
Y377666D01*
X338409Y378200D01*
X339476D01*
X340009Y377666D01*
X336809D02*
X336276Y378200D01*
X335209D01*
X334676Y377666D01*
Y377133D01*
X335209Y376600D01*
X334676Y376067D01*
Y375533D01*
X335209Y375000D01*
X336276D01*
X336809Y375533D01*
Y376067D01*
X336276Y376600D01*
X336809Y377133D01*
Y377666D01*
X336276Y376600D02*
X335209D01*
X441226Y366831D02*
Y370030D01*
X439627D01*
X439093Y369497D01*
Y368431D01*
X439627Y367897D01*
X441226D01*
X440160D02*
X439093Y366831D01*
X435893D02*
X438027D01*
X435893Y368964D01*
Y369497D01*
X436427Y370030D01*
X437493D01*
X438027Y369497D01*
X434827Y370030D02*
X432694D01*
Y369497D01*
X434827Y367364D01*
Y366831D01*
X318799Y275394D02*
Y278593D01*
X317199D01*
X316666Y278060D01*
Y276994D01*
X317199Y276460D01*
X318799D01*
X317733D02*
X316666Y275394D01*
X313466D02*
X315599D01*
X313466Y277527D01*
Y278060D01*
X314000Y278593D01*
X315066D01*
X315599Y278060D01*
X310266Y278593D02*
X311333Y278060D01*
X312400Y276994D01*
Y275927D01*
X311866Y275394D01*
X310800D01*
X310266Y275927D01*
Y276460D01*
X310800Y276994D01*
X312400D01*
X371949Y254823D02*
Y258023D01*
X370349D01*
X369816Y257489D01*
Y256423D01*
X370349Y255889D01*
X371949D01*
X370882D02*
X369816Y254823D01*
X366616D02*
X368749D01*
X366616Y256956D01*
Y257489D01*
X367149Y258023D01*
X368216D01*
X368749Y257489D01*
X365549D02*
X365016Y258023D01*
X363949D01*
X363416Y257489D01*
Y256956D01*
X363949Y256423D01*
X364483D01*
X363949D01*
X363416Y255889D01*
Y255356D01*
X363949Y254823D01*
X365016D01*
X365549Y255356D01*
X382972Y254823D02*
Y258023D01*
X381373D01*
X380839Y257489D01*
Y256423D01*
X381373Y255889D01*
X382972D01*
X381906D02*
X380839Y254823D01*
X377640D02*
X379773D01*
X377640Y256956D01*
Y257489D01*
X378173Y258023D01*
X379239D01*
X379773Y257489D01*
X374440Y254823D02*
X376573D01*
X374440Y256956D01*
Y257489D01*
X374973Y258023D01*
X376040D01*
X376573Y257489D01*
X424902Y283465D02*
Y286664D01*
X423302D01*
X422768Y286131D01*
Y285064D01*
X423302Y284531D01*
X424902D01*
X423835D02*
X422768Y283465D01*
X421702D02*
X420635D01*
X421169D01*
Y286664D01*
X421702Y286131D01*
X416902Y286664D02*
X419035D01*
Y285064D01*
X417969Y285598D01*
X417436D01*
X416902Y285064D01*
Y283998D01*
X417436Y283465D01*
X418502D01*
X419035Y283998D01*
X442520Y283465D02*
Y286664D01*
X440920D01*
X440386Y286131D01*
Y285064D01*
X440920Y284531D01*
X442520D01*
X441453D02*
X440386Y283465D01*
X439320D02*
X438253D01*
X438787D01*
Y286664D01*
X439320Y286131D01*
X435054Y283465D02*
Y286664D01*
X436654Y285064D01*
X434520D01*
X263189Y335728D02*
Y338928D01*
X261589D01*
X261056Y338395D01*
Y337328D01*
X261589Y336795D01*
X263189D01*
X262122D02*
X261056Y335728D01*
X259989Y338395D02*
X259456Y338928D01*
X258389D01*
X257856Y338395D01*
Y337861D01*
X258389Y337328D01*
X257856Y336795D01*
Y336262D01*
X258389Y335728D01*
X259456D01*
X259989Y336262D01*
Y336795D01*
X259456Y337328D01*
X259989Y337861D01*
Y338395D01*
X259456Y337328D02*
X258389D01*
X187458Y266393D02*
Y269593D01*
X185858D01*
X185325Y269059D01*
Y267993D01*
X185858Y267460D01*
X187458D01*
X186392D02*
X185325Y266393D01*
X182125Y269593D02*
X183192Y269059D01*
X184258Y267993D01*
Y266926D01*
X183725Y266393D01*
X182659D01*
X182125Y266926D01*
Y267460D01*
X182659Y267993D01*
X184258D01*
X263189Y343898D02*
Y347097D01*
X261589D01*
X261056Y346564D01*
Y345497D01*
X261589Y344964D01*
X263189D01*
X262122D02*
X261056Y343898D01*
X257856Y347097D02*
X259989D01*
Y345497D01*
X258923Y346031D01*
X258389D01*
X257856Y345497D01*
Y344431D01*
X258389Y343898D01*
X259456D01*
X259989Y344431D01*
X259646Y380413D02*
Y383613D01*
X258046D01*
X257512Y383080D01*
Y382013D01*
X258046Y381480D01*
X259646D01*
X258579D02*
X257512Y380413D01*
X256446D02*
X255379D01*
X255913D01*
Y383613D01*
X256446Y383080D01*
X333103Y267069D02*
Y269202D01*
X333636Y269735D01*
X334703D01*
X335236Y269202D01*
Y267069D01*
X334703Y266535D01*
X333636D01*
X334170Y267602D02*
X333103Y266535D01*
X333636D02*
X333103Y267069D01*
X332036Y269202D02*
X331503Y269735D01*
X330437D01*
X329903Y269202D01*
Y268669D01*
X330437Y268135D01*
X330970D01*
X330437D01*
X329903Y267602D01*
Y267069D01*
X330437Y266535D01*
X331503D01*
X332036Y267069D01*
X398031Y366782D02*
Y363583D01*
X396432D01*
X395898Y364116D01*
Y366249D01*
X396432Y366782D01*
X398031D01*
X392699D02*
X393765Y366249D01*
X394832Y365183D01*
Y364116D01*
X394299Y363583D01*
X393232D01*
X392699Y364116D01*
Y364649D01*
X393232Y365183D01*
X394832D01*
X453592Y355512D02*
X456791D01*
Y353912D01*
X456258Y353379D01*
X454125D01*
X453592Y353912D01*
Y355512D01*
Y350179D02*
Y352312D01*
X455192D01*
X454658Y351245D01*
Y350712D01*
X455192Y350179D01*
X456258D01*
X456791Y350712D01*
Y351779D01*
X456258Y352312D01*
X285236Y400149D02*
Y396949D01*
X283636D01*
X283103Y397482D01*
Y399615D01*
X283636Y400149D01*
X285236D01*
X279903Y396949D02*
X282036D01*
X279903Y399082D01*
Y399615D01*
X280437Y400149D01*
X281503D01*
X282036Y399615D01*
X464825Y315846D02*
X461493D01*
X460827Y316513D01*
Y317846D01*
X461493Y318512D01*
X464825D01*
X460827Y319845D02*
X463493D01*
X464825Y321178D01*
X463493Y322511D01*
X460827D01*
X462826D01*
Y319845D01*
X460827Y323844D02*
X464825D01*
Y325843D01*
X464159Y326510D01*
X462826D01*
X462160Y325843D01*
Y323844D01*
Y325177D02*
X460827Y326510D01*
X464825Y327843D02*
Y330508D01*
Y329175D01*
X460827D01*
Y334507D02*
Y331841D01*
X463493Y334507D01*
X464159D01*
X464825Y333841D01*
Y332508D01*
X464159Y331841D01*
X479016Y158937D02*
X479550Y159471D01*
X480616D01*
X481150Y158937D01*
Y156804D01*
X480616Y156271D01*
X479550D01*
X479016Y156804D01*
X476350Y156271D02*
Y159471D01*
X477950Y157871D01*
X475817D01*
X474750Y158937D02*
X474217Y159471D01*
X473150D01*
X472617Y158937D01*
Y158404D01*
X473150Y157871D01*
X472617Y157337D01*
Y156804D01*
X473150Y156271D01*
X474217D01*
X474750Y156804D01*
Y157337D01*
X474217Y157871D01*
X474750Y158404D01*
Y158937D01*
X474217Y157871D02*
X473150D01*
X185760Y157686D02*
X186294Y158220D01*
X187360D01*
X187894Y157686D01*
Y155553D01*
X187360Y155020D01*
X186294D01*
X185760Y155553D01*
X183094Y155020D02*
Y158220D01*
X184694Y156620D01*
X182561D01*
X181494Y157686D02*
X180961Y158220D01*
X179894D01*
X179361Y157686D01*
Y157153D01*
X179894Y156620D01*
X179361Y156086D01*
Y155553D01*
X179894Y155020D01*
X180961D01*
X181494Y155553D01*
Y156086D01*
X180961Y156620D01*
X181494Y157153D01*
Y157686D01*
X180961Y156620D02*
X179894D01*
X409706Y158734D02*
X410240Y159267D01*
X411306D01*
X411839Y158734D01*
Y156601D01*
X411306Y156068D01*
X410240D01*
X409706Y156601D01*
X407040Y156068D02*
Y159267D01*
X408640Y157668D01*
X406506D01*
X405440Y158734D02*
X404907Y159267D01*
X403840D01*
X403307Y158734D01*
Y158201D01*
X403840Y157668D01*
X403307Y157134D01*
Y156601D01*
X403840Y156068D01*
X404907D01*
X405440Y156601D01*
Y157134D01*
X404907Y157668D01*
X405440Y158201D01*
Y158734D01*
X404907Y157668D02*
X403840D01*
X258867Y159367D02*
X259400Y159900D01*
X260467D01*
X261000Y159367D01*
Y157233D01*
X260467Y156700D01*
X259400D01*
X258867Y157233D01*
X256200Y156700D02*
Y159900D01*
X257800Y158300D01*
X255667D01*
X254601Y159367D02*
X254067Y159900D01*
X253001D01*
X252467Y159367D01*
Y158833D01*
X253001Y158300D01*
X252467Y157767D01*
Y157233D01*
X253001Y156700D01*
X254067D01*
X254601Y157233D01*
Y157767D01*
X254067Y158300D01*
X254601Y158833D01*
Y159367D01*
X254067Y158300D02*
X253001D01*
X332611Y350993D02*
X333144Y351526D01*
X334211D01*
X334744Y350993D01*
Y348860D01*
X334211Y348327D01*
X333144D01*
X332611Y348860D01*
X329944Y348327D02*
Y351526D01*
X331544Y349927D01*
X329411D01*
X326211Y348327D02*
X328345D01*
X326211Y350460D01*
Y350993D01*
X326745Y351526D01*
X327811D01*
X328345Y350993D01*
X267257Y261426D02*
X267790Y261960D01*
X268857D01*
X269390Y261426D01*
Y259293D01*
X268857Y258760D01*
X267790D01*
X267257Y259293D01*
X264590Y258760D02*
Y261960D01*
X266190Y260360D01*
X264057D01*
X262990Y258760D02*
X261924D01*
X262457D01*
Y261960D01*
X262990Y261426D01*
X274442Y275796D02*
X274975Y276330D01*
X276042D01*
X276575Y275796D01*
Y273663D01*
X276042Y273130D01*
X274975D01*
X274442Y273663D01*
X271775Y273130D02*
Y276330D01*
X273375Y274730D01*
X271242D01*
X270175Y275796D02*
X269642Y276330D01*
X268575D01*
X268042Y275796D01*
Y273663D01*
X268575Y273130D01*
X269642D01*
X270175Y273663D01*
Y275796D01*
X277394Y256210D02*
X277928Y256743D01*
X278994D01*
X279528Y256210D01*
Y254077D01*
X278994Y253543D01*
X277928D01*
X277394Y254077D01*
X276328Y256210D02*
X275795Y256743D01*
X274728D01*
X274195Y256210D01*
Y255677D01*
X274728Y255143D01*
X275261D01*
X274728D01*
X274195Y254610D01*
Y254077D01*
X274728Y253543D01*
X275795D01*
X276328Y254077D01*
X273128D02*
X272595Y253543D01*
X271528D01*
X270995Y254077D01*
Y256210D01*
X271528Y256743D01*
X272595D01*
X273128Y256210D01*
Y255677D01*
X272595Y255143D01*
X270995D01*
X277394Y260442D02*
X277928Y260975D01*
X278994D01*
X279528Y260442D01*
Y258309D01*
X278994Y257776D01*
X277928D01*
X277394Y258309D01*
X276328Y260442D02*
X275795Y260975D01*
X274728D01*
X274195Y260442D01*
Y259909D01*
X274728Y259376D01*
X275261D01*
X274728D01*
X274195Y258842D01*
Y258309D01*
X274728Y257776D01*
X275795D01*
X276328Y258309D01*
X273128Y260442D02*
X272595Y260975D01*
X271528D01*
X270995Y260442D01*
Y259909D01*
X271528Y259376D01*
X270995Y258842D01*
Y258309D01*
X271528Y257776D01*
X272595D01*
X273128Y258309D01*
Y258842D01*
X272595Y259376D01*
X273128Y259909D01*
Y260442D01*
X272595Y259376D02*
X271528D01*
X436056Y281702D02*
X436589Y282235D01*
X437656D01*
X438189Y281702D01*
Y279569D01*
X437656Y279035D01*
X436589D01*
X436056Y279569D01*
X432856Y279035D02*
X434989D01*
X432856Y281169D01*
Y281702D01*
X433389Y282235D01*
X434456D01*
X434989Y281702D01*
X431789Y279035D02*
X430723D01*
X431256D01*
Y282235D01*
X431789Y281702D01*
X471095Y281997D02*
X471629Y282530D01*
X472695D01*
X473228Y281997D01*
Y279864D01*
X472695Y279331D01*
X471629D01*
X471095Y279864D01*
X467895Y279331D02*
X470029D01*
X467895Y281464D01*
Y281997D01*
X468429Y282530D01*
X469495D01*
X470029Y281997D01*
X466829D02*
X466295Y282530D01*
X465229D01*
X464696Y281997D01*
Y279864D01*
X465229Y279331D01*
X466295D01*
X466829Y279864D01*
Y281997D01*
X333300Y306111D02*
X333833Y306645D01*
X334900D01*
X335433Y306111D01*
Y303978D01*
X334900Y303445D01*
X333833D01*
X333300Y303978D01*
X332233Y303445D02*
X331167D01*
X331700D01*
Y306645D01*
X332233Y306111D01*
X329567Y303978D02*
X329034Y303445D01*
X327967D01*
X327434Y303978D01*
Y306111D01*
X327967Y306645D01*
X329034D01*
X329567Y306111D01*
Y305578D01*
X329034Y305045D01*
X327434D01*
X277099Y307194D02*
X277632Y307727D01*
X278699D01*
X279232Y307194D01*
Y305061D01*
X278699Y304528D01*
X277632D01*
X277099Y305061D01*
X276032Y304528D02*
X274966D01*
X275499D01*
Y307727D01*
X276032Y307194D01*
X273366D02*
X272833Y307727D01*
X271766D01*
X271233Y307194D01*
Y306661D01*
X271766Y306127D01*
X271233Y305594D01*
Y305061D01*
X271766Y304528D01*
X272833D01*
X273366Y305061D01*
Y305594D01*
X272833Y306127D01*
X273366Y306661D01*
Y307194D01*
X272833Y306127D02*
X271766D01*
X271883Y300600D02*
X272416Y301133D01*
X273482D01*
X274016Y300600D01*
Y298466D01*
X273482Y297933D01*
X272416D01*
X271883Y298466D01*
X270816Y297933D02*
X269749D01*
X270283D01*
Y301133D01*
X270816Y300600D01*
X266016Y301133D02*
X267083Y300600D01*
X268149Y299533D01*
Y298466D01*
X267616Y297933D01*
X266550D01*
X266016Y298466D01*
Y299000D01*
X266550Y299533D01*
X268149D01*
X314894Y299911D02*
X315428Y300444D01*
X316494D01*
X317028Y299911D01*
Y297777D01*
X316494Y297244D01*
X315428D01*
X314894Y297777D01*
X313828Y297244D02*
X312761D01*
X313295D01*
Y300444D01*
X313828Y299911D01*
X309028Y300444D02*
X311161D01*
Y298844D01*
X310095Y299377D01*
X309561D01*
X309028Y298844D01*
Y297777D01*
X309561Y297244D01*
X310628D01*
X311161Y297777D01*
X315387Y294694D02*
X315920Y295227D01*
X316986D01*
X317520Y294694D01*
Y292561D01*
X316986Y292028D01*
X315920D01*
X315387Y292561D01*
X314320Y292028D02*
X313253D01*
X313787D01*
Y295227D01*
X314320Y294694D01*
X310054Y292028D02*
Y295227D01*
X311653Y293627D01*
X309520D01*
X281430Y300600D02*
X281963Y301133D01*
X283030D01*
X283563Y300600D01*
Y298466D01*
X283030Y297933D01*
X281963D01*
X281430Y298466D01*
X280363Y297933D02*
X279297D01*
X279830D01*
Y301133D01*
X280363Y300600D01*
X275564Y297933D02*
X277697D01*
X275564Y300066D01*
Y300600D01*
X276097Y301133D01*
X277164D01*
X277697Y300600D01*
X304461Y335836D02*
X304995Y336369D01*
X306061D01*
X306594Y335836D01*
Y333703D01*
X306061Y333169D01*
X304995D01*
X304461Y333703D01*
X303395Y333169D02*
X302328D01*
X302861D01*
Y336369D01*
X303395Y335836D01*
X300728Y333169D02*
X299662D01*
X300195D01*
Y336369D01*
X300728Y335836D01*
X303379Y331308D02*
X303912Y331841D01*
X304978D01*
X305512Y331308D01*
Y329175D01*
X304978Y328642D01*
X303912D01*
X303379Y329175D01*
X302312Y331308D02*
X301779Y331841D01*
X300712D01*
X300179Y331308D01*
Y330775D01*
X300712Y330242D01*
X300179Y329708D01*
Y329175D01*
X300712Y328642D01*
X301779D01*
X302312Y329175D01*
Y329708D01*
X301779Y330242D01*
X302312Y330775D01*
Y331308D01*
X301779Y330242D02*
X300712D01*
X309875Y328552D02*
X310408Y329086D01*
X311475D01*
X312008Y328552D01*
Y326419D01*
X311475Y325886D01*
X310408D01*
X309875Y326419D01*
X308808Y329086D02*
X306675D01*
Y328552D01*
X308808Y326419D01*
Y325886D01*
X187040Y280816D02*
X187573Y281349D01*
X188640D01*
X189173Y280816D01*
Y278683D01*
X188640Y278150D01*
X187573D01*
X187040Y278683D01*
X183840Y281349D02*
X184907Y280816D01*
X185974Y279749D01*
Y278683D01*
X185440Y278150D01*
X184374D01*
X183840Y278683D01*
Y279216D01*
X184374Y279749D01*
X185974D01*
X194520Y280816D02*
X195054Y281349D01*
X196120D01*
X196653Y280816D01*
Y278683D01*
X196120Y278150D01*
X195054D01*
X194520Y278683D01*
X191321Y281349D02*
X193454D01*
Y279749D01*
X192387Y280283D01*
X191854D01*
X191321Y279749D01*
Y278683D01*
X191854Y278150D01*
X192920D01*
X193454Y278683D01*
X246686Y387607D02*
X247219Y388141D01*
X248286D01*
X248819Y387607D01*
Y385474D01*
X248286Y384941D01*
X247219D01*
X246686Y385474D01*
X245619Y387607D02*
X245086Y388141D01*
X244019D01*
X243486Y387607D01*
Y387074D01*
X244019Y386541D01*
X244553D01*
X244019D01*
X243486Y386007D01*
Y385474D01*
X244019Y384941D01*
X245086D01*
X245619Y385474D01*
M02*
