G04*
G04 #@! TF.GenerationSoftware,Altium Limited,Altium Designer,18.0.7 (293)*
G04*
G04 Layer_Physical_Order=2*
G04 Layer_Color=16711680*
%FSLAX25Y25*%
%MOIN*%
G70*
G01*
G75*
%ADD10C,0.01000*%
%ADD11C,0.00394*%
%ADD13C,0.00787*%
%ADD15C,0.00500*%
%ADD83R,0.00984X0.00984*%
%ADD84R,0.04724X0.05512*%
%ADD86R,0.00984X0.00984*%
%ADD90R,0.04902X0.10000*%
%ADD91R,0.02362X0.07480*%
%ADD92R,0.03937X0.12205*%
%ADD94R,0.05512X0.04724*%
%ADD95R,0.05512X0.05512*%
%ADD112R,0.08500X0.06500*%
%ADD123C,0.01181*%
%ADD124C,0.00350*%
%ADD126C,0.03500*%
%ADD127C,0.00984*%
%ADD128C,0.01500*%
%ADD135C,0.01772*%
%ADD136C,0.00591*%
%ADD137C,0.01575*%
%ADD140C,0.01968*%
%ADD148C,0.07874*%
%ADD149R,0.07874X0.07874*%
%ADD150C,0.05906*%
%ADD151R,0.07874X0.07874*%
%ADD152R,0.07874X0.05906*%
%ADD153O,0.07874X0.05906*%
%ADD154R,0.05906X0.07874*%
%ADD155O,0.05906X0.07874*%
%ADD156O,0.03543X0.07087*%
%ADD157O,0.04528X0.06142*%
%ADD158R,0.04528X0.06142*%
%ADD159O,0.11811X0.13780*%
%ADD160C,0.01968*%
%ADD161C,0.01772*%
%ADD162C,0.01800*%
%ADD163C,0.03543*%
%ADD164C,0.06299*%
%ADD165C,0.04000*%
%ADD166C,0.01087*%
%ADD167C,0.13780*%
%ADD168R,0.01000X0.03543*%
G04:AMPARAMS|DCode=169|XSize=38.27mil|YSize=31.58mil|CornerRadius=7.89mil|HoleSize=0mil|Usage=FLASHONLY|Rotation=0.000|XOffset=0mil|YOffset=0mil|HoleType=Round|Shape=RoundedRectangle|*
%AMROUNDEDRECTD169*
21,1,0.03827,0.01579,0,0,0.0*
21,1,0.02248,0.03158,0,0,0.0*
1,1,0.01579,0.01124,-0.00789*
1,1,0.01579,-0.01124,-0.00789*
1,1,0.01579,-0.01124,0.00789*
1,1,0.01579,0.01124,0.00789*
%
%ADD169ROUNDEDRECTD169*%
%ADD170R,0.03827X0.03158*%
%ADD171R,0.05512X0.05512*%
%ADD172R,0.07480X0.02362*%
%ADD173R,0.12205X0.03937*%
%ADD174R,0.02362X0.06102*%
%ADD175O,0.02362X0.06102*%
%ADD176R,0.04724X0.03740*%
%ADD177R,0.03543X0.01000*%
%ADD178R,0.12205X0.12205*%
%ADD179C,0.02953*%
G36*
X481037Y412583D02*
X482467Y412395D01*
X483861Y412021D01*
X485194Y411469D01*
X486444Y410747D01*
X487589Y409869D01*
X488609Y408849D01*
X489488Y407704D01*
X490209Y406454D01*
X490761Y405121D01*
X491135Y403727D01*
X491323Y402296D01*
Y401575D01*
X491323Y104248D01*
X357201D01*
Y119980D01*
X357139Y120288D01*
X356965Y120548D01*
X356705Y120722D01*
X356398Y120783D01*
X294783D01*
X294476Y120722D01*
X294216Y120548D01*
X294042Y120288D01*
X293981Y119980D01*
Y118602D01*
X293981Y104248D01*
X99228D01*
Y401575D01*
Y401575D01*
D01*
X99228Y402296D01*
X99416Y403727D01*
X99790Y405121D01*
X100342Y406454D01*
X101064Y407704D01*
X101942Y408849D01*
X102962Y409869D01*
X104107Y410747D01*
X105357Y411469D01*
X106690Y412021D01*
X108084Y412395D01*
X109515Y412583D01*
X133858D01*
Y385827D01*
X135926D01*
X135965Y385801D01*
X136273Y385740D01*
X207185D01*
X207492Y385801D01*
X207531Y385827D01*
X208661D01*
Y412583D01*
X480315D01*
X481037Y412583D01*
D02*
G37*
G36*
X356398Y103445D02*
X491323D01*
X491323Y51181D01*
X491323Y51181D01*
X491323Y51181D01*
X491323Y50459D01*
X491135Y49029D01*
X490761Y47635D01*
X490209Y46302D01*
X489488Y45052D01*
X488609Y43907D01*
X487589Y42887D01*
X486444Y42008D01*
X485194Y41287D01*
X483861Y40735D01*
X482467Y40361D01*
X481037Y40173D01*
X109515D01*
X108084Y40361D01*
X106690Y40735D01*
X105357Y41287D01*
X104107Y42008D01*
X102962Y42887D01*
X101942Y43907D01*
X101064Y45052D01*
X100342Y46302D01*
X99790Y47635D01*
X99416Y49029D01*
X99228Y50460D01*
Y51181D01*
Y103445D01*
X294783D01*
X294783Y118602D01*
Y119980D01*
X356398D01*
Y103445D01*
D02*
G37*
%LPC*%
G36*
X439238Y403275D02*
X431012D01*
X430691Y403211D01*
X430628Y403199D01*
X430302Y402981D01*
X428129Y400808D01*
X427911Y400483D01*
X427835Y400098D01*
Y398228D01*
X426673D01*
Y397089D01*
X423938Y399824D01*
X423612Y400041D01*
X423228Y400118D01*
X392618D01*
X392234Y400041D01*
X391909Y399824D01*
X391289Y399205D01*
X390473Y400021D01*
X390148Y400238D01*
X389764Y400315D01*
X376204D01*
X376171Y400337D01*
X375787Y400413D01*
X355413D01*
X355093Y400349D01*
X355029Y400337D01*
X354704Y400119D01*
X354183Y399598D01*
X353466Y400316D01*
X353140Y400533D01*
X352756Y400610D01*
X317421D01*
X317037Y400533D01*
X316712Y400316D01*
X315432Y399036D01*
X315215Y398711D01*
X315138Y398327D01*
Y398228D01*
X314173D01*
Y389173D01*
X318110D01*
Y398228D01*
X317462D01*
X317837Y398603D01*
X320707D01*
X320353Y398249D01*
X320340Y398228D01*
X319094D01*
Y389173D01*
X319758D01*
Y386417D01*
X319841Y386001D01*
X319858Y385918D01*
X320141Y385495D01*
X324365Y381271D01*
Y380728D01*
X324250Y380651D01*
X323815Y380000D01*
X323662Y379232D01*
Y375492D01*
X323776Y374919D01*
X322676Y376019D01*
Y379232D01*
X322524Y380000D01*
X322089Y380651D01*
X321437Y381087D01*
X320669Y381239D01*
X319901Y381087D01*
X319250Y380651D01*
X318815Y380000D01*
X318662Y379232D01*
Y375492D01*
X318815Y374724D01*
X319250Y374073D01*
X319901Y373638D01*
X320669Y373485D01*
X321379Y373626D01*
X323782Y371223D01*
X324205Y370940D01*
X324705Y370841D01*
X326673D01*
X327090Y370924D01*
X327172Y370940D01*
X327596Y371223D01*
X328974Y372601D01*
X329257Y373024D01*
X329356Y373524D01*
Y374002D01*
X329901Y373638D01*
X330669Y373485D01*
X331437Y373638D01*
X332088Y374073D01*
X332269Y374343D01*
X335433Y371179D01*
Y367224D01*
X342520D01*
Y373524D01*
X335927D01*
X332676Y376774D01*
Y379232D01*
X332524Y380000D01*
X332088Y380651D01*
X331437Y381087D01*
X330669Y381239D01*
X329901Y381087D01*
X329356Y380722D01*
Y383563D01*
X329273Y383979D01*
X329257Y384062D01*
X328974Y384486D01*
X327486Y385973D01*
Y387237D01*
X329212Y385511D01*
X329537Y385293D01*
X329921Y385217D01*
X358858D01*
X359242Y385293D01*
X359568Y385511D01*
X362759Y388703D01*
Y388107D01*
X362836Y387723D01*
X363053Y387398D01*
X364251Y386200D01*
X364469Y386054D01*
X364577Y385982D01*
X364961Y385906D01*
X397244D01*
X397537Y385964D01*
X390432Y378859D01*
X390215Y378534D01*
X390138Y378150D01*
Y375197D01*
X387598D01*
Y368110D01*
X394415D01*
X392275Y365970D01*
X388532D01*
X382997Y371505D01*
Y374016D01*
X382898Y374515D01*
X382615Y374938D01*
X375824Y381730D01*
X375401Y382012D01*
X375318Y382029D01*
X374902Y382112D01*
X342201D01*
X341795Y382383D01*
X341142Y382513D01*
X340489Y382383D01*
X339935Y382013D01*
X339566Y381460D01*
X339436Y380807D01*
X339566Y380154D01*
X339935Y379601D01*
X340489Y379231D01*
X341142Y379101D01*
X341795Y379231D01*
X342201Y379503D01*
X374361D01*
X380388Y373475D01*
Y370965D01*
X380471Y370548D01*
X380488Y370465D01*
X380770Y370042D01*
X387070Y363743D01*
X387493Y363460D01*
X387576Y363444D01*
X387992Y363361D01*
X392815D01*
X393231Y363444D01*
X393314Y363460D01*
X393737Y363743D01*
X398105Y368110D01*
X403346D01*
Y370349D01*
X409373D01*
X409485Y370274D01*
X410138Y370144D01*
X410791Y370274D01*
X411344Y370644D01*
X411714Y371198D01*
X411844Y371850D01*
X411714Y372503D01*
X411344Y373057D01*
X410791Y373427D01*
X410138Y373556D01*
X409485Y373427D01*
X408931Y373057D01*
X408866Y372958D01*
X403346D01*
Y375197D01*
X401108D01*
Y378790D01*
X402634Y380317D01*
X403114Y380412D01*
X403667Y380782D01*
X404037Y381335D01*
X404167Y381988D01*
X404037Y382641D01*
X403667Y383194D01*
X403114Y383564D01*
X402461Y383694D01*
X401808Y383564D01*
X401254Y383194D01*
X400884Y382641D01*
X400789Y382162D01*
X398881Y380253D01*
X398598Y379830D01*
X398581Y379747D01*
X398499Y379331D01*
Y375197D01*
X396260D01*
Y369955D01*
X394685Y368380D01*
Y375197D01*
X392145D01*
Y377734D01*
X399431Y385020D01*
X432420D01*
X432184Y384666D01*
X432054Y384013D01*
X432184Y383360D01*
X432199Y383337D01*
X430390Y381527D01*
Y382658D01*
X423913D01*
Y371083D01*
X430390D01*
Y378689D01*
X434069Y382368D01*
X434413Y382437D01*
X434966Y382806D01*
X435336Y383360D01*
X435466Y384013D01*
X435336Y384666D01*
X435099Y385020D01*
X438681D01*
X439065Y385097D01*
X439391Y385314D01*
X441654Y387578D01*
X441872Y387903D01*
X441948Y388287D01*
Y400565D01*
X441872Y400949D01*
X441800Y401057D01*
X441654Y401275D01*
X439948Y402981D01*
X439622Y403199D01*
X439238Y403275D01*
D02*
G37*
G36*
X281594Y395571D02*
X274508D01*
Y388509D01*
X270941D01*
X270535Y388781D01*
X269882Y388911D01*
X269229Y388781D01*
X268676Y388411D01*
X268306Y387858D01*
X268176Y387205D01*
X268306Y386552D01*
X268676Y385998D01*
X269229Y385629D01*
X269882Y385499D01*
X270535Y385629D01*
X270941Y385900D01*
X277665D01*
X277731Y385802D01*
X278284Y385432D01*
X278937Y385302D01*
X279590Y385432D01*
X280143Y385802D01*
X280513Y386355D01*
X280643Y387008D01*
X280513Y387661D01*
X280143Y388214D01*
X280141Y388216D01*
Y388484D01*
X281594D01*
Y395571D01*
D02*
G37*
G36*
X290256D02*
X283169D01*
Y388484D01*
X290256D01*
Y395571D01*
D02*
G37*
G36*
X237848Y387336D02*
X237196Y387206D01*
X236713Y386883D01*
X236230Y387206D01*
X235577Y387336D01*
X234924Y387206D01*
X234370Y386836D01*
X234001Y386283D01*
X233871Y385630D01*
X234001Y384977D01*
X234370Y384424D01*
X234572Y384289D01*
Y381555D01*
X234343D01*
Y376437D01*
X242238D01*
X243268Y375408D01*
Y373417D01*
Y371449D01*
Y369480D01*
Y367512D01*
Y365543D01*
Y363575D01*
Y361606D01*
X248386D01*
Y363575D01*
Y365543D01*
Y367512D01*
Y369480D01*
Y371432D01*
X251527D01*
X253937Y369021D01*
Y365846D01*
X261024D01*
Y372146D01*
X254502D01*
X252989Y373659D01*
X252566Y373941D01*
X252483Y373958D01*
X252067Y374041D01*
X248386D01*
Y375992D01*
X246396D01*
X244704Y377683D01*
X247795D01*
X248298Y377783D01*
X248723Y378068D01*
X252116Y381461D01*
X254345Y379232D01*
X253937D01*
Y372933D01*
X261024D01*
Y379232D01*
X258057D01*
X254193Y383096D01*
X254332Y383304D01*
X254462Y383957D01*
X254332Y384610D01*
X253962Y385163D01*
X253409Y385533D01*
X252756Y385663D01*
X252103Y385533D01*
X251550Y385163D01*
X251180Y384610D01*
X251087Y384144D01*
X247252Y380309D01*
X242823D01*
Y381555D01*
X240848D01*
X241872Y382579D01*
X243012D01*
Y385138D01*
X240453D01*
Y383998D01*
X238857Y382402D01*
X238656Y382101D01*
Y384157D01*
X239055Y384424D01*
X239425Y384977D01*
X239554Y385630D01*
X239425Y386283D01*
X239055Y386836D01*
X238501Y387206D01*
X237848Y387336D01*
D02*
G37*
G36*
X452067Y391765D02*
X451414Y391635D01*
X450861Y391265D01*
X450491Y390712D01*
X450361Y390059D01*
X450491Y389406D01*
X450861Y388853D01*
X451063Y388717D01*
Y385498D01*
X450986Y385889D01*
X450616Y386442D01*
X450062Y386812D01*
X449409Y386942D01*
X448757Y386812D01*
X448350Y386541D01*
X443012D01*
X442513Y386441D01*
X442089Y386159D01*
X436381Y380450D01*
X436098Y380027D01*
X436081Y379944D01*
X435999Y379528D01*
Y377339D01*
X435727Y376932D01*
X435597Y376279D01*
X435727Y375627D01*
X436097Y375073D01*
X436650Y374703D01*
X437303Y374573D01*
X437956Y374703D01*
X438510Y375073D01*
X438879Y375627D01*
X439009Y376279D01*
X438879Y376932D01*
X438608Y377339D01*
Y378987D01*
X443552Y383932D01*
X448350D01*
X448757Y383660D01*
X449409Y383530D01*
X450062Y383660D01*
X450616Y384030D01*
X450986Y384583D01*
X451109Y385204D01*
X451140Y385049D01*
X451260Y384869D01*
Y382095D01*
X450693Y381527D01*
Y382658D01*
X444216D01*
Y371083D01*
X450693D01*
Y378689D01*
X452973Y380970D01*
X453191Y381295D01*
X453204Y381359D01*
X453267Y381679D01*
Y385236D01*
X453191Y385620D01*
X453070Y385801D01*
Y388717D01*
X453273Y388853D01*
X453643Y389406D01*
X453773Y390059D01*
X453643Y390712D01*
X453273Y391265D01*
X452720Y391635D01*
X452067Y391765D01*
D02*
G37*
G36*
X110039Y386437D02*
X100591D01*
Y378957D01*
X110039D01*
Y386437D01*
D02*
G37*
G36*
X232980Y381555D02*
X228437D01*
Y376437D01*
X232980D01*
Y381555D01*
D02*
G37*
G36*
X309449Y376017D02*
X308796Y375887D01*
X308390Y375616D01*
X295941D01*
X295535Y375887D01*
X294882Y376017D01*
X294229Y375887D01*
X293676Y375517D01*
X293306Y374964D01*
X293176Y374311D01*
X293306Y373658D01*
X293676Y373105D01*
X294229Y372735D01*
X294882Y372605D01*
X295535Y372735D01*
X295941Y373006D01*
X308390D01*
X308796Y372735D01*
X309449Y372605D01*
X310102Y372735D01*
X310655Y373105D01*
X311025Y373658D01*
X311155Y374311D01*
X311025Y374964D01*
X310655Y375517D01*
X310102Y375887D01*
X309449Y376017D01*
D02*
G37*
G36*
X315669Y381239D02*
X314901Y381087D01*
X314250Y380651D01*
X313815Y380000D01*
X313662Y379232D01*
Y375492D01*
X313815Y374724D01*
X314250Y374073D01*
X314901Y373638D01*
X315669Y373485D01*
X316437Y373638D01*
X317089Y374073D01*
X317524Y374724D01*
X317676Y375492D01*
Y379232D01*
X317524Y380000D01*
X317089Y380651D01*
X316437Y381087D01*
X315669Y381239D01*
D02*
G37*
G36*
X484350Y381988D02*
X474902D01*
Y378267D01*
X467815D01*
X467431Y378191D01*
X467105Y377973D01*
X444368Y355236D01*
X436480D01*
X436344Y355439D01*
X435791Y355808D01*
X435138Y355938D01*
X434485Y355808D01*
X433931Y355439D01*
X433562Y354885D01*
X433432Y354232D01*
X433562Y353579D01*
X433931Y353026D01*
X434485Y352656D01*
X435138Y352526D01*
X435791Y352656D01*
X436344Y353026D01*
X436480Y353229D01*
X444783D01*
X445167Y353305D01*
X445493Y353523D01*
X468231Y376260D01*
X474902D01*
Y372539D01*
X484350D01*
Y381988D01*
D02*
G37*
G36*
X221358Y378379D02*
X220705Y378249D01*
X220152Y377880D01*
X219782Y377326D01*
X219652Y376673D01*
X219782Y376020D01*
X220152Y375467D01*
X220705Y375097D01*
X221358Y374967D01*
X222011Y375097D01*
X222565Y375467D01*
X222700Y375670D01*
X222874D01*
Y373417D01*
Y371771D01*
X218744D01*
X218713Y371931D01*
X218343Y372484D01*
X217789Y372854D01*
X217137Y372984D01*
X216484Y372854D01*
X215930Y372484D01*
X215560Y371931D01*
X215431Y371278D01*
X215474Y371061D01*
X214997Y370966D01*
X214443Y370596D01*
X214073Y370043D01*
X213944Y369390D01*
X214073Y368737D01*
X214443Y368183D01*
X214997Y367814D01*
X215650Y367684D01*
X216226Y367798D01*
X216240Y367796D01*
X222874D01*
Y367783D01*
X222746Y367758D01*
X222638Y367686D01*
X222420Y367540D01*
X220846Y365966D01*
X220628Y365640D01*
X220552Y365256D01*
Y357677D01*
X220628Y357293D01*
X220846Y356968D01*
X225275Y352538D01*
X225600Y352321D01*
X225984Y352244D01*
X237766D01*
X237967Y351943D01*
X238520Y351573D01*
X239173Y351444D01*
X239826Y351573D01*
X240380Y351943D01*
X240749Y352497D01*
X240879Y353150D01*
X240749Y353802D01*
X240380Y354356D01*
X239826Y354726D01*
X239173Y354856D01*
X238520Y354726D01*
X237967Y354356D01*
X237897Y354252D01*
X226400D01*
X222559Y358093D01*
Y364840D01*
X222874Y365156D01*
Y363575D01*
Y361606D01*
X227992D01*
Y363575D01*
Y365543D01*
Y367512D01*
Y369480D01*
Y371449D01*
Y373417D01*
Y375992D01*
X225565D01*
X224174Y377383D01*
X223849Y377600D01*
X223465Y377677D01*
X222700D01*
X222565Y377880D01*
X222011Y378249D01*
X221358Y378379D01*
D02*
G37*
G36*
X106299Y376469D02*
X104331D01*
X103354Y376341D01*
X102445Y375964D01*
X101663Y375364D01*
X101064Y374583D01*
X100687Y373673D01*
X100558Y372697D01*
X100687Y371721D01*
X101064Y370811D01*
X101663Y370029D01*
X102445Y369430D01*
X103354Y369053D01*
X104331Y368924D01*
X106299D01*
X107276Y369053D01*
X108185Y369430D01*
X108967Y370029D01*
X109566Y370811D01*
X109943Y371721D01*
X110072Y372697D01*
X109943Y373673D01*
X109566Y374583D01*
X108967Y375364D01*
X108185Y375964D01*
X107276Y376341D01*
X106299Y376469D01*
D02*
G37*
G36*
X361575Y377383D02*
X360342Y377221D01*
X359192Y376745D01*
X358205Y375988D01*
X357448Y375001D01*
X356972Y373851D01*
X356810Y372618D01*
X356972Y371385D01*
X357448Y370235D01*
X358205Y369249D01*
X359192Y368491D01*
X360342Y368015D01*
X361575Y367853D01*
X362808Y368015D01*
X363957Y368491D01*
X364944Y369249D01*
X365702Y370235D01*
X366178Y371385D01*
X366340Y372618D01*
X366178Y373851D01*
X365702Y375001D01*
X364944Y375988D01*
X363957Y376745D01*
X362808Y377221D01*
X361575Y377383D01*
D02*
G37*
G36*
X351732D02*
X350499Y377221D01*
X349350Y376745D01*
X348363Y375988D01*
X347605Y375001D01*
X347130Y373851D01*
X346967Y372618D01*
X347130Y371385D01*
X347605Y370235D01*
X348363Y369249D01*
X349350Y368491D01*
X350499Y368015D01*
X351732Y367853D01*
X352966Y368015D01*
X354115Y368491D01*
X355102Y369249D01*
X355859Y370235D01*
X356335Y371385D01*
X356497Y372618D01*
X356335Y373851D01*
X355859Y375001D01*
X355102Y375988D01*
X354115Y376745D01*
X352966Y377221D01*
X351732Y377383D01*
D02*
G37*
G36*
X479626Y372186D02*
X478393Y372024D01*
X477243Y371548D01*
X476257Y370791D01*
X475499Y369804D01*
X475053Y368726D01*
X472539D01*
X472123Y368643D01*
X472040Y368626D01*
X471617Y368344D01*
X463903Y360630D01*
X458661D01*
Y353543D01*
X465748D01*
Y358785D01*
X473080Y366117D01*
X475053D01*
X475499Y365039D01*
X476257Y364052D01*
X477243Y363295D01*
X478393Y362818D01*
X479626Y362656D01*
X480859Y362818D01*
X482009Y363295D01*
X482996Y364052D01*
X483753Y365039D01*
X484229Y366188D01*
X484391Y367421D01*
X484229Y368655D01*
X483753Y369804D01*
X482996Y370791D01*
X482009Y371548D01*
X480859Y372024D01*
X479626Y372186D01*
D02*
G37*
G36*
X242520Y375689D02*
X228740D01*
Y361910D01*
X242520D01*
Y375689D01*
D02*
G37*
G36*
X106299Y366469D02*
X104331D01*
X103354Y366341D01*
X102445Y365964D01*
X101663Y365364D01*
X101064Y364583D01*
X100687Y363673D01*
X100558Y362697D01*
X100687Y361720D01*
X101064Y360811D01*
X101663Y360029D01*
X102445Y359430D01*
X103354Y359053D01*
X104331Y358924D01*
X106299D01*
X107276Y359053D01*
X108185Y359430D01*
X108967Y360029D01*
X109566Y360811D01*
X109943Y361720D01*
X110072Y362697D01*
X109943Y363673D01*
X109566Y364583D01*
X108967Y365364D01*
X108185Y365964D01*
X107276Y366341D01*
X106299Y366469D01*
D02*
G37*
G36*
X351732Y367383D02*
X350499Y367221D01*
X349350Y366745D01*
X348363Y365988D01*
X347605Y365001D01*
X347130Y363851D01*
X346967Y362618D01*
X347130Y361385D01*
X347605Y360236D01*
X348363Y359249D01*
X349350Y358491D01*
X350499Y358015D01*
X351732Y357853D01*
X352966Y358015D01*
X354115Y358491D01*
X355102Y359249D01*
X355859Y360236D01*
X356335Y361385D01*
X356497Y362618D01*
X356335Y363851D01*
X355859Y365001D01*
X355102Y365988D01*
X354115Y366745D01*
X352966Y367221D01*
X351732Y367383D01*
D02*
G37*
G36*
X361614Y367364D02*
X360381Y367201D01*
X359232Y366725D01*
X358245Y365968D01*
X357487Y364981D01*
X357011Y363832D01*
X356849Y362598D01*
X357011Y361365D01*
X357487Y360216D01*
X357628Y360032D01*
X350570Y352973D01*
X350352Y352648D01*
X350276Y352264D01*
Y346716D01*
X350073Y346580D01*
X349703Y346027D01*
X349573Y345374D01*
X349703Y344721D01*
X350073Y344168D01*
X350627Y343798D01*
X351279Y343668D01*
X351932Y343798D01*
X352486Y344168D01*
X352856Y344721D01*
X352986Y345374D01*
X352856Y346027D01*
X352486Y346580D01*
X352283Y346716D01*
Y351848D01*
X359048Y358613D01*
X359232Y358472D01*
X360381Y357996D01*
X361614Y357833D01*
X362847Y357996D01*
X363997Y358472D01*
X364984Y359229D01*
X365741Y360216D01*
X366217Y361365D01*
X366379Y362598D01*
X366217Y363832D01*
X365741Y364981D01*
X364984Y365968D01*
X363997Y366725D01*
X362847Y367201D01*
X361614Y367364D01*
D02*
G37*
G36*
X242823Y361161D02*
X228437D01*
Y356043D01*
X242823D01*
Y361161D01*
D02*
G37*
G36*
X382283Y353281D02*
X381631Y353151D01*
X381077Y352781D01*
X380942Y352578D01*
X372798D01*
X372663Y352781D01*
X372110Y353151D01*
X371457Y353281D01*
X370804Y353151D01*
X370250Y352781D01*
X369881Y352228D01*
X369751Y351575D01*
X369881Y350922D01*
X370250Y350368D01*
X370804Y349999D01*
X371457Y349869D01*
X372110Y349999D01*
X372663Y350368D01*
X372798Y350571D01*
X380942D01*
X381077Y350368D01*
X381631Y349999D01*
X382283Y349869D01*
X382936Y349999D01*
X383490Y350368D01*
X383860Y350922D01*
X383990Y351575D01*
X383860Y352228D01*
X383490Y352781D01*
X382936Y353151D01*
X382283Y353281D01*
D02*
G37*
G36*
X320768Y363123D02*
X320115Y362994D01*
X319561Y362624D01*
X319192Y362070D01*
X319062Y361417D01*
X319192Y360765D01*
X319561Y360211D01*
X319764Y360075D01*
Y359735D01*
X319250Y359392D01*
X318815Y358740D01*
X318662Y357972D01*
Y354232D01*
X318815Y353464D01*
X319250Y352813D01*
X319365Y352736D01*
Y351969D01*
X319415Y351714D01*
X269824D01*
X269401Y352039D01*
X268778Y352296D01*
X268110Y352384D01*
X267442Y352296D01*
X266820Y352039D01*
X266285Y351628D01*
X265875Y351094D01*
X265617Y350471D01*
X265529Y349803D01*
X265617Y349135D01*
X265875Y348513D01*
X266285Y347978D01*
X266820Y347568D01*
X267442Y347310D01*
X268110Y347222D01*
X268778Y347310D01*
X269401Y347568D01*
X269935Y347978D01*
X270184Y348302D01*
X273825D01*
X273818Y348291D01*
X273688Y347638D01*
X273818Y346985D01*
X274187Y346431D01*
X274741Y346062D01*
X275394Y345932D01*
X276047Y346062D01*
X276600Y346431D01*
X276734Y346632D01*
X279760D01*
X279275Y346147D01*
X279035Y346194D01*
X278383Y346064D01*
X277829Y345694D01*
X277459Y345141D01*
X277329Y344488D01*
X277459Y343835D01*
X277829Y343282D01*
X278383Y342912D01*
X279035Y342782D01*
X279688Y342912D01*
X280242Y343282D01*
X280612Y343835D01*
X280741Y344488D01*
X280694Y344727D01*
X280935Y344969D01*
X282920D01*
X279210Y341259D01*
X272146D01*
X271762Y341183D01*
X271436Y340966D01*
X270810Y340339D01*
X270571Y340387D01*
X269918Y340257D01*
X269365Y339887D01*
X268995Y339334D01*
X268865Y338681D01*
X268995Y338028D01*
X269180Y337751D01*
X260651Y346281D01*
X260325Y346498D01*
X259941Y346574D01*
X256693D01*
Y349114D01*
X250784D01*
Y351562D01*
X253655Y354432D01*
X313662D01*
Y354232D01*
X313815Y353464D01*
X314250Y352813D01*
X314901Y352378D01*
X315669Y352225D01*
X316437Y352378D01*
X317089Y352813D01*
X317524Y353464D01*
X317676Y354232D01*
Y357972D01*
X317524Y358740D01*
X317089Y359392D01*
X316437Y359827D01*
X315669Y359980D01*
X314901Y359827D01*
X314250Y359392D01*
X313815Y358740D01*
X313662Y357972D01*
Y356395D01*
X253248D01*
X252872Y356320D01*
X252554Y356107D01*
X249109Y352662D01*
X248897Y352344D01*
X248822Y351969D01*
Y349114D01*
X243307D01*
Y346574D01*
X238287D01*
X237903Y346498D01*
X237578Y346281D01*
X215355Y324058D01*
X214826Y324411D01*
X214173Y324541D01*
X213520Y324411D01*
X212967Y324041D01*
X212597Y323487D01*
X212467Y322835D01*
X212597Y322182D01*
X212967Y321628D01*
X213520Y321258D01*
X214173Y321129D01*
X214826Y321258D01*
X215380Y321628D01*
X215515Y321831D01*
X215551D01*
X215935Y321907D01*
X216261Y322125D01*
X238703Y344567D01*
X243307D01*
Y342028D01*
X248822D01*
Y340945D01*
X243504D01*
Y338405D01*
X233465D01*
X233081Y338329D01*
X232973Y338257D01*
X232755Y338111D01*
X213848Y319204D01*
X201591D01*
X201706Y319783D01*
X201576Y320436D01*
X201206Y320990D01*
X201004Y321125D01*
Y326611D01*
X201206Y326746D01*
X201576Y327300D01*
X201706Y327953D01*
X201576Y328606D01*
X201206Y329159D01*
X200653Y329529D01*
X200000Y329659D01*
X199347Y329529D01*
X198794Y329159D01*
X198424Y328606D01*
X198294Y327953D01*
X198424Y327300D01*
X198794Y326746D01*
X198996Y326611D01*
Y321125D01*
X198794Y320990D01*
X198424Y320436D01*
X198294Y319783D01*
X198409Y319204D01*
X190858D01*
X190848Y319255D01*
X190478Y319809D01*
X189925Y320179D01*
X189272Y320308D01*
X188619Y320179D01*
X188065Y319809D01*
X187696Y319255D01*
X187566Y318602D01*
X187696Y317950D01*
X188065Y317396D01*
X188619Y317026D01*
X189272Y316896D01*
X189925Y317026D01*
X190181Y317197D01*
X214264D01*
X214648Y317274D01*
X214973Y317491D01*
X233880Y336398D01*
X243504D01*
Y333858D01*
X248822D01*
Y321765D01*
X246452Y319395D01*
X246239Y319076D01*
X246164Y318701D01*
Y311494D01*
X245939Y311344D01*
X245569Y310791D01*
X245440Y310138D01*
X245569Y309485D01*
X245939Y308931D01*
X246493Y308562D01*
X246946Y308471D01*
X204326Y265851D01*
X204113Y265533D01*
X204038Y265158D01*
Y206417D01*
X190138Y192517D01*
X161265D01*
X161049Y192840D01*
X160495Y193210D01*
X159843Y193340D01*
X159190Y193210D01*
X158636Y192840D01*
X158266Y192287D01*
X158136Y191634D01*
X158266Y190981D01*
X158636Y190427D01*
X159190Y190058D01*
X159785Y189939D01*
X159711Y189567D01*
X159841Y188914D01*
X160211Y188361D01*
X160765Y187991D01*
X161417Y187861D01*
X162070Y187991D01*
X162119Y188023D01*
X162074Y187795D01*
X162203Y187142D01*
X162573Y186589D01*
X163127Y186219D01*
X163779Y186089D01*
X163861Y186106D01*
X163747Y185531D01*
X163877Y184879D01*
X164246Y184325D01*
X164800Y183955D01*
X165453Y183826D01*
X166106Y183955D01*
X166200Y184018D01*
X166109Y183563D01*
X166239Y182910D01*
X166609Y182357D01*
X167162Y181987D01*
X167815Y181857D01*
X168468Y181987D01*
X168584Y182065D01*
X168471Y181496D01*
X168601Y180843D01*
X168971Y180290D01*
X169196Y180139D01*
Y175591D01*
X169271Y175215D01*
X169483Y174897D01*
X172204Y172177D01*
X170547D01*
X165505Y177218D01*
X164985Y177566D01*
X164883Y177586D01*
X164370Y177688D01*
X164370Y177688D01*
X145879D01*
X145374Y177789D01*
X144721Y177659D01*
X144168Y177289D01*
X143798Y176735D01*
X143668Y176083D01*
X143798Y175430D01*
X144168Y174876D01*
X144721Y174506D01*
X145374Y174377D01*
X145879Y174477D01*
X163705D01*
X168746Y169436D01*
X168746Y169436D01*
X169267Y169087D01*
X169369Y169067D01*
X169882Y168965D01*
X169882Y168965D01*
X195854D01*
X196358Y168865D01*
X197011Y168995D01*
X197565Y169365D01*
X197934Y169918D01*
X198064Y170571D01*
X197946Y171164D01*
X222539D01*
X222915Y171239D01*
X223233Y171451D01*
X227294Y175512D01*
X227559Y175459D01*
X228212Y175589D01*
X228765Y175959D01*
X229135Y176513D01*
X229265Y177165D01*
X229135Y177818D01*
X228765Y178372D01*
X228212Y178742D01*
X227559Y178871D01*
X226906Y178742D01*
X226353Y178372D01*
X225983Y177818D01*
X225853Y177165D01*
X225906Y176900D01*
X222133Y173127D01*
X219396D01*
X225702Y179432D01*
X227088D01*
X227239Y179207D01*
X227792Y178837D01*
X228445Y178707D01*
X229098Y178837D01*
X229651Y179207D01*
X230021Y179761D01*
X230151Y180413D01*
X230021Y181066D01*
X229651Y181620D01*
X229098Y181990D01*
X228445Y182119D01*
X227792Y181990D01*
X227686Y181919D01*
X227701Y181997D01*
X227571Y182650D01*
X227202Y183203D01*
X226648Y183573D01*
X225995Y183703D01*
X225342Y183573D01*
X224789Y183203D01*
X224419Y182650D01*
X224347Y182287D01*
X220665Y178605D01*
X220713Y178847D01*
X220583Y179500D01*
X220213Y180054D01*
X219660Y180423D01*
X219007Y180553D01*
X218677Y180488D01*
X219130Y180791D01*
X219500Y181344D01*
X219630Y181997D01*
X219500Y182650D01*
X219130Y183203D01*
X218826Y183407D01*
X219021Y183538D01*
X219391Y184091D01*
X219521Y184744D01*
X219391Y185397D01*
X219021Y185950D01*
X218468Y186320D01*
X217815Y186450D01*
X217630Y186413D01*
X214424Y189619D01*
Y199247D01*
X233583Y180088D01*
X233530Y179823D01*
X233660Y179170D01*
X234030Y178616D01*
X234583Y178247D01*
X235236Y178117D01*
X235889Y178247D01*
X236442Y178616D01*
X236812Y179170D01*
X236942Y179823D01*
X236812Y180476D01*
X236442Y181029D01*
X235889Y181399D01*
X235236Y181529D01*
X234971Y181476D01*
X215125Y201322D01*
Y260759D01*
X227583Y273217D01*
X269964D01*
X269849Y272638D01*
X269979Y271985D01*
X270276Y271541D01*
Y269882D01*
X272835D01*
Y271541D01*
X273131Y271985D01*
X273261Y272638D01*
X273146Y273217D01*
X280591D01*
X280688Y273198D01*
X286876D01*
X287252Y273273D01*
X287570Y273485D01*
X288588Y274503D01*
X288779Y274790D01*
Y273917D01*
X290926D01*
Y272342D01*
X288779D01*
Y267028D01*
X289848D01*
X289731Y266437D01*
X289861Y265784D01*
X290231Y265231D01*
X290784Y264861D01*
X291437Y264731D01*
X292090Y264861D01*
X292643Y265231D01*
X293013Y265784D01*
X293143Y266437D01*
X293025Y267028D01*
X295079D01*
Y268192D01*
X295093Y268189D01*
X295746Y268319D01*
X296300Y268689D01*
X296669Y269242D01*
X296799Y269895D01*
X296669Y270548D01*
X296300Y271101D01*
X295746Y271471D01*
X295093Y271601D01*
X295079Y271598D01*
Y272342D01*
X292933D01*
Y273917D01*
X295079D01*
Y277549D01*
X296944Y275684D01*
X297262Y275471D01*
X297638Y275397D01*
X302876D01*
X303026Y275172D01*
X303579Y274802D01*
X304232Y274672D01*
X304885Y274802D01*
X305439Y275172D01*
X305808Y275725D01*
X305938Y276378D01*
X305808Y277031D01*
X305439Y277584D01*
X304885Y277954D01*
X304232Y278084D01*
X303579Y277954D01*
X303026Y277584D01*
X302876Y277359D01*
X298044D01*
X294852Y280551D01*
X294982Y280745D01*
X295111Y281398D01*
X294999Y281961D01*
X299448D01*
X299375Y281594D01*
X299512Y280903D01*
X299904Y280317D01*
X300490Y279926D01*
X301181Y279788D01*
X301872Y279926D01*
X302458Y280317D01*
X302507Y280390D01*
X304127D01*
X305086Y279432D01*
X305085Y279429D01*
X305215Y278776D01*
X305585Y278223D01*
X306138Y277853D01*
X306571Y277767D01*
Y272881D01*
X306498Y272832D01*
X306107Y272246D01*
X305969Y271555D01*
X306107Y270864D01*
X306498Y270278D01*
X307084Y269886D01*
X307776Y269749D01*
X308467Y269886D01*
X309053Y270278D01*
X309444Y270864D01*
X309582Y271555D01*
X309444Y272246D01*
X309053Y272832D01*
X308980Y272881D01*
Y278445D01*
X308888Y278906D01*
X308784Y279062D01*
X308627Y279296D01*
X308627Y279296D01*
X308497Y279427D01*
X308497Y279429D01*
X308367Y280082D01*
X307998Y280635D01*
X307444Y281005D01*
X306791Y281135D01*
X306789Y281135D01*
X305651Y282272D01*
X307705D01*
X307774Y281926D01*
X308144Y281372D01*
X308698Y281003D01*
X309350Y280873D01*
X310003Y281003D01*
X310557Y281372D01*
X310927Y281926D01*
X310993Y282258D01*
Y273039D01*
X310993Y273039D01*
X311024Y272883D01*
Y267520D01*
X318110D01*
Y273819D01*
X313401D01*
Y278526D01*
X313976Y278412D01*
X314629Y278542D01*
X315183Y278912D01*
X315318Y279115D01*
X330020D01*
X330404Y279191D01*
X330729Y279409D01*
X335355Y284034D01*
X335501Y284252D01*
X335573Y284360D01*
X335649Y284744D01*
Y294466D01*
X336719Y295536D01*
X337205Y295440D01*
X337858Y295569D01*
X338290Y295859D01*
Y276673D01*
X338365Y276298D01*
X338578Y275979D01*
X350003Y264554D01*
Y184013D01*
X350078Y183638D01*
X350290Y183319D01*
X358436Y175173D01*
X358492Y174892D01*
X336051Y197334D01*
Y229111D01*
X336222Y229367D01*
X336352Y230020D01*
X336222Y230673D01*
X335852Y231226D01*
X335298Y231596D01*
X334646Y231726D01*
X333993Y231596D01*
X333439Y231226D01*
X333069Y230673D01*
X332940Y230020D01*
X333069Y229367D01*
X333241Y229111D01*
Y196752D01*
X333348Y196214D01*
X333652Y195758D01*
X358009Y171401D01*
X358069Y171099D01*
X358439Y170546D01*
X358993Y170176D01*
X359646Y170046D01*
X360298Y170176D01*
X360852Y170546D01*
X361222Y171099D01*
X361352Y171752D01*
X361222Y172405D01*
X360852Y172958D01*
X360298Y173328D01*
X359996Y173388D01*
X359833Y173551D01*
X360138Y173491D01*
X360791Y173621D01*
X361344Y173990D01*
X361714Y174544D01*
X361844Y175197D01*
X361714Y175850D01*
X361344Y176403D01*
X360914Y176691D01*
X361123Y177005D01*
X361253Y177657D01*
X361123Y178310D01*
X361067Y178395D01*
X361559Y178724D01*
X361686Y178914D01*
X361687Y178912D01*
X362241Y178542D01*
X362894Y178412D01*
X363547Y178542D01*
X364100Y178912D01*
X364470Y179465D01*
X364600Y180118D01*
X364512Y180556D01*
X365743Y179326D01*
X366061Y179113D01*
X366437Y179038D01*
X372462D01*
X372613Y178813D01*
X373166Y178444D01*
X373819Y178314D01*
X374472Y178444D01*
X375025Y178813D01*
X375090Y178910D01*
X375097Y178875D01*
X375467Y178321D01*
X375987Y177974D01*
Y174803D01*
X376062Y174428D01*
X376275Y174109D01*
X377456Y172928D01*
X377774Y172715D01*
X378150Y172641D01*
X452688D01*
X452989Y172440D01*
X453642Y172310D01*
X454295Y172440D01*
X454848Y172809D01*
X455151Y173263D01*
X455191Y173203D01*
X455745Y172833D01*
X456398Y172703D01*
X457051Y172833D01*
X457501Y173134D01*
X457652Y172908D01*
X458205Y172538D01*
X458858Y172408D01*
X459511Y172538D01*
X460065Y172908D01*
X460434Y173461D01*
X460564Y174114D01*
X460434Y174767D01*
X460065Y175320D01*
X459511Y175690D01*
X458858Y175820D01*
X458628Y175774D01*
X457738Y176664D01*
X457611Y176749D01*
X456895Y177465D01*
X456576Y177678D01*
X456201Y177753D01*
X451476D01*
X451101Y177678D01*
X450782Y177465D01*
X449321Y176004D01*
X434046D01*
X434057Y176020D01*
X434186Y176673D01*
X434166Y176775D01*
X436340D01*
X436490Y176550D01*
X437044Y176180D01*
X437697Y176050D01*
X438350Y176180D01*
X438903Y176550D01*
X439273Y177103D01*
X439403Y177756D01*
X439273Y178409D01*
X438903Y178962D01*
X438350Y179332D01*
X438238Y179354D01*
X438313Y179404D01*
X438682Y179957D01*
X438812Y180610D01*
X438682Y181263D01*
X438313Y181817D01*
X437759Y182186D01*
X437106Y182316D01*
X436453Y182186D01*
X435969Y181862D01*
X435216Y182615D01*
X435272Y182577D01*
X435925Y182448D01*
X436578Y182577D01*
X437132Y182947D01*
X437501Y183501D01*
X437631Y184153D01*
X437501Y184806D01*
X437132Y185360D01*
X436578Y185730D01*
X435925Y185860D01*
X435660Y185807D01*
X435428Y186038D01*
X437181D01*
X438603Y184616D01*
X438550Y184350D01*
X438680Y183697D01*
X439050Y183144D01*
X439603Y182774D01*
X440256Y182644D01*
X440909Y182774D01*
X441462Y183144D01*
X441832Y183697D01*
X441962Y184350D01*
X441832Y185003D01*
X441462Y185557D01*
X440909Y185926D01*
X440256Y186056D01*
X439990Y186004D01*
X439816Y186178D01*
X440023Y186219D01*
X440576Y186589D01*
X440946Y187142D01*
X441036Y187596D01*
X443327Y185305D01*
X443274Y185039D01*
X443404Y184387D01*
X443774Y183833D01*
X444327Y183463D01*
X444980Y183333D01*
X445633Y183463D01*
X446187Y183833D01*
X446557Y184387D01*
X446686Y185039D01*
X446557Y185692D01*
X446187Y186246D01*
X445633Y186616D01*
X444980Y186745D01*
X444715Y186693D01*
X441343Y190064D01*
X441025Y190277D01*
X440650Y190351D01*
X367398D01*
X365745Y192004D01*
Y247047D01*
X372736D01*
Y248792D01*
X373622D01*
Y247047D01*
X380709D01*
Y253346D01*
X378570D01*
Y285557D01*
X378643Y285666D01*
X378773Y286319D01*
X378643Y286972D01*
X378273Y287525D01*
X377720Y287895D01*
X377067Y288025D01*
X376414Y287895D01*
X375861Y287525D01*
X375491Y286972D01*
X375361Y286319D01*
X375491Y285666D01*
X375760Y285263D01*
Y253346D01*
X373622D01*
Y251602D01*
X372736D01*
Y253346D01*
X365745D01*
Y258092D01*
X365970Y258243D01*
X366340Y258796D01*
X366470Y259449D01*
X366340Y260102D01*
X365970Y260655D01*
X365417Y261025D01*
X364764Y261155D01*
X364715Y261145D01*
X365084Y261392D01*
X365454Y261946D01*
X365584Y262598D01*
X365454Y263251D01*
X365084Y263805D01*
X364531Y264175D01*
X363878Y264304D01*
X363225Y264175D01*
X363121Y264105D01*
Y285781D01*
X369985Y292645D01*
X370198Y292963D01*
X370273Y293339D01*
Y320571D01*
X370198Y320946D01*
X369985Y321265D01*
X364080Y327170D01*
X363761Y327383D01*
X363386Y327458D01*
X340962D01*
X340927Y327481D01*
X340698Y327527D01*
X336625Y331599D01*
X336307Y331812D01*
X336139Y331845D01*
X346091D01*
X347777Y330159D01*
X348526Y329659D01*
X349409Y329483D01*
X357143D01*
X357527Y328983D01*
X358349Y328352D01*
X359307Y327956D01*
X360335Y327820D01*
X361362Y327956D01*
X362320Y328352D01*
X363142Y328983D01*
X363774Y329806D01*
X364170Y330764D01*
X364306Y331791D01*
X364170Y332819D01*
X363774Y333777D01*
X363142Y334599D01*
X362320Y335230D01*
X361362Y335627D01*
X360335Y335762D01*
X359307Y335627D01*
X358424Y335261D01*
X358497Y335630D01*
X358367Y336283D01*
X357998Y336836D01*
X357745Y337005D01*
X359995D01*
X360130Y336802D01*
X360684Y336433D01*
X361336Y336303D01*
X361989Y336433D01*
X362543Y336802D01*
X362913Y337356D01*
X363042Y338009D01*
X362913Y338662D01*
X362584Y339154D01*
X367884D01*
X368085Y338853D01*
X368638Y338483D01*
X369291Y338353D01*
X369944Y338483D01*
X370498Y338853D01*
X370867Y339406D01*
X370997Y340059D01*
X370867Y340712D01*
X370498Y341265D01*
X369944Y341635D01*
X369291Y341765D01*
X368638Y341635D01*
X368085Y341265D01*
X368015Y341161D01*
X358881D01*
X359155Y341571D01*
X359285Y342224D01*
X359155Y342877D01*
X358785Y343431D01*
X358232Y343801D01*
X357579Y343930D01*
X356926Y343801D01*
X356372Y343431D01*
X356237Y343228D01*
X324864D01*
X331123Y349487D01*
X331341Y349813D01*
X331417Y350197D01*
Y352264D01*
X332638D01*
Y359941D01*
X328701D01*
Y352264D01*
X329410D01*
Y350612D01*
X324398Y345601D01*
X324639Y346182D01*
X324727Y346850D01*
X324639Y347518D01*
X324381Y348141D01*
X323971Y348675D01*
X323852Y348767D01*
Y349201D01*
X323917Y349188D01*
X324417Y349287D01*
X324840Y349570D01*
X326592Y351322D01*
X326875Y351745D01*
X326974Y352244D01*
Y356102D01*
X326875Y356602D01*
X326592Y357025D01*
X326168Y357308D01*
X325669Y357407D01*
X325170Y357308D01*
X324747Y357025D01*
X324464Y356602D01*
X324365Y356102D01*
Y352784D01*
X323352Y351772D01*
X323279D01*
X322762Y352289D01*
X322761Y352289D01*
X322208Y352659D01*
X321974Y352705D01*
Y352736D01*
X322089Y352813D01*
X322524Y353464D01*
X322676Y354232D01*
Y357972D01*
X322524Y358740D01*
X322089Y359392D01*
X321771Y359604D01*
Y360075D01*
X321974Y360211D01*
X322344Y360765D01*
X322474Y361417D01*
X322344Y362070D01*
X321974Y362624D01*
X321421Y362994D01*
X320768Y363123D01*
D02*
G37*
G36*
X344685Y378478D02*
X344032Y378348D01*
X343479Y377978D01*
X343109Y377425D01*
X342979Y376772D01*
X343109Y376119D01*
X343479Y375565D01*
X343682Y375430D01*
Y354648D01*
X340594Y351560D01*
X340354Y351608D01*
X339702Y351478D01*
X339148Y351108D01*
X338778Y350554D01*
X338648Y349902D01*
X338778Y349249D01*
X339148Y348695D01*
X339702Y348325D01*
X340354Y348196D01*
X341007Y348325D01*
X341561Y348695D01*
X341931Y349249D01*
X342060Y349902D01*
X342013Y350141D01*
X345395Y353523D01*
X345612Y353848D01*
X345689Y354232D01*
Y375430D01*
X345891Y375565D01*
X346261Y376119D01*
X346391Y376772D01*
X346261Y377425D01*
X345891Y377978D01*
X345338Y378348D01*
X344685Y378478D01*
D02*
G37*
G36*
X106299Y356469D02*
X104331D01*
X103354Y356341D01*
X102445Y355964D01*
X101663Y355364D01*
X101064Y354583D01*
X100687Y353673D01*
X100558Y352697D01*
X100687Y351720D01*
X101064Y350811D01*
X101663Y350029D01*
X102445Y349430D01*
X103354Y349053D01*
X104331Y348924D01*
X106299D01*
X107276Y349053D01*
X108185Y349430D01*
X108967Y350029D01*
X109566Y350811D01*
X109943Y351720D01*
X110072Y352697D01*
X109943Y353673D01*
X109566Y354583D01*
X108967Y355364D01*
X108185Y355964D01*
X107276Y356341D01*
X106299Y356469D01*
D02*
G37*
G36*
X191811Y381144D02*
X191143Y381056D01*
X190521Y380798D01*
X189986Y380388D01*
X189576Y379854D01*
X189318Y379231D01*
X189230Y378563D01*
X189318Y377895D01*
X189576Y377272D01*
X189986Y376738D01*
X190521Y376328D01*
X191143Y376070D01*
X191811Y375982D01*
X191960Y376002D01*
X221038Y346924D01*
X221591Y346554D01*
X222244Y346424D01*
X225347D01*
X225439Y346305D01*
X225973Y345895D01*
X226596Y345637D01*
X227264Y345549D01*
X227932Y345637D01*
X228554Y345895D01*
X229089Y346305D01*
X229499Y346839D01*
X229757Y347462D01*
X229845Y348130D01*
X229757Y348798D01*
X229499Y349420D01*
X229089Y349955D01*
X228554Y350365D01*
X227932Y350623D01*
X227264Y350711D01*
X226596Y350623D01*
X225973Y350365D01*
X225439Y349955D01*
X225347Y349836D01*
X222951D01*
X194373Y378414D01*
X194392Y378563D01*
X194304Y379231D01*
X194046Y379854D01*
X193636Y380388D01*
X193102Y380798D01*
X192479Y381056D01*
X191811Y381144D01*
D02*
G37*
G36*
X106299Y346469D02*
X104331D01*
X103354Y346341D01*
X102445Y345964D01*
X101663Y345364D01*
X101064Y344583D01*
X100687Y343673D01*
X100558Y342697D01*
X100687Y341721D01*
X101064Y340811D01*
X101663Y340029D01*
X102445Y339430D01*
X103354Y339053D01*
X104331Y338924D01*
X106299D01*
X107276Y339053D01*
X108185Y339430D01*
X108967Y340029D01*
X109566Y340811D01*
X109943Y341721D01*
X110072Y342697D01*
X109943Y343673D01*
X109566Y344583D01*
X108967Y345364D01*
X108185Y345964D01*
X107276Y346341D01*
X106299Y346469D01*
D02*
G37*
G36*
X465748Y351969D02*
X458661D01*
Y344882D01*
X464045D01*
X470253Y338674D01*
Y334744D01*
X466929D01*
Y330807D01*
X475984D01*
Y334744D01*
X472661D01*
Y339173D01*
X472569Y339634D01*
X472308Y340025D01*
X465748Y346585D01*
Y351969D01*
D02*
G37*
G36*
X475984Y329823D02*
X466929D01*
Y329059D01*
X456693D01*
X456693Y329059D01*
X456232Y328967D01*
X455841Y328706D01*
X454301Y327165D01*
X446555D01*
Y324240D01*
X383866D01*
X383828Y324232D01*
X383268Y324344D01*
X382615Y324214D01*
X382061Y323844D01*
X381692Y323291D01*
X381562Y322638D01*
X381692Y321985D01*
X382061Y321431D01*
X382615Y321062D01*
X383268Y320932D01*
X383921Y321062D01*
X384474Y321431D01*
X384844Y321985D01*
X384893Y322233D01*
X416680D01*
X394432Y299985D01*
X394193Y300033D01*
X393540Y299903D01*
X392987Y299533D01*
X392617Y298980D01*
X392487Y298327D01*
X392617Y297674D01*
X392987Y297120D01*
X393540Y296751D01*
X394193Y296621D01*
X394846Y296751D01*
X395399Y297120D01*
X395769Y297674D01*
X395899Y298327D01*
X395851Y298566D01*
X417204Y319919D01*
X417321Y319327D01*
X417691Y318774D01*
X417894Y318638D01*
Y317050D01*
X394629Y293784D01*
X394390Y293832D01*
X393737Y293702D01*
X393183Y293332D01*
X392814Y292779D01*
X392684Y292126D01*
X392814Y291473D01*
X393183Y290920D01*
X393737Y290550D01*
X394390Y290420D01*
X395043Y290550D01*
X395596Y290920D01*
X395966Y291473D01*
X396096Y292126D01*
X396048Y292365D01*
X419607Y315924D01*
X419825Y316250D01*
X419901Y316634D01*
Y318638D01*
X420104Y318774D01*
X420474Y319327D01*
X420604Y319980D01*
X420474Y320633D01*
X420463Y320650D01*
X422576D01*
X422711Y320447D01*
X423265Y320077D01*
X423917Y319948D01*
X424570Y320077D01*
X425124Y320447D01*
X425493Y321001D01*
X425623Y321654D01*
X425508Y322233D01*
X446555D01*
Y317717D01*
X456004D01*
Y325462D01*
X457192Y326650D01*
X466929D01*
Y325886D01*
X475984D01*
Y329823D01*
D02*
G37*
G36*
X106299Y336469D02*
X104331D01*
X103354Y336341D01*
X102445Y335964D01*
X101663Y335364D01*
X101064Y334583D01*
X100687Y333673D01*
X100558Y332697D01*
X100687Y331720D01*
X101064Y330811D01*
X101663Y330029D01*
X102445Y329430D01*
X103354Y329053D01*
X104331Y328924D01*
X106299D01*
X107276Y329053D01*
X108185Y329430D01*
X108967Y330029D01*
X109566Y330811D01*
X109943Y331720D01*
X110072Y332697D01*
X109943Y333673D01*
X109566Y334583D01*
X108967Y335364D01*
X108185Y335964D01*
X107276Y336341D01*
X106299Y336469D01*
D02*
G37*
G36*
X376142Y377343D02*
X366693D01*
Y367894D01*
X376142D01*
Y369585D01*
X410808Y334919D01*
Y328507D01*
X410605Y328372D01*
X410235Y327818D01*
X410105Y327165D01*
X410235Y326513D01*
X410605Y325959D01*
X411158Y325589D01*
X411811Y325459D01*
X412464Y325589D01*
X413017Y325959D01*
X413387Y326513D01*
X413517Y327165D01*
X413387Y327818D01*
X413017Y328372D01*
X412815Y328507D01*
Y335335D01*
X412738Y335719D01*
X412521Y336044D01*
X376142Y372423D01*
Y377343D01*
D02*
G37*
G36*
X231693Y324606D02*
X222244D01*
Y315158D01*
X231693D01*
Y324606D01*
D02*
G37*
G36*
X475984Y324902D02*
X466929D01*
Y320965D01*
X467295D01*
X459933Y313602D01*
X455913D01*
X455882Y313832D01*
X455406Y314981D01*
X454649Y315968D01*
X453662Y316725D01*
X452513Y317201D01*
X451279Y317364D01*
X450046Y317201D01*
X448897Y316725D01*
X447910Y315968D01*
X447153Y314981D01*
X446677Y313832D01*
X446514Y312598D01*
X446677Y311365D01*
X447153Y310216D01*
X447910Y309229D01*
X448897Y308472D01*
X450046Y307996D01*
X451279Y307833D01*
X452513Y307996D01*
X453662Y308472D01*
X454649Y309229D01*
X455406Y310216D01*
X455882Y311365D01*
X455913Y311595D01*
X460348D01*
X460732Y311671D01*
X461058Y311889D01*
X470133Y320965D01*
X475984D01*
Y324902D01*
D02*
G37*
G36*
X126618Y316524D02*
X117169D01*
Y307075D01*
X126618D01*
Y316524D01*
D02*
G37*
G36*
X116618D02*
X107169D01*
Y307075D01*
X116618D01*
Y316524D01*
D02*
G37*
G36*
X226969Y314805D02*
X225735Y314642D01*
X224586Y314166D01*
X223599Y313409D01*
X222842Y312422D01*
X222366Y311273D01*
X222203Y310039D01*
X222366Y308806D01*
X222842Y307657D01*
X223599Y306670D01*
X224586Y305913D01*
X225735Y305437D01*
X226969Y305274D01*
X228202Y305437D01*
X229351Y305913D01*
X230338Y306670D01*
X231095Y307657D01*
X231571Y308806D01*
X231734Y310039D01*
X231571Y311273D01*
X231095Y312422D01*
X230338Y313409D01*
X229351Y314166D01*
X228202Y314642D01*
X226969Y314805D01*
D02*
G37*
G36*
X154035Y322572D02*
X153383Y322442D01*
X152829Y322073D01*
X152459Y321519D01*
X152329Y320866D01*
X152459Y320213D01*
X152829Y319660D01*
X153383Y319290D01*
X154035Y319160D01*
X154688Y319290D01*
X155095Y319562D01*
X167373D01*
X181990Y304945D01*
X182085Y304465D01*
X182455Y303912D01*
X183009Y303542D01*
X183661Y303412D01*
X184314Y303542D01*
X184868Y303912D01*
X185238Y304465D01*
X185367Y305118D01*
X185238Y305771D01*
X184868Y306324D01*
X184314Y306694D01*
X183835Y306790D01*
X168836Y321789D01*
X168413Y322071D01*
X168330Y322088D01*
X167913Y322171D01*
X155095D01*
X154688Y322442D01*
X154035Y322572D01*
D02*
G37*
G36*
X121894Y306722D02*
X120660Y306559D01*
X119511Y306083D01*
X118524Y305326D01*
X117767Y304339D01*
X117291Y303190D01*
X117129Y301957D01*
X117291Y300723D01*
X117767Y299574D01*
X118524Y298587D01*
X119511Y297830D01*
X120660Y297354D01*
X121894Y297192D01*
X123127Y297354D01*
X124276Y297830D01*
X125263Y298587D01*
X126021Y299574D01*
X126497Y300723D01*
X126659Y301957D01*
X126497Y303190D01*
X126021Y304339D01*
X125263Y305326D01*
X124276Y306083D01*
X123127Y306559D01*
X121894Y306722D01*
D02*
G37*
G36*
X111894D02*
X110660Y306559D01*
X109511Y306083D01*
X108524Y305326D01*
X107767Y304339D01*
X107291Y303190D01*
X107129Y301957D01*
X107291Y300723D01*
X107767Y299574D01*
X108524Y298587D01*
X109511Y297830D01*
X110660Y297354D01*
X111894Y297192D01*
X113127Y297354D01*
X114276Y297830D01*
X115263Y298587D01*
X116021Y299574D01*
X116497Y300723D01*
X116659Y301957D01*
X116497Y303190D01*
X116021Y304339D01*
X115263Y305326D01*
X114276Y306083D01*
X113127Y306559D01*
X111894Y306722D01*
D02*
G37*
G36*
X142303Y303445D02*
X134823D01*
Y293996D01*
X142303D01*
Y303445D01*
D02*
G37*
G36*
X188563Y303477D02*
X187587Y303349D01*
X186677Y302972D01*
X185896Y302372D01*
X185296Y301591D01*
X184919Y300681D01*
X184791Y299705D01*
Y297736D01*
X184919Y296760D01*
X185296Y295850D01*
X185896Y295069D01*
X186677Y294469D01*
X187587Y294092D01*
X188563Y293964D01*
X189539Y294092D01*
X190449Y294469D01*
X191230Y295069D01*
X191830Y295850D01*
X192207Y296760D01*
X192335Y297736D01*
Y299705D01*
X192207Y300681D01*
X191830Y301591D01*
X191230Y302372D01*
X190449Y302972D01*
X189539Y303349D01*
X188563Y303477D01*
D02*
G37*
G36*
X136811Y313320D02*
X136158Y313190D01*
X135605Y312821D01*
X135235Y312267D01*
X135105Y311614D01*
X135235Y310961D01*
X135605Y310408D01*
X136158Y310038D01*
X136638Y309943D01*
X142385Y304196D01*
X142808Y303913D01*
X143307Y303814D01*
X171625D01*
X174900Y300538D01*
X174791Y299705D01*
Y297736D01*
X174919Y296760D01*
X175296Y295850D01*
X175896Y295069D01*
X176677Y294469D01*
X177587Y294092D01*
X178563Y293964D01*
X179539Y294092D01*
X180449Y294469D01*
X181230Y295069D01*
X181830Y295850D01*
X182207Y296760D01*
X182335Y297736D01*
Y299705D01*
X182207Y300681D01*
X181830Y301591D01*
X181230Y302372D01*
X180449Y302972D01*
X179539Y303349D01*
X178563Y303477D01*
X177587Y303349D01*
X176677Y302972D01*
X176383Y302746D01*
X173088Y306041D01*
X172665Y306323D01*
X172582Y306340D01*
X172165Y306423D01*
X143848D01*
X138482Y311788D01*
X138387Y312267D01*
X138017Y312821D01*
X137464Y313190D01*
X136811Y313320D01*
D02*
G37*
G36*
X168563Y303477D02*
X167587Y303349D01*
X166677Y302972D01*
X165895Y302372D01*
X165296Y301591D01*
X164919Y300681D01*
X164791Y299705D01*
Y297736D01*
X164919Y296760D01*
X165296Y295850D01*
X165895Y295069D01*
X166677Y294469D01*
X167587Y294092D01*
X168563Y293964D01*
X169539Y294092D01*
X170449Y294469D01*
X171230Y295069D01*
X171830Y295850D01*
X172207Y296760D01*
X172335Y297736D01*
Y299705D01*
X172207Y300681D01*
X171830Y301591D01*
X171230Y302372D01*
X170449Y302972D01*
X169539Y303349D01*
X168563Y303477D01*
D02*
G37*
G36*
X158563D02*
X157587Y303349D01*
X156677Y302972D01*
X155895Y302372D01*
X155296Y301591D01*
X154919Y300681D01*
X154791Y299705D01*
Y297736D01*
X154919Y296760D01*
X155296Y295850D01*
X155895Y295069D01*
X156677Y294469D01*
X157587Y294092D01*
X158563Y293964D01*
X159539Y294092D01*
X160449Y294469D01*
X161231Y295069D01*
X161830Y295850D01*
X162207Y296760D01*
X162335Y297736D01*
Y299705D01*
X162207Y300681D01*
X161830Y301591D01*
X161231Y302372D01*
X160449Y302972D01*
X159539Y303349D01*
X158563Y303477D01*
D02*
G37*
G36*
X148563D02*
X147587Y303349D01*
X146677Y302972D01*
X145896Y302372D01*
X145296Y301591D01*
X144919Y300681D01*
X144791Y299705D01*
Y297736D01*
X144919Y296760D01*
X145296Y295850D01*
X145896Y295069D01*
X146677Y294469D01*
X147587Y294092D01*
X148563Y293964D01*
X149539Y294092D01*
X150449Y294469D01*
X151231Y295069D01*
X151830Y295850D01*
X152207Y296760D01*
X152335Y297736D01*
Y299705D01*
X152207Y300681D01*
X151830Y301591D01*
X151231Y302372D01*
X150449Y302972D01*
X149539Y303349D01*
X148563Y303477D01*
D02*
G37*
G36*
X419980Y294882D02*
X413681D01*
Y292062D01*
X413660Y292048D01*
X411657Y290044D01*
X411417Y290092D01*
X410765Y289962D01*
X410211Y289592D01*
X409841Y289039D01*
X409711Y288386D01*
X409841Y287733D01*
X410211Y287179D01*
X410765Y286810D01*
X411417Y286680D01*
X412070Y286810D01*
X412624Y287179D01*
X412993Y287733D01*
X413123Y288386D01*
X413076Y288625D01*
X413681Y289230D01*
Y287795D01*
X419980D01*
Y294882D01*
D02*
G37*
G36*
X445276Y294685D02*
X438976D01*
Y287598D01*
X445276D01*
Y290138D01*
X445607D01*
X445743Y289935D01*
X446296Y289566D01*
X446949Y289436D01*
X447602Y289566D01*
X448155Y289935D01*
X448525Y290489D01*
X448655Y291142D01*
X448525Y291795D01*
X448155Y292348D01*
X447602Y292718D01*
X446949Y292848D01*
X446296Y292718D01*
X445743Y292348D01*
X445607Y292145D01*
X445276D01*
Y294685D01*
D02*
G37*
G36*
X427067Y294882D02*
X420768D01*
Y287795D01*
X422613D01*
Y285383D01*
X412845Y275616D01*
X400272D01*
X399866Y275887D01*
X399213Y276017D01*
X398560Y275887D01*
X398006Y275517D01*
X397637Y274964D01*
X397507Y274311D01*
X397637Y273658D01*
X398006Y273105D01*
X398560Y272735D01*
X399213Y272605D01*
X399866Y272735D01*
X400272Y273006D01*
X413386D01*
X413802Y273089D01*
X413885Y273106D01*
X414308Y273389D01*
X424840Y283920D01*
X425123Y284343D01*
X425139Y284426D01*
X425222Y284842D01*
Y287795D01*
X427067D01*
Y289837D01*
X431890D01*
Y287598D01*
X438189D01*
Y294685D01*
X431890D01*
Y292446D01*
X427067D01*
Y294882D01*
D02*
G37*
G36*
X184646Y292651D02*
X183993Y292521D01*
X183439Y292151D01*
X183070Y291598D01*
X182940Y290945D01*
X183070Y290292D01*
X183439Y289739D01*
X183993Y289369D01*
X184646Y289239D01*
X185299Y289369D01*
X185852Y289739D01*
X185922Y289843D01*
X218482D01*
X220356Y287969D01*
X220341Y287894D01*
X220471Y287241D01*
X220841Y286687D01*
X221394Y286318D01*
X222047Y286188D01*
X222700Y286318D01*
X223254Y286687D01*
X223623Y287241D01*
X223753Y287894D01*
X223623Y288547D01*
X223254Y289100D01*
X222700Y289470D01*
X222047Y289600D01*
X221644Y289520D01*
X219607Y291556D01*
X219282Y291774D01*
X218898Y291850D01*
X186053D01*
X185852Y292151D01*
X185299Y292521D01*
X184646Y292651D01*
D02*
G37*
G36*
X487992Y289272D02*
X478543D01*
Y279823D01*
X487992D01*
Y289272D01*
D02*
G37*
G36*
X437992Y279856D02*
X437339Y279726D01*
X436786Y279356D01*
X436416Y278802D01*
X436319Y278314D01*
Y278346D01*
X433760D01*
Y275787D01*
Y274016D01*
X436319D01*
Y274171D01*
X436643Y273847D01*
X436490Y273746D01*
X436121Y273192D01*
X435991Y272539D01*
X436121Y271886D01*
X436490Y271333D01*
X437044Y270963D01*
X437697Y270833D01*
X438350Y270963D01*
X438903Y271333D01*
X439273Y271886D01*
X439403Y272539D01*
X439273Y273192D01*
X438903Y273746D01*
X438700Y273881D01*
Y274213D01*
X438624Y274597D01*
X438407Y274922D01*
X437422Y275906D01*
X437124Y276106D01*
X437293Y276140D01*
X437619Y276357D01*
X437753Y276491D01*
X437992Y276444D01*
X438645Y276573D01*
X439198Y276943D01*
X439568Y277497D01*
X439698Y278150D01*
X439568Y278802D01*
X439198Y279356D01*
X438645Y279726D01*
X437992Y279856D01*
D02*
G37*
G36*
X192717Y278675D02*
X192064Y278545D01*
X191510Y278175D01*
X191140Y277621D01*
X191093Y277381D01*
X191045Y277621D01*
X190675Y278175D01*
X190121Y278545D01*
X189469Y278675D01*
X188816Y278545D01*
X188262Y278175D01*
X187892Y277621D01*
X187762Y276969D01*
X187782Y276870D01*
X186221D01*
Y274311D01*
Y272539D01*
X187360D01*
X188035Y271865D01*
X188089Y271591D01*
X188459Y271038D01*
X189013Y270668D01*
X189665Y270538D01*
X190318Y270668D01*
X190872Y271038D01*
X191118Y271407D01*
X191140Y271296D01*
X191510Y270743D01*
X192064Y270373D01*
X192717Y270243D01*
X193369Y270373D01*
X193923Y270743D01*
X194293Y271296D01*
X194422Y271949D01*
X194326Y272434D01*
X194431Y272539D01*
X195571D01*
Y274311D01*
Y276870D01*
X194431D01*
X194408Y276893D01*
X194422Y276969D01*
X194293Y277621D01*
X193923Y278175D01*
X193369Y278545D01*
X192717Y278675D01*
D02*
G37*
G36*
X466634Y279856D02*
X465981Y279726D01*
X465427Y279356D01*
X465058Y278802D01*
X464928Y278150D01*
X465058Y277497D01*
X465427Y276943D01*
X465488Y276903D01*
X465329Y276797D01*
X464959Y276243D01*
X464829Y275590D01*
X464959Y274938D01*
X465329Y274384D01*
X465883Y274014D01*
X466535Y273885D01*
X467188Y274014D01*
X467742Y274384D01*
X467913Y274641D01*
Y274410D01*
X470472D01*
Y276181D01*
Y278740D01*
X468222D01*
X468210Y278802D01*
X467840Y279356D01*
X467287Y279726D01*
X466634Y279856D01*
D02*
G37*
G36*
X483268Y279470D02*
X482034Y279308D01*
X480885Y278832D01*
X479898Y278074D01*
X479141Y277087D01*
X478665Y275938D01*
X478503Y274705D01*
X478665Y273471D01*
X479141Y272322D01*
X479898Y271335D01*
X480885Y270578D01*
X482034Y270102D01*
X483268Y269939D01*
X484501Y270102D01*
X485650Y270578D01*
X486637Y271335D01*
X487395Y272322D01*
X487871Y273471D01*
X488033Y274705D01*
X487871Y275938D01*
X487395Y277087D01*
X486637Y278074D01*
X485650Y278832D01*
X484501Y279308D01*
X483268Y279470D01*
D02*
G37*
G36*
X274705Y266732D02*
X272146D01*
Y265269D01*
X272035Y265196D01*
X271666Y264642D01*
X271536Y263989D01*
X271666Y263336D01*
X272035Y262783D01*
X272146Y262709D01*
Y261319D01*
X274705D01*
Y263167D01*
X274818Y263336D01*
X274948Y263989D01*
X274818Y264642D01*
X274705Y264811D01*
Y266732D01*
D02*
G37*
G36*
X269685Y265059D02*
X267126D01*
Y262500D01*
X267939D01*
X268010Y262142D01*
X268380Y261589D01*
X268934Y261219D01*
X269587Y261089D01*
X270239Y261219D01*
X270793Y261589D01*
X271163Y262142D01*
X271293Y262795D01*
X271163Y263448D01*
X270793Y264002D01*
X270239Y264371D01*
X269685Y264482D01*
Y265059D01*
D02*
G37*
G36*
X483268Y269627D02*
X482034Y269465D01*
X480885Y268989D01*
X479898Y268232D01*
X479141Y267245D01*
X478665Y266095D01*
X478503Y264862D01*
X478665Y263629D01*
X479141Y262480D01*
X479898Y261493D01*
X480885Y260735D01*
X482034Y260259D01*
X483268Y260097D01*
X484501Y260259D01*
X485650Y260735D01*
X486637Y261493D01*
X487395Y262480D01*
X487871Y263629D01*
X488033Y264862D01*
X487871Y266095D01*
X487395Y267245D01*
X486637Y268232D01*
X485650Y268989D01*
X484501Y269465D01*
X483268Y269627D01*
D02*
G37*
G36*
X187697Y263386D02*
X181398D01*
Y256299D01*
X187697D01*
Y258036D01*
X197638D01*
X198329Y258174D01*
X198915Y258565D01*
X199013Y258664D01*
X199405Y259250D01*
X199543Y259941D01*
X199405Y260632D01*
X199013Y261218D01*
X198427Y261610D01*
X197736Y261747D01*
X197241Y261649D01*
X187697D01*
Y263386D01*
D02*
G37*
G36*
X175984Y278871D02*
X175331Y278742D01*
X174778Y278372D01*
X174408Y277818D01*
X174278Y277165D01*
X174408Y276513D01*
X174778Y275959D01*
X174981Y275823D01*
Y263386D01*
X174311D01*
Y256299D01*
X180610D01*
Y263386D01*
X176988D01*
Y275823D01*
X177191Y275959D01*
X177560Y276513D01*
X177690Y277165D01*
X177560Y277818D01*
X177191Y278372D01*
X176637Y278742D01*
X175984Y278871D01*
D02*
G37*
G36*
X318110Y266732D02*
X311024D01*
Y260433D01*
X313363D01*
Y257677D01*
X313363Y257677D01*
X313454Y257216D01*
X313715Y256826D01*
X316531Y254010D01*
X316531Y254010D01*
X316922Y253749D01*
X317383Y253657D01*
X326224D01*
Y252495D01*
X331626D01*
Y257228D01*
X326224D01*
Y256066D01*
X317881D01*
X315771Y258176D01*
Y260433D01*
X318110D01*
Y266732D01*
D02*
G37*
G36*
X337049Y261058D02*
X334801D01*
X334186Y260936D01*
X333664Y260588D01*
X333316Y260066D01*
X333193Y259451D01*
Y257872D01*
X333316Y257257D01*
X333664Y256735D01*
X334186Y256387D01*
X334721Y256280D01*
Y253839D01*
X334721Y253839D01*
X334813Y253378D01*
X335074Y252987D01*
X338371Y249690D01*
X338088Y249008D01*
X337960Y248031D01*
X338088Y247055D01*
X338465Y246145D01*
X339065Y245364D01*
X339846Y244764D01*
X340756Y244388D01*
X341732Y244259D01*
X342709Y244388D01*
X343618Y244764D01*
X344400Y245364D01*
X344999Y246145D01*
X345376Y247055D01*
X345505Y248031D01*
X345376Y249008D01*
X344999Y249918D01*
X344400Y250699D01*
X343618Y251298D01*
X342709Y251675D01*
X341732Y251804D01*
X340756Y251675D01*
X340074Y251393D01*
X337129Y254337D01*
Y256280D01*
X337664Y256387D01*
X338186Y256735D01*
X338534Y257257D01*
X338657Y257872D01*
Y259451D01*
X338534Y260066D01*
X338186Y260588D01*
X337664Y260936D01*
X337049Y261058D01*
D02*
G37*
G36*
X311811Y251804D02*
X310835Y251675D01*
X309925Y251298D01*
X309143Y250699D01*
X308544Y249918D01*
X308167Y249008D01*
X308039Y248031D01*
X308167Y247055D01*
X308544Y246145D01*
X309143Y245364D01*
X309925Y244764D01*
X310835Y244388D01*
X311811Y244259D01*
X312787Y244388D01*
X313697Y244764D01*
X314478Y245364D01*
X315078Y246145D01*
X315455Y247055D01*
X315583Y248031D01*
X315455Y249008D01*
X315078Y249918D01*
X314478Y250699D01*
X313697Y251298D01*
X312787Y251675D01*
X311811Y251804D01*
D02*
G37*
G36*
X380709Y246260D02*
X373622D01*
Y239961D01*
X375277D01*
X368571Y233255D01*
X368146Y233171D01*
X367593Y232801D01*
X367223Y232247D01*
X367093Y231594D01*
X367223Y230942D01*
X367593Y230388D01*
X368146Y230018D01*
X368799Y229889D01*
X369452Y230018D01*
X370005Y230388D01*
X370375Y230942D01*
X370411Y231121D01*
X378159Y238869D01*
X378463Y239324D01*
X378570Y239862D01*
Y239961D01*
X380709D01*
Y246260D01*
D02*
G37*
G36*
X112697Y234941D02*
X103248D01*
Y225492D01*
X112697D01*
Y234941D01*
D02*
G37*
G36*
X400394Y226532D02*
X399666Y226436D01*
X398988Y226155D01*
X398406Y225709D01*
X398083Y225288D01*
X380610D01*
X380110Y225188D01*
X380010Y225169D01*
X379502Y224829D01*
X369741Y215068D01*
X369390Y215115D01*
X368662Y215019D01*
X367984Y214738D01*
X367402Y214291D01*
X366955Y213709D01*
X366674Y213031D01*
X366578Y212303D01*
X366674Y211576D01*
X366955Y210897D01*
X367402Y210315D01*
X367984Y209868D01*
X368662Y209588D01*
X369390Y209492D01*
X370117Y209588D01*
X370795Y209868D01*
X371378Y210315D01*
X371825Y210897D01*
X372105Y211576D01*
X372201Y212303D01*
X372109Y213003D01*
X381259Y222153D01*
X398083D01*
X398406Y221732D01*
X398988Y221286D01*
X399666Y221005D01*
X400394Y220909D01*
X401121Y221005D01*
X401799Y221286D01*
X402382Y221732D01*
X402829Y222315D01*
X403109Y222993D01*
X403205Y223721D01*
X403109Y224448D01*
X402829Y225126D01*
X402382Y225709D01*
X401799Y226155D01*
X401121Y226436D01*
X400394Y226532D01*
D02*
G37*
G36*
X107972Y225139D02*
X106739Y224977D01*
X105590Y224501D01*
X104603Y223744D01*
X103846Y222757D01*
X103370Y221607D01*
X103207Y220374D01*
X103370Y219141D01*
X103846Y217991D01*
X104603Y217004D01*
X105590Y216247D01*
X106739Y215771D01*
X107972Y215609D01*
X109206Y215771D01*
X110355Y216247D01*
X111342Y217004D01*
X112099Y217991D01*
X112575Y219141D01*
X112738Y220374D01*
X112575Y221607D01*
X112099Y222757D01*
X111342Y223744D01*
X110355Y224501D01*
X109206Y224977D01*
X107972Y225139D01*
D02*
G37*
G36*
Y215297D02*
X106739Y215134D01*
X105590Y214658D01*
X104603Y213901D01*
X103846Y212914D01*
X103370Y211765D01*
X103207Y210531D01*
X103370Y209298D01*
X103846Y208149D01*
X104603Y207162D01*
X105590Y206405D01*
X106739Y205929D01*
X107972Y205766D01*
X109206Y205929D01*
X110355Y206405D01*
X111342Y207162D01*
X112099Y208149D01*
X112575Y209298D01*
X112738Y210531D01*
X112575Y211765D01*
X112099Y212914D01*
X111342Y213901D01*
X110355Y214658D01*
X109206Y215134D01*
X107972Y215297D01*
D02*
G37*
G36*
X399114Y263124D02*
X398086Y262989D01*
X397129Y262593D01*
X396306Y261961D01*
X395675Y261139D01*
X395518Y260759D01*
X380906D01*
X380291Y260637D01*
X380215Y260586D01*
X379919Y260527D01*
X379333Y260136D01*
X378941Y259549D01*
X378804Y258858D01*
X378941Y258167D01*
X379333Y257581D01*
X379919Y257189D01*
X380610Y257052D01*
X381301Y257189D01*
X381838Y257548D01*
X395518D01*
X395675Y257168D01*
X396306Y256346D01*
X396527Y256176D01*
Y254823D01*
X396724Y253833D01*
X397285Y252993D01*
X427334Y222944D01*
Y216831D01*
X427531Y215841D01*
X428092Y215001D01*
X436223Y206870D01*
X436187Y206594D01*
X436322Y205567D01*
X436719Y204609D01*
X437350Y203787D01*
X438172Y203155D01*
X439130Y202759D01*
X440158Y202624D01*
X441185Y202759D01*
X442143Y203155D01*
X442965Y203787D01*
X443596Y204609D01*
X443993Y205567D01*
X444128Y206594D01*
X443993Y207622D01*
X443596Y208580D01*
X442965Y209402D01*
X442143Y210033D01*
X441185Y210430D01*
X440158Y210565D01*
X439882Y210529D01*
X432508Y217902D01*
Y224016D01*
X432311Y225006D01*
X432125Y225284D01*
X431751Y225845D01*
X401701Y255894D01*
Y256176D01*
X401922Y256346D01*
X402553Y257168D01*
X402950Y258126D01*
X403085Y259154D01*
X402950Y260181D01*
X402553Y261139D01*
X401922Y261961D01*
X401100Y262593D01*
X400142Y262989D01*
X399114Y263124D01*
D02*
G37*
G36*
X488779Y209941D02*
X479331D01*
Y200492D01*
X488779D01*
Y209941D01*
D02*
G37*
G36*
X288071Y206542D02*
X287274Y206437D01*
X286532Y206130D01*
X285895Y205641D01*
X285406Y205003D01*
X285098Y204261D01*
X284993Y203465D01*
Y201850D01*
X285098Y201054D01*
X285406Y200312D01*
X285895Y199674D01*
X286532Y199185D01*
X287274Y198878D01*
X288071Y198773D01*
X288867Y198878D01*
X289610Y199185D01*
X290247Y199674D01*
X290736Y200312D01*
X291043Y201054D01*
X291148Y201850D01*
Y203465D01*
X291043Y204261D01*
X290736Y205003D01*
X290247Y205641D01*
X289610Y206130D01*
X288867Y206437D01*
X288071Y206542D01*
D02*
G37*
G36*
X281339D02*
X280542Y206437D01*
X279800Y206130D01*
X279162Y205641D01*
X278673Y205003D01*
X278366Y204261D01*
X278261Y203465D01*
Y201850D01*
X278366Y201054D01*
X278673Y200312D01*
X279162Y199674D01*
X279800Y199185D01*
X280542Y198878D01*
X281339Y198773D01*
X282135Y198878D01*
X282877Y199185D01*
X283515Y199674D01*
X284004Y200312D01*
X284311Y201054D01*
X284416Y201850D01*
Y203465D01*
X284311Y204261D01*
X284004Y205003D01*
X283515Y205641D01*
X282877Y206130D01*
X282135Y206437D01*
X281339Y206542D01*
D02*
G37*
G36*
X274606D02*
X273810Y206437D01*
X273067Y206130D01*
X272430Y205641D01*
X271941Y205003D01*
X271634Y204261D01*
X271529Y203465D01*
Y201850D01*
X271634Y201054D01*
X271941Y200312D01*
X272430Y199674D01*
X273067Y199185D01*
X273810Y198878D01*
X274606Y198773D01*
X275403Y198878D01*
X276145Y199185D01*
X276782Y199674D01*
X277272Y200312D01*
X277579Y201054D01*
X277684Y201850D01*
Y203465D01*
X277579Y204261D01*
X277272Y205003D01*
X276782Y205641D01*
X276145Y206130D01*
X275403Y206437D01*
X274606Y206542D01*
D02*
G37*
G36*
X267874D02*
X267077Y206437D01*
X266335Y206130D01*
X265698Y205641D01*
X265209Y205003D01*
X264901Y204261D01*
X264796Y203465D01*
Y201850D01*
X264901Y201054D01*
X265209Y200312D01*
X265698Y199674D01*
X266335Y199185D01*
X267077Y198878D01*
X267874Y198773D01*
X268671Y198878D01*
X269413Y199185D01*
X270050Y199674D01*
X270539Y200312D01*
X270847Y201054D01*
X270952Y201850D01*
Y203465D01*
X270847Y204261D01*
X270539Y205003D01*
X270050Y205641D01*
X269413Y206130D01*
X268671Y206437D01*
X267874Y206542D01*
D02*
G37*
G36*
X484055Y200139D02*
X482822Y199977D01*
X481672Y199501D01*
X480686Y198743D01*
X479928Y197757D01*
X479452Y196607D01*
X479290Y195374D01*
X479452Y194141D01*
X479928Y192991D01*
X480686Y192005D01*
X481672Y191247D01*
X482822Y190771D01*
X484055Y190609D01*
X485288Y190771D01*
X486438Y191247D01*
X487425Y192005D01*
X488182Y192991D01*
X488658Y194141D01*
X488820Y195374D01*
X488658Y196607D01*
X488182Y197757D01*
X487425Y198743D01*
X486438Y199501D01*
X485288Y199977D01*
X484055Y200139D01*
D02*
G37*
G36*
Y190297D02*
X482822Y190134D01*
X481672Y189658D01*
X480686Y188901D01*
X479928Y187914D01*
X479452Y186765D01*
X479290Y185531D01*
X479452Y184298D01*
X479928Y183149D01*
X480686Y182162D01*
X481672Y181405D01*
X482822Y180929D01*
X484055Y180766D01*
X485288Y180929D01*
X486438Y181405D01*
X487425Y182162D01*
X488182Y183149D01*
X488658Y184298D01*
X488820Y185531D01*
X488658Y186765D01*
X488182Y187914D01*
X487425Y188901D01*
X486438Y189658D01*
X485288Y190134D01*
X484055Y190297D01*
D02*
G37*
G36*
X260156Y140405D02*
X250081D01*
Y132331D01*
X253481D01*
X253542Y132024D01*
X253912Y131471D01*
X254465Y131101D01*
X255118Y130971D01*
X255771Y131101D01*
X256324Y131471D01*
X256694Y132024D01*
X256755Y132331D01*
X260156D01*
Y140405D01*
D02*
G37*
G36*
X189191Y140602D02*
X179116D01*
Y132528D01*
X182476D01*
X182448Y132382D01*
X182577Y131729D01*
X182947Y131176D01*
X183501Y130806D01*
X184153Y130676D01*
X184806Y130806D01*
X185360Y131176D01*
X185730Y131729D01*
X185860Y132382D01*
X185831Y132528D01*
X189191D01*
Y140602D01*
D02*
G37*
G36*
X410943Y139716D02*
X400868D01*
Y131642D01*
X404288D01*
X404329Y131434D01*
X404699Y130880D01*
X405253Y130510D01*
X405905Y130381D01*
X406558Y130510D01*
X407112Y130880D01*
X407482Y131434D01*
X407523Y131642D01*
X410943D01*
Y139716D01*
D02*
G37*
G36*
X112992Y138976D02*
X103543D01*
Y129528D01*
X112992D01*
Y138976D01*
D02*
G37*
G36*
X480333Y139913D02*
X470258D01*
Y131839D01*
X470260D01*
Y131201D01*
X470321Y130894D01*
X470495Y130633D01*
X470756Y130459D01*
X471063Y130398D01*
X473754D01*
X474089Y129896D01*
X474642Y129526D01*
X475295Y129396D01*
X475948Y129526D01*
X476502Y129896D01*
X476837Y130398D01*
X479528D01*
X479835Y130459D01*
X480095Y130633D01*
X480269Y130894D01*
X480330Y131201D01*
Y131839D01*
X480333D01*
Y139913D01*
D02*
G37*
G36*
X108268Y129175D02*
X107034Y129012D01*
X105885Y128536D01*
X104898Y127779D01*
X104141Y126792D01*
X103665Y125643D01*
X103503Y124409D01*
X103665Y123176D01*
X104141Y122027D01*
X104898Y121040D01*
X105885Y120283D01*
X107034Y119807D01*
X108268Y119644D01*
X109501Y119807D01*
X110650Y120283D01*
X111637Y121040D01*
X112394Y122027D01*
X112871Y123176D01*
X113033Y124409D01*
X112871Y125643D01*
X112394Y126792D01*
X111637Y127779D01*
X110650Y128536D01*
X109501Y129012D01*
X108268Y129175D01*
D02*
G37*
G36*
Y119332D02*
X107034Y119170D01*
X105885Y118694D01*
X104898Y117936D01*
X104141Y116949D01*
X103665Y115800D01*
X103503Y114567D01*
X103665Y113334D01*
X104141Y112184D01*
X104898Y111197D01*
X105885Y110440D01*
X107034Y109964D01*
X108268Y109802D01*
X109501Y109964D01*
X110650Y110440D01*
X111637Y111197D01*
X112394Y112184D01*
X112871Y113334D01*
X113033Y114567D01*
X112871Y115800D01*
X112394Y116949D01*
X111637Y117936D01*
X110650Y118694D01*
X109501Y119170D01*
X108268Y119332D01*
D02*
G37*
G36*
X436850Y119914D02*
X435538Y119785D01*
X434277Y119402D01*
X433114Y118781D01*
X432095Y117945D01*
X431258Y116925D01*
X430637Y115763D01*
X430254Y114501D01*
X430125Y113189D01*
Y111221D01*
X430254Y109908D01*
X430637Y108647D01*
X431258Y107484D01*
X432095Y106465D01*
X433114Y105629D01*
X434277Y105007D01*
X435538Y104624D01*
X436850Y104495D01*
X438162Y104624D01*
X439424Y105007D01*
X440587Y105629D01*
X441606Y106465D01*
X442442Y107484D01*
X443064Y108647D01*
X443446Y109908D01*
X443576Y111221D01*
Y113189D01*
X443446Y114501D01*
X443064Y115763D01*
X442442Y116925D01*
X441606Y117945D01*
X440587Y118781D01*
X439424Y119402D01*
X438162Y119785D01*
X436850Y119914D01*
D02*
G37*
G36*
X364016D02*
X362704Y119785D01*
X361442Y119402D01*
X360279Y118781D01*
X359260Y117945D01*
X358424Y116925D01*
X357802Y115763D01*
X357420Y114501D01*
X357291Y113189D01*
Y111221D01*
X357420Y109908D01*
X357802Y108647D01*
X358424Y107484D01*
X359260Y106465D01*
X360279Y105629D01*
X361442Y105007D01*
X362704Y104624D01*
X364016Y104495D01*
X365328Y104624D01*
X366589Y105007D01*
X367752Y105629D01*
X368771Y106465D01*
X369608Y107484D01*
X370229Y108647D01*
X370612Y109908D01*
X370741Y111221D01*
Y113189D01*
X370612Y114501D01*
X370229Y115763D01*
X369608Y116925D01*
X368771Y117945D01*
X367752Y118781D01*
X366589Y119402D01*
X365328Y119785D01*
X364016Y119914D01*
D02*
G37*
G36*
X214409D02*
X213097Y119785D01*
X211836Y119402D01*
X210673Y118781D01*
X209654Y117945D01*
X208818Y116925D01*
X208196Y115763D01*
X207813Y114501D01*
X207684Y113189D01*
Y111221D01*
X207813Y109908D01*
X208196Y108647D01*
X208818Y107484D01*
X209654Y106465D01*
X210673Y105629D01*
X211836Y105007D01*
X213097Y104624D01*
X214409Y104495D01*
X215722Y104624D01*
X216983Y105007D01*
X218146Y105629D01*
X219165Y106465D01*
X220001Y107484D01*
X220623Y108647D01*
X221006Y109908D01*
X221135Y111221D01*
Y113189D01*
X221006Y114501D01*
X220623Y115763D01*
X220001Y116925D01*
X219165Y117945D01*
X218146Y118781D01*
X216983Y119402D01*
X215722Y119785D01*
X214409Y119914D01*
D02*
G37*
G36*
X143543D02*
X142231Y119785D01*
X140970Y119402D01*
X139807Y118781D01*
X138788Y117945D01*
X137951Y116925D01*
X137330Y115763D01*
X136947Y114501D01*
X136818Y113189D01*
Y111221D01*
X136947Y109908D01*
X137330Y108647D01*
X137951Y107484D01*
X138788Y106465D01*
X139807Y105629D01*
X140970Y105007D01*
X142231Y104624D01*
X143543Y104495D01*
X144855Y104624D01*
X146117Y105007D01*
X147280Y105629D01*
X148299Y106465D01*
X149135Y107484D01*
X149757Y108647D01*
X150139Y109908D01*
X150269Y111221D01*
Y113189D01*
X150139Y114501D01*
X149757Y115763D01*
X149135Y116925D01*
X148299Y117945D01*
X147280Y118781D01*
X146117Y119402D01*
X144855Y119785D01*
X143543Y119914D01*
D02*
G37*
G36*
X451550Y119714D02*
X450238Y119585D01*
X448977Y119202D01*
X447814Y118581D01*
X446795Y117745D01*
X445959Y116725D01*
X445337Y115563D01*
X444954Y114301D01*
X444825Y112989D01*
Y111021D01*
X444954Y109708D01*
X445337Y108447D01*
X445959Y107284D01*
X446795Y106265D01*
X447814Y105429D01*
X448977Y104807D01*
X450238Y104424D01*
X451550Y104295D01*
X452862Y104424D01*
X454124Y104807D01*
X455287Y105429D01*
X456306Y106265D01*
X457142Y107284D01*
X457764Y108447D01*
X458146Y109708D01*
X458276Y111021D01*
Y112989D01*
X458146Y114301D01*
X457764Y115563D01*
X457142Y116725D01*
X456306Y117745D01*
X455287Y118581D01*
X454124Y119202D01*
X452862Y119585D01*
X451550Y119714D01*
D02*
G37*
G36*
X378716D02*
X377404Y119585D01*
X376142Y119202D01*
X374979Y118581D01*
X373960Y117745D01*
X373124Y116725D01*
X372502Y115563D01*
X372120Y114301D01*
X371990Y112989D01*
Y111021D01*
X372120Y109708D01*
X372502Y108447D01*
X373124Y107284D01*
X373960Y106265D01*
X374979Y105429D01*
X376142Y104807D01*
X377404Y104424D01*
X378716Y104295D01*
X380028Y104424D01*
X381289Y104807D01*
X382452Y105429D01*
X383471Y106265D01*
X384308Y107284D01*
X384929Y108447D01*
X385312Y109708D01*
X385441Y111021D01*
Y112989D01*
X385312Y114301D01*
X384929Y115563D01*
X384308Y116725D01*
X383471Y117745D01*
X382452Y118581D01*
X381289Y119202D01*
X380028Y119585D01*
X378716Y119714D01*
D02*
G37*
G36*
X229110D02*
X227797Y119585D01*
X226536Y119202D01*
X225373Y118581D01*
X224354Y117745D01*
X223518Y116725D01*
X222896Y115563D01*
X222513Y114301D01*
X222384Y112989D01*
Y111021D01*
X222513Y109708D01*
X222896Y108447D01*
X223518Y107284D01*
X224354Y106265D01*
X225373Y105429D01*
X226536Y104807D01*
X227797Y104424D01*
X229110Y104295D01*
X230421Y104424D01*
X231683Y104807D01*
X232846Y105429D01*
X233865Y106265D01*
X234701Y107284D01*
X235323Y108447D01*
X235705Y109708D01*
X235835Y111021D01*
Y112989D01*
X235705Y114301D01*
X235323Y115563D01*
X234701Y116725D01*
X233865Y117745D01*
X232846Y118581D01*
X231683Y119202D01*
X230421Y119585D01*
X229110Y119714D01*
D02*
G37*
G36*
X158243D02*
X156931Y119585D01*
X155670Y119202D01*
X154507Y118581D01*
X153488Y117745D01*
X152651Y116725D01*
X152030Y115563D01*
X151647Y114301D01*
X151518Y112989D01*
Y111021D01*
X151647Y109708D01*
X152030Y108447D01*
X152651Y107284D01*
X153488Y106265D01*
X154507Y105429D01*
X155670Y104807D01*
X156931Y104424D01*
X158243Y104295D01*
X159555Y104424D01*
X160817Y104807D01*
X161980Y105429D01*
X162999Y106265D01*
X163835Y107284D01*
X164457Y108447D01*
X164839Y109708D01*
X164969Y111021D01*
Y112989D01*
X164839Y114301D01*
X164457Y115563D01*
X163835Y116725D01*
X162999Y117745D01*
X161980Y118581D01*
X160817Y119202D01*
X159555Y119585D01*
X158243Y119714D01*
D02*
G37*
%LPD*%
G36*
X439941Y398228D02*
X439488D01*
Y399281D01*
X439789Y399483D01*
X439941Y399711D01*
Y398228D01*
D02*
G37*
G36*
X358812Y398125D02*
X356873D01*
Y390970D01*
X355889Y389985D01*
Y398125D01*
X355548D01*
X355829Y398406D01*
X359093D01*
X358812Y398125D01*
D02*
G37*
G36*
X389173Y389903D02*
X387322Y391754D01*
Y395177D01*
X387246Y395561D01*
X387029Y395887D01*
X384608Y398307D01*
X389173D01*
Y389903D01*
D02*
G37*
G36*
X394094Y390789D02*
X393110Y389805D01*
Y398111D01*
X394094D01*
Y390789D01*
D02*
G37*
G36*
X352737Y398206D02*
Y398125D01*
X351952D01*
Y389625D01*
X351496Y390081D01*
Y395669D01*
X351419Y396053D01*
X351202Y396379D01*
X348978Y398603D01*
X352340D01*
X352737Y398206D01*
D02*
G37*
G36*
X361794Y390576D02*
X360810Y389592D01*
Y397285D01*
X360849Y397323D01*
X361794D01*
Y390576D01*
D02*
G37*
G36*
X426673Y394250D02*
Y389173D01*
X430471D01*
X429998Y388700D01*
X426991D01*
X417580Y398111D01*
X422813D01*
X426673Y394250D01*
D02*
G37*
G36*
X392006Y388700D02*
X390376D01*
X389805Y389272D01*
X392577D01*
X392006Y388700D01*
D02*
G37*
G36*
X354604D02*
X352876D01*
X352507Y389070D01*
X354974D01*
X354604Y388700D01*
D02*
G37*
G36*
X436877Y400689D02*
X437007Y400036D01*
X437376Y399483D01*
X437481Y399413D01*
Y398228D01*
X436516D01*
Y389173D01*
X437360D01*
X436417Y388230D01*
X436471Y388503D01*
X436341Y389156D01*
X435972Y389709D01*
X435532Y390004D01*
Y398228D01*
X431595D01*
Y390297D01*
X430610Y389313D01*
Y398228D01*
X429842D01*
Y399683D01*
X431427Y401268D01*
X436992D01*
X436877Y400689D01*
D02*
G37*
G36*
X433149Y388955D02*
X433059Y388503D01*
X433175Y387924D01*
X432060D01*
X433120Y388984D01*
X433149Y388955D01*
D02*
G37*
G36*
X424928Y387924D02*
X402964D01*
X401988Y388900D01*
Y389272D01*
X402953D01*
Y397323D01*
X415529D01*
X424928Y387924D01*
D02*
G37*
G36*
X399016Y390100D02*
X396828Y387913D01*
X394057D01*
X395415Y389272D01*
X398031D01*
Y397323D01*
X399016D01*
Y390100D01*
D02*
G37*
G36*
X385315Y394761D02*
Y391339D01*
X385392Y390954D01*
X385609Y390629D01*
X388325Y387913D01*
X365376D01*
X364767Y388523D01*
Y389070D01*
X365732D01*
Y397323D01*
X382754D01*
X385315Y394761D01*
D02*
G37*
G36*
X358443Y387224D02*
X355966D01*
X357812Y389070D01*
X360289D01*
X358443Y387224D01*
D02*
G37*
G36*
X349489Y395254D02*
Y389665D01*
X349565Y389281D01*
X349782Y388956D01*
X351514Y387224D01*
X330337D01*
X327953Y389608D01*
Y397422D01*
X347321D01*
X349489Y395254D01*
D02*
G37*
G36*
X439941Y388703D02*
X438265Y387027D01*
X438053D01*
X439194Y388168D01*
X439411Y388494D01*
X439488Y388878D01*
Y389173D01*
X439941D01*
Y388703D01*
D02*
G37*
G36*
X400057Y388100D02*
X400275Y387775D01*
X401022Y387027D01*
X399016D01*
X398723Y386969D01*
X400023Y388270D01*
X400057Y388100D01*
D02*
G37*
G36*
X324016Y389173D02*
X324876D01*
Y385433D01*
X324959Y385017D01*
X324976Y384934D01*
X325259Y384511D01*
X326747Y383023D01*
Y382502D01*
X326592Y382733D01*
X322368Y386958D01*
Y389173D01*
X323031D01*
Y397422D01*
X324016D01*
Y389173D01*
D02*
G37*
G36*
X326133Y373450D02*
X325245D01*
X325096Y373599D01*
X325669Y373485D01*
X326291Y373609D01*
X326133Y373450D01*
D02*
G37*
G36*
X319910Y348141D02*
X319653Y347518D01*
X319565Y346850D01*
X319653Y346182D01*
X319910Y345560D01*
X320321Y345025D01*
X320600Y344811D01*
X317777D01*
X318112Y345312D01*
X318241Y345965D01*
X318112Y346617D01*
X317742Y347171D01*
X317188Y347541D01*
X316535Y347671D01*
X315883Y347541D01*
X315329Y347171D01*
X314959Y346617D01*
X314829Y345965D01*
X314865Y345787D01*
X311024D01*
X310640Y345711D01*
X310314Y345493D01*
X308246Y343425D01*
X306102D01*
X305718Y343348D01*
X305393Y343131D01*
X302342Y340080D01*
X302124Y339754D01*
X302048Y339370D01*
Y337267D01*
X301845Y337132D01*
X301475Y336578D01*
X301345Y335925D01*
X301475Y335272D01*
X301845Y334719D01*
X302398Y334349D01*
X303051Y334219D01*
X303704Y334349D01*
X304257Y334719D01*
X304627Y335272D01*
X304757Y335925D01*
X304627Y336578D01*
X304257Y337132D01*
X304055Y337267D01*
Y338954D01*
X306518Y341418D01*
X308601D01*
X307460Y340277D01*
X307242Y339951D01*
X307166Y339567D01*
Y333330D01*
X306963Y333194D01*
X306593Y332641D01*
X306463Y331988D01*
X306593Y331335D01*
X306963Y330782D01*
X307516Y330412D01*
X308169Y330282D01*
X308748Y330397D01*
Y330260D01*
X306662Y328174D01*
X306596Y328507D01*
X306226Y329061D01*
X305673Y329431D01*
X305020Y329560D01*
X304367Y329431D01*
X303813Y329061D01*
X303444Y328507D01*
X303314Y327854D01*
X303444Y327202D01*
X303642Y326905D01*
Y326736D01*
X296575D01*
X296458Y327326D01*
X296088Y327880D01*
X295535Y328249D01*
X294882Y328379D01*
X294229Y328249D01*
X293676Y327880D01*
X293306Y327326D01*
X293176Y326673D01*
X293306Y326020D01*
X293325Y325992D01*
X293279D01*
X292939Y326502D01*
X292385Y326871D01*
X291732Y327001D01*
X291079Y326871D01*
X290526Y326502D01*
X290156Y325948D01*
X290026Y325295D01*
X290156Y324642D01*
X290526Y324089D01*
X291079Y323719D01*
X291732Y323589D01*
X292385Y323719D01*
X292782Y323985D01*
X295541D01*
X295274Y323586D01*
X295144Y322933D01*
X295274Y322280D01*
X295644Y321727D01*
X296198Y321357D01*
X296850Y321227D01*
X297090Y321275D01*
X298405Y319960D01*
X298730Y319742D01*
X299114Y319666D01*
X312577D01*
X317105Y315137D01*
X317431Y314919D01*
X317495Y314907D01*
X317815Y314843D01*
X325569D01*
X326457Y313954D01*
Y297736D01*
X326534Y297352D01*
X326751Y297027D01*
X328755Y295023D01*
X328707Y294783D01*
X328837Y294131D01*
X329207Y293577D01*
X329761Y293207D01*
X330413Y293077D01*
X331066Y293207D01*
X331620Y293577D01*
X331990Y294131D01*
X332119Y294783D01*
X331990Y295436D01*
X331620Y295990D01*
X331066Y296360D01*
X330413Y296490D01*
X330174Y296442D01*
X329779Y296837D01*
X330056Y296652D01*
X330709Y296522D01*
X331362Y296652D01*
X331915Y297022D01*
X332285Y297575D01*
X332415Y298228D01*
X332285Y298881D01*
X331915Y299435D01*
X331712Y299570D01*
Y300197D01*
X332439D01*
X335490Y297146D01*
X333936Y295591D01*
X333718Y295266D01*
X333642Y294882D01*
Y285160D01*
X329604Y281122D01*
X322300D01*
X322442Y281335D01*
X322572Y281988D01*
X322442Y282641D01*
X322073Y283194D01*
X321847Y283345D01*
Y292126D01*
X321773Y292501D01*
X321560Y292820D01*
X306009Y308371D01*
X305691Y308584D01*
X305315Y308658D01*
X280983D01*
X280832Y308884D01*
X280279Y309253D01*
X279626Y309383D01*
X278973Y309253D01*
X278420Y308884D01*
X278050Y308330D01*
X278045Y308304D01*
X277877Y308471D01*
Y312965D01*
X277880Y312967D01*
X278249Y313520D01*
X278379Y314173D01*
X278249Y314826D01*
X278157Y314964D01*
X300513D01*
X300664Y314739D01*
X301217Y314369D01*
X301870Y314239D01*
X302523Y314369D01*
X303076Y314739D01*
X303446Y315292D01*
X303576Y315945D01*
X303446Y316598D01*
X303303Y316811D01*
X311888D01*
X315786Y312913D01*
X284248D01*
X284179Y313017D01*
X283625Y313387D01*
X282972Y313517D01*
X282320Y313387D01*
X281766Y313017D01*
X281396Y312464D01*
X281266Y311811D01*
X281396Y311158D01*
X281766Y310605D01*
X282320Y310235D01*
X282972Y310105D01*
X283625Y310235D01*
X284179Y310605D01*
X284380Y310906D01*
X317884D01*
X318085Y310605D01*
X318638Y310235D01*
X319291Y310105D01*
X319944Y310235D01*
X320498Y310605D01*
X320867Y311158D01*
X320997Y311811D01*
X320867Y312464D01*
X320791Y312579D01*
X321533D01*
X323709Y310403D01*
Y292905D01*
X323785Y292522D01*
X324003Y292196D01*
X329739Y286460D01*
X329692Y286221D01*
X329821Y285568D01*
X330191Y285014D01*
X330745Y284644D01*
X331398Y284514D01*
X332050Y284644D01*
X332604Y285014D01*
X332974Y285568D01*
X333104Y286221D01*
X332974Y286873D01*
X332604Y287427D01*
X332050Y287797D01*
X331398Y287927D01*
X331158Y287879D01*
X325716Y293321D01*
Y310819D01*
X325640Y311203D01*
X325422Y311528D01*
X322658Y314292D01*
X322333Y314510D01*
X321949Y314586D01*
X316951D01*
X313013Y318525D01*
X312687Y318742D01*
X312303Y318818D01*
X296774D01*
X294473Y321119D01*
X294521Y321358D01*
X294391Y322011D01*
X294021Y322565D01*
X293468Y322934D01*
X292815Y323064D01*
X292162Y322934D01*
X291609Y322565D01*
X291239Y322011D01*
X291109Y321358D01*
X291239Y320705D01*
X291609Y320152D01*
X292162Y319782D01*
X292815Y319652D01*
X293054Y319700D01*
X295649Y317105D01*
X295917Y316926D01*
X289247D01*
X289273Y316965D01*
X289403Y317618D01*
X289273Y318271D01*
X288903Y318824D01*
X288602Y319026D01*
Y338914D01*
X288805Y339050D01*
X289175Y339603D01*
X289304Y340256D01*
X289175Y340909D01*
X288805Y341462D01*
X288251Y341832D01*
X287598Y341962D01*
X286946Y341832D01*
X286392Y341462D01*
X286022Y340909D01*
X285892Y340256D01*
X285982Y339805D01*
X285531Y339895D01*
X284879Y339765D01*
X284325Y339395D01*
X283955Y338842D01*
X283825Y338189D01*
X283955Y337536D01*
X284325Y336983D01*
X284528Y336847D01*
Y321125D01*
X284325Y320990D01*
X283955Y320436D01*
X283825Y319783D01*
X283955Y319131D01*
X284325Y318577D01*
X284879Y318207D01*
X285531Y318077D01*
X286105Y318192D01*
X285991Y317618D01*
X286121Y316965D01*
X286147Y316926D01*
X255807D01*
X255807Y316926D01*
X255432Y316851D01*
X255113Y316639D01*
X251634Y313159D01*
X251576Y313448D01*
X251305Y313855D01*
Y317078D01*
X253198Y318971D01*
X255535D01*
X255942Y318699D01*
X256594Y318570D01*
X257247Y318699D01*
X257801Y319069D01*
X258171Y319623D01*
X258300Y320276D01*
X258171Y320929D01*
X257801Y321482D01*
X257247Y321852D01*
X256594Y321982D01*
X255942Y321852D01*
X255535Y321580D01*
X252658D01*
X252158Y321481D01*
X252018Y321387D01*
X251735Y321198D01*
X249078Y318541D01*
X248795Y318117D01*
X248778Y318035D01*
X248695Y317618D01*
Y313855D01*
X248424Y313448D01*
X248294Y312795D01*
X248424Y312142D01*
X248794Y311589D01*
X249347Y311219D01*
X249636Y311162D01*
X248812Y310337D01*
X248722Y310791D01*
X248352Y311344D01*
X248127Y311494D01*
Y318294D01*
X250497Y320664D01*
X250710Y320983D01*
X250784Y321358D01*
Y333858D01*
X256890D01*
Y336398D01*
X264053D01*
X272422Y328029D01*
Y321322D01*
X272219Y321187D01*
X271849Y320633D01*
X271719Y319980D01*
X271849Y319327D01*
X272219Y318774D01*
X272772Y318404D01*
X273425Y318274D01*
X274078Y318404D01*
X274632Y318774D01*
X275001Y319327D01*
X275131Y319980D01*
X275029Y320493D01*
X275295Y320440D01*
X275948Y320569D01*
X276502Y320939D01*
X276871Y321493D01*
X277001Y322146D01*
X276871Y322798D01*
X276502Y323352D01*
X276299Y323487D01*
Y330217D01*
X276235Y330537D01*
X276222Y330601D01*
X276005Y330926D01*
X269641Y337290D01*
X269918Y337105D01*
X270571Y336975D01*
X271224Y337105D01*
X271777Y337475D01*
X272147Y338028D01*
X272277Y338681D01*
X272229Y338920D01*
X272561Y339252D01*
X279626D01*
X280010Y339329D01*
X280336Y339546D01*
X284077Y343288D01*
X287930D01*
X288065Y343085D01*
X288619Y342715D01*
X289272Y342585D01*
X289925Y342715D01*
X290478Y343085D01*
X290848Y343638D01*
X290978Y344291D01*
X290848Y344944D01*
X290831Y344969D01*
X306494D01*
X306766Y344561D01*
X307320Y344192D01*
X307972Y344062D01*
X308625Y344192D01*
X309179Y344561D01*
X309549Y345115D01*
X309678Y345768D01*
X309549Y346421D01*
X309179Y346974D01*
X308625Y347344D01*
X307972Y347474D01*
X307320Y347344D01*
X306769Y346976D01*
X291859D01*
X291931Y347083D01*
X292060Y347736D01*
X291948Y348302D01*
X320034D01*
X319910Y348141D01*
D02*
G37*
G36*
X356277Y341161D02*
X318132D01*
X318173Y341221D01*
X356237D01*
X356277Y341161D01*
D02*
G37*
G36*
X359995Y339012D02*
X313364D01*
X313506Y339154D01*
X360089D01*
X359995Y339012D01*
D02*
G37*
G36*
X315125Y342224D02*
X315255Y341571D01*
X315529Y341161D01*
X313090D01*
X312706Y341085D01*
X312381Y340867D01*
X309173Y337659D01*
Y339151D01*
X312825Y342804D01*
X315240D01*
X315125Y342224D01*
D02*
G37*
G36*
X355585Y336836D02*
X355450Y336633D01*
X352187D01*
X351816Y337005D01*
X355838D01*
X355585Y336836D01*
D02*
G37*
G36*
X326222Y335786D02*
X325722Y335037D01*
X325546Y334154D01*
X325722Y333270D01*
X326222Y332522D01*
X326971Y332021D01*
X327646Y331887D01*
X322887D01*
X322872Y331896D01*
X322497Y331971D01*
X321204D01*
X320828Y331896D01*
X320814Y331887D01*
X314349D01*
X314198Y332112D01*
X313645Y332482D01*
X312992Y332611D01*
X312339Y332482D01*
X311786Y332112D01*
X311500Y331683D01*
Y335098D01*
X311687Y334817D01*
X312241Y334448D01*
X312894Y334318D01*
X313547Y334448D01*
X314100Y334817D01*
X314470Y335371D01*
X314557Y335807D01*
X326255D01*
X326222Y335786D01*
D02*
G37*
G36*
X351062Y334920D02*
X351388Y334703D01*
X351772Y334626D01*
X355450D01*
X355585Y334424D01*
X356070Y334100D01*
X350365D01*
X348679Y335786D01*
X348647Y335807D01*
X350175D01*
X351062Y334920D01*
D02*
G37*
G36*
X274292Y329801D02*
Y328920D01*
X274135Y329154D01*
X265178Y338111D01*
X264853Y338329D01*
X264469Y338405D01*
X256890D01*
Y340945D01*
X250784D01*
Y342028D01*
X256693D01*
Y344567D01*
X259525D01*
X274292Y329801D01*
D02*
G37*
G36*
X311786Y329699D02*
X312339Y329329D01*
X312992Y329200D01*
X313645Y329329D01*
X314198Y329699D01*
X314349Y329924D01*
X320243D01*
X320144Y329429D01*
X320274Y328776D01*
X320644Y328223D01*
X321198Y327853D01*
X321850Y327723D01*
X322503Y327853D01*
X323057Y328223D01*
X323427Y328776D01*
X323440Y328842D01*
X324200D01*
X324081Y328248D01*
X324211Y327595D01*
X324581Y327042D01*
X325134Y326672D01*
X325787Y326542D01*
X326440Y326672D01*
X326994Y327042D01*
X327144Y327267D01*
X334535D01*
X341932Y319869D01*
Y291609D01*
X341893Y291635D01*
X341240Y291765D01*
X340587Y291635D01*
X340253Y291412D01*
Y313189D01*
X340178Y313564D01*
X339966Y313883D01*
X335143Y318706D01*
X334824Y318918D01*
X334449Y318993D01*
X320451D01*
X320301Y319218D01*
X319747Y319588D01*
X319094Y319718D01*
X318442Y319588D01*
X317888Y319218D01*
X317518Y318665D01*
X317389Y318012D01*
X317468Y317613D01*
X313702Y321379D01*
X313376Y321596D01*
X312992Y321673D01*
X299530D01*
X298509Y322694D01*
X298556Y322933D01*
X298427Y323586D01*
X298160Y323985D01*
X303051D01*
Y322441D01*
X305610D01*
Y322717D01*
X306299D01*
Y322638D01*
X307849D01*
X308122Y322455D01*
X308775Y322326D01*
X309428Y322455D01*
X309981Y322825D01*
X310351Y323379D01*
X310481Y324032D01*
X310351Y324684D01*
X309981Y325238D01*
X309428Y325608D01*
X308775Y325738D01*
X308122Y325608D01*
X307715Y325336D01*
X311206Y328826D01*
X311423Y329152D01*
X311436Y329216D01*
X311500Y329536D01*
Y330128D01*
X311786Y329699D01*
D02*
G37*
G36*
X286595Y321085D02*
X286535Y321125D01*
Y336847D01*
X286595Y336887D01*
Y321085D01*
D02*
G37*
G36*
X368310Y320164D02*
Y293745D01*
X361598Y287034D01*
X354623Y294009D01*
Y307305D01*
X354848Y307455D01*
X355218Y308009D01*
X355348Y308661D01*
X355218Y309314D01*
X354848Y309868D01*
X354745Y309937D01*
X355081D01*
X355492Y309525D01*
Y306102D01*
X355569Y305718D01*
X355786Y305393D01*
X357677Y303502D01*
Y295472D01*
X367126D01*
Y304921D01*
X359096D01*
X357500Y306518D01*
Y309941D01*
X357423Y310325D01*
X357206Y310650D01*
X356123Y311733D01*
X355797Y311951D01*
X355413Y312027D01*
X355029Y311951D01*
X355019Y311944D01*
X353032D01*
X352897Y312147D01*
X352343Y312516D01*
X351690Y312646D01*
X351038Y312516D01*
X350484Y312147D01*
X350114Y311593D01*
X350002Y311031D01*
X347832Y313202D01*
Y313967D01*
X347908Y313853D01*
X348461Y313483D01*
X349114Y313353D01*
X349767Y313483D01*
X350023Y313654D01*
X356079D01*
X356335Y313483D01*
X356988Y313353D01*
X357641Y313483D01*
X358194Y313853D01*
X358564Y314406D01*
X358694Y315059D01*
X358564Y315712D01*
X358194Y316265D01*
X357641Y316635D01*
X356988Y316765D01*
X356335Y316635D01*
X356079Y316464D01*
X350023D01*
X349767Y316635D01*
X349114Y316765D01*
X348499Y316643D01*
X348556Y316929D01*
X348427Y317582D01*
X348057Y318135D01*
X347503Y318505D01*
X346850Y318635D01*
X346198Y318505D01*
X345644Y318135D01*
X345528Y317962D01*
Y321300D01*
X345453Y321675D01*
X345241Y321993D01*
X341739Y325495D01*
X362979D01*
X368310Y320164D01*
D02*
G37*
G36*
X352008Y309025D02*
X351781Y309252D01*
X352064Y309309D01*
X352008Y309025D01*
D02*
G37*
G36*
X345644Y315723D02*
X345869Y315572D01*
Y312795D01*
X345944Y312420D01*
X346157Y312101D01*
X351895Y306363D01*
Y303922D01*
X349685Y306132D01*
X349738Y306398D01*
X349608Y307050D01*
X349238Y307604D01*
X348684Y307974D01*
X348031Y308104D01*
X347379Y307974D01*
X346825Y307604D01*
X346455Y307050D01*
X346325Y306398D01*
X346455Y305745D01*
X346825Y305191D01*
X347379Y304821D01*
X348031Y304692D01*
X348297Y304745D01*
X348858Y304183D01*
X348783Y304234D01*
X348130Y304363D01*
X347477Y304234D01*
X346924Y303864D01*
X346554Y303310D01*
X346424Y302658D01*
X346554Y302005D01*
X346924Y301451D01*
X347149Y301301D01*
Y279798D01*
X346814Y280021D01*
X346161Y280151D01*
X345528Y280025D01*
Y315897D01*
X345644Y315723D01*
D02*
G37*
G36*
X275097Y314826D02*
X274967Y314173D01*
X275097Y313520D01*
X275467Y312967D01*
X275469Y312965D01*
Y307973D01*
X275469Y307972D01*
X275561Y307512D01*
X275822Y307121D01*
X278479Y304464D01*
X278479Y304463D01*
X278713Y304307D01*
X278870Y304202D01*
X279331Y304111D01*
X303832D01*
X308018Y299924D01*
X307910Y299903D01*
X307466Y299606D01*
X305807D01*
Y297047D01*
X307466D01*
X307910Y296751D01*
X307945Y296744D01*
Y295866D01*
X306496D01*
Y293307D01*
X307847D01*
X307911Y293211D01*
X307945Y293188D01*
Y290172D01*
X306844Y289070D01*
X306449Y288992D01*
X305895Y288622D01*
X305567Y288131D01*
X304898Y288800D01*
X304572Y289018D01*
X304188Y289094D01*
X273586D01*
X273450Y289297D01*
X272897Y289667D01*
X272244Y289796D01*
X271591Y289667D01*
X271038Y289297D01*
X270668Y288743D01*
X270538Y288090D01*
X270668Y287438D01*
X271038Y286884D01*
X271591Y286514D01*
X272244Y286385D01*
X272897Y286514D01*
X273450Y286884D01*
X273586Y287087D01*
X274541D01*
X274150Y287009D01*
X273597Y286639D01*
X273227Y286086D01*
X273097Y285433D01*
X273227Y284780D01*
X273597Y284227D01*
X274150Y283857D01*
X274803Y283727D01*
X275456Y283857D01*
X276009Y284227D01*
X276223Y284546D01*
X282142D01*
X281790Y284019D01*
X281660Y283366D01*
X281790Y282713D01*
X282053Y282319D01*
Y279232D01*
X280118D01*
Y275180D01*
X256095D01*
X260943Y280028D01*
X261156Y280346D01*
X261230Y280721D01*
Y281334D01*
X261455Y281485D01*
X261825Y282038D01*
X261955Y282691D01*
X261825Y283344D01*
X261455Y283897D01*
X260940Y284242D01*
X261480Y284349D01*
X262033Y284719D01*
X262306Y285127D01*
Y279310D01*
X262081Y279159D01*
X261711Y278606D01*
X261581Y277953D01*
X261711Y277300D01*
X262081Y276746D01*
X262634Y276377D01*
X263287Y276247D01*
X263940Y276377D01*
X264469Y276730D01*
X264997Y276377D01*
X265650Y276247D01*
X266302Y276377D01*
X266856Y276746D01*
X267226Y277300D01*
X267356Y277953D01*
X267226Y278606D01*
X266856Y279159D01*
X266631Y279310D01*
Y286417D01*
X266556Y286793D01*
X266343Y287111D01*
X261496Y291959D01*
X261548Y292224D01*
X261419Y292877D01*
X261049Y293431D01*
X260495Y293801D01*
X259842Y293930D01*
X259310Y293825D01*
X259383Y294193D01*
X259268Y294773D01*
X265114D01*
X268933Y290954D01*
X269251Y290741D01*
X269627Y290667D01*
X284149D01*
X284302Y290564D01*
X284955Y290434D01*
X285608Y290564D01*
X286161Y290934D01*
X286531Y291487D01*
X286661Y292140D01*
X286531Y292793D01*
X286161Y293347D01*
X285608Y293716D01*
X284955Y293846D01*
X284302Y293716D01*
X283749Y293347D01*
X283379Y292793D01*
X283346Y292629D01*
X277673D01*
X277789Y293209D01*
X277659Y293862D01*
X277658Y293864D01*
Y295669D01*
X275098D01*
Y295594D01*
X274705D01*
Y295669D01*
X272146D01*
Y295594D01*
X271582D01*
X271580Y295596D01*
X271027Y295966D01*
X270374Y296096D01*
X269721Y295966D01*
X269168Y295596D01*
X268798Y295043D01*
X268668Y294390D01*
X268766Y293896D01*
X266215Y296448D01*
X266049Y296558D01*
X294475D01*
X297166Y293868D01*
X297113Y293602D01*
X297243Y292950D01*
X297613Y292396D01*
X298166Y292026D01*
X298819Y291896D01*
X299472Y292026D01*
X300025Y292396D01*
X300395Y292950D01*
X300525Y293602D01*
X300395Y294255D01*
X300025Y294809D01*
X299472Y295179D01*
X298819Y295308D01*
X298553Y295255D01*
X296258Y297551D01*
X298503D01*
X301300Y294754D01*
X301247Y294488D01*
X301377Y293835D01*
X301746Y293282D01*
X302300Y292912D01*
X302953Y292782D01*
X303606Y292912D01*
X304159Y293282D01*
X304529Y293835D01*
X304659Y294488D01*
X304529Y295141D01*
X304159Y295694D01*
X303606Y296064D01*
X302953Y296194D01*
X302687Y296141D01*
X299603Y299226D01*
X299285Y299439D01*
X298909Y299513D01*
X285512D01*
X285533Y299544D01*
X285663Y300197D01*
X285533Y300850D01*
X285163Y301403D01*
X284610Y301773D01*
X283957Y301903D01*
X283304Y301773D01*
X282750Y301403D01*
X282381Y300850D01*
X282331Y300602D01*
X263894D01*
X264009Y301181D01*
X263879Y301834D01*
X263509Y302387D01*
X262956Y302757D01*
X262303Y302887D01*
X261650Y302757D01*
X261097Y302387D01*
X260946Y302162D01*
X252769D01*
X250177Y304754D01*
X250230Y305020D01*
X250100Y305673D01*
X249730Y306226D01*
X249177Y306596D01*
X248524Y306726D01*
X247871Y306596D01*
X247795Y306545D01*
X253955Y312705D01*
X254306Y312179D01*
X254508Y312044D01*
Y306460D01*
X254306Y306324D01*
X253936Y305771D01*
X253806Y305118D01*
X253936Y304465D01*
X254306Y303912D01*
X254859Y303542D01*
X255512Y303412D01*
X256165Y303542D01*
X256718Y303912D01*
X257088Y304465D01*
X257218Y305118D01*
X257088Y305771D01*
X256718Y306324D01*
X256515Y306460D01*
Y312044D01*
X256718Y312179D01*
X257088Y312733D01*
X257218Y313386D01*
X257088Y314039D01*
X256718Y314592D01*
X256193Y314943D01*
X256213Y314964D01*
X275189D01*
X275097Y314826D01*
D02*
G37*
G36*
X246948Y305673D02*
X246818Y305020D01*
X246948Y304367D01*
X247317Y303813D01*
X247871Y303444D01*
X248524Y303314D01*
X248789Y303366D01*
X251554Y300602D01*
X241851D01*
X246998Y305748D01*
X246948Y305673D01*
D02*
G37*
G36*
X338290Y312783D02*
Y298433D01*
X337858Y298722D01*
X337205Y298852D01*
X336965Y298804D01*
X335452Y300317D01*
Y311392D01*
X335600Y311491D01*
X335970Y312044D01*
X336100Y312697D01*
X335970Y313350D01*
X335600Y313903D01*
X335047Y314273D01*
X334394Y314403D01*
X333741Y314273D01*
X333187Y313903D01*
X332818Y313350D01*
X332688Y312697D01*
X332818Y312044D01*
X333187Y311491D01*
X333445Y311318D01*
Y302756D01*
X329528D01*
Y300197D01*
X329705D01*
Y299570D01*
X329502Y299435D01*
X329133Y298881D01*
X329003Y298228D01*
X329133Y297575D01*
X329318Y297298D01*
X328464Y298152D01*
Y314370D01*
X328388Y314754D01*
X328170Y315080D01*
X326694Y316556D01*
X326368Y316774D01*
X325984Y316850D01*
X320331D01*
X320451Y317031D01*
X334042D01*
X338290Y312783D01*
D02*
G37*
G36*
X272146Y293110D02*
X274396D01*
X274492Y292629D01*
X270033D01*
X269880Y292782D01*
X270374Y292684D01*
X271027Y292814D01*
X271580Y293183D01*
X271582Y293185D01*
X272146D01*
Y293110D01*
D02*
G37*
G36*
X310993Y296950D02*
Y292067D01*
X310531Y292159D01*
X309952Y292044D01*
Y292964D01*
X310323Y293211D01*
X310693Y293765D01*
X310823Y294418D01*
X310693Y295071D01*
X310323Y295624D01*
X309952Y295872D01*
Y297394D01*
X310139Y297674D01*
X310161Y297782D01*
X310993Y296950D01*
D02*
G37*
G36*
X354229Y291627D02*
X353857Y291553D01*
Y291999D01*
X354229Y291627D01*
D02*
G37*
G36*
X255971Y294193D02*
X256101Y293540D01*
X256471Y292987D01*
X256696Y292836D01*
Y291732D01*
X256771Y291357D01*
X256983Y291038D01*
X258445Y289577D01*
X258402Y289568D01*
X258375Y289550D01*
X234762D01*
X239984Y294773D01*
X256086D01*
X255971Y294193D01*
D02*
G37*
G36*
X309528Y288309D02*
X308779Y287560D01*
X308678Y288066D01*
X309528Y288916D01*
Y288309D01*
D02*
G37*
G36*
X257479Y287339D02*
X257849Y286786D01*
X258402Y286416D01*
X259055Y286286D01*
X259198Y286315D01*
X259121Y285925D01*
X259167Y285695D01*
X258199Y284727D01*
X258202Y284744D01*
X258072Y285397D01*
X257702Y285950D01*
X257149Y286320D01*
X256496Y286450D01*
X255843Y286320D01*
X255290Y285950D01*
X254920Y285397D01*
X254862Y285106D01*
X254535Y285171D01*
X254454Y285154D01*
X252021Y287587D01*
X257430D01*
X257479Y287339D01*
D02*
G37*
G36*
X248688Y287008D02*
X248818Y286355D01*
X249187Y285802D01*
X249741Y285432D01*
X250394Y285302D01*
X251047Y285432D01*
X251221Y285548D01*
X251627Y285142D01*
X251611Y285139D01*
X251058Y284769D01*
X250907Y284544D01*
X247219D01*
X247245Y284583D01*
X247375Y285236D01*
X247245Y285889D01*
X246876Y286442D01*
X246322Y286812D01*
X245669Y286942D01*
X245016Y286812D01*
X244463Y286442D01*
X244313Y286217D01*
X232420D01*
X233790Y287587D01*
X248803D01*
X248688Y287008D01*
D02*
G37*
G36*
X297425Y283968D02*
X294140D01*
X294061Y283984D01*
X292750D01*
X292671Y283968D01*
X291483D01*
X291404Y283984D01*
X290092D01*
X290013Y283968D01*
X288924D01*
X288925Y283971D01*
X288810Y284546D01*
X297310D01*
X297425Y283968D01*
D02*
G37*
G36*
X350594Y302448D02*
Y283478D01*
X350000Y283596D01*
X349347Y283466D01*
X349111Y283308D01*
Y301301D01*
X349336Y301451D01*
X349706Y302005D01*
X349836Y302658D01*
X349706Y303310D01*
X349656Y303386D01*
X350594Y302448D01*
D02*
G37*
G36*
X305736Y285123D02*
X306062Y284906D01*
X306446Y284829D01*
X308471D01*
X308855Y284906D01*
X309180Y285123D01*
X310993Y286936D01*
Y282899D01*
X310927Y283232D01*
X310557Y283785D01*
X310003Y284155D01*
X309350Y284285D01*
X308988Y284213D01*
X308653Y284279D01*
X300668D01*
X300722Y284547D01*
X300592Y285200D01*
X300222Y285754D01*
X299669Y286123D01*
X299016Y286253D01*
X299013Y286253D01*
X298664Y286602D01*
X298274Y286863D01*
X297813Y286954D01*
X297813Y286954D01*
X275538D01*
X275456Y287009D01*
X275065Y287087D01*
X303773D01*
X305736Y285123D01*
D02*
G37*
G36*
X319885Y291720D02*
Y283345D01*
X319660Y283194D01*
X319290Y282641D01*
X319160Y281988D01*
X319290Y281335D01*
X319433Y281122D01*
X315318D01*
X315183Y281324D01*
X314629Y281694D01*
X313976Y281824D01*
X313401Y281710D01*
Y289221D01*
X313424Y289255D01*
X313515Y289716D01*
Y291190D01*
X313424Y291651D01*
X313401Y291684D01*
Y297449D01*
X313401Y297449D01*
X313309Y297910D01*
X313048Y298300D01*
X313048Y298300D01*
X305182Y306167D01*
X304791Y306428D01*
X304331Y306519D01*
X304331Y306519D01*
X280865D01*
X280983Y306696D01*
X304908D01*
X319885Y291720D01*
D02*
G37*
G36*
X253329Y282258D02*
X253820Y281930D01*
X252210Y280320D01*
X251575Y280446D01*
X251525Y280436D01*
X251895Y280683D01*
X252265Y281237D01*
X252394Y281883D01*
X252917Y281987D01*
X253327Y282261D01*
X253329Y282258D01*
D02*
G37*
G36*
X292199Y280191D02*
X292753Y279821D01*
X292820Y279808D01*
X293396Y279232D01*
X289872D01*
X290400Y279761D01*
X290748Y279692D01*
X291401Y279821D01*
X291954Y280191D01*
X292077Y280375D01*
X292199Y280191D01*
D02*
G37*
G36*
X258673Y282038D02*
X259043Y281485D01*
X259268Y281334D01*
Y281128D01*
X257802Y279662D01*
X257777Y279787D01*
X257407Y280340D01*
X256916Y280668D01*
X258609Y282361D01*
X258673Y282038D01*
D02*
G37*
G36*
X264668Y286011D02*
Y279310D01*
X264469Y279176D01*
X264269Y279310D01*
Y286122D01*
X264197Y286482D01*
X264668Y286011D01*
D02*
G37*
G36*
X249483Y280683D02*
X250036Y280314D01*
X250689Y280184D01*
X250738Y280194D01*
X250368Y279946D01*
X249999Y279393D01*
X249869Y278740D01*
X249984Y278161D01*
X236073D01*
X236222Y278383D01*
X236352Y279035D01*
X236222Y279688D01*
X235852Y280242D01*
X235298Y280612D01*
X234646Y280741D01*
X233993Y280612D01*
X233439Y280242D01*
X233289Y280017D01*
X229191D01*
X230082Y280908D01*
X249332D01*
X249483Y280683D01*
D02*
G37*
G36*
X255548Y277558D02*
X255673Y277533D01*
X254259Y276119D01*
X253540D01*
X255206Y277786D01*
X255548Y277558D01*
D02*
G37*
G36*
X285513Y283971D02*
X285643Y283318D01*
X286012Y282764D01*
X286566Y282394D01*
X287219Y282265D01*
X287353Y282291D01*
X287389Y282255D01*
X287606Y282110D01*
X287714Y282037D01*
X288098Y281961D01*
X289154D01*
X289042Y281398D01*
X289078Y281214D01*
X287200Y279336D01*
X286987Y279017D01*
X286912Y278642D01*
Y275603D01*
X286470Y275161D01*
X286417D01*
Y279232D01*
X284679D01*
Y282319D01*
X284942Y282713D01*
X285072Y283366D01*
X284942Y284019D01*
X284590Y284546D01*
X285627D01*
X285513Y283971D01*
D02*
G37*
G36*
X347149Y274146D02*
X347143Y274152D01*
Y277088D01*
X347149Y277092D01*
Y274146D01*
D02*
G37*
G36*
X354429Y288255D02*
X354859Y288340D01*
X358760Y284439D01*
Y266748D01*
X353850Y271659D01*
Y288370D01*
X354429Y288255D01*
D02*
G37*
G36*
X358060Y264673D02*
Y263599D01*
X357480Y263714D01*
X356868Y263592D01*
Y265864D01*
X358060Y264673D01*
D02*
G37*
G36*
X210361Y198089D02*
X210003Y198328D01*
X209350Y198458D01*
X208698Y198328D01*
X208144Y197958D01*
X207858Y197531D01*
X202605Y192277D01*
X202257Y191756D01*
X202236Y191654D01*
X202134Y191142D01*
X202134Y191142D01*
Y185347D01*
X202034Y184843D01*
X202164Y184190D01*
X202534Y183636D01*
X203087Y183266D01*
X203390Y183206D01*
X212068Y174527D01*
X177254D01*
X176801Y174980D01*
X177362Y174869D01*
X178015Y174999D01*
X178568Y175368D01*
X178719Y175594D01*
X184055D01*
X184431Y175668D01*
X184749Y175881D01*
X210361Y201493D01*
Y198089D01*
D02*
G37*
G36*
X189161Y190548D02*
X162774D01*
X162770Y190554D01*
X189166D01*
X189161Y190548D01*
D02*
G37*
G36*
X187106Y186513D02*
X166809D01*
X166659Y186738D01*
X166545Y186814D01*
X187407D01*
X187106Y186513D01*
D02*
G37*
G36*
X186128Y184544D02*
X169172D01*
X169168Y184550D01*
X186134D01*
X186128Y184544D01*
D02*
G37*
G36*
X434272Y184419D02*
X434219Y184153D01*
X434349Y183501D01*
X434387Y183444D01*
X432493Y185338D01*
X433353D01*
X434272Y184419D01*
D02*
G37*
G36*
X185322Y182576D02*
X171468D01*
X171464Y182582D01*
X185328D01*
X185322Y182576D01*
D02*
G37*
G36*
X216267Y182245D02*
X216218Y181997D01*
X216262Y181778D01*
X213023Y185016D01*
Y185489D01*
X216267Y182245D01*
D02*
G37*
G36*
X363332Y181737D02*
X362894Y181824D01*
X362628Y181771D01*
X354067Y190333D01*
Y191002D01*
X363332Y181737D01*
D02*
G37*
G36*
X381864Y181259D02*
X381521Y181030D01*
X379444Y183108D01*
X380015D01*
X381864Y181259D01*
D02*
G37*
G36*
X372462Y181001D02*
X366843D01*
X366837Y181007D01*
X372466D01*
X372462Y181001D01*
D02*
G37*
G36*
X217912Y180128D02*
X217705Y180335D01*
X217924Y180291D01*
X218254Y180357D01*
X217912Y180128D01*
D02*
G37*
G36*
X358693Y180166D02*
X358649Y179944D01*
X352666Y185926D01*
Y186194D01*
X358693Y180166D01*
D02*
G37*
G36*
X216471Y178793D02*
X216401Y178840D01*
X215748Y178970D01*
X215729Y178966D01*
X212323Y182372D01*
Y182941D01*
X216471Y178793D01*
D02*
G37*
G36*
X435328Y178737D02*
X433563D01*
X433187Y178663D01*
X432869Y178450D01*
X432746Y178326D01*
X432480Y178379D01*
X431827Y178249D01*
X431274Y177880D01*
X430904Y177326D01*
X430774Y176673D01*
X430904Y176020D01*
X430915Y176004D01*
X384143D01*
X383560Y176588D01*
Y178368D01*
X383785Y178518D01*
X384113Y179009D01*
X384289Y178834D01*
X384607Y178621D01*
X384959Y178551D01*
X385113Y178321D01*
X385666Y177951D01*
X386319Y177822D01*
X386972Y177951D01*
X387525Y178321D01*
X387895Y178875D01*
X388025Y179528D01*
X387895Y180180D01*
X387525Y180734D01*
X386972Y181104D01*
X386319Y181234D01*
X385666Y181104D01*
X385144Y180755D01*
X382037Y183861D01*
X430204D01*
X435328Y178737D01*
D02*
G37*
G36*
X210361Y181965D02*
X210435Y181590D01*
X210648Y181272D01*
X214144Y177776D01*
X214042Y177264D01*
X214138Y176779D01*
X213790D01*
X205376Y185193D01*
X205346Y185347D01*
Y190477D01*
X210129Y195260D01*
X210361Y195414D01*
Y181965D01*
D02*
G37*
G36*
X175786Y177228D02*
X175656Y176575D01*
X175768Y176014D01*
X175292Y176489D01*
Y176891D01*
X175517Y177042D01*
X175668Y177267D01*
X175812D01*
X175786Y177228D01*
D02*
G37*
G36*
X173330Y176891D02*
Y176083D01*
X173353Y175968D01*
X173324Y175997D01*
Y176895D01*
X173330Y176891D01*
D02*
G37*
G36*
X171361Y178466D02*
Y175794D01*
X171158Y175997D01*
Y178602D01*
X171361Y178466D01*
D02*
G37*
G36*
X381064Y178818D02*
X381189Y178793D01*
X381372Y178518D01*
X381597Y178368D01*
Y176181D01*
X381672Y175806D01*
X381885Y175487D01*
X382068Y175304D01*
X380612D01*
X380410Y175505D01*
Y178499D01*
X380439Y178518D01*
X380770Y179014D01*
X381064Y178818D01*
D02*
G37*
G36*
X378026Y178518D02*
X378448Y178236D01*
Y175098D01*
X378523Y174723D01*
X378603Y174603D01*
X378556D01*
X377950Y175210D01*
Y178426D01*
X378018Y178529D01*
X378026Y178518D01*
D02*
G37*
G36*
X217429Y177941D02*
X217626Y177901D01*
X217800Y177641D01*
X218354Y177271D01*
X219007Y177141D01*
X219249Y177190D01*
X216587Y174527D01*
X216168D01*
X216283Y175107D01*
X216239Y175330D01*
X216248Y175372D01*
Y175374D01*
X216193Y175646D01*
X216401Y175688D01*
X216954Y176058D01*
X217324Y176611D01*
X217454Y177264D01*
X217324Y177917D01*
X217211Y178087D01*
X217429Y177941D01*
D02*
G37*
%LPC*%
G36*
X318898Y309875D02*
X318245Y309745D01*
X317691Y309376D01*
X317321Y308822D01*
X317192Y308169D01*
X317321Y307516D01*
X317691Y306963D01*
X317894Y306827D01*
Y299373D01*
X317691Y299238D01*
X317321Y298684D01*
X317192Y298031D01*
X317321Y297379D01*
X317691Y296825D01*
X318245Y296455D01*
X318898Y296325D01*
X319550Y296455D01*
X320104Y296825D01*
X320474Y297379D01*
X320604Y298031D01*
X320474Y298684D01*
X320104Y299238D01*
X319901Y299373D01*
Y306827D01*
X320104Y306963D01*
X320474Y307516D01*
X320604Y308169D01*
X320474Y308822D01*
X320104Y309376D01*
X319550Y309745D01*
X318898Y309875D01*
D02*
G37*
G36*
X362402Y314805D02*
X361168Y314642D01*
X360019Y314166D01*
X359032Y313409D01*
X358275Y312422D01*
X357799Y311273D01*
X357636Y310039D01*
X357799Y308806D01*
X358275Y307657D01*
X359032Y306670D01*
X360019Y305913D01*
X361168Y305437D01*
X362402Y305274D01*
X363635Y305437D01*
X364784Y305913D01*
X365771Y306670D01*
X366528Y307657D01*
X367004Y308806D01*
X367167Y310039D01*
X367004Y311273D01*
X366528Y312422D01*
X365771Y313409D01*
X364784Y314166D01*
X363635Y314642D01*
X362402Y314805D01*
D02*
G37*
G36*
X272441Y304462D02*
X271788Y304332D01*
X271235Y303962D01*
X270865Y303409D01*
X270735Y302756D01*
X270865Y302103D01*
X271235Y301550D01*
X271788Y301180D01*
X272441Y301050D01*
X273094Y301180D01*
X273647Y301550D01*
X273664Y301575D01*
X275295D01*
Y304134D01*
X273390D01*
X273094Y304332D01*
X272441Y304462D01*
D02*
G37*
%LPD*%
G36*
X191140Y276316D02*
X191510Y275762D01*
X192064Y275392D01*
X192717Y275262D01*
X193012Y275321D01*
Y274311D01*
Y273959D01*
X192706Y273653D01*
X192064Y273525D01*
X191510Y273155D01*
X191264Y272786D01*
X191242Y272897D01*
X190872Y273450D01*
X190318Y273820D01*
X189665Y273950D01*
X189013Y273820D01*
X188956Y273782D01*
X188779Y273959D01*
Y274311D01*
Y274867D01*
X188800Y274881D01*
X189229Y275310D01*
X189469Y275262D01*
X190121Y275392D01*
X190675Y275762D01*
X191045Y276316D01*
X191093Y276556D01*
X191140Y276316D01*
D02*
G37*
G36*
X479528Y131201D02*
X471063D01*
Y133169D01*
X479528D01*
Y131201D01*
D02*
G37*
%LPC*%
G36*
X480315Y58895D02*
X478810Y58747D01*
X477363Y58308D01*
X476029Y57595D01*
X474860Y56636D01*
X473901Y55467D01*
X473188Y54133D01*
X472749Y52686D01*
X472601Y51181D01*
X472749Y49676D01*
X473188Y48229D01*
X473901Y46895D01*
X474860Y45726D01*
X476029Y44767D01*
X477363Y44054D01*
X478810Y43615D01*
X480315Y43467D01*
X481820Y43615D01*
X483267Y44054D01*
X484601Y44767D01*
X485770Y45726D01*
X486729Y46895D01*
X487442Y48229D01*
X487881Y49676D01*
X488029Y51181D01*
X487881Y52686D01*
X487442Y54133D01*
X486729Y55467D01*
X485770Y56636D01*
X484601Y57595D01*
X483267Y58308D01*
X481820Y58747D01*
X480315Y58895D01*
D02*
G37*
G36*
X110236D02*
X108731Y58747D01*
X107284Y58308D01*
X105950Y57595D01*
X104781Y56636D01*
X103822Y55467D01*
X103109Y54133D01*
X102670Y52686D01*
X102522Y51181D01*
X102670Y49676D01*
X103109Y48229D01*
X103822Y46895D01*
X104781Y45726D01*
X105950Y44767D01*
X107284Y44054D01*
X108731Y43615D01*
X110236Y43467D01*
X111741Y43615D01*
X113188Y44054D01*
X114522Y44767D01*
X115691Y45726D01*
X116650Y46895D01*
X117363Y48229D01*
X117802Y49676D01*
X117950Y51181D01*
X117802Y52686D01*
X117363Y54133D01*
X116650Y55467D01*
X115691Y56636D01*
X114522Y57595D01*
X113188Y58308D01*
X111741Y58747D01*
X110236Y58895D01*
D02*
G37*
%LPD*%
D10*
X283268Y276575D02*
X283366Y276673D01*
Y283366D01*
X247795Y378996D02*
X252756Y383957D01*
X241535Y378996D02*
X247795D01*
X241535D02*
X245827Y374705D01*
X257480Y376083D02*
Y377953D01*
X252756Y382677D02*
X257480Y377953D01*
X252756Y382677D02*
Y383957D01*
D11*
X334449Y299902D02*
Y312697D01*
Y299902D02*
X337205Y297146D01*
X334394Y312697D02*
X334449D01*
X351690Y310940D02*
X355330D01*
X355413Y311024D01*
X351279Y345374D02*
Y352264D01*
X361614Y362598D01*
X308949Y294250D02*
Y297941D01*
X308563Y298327D02*
X308949Y297941D01*
Y294250D02*
X309117Y294418D01*
X287106Y283957D02*
X288098Y282965D01*
X251181Y287008D02*
X254724Y283465D01*
X308653Y283276D02*
X309350Y282579D01*
X299982Y283276D02*
X308653D01*
X294077Y282965D02*
X299671D01*
X294061Y282980D02*
X294077Y282965D01*
X292750Y282980D02*
X294061D01*
X292734Y282965D02*
X292750Y282980D01*
X291419Y282965D02*
X292734D01*
X291404Y282980D02*
X291419Y282965D01*
X290092Y282980D02*
X291404D01*
X290077Y282965D02*
X290092Y282980D01*
X288098Y282965D02*
X290077D01*
X299671D02*
X299982Y283276D01*
X303051Y335925D02*
Y339370D01*
X306102Y342421D01*
X308661D01*
X311024Y344783D01*
X315354D01*
X316535Y345965D01*
X371457Y351575D02*
X382283D01*
X435138Y354232D02*
X444783D01*
X467815Y377264D01*
X479626D01*
X371417Y372618D02*
X374528D01*
X411811Y335335D01*
Y327165D02*
Y335335D01*
X450484Y323236D02*
X451279Y322441D01*
X383866Y323236D02*
X450484D01*
X383268Y322638D02*
X383866Y323236D01*
X319193Y311910D02*
X319291Y311811D01*
X283071Y311910D02*
X319193D01*
X282972Y311811D02*
X283071Y311910D01*
X313976Y280118D02*
X330020D01*
X287120Y283971D02*
X287219D01*
X287106Y283957D02*
X287120Y283971D01*
X330020Y280118D02*
X334646Y284744D01*
Y294882D01*
X336910Y297146D01*
X337205D01*
X332579Y301476D02*
X336910Y297146D01*
X307102Y287416D02*
Y287909D01*
X310531Y287894D02*
Y290453D01*
X308471Y285833D02*
X310531Y287894D01*
X417520Y321654D02*
X423917D01*
X451279Y312598D02*
X460348D01*
X470683Y322933D01*
X471457D01*
X309752Y336819D02*
X313090Y340158D01*
X309752Y329844D02*
Y336819D01*
X310496Y336283D02*
X312221Y338009D01*
X256118Y283874D02*
X256496Y284252D01*
X256118Y282809D02*
Y283874D01*
X250394Y287008D02*
X251181D01*
X255512Y305118D02*
Y313386D01*
X254535Y283465D02*
X254724D01*
X252049Y278740D02*
X256118Y282809D01*
X251575Y278740D02*
X252049D01*
X256496Y284252D02*
Y284744D01*
X273425Y263976D02*
Y265453D01*
X272244Y288090D02*
X304188D01*
X280520Y345972D02*
X307768D01*
X279035Y344488D02*
X280520Y345972D01*
X283661Y344291D02*
X289272D01*
X279626Y340256D02*
X283661Y344291D01*
X272146Y340256D02*
X279626D01*
X307768Y345972D02*
X307972Y345768D01*
X273425Y319980D02*
Y328445D01*
X264469Y337402D02*
X273425Y328445D01*
X285531Y319783D02*
Y338189D01*
Y319094D02*
Y319783D01*
X321949Y313583D02*
X324713Y310819D01*
Y292905D02*
Y310819D01*
Y292905D02*
X331398Y286221D01*
X327461Y297736D02*
X330413Y294783D01*
X330709Y301378D02*
X330807Y301476D01*
X330709Y298228D02*
Y301378D01*
X327461Y297736D02*
Y314370D01*
X306446Y285833D02*
X308471D01*
X304188Y288090D02*
X306446Y285833D01*
X307102Y287909D02*
X308969Y289776D01*
Y289777D01*
X308949Y289797D02*
X308969Y289777D01*
X308949Y289797D02*
Y294250D01*
X312894Y336024D02*
X313681Y336811D01*
X350590D01*
X351772Y335630D01*
X356791D01*
X312221Y338009D02*
X361336D01*
X394193Y298327D02*
X417520Y321654D01*
X418898Y316634D02*
Y319980D01*
X394390Y292126D02*
X418898Y316634D01*
X296850Y322933D02*
X299114Y320669D01*
X312992D01*
X317815Y315846D01*
X325984D01*
X327461Y314370D01*
X292815Y321358D02*
X296358Y317815D01*
X312303D01*
X316535Y313583D01*
X321949D01*
X324024Y343807D02*
X330413Y350197D01*
X308169Y339567D02*
X312409Y343807D01*
X324024D01*
X316831Y342224D02*
X357579D01*
X466535Y275590D02*
X466634Y275689D01*
X469193D01*
X467323Y277461D02*
X469193D01*
X466634Y278150D02*
X467323Y277461D01*
X446949Y291142D02*
X446949Y291142D01*
X442126Y291142D02*
X446949D01*
X414370Y291339D02*
X416831D01*
X411417Y288386D02*
X414370Y291339D01*
X436909Y277067D02*
X437992Y278150D01*
X435039Y277067D02*
X436909D01*
X435039Y275295D02*
X435138Y275197D01*
X436713D01*
X437697Y274213D01*
Y272539D02*
Y274213D01*
X192717Y272244D02*
X194291Y273819D01*
X192717Y271949D02*
Y272244D01*
Y276969D02*
X192913D01*
X194291Y275590D01*
X187500Y273819D02*
X189075Y272244D01*
X189665D01*
X188091Y275590D02*
X189469Y276969D01*
X187500Y275590D02*
X188091D01*
X175984Y261319D02*
X177461Y259842D01*
X175984Y261319D02*
Y277165D01*
X318898Y298031D02*
Y308169D01*
X356496Y306102D02*
X362402Y300197D01*
X356496Y306102D02*
Y309941D01*
X355413Y311024D02*
X356496Y309941D01*
X221850Y287894D02*
X222047D01*
X218898Y290846D02*
X221850Y287894D01*
X184744Y290846D02*
X218898D01*
X184646Y290945D02*
X184744Y290846D01*
X330413Y350197D02*
Y355847D01*
X438484Y400689D02*
X438583Y400787D01*
X320669Y356102D02*
X320768Y356201D01*
Y361417D01*
X340354Y349902D02*
X344685Y354232D01*
Y376772D01*
X452067Y385433D02*
X452264Y385236D01*
X452067Y385433D02*
Y390059D01*
X438583Y400689D02*
Y400787D01*
X440945Y388287D02*
Y400565D01*
X428839Y400098D02*
X431012Y402272D01*
X439238D02*
X440945Y400565D01*
X431012Y402272D02*
X439238D01*
X438484Y393701D02*
Y400689D01*
X428839Y393898D02*
Y400098D01*
X391142Y378150D02*
X399016Y386024D01*
X433760Y383478D02*
Y384013D01*
X427152Y376870D02*
X433760Y383478D01*
X436527Y386920D02*
X438484Y388878D01*
X400984Y388484D02*
X402548Y386920D01*
X436527D01*
X434765Y388503D02*
Y388758D01*
X399016Y386024D02*
X438681D01*
X433563Y389961D02*
X434765Y388758D01*
X438484Y388878D02*
Y393701D01*
X438681Y386024D02*
X440945Y388287D01*
X452264Y381679D02*
Y385236D01*
X447455Y376870D02*
X452264Y381679D01*
X433563Y390846D02*
Y393701D01*
Y389961D02*
Y390846D01*
X369193Y340158D02*
X369291Y340059D01*
X313090Y340158D02*
X369193D01*
X310496Y329536D02*
Y336283D01*
X305640Y325732D02*
X309752Y329844D01*
X305948Y324988D02*
X310496Y329536D01*
X295724Y325732D02*
X305640D01*
X292039Y324988D02*
X305948D01*
X294882Y326575D02*
X295724Y325732D01*
X291732Y325295D02*
X292039Y324988D01*
X294882Y326575D02*
Y326673D01*
X270571Y338681D02*
X272146Y340256D01*
X330413Y355847D02*
X330669Y356102D01*
X308169Y331988D02*
Y339567D01*
X276083Y294094D02*
X276378Y294390D01*
X276083Y293209D02*
Y294094D01*
X330669Y377362D02*
X337657Y370374D01*
X338976D01*
X428642Y393701D02*
X428839Y393898D01*
X391142Y371654D02*
Y378150D01*
X400984Y390650D02*
Y393799D01*
Y388484D02*
Y390650D01*
X415945Y398327D02*
X426575Y387697D01*
X397539Y398327D02*
X415945D01*
X430413Y387697D02*
X433563Y390846D01*
X426575Y387697D02*
X430413D01*
X396063Y396850D02*
X397539Y398327D01*
X396063Y393799D02*
Y396850D01*
X391142Y397638D02*
Y397933D01*
X423228Y399114D02*
X428642Y393701D01*
X392618Y399114D02*
X423228D01*
X391142Y397638D02*
X392618Y399114D01*
X391142Y393799D02*
Y397638D01*
X363763Y388107D02*
Y391125D01*
X397244Y386910D02*
X400984Y390650D01*
X364961Y386910D02*
X397244D01*
X363763Y388107D02*
X364961Y386910D01*
X396063Y391339D02*
Y393799D01*
X392421Y387697D02*
X396063Y391339D01*
X389961Y387697D02*
X392421D01*
X386319Y391339D02*
X389961Y387697D01*
X386319Y391339D02*
Y395177D01*
X383169Y398327D02*
X386319Y395177D01*
X360433Y398327D02*
X383169D01*
X358842Y396735D02*
X360433Y398327D01*
X358842Y393598D02*
Y396735D01*
Y391519D02*
Y393598D01*
X389764Y399311D02*
X391142Y397933D01*
X375886Y399311D02*
X389764D01*
X375787Y399410D02*
X375886Y399311D01*
X355413Y399410D02*
X375787D01*
X353921Y397917D02*
X355413Y399410D01*
X353921Y393598D02*
Y397917D01*
X326181Y389961D02*
X329921Y386221D01*
X325984Y390158D02*
X326181Y389961D01*
X363763Y391125D02*
Y393598D01*
X358858Y386221D02*
X363763Y391125D01*
X329921Y386221D02*
X358858D01*
X325984Y390158D02*
Y393701D01*
X355020Y387697D02*
X358842Y391519D01*
X352461Y387697D02*
X355020D01*
X350492Y389665D02*
X352461Y387697D01*
X350492Y389665D02*
Y395669D01*
X347736Y398425D02*
X350492Y395669D01*
X321949Y398425D02*
X347736D01*
X321063Y397539D02*
X321949Y398425D01*
X321063Y393701D02*
Y397539D01*
X353740Y393778D02*
X353921Y393598D01*
X353740Y393778D02*
Y398622D01*
X352756Y399606D02*
X353740Y398622D01*
X317421Y399606D02*
X352756D01*
X316142Y398327D02*
X317421Y399606D01*
X316142Y393701D02*
Y398327D01*
X320669Y376181D02*
Y377362D01*
X272441Y302756D02*
X272539Y302854D01*
X274016D01*
X287598Y317717D02*
X287697Y317618D01*
X287598Y317717D02*
Y340256D01*
X221358Y376673D02*
X223465D01*
X225433Y374705D01*
X239567Y381693D02*
X241732Y383858D01*
X239567Y378996D02*
Y381693D01*
X214264Y318201D02*
X233465Y337402D01*
X189673Y318201D02*
X214264D01*
X189272Y318602D02*
X189673Y318201D01*
X200000Y319783D02*
Y327953D01*
X239075Y353248D02*
X239173Y353150D01*
X225984Y353248D02*
X239075D01*
X221555Y357677D02*
X225984Y353248D01*
X221555Y357677D02*
Y365256D01*
X223130Y366831D01*
X225433D01*
X216929Y371071D02*
X217232Y370768D01*
X225433D01*
X216929Y371071D02*
X217137Y371278D01*
X216240Y368799D02*
X225433D01*
X215650Y369390D02*
X216240Y368799D01*
X253740Y337402D02*
X264469D01*
X275295Y322146D02*
Y330217D01*
X259941Y345571D02*
X275295Y330217D01*
X253543Y345571D02*
X259941D01*
X233465Y337402D02*
X246654D01*
X214173Y322835D02*
X215551D01*
X238287Y345571D01*
X246457D01*
X268406Y263779D02*
X269390Y262795D01*
X269587D01*
X273425Y262598D02*
Y263976D01*
X273242Y263989D02*
X273412D01*
X273425Y263976D01*
X291929Y266929D02*
Y269685D01*
X291437Y266437D02*
X291929Y266929D01*
X295093Y269699D02*
Y269895D01*
X295079Y269685D02*
X295093Y269699D01*
X291929Y269685D02*
X295079D01*
X291929D02*
Y276575D01*
X307382Y323721D02*
X307579Y323917D01*
X304331Y323721D02*
X307382D01*
X307579Y323917D02*
X307579Y323918D01*
X308661D01*
X308775Y324032D01*
X307579Y298327D02*
X308563D01*
D13*
X475295Y131102D02*
Y135876D01*
X405905Y132087D02*
Y135679D01*
X184153Y132382D02*
Y136565D01*
X297813Y285750D02*
X299016Y284547D01*
X275120Y285750D02*
X297813D01*
X274803Y285433D02*
X275120Y285750D01*
X273425Y294390D02*
X273425Y294390D01*
X270374Y294390D02*
X273425D01*
X312197Y291304D02*
Y297449D01*
Y291304D02*
X312311Y291190D01*
Y289716D02*
Y291190D01*
X312197Y289601D02*
X312311Y289716D01*
X312197Y273039D02*
Y289601D01*
X304331Y305315D02*
X312197Y297449D01*
Y273039D02*
X314567Y270669D01*
X451279Y322441D02*
X456693Y327854D01*
X471457D01*
X462205Y348425D02*
X471457Y339173D01*
Y332776D02*
Y339173D01*
X255118Y132677D02*
Y136368D01*
X301181Y281594D02*
X304626D01*
X279331Y305315D02*
X304331D01*
X276673Y307972D02*
X279331Y305315D01*
X276673Y307972D02*
Y314173D01*
X304626Y281594D02*
X306791Y279429D01*
X307776Y278445D01*
Y271555D02*
Y278445D01*
X273425Y294390D02*
X276378D01*
X314567Y263583D02*
X314567Y263583D01*
X314567Y257677D02*
Y263583D01*
Y257677D02*
X317383Y254861D01*
X328925D01*
X335925Y253839D02*
Y258661D01*
Y253839D02*
X341732Y248031D01*
X278937Y387008D02*
Y391142D01*
D15*
X237598Y385380D02*
X237848Y385630D01*
X237598Y378996D02*
Y385380D01*
X235577Y385630D02*
X235630Y385577D01*
Y378996D02*
Y385577D01*
D83*
X268406Y263779D02*
D03*
X266634D02*
D03*
X273425Y265453D02*
D03*
X271654D02*
D03*
X273425Y262598D02*
D03*
X271654D02*
D03*
X271555Y271161D02*
D03*
X273327D02*
D03*
X322146Y350492D02*
D03*
X323917D02*
D03*
X304331Y323721D02*
D03*
X302559D02*
D03*
X304921Y326772D02*
D03*
X303150D02*
D03*
X307087Y298327D02*
D03*
X305315D02*
D03*
X275787Y302854D02*
D03*
X274016D02*
D03*
X332579Y301476D02*
D03*
X330807D02*
D03*
D84*
X246654Y337402D02*
D03*
X253740D02*
D03*
X246457Y345571D02*
D03*
X253543D02*
D03*
X177461Y259842D02*
D03*
X184547D02*
D03*
X442126Y291142D02*
D03*
X435039D02*
D03*
X416831Y291339D02*
D03*
X423917D02*
D03*
D86*
X241732Y383858D02*
D03*
Y385630D02*
D03*
X469193Y277461D02*
D03*
Y275689D02*
D03*
X435039Y277067D02*
D03*
Y275295D02*
D03*
X307776Y294587D02*
D03*
Y292815D02*
D03*
X307579Y323917D02*
D03*
Y322146D02*
D03*
X276378Y294390D02*
D03*
Y296161D02*
D03*
X273425Y294390D02*
D03*
Y296161D02*
D03*
X187500Y275590D02*
D03*
Y273819D02*
D03*
X194291Y273819D02*
D03*
Y275590D02*
D03*
D90*
X447455Y376870D02*
D03*
X427152D02*
D03*
D91*
X443405Y393701D02*
D03*
X438484D02*
D03*
X433563D02*
D03*
X428642D02*
D03*
X330906D02*
D03*
X325984D02*
D03*
X321063D02*
D03*
X316142D02*
D03*
X368684Y393598D02*
D03*
X363763D02*
D03*
X358842D02*
D03*
X353921D02*
D03*
X405905Y393799D02*
D03*
X400984D02*
D03*
X396063D02*
D03*
X391142D02*
D03*
D92*
X450705Y406501D02*
D03*
X421306D02*
D03*
X338206D02*
D03*
X308805D02*
D03*
X375984Y406398D02*
D03*
X346584D02*
D03*
X413205Y406599D02*
D03*
X383805D02*
D03*
D94*
X369193Y250197D02*
D03*
Y243110D02*
D03*
X377165Y250197D02*
D03*
Y243110D02*
D03*
X314567Y270669D02*
D03*
Y263583D02*
D03*
X338976Y370374D02*
D03*
Y363287D02*
D03*
X257480Y368996D02*
D03*
Y376083D02*
D03*
D95*
X391142Y371654D02*
D03*
X399803D02*
D03*
X278051Y392028D02*
D03*
X286713D02*
D03*
D112*
X475295Y135876D02*
D03*
Y148376D02*
D03*
X405905Y135679D02*
D03*
Y148179D02*
D03*
X255118Y136368D02*
D03*
Y148868D02*
D03*
X184153Y136565D02*
D03*
Y149065D02*
D03*
D123*
X349114Y315059D02*
X356988D01*
X368799Y231496D02*
X377165Y239862D01*
Y286024D02*
X377264Y286122D01*
X213209Y175374D02*
X214843D01*
X377067Y286319D02*
X377264Y286122D01*
X377165Y250197D02*
Y286024D01*
X369193Y250197D02*
X377165D01*
Y239862D02*
Y243110D01*
X368799Y231496D02*
Y231594D01*
X334646Y196752D02*
Y230020D01*
Y196752D02*
X359646Y171752D01*
X203740Y184843D02*
X213209Y175374D01*
X214843Y175372D02*
Y175374D01*
X214577Y175107D02*
X214843Y175372D01*
D124*
X346850Y312795D02*
Y316929D01*
Y312795D02*
X352876Y306769D01*
X339272Y276673D02*
Y313189D01*
X334449Y318012D02*
X339272Y313189D01*
X263287Y277953D02*
Y286122D01*
X322581Y330906D02*
X335931D01*
X322497Y330990D02*
X322581Y330906D01*
X321204Y330990D02*
X322497D01*
X321119Y330906D02*
X321204Y330990D01*
X312992Y330906D02*
X321119D01*
X335931D02*
X340407Y326430D01*
X259055Y287992D02*
X259449D01*
X257677Y291732D02*
X263287Y286122D01*
X259842Y292224D02*
X265650Y286417D01*
X258939Y288569D02*
X259482Y288026D01*
X208522Y263707D02*
X233383Y288569D01*
X258939D01*
X230359Y283563D02*
X252264D01*
X231041Y285236D02*
X245669D01*
X246063D01*
X209941Y263145D02*
X230359Y283563D01*
X209222Y263417D02*
X231041Y285236D01*
X240375Y298532D02*
X298909D01*
X240373Y297539D02*
X294882D01*
X451476Y176772D02*
X456201D01*
X449727Y175023D02*
X451476Y176772D01*
X383737Y175023D02*
X449727D01*
X456201Y176772D02*
X457002Y175970D01*
X452165Y175984D02*
X455597D01*
X450503Y174322D02*
X452165Y175984D01*
X380205Y174322D02*
X450503D01*
X455597Y175984D02*
X456398Y175184D01*
X457959Y175014D02*
X458858Y174114D01*
X457959Y175014D02*
Y175056D01*
X457044Y175970D02*
X457959Y175056D01*
X457002Y175970D02*
X457044D01*
X456398Y174409D02*
Y175184D01*
X378150Y173622D02*
X453248D01*
X453642Y174016D01*
X259646Y287894D02*
Y288189D01*
X259482Y288026D02*
X259498Y288041D01*
X259449Y287992D02*
X259482Y288026D01*
X210641Y262855D02*
X229676Y281890D01*
X250689D01*
X213443Y189213D02*
X217912Y184744D01*
X260249Y280721D02*
Y282691D01*
X254666Y275138D02*
X260249Y280721D01*
X265650Y277953D02*
Y286417D01*
X227176Y274199D02*
X280669D01*
X257677Y291732D02*
Y294193D01*
X239578Y295754D02*
X265521D01*
X207821Y263997D02*
X239578Y295754D01*
X265521D02*
X269627Y291648D01*
X259498Y288041D02*
X259646Y288189D01*
X259498Y288041D02*
X259646Y287894D01*
X253937Y279077D02*
X260785Y285925D01*
X260827D01*
X255807Y315945D02*
X301870D01*
X205020Y265158D02*
X255807Y315945D01*
X212742Y187157D02*
X217913Y181986D01*
X293406Y280610D02*
Y281398D01*
Y280610D02*
X297638Y276378D01*
X290650Y281398D02*
X290748D01*
X287894Y278642D02*
X290650Y281398D01*
X287894Y275197D02*
Y278642D01*
X286876Y274179D02*
X287894Y275197D01*
X320866Y281988D02*
Y292126D01*
X305315Y307677D02*
X320866Y292126D01*
X279626Y307677D02*
X305315D01*
X321457Y329823D02*
X336024D01*
X321457D02*
X321850Y329429D01*
X364764Y191598D02*
Y259449D01*
Y191598D02*
X366992Y189370D01*
X253937Y278895D02*
Y279077D01*
X252221Y277179D02*
X253937Y278895D01*
X255166Y279134D02*
X256201D01*
X252511Y276479D02*
X255166Y279134D01*
X212042Y262036D02*
X227186Y277179D01*
X212742Y261746D02*
X227476Y276479D01*
X340551Y326575D02*
X340650Y326476D01*
X363386D01*
X369291Y320571D01*
Y293339D02*
Y320571D01*
X362140Y286187D02*
X369291Y293339D01*
X352876Y290615D02*
Y306769D01*
X348031Y306398D02*
X351575Y302854D01*
Y271555D02*
Y302854D01*
X353642Y293602D02*
X361439Y285805D01*
X211342Y181965D02*
X216043Y177264D01*
X227476Y276479D02*
X252511D01*
X227186Y277179D02*
X252221D01*
X269627Y291648D02*
X284462D01*
X284955Y292140D01*
X240473Y299620D02*
X283380D01*
X247146Y310138D02*
Y318701D01*
X205720Y264867D02*
X240473Y299620D01*
X205720Y205720D02*
Y264867D01*
X283380Y299620D02*
X283957Y300197D01*
X252362Y301181D02*
X262303D01*
X248524Y305020D02*
X252362Y301181D01*
X247146Y318701D02*
X249803Y321358D01*
Y351969D01*
X253248Y355413D01*
X314980D01*
X315669Y356102D01*
X205020Y206010D02*
Y265158D01*
X294882Y297539D02*
X298819Y293602D01*
X298909Y298532D02*
X302953Y294488D01*
X280688Y274179D02*
X286876D01*
X280669Y274199D02*
X280688Y274179D01*
X271555Y271161D02*
X271555Y271161D01*
Y272638D01*
X214143Y261165D02*
X227176Y274199D01*
X432480Y176673D02*
X433563Y177756D01*
X437697D01*
X367576Y187795D02*
X439370D01*
X440650Y189370D02*
X444980Y185039D01*
X437587Y187019D02*
X440256Y184350D01*
X367361Y187019D02*
X437587D01*
X433760Y186319D02*
X435925Y184153D01*
X367071Y186319D02*
X433760D01*
X430900Y185543D02*
X435833Y180610D01*
X366857Y185543D02*
X430900D01*
X430610Y184843D02*
X437697Y177756D01*
X366567Y184843D02*
X430610D01*
X380421Y184089D02*
X384983Y179528D01*
X366329Y184089D02*
X380421D01*
X377775Y183389D02*
X381440Y179724D01*
X366039Y183389D02*
X377775D01*
X375719Y182689D02*
X378684Y179724D01*
X365749Y182689D02*
X375719D01*
X374902Y181988D02*
X376673Y180217D01*
X365459Y181988D02*
X374902D01*
X366437Y180020D02*
X373819D01*
X222539Y172145D02*
X227559Y177165D01*
X170177Y175591D02*
X173622Y172145D01*
X217728Y172846D02*
X225295Y180413D01*
X172343Y175591D02*
X175087Y172846D01*
X216994Y173546D02*
X225445Y181997D01*
X174311Y176083D02*
X176848Y173546D01*
X216994D01*
X175087Y172846D02*
X217728D01*
X173622Y172145D02*
X222539D01*
X435833Y180610D02*
X437106D01*
X297638Y276378D02*
X304232D01*
X363203Y192168D02*
X367576Y187795D01*
X363203Y192168D02*
Y260095D01*
X363386Y260278D01*
Y262598D01*
X362140Y192241D02*
Y286187D01*
X361439Y191951D02*
Y285805D01*
X362140Y192241D02*
X367361Y187019D01*
X361439Y191951D02*
X367071Y186319D01*
X366992Y189370D02*
X440650D01*
X382579Y176181D02*
Y179724D01*
Y176181D02*
X383737Y175023D01*
X379232Y179724D02*
X379429Y179528D01*
Y175098D02*
Y179528D01*
Y175098D02*
X380205Y174322D01*
X376673Y179528D02*
X376969Y179232D01*
Y174803D02*
Y179232D01*
Y174803D02*
X378150Y173622D01*
X363386Y262598D02*
X363878D01*
X359741Y192658D02*
Y284845D01*
X352868Y271252D02*
X359041Y265079D01*
Y192368D02*
Y265079D01*
X359741Y192658D02*
X366857Y185543D01*
X359041Y192368D02*
X366567Y184843D01*
X357493Y192926D02*
X366329Y184089D01*
X355887Y193541D02*
X366039Y183389D01*
X355187Y193251D02*
X365749Y182689D01*
X354486Y192961D02*
X365459Y181988D01*
X353786Y192671D02*
X366437Y180020D01*
X353642Y293602D02*
Y308661D01*
X354429Y289961D02*
X354626D01*
X352868Y271252D02*
Y290607D01*
X352876Y290615D01*
X354626Y289961D02*
X359741Y284845D01*
X357480Y262008D02*
X357493Y261995D01*
Y192926D02*
Y261995D01*
X384983Y179528D02*
X386319D01*
X351575Y271555D02*
X355887Y267243D01*
Y193541D02*
Y267243D01*
X354486Y192961D02*
Y266485D01*
X348912Y272059D02*
X354486Y266485D01*
X353786Y192671D02*
Y266195D01*
X348622Y271358D02*
X353786Y266195D01*
X353085Y189926D02*
Y265831D01*
X344547Y274370D02*
X353085Y265831D01*
X352385Y187862D02*
Y265541D01*
X342913Y275012D02*
X352385Y265541D01*
X351685Y185520D02*
Y265251D01*
X341145Y275791D02*
X351685Y265251D01*
X350984Y184013D02*
Y264961D01*
X339272Y276673D02*
X350984Y264961D01*
X381440Y179724D02*
X382579D01*
X350000Y271961D02*
Y281890D01*
Y271961D02*
X355187Y266775D01*
Y193251D02*
Y266775D01*
X348549Y271358D02*
X348622D01*
X346161Y273745D02*
X348549Y271358D01*
X342913Y275012D02*
Y320276D01*
X341145Y275791D02*
Y289964D01*
X378684Y179724D02*
X379232D01*
X348130Y272835D02*
Y302658D01*
Y272835D02*
X348906Y272059D01*
X348912D01*
X376673Y179528D02*
Y180217D01*
X359801Y175197D02*
X360138D01*
X350984Y184013D02*
X359801Y175197D01*
X360335Y179912D02*
X360352Y179930D01*
X353085Y189926D02*
X362894Y180118D01*
X351685Y185520D02*
X359547Y177657D01*
X346161Y273745D02*
Y278445D01*
X336024Y329823D02*
X344547Y321300D01*
Y274370D02*
Y321300D01*
X352385Y187862D02*
X360335Y179912D01*
X325787Y328248D02*
X334941D01*
X342913Y320276D01*
X341145Y289964D02*
X341240Y290059D01*
X319094Y318012D02*
X334449D01*
X278051Y392028D02*
X278937Y391142D01*
X215748Y177264D02*
X216043D01*
X214143Y200916D02*
Y261165D01*
Y200916D02*
X235236Y179823D01*
X225445Y181997D02*
X225995D01*
X174311Y176083D02*
Y178248D01*
X172343Y175591D02*
Y179823D01*
X225295Y180413D02*
X228445D01*
X170177Y181496D02*
X170177Y181496D01*
Y175591D02*
Y181496D01*
X212042Y184610D02*
X217805Y178847D01*
X219007D01*
X217815Y184744D02*
X217912D01*
X212742Y187157D02*
Y261746D01*
X227126Y275138D02*
X254666D01*
X213443Y261456D02*
X227126Y275138D01*
X213443Y189213D02*
Y261456D01*
X217913Y181986D02*
X217924Y181997D01*
X212042Y184610D02*
Y262036D01*
X161417Y189567D02*
X189567D01*
X228051Y279035D02*
X234646D01*
X211342Y262326D02*
X228051Y279035D01*
X211342Y181965D02*
Y262326D01*
X207121Y264287D02*
X240373Y297539D01*
X206420Y264577D02*
X240375Y298532D01*
X209941Y203740D02*
Y263145D01*
X209222Y204098D02*
Y263417D01*
X208522Y204486D02*
Y263707D01*
X207821Y204850D02*
Y263997D01*
X207121Y205140D02*
Y264287D01*
X206420Y205430D02*
Y264577D01*
X210641Y203161D02*
Y262855D01*
X184055Y176575D02*
X210641Y203161D01*
X177362Y176575D02*
X184055D01*
X184449Y178248D02*
X209941Y203740D01*
X174311Y178248D02*
X184449D01*
X184947Y179823D02*
X209222Y204098D01*
X172343Y179823D02*
X184947D01*
X191732Y187697D02*
X208522Y204486D01*
X191732Y187598D02*
Y187697D01*
X185728Y181595D02*
X191732Y187598D01*
X170276Y181595D02*
X185728D01*
X170177Y181496D02*
X170276Y181595D01*
X186535Y183563D02*
X207821Y204850D01*
X167815Y183563D02*
X186535D01*
X190545Y191535D02*
X205020Y206010D01*
X159941Y191535D02*
X190545D01*
X187513Y185531D02*
X207121Y205140D01*
X165453Y185531D02*
X187513D01*
X188786Y187795D02*
X206420Y205430D01*
X163779Y187795D02*
X188786D01*
X189567Y189567D02*
X205720Y205720D01*
X159843Y191634D02*
X159941Y191535D01*
D126*
X399114Y254823D02*
Y259154D01*
Y254823D02*
X429921Y224016D01*
Y216831D02*
Y224016D01*
Y216831D02*
X440158Y206594D01*
D127*
X399213Y274311D02*
X413386D01*
X423917Y284842D01*
Y291339D01*
X424114Y291142D01*
X435039D01*
X250000Y317618D02*
X252658Y320276D01*
X250000Y312795D02*
Y317618D01*
X320669Y351969D02*
X321555Y351083D01*
X325669Y377362D02*
Y381811D01*
X321063Y386417D02*
X325669Y381811D01*
X321063Y386417D02*
Y393701D01*
X328051Y373524D02*
Y383563D01*
X326181Y385433D02*
X328051Y383563D01*
X326181Y385433D02*
Y389961D01*
X294882Y374311D02*
X309449D01*
X341142Y380807D02*
X374902D01*
X381693Y374016D01*
Y370965D02*
Y374016D01*
Y370965D02*
X387992Y364665D01*
X392815D01*
X399803Y371654D01*
X409941D02*
X410138Y371850D01*
X399803Y371654D02*
X409941D01*
X399803D02*
Y379331D01*
X402461Y381988D01*
X472539Y367421D02*
X479626D01*
X462205Y357087D02*
X472539Y367421D01*
X443012Y385236D02*
X449409D01*
X437303Y379528D02*
X443012Y385236D01*
X437303Y376279D02*
Y379528D01*
X325669Y352244D02*
Y356102D01*
X323917Y350492D02*
X325669Y352244D01*
X320669Y351969D02*
Y356102D01*
X326673Y372146D02*
X328051Y373524D01*
X324705Y372146D02*
X326673D01*
X320669Y376181D02*
X324705Y372146D01*
X245827Y372736D02*
X252067D01*
X255807Y368996D01*
X257480D01*
X278740Y387205D02*
X278937Y387008D01*
X269882Y387205D02*
X278740D01*
X269882D02*
Y387205D01*
X167913Y320866D02*
X183661Y305118D01*
X154035Y320866D02*
X167913D01*
X136811Y311614D02*
X143307Y305118D01*
X172165D01*
X178563Y298721D01*
X252658Y320276D02*
X256594D01*
D128*
X369291Y212402D02*
X380610Y223721D01*
X400394D01*
X369291Y212402D02*
X369390Y212303D01*
D135*
X320480Y350008D02*
X321555Y351083D01*
X268110Y349803D02*
X268315Y350008D01*
X320480D01*
X322146Y346850D02*
X322146Y346850D01*
X322146Y346850D02*
Y350492D01*
X321555Y351083D02*
X322146Y350492D01*
X222244Y348130D02*
X227264D01*
X191811Y378563D02*
X222244Y348130D01*
D136*
X275492Y347736D02*
X290354D01*
X275394Y347638D02*
X275492Y347736D01*
D137*
X380906Y259154D02*
X399114D01*
X380610Y258858D02*
X380906Y259154D01*
X196260Y170571D02*
X196358Y170472D01*
X203740Y191142D02*
X209350Y196752D01*
X203740Y184843D02*
Y191142D01*
X196358Y170472D02*
Y170571D01*
X169882D02*
X196260D01*
X164370Y176083D02*
X169882Y170571D01*
X145374Y176083D02*
X164370D01*
D140*
X197638Y259842D02*
X197736Y259941D01*
X184547Y259842D02*
X197638D01*
D148*
X361614Y362598D02*
D03*
X451279Y302756D02*
D03*
Y312598D02*
D03*
X479626Y357579D02*
D03*
Y367421D02*
D03*
X362402Y319882D02*
D03*
Y310039D02*
D03*
X121894Y292114D02*
D03*
Y301957D02*
D03*
X111894Y292114D02*
D03*
Y301957D02*
D03*
X226969Y300197D02*
D03*
Y310039D02*
D03*
X351732Y372618D02*
D03*
X361575D02*
D03*
X351732Y362618D02*
D03*
X371417D02*
D03*
X108071Y164272D02*
D03*
Y174114D02*
D03*
X108268Y114567D02*
D03*
Y124409D02*
D03*
X483268Y264862D02*
D03*
Y274705D02*
D03*
X484055Y185531D02*
D03*
Y195374D02*
D03*
X107972Y210531D02*
D03*
Y220374D02*
D03*
D149*
X451279Y322441D02*
D03*
X479626Y377264D02*
D03*
X362402Y300197D02*
D03*
X121894Y311799D02*
D03*
X111894D02*
D03*
X226969Y319882D02*
D03*
X108071Y183957D02*
D03*
X108268Y134252D02*
D03*
X483268Y284547D02*
D03*
X484055Y205217D02*
D03*
X107972Y230217D02*
D03*
D150*
X311811Y248031D02*
D03*
X341732D02*
D03*
D151*
X371417Y372618D02*
D03*
D152*
X105315Y382697D02*
D03*
D153*
Y372697D02*
D03*
Y362697D02*
D03*
Y352697D02*
D03*
Y342697D02*
D03*
Y332697D02*
D03*
D154*
X138563Y298721D02*
D03*
D155*
X148563D02*
D03*
X158563D02*
D03*
X168563D02*
D03*
X178563D02*
D03*
X188563D02*
D03*
D156*
X295571Y402461D02*
D03*
X269587D02*
D03*
X248425Y402362D02*
D03*
X222441D02*
D03*
D157*
X288071Y202658D02*
D03*
X281339D02*
D03*
X274606D02*
D03*
X267874D02*
D03*
D158*
X261142D02*
D03*
D159*
X301944Y112005D02*
D03*
X287244Y112205D02*
D03*
X451550Y112005D02*
D03*
X436850Y112205D02*
D03*
X378716Y112005D02*
D03*
X364016Y112205D02*
D03*
X229110Y112005D02*
D03*
X214409Y112205D02*
D03*
X158243Y112005D02*
D03*
X143543Y112205D02*
D03*
D160*
X484252Y389764D02*
D03*
X487205Y383858D02*
D03*
Y372047D02*
D03*
Y360236D02*
D03*
Y348425D02*
D03*
X484252Y318898D02*
D03*
Y295275D02*
D03*
X487205Y230315D02*
D03*
X484252Y224409D02*
D03*
X487205Y218504D02*
D03*
X484252Y212598D02*
D03*
Y177165D02*
D03*
X487205Y171260D02*
D03*
X484252Y165354D02*
D03*
X487205Y159449D02*
D03*
X484252Y153543D02*
D03*
X478346Y389764D02*
D03*
X481299Y383858D02*
D03*
Y348425D02*
D03*
X478346Y295275D02*
D03*
Y271654D02*
D03*
Y259842D02*
D03*
X481299Y218504D02*
D03*
X478346Y212598D02*
D03*
Y188976D02*
D03*
Y177165D02*
D03*
X481299Y171260D02*
D03*
X478346Y165354D02*
D03*
X481299Y159449D02*
D03*
X472441Y389764D02*
D03*
X475393Y383858D02*
D03*
X472441Y354331D02*
D03*
X475393Y348425D02*
D03*
X472441Y342520D02*
D03*
X475393Y336614D02*
D03*
Y301181D02*
D03*
X472441Y295275D02*
D03*
X475393Y289370D02*
D03*
Y277559D02*
D03*
Y265748D02*
D03*
X472441Y259842D02*
D03*
Y236220D02*
D03*
Y212598D02*
D03*
X475393Y206693D02*
D03*
X472441Y200787D02*
D03*
Y188976D02*
D03*
X475393Y183071D02*
D03*
X472441Y177165D02*
D03*
X475393Y171260D02*
D03*
X472441Y165354D02*
D03*
X475393Y159449D02*
D03*
X469488Y407480D02*
D03*
X466535Y401575D02*
D03*
X469488Y395669D02*
D03*
X466535Y389764D02*
D03*
X469488Y383858D02*
D03*
Y372047D02*
D03*
Y360236D02*
D03*
Y348425D02*
D03*
Y301181D02*
D03*
X466535Y295275D02*
D03*
X469488Y289370D02*
D03*
Y265748D02*
D03*
X466535Y259842D02*
D03*
Y236220D02*
D03*
X469488Y183071D02*
D03*
X466535Y177165D02*
D03*
Y165354D02*
D03*
X469488Y159449D02*
D03*
X466535Y153543D02*
D03*
X463583Y407480D02*
D03*
X460630Y401575D02*
D03*
X463583Y395669D02*
D03*
X460630Y389764D02*
D03*
X463583Y383858D02*
D03*
X460630Y366142D02*
D03*
Y342520D02*
D03*
Y295275D02*
D03*
Y283465D02*
D03*
X463583Y277559D02*
D03*
X460630Y271654D02*
D03*
X463583Y265748D02*
D03*
X460630Y259842D02*
D03*
X463583Y253937D02*
D03*
X460630Y248031D02*
D03*
X463583Y242126D02*
D03*
X460630Y236220D02*
D03*
X463583Y230315D02*
D03*
X460630Y224409D02*
D03*
Y200787D02*
D03*
X463583Y183071D02*
D03*
Y159449D02*
D03*
X457677Y407480D02*
D03*
Y395669D02*
D03*
X454724Y377953D02*
D03*
X457677Y372047D02*
D03*
X454724Y354331D02*
D03*
Y342520D02*
D03*
Y330709D02*
D03*
X457677Y289370D02*
D03*
X454724Y283465D02*
D03*
X457677Y277559D02*
D03*
X454724Y271654D02*
D03*
X457677Y265748D02*
D03*
X454724Y259842D02*
D03*
X457677Y253937D02*
D03*
X454724Y248031D02*
D03*
X457677Y242126D02*
D03*
X454724Y236220D02*
D03*
X457677Y230315D02*
D03*
X454724Y224409D02*
D03*
Y200787D02*
D03*
X448819Y389764D02*
D03*
X451771Y372047D02*
D03*
X448819Y354331D02*
D03*
X451771Y348425D02*
D03*
X448819Y342520D02*
D03*
Y330709D02*
D03*
X451771Y289370D02*
D03*
Y277559D02*
D03*
Y265748D02*
D03*
X448819Y259842D02*
D03*
X451771Y253937D02*
D03*
X448819Y248031D02*
D03*
X451771Y242126D02*
D03*
X448819Y236220D02*
D03*
X451771Y230315D02*
D03*
X448819Y224409D02*
D03*
Y188976D02*
D03*
X445866Y407480D02*
D03*
X442913Y366142D02*
D03*
X445866Y348425D02*
D03*
X442913Y342520D02*
D03*
Y330709D02*
D03*
Y307086D02*
D03*
X445866Y277559D02*
D03*
X442913Y259842D02*
D03*
X445866Y253937D02*
D03*
Y242126D02*
D03*
X442913Y236220D02*
D03*
X445866Y230315D02*
D03*
Y206693D02*
D03*
Y194882D02*
D03*
X439960Y407480D02*
D03*
Y372047D02*
D03*
X437008Y366142D02*
D03*
X439960Y360236D02*
D03*
Y348425D02*
D03*
X437008Y342520D02*
D03*
Y330709D02*
D03*
Y318898D02*
D03*
Y307086D02*
D03*
X439960Y301181D02*
D03*
Y265748D02*
D03*
X437008Y259842D02*
D03*
Y236220D02*
D03*
Y200787D02*
D03*
X439960Y194882D02*
D03*
X434055Y407480D02*
D03*
Y360236D02*
D03*
X431102Y342520D02*
D03*
Y318898D02*
D03*
Y307086D02*
D03*
X434055Y301181D02*
D03*
X431102Y283465D02*
D03*
Y271654D02*
D03*
X434055Y265748D02*
D03*
X431102Y259842D02*
D03*
Y236220D02*
D03*
X434055Y206693D02*
D03*
Y159449D02*
D03*
X428150Y407480D02*
D03*
Y383858D02*
D03*
Y360236D02*
D03*
Y348425D02*
D03*
Y336614D02*
D03*
X425197Y330709D02*
D03*
Y318898D02*
D03*
Y307086D02*
D03*
X428150Y277559D02*
D03*
X425197Y271654D02*
D03*
X428150Y265748D02*
D03*
X425197Y259842D02*
D03*
X428150Y253937D02*
D03*
X425197Y248031D02*
D03*
X428150Y242126D02*
D03*
X425197Y177165D02*
D03*
X422244Y395669D02*
D03*
X419291Y389764D02*
D03*
X422244Y360236D02*
D03*
Y348425D02*
D03*
X419291Y342520D02*
D03*
X422244Y336614D02*
D03*
X419291Y330709D02*
D03*
X422244Y277559D02*
D03*
X419291Y271654D02*
D03*
X422244Y265748D02*
D03*
X419291Y259842D02*
D03*
X422244Y253937D02*
D03*
X419291Y248031D02*
D03*
X422244Y242126D02*
D03*
X419291Y224409D02*
D03*
X422244Y194882D02*
D03*
X413386Y389764D02*
D03*
X416338Y383858D02*
D03*
X413386Y377953D02*
D03*
Y366142D02*
D03*
X416338Y360236D02*
D03*
Y348425D02*
D03*
X413386Y342520D02*
D03*
X416338Y336614D02*
D03*
X413386Y307086D02*
D03*
X416338Y301181D02*
D03*
Y265748D02*
D03*
X413386Y259842D02*
D03*
X416338Y253937D02*
D03*
X413386Y248031D02*
D03*
X416338Y230315D02*
D03*
Y159449D02*
D03*
X413386Y153543D02*
D03*
X407480Y401575D02*
D03*
X410433Y395669D02*
D03*
Y383858D02*
D03*
X407480Y366142D02*
D03*
X410433Y360236D02*
D03*
Y348425D02*
D03*
X407480Y342520D02*
D03*
Y330709D02*
D03*
X410433Y301181D02*
D03*
X407480Y295275D02*
D03*
Y283465D02*
D03*
X410433Y277559D02*
D03*
X407480Y259842D02*
D03*
X410433Y253937D02*
D03*
Y230315D02*
D03*
X407480Y200787D02*
D03*
Y177165D02*
D03*
X410433Y171260D02*
D03*
X407480Y165354D02*
D03*
X410433Y159449D02*
D03*
X404527Y407480D02*
D03*
X401575Y401575D02*
D03*
Y366142D02*
D03*
X404527Y360236D02*
D03*
Y348425D02*
D03*
X401575Y342520D02*
D03*
X404527Y336614D02*
D03*
X401575Y330709D02*
D03*
Y318898D02*
D03*
X404527Y312992D02*
D03*
Y289370D02*
D03*
Y277559D02*
D03*
Y265748D02*
D03*
Y242126D02*
D03*
Y230315D02*
D03*
X401575Y212598D02*
D03*
X404527Y206693D02*
D03*
X401575Y200787D02*
D03*
X404527Y194882D02*
D03*
Y159449D02*
D03*
X398622Y407480D02*
D03*
X395669Y401575D02*
D03*
X398622Y360236D02*
D03*
X395669Y342520D02*
D03*
X398622Y336614D02*
D03*
X395669Y248031D02*
D03*
X398622Y242126D02*
D03*
Y230315D02*
D03*
Y218504D02*
D03*
X395669Y212598D02*
D03*
X398622Y206693D02*
D03*
X395669Y177165D02*
D03*
X398622Y159449D02*
D03*
X395669Y153543D02*
D03*
X392716Y407480D02*
D03*
X389764Y401575D02*
D03*
X392716Y383858D02*
D03*
Y360236D02*
D03*
Y348425D02*
D03*
X389764Y342520D02*
D03*
Y330709D02*
D03*
X392716Y312992D02*
D03*
X389764Y307086D02*
D03*
X392716Y301181D02*
D03*
Y277559D02*
D03*
Y265748D02*
D03*
Y253937D02*
D03*
X389764Y248031D02*
D03*
X392716Y242126D02*
D03*
Y230315D02*
D03*
Y218504D02*
D03*
X389764Y212598D02*
D03*
X392716Y206693D02*
D03*
Y159449D02*
D03*
X383858Y389764D02*
D03*
X386811Y383858D02*
D03*
X383858Y377953D02*
D03*
X386811Y348425D02*
D03*
X383858Y342520D02*
D03*
Y318898D02*
D03*
X386811Y312992D02*
D03*
X383858Y307086D02*
D03*
X386811Y301181D02*
D03*
X383858Y295275D02*
D03*
Y283465D02*
D03*
X386811Y277559D02*
D03*
Y230315D02*
D03*
Y218504D02*
D03*
X383858Y212598D02*
D03*
X386811Y206693D02*
D03*
X383858Y200787D02*
D03*
X380905Y395669D02*
D03*
X377953Y389764D02*
D03*
X380905Y383858D02*
D03*
X377953Y366142D02*
D03*
X380905Y360236D02*
D03*
Y348425D02*
D03*
X377953Y342520D02*
D03*
Y318898D02*
D03*
X380905Y312992D02*
D03*
Y301181D02*
D03*
Y289370D02*
D03*
X375000Y395669D02*
D03*
Y383858D02*
D03*
X372047Y354331D02*
D03*
Y342520D02*
D03*
Y318898D02*
D03*
Y307086D02*
D03*
Y295275D02*
D03*
Y283465D02*
D03*
Y224409D02*
D03*
X369094Y407480D02*
D03*
X366142Y401575D02*
D03*
Y354331D02*
D03*
X369094Y348425D02*
D03*
Y289370D02*
D03*
Y194882D02*
D03*
X363189Y407480D02*
D03*
Y383858D02*
D03*
X360236Y354331D02*
D03*
X363189Y348425D02*
D03*
X360236Y165354D02*
D03*
X363189Y159449D02*
D03*
X357283Y407480D02*
D03*
X354331Y401575D02*
D03*
X357283Y348425D02*
D03*
Y159449D02*
D03*
X351378Y407480D02*
D03*
X348425Y389764D02*
D03*
X351378Y383858D02*
D03*
X348425Y377953D02*
D03*
Y259842D02*
D03*
Y248031D02*
D03*
Y212598D02*
D03*
Y177165D02*
D03*
X345472Y348425D02*
D03*
X342520Y259842D02*
D03*
X345472Y242126D02*
D03*
Y230315D02*
D03*
X342520Y224409D02*
D03*
Y177165D02*
D03*
X345472Y171260D02*
D03*
X342520Y165354D02*
D03*
X339567Y395669D02*
D03*
X336614Y389764D02*
D03*
X339567Y383858D02*
D03*
X336614Y271654D02*
D03*
X339567Y265748D02*
D03*
X336614Y248031D02*
D03*
X339567Y242126D02*
D03*
Y230315D02*
D03*
Y218504D02*
D03*
X336614Y177165D02*
D03*
X339567Y171260D02*
D03*
X333661Y383858D02*
D03*
Y324803D02*
D03*
X330709Y271654D02*
D03*
X333661Y265748D02*
D03*
X330709Y248031D02*
D03*
X333661Y242126D02*
D03*
X330709Y224409D02*
D03*
Y188976D02*
D03*
X333661Y171260D02*
D03*
X327756Y407480D02*
D03*
X324803Y366142D02*
D03*
Y271654D02*
D03*
Y248031D02*
D03*
X327756Y242126D02*
D03*
Y230315D02*
D03*
X324803Y224409D02*
D03*
X327756Y194882D02*
D03*
X324803Y188976D02*
D03*
X321850Y407480D02*
D03*
Y265748D02*
D03*
X318898Y248031D02*
D03*
X321850Y242126D02*
D03*
Y230315D02*
D03*
X318898Y224409D02*
D03*
X321850Y194882D02*
D03*
X318898Y188976D02*
D03*
X315945Y407480D02*
D03*
X312992Y389764D02*
D03*
Y366142D02*
D03*
X315945Y230315D02*
D03*
X312992Y224409D02*
D03*
X315945Y218504D02*
D03*
X312992Y212598D02*
D03*
X315945Y206693D02*
D03*
X312992Y200787D02*
D03*
X315945Y194882D02*
D03*
X312992Y188976D02*
D03*
X315945Y183071D02*
D03*
X312992Y165354D02*
D03*
X307086Y389764D02*
D03*
Y366142D02*
D03*
X310039Y230315D02*
D03*
X307086Y224409D02*
D03*
X310039Y218504D02*
D03*
X307086Y212598D02*
D03*
X310039Y206693D02*
D03*
X307086Y200787D02*
D03*
X310039Y194882D02*
D03*
Y171260D02*
D03*
X307086Y165354D02*
D03*
X301181Y401575D02*
D03*
Y389764D02*
D03*
Y366142D02*
D03*
Y271654D02*
D03*
X304134Y265748D02*
D03*
X301181Y259842D02*
D03*
Y248031D02*
D03*
X304134Y242126D02*
D03*
Y230315D02*
D03*
X301181Y224409D02*
D03*
X304134Y218504D02*
D03*
X301181Y212598D02*
D03*
X304134Y206693D02*
D03*
X301181Y200787D02*
D03*
X304134Y194882D02*
D03*
X301181Y177165D02*
D03*
X304134Y171260D02*
D03*
X301181Y165354D02*
D03*
X304134Y159449D02*
D03*
X301181Y153543D02*
D03*
X295275Y259842D02*
D03*
Y248031D02*
D03*
X298228Y242126D02*
D03*
Y230315D02*
D03*
Y218504D02*
D03*
Y206693D02*
D03*
Y183071D02*
D03*
X295275Y177165D02*
D03*
X298228Y171260D02*
D03*
X295275Y165354D02*
D03*
X298228Y159449D02*
D03*
X295275Y153543D02*
D03*
X292323Y372047D02*
D03*
X289370Y366142D02*
D03*
Y248031D02*
D03*
X292323Y242126D02*
D03*
Y230315D02*
D03*
X289370Y188976D02*
D03*
X292323Y159449D02*
D03*
X289370Y153543D02*
D03*
Y129921D02*
D03*
X283465Y259842D02*
D03*
Y248031D02*
D03*
X286417Y242126D02*
D03*
Y230315D02*
D03*
X283465Y188976D02*
D03*
X286417Y159449D02*
D03*
X283465Y153543D02*
D03*
Y129921D02*
D03*
X286417Y124016D02*
D03*
X280512Y360236D02*
D03*
Y324803D02*
D03*
X277559Y318898D02*
D03*
Y248031D02*
D03*
X280512Y242126D02*
D03*
Y230315D02*
D03*
X277559Y188976D02*
D03*
Y177165D02*
D03*
Y165354D02*
D03*
X280512Y159449D02*
D03*
X277559Y153543D02*
D03*
Y141732D02*
D03*
Y129921D02*
D03*
X280512Y124016D02*
D03*
X277559Y118110D02*
D03*
X274606Y383858D02*
D03*
X271654Y377953D02*
D03*
Y342520D02*
D03*
Y248031D02*
D03*
X274606Y242126D02*
D03*
Y230315D02*
D03*
Y194882D02*
D03*
Y183071D02*
D03*
X271654Y177165D02*
D03*
X274606Y171260D02*
D03*
X271654Y165354D02*
D03*
X274606Y159449D02*
D03*
X271654Y153543D02*
D03*
X274606Y147638D02*
D03*
X271654Y141732D02*
D03*
X274606Y135827D02*
D03*
X271654Y129921D02*
D03*
X274606Y124016D02*
D03*
X271654Y118110D02*
D03*
X274606Y112205D02*
D03*
X265748Y377953D02*
D03*
X268701Y372047D02*
D03*
X265748Y366142D02*
D03*
X268701Y360236D02*
D03*
X265748Y330709D02*
D03*
Y248031D02*
D03*
X268701Y242126D02*
D03*
Y230315D02*
D03*
Y171260D02*
D03*
X265748Y165354D02*
D03*
X268701Y159449D02*
D03*
X265748Y153543D02*
D03*
X268701Y147638D02*
D03*
X265748Y141732D02*
D03*
X268701Y135827D02*
D03*
X265748Y129921D02*
D03*
X268701Y124016D02*
D03*
X262795Y407480D02*
D03*
X259842Y401575D02*
D03*
X262795Y395669D02*
D03*
X259842Y389764D02*
D03*
X262795Y383858D02*
D03*
Y372047D02*
D03*
Y360236D02*
D03*
X259842Y342520D02*
D03*
Y330709D02*
D03*
X262795Y324803D02*
D03*
Y312992D02*
D03*
X259842Y248031D02*
D03*
X262795Y242126D02*
D03*
Y230315D02*
D03*
Y194882D02*
D03*
Y171260D02*
D03*
X259842Y165354D02*
D03*
X262795Y159449D02*
D03*
Y147638D02*
D03*
Y135827D02*
D03*
Y124016D02*
D03*
X256890Y407480D02*
D03*
X253937Y401575D02*
D03*
X256890Y395669D02*
D03*
X253937Y389764D02*
D03*
X256890Y383858D02*
D03*
Y360236D02*
D03*
X253937Y330709D02*
D03*
X256890Y324803D02*
D03*
Y265748D02*
D03*
X253937Y248031D02*
D03*
X256890Y242126D02*
D03*
Y230315D02*
D03*
X253937Y200787D02*
D03*
X256890Y194882D02*
D03*
X253937Y188976D02*
D03*
X256890Y171260D02*
D03*
X253937Y165354D02*
D03*
X256890Y159449D02*
D03*
X250984Y360236D02*
D03*
X248031Y354331D02*
D03*
Y236220D02*
D03*
X250984Y206693D02*
D03*
X248031Y200787D02*
D03*
X250984Y194882D02*
D03*
X248031Y188976D02*
D03*
X250984Y171260D02*
D03*
X248031Y165354D02*
D03*
X250984Y159449D02*
D03*
X248031Y153543D02*
D03*
X242126Y342520D02*
D03*
Y330709D02*
D03*
Y307086D02*
D03*
X245079Y242126D02*
D03*
Y194882D02*
D03*
X242126Y177165D02*
D03*
Y165354D02*
D03*
X245079Y159449D02*
D03*
X236220Y307086D02*
D03*
Y271654D02*
D03*
Y259842D02*
D03*
X230315Y342520D02*
D03*
Y330709D02*
D03*
X233268Y324803D02*
D03*
Y312992D02*
D03*
X230315Y271654D02*
D03*
X233268Y265748D02*
D03*
X227362Y360236D02*
D03*
X224409Y236220D02*
D03*
Y224409D02*
D03*
Y212598D02*
D03*
Y200787D02*
D03*
X218504Y377953D02*
D03*
X221457Y336614D02*
D03*
X218504Y307086D02*
D03*
Y295275D02*
D03*
Y248031D02*
D03*
Y200787D02*
D03*
X215551Y407480D02*
D03*
X212598Y401575D02*
D03*
X215551Y395669D02*
D03*
X212598Y389764D02*
D03*
X215551Y383858D02*
D03*
X212598Y377953D02*
D03*
Y366142D02*
D03*
X215551Y360236D02*
D03*
Y348425D02*
D03*
Y336614D02*
D03*
Y312992D02*
D03*
Y301181D02*
D03*
X212598Y295275D02*
D03*
Y283465D02*
D03*
X215551Y194882D02*
D03*
X212598Y165354D02*
D03*
Y153543D02*
D03*
X209646Y301181D02*
D03*
Y277559D02*
D03*
X206693Y177165D02*
D03*
X200787Y377953D02*
D03*
Y354331D02*
D03*
X203740Y312992D02*
D03*
X200787Y307086D02*
D03*
Y295275D02*
D03*
Y283465D02*
D03*
Y271654D02*
D03*
Y248031D02*
D03*
Y236220D02*
D03*
Y224409D02*
D03*
Y212598D02*
D03*
Y177165D02*
D03*
X197835Y383858D02*
D03*
X194882Y366142D02*
D03*
X197835Y360236D02*
D03*
X194882Y354331D02*
D03*
X197835Y348425D02*
D03*
X194882Y342520D02*
D03*
X197835Y336614D02*
D03*
X194882Y330709D02*
D03*
X197835Y324803D02*
D03*
Y312992D02*
D03*
X194882Y307086D02*
D03*
X197835Y277559D02*
D03*
Y253937D02*
D03*
X194882Y248031D02*
D03*
X197835Y242126D02*
D03*
X194882Y236220D02*
D03*
X197835Y230315D02*
D03*
X194882Y224409D02*
D03*
X197835Y218504D02*
D03*
X194882Y212598D02*
D03*
X197835Y183071D02*
D03*
X194882Y165354D02*
D03*
X197835Y159449D02*
D03*
X191929Y383858D02*
D03*
Y372047D02*
D03*
X188976Y366142D02*
D03*
X191929Y360236D02*
D03*
X188976Y354331D02*
D03*
X191929Y348425D02*
D03*
X188976Y342520D02*
D03*
X191929Y336614D02*
D03*
X188976Y330709D02*
D03*
X191929Y324803D02*
D03*
X188976Y307086D02*
D03*
X191929Y253937D02*
D03*
X188976Y248031D02*
D03*
X191929Y242126D02*
D03*
X188976Y236220D02*
D03*
X191929Y230315D02*
D03*
X188976Y224409D02*
D03*
X191929Y218504D02*
D03*
X188976Y200787D02*
D03*
Y177165D02*
D03*
Y165354D02*
D03*
X191929Y159449D02*
D03*
X186024Y383858D02*
D03*
Y372047D02*
D03*
X183071Y366142D02*
D03*
X186024Y360236D02*
D03*
X183071Y354331D02*
D03*
X186024Y348425D02*
D03*
X183071Y342520D02*
D03*
X186024Y336614D02*
D03*
X183071Y330709D02*
D03*
X186024Y324803D02*
D03*
X183071Y318898D02*
D03*
Y295275D02*
D03*
Y283465D02*
D03*
Y271654D02*
D03*
X186024Y253937D02*
D03*
X183071Y248031D02*
D03*
X186024Y242126D02*
D03*
X183071Y236220D02*
D03*
X186024Y230315D02*
D03*
X183071Y224409D02*
D03*
X186024Y206693D02*
D03*
X183071Y200787D02*
D03*
X186024Y194882D02*
D03*
X183071Y165354D02*
D03*
X186024Y159449D02*
D03*
X180118Y383858D02*
D03*
Y372047D02*
D03*
X177165Y366142D02*
D03*
X180118Y360236D02*
D03*
Y348425D02*
D03*
X177165Y342520D02*
D03*
X180118Y336614D02*
D03*
X177165Y330709D02*
D03*
X180118Y324803D02*
D03*
X177165Y318898D02*
D03*
Y307086D02*
D03*
Y283465D02*
D03*
X180118Y277559D02*
D03*
Y265748D02*
D03*
Y253937D02*
D03*
X177165Y248031D02*
D03*
Y165354D02*
D03*
X180118Y159449D02*
D03*
X177165Y153543D02*
D03*
X174213Y383858D02*
D03*
Y372047D02*
D03*
X171260Y366142D02*
D03*
Y342520D02*
D03*
X174213Y336614D02*
D03*
X171260Y330709D02*
D03*
X174213Y324803D02*
D03*
X171260Y271654D02*
D03*
Y259842D02*
D03*
X174213Y253937D02*
D03*
X171260Y248031D02*
D03*
Y165354D02*
D03*
X174213Y159449D02*
D03*
X171260Y153543D02*
D03*
X168307Y383858D02*
D03*
Y372047D02*
D03*
X165354Y366142D02*
D03*
Y342520D02*
D03*
X168307Y336614D02*
D03*
X165354Y330709D02*
D03*
X168307Y277559D02*
D03*
X165354Y271654D02*
D03*
Y259842D02*
D03*
X168307Y253937D02*
D03*
X165354Y248031D02*
D03*
X162401Y383858D02*
D03*
Y372047D02*
D03*
X159449Y366142D02*
D03*
Y342520D02*
D03*
X162401Y336614D02*
D03*
Y324803D02*
D03*
X159449Y283465D02*
D03*
X162401Y277559D02*
D03*
X159449Y271654D02*
D03*
Y259842D02*
D03*
X162401Y253937D02*
D03*
X159449Y248031D02*
D03*
X162401Y194882D02*
D03*
X156496Y383858D02*
D03*
Y372047D02*
D03*
Y360236D02*
D03*
Y348425D02*
D03*
X153543Y330709D02*
D03*
X156496Y324803D02*
D03*
X153543Y295275D02*
D03*
Y283465D02*
D03*
X156496Y277559D02*
D03*
X153543Y271654D02*
D03*
X156496Y265748D02*
D03*
X153543Y259842D02*
D03*
X156496Y253937D02*
D03*
X153543Y248031D02*
D03*
X156496Y242126D02*
D03*
X153543Y236220D02*
D03*
Y200787D02*
D03*
X156496Y194882D02*
D03*
X150591Y383858D02*
D03*
Y372047D02*
D03*
X147638Y366142D02*
D03*
Y354331D02*
D03*
Y342520D02*
D03*
X150591Y336614D02*
D03*
X147638Y330709D02*
D03*
X150591Y324803D02*
D03*
X147638Y318898D02*
D03*
Y283465D02*
D03*
X150591Y277559D02*
D03*
X147638Y271654D02*
D03*
X150591Y265748D02*
D03*
X147638Y259842D02*
D03*
X150591Y253937D02*
D03*
X147638Y248031D02*
D03*
X150591Y242126D02*
D03*
X147638Y236220D02*
D03*
Y212598D02*
D03*
X150591Y206693D02*
D03*
X147638Y200787D02*
D03*
X150591Y194882D02*
D03*
X147638Y188976D02*
D03*
X144685Y383858D02*
D03*
X141732Y366142D02*
D03*
X144685Y360236D02*
D03*
X141732Y354331D02*
D03*
X144685Y348425D02*
D03*
X141732Y342520D02*
D03*
X144685Y336614D02*
D03*
X141732Y330709D02*
D03*
X144685Y324803D02*
D03*
X141732Y318898D02*
D03*
X144685Y312992D02*
D03*
Y265748D02*
D03*
X141732Y259842D02*
D03*
X144685Y253937D02*
D03*
Y242126D02*
D03*
Y230315D02*
D03*
Y206693D02*
D03*
X141732Y165354D02*
D03*
Y153543D02*
D03*
X135827Y259842D02*
D03*
X138779Y206693D02*
D03*
X135827Y177165D02*
D03*
X129921Y401575D02*
D03*
Y389764D02*
D03*
Y366142D02*
D03*
Y259842D02*
D03*
Y236220D02*
D03*
Y212598D02*
D03*
X132874Y206693D02*
D03*
X129921Y200787D02*
D03*
Y177165D02*
D03*
Y165354D02*
D03*
X126969Y407480D02*
D03*
X124016Y401575D02*
D03*
X126969Y395669D02*
D03*
X124016Y389764D02*
D03*
X126969Y372047D02*
D03*
X124016Y366142D02*
D03*
Y330709D02*
D03*
Y318898D02*
D03*
Y283465D02*
D03*
X126969Y277559D02*
D03*
X124016Y271654D02*
D03*
X126969Y265748D02*
D03*
Y242126D02*
D03*
X124016Y236220D02*
D03*
X126969Y230315D02*
D03*
X124016Y212598D02*
D03*
X126969Y206693D02*
D03*
X124016Y200787D02*
D03*
X126969Y194882D02*
D03*
X124016Y188976D02*
D03*
X126969Y183071D02*
D03*
X124016Y177165D02*
D03*
X126969Y171260D02*
D03*
X124016Y165354D02*
D03*
X126969Y159449D02*
D03*
X121063Y407480D02*
D03*
Y395669D02*
D03*
X118110Y389764D02*
D03*
X121063Y383858D02*
D03*
X118110Y377953D02*
D03*
Y342520D02*
D03*
X121063Y336614D02*
D03*
X118110Y330709D02*
D03*
X121063Y324803D02*
D03*
X118110Y318898D02*
D03*
Y283465D02*
D03*
X121063Y277559D02*
D03*
X118110Y271654D02*
D03*
Y248031D02*
D03*
X121063Y242126D02*
D03*
X118110Y236220D02*
D03*
X121063Y230315D02*
D03*
X118110Y212598D02*
D03*
X121063Y206693D02*
D03*
X118110Y200787D02*
D03*
X121063Y194882D02*
D03*
X118110Y188976D02*
D03*
X121063Y183071D02*
D03*
X118110Y177165D02*
D03*
X121063Y171260D02*
D03*
X118110Y165354D02*
D03*
X121063Y159449D02*
D03*
X118110Y153543D02*
D03*
X112205Y389764D02*
D03*
X115157Y383858D02*
D03*
X112205Y366142D02*
D03*
X115157Y348425D02*
D03*
Y324803D02*
D03*
X112205Y318898D02*
D03*
Y283465D02*
D03*
X115157Y277559D02*
D03*
Y253937D02*
D03*
X112205Y248031D02*
D03*
X115157Y242126D02*
D03*
Y230315D02*
D03*
Y206693D02*
D03*
X112205Y200787D02*
D03*
X115157Y194882D02*
D03*
Y183071D02*
D03*
Y171260D02*
D03*
Y159449D02*
D03*
X112205Y153543D02*
D03*
X106299Y389764D02*
D03*
Y377953D02*
D03*
X109252Y348425D02*
D03*
Y336614D02*
D03*
Y324803D02*
D03*
X106299Y318898D02*
D03*
Y259842D02*
D03*
X109252Y253937D02*
D03*
X106299Y248031D02*
D03*
X109252Y242126D02*
D03*
X106299Y200787D02*
D03*
X109252Y194882D02*
D03*
X106299Y153543D02*
D03*
X100394Y401575D02*
D03*
Y389764D02*
D03*
Y377953D02*
D03*
Y366142D02*
D03*
X103346Y324803D02*
D03*
X100394Y318898D02*
D03*
X103346Y312992D02*
D03*
X100394Y307086D02*
D03*
X103346Y265748D02*
D03*
X100394Y259842D02*
D03*
X103346Y253937D02*
D03*
X100394Y248031D02*
D03*
X103346Y242126D02*
D03*
X100394Y236220D02*
D03*
Y224409D02*
D03*
Y212598D02*
D03*
Y200787D02*
D03*
X103346Y194882D02*
D03*
X100394Y188976D02*
D03*
Y177165D02*
D03*
Y165354D02*
D03*
X103346Y159449D02*
D03*
X100394Y153543D02*
D03*
X484252Y100394D02*
D03*
X487205Y94488D02*
D03*
X484252Y88583D02*
D03*
X487205Y82677D02*
D03*
X484252Y76772D02*
D03*
X487205Y70866D02*
D03*
X484252Y64961D02*
D03*
X487205Y59055D02*
D03*
X478346Y100394D02*
D03*
X481299Y94488D02*
D03*
X478346Y88583D02*
D03*
X481299Y82677D02*
D03*
X478346Y76772D02*
D03*
X481299Y70866D02*
D03*
X478346Y64961D02*
D03*
Y41339D02*
D03*
X472441Y100394D02*
D03*
X475393Y94488D02*
D03*
X472441Y88583D02*
D03*
X475393Y82677D02*
D03*
X472441Y76772D02*
D03*
X475393Y70866D02*
D03*
X472441Y64961D02*
D03*
X475393Y59055D02*
D03*
X472441Y41339D02*
D03*
X466535Y100394D02*
D03*
X469488Y94488D02*
D03*
X466535Y88583D02*
D03*
X469488Y82677D02*
D03*
X466535Y76772D02*
D03*
X469488Y70866D02*
D03*
X466535Y64961D02*
D03*
X469488Y59055D02*
D03*
X466535Y53150D02*
D03*
X469488Y47244D02*
D03*
X466535Y41339D02*
D03*
X460630Y100394D02*
D03*
X463583Y94488D02*
D03*
X460630Y88583D02*
D03*
X463583Y82677D02*
D03*
X460630Y76772D02*
D03*
X463583Y70866D02*
D03*
X460630Y64961D02*
D03*
X463583Y59055D02*
D03*
X460630Y53150D02*
D03*
X463583Y47244D02*
D03*
X460630Y41339D02*
D03*
X454724Y100394D02*
D03*
X457677Y94488D02*
D03*
X454724Y88583D02*
D03*
X457677Y82677D02*
D03*
X454724Y76772D02*
D03*
X457677Y70866D02*
D03*
X454724Y64961D02*
D03*
X457677Y59055D02*
D03*
X454724Y53150D02*
D03*
X457677Y47244D02*
D03*
X454724Y41339D02*
D03*
X448819Y100394D02*
D03*
X451771Y94488D02*
D03*
X448819Y88583D02*
D03*
X451771Y82677D02*
D03*
X448819Y76772D02*
D03*
X451771Y70866D02*
D03*
X448819Y64961D02*
D03*
X451771Y59055D02*
D03*
X448819Y53150D02*
D03*
X451771Y47244D02*
D03*
X448819Y41339D02*
D03*
X442913Y100394D02*
D03*
X445866Y94488D02*
D03*
X442913Y88583D02*
D03*
X445866Y82677D02*
D03*
X442913Y76772D02*
D03*
X445866Y70866D02*
D03*
X442913Y64961D02*
D03*
X445866Y59055D02*
D03*
X442913Y53150D02*
D03*
X445866Y47244D02*
D03*
X442913Y41339D02*
D03*
X437008Y100394D02*
D03*
X439960Y94488D02*
D03*
X437008Y88583D02*
D03*
X439960Y82677D02*
D03*
X437008Y76772D02*
D03*
X439960Y70866D02*
D03*
X437008Y64961D02*
D03*
X439960Y59055D02*
D03*
X437008Y53150D02*
D03*
X439960Y47244D02*
D03*
X437008Y41339D02*
D03*
X431102Y100394D02*
D03*
X434055Y94488D02*
D03*
X431102Y88583D02*
D03*
X434055Y82677D02*
D03*
X431102Y76772D02*
D03*
X434055Y70866D02*
D03*
X431102Y64961D02*
D03*
X434055Y59055D02*
D03*
X431102Y53150D02*
D03*
X434055Y47244D02*
D03*
X431102Y41339D02*
D03*
X425197Y100394D02*
D03*
X428150Y94488D02*
D03*
X425197Y88583D02*
D03*
X428150Y82677D02*
D03*
X425197Y76772D02*
D03*
X428150Y70866D02*
D03*
X425197Y64961D02*
D03*
X428150Y59055D02*
D03*
X425197Y53150D02*
D03*
X428150Y47244D02*
D03*
X425197Y41339D02*
D03*
X419291Y100394D02*
D03*
X422244Y94488D02*
D03*
X419291Y88583D02*
D03*
X422244Y82677D02*
D03*
X419291Y76772D02*
D03*
X422244Y70866D02*
D03*
X419291Y64961D02*
D03*
X422244Y59055D02*
D03*
X419291Y53150D02*
D03*
X422244Y47244D02*
D03*
X419291Y41339D02*
D03*
X413386Y100394D02*
D03*
X416338Y94488D02*
D03*
X413386Y88583D02*
D03*
X416338Y82677D02*
D03*
X413386Y76772D02*
D03*
X416338Y70866D02*
D03*
X413386Y64961D02*
D03*
X416338Y59055D02*
D03*
X413386Y53150D02*
D03*
X416338Y47244D02*
D03*
X413386Y41339D02*
D03*
X407480Y100394D02*
D03*
X410433Y94488D02*
D03*
X407480Y88583D02*
D03*
X410433Y82677D02*
D03*
X407480Y76772D02*
D03*
X410433Y70866D02*
D03*
X407480Y64961D02*
D03*
X410433Y59055D02*
D03*
X407480Y53150D02*
D03*
X410433Y47244D02*
D03*
X407480Y41339D02*
D03*
X401575Y100394D02*
D03*
X404527Y94488D02*
D03*
X401575Y88583D02*
D03*
X404527Y82677D02*
D03*
X401575Y76772D02*
D03*
X404527Y70866D02*
D03*
X401575Y64961D02*
D03*
X404527Y59055D02*
D03*
X401575Y53150D02*
D03*
X404527Y47244D02*
D03*
X401575Y41339D02*
D03*
X395669Y100394D02*
D03*
X398622Y94488D02*
D03*
X395669Y88583D02*
D03*
X398622Y82677D02*
D03*
X395669Y76772D02*
D03*
X398622Y70866D02*
D03*
X395669Y64961D02*
D03*
X398622Y59055D02*
D03*
X395669Y53150D02*
D03*
X398622Y47244D02*
D03*
X395669Y41339D02*
D03*
X389764Y100394D02*
D03*
X392716Y94488D02*
D03*
X389764Y88583D02*
D03*
X392716Y82677D02*
D03*
X389764Y76772D02*
D03*
X392716Y70866D02*
D03*
X389764Y64961D02*
D03*
X392716Y59055D02*
D03*
X389764Y53150D02*
D03*
X392716Y47244D02*
D03*
X389764Y41339D02*
D03*
X383858Y100394D02*
D03*
X386811Y94488D02*
D03*
X383858Y88583D02*
D03*
X386811Y82677D02*
D03*
X383858Y76772D02*
D03*
X386811Y70866D02*
D03*
X383858Y64961D02*
D03*
X386811Y59055D02*
D03*
X383858Y53150D02*
D03*
X386811Y47244D02*
D03*
X383858Y41339D02*
D03*
X377953Y100394D02*
D03*
X380905Y94488D02*
D03*
X377953Y88583D02*
D03*
X380905Y82677D02*
D03*
X377953Y76772D02*
D03*
X380905Y70866D02*
D03*
X377953Y64961D02*
D03*
X380905Y59055D02*
D03*
X377953Y53150D02*
D03*
X380905Y47244D02*
D03*
X377953Y41339D02*
D03*
X372047Y100394D02*
D03*
X375000Y94488D02*
D03*
X372047Y88583D02*
D03*
X375000Y82677D02*
D03*
X372047Y76772D02*
D03*
X375000Y70866D02*
D03*
X372047Y64961D02*
D03*
X375000Y59055D02*
D03*
X372047Y53150D02*
D03*
X375000Y47244D02*
D03*
X372047Y41339D02*
D03*
X366142Y100394D02*
D03*
X369094Y94488D02*
D03*
X366142Y88583D02*
D03*
X369094Y82677D02*
D03*
X366142Y76772D02*
D03*
X369094Y70866D02*
D03*
X366142Y64961D02*
D03*
X369094Y59055D02*
D03*
X366142Y53150D02*
D03*
X369094Y47244D02*
D03*
X366142Y41339D02*
D03*
X360236Y100394D02*
D03*
X363189Y94488D02*
D03*
X360236Y88583D02*
D03*
X363189Y82677D02*
D03*
X360236Y76772D02*
D03*
X363189Y70866D02*
D03*
X360236Y64961D02*
D03*
X363189Y59055D02*
D03*
X360236Y53150D02*
D03*
X363189Y47244D02*
D03*
X360236Y41339D02*
D03*
X354331Y112205D02*
D03*
Y100394D02*
D03*
X357283Y94488D02*
D03*
X354331Y88583D02*
D03*
X357283Y82677D02*
D03*
X354331Y76772D02*
D03*
X357283Y70866D02*
D03*
X354331Y64961D02*
D03*
X357283Y59055D02*
D03*
X354331Y53150D02*
D03*
X357283Y47244D02*
D03*
X354331Y41339D02*
D03*
X351378Y118110D02*
D03*
X348425Y112205D02*
D03*
X351378Y106299D02*
D03*
X348425Y100394D02*
D03*
X351378Y94488D02*
D03*
X348425Y88583D02*
D03*
X351378Y82677D02*
D03*
X348425Y76772D02*
D03*
X351378Y70866D02*
D03*
X348425Y64961D02*
D03*
X351378Y59055D02*
D03*
X348425Y53150D02*
D03*
X351378Y47244D02*
D03*
X348425Y41339D02*
D03*
X345472Y118110D02*
D03*
X342520Y112205D02*
D03*
X345472Y106299D02*
D03*
X342520Y100394D02*
D03*
X345472Y94488D02*
D03*
X342520Y88583D02*
D03*
X345472Y82677D02*
D03*
X342520Y76772D02*
D03*
X345472Y70866D02*
D03*
X342520Y64961D02*
D03*
X345472Y59055D02*
D03*
X342520Y53150D02*
D03*
X345472Y47244D02*
D03*
X342520Y41339D02*
D03*
X339567Y118110D02*
D03*
X336614Y112205D02*
D03*
X339567Y106299D02*
D03*
X336614Y100394D02*
D03*
X339567Y94488D02*
D03*
X336614Y88583D02*
D03*
X339567Y82677D02*
D03*
X336614Y76772D02*
D03*
X339567Y70866D02*
D03*
X336614Y64961D02*
D03*
X339567Y59055D02*
D03*
X336614Y53150D02*
D03*
X339567Y47244D02*
D03*
X336614Y41339D02*
D03*
X333661Y118110D02*
D03*
X330709Y112205D02*
D03*
X333661Y106299D02*
D03*
X330709Y100394D02*
D03*
X333661Y94488D02*
D03*
X330709Y88583D02*
D03*
X333661Y82677D02*
D03*
X330709Y76772D02*
D03*
X333661Y70866D02*
D03*
X330709Y64961D02*
D03*
X333661Y59055D02*
D03*
X330709Y53150D02*
D03*
X333661Y47244D02*
D03*
X330709Y41339D02*
D03*
X327756Y118110D02*
D03*
X324803Y112205D02*
D03*
X327756Y106299D02*
D03*
X324803Y100394D02*
D03*
X327756Y94488D02*
D03*
X324803Y88583D02*
D03*
X327756Y82677D02*
D03*
X324803Y76772D02*
D03*
X327756Y70866D02*
D03*
X324803Y64961D02*
D03*
X327756Y59055D02*
D03*
X324803Y53150D02*
D03*
X327756Y47244D02*
D03*
X324803Y41339D02*
D03*
X321850Y118110D02*
D03*
X318898Y112205D02*
D03*
X321850Y106299D02*
D03*
X318898Y100394D02*
D03*
X321850Y94488D02*
D03*
X318898Y88583D02*
D03*
X321850Y82677D02*
D03*
X318898Y76772D02*
D03*
X321850Y70866D02*
D03*
X318898Y64961D02*
D03*
X321850Y59055D02*
D03*
X318898Y53150D02*
D03*
X321850Y47244D02*
D03*
X318898Y41339D02*
D03*
X315945Y118110D02*
D03*
X312992Y112205D02*
D03*
X315945Y106299D02*
D03*
X312992Y100394D02*
D03*
X315945Y94488D02*
D03*
X312992Y88583D02*
D03*
X315945Y82677D02*
D03*
X312992Y76772D02*
D03*
X315945Y70866D02*
D03*
X312992Y64961D02*
D03*
X315945Y59055D02*
D03*
X312992Y53150D02*
D03*
X315945Y47244D02*
D03*
X312992Y41339D02*
D03*
X310039Y118110D02*
D03*
Y106299D02*
D03*
X307086Y100394D02*
D03*
X310039Y94488D02*
D03*
X307086Y88583D02*
D03*
X310039Y82677D02*
D03*
X307086Y76772D02*
D03*
X310039Y70866D02*
D03*
X307086Y64961D02*
D03*
X310039Y59055D02*
D03*
X307086Y53150D02*
D03*
X310039Y47244D02*
D03*
X307086Y41339D02*
D03*
X301181Y100394D02*
D03*
X304134Y94488D02*
D03*
X301181Y88583D02*
D03*
X304134Y82677D02*
D03*
X301181Y76772D02*
D03*
X304134Y70866D02*
D03*
X301181Y64961D02*
D03*
X304134Y59055D02*
D03*
X301181Y53150D02*
D03*
X304134Y47244D02*
D03*
X301181Y41339D02*
D03*
X295275Y100394D02*
D03*
X298228Y94488D02*
D03*
X295275Y88583D02*
D03*
X298228Y82677D02*
D03*
X295275Y76772D02*
D03*
X298228Y70866D02*
D03*
X295275Y64961D02*
D03*
X298228Y59055D02*
D03*
X295275Y53150D02*
D03*
X298228Y47244D02*
D03*
X295275Y41339D02*
D03*
X289370Y100394D02*
D03*
X292323Y94488D02*
D03*
X289370Y88583D02*
D03*
X292323Y82677D02*
D03*
X289370Y76772D02*
D03*
X292323Y70866D02*
D03*
X289370Y64961D02*
D03*
X292323Y59055D02*
D03*
X289370Y53150D02*
D03*
X292323Y47244D02*
D03*
X289370Y41339D02*
D03*
X283465Y100394D02*
D03*
X286417Y94488D02*
D03*
X283465Y88583D02*
D03*
X286417Y82677D02*
D03*
X283465Y76772D02*
D03*
X286417Y70866D02*
D03*
X283465Y64961D02*
D03*
X286417Y59055D02*
D03*
X283465Y53150D02*
D03*
X286417Y47244D02*
D03*
X283465Y41339D02*
D03*
X277559Y100394D02*
D03*
X280512Y94488D02*
D03*
X277559Y88583D02*
D03*
X280512Y82677D02*
D03*
X277559Y76772D02*
D03*
X280512Y70866D02*
D03*
X277559Y64961D02*
D03*
X280512Y59055D02*
D03*
X277559Y53150D02*
D03*
X280512Y47244D02*
D03*
X277559Y41339D02*
D03*
X271654Y100394D02*
D03*
X274606Y94488D02*
D03*
X271654Y88583D02*
D03*
X274606Y82677D02*
D03*
X271654Y76772D02*
D03*
X274606Y70866D02*
D03*
X271654Y64961D02*
D03*
X274606Y59055D02*
D03*
X271654Y53150D02*
D03*
X274606Y47244D02*
D03*
X271654Y41339D02*
D03*
X265748Y100394D02*
D03*
X268701Y94488D02*
D03*
X265748Y88583D02*
D03*
X268701Y82677D02*
D03*
X265748Y76772D02*
D03*
X268701Y70866D02*
D03*
X265748Y64961D02*
D03*
X268701Y59055D02*
D03*
X265748Y53150D02*
D03*
X268701Y47244D02*
D03*
X265748Y41339D02*
D03*
X259842Y100394D02*
D03*
X262795Y94488D02*
D03*
X259842Y88583D02*
D03*
X262795Y82677D02*
D03*
X259842Y76772D02*
D03*
X262795Y70866D02*
D03*
X259842Y64961D02*
D03*
X262795Y59055D02*
D03*
X259842Y53150D02*
D03*
X262795Y47244D02*
D03*
X259842Y41339D02*
D03*
X253937Y100394D02*
D03*
X256890Y94488D02*
D03*
X253937Y88583D02*
D03*
X256890Y82677D02*
D03*
X253937Y76772D02*
D03*
X256890Y70866D02*
D03*
X253937Y64961D02*
D03*
X256890Y59055D02*
D03*
X253937Y53150D02*
D03*
X256890Y47244D02*
D03*
X253937Y41339D02*
D03*
X248031Y100394D02*
D03*
X250984Y94488D02*
D03*
X248031Y88583D02*
D03*
X250984Y82677D02*
D03*
X248031Y76772D02*
D03*
X250984Y70866D02*
D03*
X248031Y64961D02*
D03*
X250984Y59055D02*
D03*
X248031Y53150D02*
D03*
X250984Y47244D02*
D03*
X248031Y41339D02*
D03*
X242126Y100394D02*
D03*
X245079Y94488D02*
D03*
X242126Y88583D02*
D03*
X245079Y82677D02*
D03*
X242126Y76772D02*
D03*
X245079Y70866D02*
D03*
X242126Y64961D02*
D03*
X245079Y59055D02*
D03*
X242126Y53150D02*
D03*
X245079Y47244D02*
D03*
X242126Y41339D02*
D03*
X236220Y100394D02*
D03*
X239173Y94488D02*
D03*
X236220Y88583D02*
D03*
X239173Y82677D02*
D03*
X236220Y76772D02*
D03*
X239173Y70866D02*
D03*
X236220Y64961D02*
D03*
X239173Y59055D02*
D03*
X236220Y53150D02*
D03*
X239173Y47244D02*
D03*
X236220Y41339D02*
D03*
X230315Y100394D02*
D03*
X233268Y94488D02*
D03*
X230315Y88583D02*
D03*
X233268Y82677D02*
D03*
X230315Y76772D02*
D03*
X233268Y70866D02*
D03*
X230315Y64961D02*
D03*
X233268Y59055D02*
D03*
X230315Y53150D02*
D03*
X233268Y47244D02*
D03*
X230315Y41339D02*
D03*
X224409Y100394D02*
D03*
X227362Y94488D02*
D03*
X224409Y88583D02*
D03*
X227362Y82677D02*
D03*
X224409Y76772D02*
D03*
X227362Y70866D02*
D03*
X224409Y64961D02*
D03*
X227362Y59055D02*
D03*
X224409Y53150D02*
D03*
X227362Y47244D02*
D03*
X224409Y41339D02*
D03*
X218504Y100394D02*
D03*
X221457Y94488D02*
D03*
X218504Y88583D02*
D03*
X221457Y82677D02*
D03*
X218504Y76772D02*
D03*
X221457Y70866D02*
D03*
X218504Y64961D02*
D03*
X221457Y59055D02*
D03*
X218504Y53150D02*
D03*
X221457Y47244D02*
D03*
X218504Y41339D02*
D03*
X212598Y100394D02*
D03*
X215551Y94488D02*
D03*
X212598Y88583D02*
D03*
X215551Y82677D02*
D03*
X212598Y76772D02*
D03*
X215551Y70866D02*
D03*
X212598Y64961D02*
D03*
X215551Y59055D02*
D03*
X212598Y53150D02*
D03*
X215551Y47244D02*
D03*
X212598Y41339D02*
D03*
X206693Y100394D02*
D03*
X209646Y94488D02*
D03*
X206693Y88583D02*
D03*
X209646Y82677D02*
D03*
X206693Y76772D02*
D03*
X209646Y70866D02*
D03*
X206693Y64961D02*
D03*
X209646Y59055D02*
D03*
X206693Y53150D02*
D03*
X209646Y47244D02*
D03*
X206693Y41339D02*
D03*
X200787Y100394D02*
D03*
X203740Y94488D02*
D03*
X200787Y88583D02*
D03*
X203740Y82677D02*
D03*
X200787Y76772D02*
D03*
X203740Y70866D02*
D03*
X200787Y64961D02*
D03*
X203740Y59055D02*
D03*
X200787Y53150D02*
D03*
X203740Y47244D02*
D03*
X200787Y41339D02*
D03*
X194882Y100394D02*
D03*
X197835Y94488D02*
D03*
X194882Y88583D02*
D03*
X197835Y82677D02*
D03*
X194882Y76772D02*
D03*
X197835Y70866D02*
D03*
X194882Y64961D02*
D03*
X197835Y59055D02*
D03*
X194882Y53150D02*
D03*
X197835Y47244D02*
D03*
X194882Y41339D02*
D03*
X188976Y100394D02*
D03*
X191929Y94488D02*
D03*
X188976Y88583D02*
D03*
X191929Y82677D02*
D03*
X188976Y76772D02*
D03*
X191929Y70866D02*
D03*
X188976Y64961D02*
D03*
X191929Y59055D02*
D03*
X188976Y53150D02*
D03*
X191929Y47244D02*
D03*
X188976Y41339D02*
D03*
X183071Y100394D02*
D03*
X186024Y94488D02*
D03*
X183071Y88583D02*
D03*
X186024Y82677D02*
D03*
X183071Y76772D02*
D03*
X186024Y70866D02*
D03*
X183071Y64961D02*
D03*
X186024Y59055D02*
D03*
X183071Y53150D02*
D03*
X186024Y47244D02*
D03*
X183071Y41339D02*
D03*
X177165Y100394D02*
D03*
X180118Y94488D02*
D03*
X177165Y88583D02*
D03*
X180118Y82677D02*
D03*
X177165Y76772D02*
D03*
X180118Y70866D02*
D03*
X177165Y64961D02*
D03*
X180118Y59055D02*
D03*
X177165Y53150D02*
D03*
X180118Y47244D02*
D03*
X177165Y41339D02*
D03*
X171260Y100394D02*
D03*
X174213Y94488D02*
D03*
X171260Y88583D02*
D03*
X174213Y82677D02*
D03*
X171260Y76772D02*
D03*
X174213Y70866D02*
D03*
X171260Y64961D02*
D03*
X174213Y59055D02*
D03*
X171260Y53150D02*
D03*
X174213Y47244D02*
D03*
X171260Y41339D02*
D03*
X165354Y100394D02*
D03*
X168307Y94488D02*
D03*
X165354Y88583D02*
D03*
X168307Y82677D02*
D03*
X165354Y76772D02*
D03*
X168307Y70866D02*
D03*
X165354Y64961D02*
D03*
X168307Y59055D02*
D03*
X165354Y53150D02*
D03*
X168307Y47244D02*
D03*
X165354Y41339D02*
D03*
X159449Y100394D02*
D03*
X162401Y94488D02*
D03*
X159449Y88583D02*
D03*
X162401Y82677D02*
D03*
X159449Y76772D02*
D03*
X162401Y70866D02*
D03*
X159449Y64961D02*
D03*
X162401Y59055D02*
D03*
X159449Y53150D02*
D03*
X162401Y47244D02*
D03*
X159449Y41339D02*
D03*
X153543Y100394D02*
D03*
X156496Y94488D02*
D03*
X153543Y88583D02*
D03*
X156496Y82677D02*
D03*
X153543Y76772D02*
D03*
X156496Y70866D02*
D03*
X153543Y64961D02*
D03*
X156496Y59055D02*
D03*
X153543Y53150D02*
D03*
X156496Y47244D02*
D03*
X153543Y41339D02*
D03*
X147638Y100394D02*
D03*
X150591Y94488D02*
D03*
X147638Y88583D02*
D03*
X150591Y82677D02*
D03*
X147638Y76772D02*
D03*
X150591Y70866D02*
D03*
X147638Y64961D02*
D03*
X150591Y59055D02*
D03*
X147638Y53150D02*
D03*
X150591Y47244D02*
D03*
X147638Y41339D02*
D03*
X141732Y100394D02*
D03*
X144685Y94488D02*
D03*
X141732Y88583D02*
D03*
X144685Y82677D02*
D03*
X141732Y76772D02*
D03*
X144685Y70866D02*
D03*
X141732Y64961D02*
D03*
X144685Y59055D02*
D03*
X141732Y53150D02*
D03*
X144685Y47244D02*
D03*
X141732Y41339D02*
D03*
X135827Y100394D02*
D03*
X138779Y94488D02*
D03*
X135827Y88583D02*
D03*
X138779Y82677D02*
D03*
X135827Y76772D02*
D03*
X138779Y70866D02*
D03*
X135827Y64961D02*
D03*
X138779Y59055D02*
D03*
X135827Y53150D02*
D03*
X138779Y47244D02*
D03*
X135827Y41339D02*
D03*
X129921Y100394D02*
D03*
X132874Y94488D02*
D03*
X129921Y88583D02*
D03*
X132874Y82677D02*
D03*
X129921Y76772D02*
D03*
X132874Y70866D02*
D03*
X129921Y64961D02*
D03*
X132874Y59055D02*
D03*
X129921Y53150D02*
D03*
X132874Y47244D02*
D03*
X129921Y41339D02*
D03*
X124016Y100394D02*
D03*
X126969Y94488D02*
D03*
X124016Y88583D02*
D03*
X126969Y82677D02*
D03*
X124016Y76772D02*
D03*
X126969Y70866D02*
D03*
X124016Y64961D02*
D03*
X126969Y59055D02*
D03*
X124016Y53150D02*
D03*
X126969Y47244D02*
D03*
X124016Y41339D02*
D03*
X118110Y100394D02*
D03*
X121063Y94488D02*
D03*
X118110Y88583D02*
D03*
X121063Y82677D02*
D03*
X118110Y76772D02*
D03*
X121063Y70866D02*
D03*
X118110Y64961D02*
D03*
X121063Y59055D02*
D03*
Y47244D02*
D03*
X118110Y41339D02*
D03*
X112205Y100394D02*
D03*
X115157Y94488D02*
D03*
X112205Y88583D02*
D03*
X115157Y82677D02*
D03*
X112205Y76772D02*
D03*
X115157Y70866D02*
D03*
X112205Y64961D02*
D03*
X115157Y59055D02*
D03*
X112205Y41339D02*
D03*
X106299Y100394D02*
D03*
X109252Y94488D02*
D03*
X106299Y88583D02*
D03*
X109252Y82677D02*
D03*
X106299Y76772D02*
D03*
X109252Y70866D02*
D03*
X106299Y64961D02*
D03*
X100394Y100394D02*
D03*
X103346Y94488D02*
D03*
X100394Y88583D02*
D03*
X103346Y82677D02*
D03*
X100394Y76772D02*
D03*
X103346Y70866D02*
D03*
X100394Y64961D02*
D03*
X103346Y59055D02*
D03*
X100394Y53150D02*
D03*
X301181Y281594D02*
D03*
X307776Y271555D02*
D03*
X380610Y258858D02*
D03*
D161*
X475295Y131102D02*
D03*
X405905Y132087D02*
D03*
X334394Y312697D02*
D03*
X351690Y310940D02*
D03*
X346850Y316929D02*
D03*
X349114Y315059D02*
D03*
X351279Y345374D02*
D03*
X184153Y132382D02*
D03*
X299016Y284547D02*
D03*
X274803Y285433D02*
D03*
X270374Y294390D02*
D03*
X303051Y335925D02*
D03*
X316535Y345965D02*
D03*
X371457Y351575D02*
D03*
X382283D02*
D03*
X435138Y354232D02*
D03*
X411811Y327165D02*
D03*
X383268Y322638D02*
D03*
X319291Y311811D02*
D03*
X282972D02*
D03*
X313976Y280118D02*
D03*
X287219Y283971D02*
D03*
X309350Y282579D02*
D03*
X337205Y297146D02*
D03*
X263287Y277953D02*
D03*
X307102Y287416D02*
D03*
X310531Y290453D02*
D03*
X423917Y321654D02*
D03*
X399213Y274311D02*
D03*
X356988Y315059D02*
D03*
X259055Y287992D02*
D03*
X259842Y292224D02*
D03*
X250394Y287008D02*
D03*
X255512Y305118D02*
D03*
Y313386D02*
D03*
X252264Y283563D02*
D03*
X245669Y285236D02*
D03*
X254535Y283465D02*
D03*
X250000Y312795D02*
D03*
X255118Y132677D02*
D03*
X458858Y174114D02*
D03*
X456398Y174409D02*
D03*
X453642Y174016D02*
D03*
X256496Y284744D02*
D03*
X250689Y281890D02*
D03*
X283366Y283366D02*
D03*
X272244Y288090D02*
D03*
X260249Y282691D02*
D03*
X257677Y294193D02*
D03*
X260827Y285925D02*
D03*
X265650Y277953D02*
D03*
X290354Y347736D02*
D03*
X289272Y344291D02*
D03*
X275394Y347638D02*
D03*
X276673Y314173D02*
D03*
X301870Y315945D02*
D03*
X273425Y319980D02*
D03*
X285531Y319783D02*
D03*
X306791Y279429D02*
D03*
X293406Y281398D02*
D03*
X290748D02*
D03*
X330413Y294783D02*
D03*
X330709Y298228D02*
D03*
X312894Y336024D02*
D03*
X312992Y330906D02*
D03*
X321850Y329429D02*
D03*
X356791Y335630D02*
D03*
X361336Y338009D02*
D03*
X418898Y319980D02*
D03*
X394390Y292126D02*
D03*
X394193Y298327D02*
D03*
X296850Y322933D02*
D03*
X292815Y321358D02*
D03*
X331398Y286221D02*
D03*
X377067Y286319D02*
D03*
X368799Y231594D02*
D03*
X316831Y342224D02*
D03*
X357579D02*
D03*
X466535Y275590D02*
D03*
X466634Y278150D02*
D03*
X446949Y291142D02*
D03*
X411417Y288386D02*
D03*
X437992Y278150D02*
D03*
X437697Y272539D02*
D03*
X192717Y271949D02*
D03*
Y276969D02*
D03*
X189665Y272244D02*
D03*
X189469Y276969D02*
D03*
X175984Y277165D02*
D03*
X318898Y308169D02*
D03*
Y298031D02*
D03*
X309117Y294418D02*
D03*
X251575Y278740D02*
D03*
X222047Y287894D02*
D03*
X184646Y290945D02*
D03*
X320768Y361417D02*
D03*
X340354Y349902D02*
D03*
X344685Y376772D02*
D03*
X327854Y334154D02*
D03*
X197736Y259941D02*
D03*
X294882Y374311D02*
D03*
X309449D02*
D03*
X341142Y380807D02*
D03*
X410138Y371850D02*
D03*
X402461Y381988D02*
D03*
X452067Y390059D02*
D03*
X438583Y400689D02*
D03*
X433760Y384013D02*
D03*
X434765Y388503D02*
D03*
X449409Y385236D02*
D03*
X437303Y376279D02*
D03*
X369291Y340059D02*
D03*
X294882Y326673D02*
D03*
X291732Y325295D02*
D03*
X285531Y338189D02*
D03*
X279035Y344488D02*
D03*
X307972Y345768D02*
D03*
X305020Y327854D02*
D03*
X270571Y338681D02*
D03*
X308169Y331988D02*
D03*
X279626Y307677D02*
D03*
X276083Y293209D02*
D03*
X284955Y292140D02*
D03*
X247146Y310138D02*
D03*
X262303Y301181D02*
D03*
X248524Y305020D02*
D03*
X272441Y302756D02*
D03*
X287697Y317618D02*
D03*
X287598Y340256D02*
D03*
X221358Y376673D02*
D03*
X269882Y387205D02*
D03*
X200000Y319783D02*
D03*
Y327953D02*
D03*
X239173Y353150D02*
D03*
X217137Y371278D02*
D03*
X215650Y369390D02*
D03*
X154035Y320866D02*
D03*
X183661Y305118D02*
D03*
X136811Y311614D02*
D03*
X275295Y322146D02*
D03*
X189272Y318602D02*
D03*
X214173Y322835D02*
D03*
X283957Y300197D02*
D03*
X256594Y320276D02*
D03*
X269587Y262795D02*
D03*
X273242Y263989D02*
D03*
X271555Y272638D02*
D03*
X291437Y266437D02*
D03*
X295093Y269895D02*
D03*
X432480Y176673D02*
D03*
X439370Y187795D02*
D03*
X373819Y180020D02*
D03*
X435925Y184153D02*
D03*
X334646Y230020D02*
D03*
X359646Y171752D02*
D03*
X214577Y175107D02*
D03*
X209350Y196752D02*
D03*
X203740Y184843D02*
D03*
X196358Y170571D02*
D03*
X145374Y176083D02*
D03*
X437106Y180610D02*
D03*
X308775Y324032D02*
D03*
X308563Y298327D02*
D03*
X304232Y276378D02*
D03*
X364764Y259449D02*
D03*
X444980Y185039D02*
D03*
X363878Y262598D02*
D03*
X440256Y184350D02*
D03*
X353642Y308661D02*
D03*
X354429Y289961D02*
D03*
X437697Y177756D02*
D03*
X357480Y262008D02*
D03*
X386319Y179528D02*
D03*
X348031Y306398D02*
D03*
X382579Y179724D02*
D03*
X320866Y281988D02*
D03*
X350000Y281890D02*
D03*
X379232Y179724D02*
D03*
X348130Y302658D02*
D03*
X376673Y179528D02*
D03*
X360138Y175197D02*
D03*
X360352Y179930D02*
D03*
X359547Y177657D02*
D03*
X346161Y278445D02*
D03*
X362894Y180118D02*
D03*
X325787Y328248D02*
D03*
X341240Y290059D02*
D03*
X319094Y318012D02*
D03*
X278937Y387008D02*
D03*
X215748Y177264D02*
D03*
X235236Y179823D02*
D03*
X225995Y181997D02*
D03*
X228445Y180413D02*
D03*
X227559Y177165D02*
D03*
X219007Y178847D02*
D03*
X217815Y184744D02*
D03*
X256201Y279134D02*
D03*
X217924Y181997D02*
D03*
X234646Y279035D02*
D03*
X177362Y176575D02*
D03*
X174311Y178248D02*
D03*
X172343Y179823D02*
D03*
X170177Y181496D02*
D03*
X298819Y293602D02*
D03*
X167815Y183563D02*
D03*
X165453Y185531D02*
D03*
X302953Y294488D02*
D03*
X163779Y187795D02*
D03*
X161417Y189567D02*
D03*
X159843Y191634D02*
D03*
X252756Y383957D02*
D03*
X237848Y385630D02*
D03*
X235577D02*
D03*
D162*
X487795Y310335D02*
D03*
X480118Y340354D02*
D03*
X483858D02*
D03*
X487500D02*
D03*
X450787Y401772D02*
D03*
X450742Y406599D02*
D03*
X450787Y411319D02*
D03*
X421358Y411417D02*
D03*
X421342Y406599D02*
D03*
X421457Y401968D02*
D03*
X413189D02*
D03*
X413143Y406599D02*
D03*
X413189Y411319D02*
D03*
X383760Y401968D02*
D03*
X383743Y406599D02*
D03*
X383563Y410827D02*
D03*
X376083Y401968D02*
D03*
X375955Y406398D02*
D03*
X375984Y410925D02*
D03*
X346555Y406398D02*
D03*
Y401968D02*
D03*
Y410728D02*
D03*
X381102Y162500D02*
D03*
Y158366D02*
D03*
Y154035D02*
D03*
X371949D02*
D03*
Y162500D02*
D03*
Y158366D02*
D03*
X367520Y154035D02*
D03*
Y162500D02*
D03*
Y158366D02*
D03*
X376772Y154035D02*
D03*
Y162500D02*
D03*
X385925Y158366D02*
D03*
X376772D02*
D03*
X385925Y154035D02*
D03*
Y162500D02*
D03*
X231201Y163583D02*
D03*
Y159449D02*
D03*
Y155118D02*
D03*
X222047D02*
D03*
Y163583D02*
D03*
Y159449D02*
D03*
X217618Y155118D02*
D03*
Y163583D02*
D03*
Y159449D02*
D03*
X226870Y155118D02*
D03*
Y163583D02*
D03*
X236024Y159449D02*
D03*
X226870D02*
D03*
X236024Y155118D02*
D03*
Y163583D02*
D03*
X161024Y163091D02*
D03*
Y158957D02*
D03*
Y154626D02*
D03*
X151870D02*
D03*
Y163091D02*
D03*
Y158957D02*
D03*
X147441Y154626D02*
D03*
Y163091D02*
D03*
Y158957D02*
D03*
X156693Y154626D02*
D03*
Y163091D02*
D03*
X165847Y158957D02*
D03*
X156693D02*
D03*
X165847Y154626D02*
D03*
Y163091D02*
D03*
X454036Y163386D02*
D03*
Y159252D02*
D03*
Y154921D02*
D03*
X444882D02*
D03*
Y163386D02*
D03*
Y159252D02*
D03*
X440453Y154921D02*
D03*
Y163386D02*
D03*
Y159252D02*
D03*
X449705Y154921D02*
D03*
Y163386D02*
D03*
X458858Y159252D02*
D03*
X449705D02*
D03*
X458858Y154921D02*
D03*
Y163386D02*
D03*
D163*
X268110Y349803D02*
D03*
X322146Y346850D02*
D03*
X227264Y348130D02*
D03*
X191811Y378563D02*
D03*
D164*
X360335Y331791D02*
D03*
X399114Y259154D02*
D03*
X440158Y206594D02*
D03*
D165*
X400394Y223721D02*
D03*
X369390Y212303D02*
D03*
D166*
X299544Y116905D02*
D03*
X297644Y115105D02*
D03*
X307144Y112005D02*
D03*
X306344Y108805D02*
D03*
X301944Y106205D02*
D03*
X304444Y107105D02*
D03*
X299044Y107205D02*
D03*
X297144Y109405D02*
D03*
X296844Y112305D02*
D03*
X302044Y117805D02*
D03*
X306544Y115005D02*
D03*
X304744Y116905D02*
D03*
X292344Y112105D02*
D03*
X291744Y109105D02*
D03*
X289744Y107205D02*
D03*
X287144Y106305D02*
D03*
X284344Y107305D02*
D03*
X282444Y109405D02*
D03*
X282044Y112505D02*
D03*
X282744Y115405D02*
D03*
X284444Y117205D02*
D03*
X287144Y118005D02*
D03*
X290044Y117005D02*
D03*
X291844Y115105D02*
D03*
X449150Y116905D02*
D03*
X447250Y115105D02*
D03*
X456750Y112005D02*
D03*
X455950Y108805D02*
D03*
X451550Y106205D02*
D03*
X454050Y107105D02*
D03*
X448650Y107205D02*
D03*
X446750Y109405D02*
D03*
X446450Y112305D02*
D03*
X451650Y117805D02*
D03*
X456150Y115005D02*
D03*
X454350Y116905D02*
D03*
X441950Y112105D02*
D03*
X441350Y109105D02*
D03*
X439350Y107205D02*
D03*
X436750Y106305D02*
D03*
X433950Y107305D02*
D03*
X432050Y109405D02*
D03*
X431650Y112505D02*
D03*
X432350Y115405D02*
D03*
X434050Y117205D02*
D03*
X436750Y118005D02*
D03*
X439650Y117005D02*
D03*
X441450Y115105D02*
D03*
X376316Y116905D02*
D03*
X374416Y115105D02*
D03*
X383916Y112005D02*
D03*
X383116Y108805D02*
D03*
X378716Y106205D02*
D03*
X381216Y107105D02*
D03*
X375816Y107205D02*
D03*
X373916Y109405D02*
D03*
X373616Y112305D02*
D03*
X378816Y117805D02*
D03*
X383316Y115005D02*
D03*
X381516Y116905D02*
D03*
X369116Y112105D02*
D03*
X368516Y109105D02*
D03*
X366516Y107205D02*
D03*
X363916Y106305D02*
D03*
X361116Y107305D02*
D03*
X359216Y109405D02*
D03*
X358816Y112505D02*
D03*
X359516Y115405D02*
D03*
X361216Y117205D02*
D03*
X363916Y118005D02*
D03*
X366816Y117005D02*
D03*
X368616Y115105D02*
D03*
X226710Y116905D02*
D03*
X224810Y115105D02*
D03*
X234310Y112005D02*
D03*
X233509Y108805D02*
D03*
X229110Y106205D02*
D03*
X231609Y107105D02*
D03*
X226209Y107205D02*
D03*
X224309Y109405D02*
D03*
X224009Y112305D02*
D03*
X229209Y117805D02*
D03*
X233710Y115005D02*
D03*
X231909Y116905D02*
D03*
X219510Y112105D02*
D03*
X218910Y109105D02*
D03*
X216910Y107205D02*
D03*
X214310Y106305D02*
D03*
X211509Y107305D02*
D03*
X209610Y109405D02*
D03*
X209209Y112505D02*
D03*
X209910Y115405D02*
D03*
X211610Y117205D02*
D03*
X214310Y118005D02*
D03*
X217210Y117005D02*
D03*
X219009Y115105D02*
D03*
X155843Y116905D02*
D03*
X153943Y115105D02*
D03*
X163443Y112005D02*
D03*
X162643Y108805D02*
D03*
X158243Y106205D02*
D03*
X160743Y107105D02*
D03*
X155343Y107205D02*
D03*
X153443Y109405D02*
D03*
X153143Y112305D02*
D03*
X158343Y117805D02*
D03*
X162843Y115005D02*
D03*
X161043Y116905D02*
D03*
X148643Y112105D02*
D03*
X148043Y109105D02*
D03*
X146043Y107205D02*
D03*
X143443Y106305D02*
D03*
X140643Y107305D02*
D03*
X138743Y109405D02*
D03*
X138343Y112505D02*
D03*
X139043Y115405D02*
D03*
X140743Y117205D02*
D03*
X143443Y118005D02*
D03*
X146343Y117005D02*
D03*
X148143Y115105D02*
D03*
D167*
X480315Y51181D02*
D03*
X110236D02*
D03*
X480315Y401575D02*
D03*
X110236D02*
D03*
D168*
X235630Y378996D02*
D03*
X237598D02*
D03*
X229724D02*
D03*
X231693D02*
D03*
X233661D02*
D03*
X239567D02*
D03*
X241535D02*
D03*
Y358602D02*
D03*
X239567D02*
D03*
X237598D02*
D03*
X235630D02*
D03*
X233661D02*
D03*
X231693D02*
D03*
X229724D02*
D03*
D169*
X335925Y258661D02*
D03*
D170*
X328925Y262342D02*
D03*
Y254861D02*
D03*
D171*
X462205Y348425D02*
D03*
Y357087D02*
D03*
D172*
X471457Y318012D02*
D03*
Y322933D02*
D03*
Y327854D02*
D03*
Y332776D02*
D03*
D173*
X484257Y310712D02*
D03*
Y340112D02*
D03*
D174*
X330669Y356102D02*
D03*
D175*
X325669D02*
D03*
X320669D02*
D03*
X315669D02*
D03*
X330669Y377362D02*
D03*
X325669D02*
D03*
X320669D02*
D03*
X315669D02*
D03*
D176*
X291929Y276575D02*
D03*
Y269685D02*
D03*
X283268Y276575D02*
D03*
Y269685D02*
D03*
D177*
X245827Y374705D02*
D03*
Y372736D02*
D03*
Y370768D02*
D03*
Y368799D02*
D03*
Y366831D02*
D03*
Y364862D02*
D03*
Y362894D02*
D03*
X225433D02*
D03*
Y364862D02*
D03*
Y366831D02*
D03*
Y368799D02*
D03*
Y370768D02*
D03*
Y372736D02*
D03*
Y374705D02*
D03*
D178*
X235630Y368799D02*
D03*
D179*
X327854Y334154D02*
X347047D01*
X349409Y331791D01*
X360335D01*
M02*
