G04*
G04 #@! TF.GenerationSoftware,Altium Limited,Altium Designer,18.0.7 (293)*
G04*
G04 Layer_Color=65535*
%FSLAX25Y25*%
%MOIN*%
G70*
G01*
G75*
%ADD10C,0.01000*%
%ADD11C,0.00394*%
%ADD12C,0.01000*%
%ADD13C,0.00787*%
%ADD14C,0.00197*%
%ADD15C,0.00500*%
%ADD16C,0.00700*%
%ADD17C,0.00600*%
%ADD18C,0.00669*%
%ADD19C,0.00598*%
%ADD20C,0.00800*%
%ADD21C,0.00902*%
%ADD22R,0.01000X0.15000*%
%ADD23R,0.33661X0.01500*%
G36*
X171752Y408342D02*
X159901D01*
Y410118D01*
X171752D01*
Y408342D01*
D02*
G37*
G36*
X161909Y398468D02*
Y398378D01*
X150066D01*
Y398494D01*
X150013D01*
Y408150D01*
X152067D01*
Y400276D01*
X159901D01*
Y408150D01*
X161909D01*
Y398468D01*
D02*
G37*
G36*
X152067Y408215D02*
X142224D01*
Y392515D01*
X140169D01*
Y410118D01*
X152067D01*
Y408215D01*
D02*
G37*
G36*
X201279Y408204D02*
Y390550D01*
X199392D01*
Y408204D01*
X191437D01*
Y390556D01*
X189523D01*
Y408204D01*
X181595D01*
Y404424D01*
Y398515D01*
Y398504D01*
X171752D01*
Y398499D01*
X169775D01*
Y398504D01*
X169775D01*
Y400276D01*
X169775D01*
Y408150D01*
X171752D01*
Y400276D01*
X179661D01*
Y404424D01*
X179657D01*
Y410118D01*
X201279D01*
Y408204D01*
D02*
G37*
G36*
X142224Y390533D02*
X140176D01*
Y392402D01*
X142224D01*
Y390533D01*
D02*
G37*
G36*
X201279Y388565D02*
X199385D01*
Y390433D01*
X201279D01*
Y388565D01*
D02*
G37*
G36*
X191437Y388532D02*
X189500D01*
Y390433D01*
X191437D01*
Y388532D01*
D02*
G37*
D10*
X356791Y282382D02*
X356004D01*
X356791D01*
X444980Y329921D02*
X444193D01*
X444980D01*
X473327Y384744D02*
X472539D01*
X473327D01*
X369488Y292717D02*
X368701D01*
X369488D01*
X273657Y292154D02*
X272907Y292586D01*
Y291721D01*
X273657Y292154D01*
X372638Y282382D02*
X371850D01*
X372638D01*
X351811Y248031D02*
X351791Y249032D01*
X351731Y250030D01*
X351631Y251026D01*
X351491Y252016D01*
X351312Y253001D01*
X351094Y253977D01*
X350836Y254944D01*
X350541Y255900D01*
X350207Y256843D01*
X349836Y257772D01*
X349427Y258685D01*
X348983Y259581D01*
X348503Y260459D01*
X347989Y261317D01*
X347440Y262154D01*
X346859Y262968D01*
X346245Y263758D01*
X345600Y264523D01*
X344925Y265262D01*
X344221Y265972D01*
X343490Y266655D01*
X342731Y267307D01*
X341947Y267929D01*
X341139Y268518D01*
X340308Y269075D01*
X339455Y269598D01*
X338582Y270087D01*
X337690Y270540D01*
X336781Y270957D01*
X335856Y271338D01*
X334916Y271681D01*
X333963Y271987D01*
X332999Y272253D01*
X332025Y272482D01*
X331043Y272671D01*
X330053Y272820D01*
X329059Y272930D01*
X328061Y273000D01*
X327061Y273030D01*
X326061Y273020D01*
X325062Y272970D01*
X324065Y272880D01*
X323073Y272750D01*
X322087Y272581D01*
X321109Y272373D01*
X320140Y272125D01*
X319181Y271839D01*
X318234Y271514D01*
X317302Y271152D01*
X316384Y270753D01*
X315484Y270318D01*
X314601Y269847D01*
X313738Y269341D01*
X312896Y268801D01*
X312076Y268228D01*
X311280Y267622D01*
X310508Y266985D01*
X309763Y266317D01*
X309045Y265620D01*
X308356Y264896D01*
X307696Y264144D01*
X307066Y263366D01*
X306469Y262564D01*
X305904Y261738D01*
X305372Y260891D01*
X304874Y260023D01*
X304412Y259135D01*
X303986Y258230D01*
X303596Y257309D01*
X303244Y256373D01*
X302929Y255423D01*
X302652Y254462D01*
X302414Y253490D01*
X302215Y252509D01*
X302056Y251522D01*
X301936Y250529D01*
X301856Y249531D01*
X301816Y248532D01*
X301816Y247531D01*
X301856Y246532D01*
X301936Y245534D01*
X302056Y244541D01*
X302215Y243553D01*
X302414Y242573D01*
X302652Y241601D01*
X302929Y240640D01*
X303244Y239690D01*
X303596Y238754D01*
X303986Y237833D01*
X304412Y236928D01*
X304874Y236040D01*
X305372Y235172D01*
X305904Y234325D01*
X306469Y233499D01*
X307066Y232697D01*
X307696Y231919D01*
X308356Y231167D01*
X309045Y230442D01*
X309763Y229746D01*
X310508Y229078D01*
X311280Y228441D01*
X312076Y227835D01*
X312896Y227262D01*
X313738Y226722D01*
X314601Y226216D01*
X315484Y225745D01*
X316384Y225310D01*
X317302Y224911D01*
X318234Y224549D01*
X319181Y224224D01*
X320140Y223938D01*
X321109Y223691D01*
X322087Y223482D01*
X323073Y223312D01*
X324065Y223183D01*
X325062Y223093D01*
X326061Y223043D01*
X327061Y223033D01*
X328061Y223063D01*
X329059Y223133D01*
X330054Y223243D01*
X331043Y223392D01*
X332025Y223581D01*
X332999Y223810D01*
X333963Y224077D01*
X334916Y224382D01*
X335856Y224725D01*
X336781Y225106D01*
X337690Y225523D01*
X338582Y225976D01*
X339455Y226465D01*
X340308Y226988D01*
X341139Y227545D01*
X341947Y228134D01*
X342731Y228756D01*
X343490Y229408D01*
X344221Y230091D01*
X344925Y230802D01*
X345600Y231540D01*
X346245Y232305D01*
X346859Y233095D01*
X347440Y233909D01*
X347989Y234746D01*
X348503Y235604D01*
X348983Y236482D01*
X349428Y237378D01*
X349836Y238292D01*
X350207Y239221D01*
X350541Y240164D01*
X350836Y241119D01*
X351094Y242086D01*
X351312Y243062D01*
X351491Y244047D01*
X351631Y245037D01*
X351731Y246033D01*
X351791Y247031D01*
X351811Y248031D01*
X220669Y327362D02*
X219882D01*
X220669D01*
X466831Y340453D02*
X466043D01*
X466831D01*
X466732Y317618D02*
X465945D01*
X466732D01*
X101772Y191437D02*
X100984D01*
X101772D01*
X101969Y141732D02*
X101181D01*
X101969D01*
X476968Y292028D02*
X476181D01*
X476968D01*
X477756Y212697D02*
X476968D01*
X477756D01*
X101673Y237697D02*
X100886D01*
X101673D01*
X445768Y298031D02*
Y327953D01*
Y297244D02*
Y298031D01*
Y297244D02*
X456791D01*
Y327953D01*
X445768D02*
X456791D01*
X474114Y352854D02*
Y382776D01*
Y352067D02*
Y352854D01*
Y352067D02*
X485138D01*
Y382776D01*
X474114D02*
X485138D01*
X367913Y294685D02*
Y324606D01*
Y325394D01*
X356890D02*
X367913D01*
X356890Y294685D02*
Y325394D01*
Y294685D02*
X367913D01*
X116382Y286602D02*
X127406D01*
Y317311D01*
X116382D02*
X127406D01*
X106382Y287390D02*
Y317311D01*
Y286602D02*
Y287390D01*
Y286602D02*
X117405D01*
X106382Y317311D02*
X117405D01*
X221457Y295472D02*
Y325394D01*
Y294685D02*
Y295472D01*
Y294685D02*
X232480D01*
Y325394D01*
X221457D02*
X232480D01*
X347008Y378130D02*
X376929D01*
X346220D02*
X347008D01*
X346220Y367106D02*
Y378130D01*
X376929Y367106D02*
Y378130D01*
X346220Y357106D02*
Y368130D01*
Y357106D02*
X376929D01*
Y368130D01*
X102559Y159547D02*
Y189469D01*
Y158760D02*
Y159547D01*
Y158760D02*
X113583D01*
Y189469D01*
X102559D02*
X113583D01*
X102756Y109843D02*
Y139764D01*
Y109055D02*
Y109843D01*
Y109055D02*
X113779D01*
Y139764D01*
X102756D02*
X113779D01*
X477756Y260138D02*
Y290059D01*
Y259350D02*
Y260138D01*
Y259350D02*
X488779D01*
Y290059D01*
X477756D02*
X488779D01*
X478543Y180807D02*
Y210728D01*
Y180020D02*
Y180807D01*
Y180020D02*
X489567D01*
Y210728D01*
X478543D02*
X489567D01*
X354104Y202929D02*
X358854D01*
Y180929D02*
Y202929D01*
X346854Y180929D02*
X358854D01*
X346854D02*
Y202929D01*
X354104D01*
X360457Y222510D02*
Y227260D01*
X382457D01*
Y215260D02*
Y227260D01*
X360457Y215260D02*
X382457D01*
X360457D02*
Y222510D01*
X102461Y205807D02*
Y235728D01*
Y205020D02*
Y205807D01*
Y205020D02*
X113484D01*
Y235728D01*
X102461D02*
X113484D01*
X424478Y155390D02*
X429228D01*
Y133390D02*
Y155390D01*
X417228Y133390D02*
X429228D01*
X417228D02*
Y155390D01*
X424478D01*
X351545Y159770D02*
X356295D01*
Y137770D02*
Y159770D01*
X344295Y137770D02*
X356295D01*
X344295D02*
Y159770D01*
X351545D01*
X201742Y154898D02*
X206492D01*
Y132898D02*
Y154898D01*
X194492Y132898D02*
X206492D01*
X194492D02*
Y154898D01*
X201742D01*
X256368Y146138D02*
X261118D01*
Y124138D02*
Y146138D01*
X249118Y124138D02*
X261118D01*
X249118D02*
Y146138D01*
X256368D01*
X131663Y154898D02*
X136413D01*
Y132898D02*
Y154898D01*
X124413Y132898D02*
X136413D01*
X124413D02*
Y154898D01*
X131663D01*
X185404Y146630D02*
X190154D01*
Y124630D02*
Y146630D01*
X178154Y124630D02*
X190154D01*
X178154D02*
Y146630D01*
X185404D01*
X469295Y152732D02*
X476545D01*
X469295Y130732D02*
Y152732D01*
Y130732D02*
X481295D01*
Y152732D01*
X476545D02*
X481295D01*
X400201Y146236D02*
X407451D01*
X400201Y124236D02*
Y146236D01*
Y124236D02*
X412201D01*
Y146236D01*
X407451D02*
X412201D01*
X103900Y324487D02*
X102901Y325486D01*
X100901D01*
X99902Y324487D01*
Y323487D01*
X100901Y322487D01*
X102901D01*
X103900Y321487D01*
Y320488D01*
X102901Y319488D01*
X100901D01*
X99902Y320488D01*
X108899Y319488D02*
X106899D01*
X105900Y320488D01*
Y322487D01*
X106899Y323487D01*
X108899D01*
X109898Y322487D01*
Y321487D01*
X105900D01*
X111898Y323487D02*
Y319488D01*
Y321487D01*
X112897Y322487D01*
X113897Y323487D01*
X114897D01*
X117896D02*
X119895Y319488D01*
X121895Y323487D01*
X124893Y319488D02*
X126893D01*
X127892Y320488D01*
Y322487D01*
X126893Y323487D01*
X124893D01*
X123894Y322487D01*
Y320488D01*
X124893Y319488D01*
X263642Y194557D02*
Y196557D01*
Y195557D01*
X257644D01*
X258643Y194557D01*
D11*
X359104Y280709D02*
X359572Y279899D01*
X360507D01*
X360974Y280709D01*
X392323Y159104D02*
X391683Y158465D01*
X392323Y157825D01*
X242421Y160187D02*
X241781Y159547D01*
X242421Y158907D01*
X172244Y159695D02*
X171604Y159055D01*
X172244Y158415D01*
X465256Y159990D02*
X464616Y159350D01*
X465256Y158711D01*
X374951Y280709D02*
X375418Y279899D01*
X376353D01*
X376821Y280709D01*
X381909Y197116D02*
X381026Y196750D01*
X380660Y195866D01*
X381026Y194982D01*
X381909Y194616D01*
X360974Y280709D02*
X363091D01*
Y269488D02*
Y280709D01*
X356791Y269488D02*
Y280709D01*
Y269488D02*
X363091D01*
X356791Y280709D02*
X359104D01*
X392323Y159104D02*
Y166382D01*
Y150582D02*
Y157825D01*
X361614Y150582D02*
X392323D01*
X361614D02*
Y166382D01*
X392323D01*
X242421Y160187D02*
Y167465D01*
Y151665D02*
Y158907D01*
X211713Y151665D02*
X242421D01*
X211713D02*
Y167465D01*
X242421D01*
X172244Y159695D02*
Y166972D01*
Y151172D02*
Y158415D01*
X141535Y151172D02*
X172244D01*
X141535D02*
Y166972D01*
X172244D01*
X465256Y159990D02*
Y167268D01*
Y151468D02*
Y158711D01*
X434547Y151468D02*
X465256D01*
X434547D02*
Y167268D01*
X465256D01*
X396039Y372441D02*
X396039Y367241D01*
X419118D01*
Y377641D01*
X396039D02*
X419118D01*
X396039Y372441D02*
X396039Y377641D01*
X448856Y377838D02*
X448856Y372638D01*
X425778Y377838D02*
X448856D01*
X425778Y367438D02*
Y377838D01*
Y367438D02*
X448856D01*
X448856Y372638D01*
X238632Y376316D02*
Y384053D01*
X238931Y376316D02*
Y384053D01*
X239231Y376416D02*
Y384154D01*
X229631Y376279D02*
Y382584D01*
Y376279D02*
X241732D01*
Y384154D01*
X229631D02*
X241732D01*
X229631Y382584D02*
Y384154D01*
X228631Y384016D02*
Y386216D01*
X227532Y385117D02*
X229731D01*
X372638Y280709D02*
X374951D01*
X372638Y269488D02*
X378937D01*
X372638D02*
Y280709D01*
X378937Y269488D02*
Y280709D01*
X376821D02*
X378937D01*
X307111Y251932D02*
Y255331D01*
Y253631D02*
Y255331D01*
X305411Y253631D02*
X308811D01*
X242974Y367459D02*
Y369559D01*
X255274D01*
Y367459D02*
Y369559D01*
X242974Y367459D02*
X255274D01*
X216104Y367361D02*
Y369461D01*
X228404D01*
Y367361D02*
Y369461D01*
X216104Y367361D02*
X228404D01*
X448327Y267421D02*
Y285531D01*
Y267421D02*
X449902Y265846D01*
X464862D01*
X466437Y267421D02*
Y285531D01*
X464862Y265846D02*
X466437Y267421D01*
X449902Y287106D02*
X464862D01*
X466437Y285531D01*
X448327Y285531D02*
X449902Y287106D01*
X414173Y267421D02*
Y285531D01*
Y267421D02*
X415748Y265846D01*
X430709D01*
X432283Y267421D02*
Y285531D01*
X430709Y265846D02*
X432283Y267421D01*
X415748Y287106D02*
X430709D01*
X432283Y285531D01*
X414173Y285531D02*
X415748Y287106D01*
X466831Y320374D02*
Y338091D01*
X468012Y339272D01*
X479035D01*
X466831Y320374D02*
X479035D01*
Y339272D01*
X466732Y297539D02*
Y315256D01*
X467913Y316437D01*
X478937D01*
X466732Y297539D02*
X478937D01*
Y316437D01*
X332972Y392126D02*
Y410236D01*
X331398Y411811D02*
X332972Y410236D01*
X316437Y411811D02*
X331398D01*
X314862Y392126D02*
Y410236D01*
X316437Y411811D01*
Y390551D02*
X331398D01*
X314862Y392126D02*
X316437Y390551D01*
X331398D02*
X332972Y392126D01*
X215158Y265453D02*
Y283563D01*
X213583Y285138D02*
X215158Y283563D01*
X198622Y285138D02*
X213583D01*
X197047Y283563D02*
X197047Y265453D01*
X197047Y283563D02*
X198622Y285138D01*
Y263878D02*
X213583D01*
X197047Y265453D02*
X198622Y263878D01*
X213583D02*
X215158Y265453D01*
X323622Y318012D02*
X341732D01*
X322047Y316437D02*
X323622Y318012D01*
X322047Y301476D02*
X322047Y316437D01*
X323622Y299902D02*
X341732D01*
X322047Y301476D02*
X323622Y299902D01*
X343307Y301476D02*
Y316437D01*
X341732Y299902D02*
X343307Y301476D01*
X341732Y318012D02*
X343307Y316437D01*
X305233Y382799D02*
X310433Y382799D01*
X305233Y359720D02*
Y382799D01*
Y359720D02*
X315633D01*
Y382799D01*
X310433Y382799D02*
X315633Y382799D01*
X297933Y359917D02*
X303133D01*
Y382996D01*
X292733D02*
X303133D01*
X292733Y359917D02*
Y382996D01*
Y359917D02*
X297933D01*
X166634Y265846D02*
Y283957D01*
Y265846D02*
X168209Y264272D01*
X183169D01*
X184744Y265846D02*
Y283957D01*
X183169Y264272D02*
X184744Y265846D01*
X168209Y285531D02*
X183169D01*
X184744Y283957D01*
X166634Y283957D02*
X168209Y285531D01*
X100715Y386397D02*
X109915D01*
X100715Y329097D02*
Y386397D01*
Y329097D02*
X109915D01*
Y386397D01*
X134863Y294121D02*
Y303321D01*
Y294121D02*
X192163D01*
Y303321D01*
X134863D02*
X192163D01*
X454641Y217409D02*
X457541D01*
X456041Y216109D02*
Y218609D01*
X472142Y219910D02*
X485441D01*
X488941Y223410D01*
Y253909D01*
X459441Y219910D02*
X472142D01*
X455941Y223410D02*
X459441Y219910D01*
X455941Y223410D02*
Y253909D01*
X488941D01*
X418716Y217508D02*
X421616D01*
X420116Y218708D02*
X420116Y216208D01*
X436216Y220008D02*
X449516D01*
X453016Y223508D01*
Y254008D01*
X423516Y220008D02*
X436216D01*
X420016Y223508D02*
X423516Y220008D01*
X420016Y223508D02*
Y254008D01*
X453016D01*
X400457Y163563D02*
Y178563D01*
X399077Y171063D02*
Y178563D01*
X418837D01*
Y163563D02*
Y178563D01*
X399077Y163563D02*
X418837D01*
X399077D02*
Y171063D01*
X419057Y179463D02*
X420957D01*
X420057Y178463D02*
Y180363D01*
X389542Y181874D02*
Y197860D01*
Y181874D02*
X417742D01*
Y208374D01*
X389542D02*
X417742D01*
X389542Y197860D02*
Y208374D01*
X361910Y202496D02*
X381909Y202496D01*
X361910Y189196D02*
Y202496D01*
Y189196D02*
X381909Y189196D01*
X381909Y194616D01*
X381909Y202496D02*
X381909Y197116D01*
X291437Y206757D02*
X291442D01*
X257876D02*
X291442D01*
X257776Y206857D02*
X257876Y206757D01*
X257776Y198758D02*
X291437Y198758D01*
X291437Y208358D01*
X257776D02*
X291437D01*
X257776Y198758D02*
Y208358D01*
X306744Y104205D02*
X308744Y106205D01*
X306544Y119705D02*
X308744Y117505D01*
X308744Y106205D01*
X282744Y119705D02*
X306544D01*
X280444Y117405D02*
X282744Y119705D01*
X280444Y113810D02*
Y117405D01*
X283144Y104205D02*
X306744D01*
X280444Y106905D02*
X283144Y104205D01*
X280444Y106905D02*
Y113810D01*
X309144Y104205D02*
X310744Y104205D01*
X309944Y103505D02*
Y104905D01*
X456350Y104205D02*
X458350Y106205D01*
X456150Y119705D02*
X458350Y117505D01*
Y106205D02*
Y117505D01*
X432350Y119705D02*
X456150D01*
X430050Y117405D02*
X432350Y119705D01*
X430050Y113810D02*
Y117405D01*
X432750Y104205D02*
X456350D01*
X430050Y106905D02*
X432750Y104205D01*
X430050Y106905D02*
Y113810D01*
X458750Y104205D02*
X460350Y104205D01*
X459550Y103505D02*
Y104905D01*
X383516Y104205D02*
X385516Y106205D01*
X383316Y119705D02*
X385516Y117505D01*
Y106205D02*
Y117505D01*
X359516Y119705D02*
X383316D01*
X357216Y117405D02*
X359516Y119705D01*
X357216Y113810D02*
Y117405D01*
X359916Y104205D02*
X383516D01*
X357216Y106905D02*
X359916Y104205D01*
X357216Y106905D02*
Y113810D01*
X385916Y104205D02*
X387516Y104205D01*
X386716Y103505D02*
Y104905D01*
X233910Y104205D02*
X235910Y106205D01*
X233710Y119705D02*
X235910Y117505D01*
Y106205D02*
Y117505D01*
X209910Y119705D02*
X233710D01*
X207610Y117405D02*
X209910Y119705D01*
X207610Y113810D02*
Y117405D01*
X210310Y104205D02*
X233910D01*
X207610Y106905D02*
X210310Y104205D01*
X207610Y106905D02*
Y113810D01*
X236310Y104205D02*
X237910Y104205D01*
X237109Y103505D02*
Y104905D01*
X163043Y104205D02*
X165043Y106205D01*
X162843Y119705D02*
X165043Y117505D01*
Y106205D02*
Y117505D01*
X139043Y119705D02*
X162843D01*
X136743Y117405D02*
X139043Y119705D01*
X136743Y113810D02*
Y117405D01*
X139443Y104205D02*
X163043D01*
X136743Y106905D02*
X139443Y104205D01*
X136743Y106905D02*
Y113810D01*
X165443Y104205D02*
X167043Y104205D01*
X166243Y103505D02*
Y104905D01*
X240429Y254177D02*
X240429Y187177D01*
X168429D02*
X240429D01*
X168429D02*
X168429Y254177D01*
X202114D01*
X240429D01*
D12*
X393667Y167182D02*
D03*
X243765Y168265D02*
D03*
X173588Y167772D02*
D03*
X466600Y168068D02*
D03*
X111239Y387097D02*
D03*
X134387Y304420D02*
D03*
D13*
X131339Y383643D02*
X130551D01*
X131339D01*
X257185Y272539D02*
X256398D01*
X257185D01*
X282382Y370965D02*
X281594D01*
X282382D01*
X290846Y388681D02*
X290059D01*
X290846D01*
X243701Y388583D02*
X242913D01*
X243701D01*
X462591Y187146D02*
X461803D01*
X462591D01*
X295744Y216949D02*
X294957D01*
X295744D01*
X386843Y393799D02*
Y412999D01*
X410143D01*
Y393799D02*
Y412999D01*
X386843Y393799D02*
X410143D01*
X349655Y393598D02*
Y412798D01*
X372955D01*
Y393598D02*
Y412798D01*
X349655Y393598D02*
X372955D01*
X121457Y276279D02*
X153740Y276279D01*
X154528Y240059D02*
Y244783D01*
X151772Y242421D02*
X156890D01*
X125000Y243602D02*
X150197D01*
X121457Y247146D02*
X125000Y243602D01*
X121457Y278248D02*
X153740Y278248D01*
Y247146D02*
Y278248D01*
X150197Y243602D02*
X153740Y247146D01*
X121457Y247146D02*
Y278248D01*
X120768Y189961D02*
X153051Y189961D01*
X119980Y221457D02*
Y226181D01*
X117618Y223819D02*
X122736Y223819D01*
X124311Y222638D02*
X149508D01*
X153051Y219094D01*
X120768Y187992D02*
X153051Y187992D01*
X120768Y187992D02*
Y219094D01*
X124311Y222638D01*
X153051Y187992D02*
Y219094D01*
X309350Y208760D02*
X341634Y208760D01*
X342421Y172539D02*
Y177264D01*
X339665Y174902D02*
X344783D01*
X312894Y176083D02*
X338091D01*
X309350Y179626D02*
X312894Y176083D01*
X309350Y210728D02*
X341634Y210728D01*
Y179626D02*
Y210728D01*
X338091Y176083D02*
X341634Y179626D01*
X309350Y179626D02*
Y210728D01*
X271457Y173398D02*
X303740Y173398D01*
X304528Y137177D02*
Y141902D01*
X301772Y139539D02*
X306890D01*
X275000Y140720D02*
X300197D01*
X271457Y144264D02*
X275000Y140720D01*
X271457Y175366D02*
X303740Y175366D01*
Y144264D02*
Y175366D01*
X300197Y140720D02*
X303740Y144264D01*
X271457Y144264D02*
Y175366D01*
X424442Y393799D02*
X447742D01*
Y412999D01*
X424442Y412999D02*
X447742Y412999D01*
X424442Y393799D02*
Y412999D01*
D14*
X259816Y293491D02*
Y295091D01*
Y293491D02*
X263216D01*
Y295091D01*
X259816D02*
X263216D01*
X224619Y379501D02*
Y382901D01*
X223019Y379501D02*
X224619D01*
X223019D02*
Y382901D01*
X224619D01*
X287769Y266942D02*
X291168D01*
Y265342D02*
Y266942D01*
X287769Y265342D02*
X291168D01*
X287769D02*
Y266942D01*
X295460Y267198D02*
Y270598D01*
X297060D01*
Y267198D02*
Y270598D01*
X295460Y267198D02*
X297060D01*
X296135Y282395D02*
X299535D01*
Y280795D02*
Y282395D01*
X296135Y280795D02*
X299535D01*
X296135D02*
Y282395D01*
X128851Y379107D02*
Y382507D01*
X127251Y379107D02*
X128851D01*
X127251D02*
Y382507D01*
X128851D01*
X125603Y379107D02*
Y382507D01*
X124003Y379107D02*
X125603D01*
X124003D02*
Y382507D01*
X125603D01*
X463944Y213566D02*
X466349Y211162D01*
X463944Y213566D02*
X465076Y214697D01*
X467480Y212293D01*
X466349Y211162D02*
X467480Y212293D01*
X464358Y190721D02*
Y194121D01*
X465957D01*
Y190721D02*
Y194121D01*
X464358Y190721D02*
X465957D01*
X375072Y213595D02*
X378472D01*
Y211995D02*
Y213595D01*
X375072Y211995D02*
X378472D01*
X375072D02*
Y213595D01*
X294796Y202139D02*
Y205539D01*
X293196Y202139D02*
X294796D01*
X293196D02*
Y205539D01*
X294796D01*
X158800Y200679D02*
X161204Y203083D01*
X162335Y201952D01*
X159931Y199548D02*
X162335Y201952D01*
X158800Y200679D02*
X159931Y199548D01*
X283044Y192237D02*
X286444D01*
Y190637D02*
Y192237D01*
X283044Y190637D02*
X286444D01*
X283044D02*
Y192237D01*
X458733Y141917D02*
X462133D01*
X458733D02*
Y143517D01*
X462133D01*
Y141917D02*
Y143517D01*
X454107Y141917D02*
X457507D01*
X454107D02*
Y143517D01*
X457507D01*
Y141917D02*
Y143517D01*
X469895Y168084D02*
Y171484D01*
X468294Y168084D02*
X469895D01*
X468294D02*
Y171484D01*
X469895D01*
X432887Y149678D02*
Y153078D01*
X431287Y149678D02*
X432887D01*
X431287D02*
Y153078D01*
X432887D01*
X397060Y165229D02*
Y168629D01*
X395460Y165229D02*
X397060D01*
X395460D02*
Y168629D01*
X397060D01*
X210052Y149678D02*
Y153078D01*
X208452Y149678D02*
X210052D01*
X208452D02*
Y153078D01*
X210052D01*
X138176Y151700D02*
X139776D01*
X138176Y148300D02*
Y151700D01*
Y148300D02*
X139776D01*
Y151700D01*
X359953Y149678D02*
Y153078D01*
X358353Y149678D02*
X359953D01*
X358353D02*
Y153078D01*
X359953D01*
X386194Y141129D02*
X389594D01*
X386194D02*
Y142729D01*
X389594D01*
Y141129D02*
Y142729D01*
X381568Y141129D02*
X384968D01*
X381568D02*
Y142729D01*
X384968D01*
Y141129D02*
Y142729D01*
X247060Y168182D02*
Y171582D01*
X245460Y168182D02*
X247060D01*
X245460D02*
Y171582D01*
X247060D01*
X236391Y142212D02*
X239791D01*
X236391D02*
Y143812D01*
X239791D01*
Y142212D02*
Y143812D01*
X231765Y142212D02*
X235165D01*
X231765D02*
Y143812D01*
X235165D01*
Y142212D02*
Y143812D01*
X177079Y167887D02*
Y171287D01*
X175479Y167887D02*
X177079D01*
X175479D02*
Y171287D01*
X177079D01*
X165328Y141621D02*
X168728D01*
X165328D02*
Y143221D01*
X168728D01*
Y141621D02*
Y143221D01*
X164003Y141621D02*
Y143221D01*
X160603D02*
X164003D01*
X160603Y141621D02*
Y143221D01*
Y141621D02*
X164003D01*
D15*
X207185Y387480D02*
Y413071D01*
X136319D02*
X207185D01*
X136319Y387480D02*
Y413071D01*
X207185Y312677D02*
Y315630D01*
X197343Y312677D02*
X207185D01*
X136319D02*
X146161D01*
X136319D02*
Y315630D01*
X260531Y275492D02*
X262461D01*
X260531Y273563D02*
Y275492D01*
X274744Y259350D02*
X276673D01*
Y261280D01*
X260531Y259350D02*
Y261280D01*
Y259350D02*
X262461D01*
X276673Y273563D02*
Y275492D01*
X274744D02*
X276673D01*
X287323Y375492D02*
Y380610D01*
X280591Y375492D02*
Y380610D01*
X267618Y408169D02*
X297539D01*
Y396555D02*
Y398130D01*
X267618Y396555D02*
Y398130D01*
X297539Y406791D02*
Y407972D01*
X267618Y406791D02*
Y407972D01*
X220472Y408071D02*
X250394D01*
Y396457D02*
Y398031D01*
X220472Y396457D02*
Y398031D01*
X250394Y406693D02*
Y407874D01*
X220472Y406693D02*
Y407874D01*
X437657Y182933D02*
X452303D01*
X437657Y209390D02*
X452303D01*
Y182933D02*
Y183957D01*
Y208405D02*
Y209390D01*
X437657Y203524D02*
Y209390D01*
Y182933D02*
Y189232D01*
X268638Y228307D02*
X289779D01*
X268638Y212677D02*
X289779D01*
D16*
X381890Y388484D02*
X381988Y388386D01*
X453051D01*
Y393898D01*
X381890Y388484D02*
Y393701D01*
X486614Y357617D02*
X489946D01*
X486614Y367263D02*
X489946D01*
X488280Y368929D02*
Y365597D01*
X490143Y379165D02*
X489310Y379998D01*
X487644D01*
X486811Y379165D01*
Y378332D01*
X487644Y377499D01*
X489310D01*
X490143Y376666D01*
Y375833D01*
X489310Y375000D01*
X487644D01*
X486811Y375833D01*
D17*
X270458Y289454D02*
Y292553D01*
Y328854D02*
X273557D01*
X309858Y325753D02*
Y328854D01*
Y289454D02*
Y292553D01*
X306757Y328854D02*
X309858D01*
X270458Y325753D02*
Y328854D01*
Y289454D02*
X273557D01*
X306757D02*
X309858D01*
X372942Y342177D02*
Y346676D01*
X375192D01*
X375942Y345926D01*
Y344426D01*
X375192Y343677D01*
X372942D01*
X374442D02*
X375942Y342177D01*
X378191D02*
X379690D01*
X380440Y342927D01*
Y344426D01*
X379690Y345176D01*
X378191D01*
X377441Y344426D01*
Y342927D01*
X378191Y342177D01*
X381940Y346676D02*
Y342177D01*
X384189D01*
X384939Y342927D01*
Y343677D01*
Y344426D01*
X384189Y345176D01*
X381940D01*
X387188Y342177D02*
X388687D01*
X389437Y342927D01*
Y344426D01*
X388687Y345176D01*
X387188D01*
X386438Y344426D01*
Y342927D01*
X387188Y342177D01*
X391687Y345926D02*
Y345176D01*
X390937D01*
X392436D01*
X391687D01*
Y342927D01*
X392436Y342177D01*
X402183Y345926D02*
X401433Y346676D01*
X399934D01*
X399184Y345926D01*
Y342927D01*
X399934Y342177D01*
X401433D01*
X402183Y342927D01*
X404432Y342177D02*
X405932D01*
X406682Y342927D01*
Y344426D01*
X405932Y345176D01*
X404432D01*
X403683Y344426D01*
Y342927D01*
X404432Y342177D01*
X408181D02*
Y345176D01*
X410430D01*
X411180Y344426D01*
Y342177D01*
X413429Y345926D02*
Y345176D01*
X412680D01*
X414179D01*
X413429D01*
Y342927D01*
X414179Y342177D01*
X416429Y345176D02*
Y342177D01*
Y343677D01*
X417178Y344426D01*
X417928Y345176D01*
X418678D01*
X421677Y342177D02*
X423176D01*
X423926Y342927D01*
Y344426D01*
X423176Y345176D01*
X421677D01*
X420927Y344426D01*
Y342927D01*
X421677Y342177D01*
X425426D02*
X426925D01*
X426175D01*
Y346676D01*
X425426D01*
X429174Y342177D02*
X430674D01*
X429924D01*
Y346676D01*
X429174D01*
X435173Y342177D02*
X433673D01*
X432923Y342927D01*
Y344426D01*
X433673Y345176D01*
X435173D01*
X435922Y344426D01*
Y343677D01*
X432923D01*
X437422Y345176D02*
Y342177D01*
Y343677D01*
X438171Y344426D01*
X438921Y345176D01*
X439671D01*
X446419Y342177D02*
Y346676D01*
X448668D01*
X449418Y345926D01*
Y344426D01*
X448668Y343677D01*
X446419D01*
X447918D02*
X449418Y342177D01*
X450917D02*
X452417D01*
X451667D01*
Y346676D01*
X450917Y345926D01*
X372942Y339837D02*
X374442D01*
X373692D01*
Y335339D01*
X372942D01*
X374442D01*
X376691D02*
X378941D01*
X379690Y336089D01*
X378941Y336838D01*
X377441D01*
X376691Y337588D01*
X377441Y338338D01*
X379690D01*
X381940D02*
X383439D01*
X384189Y337588D01*
Y335339D01*
X381940D01*
X381190Y336089D01*
X381940Y336838D01*
X384189D01*
X386438Y338338D02*
X387938D01*
X388687Y337588D01*
Y335339D01*
X386438D01*
X385688Y336089D01*
X386438Y336838D01*
X388687D01*
X393186Y338338D02*
X390937D01*
X390187Y337588D01*
Y336089D01*
X390937Y335339D01*
X393186D01*
X399184Y339837D02*
Y335339D01*
X400684Y336838D01*
X402183Y335339D01*
Y339837D01*
X404432Y335339D02*
X405932D01*
X406682Y336089D01*
Y337588D01*
X405932Y338338D01*
X404432D01*
X403683Y337588D01*
Y336089D01*
X404432Y335339D01*
X408181D02*
Y338338D01*
X410430D01*
X411180Y337588D01*
Y335339D01*
X414179Y333839D02*
X414929D01*
X415679Y334589D01*
Y338338D01*
X413429D01*
X412680Y337588D01*
Y336089D01*
X413429Y335339D01*
X415679D01*
X372942Y327001D02*
Y331500D01*
X374442Y330000D01*
X375942Y331500D01*
Y327001D01*
X378191Y330000D02*
X379690D01*
X380440Y329250D01*
Y327001D01*
X378191D01*
X377441Y327751D01*
X378191Y328501D01*
X380440D01*
X381940Y330000D02*
Y327751D01*
X382689Y327001D01*
X384939D01*
Y326251D01*
X384189Y325502D01*
X383439D01*
X384939Y327001D02*
Y330000D01*
X393936Y327001D02*
X390937D01*
X393936Y330000D01*
Y330750D01*
X393186Y331500D01*
X391687D01*
X390937Y330750D01*
X395435D02*
X396185Y331500D01*
X397685D01*
X398434Y330750D01*
Y327751D01*
X397685Y327001D01*
X396185D01*
X395435Y327751D01*
Y330750D01*
X402933Y327001D02*
X399934D01*
X402933Y330000D01*
Y330750D01*
X402183Y331500D01*
X400684D01*
X399934Y330750D01*
X404432D02*
X405182Y331500D01*
X406682D01*
X407431Y330750D01*
Y327751D01*
X406682Y327001D01*
X405182D01*
X404432Y327751D01*
Y330750D01*
X411221Y386880D02*
X412720D01*
X411970D01*
Y382382D01*
X411221D01*
X412720D01*
X417968D02*
X414969D01*
X417968Y385381D01*
Y386131D01*
X417218Y386880D01*
X415719D01*
X414969Y386131D01*
X422467D02*
X421717Y386880D01*
X420218D01*
X419468Y386131D01*
Y383132D01*
X420218Y382382D01*
X421717D01*
X422467Y383132D01*
X370538Y355028D02*
X370005Y355561D01*
X368939D01*
X368406Y355028D01*
Y352895D01*
X368939Y352362D01*
X370005D01*
X370538Y352895D01*
Y353962D01*
X369472D01*
X371604Y352362D02*
Y355561D01*
X373737Y352362D01*
Y355561D01*
X374803D02*
Y352362D01*
X376403D01*
X376936Y352895D01*
Y355028D01*
X376403Y355561D01*
X374803D01*
X357382Y382727D02*
Y379528D01*
X358981D01*
X359514Y380061D01*
Y382193D01*
X358981Y382727D01*
X357382D01*
X360581D02*
X361647D01*
X361114D01*
Y379528D01*
X360581D01*
X361647D01*
X364846Y382727D02*
X363780D01*
X363247Y382193D01*
Y380061D01*
X363780Y379528D01*
X364846D01*
X365379Y380061D01*
Y382193D01*
X364846Y382727D01*
X355118Y352461D02*
Y354593D01*
X356718D01*
X357251Y354060D01*
Y352461D01*
X358317D02*
Y355660D01*
X359917D01*
X360450Y355126D01*
Y354060D01*
X359917Y353527D01*
X358317D01*
X359383D02*
X360450Y352461D01*
X363649Y355126D02*
X363116Y355660D01*
X362049D01*
X361516Y355126D01*
Y354593D01*
X362049Y354060D01*
X363116D01*
X363649Y353527D01*
Y352994D01*
X363116Y352461D01*
X362049D01*
X361516Y352994D01*
X364715Y355660D02*
X366848D01*
X365781D01*
Y352461D01*
X369652Y382193D02*
X369119Y382727D01*
X368053D01*
X367520Y382193D01*
Y381660D01*
X368053Y381127D01*
X369119D01*
X369652Y380594D01*
Y380061D01*
X369119Y379528D01*
X368053D01*
X367520Y380061D01*
X370719Y382727D02*
Y379528D01*
X371785Y380594D01*
X372851Y379528D01*
Y382727D01*
X375517D02*
X374451D01*
X373918Y382193D01*
Y380061D01*
X374451Y379528D01*
X375517D01*
X376050Y380061D01*
Y382193D01*
X375517Y382727D01*
X348097Y382292D02*
X347564Y382825D01*
X346498D01*
X345965Y382292D01*
Y380159D01*
X346498Y379626D01*
X347564D01*
X348097Y380159D01*
X349164Y382825D02*
Y379626D01*
X351296D01*
X352362Y382825D02*
Y379626D01*
Y380692D01*
X354495Y382825D01*
X352896Y381225D01*
X354495Y379626D01*
X233268Y354282D02*
Y351083D01*
X234867D01*
X235400Y351616D01*
Y353748D01*
X234867Y354282D01*
X233268D01*
X236467Y351083D02*
X237533D01*
X237000D01*
Y354282D01*
X236467Y353748D01*
X359449Y126743D02*
Y122244D01*
X361698D01*
X362448Y122994D01*
Y123744D01*
X361698Y124493D01*
X359449D01*
X361698D01*
X362448Y125243D01*
Y125993D01*
X361698Y126743D01*
X359449D01*
X363947Y122244D02*
Y126743D01*
X366197D01*
X366946Y125993D01*
Y124493D01*
X366197Y123744D01*
X363947D01*
X365447D02*
X366946Y122244D01*
X368446Y121494D02*
X371445D01*
X372944Y122244D02*
Y126743D01*
X374444Y125243D01*
X375943Y126743D01*
Y122244D01*
X379692Y126743D02*
X378193D01*
X377443Y125993D01*
Y122994D01*
X378193Y122244D01*
X379692D01*
X380442Y122994D01*
Y125993D01*
X379692Y126743D01*
X381942D02*
X384941D01*
X383441D01*
Y122244D01*
X210039Y126546D02*
Y122047D01*
X212289D01*
X213038Y122797D01*
Y123547D01*
X212289Y124296D01*
X210039D01*
X212289D01*
X213038Y125046D01*
Y125796D01*
X212289Y126546D01*
X210039D01*
X214538D02*
Y122047D01*
X217537D01*
X219037Y121298D02*
X222036D01*
X223535Y122047D02*
Y126546D01*
X225034Y125046D01*
X226534Y126546D01*
Y122047D01*
X230283Y126546D02*
X228783D01*
X228034Y125796D01*
Y122797D01*
X228783Y122047D01*
X230283D01*
X231033Y122797D01*
Y125796D01*
X230283Y126546D01*
X232532D02*
X235531D01*
X234032D01*
Y122047D01*
X435086Y126546D02*
X432087D01*
Y124296D01*
X433586D01*
X432087D01*
Y122047D01*
X436585D02*
Y126546D01*
X438834D01*
X439584Y125796D01*
Y124296D01*
X438834Y123547D01*
X436585D01*
X438085D02*
X439584Y122047D01*
X441084Y121298D02*
X444083D01*
X445582Y122047D02*
Y126546D01*
X447082Y125046D01*
X448581Y126546D01*
Y122047D01*
X452330Y126546D02*
X450831D01*
X450081Y125796D01*
Y122797D01*
X450831Y122047D01*
X452330D01*
X453080Y122797D01*
Y125796D01*
X452330Y126546D01*
X454579D02*
X457578D01*
X456079D01*
Y122047D01*
X141188Y126152D02*
X138189D01*
Y123903D01*
X139689D01*
X138189D01*
Y121653D01*
X142687Y126152D02*
Y121653D01*
X145687D01*
X147186Y120904D02*
X150185D01*
X151685Y121653D02*
Y126152D01*
X153184Y124653D01*
X154684Y126152D01*
Y121653D01*
X158432Y126152D02*
X156933D01*
X156183Y125402D01*
Y122403D01*
X156933Y121653D01*
X158432D01*
X159182Y122403D01*
Y125402D01*
X158432Y126152D01*
X160682D02*
X163681D01*
X162181D01*
Y121653D01*
D18*
X146587Y340550D02*
X144947D01*
X145767D01*
Y336450D01*
X144947Y335630D01*
X144127D01*
X143307Y336450D01*
X148227Y340550D02*
Y335630D01*
X151506D01*
X156426Y339730D02*
X155606Y340550D01*
X153966D01*
X153146Y339730D01*
Y336450D01*
X153966Y335630D01*
X155606D01*
X156426Y336450D01*
X161346Y340550D02*
X159706D01*
X160526D01*
Y336450D01*
X159706Y335630D01*
X158886D01*
X158066Y336450D01*
X162986Y340550D02*
Y335630D01*
X166266D01*
X171185Y339730D02*
X170365Y340550D01*
X168725D01*
X167905Y339730D01*
Y336450D01*
X168725Y335630D01*
X170365D01*
X171185Y336450D01*
X176105Y340550D02*
X174465D01*
X175285D01*
Y336450D01*
X174465Y335630D01*
X173645D01*
X172825Y336450D01*
X177745Y340550D02*
Y335630D01*
X181025D01*
X185944Y339730D02*
X185124Y340550D01*
X183484D01*
X182665Y339730D01*
Y336450D01*
X183484Y335630D01*
X185124D01*
X185944Y336450D01*
X190864Y340550D02*
X189224D01*
X190044D01*
Y336450D01*
X189224Y335630D01*
X188404D01*
X187584Y336450D01*
X192504Y340550D02*
Y335630D01*
X195784D01*
X200703Y339730D02*
X199883Y340550D01*
X198243D01*
X197424Y339730D01*
Y336450D01*
X198243Y335630D01*
X199883D01*
X200703Y336450D01*
D19*
X356102Y268456D02*
Y265789D01*
X356636Y265256D01*
X357702D01*
X358236Y265789D01*
Y268456D01*
X359302Y265256D02*
X360369D01*
X359835D01*
Y268456D01*
X359302Y267922D01*
X361969D02*
X362502Y268456D01*
X363568D01*
X364102Y267922D01*
Y265789D01*
X363568Y265256D01*
X362502D01*
X361969Y265789D01*
Y267922D01*
X440650Y179479D02*
Y176813D01*
X441183Y176279D01*
X442249D01*
X442783Y176813D01*
Y179479D01*
X443849Y176279D02*
X444916D01*
X444383D01*
Y179479D01*
X443849Y178946D01*
X448649Y176279D02*
X446516D01*
X448649Y178413D01*
Y178946D01*
X448116Y179479D01*
X447049D01*
X446516Y178946D01*
X449716Y175746D02*
X451849D01*
X455049Y179479D02*
X452915D01*
Y177879D01*
X453982D01*
X452915D01*
Y176279D01*
X456115D02*
Y179479D01*
X457715D01*
X458248Y178946D01*
Y177879D01*
X457715Y177346D01*
X456115D01*
X457182D02*
X458248Y176279D01*
X147343Y178889D02*
Y176222D01*
X147876Y175689D01*
X148942D01*
X149476Y176222D01*
Y178889D01*
X150542Y175689D02*
X151609D01*
X151076D01*
Y178889D01*
X150542Y178355D01*
X155342Y175689D02*
X153209D01*
X155342Y177822D01*
Y178355D01*
X154809Y178889D01*
X153742D01*
X153209Y178355D01*
X156409Y175156D02*
X158542D01*
X161741Y178889D02*
X159608D01*
Y177289D01*
X160675D01*
X159608D01*
Y175689D01*
X162808Y178889D02*
Y175689D01*
X164941D01*
X361811Y178200D02*
Y175533D01*
X362344Y175000D01*
X363411D01*
X363944Y175533D01*
Y178200D01*
X365011Y175000D02*
X366077D01*
X365544D01*
Y178200D01*
X365011Y177666D01*
X369810Y175000D02*
X367677D01*
X369810Y177133D01*
Y177666D01*
X369277Y178200D01*
X368211D01*
X367677Y177666D01*
X370877Y174467D02*
X373010D01*
X374077Y178200D02*
Y175000D01*
X375677D01*
X376210Y175533D01*
Y176067D01*
X375677Y176600D01*
X374077D01*
X375677D01*
X376210Y177133D01*
Y177666D01*
X375677Y178200D01*
X374077D01*
X377276Y175000D02*
Y178200D01*
X378876D01*
X379410Y177666D01*
Y176600D01*
X378876Y176067D01*
X377276D01*
X378343D02*
X379410Y175000D01*
X217323Y179086D02*
Y176419D01*
X217856Y175886D01*
X218923D01*
X219456Y176419D01*
Y179086D01*
X220523Y175886D02*
X221589D01*
X221056D01*
Y179086D01*
X220523Y178552D01*
X225322Y175886D02*
X223189D01*
X225322Y178019D01*
Y178552D01*
X224789Y179086D01*
X223722D01*
X223189Y178552D01*
X226389Y175353D02*
X228522D01*
X229589Y179086D02*
Y175886D01*
X231189D01*
X231722Y176419D01*
Y176952D01*
X231189Y177486D01*
X229589D01*
X231189D01*
X231722Y178019D01*
Y178552D01*
X231189Y179086D01*
X229589D01*
X232788D02*
Y175886D01*
X234922D01*
X373130Y268357D02*
Y265691D01*
X373663Y265158D01*
X374730D01*
X375263Y265691D01*
Y268357D01*
X376330Y265691D02*
X376863Y265158D01*
X377930D01*
X378463Y265691D01*
Y267824D01*
X377930Y268357D01*
X376863D01*
X376330Y267824D01*
Y267291D01*
X376863Y266757D01*
X378463D01*
X259154Y281960D02*
Y279293D01*
X259687Y278760D01*
X260753D01*
X261287Y279293D01*
Y281960D01*
X262353Y281426D02*
X262887Y281960D01*
X263953D01*
X264487Y281426D01*
Y280893D01*
X263953Y280360D01*
X264487Y279826D01*
Y279293D01*
X263953Y278760D01*
X262887D01*
X262353Y279293D01*
Y279826D01*
X262887Y280360D01*
X262353Y280893D01*
Y281426D01*
X262887Y280360D02*
X263953D01*
X429921Y187845D02*
Y185179D01*
X430455Y184646D01*
X431521D01*
X432054Y185179D01*
Y187845D01*
X433121D02*
X435254D01*
Y187312D01*
X433121Y185179D01*
Y184646D01*
X386960Y198130D02*
X384293D01*
X383760Y197597D01*
Y196530D01*
X384293Y195997D01*
X386960D01*
Y192797D02*
X386426Y193864D01*
X385360Y194930D01*
X384293D01*
X383760Y194397D01*
Y193330D01*
X384293Y192797D01*
X384826D01*
X385360Y193330D01*
Y194930D01*
X271850Y197294D02*
Y194628D01*
X272384Y194095D01*
X273450D01*
X273984Y194628D01*
Y197294D01*
X277183D02*
X275050D01*
Y195694D01*
X276117Y196228D01*
X276650D01*
X277183Y195694D01*
Y194628D01*
X276650Y194095D01*
X275583D01*
X275050Y194628D01*
X283563Y372097D02*
Y369431D01*
X284096Y368898D01*
X285163D01*
X285696Y369431D01*
Y372097D01*
X288363Y368898D02*
Y372097D01*
X286763Y370497D01*
X288896D01*
X266339Y333613D02*
Y330947D01*
X266872Y330413D01*
X267938D01*
X268472Y330947D01*
Y333613D01*
X269538Y333080D02*
X270072Y333613D01*
X271138D01*
X271672Y333080D01*
Y332547D01*
X271138Y332013D01*
X270605D01*
X271138D01*
X271672Y331480D01*
Y330947D01*
X271138Y330413D01*
X270072D01*
X269538Y330947D01*
X170177Y384263D02*
Y381596D01*
X170710Y381063D01*
X171777D01*
X172310Y381596D01*
Y384263D01*
X173377Y381063D02*
X174443D01*
X173910D01*
Y384263D01*
X173377Y383729D01*
X417717Y291487D02*
Y288821D01*
X418250Y288287D01*
X419316D01*
X419850Y288821D01*
Y291487D01*
X423049Y290954D02*
X422516Y291487D01*
X421450D01*
X420916Y290954D01*
Y290421D01*
X421450Y289887D01*
X422516D01*
X423049Y289354D01*
Y288821D01*
X422516Y288287D01*
X421450D01*
X420916Y288821D01*
X424116Y288287D02*
Y291487D01*
X425716D01*
X426249Y290954D01*
Y289887D01*
X425716Y289354D01*
X424116D01*
X425183D02*
X426249Y288287D01*
X427316D02*
X428382D01*
X427849D01*
Y291487D01*
X427316Y290954D01*
X451476Y291290D02*
Y288624D01*
X452010Y288090D01*
X453076D01*
X453610Y288624D01*
Y291290D01*
X456809Y290757D02*
X456276Y291290D01*
X455209D01*
X454676Y290757D01*
Y290224D01*
X455209Y289690D01*
X456276D01*
X456809Y289157D01*
Y288624D01*
X456276Y288090D01*
X455209D01*
X454676Y288624D01*
X457876Y288090D02*
Y291290D01*
X459476D01*
X460009Y290757D01*
Y289690D01*
X459476Y289157D01*
X457876D01*
X458943D02*
X460009Y288090D01*
X463209D02*
X461076D01*
X463209Y290224D01*
Y290757D01*
X462676Y291290D01*
X461609D01*
X461076Y290757D01*
X328150Y290453D02*
Y293653D01*
X329749D01*
X330283Y293119D01*
Y292053D01*
X329749Y291519D01*
X328150D01*
X329216D02*
X330283Y290453D01*
X333483Y293119D02*
X332949Y293653D01*
X331883D01*
X331349Y293119D01*
Y292586D01*
X331883Y292053D01*
X332949D01*
X333483Y291519D01*
Y290986D01*
X332949Y290453D01*
X331883D01*
X331349Y290986D01*
X334549Y293653D02*
X336682D01*
X335616D01*
Y290453D01*
X316535Y389322D02*
Y386122D01*
X318135D01*
X318669Y386655D01*
Y387189D01*
X318135Y387722D01*
X316535D01*
X318135D01*
X318669Y388255D01*
Y388789D01*
X318135Y389322D01*
X316535D01*
X321335D02*
X320269D01*
X319735Y388789D01*
Y386655D01*
X320269Y386122D01*
X321335D01*
X321868Y386655D01*
Y388789D01*
X321335Y389322D01*
X324535D02*
X323468D01*
X322935Y388789D01*
Y386655D01*
X323468Y386122D01*
X324535D01*
X325068Y386655D01*
Y388789D01*
X324535Y389322D01*
X326135D02*
X328268D01*
X327201D01*
Y386122D01*
X329334Y388789D02*
X329868Y389322D01*
X330934D01*
X331468Y388789D01*
Y386655D01*
X330934Y386122D01*
X329868D01*
X329334Y386655D01*
Y388789D01*
X170177Y289716D02*
Y286516D01*
X171777D01*
X172310Y287049D01*
Y287582D01*
X171777Y288116D01*
X170177D01*
X171777D01*
X172310Y288649D01*
Y289182D01*
X171777Y289716D01*
X170177D01*
X174977D02*
X173910D01*
X173377Y289182D01*
Y287049D01*
X173910Y286516D01*
X174977D01*
X175510Y287049D01*
Y289182D01*
X174977Y289716D01*
X178177D02*
X177110D01*
X176577Y289182D01*
Y287049D01*
X177110Y286516D01*
X178177D01*
X178710Y287049D01*
Y289182D01*
X178177Y289716D01*
X179776D02*
X181910D01*
X180843D01*
Y286516D01*
X205381Y289420D02*
X203248D01*
Y286221D01*
X205381D01*
X203248Y287820D02*
X204315D01*
X206448Y286221D02*
Y289420D01*
X208581Y286221D01*
Y289420D01*
X422146Y175295D02*
Y178495D01*
X423746D01*
X424279Y177962D01*
Y176895D01*
X423746Y176362D01*
X422146D01*
X423212D02*
X424279Y175295D01*
X427479D02*
X425345D01*
X427479Y177428D01*
Y177962D01*
X426945Y178495D01*
X425879D01*
X425345Y177962D01*
X428545Y175829D02*
X429078Y175295D01*
X430145D01*
X430678Y175829D01*
Y177962D01*
X430145Y178495D01*
X429078D01*
X428545Y177962D01*
Y177428D01*
X429078Y176895D01*
X430678D01*
X131004Y174803D02*
Y178003D01*
X132604D01*
X133137Y177470D01*
Y176403D01*
X132604Y175870D01*
X131004D01*
X132071D02*
X133137Y174803D01*
X136337D02*
X134204D01*
X136337Y176936D01*
Y177470D01*
X135804Y178003D01*
X134737D01*
X134204Y177470D01*
X137403Y175336D02*
X137937Y174803D01*
X139003D01*
X139537Y175336D01*
Y177470D01*
X139003Y178003D01*
X137937D01*
X137403Y177470D01*
Y176936D01*
X137937Y176403D01*
X139537D01*
X346457Y175492D02*
Y178692D01*
X348057D01*
X348590Y178159D01*
Y177092D01*
X348057Y176559D01*
X346457D01*
X347523D02*
X348590Y175492D01*
X351790D02*
X349657D01*
X351790Y177625D01*
Y178159D01*
X351256Y178692D01*
X350190D01*
X349657Y178159D01*
X352856Y176025D02*
X353390Y175492D01*
X354456D01*
X354989Y176025D01*
Y178159D01*
X354456Y178692D01*
X353390D01*
X352856Y178159D01*
Y177625D01*
X353390Y177092D01*
X354989D01*
X201870Y175197D02*
Y178397D01*
X203470D01*
X204003Y177863D01*
Y176797D01*
X203470Y176263D01*
X201870D01*
X202937D02*
X204003Y175197D01*
X207203D02*
X205070D01*
X207203Y177330D01*
Y177863D01*
X206670Y178397D01*
X205603D01*
X205070Y177863D01*
X208270Y175730D02*
X208803Y175197D01*
X209870D01*
X210403Y175730D01*
Y177863D01*
X209870Y178397D01*
X208803D01*
X208270Y177863D01*
Y177330D01*
X208803Y176797D01*
X210403D01*
X242618Y251279D02*
Y254479D01*
X244218D01*
X244751Y253946D01*
Y252879D01*
X244218Y252346D01*
X242618D01*
X243685D02*
X244751Y251279D01*
X247951D02*
X245818D01*
X247951Y253413D01*
Y253946D01*
X247418Y254479D01*
X246351D01*
X245818Y253946D01*
X251151Y254479D02*
X249018D01*
Y252879D01*
X250084Y253413D01*
X250618D01*
X251151Y252879D01*
Y251813D01*
X250618Y251279D01*
X249551D01*
X249018Y251813D01*
X242618Y255512D02*
Y258712D01*
X244218D01*
X244751Y258178D01*
Y257112D01*
X244218Y256578D01*
X242618D01*
X243685D02*
X244751Y255512D01*
X247951D02*
X245818D01*
X247951Y257645D01*
Y258178D01*
X247418Y258712D01*
X246351D01*
X245818Y258178D01*
X250618Y255512D02*
Y258712D01*
X249018Y257112D01*
X251151D01*
X434463Y362500D02*
Y365700D01*
X436062D01*
X436596Y365166D01*
Y364100D01*
X436062Y363567D01*
X434463D01*
X435529D02*
X436596Y362500D01*
X439795D02*
X437662D01*
X439795Y364633D01*
Y365166D01*
X439262Y365700D01*
X438196D01*
X437662Y365166D01*
X440862Y362500D02*
X441929D01*
X441395D01*
Y365700D01*
X440862Y365166D01*
X402953Y362500D02*
Y365700D01*
X404553D01*
X405086Y365166D01*
Y364100D01*
X404553Y363567D01*
X402953D01*
X404019D02*
X405086Y362500D01*
X408286D02*
X406152D01*
X408286Y364633D01*
Y365166D01*
X407752Y365700D01*
X406686D01*
X406152Y365166D01*
X409352D02*
X409886Y365700D01*
X410952D01*
X411485Y365166D01*
Y363033D01*
X410952Y362500D01*
X409886D01*
X409352Y363033D01*
Y365166D01*
X260138Y172146D02*
Y175345D01*
X261738D01*
X262271Y174812D01*
Y173746D01*
X261738Y173212D01*
X260138D01*
X261204D02*
X262271Y172146D01*
X263338D02*
X264404D01*
X263871D01*
Y175345D01*
X263338Y174812D01*
X266004Y172679D02*
X266537Y172146D01*
X267604D01*
X268137Y172679D01*
Y174812D01*
X267604Y175345D01*
X266537D01*
X266004Y174812D01*
Y174279D01*
X266537Y173746D01*
X268137D01*
X260138Y167913D02*
Y171113D01*
X261738D01*
X262271Y170580D01*
Y169513D01*
X261738Y168980D01*
X260138D01*
X261204D02*
X262271Y167913D01*
X263338D02*
X264404D01*
X263871D01*
Y171113D01*
X263338Y170580D01*
X266004D02*
X266537Y171113D01*
X267604D01*
X268137Y170580D01*
Y170047D01*
X267604Y169513D01*
X268137Y168980D01*
Y168447D01*
X267604Y167913D01*
X266537D01*
X266004Y168447D01*
Y168980D01*
X266537Y169513D01*
X266004Y170047D01*
Y170580D01*
X266537Y169513D02*
X267604D01*
X404134Y228248D02*
Y231448D01*
X405734D01*
X406267Y230914D01*
Y229848D01*
X405734Y229315D01*
X404134D01*
X405200D02*
X406267Y228248D01*
X407334D02*
X408400D01*
X407867D01*
Y231448D01*
X407334Y230914D01*
X410000Y231448D02*
X412133D01*
Y230914D01*
X410000Y228781D01*
Y228248D01*
X404134Y232677D02*
Y235877D01*
X405734D01*
X406267Y235344D01*
Y234277D01*
X405734Y233744D01*
X404134D01*
X405200D02*
X406267Y232677D01*
X407334D02*
X408400D01*
X407867D01*
Y235877D01*
X407334Y235344D01*
X412133Y235877D02*
X411067Y235344D01*
X410000Y234277D01*
Y233210D01*
X410533Y232677D01*
X411600D01*
X412133Y233210D01*
Y233744D01*
X411600Y234277D01*
X410000D01*
X320965Y376279D02*
X324164D01*
Y374680D01*
X323631Y374146D01*
X322564D01*
X322031Y374680D01*
Y376279D01*
Y375213D02*
X320965Y374146D01*
Y373080D02*
Y372013D01*
Y372547D01*
X324164D01*
X323631Y373080D01*
Y370413D02*
X324164Y369880D01*
Y368813D01*
X323631Y368280D01*
X323098D01*
X322564Y368813D01*
Y369347D01*
Y368813D01*
X322031Y368280D01*
X321498D01*
X320965Y368813D01*
Y369880D01*
X321498Y370413D01*
X316535Y376378D02*
X319735D01*
Y374778D01*
X319202Y374245D01*
X318135D01*
X317602Y374778D01*
Y376378D01*
Y375311D02*
X316535Y374245D01*
Y373178D02*
Y372112D01*
Y372645D01*
X319735D01*
X319202Y373178D01*
X316535Y368379D02*
Y370512D01*
X318669Y368379D01*
X319202D01*
X319735Y368912D01*
Y369978D01*
X319202Y370512D01*
X344291Y333366D02*
Y336566D01*
X345891D01*
X346425Y336033D01*
Y334966D01*
X345891Y334433D01*
X344291D01*
X345358D02*
X346425Y333366D01*
X347491D02*
X348558D01*
X348024D01*
Y336566D01*
X347491Y336033D01*
X350158Y333366D02*
X351224D01*
X350691D01*
Y336566D01*
X350158Y336033D01*
X271161Y355217D02*
Y358416D01*
X272761D01*
X273295Y357883D01*
Y356816D01*
X272761Y356283D01*
X271161D01*
X272228D02*
X273295Y355217D01*
X274361D02*
X275428D01*
X274894D01*
Y358416D01*
X274361Y357883D01*
X277028D02*
X277561Y358416D01*
X278627D01*
X279161Y357883D01*
Y355750D01*
X278627Y355217D01*
X277561D01*
X277028Y355750D01*
Y357883D01*
X344291Y342126D02*
Y345326D01*
X345891D01*
X346425Y344792D01*
Y343726D01*
X345891Y343193D01*
X344291D01*
X345358D02*
X346425Y342126D01*
X347491Y342659D02*
X348024Y342126D01*
X349091D01*
X349624Y342659D01*
Y344792D01*
X349091Y345326D01*
X348024D01*
X347491Y344792D01*
Y344259D01*
X348024Y343726D01*
X349624D01*
X232874Y342618D02*
Y345818D01*
X234474D01*
X235007Y345285D01*
Y344218D01*
X234474Y343685D01*
X232874D01*
X233941D02*
X235007Y342618D01*
X236074Y345818D02*
X238207D01*
Y345285D01*
X236074Y343151D01*
Y342618D01*
X232874Y346850D02*
Y350050D01*
X234474D01*
X235007Y349517D01*
Y348450D01*
X234474Y347917D01*
X232874D01*
X233941D02*
X235007Y346850D01*
X237674D02*
Y350050D01*
X236074Y348450D01*
X238207D01*
X238189Y326181D02*
Y329381D01*
X239789D01*
X240322Y328848D01*
Y327781D01*
X239789Y327248D01*
X238189D01*
X239256D02*
X240322Y326181D01*
X241389Y328848D02*
X241922Y329381D01*
X242989D01*
X243522Y328848D01*
Y328314D01*
X242989Y327781D01*
X242455D01*
X242989D01*
X243522Y327248D01*
Y326714D01*
X242989Y326181D01*
X241922D01*
X241389Y326714D01*
X223622Y264075D02*
Y267275D01*
X225222D01*
X225755Y266741D01*
Y265675D01*
X225222Y265141D01*
X223622D01*
X224689D02*
X225755Y264075D01*
X228955D02*
X226822D01*
X228955Y266208D01*
Y266741D01*
X228422Y267275D01*
X227355D01*
X226822Y266741D01*
X221523Y359293D02*
Y361426D01*
X220990Y361960D01*
X219923D01*
X219390Y361426D01*
Y359293D01*
X219923Y358760D01*
X220990D01*
X220456Y359826D02*
X221523Y358760D01*
X220990D02*
X221523Y359293D01*
X224723Y358760D02*
X222589D01*
X224723Y360893D01*
Y361426D01*
X224189Y361960D01*
X223123D01*
X222589Y361426D01*
X249377Y359392D02*
Y361525D01*
X248844Y362058D01*
X247777D01*
X247244Y361525D01*
Y359392D01*
X247777Y358858D01*
X248844D01*
X248311Y359925D02*
X249377Y358858D01*
X248844D02*
X249377Y359392D01*
X250444Y358858D02*
X251510D01*
X250977D01*
Y362058D01*
X250444Y361525D01*
X322933Y249755D02*
Y246555D01*
X325066D01*
X328266Y249222D02*
X327733Y249755D01*
X326666D01*
X326133Y249222D01*
Y248688D01*
X326666Y248155D01*
X327733D01*
X328266Y247622D01*
Y247088D01*
X327733Y246555D01*
X326666D01*
X326133Y247088D01*
X329333Y246555D02*
X330399D01*
X329866D01*
Y249755D01*
X329333Y249222D01*
X490503Y311122D02*
X487303D01*
Y308989D01*
X490503Y305789D02*
Y307922D01*
X487303D01*
Y305789D01*
X488903Y307922D02*
Y306856D01*
X490503Y304722D02*
X487303D01*
Y303123D01*
X487836Y302589D01*
X489970D01*
X490503Y303123D01*
Y304722D01*
X487303Y299390D02*
Y301523D01*
X489436Y299390D01*
X489970D01*
X490503Y299923D01*
Y300990D01*
X489970Y301523D01*
X490503Y334055D02*
X487303D01*
Y331922D01*
X490503Y328722D02*
Y330855D01*
X487303D01*
Y328722D01*
X488903Y330855D02*
Y329789D01*
X490503Y327656D02*
X487303D01*
Y326056D01*
X487836Y325522D01*
X489970D01*
X490503Y326056D01*
Y327656D01*
X487303Y324456D02*
Y323389D01*
Y323923D01*
X490503D01*
X489970Y324456D01*
X389567Y213042D02*
Y209842D01*
X391700D01*
X394900D02*
X392767D01*
X394900Y211976D01*
Y212509D01*
X394367Y213042D01*
X393300D01*
X392767Y212509D01*
X167500Y260200D02*
Y257000D01*
X169633D01*
X170700D02*
X171766D01*
X171233D01*
Y260200D01*
X170700Y259666D01*
X303627Y407866D02*
X304294Y408532D01*
Y409865D01*
X303627Y410532D01*
X302961D01*
X302295Y409865D01*
Y408532D01*
X301628Y407866D01*
X300962D01*
X300295Y408532D01*
Y409865D01*
X300962Y410532D01*
X304294Y406533D02*
Y403867D01*
Y405200D01*
X300295D01*
Y402534D02*
X304294D01*
X302961Y401201D01*
X304294Y399868D01*
X300295D01*
X303627Y398535D02*
X304294Y397869D01*
Y396536D01*
X303627Y395870D01*
X302961D01*
X302295Y396536D01*
Y397202D01*
Y396536D01*
X301628Y395870D01*
X300962D01*
X300295Y396536D01*
Y397869D01*
X300962Y398535D01*
X300295Y391871D02*
Y394537D01*
X302961Y391871D01*
X303627D01*
X304294Y392537D01*
Y393870D01*
X303627Y394537D01*
X257050Y407570D02*
Y410236D01*
X253051D01*
Y407570D01*
X255050Y410236D02*
Y408903D01*
X256383Y403572D02*
X257050Y404238D01*
Y405571D01*
X256383Y406238D01*
X255717D01*
X255050Y405571D01*
Y404238D01*
X254384Y403572D01*
X253718D01*
X253051Y404238D01*
Y405571D01*
X253718Y406238D01*
X253051Y402239D02*
X257050D01*
Y400239D01*
X256383Y399573D01*
X255050D01*
X254384Y400239D01*
Y402239D01*
X256383Y398240D02*
X257050Y397574D01*
Y396241D01*
X256383Y395574D01*
X255717D01*
X255050Y396241D01*
Y396907D01*
Y396241D01*
X254384Y395574D01*
X253718D01*
X253051Y396241D01*
Y397574D01*
X253718Y398240D01*
X253051Y391576D02*
Y394241D01*
X255717Y391576D01*
X256383D01*
X257050Y392242D01*
Y393575D01*
X256383Y394241D01*
X405512Y161763D02*
Y158563D01*
X407112D01*
X407645Y159096D01*
Y161229D01*
X407112Y161763D01*
X405512D01*
X410311Y158563D02*
Y161763D01*
X408712Y160163D01*
X410845D01*
X275862Y232845D02*
Y229646D01*
X277462D01*
X277995Y230179D01*
Y232312D01*
X277462Y232845D01*
X275862D01*
X279062Y232312D02*
X279595Y232845D01*
X280662D01*
X281195Y232312D01*
Y231779D01*
X280662Y231245D01*
X280129D01*
X280662D01*
X281195Y230712D01*
Y230179D01*
X280662Y229646D01*
X279595D01*
X279062Y230179D01*
X444353Y322539D02*
X441021D01*
X440354Y321873D01*
Y320540D01*
X441021Y319874D01*
X444353D01*
X440354Y318541D02*
X443020D01*
X444353Y317208D01*
X443020Y315875D01*
X440354D01*
X442354D01*
Y318541D01*
X440354Y314542D02*
X444353D01*
Y312543D01*
X443687Y311876D01*
X442354D01*
X441687Y312543D01*
Y314542D01*
Y313209D02*
X440354Y311876D01*
X444353Y310543D02*
Y307877D01*
Y309210D01*
X440354D01*
Y303879D02*
Y306544D01*
X443020Y303879D01*
X443687D01*
X444353Y304545D01*
Y305878D01*
X443687Y306544D01*
X470424Y385335D02*
X468291D01*
X467224Y384268D01*
X468291Y383202D01*
X470424D01*
X467224Y382135D02*
Y381068D01*
Y381602D01*
X469358D01*
Y382135D01*
X470424Y377335D02*
X467224D01*
Y378935D01*
X467758Y379468D01*
X468824D01*
X469358Y378935D01*
Y377335D01*
X467224Y374669D02*
Y375735D01*
X467758Y376269D01*
X468824D01*
X469358Y375735D01*
Y374669D01*
X468824Y374135D01*
X468291D01*
Y376269D01*
X467224Y372536D02*
Y371469D01*
X467758Y370936D01*
X468824D01*
X469358Y371469D01*
Y372536D01*
X468824Y373069D01*
X467758D01*
X467224Y372536D01*
X469891Y364536D02*
X470424Y365070D01*
Y366136D01*
X469891Y366669D01*
X469358D01*
X468824Y366136D01*
Y365070D01*
X468291Y364536D01*
X467758D01*
X467224Y365070D01*
Y366136D01*
X467758Y366669D01*
X469358Y363470D02*
X467758D01*
X467224Y362936D01*
X467758Y362403D01*
X467224Y361870D01*
X467758Y361336D01*
X469358D01*
X467224Y360270D02*
Y359203D01*
Y359737D01*
X469358D01*
Y360270D01*
X469891Y357070D02*
X469358D01*
Y357603D01*
Y356537D01*
Y357070D01*
X467758D01*
X467224Y356537D01*
X469358Y352804D02*
Y354404D01*
X468824Y354937D01*
X467758D01*
X467224Y354404D01*
Y352804D01*
X470424Y351737D02*
X467224D01*
X468824D01*
X469358Y351204D01*
Y350137D01*
X468824Y349604D01*
X467224D01*
X372056Y312040D02*
X372589Y312573D01*
Y313640D01*
X372056Y314173D01*
X369923D01*
X369390Y313640D01*
Y312573D01*
X369923Y312040D01*
X369390Y310974D02*
X372589D01*
X369390Y308840D01*
X372589D01*
X369390Y307774D02*
Y306707D01*
Y307240D01*
X372589D01*
X372056Y307774D01*
X372589Y302974D02*
X372056Y304041D01*
X370990Y305107D01*
X369923D01*
X369390Y304574D01*
Y303507D01*
X369923Y302974D01*
X370456D01*
X370990Y303507D01*
Y305107D01*
X104724Y141634D02*
X105791D01*
X105258D01*
Y144834D01*
X104724Y144300D01*
X109524Y141634D02*
X107391D01*
X109524Y143767D01*
Y144300D01*
X108991Y144834D01*
X107924D01*
X107391Y144300D01*
X110591Y144834D02*
Y142701D01*
X111657Y141634D01*
X112724Y142701D01*
Y144834D01*
X479724Y215265D02*
X480258Y215798D01*
X481324D01*
X481858Y215265D01*
Y214732D01*
X481324Y214198D01*
X480791D01*
X481324D01*
X481858Y213665D01*
Y213132D01*
X481324Y212598D01*
X480258D01*
X479724Y213132D01*
X482924Y215798D02*
Y213665D01*
X483991Y212598D01*
X485057Y213665D01*
Y215798D01*
X486124Y215265D02*
X486657Y215798D01*
X487724D01*
X488257Y215265D01*
Y214732D01*
X487724Y214198D01*
X487190D01*
X487724D01*
X488257Y213665D01*
Y213132D01*
X487724Y212598D01*
X486657D01*
X486124Y213132D01*
X482842Y295916D02*
X480709D01*
Y294316D01*
X481775Y294850D01*
X482308D01*
X482842Y294316D01*
Y293250D01*
X482308Y292717D01*
X481242D01*
X480709Y293250D01*
X483908Y295916D02*
Y293783D01*
X484975Y292717D01*
X486042Y293783D01*
Y295916D01*
X103642Y241938D02*
X104175Y242471D01*
X105242D01*
X105775Y241938D01*
Y241405D01*
X105242Y240872D01*
X105775Y240338D01*
Y239805D01*
X105242Y239272D01*
X104175D01*
X103642Y239805D01*
Y240338D01*
X104175Y240872D01*
X103642Y241405D01*
Y241938D01*
X104175Y240872D02*
X105242D01*
X106842Y242471D02*
Y240338D01*
X107908Y239272D01*
X108975Y240338D01*
Y242471D01*
X111641Y239272D02*
Y242471D01*
X110041Y240872D01*
X112174D01*
X106070Y193414D02*
X105537Y193948D01*
X104470D01*
X103937Y193414D01*
Y191281D01*
X104470Y190748D01*
X105537D01*
X106070Y191281D01*
Y192348D01*
X105004D01*
X107137Y190748D02*
Y193948D01*
X109270Y190748D01*
Y193948D01*
X110336D02*
Y190748D01*
X111936D01*
X112470Y191281D01*
Y193414D01*
X111936Y193948D01*
X110336D01*
X358375Y387781D02*
X357708Y388447D01*
X356375D01*
X355709Y387781D01*
Y387115D01*
X356375Y386448D01*
X357708D01*
X358375Y385782D01*
Y385115D01*
X357708Y384449D01*
X356375D01*
X355709Y385115D01*
X359707Y388447D02*
Y384449D01*
X361040Y385782D01*
X362373Y384449D01*
Y388447D01*
X363706D02*
Y384449D01*
X365705D01*
X366372Y385115D01*
Y387781D01*
X365705Y388447D01*
X363706D01*
X224771Y329340D02*
X224238Y329873D01*
X223171D01*
X222638Y329340D01*
Y327206D01*
X223171Y326673D01*
X224238D01*
X224771Y327206D01*
X225838Y326673D02*
Y329873D01*
X227971Y326673D01*
Y329873D01*
X229037Y329340D02*
X229571Y329873D01*
X230637D01*
X231171Y329340D01*
Y328806D01*
X230637Y328273D01*
X230104D01*
X230637D01*
X231171Y327740D01*
Y327206D01*
X230637Y326673D01*
X229571D01*
X229037Y327206D01*
X138216Y307292D02*
X137682Y307826D01*
X136616D01*
X136083Y307292D01*
Y305159D01*
X136616Y304626D01*
X137682D01*
X138216Y305159D01*
X139282Y304626D02*
Y307826D01*
X141416Y304626D01*
Y307826D01*
X144615Y304626D02*
X142482D01*
X144615Y306759D01*
Y307292D01*
X144082Y307826D01*
X143016D01*
X142482Y307292D01*
X103511Y390541D02*
X102978Y391074D01*
X101911D01*
X101378Y390541D01*
Y388407D01*
X101911Y387874D01*
X102978D01*
X103511Y388407D01*
X104578Y387874D02*
Y391074D01*
X106711Y387874D01*
Y391074D01*
X107778Y387874D02*
X108844D01*
X108311D01*
Y391074D01*
X107778Y390541D01*
X416700Y159261D02*
X416167Y159794D01*
X415100D01*
X414567Y159261D01*
Y157128D01*
X415100Y156595D01*
X416167D01*
X416700Y157128D01*
X419367Y156595D02*
Y159794D01*
X417767Y158194D01*
X419900D01*
X420966Y157128D02*
X421500Y156595D01*
X422566D01*
X423100Y157128D01*
Y159261D01*
X422566Y159794D01*
X421500D01*
X420966Y159261D01*
Y158728D01*
X421500Y158194D01*
X423100D01*
X115936Y145539D02*
X115403Y145005D01*
Y143939D01*
X115936Y143405D01*
X118069D01*
X118602Y143939D01*
Y145005D01*
X118069Y145539D01*
X118602Y148205D02*
X115403D01*
X117002Y146605D01*
Y148738D01*
X118069Y149805D02*
X118602Y150338D01*
Y151405D01*
X118069Y151938D01*
X115936D01*
X115403Y151405D01*
Y150338D01*
X115936Y149805D01*
X116469D01*
X117002Y150338D01*
Y151938D01*
X336113Y147704D02*
X335580Y147171D01*
Y146104D01*
X336113Y145571D01*
X338246D01*
X338779Y146104D01*
Y147171D01*
X338246Y147704D01*
X338779Y150371D02*
X335580D01*
X337180Y148771D01*
Y150904D01*
X338246Y151970D02*
X338779Y152504D01*
Y153570D01*
X338246Y154104D01*
X336113D01*
X335580Y153570D01*
Y152504D01*
X336113Y151970D01*
X336646D01*
X337180Y152504D01*
Y154104D01*
X194161Y158769D02*
X193627Y159302D01*
X192561D01*
X192028Y158769D01*
Y156636D01*
X192561Y156102D01*
X193627D01*
X194161Y156636D01*
X196827Y156102D02*
Y159302D01*
X195227Y157702D01*
X197361D01*
X198427Y156636D02*
X198960Y156102D01*
X200027D01*
X200560Y156636D01*
Y158769D01*
X200027Y159302D01*
X198960D01*
X198427Y158769D01*
Y158236D01*
X198960Y157702D01*
X200560D01*
X471527Y158470D02*
X470994Y159003D01*
X469927D01*
X469394Y158470D01*
Y156337D01*
X469927Y155804D01*
X470994D01*
X471527Y156337D01*
X474193Y155804D02*
Y159003D01*
X472593Y157403D01*
X474727D01*
X475793Y159003D02*
X477926D01*
Y158470D01*
X475793Y156337D01*
Y155804D01*
X181464Y150501D02*
X180931Y151034D01*
X179864D01*
X179331Y150501D01*
Y148368D01*
X179864Y147835D01*
X180931D01*
X181464Y148368D01*
X184130Y147835D02*
Y151034D01*
X182530Y149434D01*
X184664D01*
X185730Y151034D02*
X187863D01*
Y150501D01*
X185730Y148368D01*
Y147835D01*
X402425Y152012D02*
X401892Y152545D01*
X400825D01*
X400292Y152012D01*
Y149879D01*
X400825Y149346D01*
X401892D01*
X402425Y149879D01*
X405092Y149346D02*
Y152545D01*
X403492Y150946D01*
X405625D01*
X406692Y152545D02*
X408825D01*
Y152012D01*
X406692Y149879D01*
Y149346D01*
X251149Y150009D02*
X250616Y150542D01*
X249549D01*
X249016Y150009D01*
Y147876D01*
X249549Y147343D01*
X250616D01*
X251149Y147876D01*
X253815Y147343D02*
Y150542D01*
X252216Y148942D01*
X254349D01*
X255415Y150542D02*
X257548D01*
Y150009D01*
X255415Y147876D01*
Y147343D01*
X427232Y159261D02*
X426698Y159794D01*
X425632D01*
X425098Y159261D01*
Y157128D01*
X425632Y156595D01*
X426698D01*
X427232Y157128D01*
X429898Y156595D02*
Y159794D01*
X428298Y158194D01*
X430431D01*
X433631Y159794D02*
X432564Y159261D01*
X431498Y158194D01*
Y157128D01*
X432031Y156595D01*
X433098D01*
X433631Y157128D01*
Y157661D01*
X433098Y158194D01*
X431498D01*
X120168Y145637D02*
X119635Y145104D01*
Y144037D01*
X120168Y143504D01*
X122301D01*
X122835Y144037D01*
Y145104D01*
X122301Y145637D01*
X122835Y148304D02*
X119635D01*
X121235Y146704D01*
Y148837D01*
X119635Y152037D02*
X120168Y150970D01*
X121235Y149904D01*
X122301D01*
X122835Y150437D01*
Y151503D01*
X122301Y152037D01*
X121768D01*
X121235Y151503D01*
Y149904D01*
X340345Y147606D02*
X339812Y147072D01*
Y146006D01*
X340345Y145472D01*
X342478D01*
X343012Y146006D01*
Y147072D01*
X342478Y147606D01*
X343012Y150272D02*
X339812D01*
X341412Y148672D01*
Y150805D01*
X339812Y154005D02*
X340345Y152939D01*
X341412Y151872D01*
X342478D01*
X343012Y152405D01*
Y153472D01*
X342478Y154005D01*
X341945D01*
X341412Y153472D01*
Y151872D01*
X204298Y158867D02*
X203765Y159400D01*
X202699D01*
X202165Y158867D01*
Y156734D01*
X202699Y156201D01*
X203765D01*
X204298Y156734D01*
X206965Y156201D02*
Y159400D01*
X205365Y157801D01*
X207498D01*
X210698Y159400D02*
X209631Y158867D01*
X208565Y157801D01*
Y156734D01*
X209098Y156201D01*
X210165D01*
X210698Y156734D01*
Y157267D01*
X210165Y157801D01*
X208565D01*
X450286Y136484D02*
X449753Y135950D01*
Y134884D01*
X450286Y134350D01*
X452420D01*
X452953Y134884D01*
Y135950D01*
X452420Y136484D01*
X452953Y139150D02*
X449753D01*
X451353Y137550D01*
Y139683D01*
X449753Y142883D02*
Y140750D01*
X451353D01*
X450820Y141816D01*
Y142350D01*
X451353Y142883D01*
X452420D01*
X452953Y142350D01*
Y141283D01*
X452420Y140750D01*
X156389Y136779D02*
X155855Y136246D01*
Y135179D01*
X156389Y134646D01*
X158522D01*
X159055Y135179D01*
Y136246D01*
X158522Y136779D01*
X159055Y139445D02*
X155855D01*
X157455Y137845D01*
Y139979D01*
X155855Y143178D02*
Y141045D01*
X157455D01*
X156922Y142112D01*
Y142645D01*
X157455Y143178D01*
X158522D01*
X159055Y142645D01*
Y141578D01*
X158522Y141045D01*
X378042Y135401D02*
X377509Y134868D01*
Y133801D01*
X378042Y133268D01*
X380175D01*
X380709Y133801D01*
Y134868D01*
X380175Y135401D01*
X380709Y138067D02*
X377509D01*
X379109Y136468D01*
Y138601D01*
X377509Y141800D02*
Y139667D01*
X379109D01*
X378575Y140734D01*
Y141267D01*
X379109Y141800D01*
X380175D01*
X380709Y141267D01*
Y140200D01*
X380175Y139667D01*
X228042Y137763D02*
X227509Y137230D01*
Y136163D01*
X228042Y135630D01*
X230175D01*
X230709Y136163D01*
Y137230D01*
X230175Y137763D01*
X230709Y140430D02*
X227509D01*
X229109Y138830D01*
Y140963D01*
X227509Y144163D02*
Y142029D01*
X229109D01*
X228575Y143096D01*
Y143629D01*
X229109Y144163D01*
X230175D01*
X230709Y143629D01*
Y142563D01*
X230175Y142029D01*
X446054Y136385D02*
X445521Y135852D01*
Y134785D01*
X446054Y134252D01*
X448187D01*
X448721Y134785D01*
Y135852D01*
X448187Y136385D01*
X448721Y139052D02*
X445521D01*
X447121Y137452D01*
Y139585D01*
X448721Y142251D02*
X445521D01*
X447121Y140652D01*
Y142785D01*
X151861Y136877D02*
X151328Y136344D01*
Y135277D01*
X151861Y134744D01*
X153994D01*
X154528Y135277D01*
Y136344D01*
X153994Y136877D01*
X154528Y139544D02*
X151328D01*
X152928Y137944D01*
Y140077D01*
X154528Y142744D02*
X151328D01*
X152928Y141144D01*
Y143277D01*
X373810Y135401D02*
X373277Y134868D01*
Y133801D01*
X373810Y133268D01*
X375943D01*
X376476Y133801D01*
Y134868D01*
X375943Y135401D01*
X376476Y138067D02*
X373277D01*
X374876Y136468D01*
Y138601D01*
X376476Y141267D02*
X373277D01*
X374876Y139667D01*
Y141800D01*
X223810Y137862D02*
X223277Y137328D01*
Y136262D01*
X223810Y135728D01*
X225943D01*
X226476Y136262D01*
Y137328D01*
X225943Y137862D01*
X226476Y140528D02*
X223277D01*
X224876Y138928D01*
Y141061D01*
X226476Y143728D02*
X223277D01*
X224876Y142128D01*
Y144261D01*
X469850Y175895D02*
X469316Y176428D01*
X468250D01*
X467717Y175895D01*
Y173762D01*
X468250Y173228D01*
X469316D01*
X469850Y173762D01*
X472516Y173228D02*
Y176428D01*
X470916Y174828D01*
X473049D01*
X474116Y175895D02*
X474649Y176428D01*
X475716D01*
X476249Y175895D01*
Y175362D01*
X475716Y174828D01*
X475183D01*
X475716D01*
X476249Y174295D01*
Y173762D01*
X475716Y173228D01*
X474649D01*
X474116Y173762D01*
X177035Y176092D02*
X176502Y176625D01*
X175435D01*
X174902Y176092D01*
Y173959D01*
X175435Y173425D01*
X176502D01*
X177035Y173959D01*
X179701Y173425D02*
Y176625D01*
X178101Y175025D01*
X180235D01*
X181301Y176092D02*
X181834Y176625D01*
X182901D01*
X183434Y176092D01*
Y175558D01*
X182901Y175025D01*
X182368D01*
X182901D01*
X183434Y174492D01*
Y173959D01*
X182901Y173425D01*
X181834D01*
X181301Y173959D01*
X395834Y161525D02*
X395301Y162058D01*
X394234D01*
X393701Y161525D01*
Y159392D01*
X394234Y158858D01*
X395301D01*
X395834Y159392D01*
X398500Y158858D02*
Y162058D01*
X396901Y160458D01*
X399034D01*
X400100Y161525D02*
X400634Y162058D01*
X401700D01*
X402234Y161525D01*
Y160991D01*
X401700Y160458D01*
X401167D01*
X401700D01*
X402234Y159925D01*
Y159392D01*
X401700Y158858D01*
X400634D01*
X400100Y159392D01*
X248590Y175796D02*
X248057Y176330D01*
X246990D01*
X246457Y175796D01*
Y173663D01*
X246990Y173130D01*
X248057D01*
X248590Y173663D01*
X251256Y173130D02*
Y176330D01*
X249656Y174730D01*
X251790D01*
X252856Y175796D02*
X253390Y176330D01*
X254456D01*
X254989Y175796D01*
Y175263D01*
X254456Y174730D01*
X253923D01*
X254456D01*
X254989Y174197D01*
Y173663D01*
X254456Y173130D01*
X253390D01*
X252856Y173663D01*
X273393Y179438D02*
X272860Y179971D01*
X271793D01*
X271260Y179438D01*
Y177305D01*
X271793Y176772D01*
X272860D01*
X273393Y177305D01*
X274460Y179438D02*
X274993Y179971D01*
X276060D01*
X276593Y179438D01*
Y178905D01*
X276060Y178372D01*
X275526D01*
X276060D01*
X276593Y177838D01*
Y177305D01*
X276060Y176772D01*
X274993D01*
X274460Y177305D01*
X277659Y179971D02*
X279792D01*
Y179438D01*
X277659Y177305D01*
Y176772D01*
X427133Y216446D02*
X426600Y216979D01*
X425533D01*
X425000Y216446D01*
Y214313D01*
X425533Y213779D01*
X426600D01*
X427133Y214313D01*
X428200Y216446D02*
X428733Y216979D01*
X429800D01*
X430333Y216446D01*
Y215913D01*
X429800Y215379D01*
X429266D01*
X429800D01*
X430333Y214846D01*
Y214313D01*
X429800Y213779D01*
X428733D01*
X428200Y214313D01*
X433533Y216979D02*
X432466Y216446D01*
X431399Y215379D01*
Y214313D01*
X431933Y213779D01*
X432999D01*
X433533Y214313D01*
Y214846D01*
X432999Y215379D01*
X431399D01*
X469358Y191643D02*
X468824Y192176D01*
X467758D01*
X467224Y191643D01*
Y189510D01*
X467758Y188976D01*
X468824D01*
X469358Y189510D01*
X470424Y191643D02*
X470958Y192176D01*
X472024D01*
X472557Y191643D01*
Y191110D01*
X472024Y190576D01*
X471491D01*
X472024D01*
X472557Y190043D01*
Y189510D01*
X472024Y188976D01*
X470958D01*
X470424Y189510D01*
X475757Y192176D02*
X473624D01*
Y190576D01*
X474690Y191110D01*
X475224D01*
X475757Y190576D01*
Y189510D01*
X475224Y188976D01*
X474157D01*
X473624Y189510D01*
X469358Y183080D02*
X468824Y183613D01*
X467758D01*
X467224Y183080D01*
Y180947D01*
X467758Y180413D01*
X468824D01*
X469358Y180947D01*
X470424Y183080D02*
X470958Y183613D01*
X472024D01*
X472557Y183080D01*
Y182547D01*
X472024Y182013D01*
X471491D01*
X472024D01*
X472557Y181480D01*
Y180947D01*
X472024Y180413D01*
X470958D01*
X470424Y180947D01*
X475224Y180413D02*
Y183613D01*
X473624Y182013D01*
X475757D01*
X469358Y187312D02*
X468824Y187845D01*
X467758D01*
X467224Y187312D01*
Y185179D01*
X467758Y184646D01*
X468824D01*
X469358Y185179D01*
X470424Y187312D02*
X470958Y187845D01*
X472024D01*
X472557Y187312D01*
Y186779D01*
X472024Y186246D01*
X471491D01*
X472024D01*
X472557Y185712D01*
Y185179D01*
X472024Y184646D01*
X470958D01*
X470424Y185179D01*
X473624Y187312D02*
X474157Y187845D01*
X475224D01*
X475757Y187312D01*
Y186779D01*
X475224Y186246D01*
X474690D01*
X475224D01*
X475757Y185712D01*
Y185179D01*
X475224Y184646D01*
X474157D01*
X473624Y185179D01*
X422704Y257785D02*
X422171Y258318D01*
X421104D01*
X420571Y257785D01*
Y255651D01*
X421104Y255118D01*
X422171D01*
X422704Y255651D01*
X423771Y257785D02*
X424304Y258318D01*
X425371D01*
X425904Y257785D01*
Y257251D01*
X425371Y256718D01*
X424837D01*
X425371D01*
X425904Y256185D01*
Y255651D01*
X425371Y255118D01*
X424304D01*
X423771Y255651D01*
X429104Y255118D02*
X426970D01*
X429104Y257251D01*
Y257785D01*
X428570Y258318D01*
X427504D01*
X426970Y257785D01*
X458531D02*
X457998Y258318D01*
X456931D01*
X456398Y257785D01*
Y255651D01*
X456931Y255118D01*
X457998D01*
X458531Y255651D01*
X459597Y257785D02*
X460131Y258318D01*
X461197D01*
X461731Y257785D01*
Y257251D01*
X461197Y256718D01*
X460664D01*
X461197D01*
X461731Y256185D01*
Y255651D01*
X461197Y255118D01*
X460131D01*
X459597Y255651D01*
X462797Y255118D02*
X463864D01*
X463331D01*
Y258318D01*
X462797Y257785D01*
X123984Y240855D02*
X123450Y241389D01*
X122384D01*
X121850Y240855D01*
Y238722D01*
X122384Y238189D01*
X123450D01*
X123984Y238722D01*
X125050Y240855D02*
X125583Y241389D01*
X126650D01*
X127183Y240855D01*
Y240322D01*
X126650Y239789D01*
X126117D01*
X126650D01*
X127183Y239256D01*
Y238722D01*
X126650Y238189D01*
X125583D01*
X125050Y238722D01*
X128250Y240855D02*
X128783Y241389D01*
X129850D01*
X130383Y240855D01*
Y238722D01*
X129850Y238189D01*
X128783D01*
X128250Y238722D01*
Y240855D01*
X123590Y185934D02*
X123057Y186468D01*
X121990D01*
X121457Y185934D01*
Y183801D01*
X121990Y183268D01*
X123057D01*
X123590Y183801D01*
X126790Y183268D02*
X124656D01*
X126790Y185401D01*
Y185934D01*
X126256Y186468D01*
X125190D01*
X124656Y185934D01*
X127856Y183801D02*
X128390Y183268D01*
X129456D01*
X129989Y183801D01*
Y185934D01*
X129456Y186468D01*
X128390D01*
X127856Y185934D01*
Y185401D01*
X128390Y184868D01*
X129989D01*
X158236Y198139D02*
X157702Y198672D01*
X156636D01*
X156102Y198139D01*
Y196006D01*
X156636Y195472D01*
X157702D01*
X158236Y196006D01*
X161435Y195472D02*
X159302D01*
X161435Y197606D01*
Y198139D01*
X160902Y198672D01*
X159835D01*
X159302Y198139D01*
X162502D02*
X163035Y198672D01*
X164102D01*
X164635Y198139D01*
Y197606D01*
X164102Y197072D01*
X164635Y196539D01*
Y196006D01*
X164102Y195472D01*
X163035D01*
X162502Y196006D01*
Y196539D01*
X163035Y197072D01*
X162502Y197606D01*
Y198139D01*
X163035Y197072D02*
X164102D01*
X376346Y231308D02*
X375813Y231841D01*
X374746D01*
X374213Y231308D01*
Y229175D01*
X374746Y228642D01*
X375813D01*
X376346Y229175D01*
X379545Y228642D02*
X377412D01*
X379545Y230775D01*
Y231308D01*
X379012Y231841D01*
X377946D01*
X377412Y231308D01*
X380612Y231841D02*
X382745D01*
Y231308D01*
X380612Y229175D01*
Y228642D01*
X376346Y236131D02*
X375813Y236664D01*
X374746D01*
X374213Y236131D01*
Y233998D01*
X374746Y233465D01*
X375813D01*
X376346Y233998D01*
X379545Y233465D02*
X377412D01*
X379545Y235598D01*
Y236131D01*
X379012Y236664D01*
X377946D01*
X377412Y236131D01*
X382745Y236664D02*
X381679Y236131D01*
X380612Y235064D01*
Y233998D01*
X381145Y233465D01*
X382212D01*
X382745Y233998D01*
Y234531D01*
X382212Y235064D01*
X380612D01*
X350558Y207588D02*
X350025Y208121D01*
X348958D01*
X348425Y207588D01*
Y205454D01*
X348958Y204921D01*
X350025D01*
X350558Y205454D01*
X353758Y204921D02*
X351625D01*
X353758Y207054D01*
Y207588D01*
X353225Y208121D01*
X352158D01*
X351625Y207588D01*
X356958Y208121D02*
X354825D01*
Y206521D01*
X355891Y207054D01*
X356425D01*
X356958Y206521D01*
Y205454D01*
X356425Y204921D01*
X355358D01*
X354825Y205454D01*
X311779Y215265D02*
X311246Y215798D01*
X310179D01*
X309646Y215265D01*
Y213132D01*
X310179Y212598D01*
X311246D01*
X311779Y213132D01*
X314979Y212598D02*
X312845D01*
X314979Y214732D01*
Y215265D01*
X314445Y215798D01*
X313379D01*
X312845Y215265D01*
X317645Y212598D02*
Y215798D01*
X316045Y214198D01*
X318178D01*
X296031Y209261D02*
X295497Y209794D01*
X294431D01*
X293898Y209261D01*
Y207128D01*
X294431Y206594D01*
X295497D01*
X296031Y207128D01*
X299231Y206594D02*
X297097D01*
X299231Y208728D01*
Y209261D01*
X298697Y209794D01*
X297631D01*
X297097Y209261D01*
X300297D02*
X300831Y209794D01*
X301897D01*
X302430Y209261D01*
Y208728D01*
X301897Y208194D01*
X301364D01*
X301897D01*
X302430Y207661D01*
Y207128D01*
X301897Y206594D01*
X300831D01*
X300297Y207128D01*
X282940Y189182D02*
X282407Y189716D01*
X281340D01*
X280807Y189182D01*
Y187049D01*
X281340Y186516D01*
X282407D01*
X282940Y187049D01*
X286140Y186516D02*
X284007D01*
X286140Y188649D01*
Y189182D01*
X285607Y189716D01*
X284540D01*
X284007Y189182D01*
X289340Y186516D02*
X287207D01*
X289340Y188649D01*
Y189182D01*
X288807Y189716D01*
X287740D01*
X287207Y189182D01*
X287369Y270481D02*
X286836Y271015D01*
X285770D01*
X285236Y270481D01*
Y268348D01*
X285770Y267815D01*
X286836D01*
X287369Y268348D01*
X288436Y267815D02*
X289503D01*
X288969D01*
Y271015D01*
X288436Y270481D01*
X291102Y271015D02*
X293236D01*
Y270481D01*
X291102Y268348D01*
Y267815D01*
X295932Y279241D02*
X295399Y279775D01*
X294333D01*
X293799Y279241D01*
Y277108D01*
X294333Y276575D01*
X295399D01*
X295932Y277108D01*
X296999Y276575D02*
X298066D01*
X297532D01*
Y279775D01*
X296999Y279241D01*
X299665D02*
X300199Y279775D01*
X301265D01*
X301799Y279241D01*
Y278708D01*
X301265Y278175D01*
X300732D01*
X301265D01*
X301799Y277641D01*
Y277108D01*
X301265Y276575D01*
X300199D01*
X299665Y277108D01*
X257547Y298729D02*
X257013Y299263D01*
X255947D01*
X255413Y298729D01*
Y296596D01*
X255947Y296063D01*
X257013D01*
X257547Y296596D01*
X258613Y296063D02*
X259680D01*
X259146D01*
Y299263D01*
X258613Y298729D01*
X261280D02*
X261813Y299263D01*
X262879D01*
X263413Y298729D01*
Y296596D01*
X262879Y296063D01*
X261813D01*
X261280Y296596D01*
Y298729D01*
X296523Y274123D02*
X295990Y274656D01*
X294923D01*
X294390Y274123D01*
Y271990D01*
X294923Y271457D01*
X295990D01*
X296523Y271990D01*
X297589D02*
X298123Y271457D01*
X299189D01*
X299723Y271990D01*
Y274123D01*
X299189Y274656D01*
X298123D01*
X297589Y274123D01*
Y273590D01*
X298123Y273057D01*
X299723D01*
X222901Y386328D02*
X222368Y386861D01*
X221301D01*
X220768Y386328D01*
Y384195D01*
X221301Y383661D01*
X222368D01*
X222901Y384195D01*
X225567Y383661D02*
Y386861D01*
X223968Y385261D01*
X226101D01*
X126444Y387312D02*
X125911Y387845D01*
X124844D01*
X124311Y387312D01*
Y385179D01*
X124844Y384646D01*
X125911D01*
X126444Y385179D01*
X129644Y384646D02*
X127511D01*
X129644Y386779D01*
Y387312D01*
X129111Y387845D01*
X128044D01*
X127511Y387312D01*
X119948D02*
X119415Y387845D01*
X118348D01*
X117815Y387312D01*
Y385179D01*
X118348Y384646D01*
X119415D01*
X119948Y385179D01*
X121015Y384646D02*
X122081D01*
X121548D01*
Y387845D01*
X121015Y387312D01*
D20*
X100197Y292172D02*
X104196D01*
X100098Y302212D02*
X104097D01*
X102098Y304211D02*
Y300212D01*
X104097Y314250D02*
X103097Y315250D01*
X101098D01*
X100098Y314250D01*
Y313251D01*
X101098Y312251D01*
X103097D01*
X104097Y311251D01*
Y310252D01*
X103097Y309252D01*
X101098D01*
X100098Y310252D01*
D21*
X268898Y128804D02*
X270210Y130116D01*
X272833D01*
X274145Y128804D01*
Y127492D01*
X272833Y126180D01*
X271521D01*
X272833D01*
X274145Y124868D01*
Y123556D01*
X272833Y122244D01*
X270210D01*
X268898Y123556D01*
X282017Y128804D02*
X280705Y130116D01*
X278081D01*
X276769Y128804D01*
Y127492D01*
X278081Y126180D01*
X280705D01*
X282017Y124868D01*
Y123556D01*
X280705Y122244D01*
X278081D01*
X276769Y123556D01*
X292512Y130116D02*
X295136D01*
X293824D01*
Y122244D01*
X292512D01*
X295136D01*
X299072D02*
Y130116D01*
X304319Y122244D01*
Y130116D01*
X306943Y122244D02*
Y130116D01*
X310879D01*
X312191Y128804D01*
Y126180D01*
X310879Y124868D01*
X306943D01*
X314815Y130116D02*
Y123556D01*
X316126Y122244D01*
X318750D01*
X320062Y123556D01*
Y130116D01*
X322686D02*
X327934D01*
X325310D01*
Y122244D01*
D22*
X400957Y171063D02*
D03*
D23*
X274606Y207607D02*
D03*
M02*
