G04*
G04 #@! TF.GenerationSoftware,Altium Limited,Altium Designer,18.0.7 (293)*
G04*
G04 Layer_Color=16711935*
%FSLAX25Y25*%
%MOIN*%
G70*
G01*
G75*
%ADD27R,0.01378X0.01378*%
%ADD28R,0.05524X0.06312*%
%ADD30R,0.01378X0.01378*%
%ADD34R,0.05702X0.10800*%
%ADD35R,0.03162X0.08280*%
%ADD36R,0.04737X0.13005*%
%ADD38R,0.06312X0.05524*%
%ADD39R,0.06312X0.06312*%
%ADD56R,0.09300X0.07300*%
%ADD67C,0.08674*%
%ADD68R,0.08674X0.08674*%
%ADD69C,0.06706*%
%ADD70R,0.08674X0.08674*%
%ADD71R,0.08674X0.06706*%
%ADD72O,0.08674X0.06706*%
%ADD73R,0.06706X0.08674*%
%ADD74O,0.06706X0.08674*%
%ADD75O,0.04343X0.07887*%
%ADD76O,0.05328X0.06942*%
%ADD77R,0.05328X0.06942*%
%ADD78O,0.12611X0.14580*%
%ADD79C,0.14580*%
%ADD180R,0.30610X0.15650*%
%ADD181R,0.30709X0.15748*%
%ADD182R,0.30709X0.15847*%
%ADD183R,0.01800X0.04343*%
G04:AMPARAMS|DCode=184|XSize=46.27mil|YSize=39.58mil|CornerRadius=11.89mil|HoleSize=0mil|Usage=FLASHONLY|Rotation=0.000|XOffset=0mil|YOffset=0mil|HoleType=Round|Shape=RoundedRectangle|*
%AMROUNDEDRECTD184*
21,1,0.04627,0.01579,0,0,0.0*
21,1,0.02248,0.03958,0,0,0.0*
1,1,0.02379,0.01124,-0.00789*
1,1,0.02379,-0.01124,-0.00789*
1,1,0.02379,-0.01124,0.00789*
1,1,0.02379,0.01124,0.00789*
%
%ADD184ROUNDEDRECTD184*%
%ADD185R,0.04627X0.03958*%
%ADD186R,0.06312X0.06312*%
%ADD187R,0.08280X0.03162*%
%ADD188R,0.13005X0.04737*%
%ADD189R,0.03162X0.06902*%
%ADD190O,0.03162X0.06902*%
%ADD191R,0.05524X0.04540*%
%ADD192R,0.04343X0.01800*%
%ADD193R,0.13005X0.13005*%
G36*
X429921Y132283D02*
D01*
D02*
G37*
D27*
X268406Y263779D02*
D03*
X266634D02*
D03*
X273425Y265453D02*
D03*
X271654D02*
D03*
X273425Y262598D02*
D03*
X271654D02*
D03*
X271555Y271161D02*
D03*
X273327D02*
D03*
X322146Y350492D02*
D03*
X323917D02*
D03*
X304331Y323721D02*
D03*
X302559D02*
D03*
X304921Y326772D02*
D03*
X303150D02*
D03*
X307087Y298327D02*
D03*
X305315D02*
D03*
X275787Y302854D02*
D03*
X274016D02*
D03*
X332579Y301476D02*
D03*
X330807D02*
D03*
D28*
X246654Y337402D02*
D03*
X253740D02*
D03*
X246457Y345571D02*
D03*
X253543D02*
D03*
X177461Y259842D02*
D03*
X184547D02*
D03*
X442126Y291142D02*
D03*
X435039D02*
D03*
X416831Y291339D02*
D03*
X423917D02*
D03*
D30*
X241732Y383858D02*
D03*
Y385630D02*
D03*
X469193Y277461D02*
D03*
Y275689D02*
D03*
X435039Y277067D02*
D03*
Y275295D02*
D03*
X307776Y294587D02*
D03*
Y292815D02*
D03*
X307579Y323917D02*
D03*
Y322146D02*
D03*
X276378Y294390D02*
D03*
Y296161D02*
D03*
X273425Y294390D02*
D03*
Y296161D02*
D03*
X187500Y275590D02*
D03*
Y273819D02*
D03*
X194291Y273819D02*
D03*
Y275590D02*
D03*
D34*
X447455Y376870D02*
D03*
X427152D02*
D03*
D35*
X443405Y393701D02*
D03*
X438484D02*
D03*
X433563D02*
D03*
X428642D02*
D03*
X330906D02*
D03*
X325984D02*
D03*
X321063D02*
D03*
X316142D02*
D03*
X368684Y393598D02*
D03*
X363763D02*
D03*
X358842D02*
D03*
X353921D02*
D03*
X405905Y393799D02*
D03*
X400984D02*
D03*
X396063D02*
D03*
X391142D02*
D03*
D36*
X450705Y406501D02*
D03*
X421306D02*
D03*
X338206D02*
D03*
X308805D02*
D03*
X375984Y406398D02*
D03*
X346584D02*
D03*
X413205Y406599D02*
D03*
X383805D02*
D03*
D38*
X369193Y250197D02*
D03*
Y243110D02*
D03*
X377165Y250197D02*
D03*
Y243110D02*
D03*
X314567Y270669D02*
D03*
Y263583D02*
D03*
X338976Y370374D02*
D03*
Y363287D02*
D03*
X257480Y368996D02*
D03*
Y376083D02*
D03*
D39*
X391142Y371654D02*
D03*
X399803D02*
D03*
X278051Y392028D02*
D03*
X286713D02*
D03*
D56*
X475295Y135876D02*
D03*
Y148376D02*
D03*
X405905Y135679D02*
D03*
Y148179D02*
D03*
X255118Y136368D02*
D03*
Y148868D02*
D03*
X184153Y136565D02*
D03*
Y149065D02*
D03*
D67*
X361614Y362598D02*
D03*
X451279Y302756D02*
D03*
Y312598D02*
D03*
X479626Y357579D02*
D03*
Y367421D02*
D03*
X362402Y319882D02*
D03*
Y310039D02*
D03*
X121894Y292114D02*
D03*
Y301957D02*
D03*
X111894Y292114D02*
D03*
Y301957D02*
D03*
X226969Y300197D02*
D03*
Y310039D02*
D03*
X351732Y372618D02*
D03*
X361575D02*
D03*
X351732Y362618D02*
D03*
X371417D02*
D03*
X108071Y164272D02*
D03*
Y174114D02*
D03*
X108268Y114567D02*
D03*
Y124409D02*
D03*
X483268Y264862D02*
D03*
Y274705D02*
D03*
X484055Y185531D02*
D03*
Y195374D02*
D03*
X107972Y210531D02*
D03*
Y220374D02*
D03*
D68*
X451279Y322441D02*
D03*
X479626Y377264D02*
D03*
X362402Y300197D02*
D03*
X121894Y311799D02*
D03*
X111894D02*
D03*
X226969Y319882D02*
D03*
X108071Y183957D02*
D03*
X108268Y134252D02*
D03*
X483268Y284547D02*
D03*
X484055Y205217D02*
D03*
X107972Y230217D02*
D03*
D69*
X311811Y248031D02*
D03*
X341732D02*
D03*
D70*
X371417Y372618D02*
D03*
D71*
X105315Y382697D02*
D03*
D72*
Y372697D02*
D03*
Y362697D02*
D03*
Y352697D02*
D03*
Y342697D02*
D03*
Y332697D02*
D03*
D73*
X138563Y298721D02*
D03*
D74*
X148563D02*
D03*
X158563D02*
D03*
X168563D02*
D03*
X178563D02*
D03*
X188563D02*
D03*
D75*
X295571Y402461D02*
D03*
X269587D02*
D03*
X248425Y402362D02*
D03*
X222441D02*
D03*
D76*
X288071Y202658D02*
D03*
X281339D02*
D03*
X274606D02*
D03*
X267874D02*
D03*
D77*
X261142D02*
D03*
D78*
X301944Y112005D02*
D03*
X287244Y112205D02*
D03*
X451550Y112005D02*
D03*
X436850Y112205D02*
D03*
X378716Y112005D02*
D03*
X364016Y112205D02*
D03*
X229110Y112005D02*
D03*
X214409Y112205D02*
D03*
X158243Y112005D02*
D03*
X143543Y112205D02*
D03*
D79*
X480315Y51181D02*
D03*
X110236D02*
D03*
X480315Y401575D02*
D03*
X110236D02*
D03*
D180*
X156841Y159006D02*
D03*
D181*
X227067Y159547D02*
D03*
X376969Y158465D02*
D03*
D182*
X449902Y159301D02*
D03*
D183*
X235630Y378996D02*
D03*
X237598D02*
D03*
X229724D02*
D03*
X231693D02*
D03*
X233661D02*
D03*
X239567D02*
D03*
X241535D02*
D03*
Y358602D02*
D03*
X239567D02*
D03*
X237598D02*
D03*
X235630D02*
D03*
X233661D02*
D03*
X231693D02*
D03*
X229724D02*
D03*
D184*
X335925Y258661D02*
D03*
D185*
X328925Y262342D02*
D03*
Y254861D02*
D03*
D186*
X462205Y348425D02*
D03*
Y357087D02*
D03*
D187*
X471457Y318012D02*
D03*
Y322933D02*
D03*
Y327854D02*
D03*
Y332776D02*
D03*
D188*
X484257Y310712D02*
D03*
Y340112D02*
D03*
D189*
X330669Y356102D02*
D03*
D190*
X325669D02*
D03*
X320669D02*
D03*
X315669D02*
D03*
X330669Y377362D02*
D03*
X325669D02*
D03*
X320669D02*
D03*
X315669D02*
D03*
D191*
X291929Y276575D02*
D03*
Y269685D02*
D03*
X283268Y276575D02*
D03*
Y269685D02*
D03*
D192*
X245827Y374705D02*
D03*
Y372736D02*
D03*
Y370768D02*
D03*
Y368799D02*
D03*
Y366831D02*
D03*
Y364862D02*
D03*
Y362894D02*
D03*
X225433D02*
D03*
Y364862D02*
D03*
Y366831D02*
D03*
Y368799D02*
D03*
Y370768D02*
D03*
Y372736D02*
D03*
Y374705D02*
D03*
D193*
X235630Y368799D02*
D03*
M02*
