G04*
G04 #@! TF.GenerationSoftware,Altium Limited,Altium Designer,18.0.7 (293)*
G04*
G04 Layer_Color=16711935*
%FSLAX25Y25*%
%MOIN*%
G70*
G01*
G75*
%ADD11C,0.00394*%
D11*
X480315Y39370D02*
X481290Y39410D01*
X482259Y39531D01*
X483214Y39731D01*
X484150Y40010D01*
X485059Y40365D01*
X485936Y40794D01*
X486775Y41293D01*
X487569Y41861D01*
X488314Y42491D01*
X489005Y43182D01*
X489636Y43927D01*
X490203Y44721D01*
X490702Y45560D01*
X491131Y46437D01*
X491486Y47346D01*
X491765Y48282D01*
X491965Y49237D01*
X492086Y50206D01*
X492126Y51181D01*
Y401575D02*
X492086Y402550D01*
X491965Y403519D01*
X491765Y404474D01*
X491486Y405410D01*
X491131Y406319D01*
X490702Y407196D01*
X490203Y408035D01*
X489636Y408829D01*
X489005Y409574D01*
X488314Y410264D01*
X487569Y410895D01*
X486775Y411463D01*
X485936Y411962D01*
X485059Y412391D01*
X484150Y412746D01*
X483214Y413024D01*
X482259Y413225D01*
X481290Y413345D01*
X480315Y413386D01*
X110236D02*
X109261Y413345D01*
X108292Y413225D01*
X107337Y413024D01*
X106401Y412746D01*
X105492Y412391D01*
X104615Y411962D01*
X103776Y411463D01*
X102982Y410895D01*
X102237Y410264D01*
X101547Y409574D01*
X100916Y408829D01*
X100348Y408035D01*
X99849Y407196D01*
X99420Y406319D01*
X99065Y405410D01*
X98787Y404474D01*
X98586Y403519D01*
X98466Y402550D01*
X98425Y401575D01*
X98425Y51181D02*
X98466Y50206D01*
X98586Y49237D01*
X98787Y48282D01*
X99065Y47346D01*
X99420Y46437D01*
X99849Y45560D01*
X100348Y44721D01*
X100916Y43927D01*
X101547Y43182D01*
X102237Y42491D01*
X102982Y41860D01*
X103776Y41293D01*
X104615Y40794D01*
X105492Y40365D01*
X106401Y40010D01*
X107337Y39731D01*
X108292Y39531D01*
X109261Y39410D01*
X110236Y39370D01*
X480315D01*
X492126Y51181D02*
X492126Y401575D01*
X110236Y413386D02*
X480315D01*
X98425Y51181D02*
X98425Y401575D01*
M02*
