G04*
G04 #@! TF.GenerationSoftware,Altium Limited,Altium Designer,20.1.7 (139)*
G04*
G04 Layer_Color=32896*
%FSLAX25Y25*%
%MOIN*%
G70*
G04*
G04 #@! TF.SameCoordinates,395A0049-4C10-4893-9831-33377791372B*
G04*
G04*
G04 #@! TF.FilePolarity,Positive*
G04*
G01*
G75*
%ADD10C,0.01000*%
%ADD13C,0.01000*%
%ADD14C,0.00394*%
%ADD15C,0.00787*%
%ADD16C,0.00197*%
%ADD18C,0.00600*%
%ADD74C,0.00500*%
D10*
X262774Y186070D02*
Y181071D01*
X261774Y180072D01*
X259775D01*
X258775Y181071D01*
Y186070D01*
X256776Y185070D02*
X255776Y186070D01*
X253777D01*
X252777Y185070D01*
Y184071D01*
X253777Y183071D01*
X254777D01*
X253777D01*
X252777Y182071D01*
Y181071D01*
X253777Y180072D01*
X255776D01*
X256776Y181071D01*
X192794Y178196D02*
Y173197D01*
X191794Y172198D01*
X189795D01*
X188795Y173197D01*
Y178196D01*
X182797Y172198D02*
X186796D01*
X182797Y176197D01*
Y177196D01*
X183797Y178196D01*
X185796D01*
X186796Y177196D01*
D13*
X243278Y145336D02*
D03*
D14*
X252411Y146457D02*
X251772Y147096D01*
X251132Y146457D01*
X243854D02*
Y177165D01*
X259654D01*
Y146457D02*
Y177165D01*
X252411Y146457D02*
X259654D01*
X243854D02*
X251132D01*
D15*
X197205Y136327D02*
X196417D01*
X197205D01*
D16*
X235952Y146739D02*
Y148339D01*
X232552Y146739D02*
X235952D01*
X232552D02*
Y148339D01*
X235952D01*
X267507Y154993D02*
X269107D01*
X267507D02*
Y158393D01*
X269107D01*
Y154993D02*
Y158393D01*
X270893Y177547D02*
Y179147D01*
X267493Y177547D02*
X270893D01*
X267493D02*
Y179147D01*
X270893D01*
X144082Y159574D02*
X145682D01*
Y156174D02*
Y159574D01*
X144082Y156174D02*
X145682D01*
X144082D02*
Y159574D01*
X162572Y146050D02*
Y147650D01*
X165972D01*
Y146050D02*
Y147650D01*
X162572Y146050D02*
X165972D01*
X146582Y168098D02*
Y169698D01*
X143182Y168098D02*
X146582D01*
X143182D02*
Y169698D01*
X146582D01*
X267507Y149678D02*
X269107D01*
X267507D02*
Y153078D01*
X269107D01*
Y149678D02*
Y153078D01*
D18*
X260424Y119901D02*
X259357D01*
X259891D01*
Y123100D01*
X260424Y122567D01*
X257758D02*
X257225Y123100D01*
X256158D01*
X255625Y122567D01*
Y120434D01*
X256158Y119901D01*
X257225D01*
X257758Y120434D01*
Y122567D01*
X254559Y119901D02*
Y122034D01*
X253492Y123100D01*
X252426Y122034D01*
Y119901D01*
Y121501D01*
X254559D01*
X248161Y123100D02*
Y119901D01*
X246561D01*
X246028Y120434D01*
Y120967D01*
X246561Y121501D01*
X248161D01*
X246561D01*
X246028Y122034D01*
Y122567D01*
X246561Y123100D01*
X248161D01*
X244962Y122034D02*
Y120434D01*
X244429Y119901D01*
X242829D01*
Y122034D01*
X241763D02*
Y119901D01*
Y120967D01*
X241230Y121501D01*
X240697Y122034D01*
X240163D01*
X238564Y119901D02*
X236965D01*
X236431Y120434D01*
X236965Y120967D01*
X238031D01*
X238564Y121501D01*
X238031Y122034D01*
X236431D01*
X234832Y122567D02*
Y122034D01*
X235365D01*
X234299D01*
X234832D01*
Y120434D01*
X234299Y119901D01*
X229500Y123100D02*
Y119901D01*
X227901D01*
X227368Y120434D01*
Y122567D01*
X227901Y123100D01*
X229500D01*
X224169Y122567D02*
X224702Y123100D01*
X225768D01*
X226301Y122567D01*
Y120434D01*
X225768Y119901D01*
X224702D01*
X224169Y120434D01*
X217771Y123100D02*
X219903D01*
Y119901D01*
X217771D01*
X219903Y121501D02*
X218837D01*
X214572Y122567D02*
X215105Y123100D01*
X216171D01*
X216704Y122567D01*
Y122034D01*
X216171Y121501D01*
X215105D01*
X214572Y120967D01*
Y120434D01*
X215105Y119901D01*
X216171D01*
X216704Y120434D01*
X211373Y122567D02*
X211906Y123100D01*
X212972D01*
X213505Y122567D01*
Y120434D01*
X212972Y119901D01*
X211906D01*
X211373Y120434D01*
X260424Y117821D02*
X259357D01*
X259891D01*
Y114622D01*
X260424D01*
X259357D01*
X257758D02*
X256158D01*
X255625Y115155D01*
X256158Y115689D01*
X257225D01*
X257758Y116222D01*
X257225Y116755D01*
X255625D01*
X254026D02*
X252959D01*
X252426Y116222D01*
Y114622D01*
X254026D01*
X254559Y115155D01*
X254026Y115689D01*
X252426D01*
X250827Y116755D02*
X249760D01*
X249227Y116222D01*
Y114622D01*
X250827D01*
X251360Y115155D01*
X250827Y115689D01*
X249227D01*
X246028Y116755D02*
X247628D01*
X248161Y116222D01*
Y115155D01*
X247628Y114622D01*
X246028D01*
X241763Y117821D02*
Y114622D01*
X240697Y115689D01*
X239630Y114622D01*
Y117821D01*
X238564Y114622D02*
Y115155D01*
X238031D01*
Y114622D01*
X238564D01*
X260424Y109344D02*
Y112542D01*
X259357Y111476D01*
X258291Y112542D01*
Y109344D01*
X256692Y111476D02*
X255625D01*
X255092Y110943D01*
Y109344D01*
X256692D01*
X257225Y109877D01*
X256692Y110410D01*
X255092D01*
X254026Y111476D02*
Y109877D01*
X253492Y109344D01*
X251893D01*
Y108810D01*
X252426Y108277D01*
X252959D01*
X251893Y109344D02*
Y111476D01*
X245495Y109344D02*
X247628D01*
X245495Y111476D01*
Y112009D01*
X246028Y112542D01*
X247095D01*
X247628Y112009D01*
X244429D02*
X243896Y112542D01*
X242829D01*
X242296Y112009D01*
Y109877D01*
X242829Y109344D01*
X243896D01*
X244429Y109877D01*
Y112009D01*
X239097Y109344D02*
X241230D01*
X239097Y111476D01*
Y112009D01*
X239630Y112542D01*
X240697D01*
X241230Y112009D01*
X238031D02*
X237498Y112542D01*
X236431D01*
X235898Y112009D01*
Y109877D01*
X236431Y109344D01*
X237498D01*
X238031Y109877D01*
Y112009D01*
X246465Y187377D02*
Y190576D01*
X244865D01*
X244332Y190043D01*
Y188976D01*
X244865Y188443D01*
X246465D01*
X245399D02*
X244332Y187377D01*
X243266Y187910D02*
X242733Y187377D01*
X241667D01*
X241133Y187910D01*
Y190043D01*
X241667Y190576D01*
X242733D01*
X243266Y190043D01*
Y189509D01*
X242733Y188976D01*
X241133D01*
X166839Y115723D02*
Y118922D01*
X165240D01*
X164706Y118389D01*
Y117323D01*
X165240Y116790D01*
X166839D01*
X165773D02*
X164706Y115723D01*
X163640Y118389D02*
X163107Y118922D01*
X162041D01*
X161507Y118389D01*
Y117856D01*
X162041Y117323D01*
X161507Y116790D01*
Y116256D01*
X162041Y115723D01*
X163107D01*
X163640Y116256D01*
Y116790D01*
X163107Y117323D01*
X163640Y117856D01*
Y118389D01*
X163107Y117323D02*
X162041D01*
X184949Y124385D02*
Y127584D01*
X183350D01*
X182817Y127051D01*
Y125984D01*
X183350Y125451D01*
X184949D01*
X183883D02*
X182817Y124385D01*
X181750Y127584D02*
X179618D01*
Y127051D01*
X181750Y124918D01*
Y124385D01*
X166839Y134227D02*
Y137426D01*
X165240D01*
X164706Y136893D01*
Y135827D01*
X165240Y135294D01*
X166839D01*
X165773D02*
X164706Y134227D01*
X161507Y137426D02*
X162574Y136893D01*
X163640Y135827D01*
Y134760D01*
X163107Y134227D01*
X162041D01*
X161507Y134760D01*
Y135294D01*
X162041Y135827D01*
X163640D01*
X152272Y192101D02*
Y195300D01*
X150673D01*
X150139Y194767D01*
Y193701D01*
X150673Y193168D01*
X152272D01*
X151206D02*
X150139Y192101D01*
X147474D02*
Y195300D01*
X149073Y193701D01*
X146941D01*
X132054Y164149D02*
Y167348D01*
X130454D01*
X129921Y166814D01*
Y165748D01*
X130454Y165215D01*
X132054D01*
X130988D02*
X129921Y164149D01*
X128855D02*
X127789D01*
X128322D01*
Y167348D01*
X128855Y166814D01*
X270961Y182661D02*
X271494Y183194D01*
X272560D01*
X273093Y182661D01*
Y180528D01*
X272560Y179995D01*
X271494D01*
X270961Y180528D01*
X269894Y179995D02*
X268828D01*
X269361D01*
Y183194D01*
X269894Y182661D01*
X267228D02*
X266695Y183194D01*
X265629D01*
X265096Y182661D01*
Y180528D01*
X265629Y179995D01*
X266695D01*
X267228Y180528D01*
Y182661D01*
X273269Y152346D02*
X273803Y152879D01*
X274869D01*
X275402Y152346D01*
Y150213D01*
X274869Y149680D01*
X273803D01*
X273269Y150213D01*
X272203D02*
X271670Y149680D01*
X270604D01*
X270070Y150213D01*
Y152346D01*
X270604Y152879D01*
X271670D01*
X272203Y152346D01*
Y151813D01*
X271670Y151279D01*
X270070D01*
X273368Y157661D02*
X273901Y158194D01*
X274967D01*
X275500Y157661D01*
Y155528D01*
X274967Y154995D01*
X273901D01*
X273368Y155528D01*
X272302Y157661D02*
X271768Y158194D01*
X270702D01*
X270169Y157661D01*
Y157128D01*
X270702Y156595D01*
X270169Y156061D01*
Y155528D01*
X270702Y154995D01*
X271768D01*
X272302Y155528D01*
Y156061D01*
X271768Y156595D01*
X272302Y157128D01*
Y157661D01*
X271768Y156595D02*
X270702D01*
X234687Y145161D02*
X235220Y145694D01*
X236286D01*
X236819Y145161D01*
Y143028D01*
X236286Y142495D01*
X235220D01*
X234687Y143028D01*
X233620Y145694D02*
X231488D01*
Y145161D01*
X233620Y143028D01*
Y142495D01*
X146202Y163271D02*
X146736Y163804D01*
X147802D01*
X148335Y163271D01*
Y161138D01*
X147802Y160605D01*
X146736D01*
X146202Y161138D01*
X145136Y163271D02*
X144603Y163804D01*
X143537D01*
X143003Y163271D01*
Y162738D01*
X143537Y162205D01*
X144070D01*
X143537D01*
X143003Y161672D01*
Y161138D01*
X143537Y160605D01*
X144603D01*
X145136Y161138D01*
X164805Y151460D02*
X165338Y151993D01*
X166404D01*
X166937Y151460D01*
Y149327D01*
X166404Y148794D01*
X165338D01*
X164805Y149327D01*
X161606Y148794D02*
X163739D01*
X161606Y150927D01*
Y151460D01*
X162139Y151993D01*
X163205D01*
X163739Y151460D01*
X144882Y173901D02*
X145415Y174434D01*
X146481D01*
X147014Y173901D01*
Y171768D01*
X146481Y171235D01*
X145415D01*
X144882Y171768D01*
X143816Y171235D02*
X142749D01*
X143282D01*
Y174434D01*
X143816Y173901D01*
D74*
X201024Y146221D02*
Y160866D01*
X174567Y146221D02*
Y160866D01*
X200000Y146221D02*
X201024D01*
X174567D02*
X175551D01*
X174567Y160866D02*
X180433D01*
X194724D02*
X201024D01*
M02*
