G04*
G04 #@! TF.GenerationSoftware,Altium Limited,Altium Designer,20.1.7 (139)*
G04*
G04 Layer_Color=16711935*
%FSLAX25Y25*%
%MOIN*%
G70*
G04*
G04 #@! TF.SameCoordinates,395A0049-4C10-4893-9831-33377791372B*
G04*
G04*
G04 #@! TF.FilePolarity,Negative*
G04*
G01*
G75*
%ADD24R,0.01378X0.01378*%
%ADD25R,0.05524X0.06312*%
%ADD30R,0.08674X0.08674*%
%ADD31C,0.08674*%
%ADD32O,0.14580X0.12611*%
%ADD33R,0.08674X0.06312*%
%ADD34O,0.08674X0.05918*%
%ADD35O,0.08674X0.06706*%
G04:AMPARAMS|DCode=68|XSize=62.99mil|YSize=21.65mil|CornerRadius=6.4mil|HoleSize=0mil|Usage=FLASHONLY|Rotation=0.000|XOffset=0mil|YOffset=0mil|HoleType=Round|Shape=RoundedRectangle|*
%AMROUNDEDRECTD68*
21,1,0.06299,0.00886,0,0,0.0*
21,1,0.05020,0.02165,0,0,0.0*
1,1,0.01280,0.02510,-0.00443*
1,1,0.01280,-0.02510,-0.00443*
1,1,0.01280,-0.02510,0.00443*
1,1,0.01280,0.02510,0.00443*
%
%ADD68ROUNDEDRECTD68*%
%ADD69R,0.13398X0.21509*%
G04:AMPARAMS|DCode=70|XSize=44.61mil|YSize=59.58mil|CornerRadius=6.75mil|HoleSize=0mil|Usage=FLASHONLY|Rotation=180.000|XOffset=0mil|YOffset=0mil|HoleType=Round|Shape=RoundedRectangle|*
%AMROUNDEDRECTD70*
21,1,0.04461,0.04608,0,0,180.0*
21,1,0.03112,0.05958,0,0,180.0*
1,1,0.01349,-0.01556,0.02304*
1,1,0.01349,0.01556,0.02304*
1,1,0.01349,0.01556,-0.02304*
1,1,0.01349,-0.01556,-0.02304*
%
%ADD70ROUNDEDRECTD70*%
G04:AMPARAMS|DCode=71|XSize=135.56mil|YSize=59.58mil|CornerRadius=7.87mil|HoleSize=0mil|Usage=FLASHONLY|Rotation=180.000|XOffset=0mil|YOffset=0mil|HoleType=Round|Shape=RoundedRectangle|*
%AMROUNDEDRECTD71*
21,1,0.13556,0.04384,0,0,180.0*
21,1,0.11982,0.05958,0,0,180.0*
1,1,0.01574,-0.05991,0.02192*
1,1,0.01574,0.05991,0.02192*
1,1,0.01574,0.05991,-0.02192*
1,1,0.01574,-0.05991,-0.02192*
%
%ADD71ROUNDEDRECTD71*%
%ADD72R,0.01378X0.01378*%
%ADD73R,0.06312X0.05524*%
G36*
X296063Y150492D02*
X290256D01*
X293209Y153445D01*
Y177756D01*
X290158Y180807D01*
X296063D01*
Y150492D01*
D02*
G37*
D24*
X235138Y147539D02*
D03*
X233366D02*
D03*
X270079Y178347D02*
D03*
X268307D02*
D03*
X163386Y146850D02*
D03*
X165157D02*
D03*
X145768Y168898D02*
D03*
X143996D02*
D03*
D25*
X178740Y119685D02*
D03*
X185827D02*
D03*
X167717Y129921D02*
D03*
X160630D02*
D03*
X153150Y187402D02*
D03*
X146063D02*
D03*
X160236Y110236D02*
D03*
X167323D02*
D03*
X247441Y182677D02*
D03*
X240354D02*
D03*
D30*
X109449Y146063D02*
D03*
X109500Y183343D02*
D03*
D31*
X109449Y136221D02*
D03*
X109500Y173500D02*
D03*
Y163657D02*
D03*
D32*
X284446Y158292D02*
D03*
X284646Y172992D02*
D03*
X284747Y134228D02*
D03*
X284547Y119528D02*
D03*
D33*
X209842Y174488D02*
D03*
D34*
Y164488D02*
D03*
D35*
Y154488D02*
D03*
Y144488D02*
D03*
Y134488D02*
D03*
D68*
X263189Y175886D02*
D03*
Y173327D02*
D03*
Y170768D02*
D03*
Y168209D02*
D03*
Y165650D02*
D03*
Y163091D02*
D03*
Y160531D02*
D03*
Y157972D02*
D03*
Y155413D02*
D03*
Y152854D02*
D03*
Y150295D02*
D03*
Y147736D02*
D03*
X240354Y175886D02*
D03*
Y173327D02*
D03*
Y170768D02*
D03*
Y168209D02*
D03*
Y165650D02*
D03*
Y163091D02*
D03*
Y160531D02*
D03*
Y157972D02*
D03*
Y155413D02*
D03*
Y152854D02*
D03*
Y150295D02*
D03*
Y147736D02*
D03*
D69*
X251870Y162008D02*
D03*
D70*
X196811Y140374D02*
D03*
X187795D02*
D03*
X178779D02*
D03*
D71*
X187795Y166713D02*
D03*
D72*
X268307Y155807D02*
D03*
Y157579D02*
D03*
X144882Y158760D02*
D03*
Y156988D02*
D03*
X268307Y150492D02*
D03*
Y152264D02*
D03*
D73*
X129921Y159843D02*
D03*
Y152756D02*
D03*
M02*
