G04*
G04 #@! TF.GenerationSoftware,Altium Limited,Altium Designer,20.1.7 (139)*
G04*
G04 Layer_Color=16711935*
%FSLAX25Y25*%
%MOIN*%
G70*
G04*
G04 #@! TF.SameCoordinates,395A0049-4C10-4893-9831-33377791372B*
G04*
G04*
G04 #@! TF.FilePolarity,Positive*
G04*
G01*
G75*
%ADD18C,0.00600*%
D18*
X100000Y107874D02*
X100067Y106846D01*
X100268Y105836D01*
X100599Y104861D01*
X101055Y103937D01*
X101627Y103081D01*
X102306Y102306D01*
X103081Y101627D01*
X103937Y101055D01*
X104861Y100599D01*
X105836Y100268D01*
X106846Y100067D01*
X107874Y100000D01*
Y198425D02*
X106846Y198358D01*
X105836Y198157D01*
X104861Y197826D01*
X103937Y197370D01*
X103081Y196798D01*
X102306Y196119D01*
X101627Y195345D01*
X101055Y194488D01*
X100599Y193564D01*
X100268Y192589D01*
X100067Y191579D01*
X100000Y190551D01*
X296850D02*
X296783Y191579D01*
X296582Y192589D01*
X296251Y193564D01*
X295795Y194488D01*
X295223Y195345D01*
X294544Y196119D01*
X293770Y196798D01*
X292913Y197370D01*
X291990Y197826D01*
X291014Y198157D01*
X290004Y198358D01*
X288976Y198425D01*
Y100000D02*
X290004Y100067D01*
X291014Y100268D01*
X291990Y100599D01*
X292913Y101055D01*
X293770Y101627D01*
X294544Y102306D01*
X295223Y103081D01*
X295795Y103937D01*
X296251Y104861D01*
X296582Y105836D01*
X296783Y106846D01*
X296850Y107874D01*
X296850D02*
Y190551D01*
X107874Y198425D02*
X288976Y198425D01*
X107874Y100000D02*
X288976Y100000D01*
X100000Y107874D02*
Y190551D01*
M02*
