G04*
G04 #@! TF.GenerationSoftware,Altium Limited,Altium Designer,20.1.7 (139)*
G04*
G04 Layer_Color=65535*
%FSLAX25Y25*%
%MOIN*%
G70*
G04*
G04 #@! TF.SameCoordinates,395A0049-4C10-4893-9831-33377791372B*
G04*
G04*
G04 #@! TF.FilePolarity,Positive*
G04*
G01*
G75*
%ADD10C,0.01000*%
%ADD11C,0.02362*%
%ADD12C,0.00984*%
%ADD13C,0.01000*%
%ADD14C,0.00394*%
%ADD15C,0.00787*%
%ADD16C,0.00197*%
%ADD17C,0.00591*%
%ADD18C,0.00600*%
%ADD19C,0.00700*%
D10*
X103150Y153543D02*
X102362D01*
X103150D01*
X103201Y190823D02*
X102413D01*
X103201D01*
X103937Y133071D02*
Y151575D01*
Y130709D02*
Y133071D01*
Y130709D02*
X115354D01*
Y151575D01*
X103937D02*
X115354D01*
X256230Y103469D02*
X263480D01*
Y125469D01*
X251480D02*
X263480D01*
X251480Y103469D02*
Y125469D01*
Y103469D02*
X256230D01*
X241959D02*
X249209D01*
Y125469D01*
X237209D02*
X249209D01*
X237209Y103469D02*
Y125469D01*
Y103469D02*
X241959D01*
X103988Y188854D02*
X115012D01*
Y158146D02*
Y188854D01*
X103988Y158146D02*
X115012D01*
X103988D02*
Y158933D01*
Y188854D01*
X268851Y106164D02*
X267852Y107164D01*
Y109163D01*
X268851Y110163D01*
X269851D01*
X270851Y109163D01*
Y108164D01*
Y109163D01*
X271850Y110163D01*
X272850D01*
X273850Y109163D01*
Y107164D01*
X272850Y106164D01*
X268851Y116161D02*
X267852Y115162D01*
Y113162D01*
X268851Y112162D01*
X269851D01*
X270851Y113162D01*
Y115162D01*
X271850Y116161D01*
X272850D01*
X273850Y115162D01*
Y113162D01*
X272850Y112162D01*
X270851Y118161D02*
Y122159D01*
X267852Y124159D02*
Y126158D01*
Y125158D01*
X273850D01*
Y124159D01*
Y126158D01*
Y129157D02*
X269851D01*
Y132156D01*
X270851Y133156D01*
X273850D01*
X275849Y135155D02*
X269851D01*
Y138154D01*
X270851Y139154D01*
X272850D01*
X273850Y138154D01*
Y135155D01*
X269851Y141153D02*
X272850D01*
X273850Y142153D01*
Y145152D01*
X269851D01*
X268851Y148151D02*
X269851D01*
Y147151D01*
Y149151D01*
Y148151D01*
X272850D01*
X273850Y149151D01*
X268647Y160494D02*
Y158494D01*
X269646Y157495D01*
X273645D01*
X274645Y158494D01*
Y160494D01*
X273645Y161493D01*
X269646D01*
X268647Y160494D01*
Y163493D02*
X273645D01*
X274645Y164492D01*
Y166492D01*
X273645Y167491D01*
X268647D01*
Y169491D02*
Y173489D01*
Y171490D01*
X274645D01*
D11*
X148004Y165677D02*
X147559Y166601D01*
X146560Y166829D01*
X145759Y166190D01*
Y165165D01*
X146560Y164526D01*
X147559Y164754D01*
X148004Y165677D01*
D12*
X138555Y172272D02*
X137817Y172698D01*
Y171845D01*
X138555Y172272D01*
D13*
X215766Y178888D02*
D03*
D14*
X127756Y168279D02*
X131056D01*
X127756D02*
Y171879D01*
X131056Y168279D02*
Y171879D01*
X127756D02*
X131056D01*
X276646Y153492D02*
X278646Y151492D01*
X289946D02*
X292146Y153692D01*
X278646Y151492D02*
X289946D01*
X292146Y153692D02*
Y177492D01*
X289846Y179792D02*
X292146Y177492D01*
X286251Y179792D02*
X289846D01*
X276646Y153492D02*
Y177092D01*
X279346Y179792D01*
X286251D01*
X276646Y149492D02*
Y151092D01*
X275946Y150292D02*
X277346D01*
X290547Y141028D02*
X292547Y139028D01*
X277047Y138828D02*
X279247Y141028D01*
X290547D01*
X277047Y115028D02*
Y138828D01*
Y115028D02*
X279347Y112728D01*
X282942D01*
X292547Y115428D02*
Y139028D01*
X289847Y112728D02*
X292547Y115428D01*
X282942Y112728D02*
X289847D01*
X292547Y141428D02*
Y143028D01*
X291847Y142228D02*
X293247D01*
X205242Y178188D02*
X214442D01*
X205242Y130689D02*
Y178188D01*
Y130689D02*
X214442D01*
Y178188D01*
D15*
X142886Y146386D02*
X166114D01*
X142886Y169614D02*
X166114D01*
Y146386D02*
Y169614D01*
X142886Y146386D02*
Y169614D01*
X150765Y119887D02*
X174065D01*
X150765Y100687D02*
Y119887D01*
Y100687D02*
X174065D01*
Y119887D01*
X113774Y120079D02*
X137074D01*
X113774Y100879D02*
Y120079D01*
Y100879D02*
X137074D01*
Y120079D01*
D16*
X189692Y135322D02*
Y136922D01*
X186292D02*
X189692D01*
X186292Y135322D02*
Y136922D01*
Y135322D02*
X189692D01*
X182802Y145657D02*
Y147257D01*
X179402D02*
X182802D01*
X179402Y145657D02*
Y147257D01*
Y145657D02*
X182802D01*
X189495Y143983D02*
Y145583D01*
X186095D02*
X189495D01*
X186095Y143983D02*
Y145583D01*
Y143983D02*
X189495D01*
D17*
X162008Y191929D02*
X163779Y190157D01*
X162008Y191929D02*
Y194095D01*
Y196260D02*
X163779Y198031D01*
X162008Y194095D02*
Y196260D01*
X178937Y190157D02*
Y198031D01*
X178150Y190157D02*
Y198031D01*
X163779D02*
X178937D01*
X163779Y190157D02*
X178937D01*
X161811Y197835D02*
Y199016D01*
X161221Y198425D02*
X162402D01*
X162008Y180905D02*
X163779Y179134D01*
X162008Y180905D02*
Y183071D01*
Y185236D02*
X163779Y187008D01*
X162008Y183071D02*
Y185236D01*
X178937Y179134D02*
Y187008D01*
X178150Y179134D02*
Y187008D01*
X163779D02*
X178937D01*
X163779Y179134D02*
X178937D01*
X161811Y186811D02*
Y187992D01*
X161221Y187402D02*
X162402D01*
X253247Y180906D02*
Y182087D01*
Y181497D01*
X250295D01*
X249705Y182087D01*
Y182677D01*
X250295Y183268D01*
X253247Y179726D02*
X249705D01*
Y177364D01*
X252657Y173822D02*
X253247Y174412D01*
Y175593D01*
X252657Y176183D01*
X250295D01*
X249705Y175593D01*
Y174412D01*
X250295Y173822D01*
X253247Y170280D02*
Y171460D01*
Y170870D01*
X250295D01*
X249705Y171460D01*
Y172051D01*
X250295Y172641D01*
X253247Y169099D02*
X249705D01*
Y166738D01*
X252657Y163196D02*
X253247Y163786D01*
Y164967D01*
X252657Y165557D01*
X250295D01*
X249705Y164967D01*
Y163786D01*
X250295Y163196D01*
X253247Y159653D02*
Y160834D01*
Y160244D01*
X250295D01*
X249705Y160834D01*
Y161424D01*
X250295Y162015D01*
X253247Y158473D02*
X249705D01*
Y156111D01*
X252657Y152569D02*
X253247Y153159D01*
Y154340D01*
X252657Y154930D01*
X250295D01*
X249705Y154340D01*
Y153159D01*
X250295Y152569D01*
X253247Y149027D02*
Y150207D01*
Y149617D01*
X250295D01*
X249705Y150207D01*
Y150798D01*
X250295Y151388D01*
X253247Y147846D02*
X249705D01*
Y145485D01*
X252657Y141943D02*
X253247Y142533D01*
Y143714D01*
X252657Y144304D01*
X250295D01*
X249705Y143714D01*
Y142533D01*
X250295Y141943D01*
D18*
X182884Y191062D02*
X183950D01*
X183417D01*
Y194261D01*
X182884Y193728D01*
X185549D02*
X186082Y194261D01*
X187149D01*
X187682Y193728D01*
Y191596D01*
X187149Y191062D01*
X186082D01*
X185549Y191596D01*
Y193728D01*
X188748Y191062D02*
Y193195D01*
X189815Y194261D01*
X190881Y193195D01*
Y191062D01*
Y192662D01*
X188748D01*
X195146Y194261D02*
Y191062D01*
X196746D01*
X197279Y191596D01*
Y193728D01*
X196746Y194261D01*
X195146D01*
X200478Y193728D02*
X199945Y194261D01*
X198878D01*
X198345Y193728D01*
Y191596D01*
X198878Y191062D01*
X199945D01*
X200478Y191596D01*
X204743Y191062D02*
Y194261D01*
X205809Y193195D01*
X206876Y194261D01*
Y191062D01*
X208475D02*
X209542D01*
X210075Y191596D01*
Y192662D01*
X209542Y193195D01*
X208475D01*
X207942Y192662D01*
Y191596D01*
X208475Y191062D01*
X211674Y193728D02*
Y193195D01*
X211141D01*
X212207D01*
X211674D01*
Y191596D01*
X212207Y191062D01*
X214340D02*
X215406D01*
X215939Y191596D01*
Y192662D01*
X215406Y193195D01*
X214340D01*
X213807Y192662D01*
Y191596D01*
X214340Y191062D01*
X217006Y193195D02*
Y191062D01*
Y192129D01*
X217539Y192662D01*
X218072Y193195D01*
X218605D01*
X225536Y194261D02*
X223404D01*
Y191062D01*
X225536D01*
X223404Y192662D02*
X224470D01*
X228735Y193728D02*
X228202Y194261D01*
X227136D01*
X226603Y193728D01*
Y193195D01*
X227136Y192662D01*
X228202D01*
X228735Y192129D01*
Y191596D01*
X228202Y191062D01*
X227136D01*
X226603Y191596D01*
X231934Y193728D02*
X231401Y194261D01*
X230335D01*
X229802Y193728D01*
Y191596D01*
X230335Y191062D01*
X231401D01*
X231934Y191596D01*
X182884Y188983D02*
X183950D01*
X183417D01*
Y185784D01*
X182884D01*
X183950D01*
X185549D02*
X187149D01*
X187682Y186317D01*
X187149Y186850D01*
X186082D01*
X185549Y187383D01*
X186082Y187916D01*
X187682D01*
X189281D02*
X190348D01*
X190881Y187383D01*
Y185784D01*
X189281D01*
X188748Y186317D01*
X189281Y186850D01*
X190881D01*
X192480Y187916D02*
X193547D01*
X194080Y187383D01*
Y185784D01*
X192480D01*
X191947Y186317D01*
X192480Y186850D01*
X194080D01*
X197279Y187916D02*
X195679D01*
X195146Y187383D01*
Y186317D01*
X195679Y185784D01*
X197279D01*
X201544Y188983D02*
Y185784D01*
X202610Y186850D01*
X203677Y185784D01*
Y188983D01*
X204743Y185784D02*
Y186317D01*
X205276D01*
Y185784D01*
X204743D01*
X182884Y180505D02*
Y183704D01*
X183950Y182638D01*
X185016Y183704D01*
Y180505D01*
X186616Y182638D02*
X187682D01*
X188215Y182104D01*
Y180505D01*
X186616D01*
X186082Y181038D01*
X186616Y181571D01*
X188215D01*
X189281Y182638D02*
Y181038D01*
X189815Y180505D01*
X191414D01*
Y179972D01*
X190881Y179439D01*
X190348D01*
X191414Y180505D02*
Y182638D01*
X197812Y180505D02*
X195679D01*
X197812Y182638D01*
Y183171D01*
X197279Y183704D01*
X196212D01*
X195679Y183171D01*
X198878D02*
X199411Y183704D01*
X200478D01*
X201011Y183171D01*
Y181038D01*
X200478Y180505D01*
X199411D01*
X198878Y181038D01*
Y183171D01*
X204210Y180505D02*
X202077D01*
X204210Y182638D01*
Y183171D01*
X203677Y183704D01*
X202610D01*
X202077Y183171D01*
X205276D02*
X205809Y183704D01*
X206876D01*
X207409Y183171D01*
Y181038D01*
X206876Y180505D01*
X205809D01*
X205276Y181038D01*
Y183171D01*
X217529Y180896D02*
X220728D01*
Y179297D01*
X220195Y178763D01*
X219129D01*
X218595Y179297D01*
Y180896D01*
X220728Y177697D02*
X217529D01*
X219129D01*
Y175565D01*
X220728D01*
X217529D01*
Y174498D02*
X219662D01*
X220728Y173432D01*
X219662Y172365D01*
X217529D01*
X219129D01*
Y174498D01*
X217529Y168100D02*
X220728D01*
Y166501D01*
X220195Y165968D01*
X219129D01*
X218595Y166501D01*
Y168100D01*
X220728Y164901D02*
X217529D01*
X219129D01*
Y162769D01*
X220728D01*
X217529D01*
X220728Y161702D02*
X217529D01*
Y160103D01*
X218062Y159570D01*
X218595D01*
X219129Y160103D01*
Y161702D01*
Y160103D01*
X219662Y159570D01*
X220195D01*
X220728Y160103D01*
Y161702D01*
Y155304D02*
Y154238D01*
Y154771D01*
X217529D01*
Y155304D01*
Y154238D01*
X220195Y149440D02*
X220728Y148906D01*
Y147840D01*
X220195Y147307D01*
X219662D01*
X219129Y147840D01*
Y148373D01*
Y147840D01*
X218595Y147307D01*
X218062D01*
X217529Y147840D01*
Y148906D01*
X218062Y149440D01*
X220728Y146241D02*
X218595D01*
X217529Y145174D01*
X218595Y144108D01*
X220728D01*
X220195Y143042D02*
X220728Y142508D01*
Y141442D01*
X220195Y140909D01*
X219662D01*
X219129Y141442D01*
Y141975D01*
Y141442D01*
X218595Y140909D01*
X218062D01*
X217529Y141442D01*
Y142508D01*
X218062Y143042D01*
X220195Y134511D02*
X220728Y135044D01*
Y136110D01*
X220195Y136644D01*
X218062D01*
X217529Y136110D01*
Y135044D01*
X218062Y134511D01*
X219129D01*
Y135577D01*
X217529Y133445D02*
X220728D01*
X217529Y131312D01*
X220728D01*
Y130246D02*
X217529D01*
Y128646D01*
X218062Y128113D01*
X220195D01*
X220728Y128646D01*
Y130246D01*
X119799Y189400D02*
X116600D01*
Y187801D01*
X117133Y187267D01*
X119266D01*
X119799Y187801D01*
Y189400D01*
Y186201D02*
Y185135D01*
Y185668D01*
X116600D01*
Y186201D01*
Y185135D01*
X119799Y181936D02*
Y183002D01*
X119266Y183535D01*
X117133D01*
X116600Y183002D01*
Y181936D01*
X117133Y181403D01*
X119266D01*
X119799Y181936D01*
X119266Y175005D02*
X119799Y175538D01*
Y176604D01*
X119266Y177137D01*
X117133D01*
X116600Y176604D01*
Y175538D01*
X117133Y175005D01*
X119799Y173938D02*
X116600D01*
Y171806D01*
X119799Y170739D02*
X116600D01*
X117666D01*
X119799Y168607D01*
X118200Y170206D01*
X116600Y168607D01*
X119266Y162209D02*
X119799Y162742D01*
Y163808D01*
X119266Y164341D01*
X117133D01*
X116600Y163808D01*
Y162742D01*
X117133Y162209D01*
X118200D01*
Y163275D01*
X116600Y161142D02*
X119799D01*
X116600Y159010D01*
X119799D01*
Y157943D02*
X116600D01*
Y156344D01*
X117133Y155811D01*
X119266D01*
X119799Y156344D01*
Y157943D01*
X180569Y151066D02*
X180036Y151600D01*
X178970D01*
X178437Y151066D01*
Y148934D01*
X178970Y148400D01*
X180036D01*
X180569Y148934D01*
X183235Y148400D02*
Y151600D01*
X181635Y150000D01*
X183768D01*
X136056Y177977D02*
Y175312D01*
X136590Y174778D01*
X137656D01*
X138189Y175312D01*
Y177977D01*
X139255Y174778D02*
X140322D01*
X139788D01*
Y177977D01*
X139255Y177444D01*
X147334Y192101D02*
Y195300D01*
X148934D01*
X149467Y194767D01*
Y193701D01*
X148934Y193168D01*
X147334D01*
X148400D02*
X149467Y192101D01*
X152666Y195300D02*
X150533D01*
Y193701D01*
X151600Y194234D01*
X152133D01*
X152666Y193701D01*
Y192634D01*
X152133Y192101D01*
X151066D01*
X150533Y192634D01*
X202846Y114149D02*
Y117348D01*
X204446D01*
X204979Y116814D01*
Y115748D01*
X204446Y115215D01*
X202846D01*
X203912D02*
X204979Y114149D01*
X206045Y116814D02*
X206578Y117348D01*
X207645D01*
X208178Y116814D01*
Y116281D01*
X207645Y115748D01*
X207111D01*
X207645D01*
X208178Y115215D01*
Y114682D01*
X207645Y114149D01*
X206578D01*
X206045Y114682D01*
X202846Y106668D02*
Y109867D01*
X204446D01*
X204979Y109334D01*
Y108268D01*
X204446Y107735D01*
X202846D01*
X203912D02*
X204979Y106668D01*
X208178D02*
X206045D01*
X208178Y108801D01*
Y109334D01*
X207645Y109867D01*
X206578D01*
X206045Y109334D01*
X129481Y176009D02*
X128415D01*
X128948D01*
Y173343D01*
X128415Y172810D01*
X127882D01*
X127348Y173343D01*
X130547Y172810D02*
X131614D01*
X131081D01*
Y176009D01*
X130547Y175476D01*
X152837Y128625D02*
X152304Y129158D01*
X151238D01*
X150705Y128625D01*
Y126493D01*
X151238Y125960D01*
X152304D01*
X152837Y126493D01*
X153904Y125960D02*
Y129158D01*
X156036Y125960D01*
Y129158D01*
X158702Y125960D02*
Y129158D01*
X157103Y127559D01*
X159235D01*
X163501D02*
X165633D01*
X172031Y129158D02*
X169899D01*
Y125960D01*
X172031D01*
X169899Y127559D02*
X170965D01*
X173098Y125960D02*
Y129158D01*
X175230Y125960D01*
Y129158D01*
X178429Y128625D02*
X177896Y129158D01*
X176830D01*
X176296Y128625D01*
Y126493D01*
X176830Y125960D01*
X177896D01*
X178429Y126493D01*
X240949Y130102D02*
X240416Y130635D01*
X239349D01*
X238816Y130102D01*
Y127969D01*
X239349Y127436D01*
X240416D01*
X240949Y127969D01*
X242015Y127436D02*
X243082D01*
X242548D01*
Y130635D01*
X242015Y130102D01*
X246814Y127436D02*
X244681D01*
X246814Y129569D01*
Y130102D01*
X246281Y130635D01*
X245214D01*
X244681Y130102D01*
X256147D02*
X255614Y130635D01*
X254548D01*
X254015Y130102D01*
Y127969D01*
X254548Y127436D01*
X255614D01*
X256147Y127969D01*
X257214Y127436D02*
X258280D01*
X257747D01*
Y130635D01*
X257214Y130102D01*
X259879Y127436D02*
X260946D01*
X260413D01*
Y130635D01*
X259879Y130102D01*
X187164Y140535D02*
X186630Y141068D01*
X185564D01*
X185031Y140535D01*
Y138402D01*
X185564Y137869D01*
X186630D01*
X187164Y138402D01*
X190363Y141068D02*
X189296Y140535D01*
X188230Y139469D01*
Y138402D01*
X188763Y137869D01*
X189830D01*
X190363Y138402D01*
Y138935D01*
X189830Y139469D01*
X188230D01*
X187361Y149098D02*
X186827Y149631D01*
X185761D01*
X185228Y149098D01*
Y146965D01*
X185761Y146432D01*
X186827D01*
X187361Y146965D01*
X190559Y149631D02*
X188427D01*
Y148031D01*
X189493Y148565D01*
X190026D01*
X190559Y148031D01*
Y146965D01*
X190026Y146432D01*
X188960D01*
X188427Y146965D01*
D19*
X117292Y146670D02*
X121291D01*
Y144671D01*
X120624Y144004D01*
X119291D01*
X118625Y144671D01*
Y146670D01*
X121291Y142672D02*
X117292D01*
X118625Y141339D01*
X117292Y140006D01*
X121291D01*
X117292Y138673D02*
X121291D01*
X119958Y137340D01*
X121291Y136007D01*
X117292D01*
X117527Y130528D02*
Y126779D01*
X118276Y126030D01*
X119776D01*
X120526Y126779D01*
Y130528D01*
X122025Y126030D02*
Y129028D01*
X123525Y130528D01*
X125024Y129028D01*
Y126030D01*
Y128279D01*
X122025D01*
X126524Y126030D02*
Y130528D01*
X128773D01*
X129523Y129778D01*
Y128279D01*
X128773Y127529D01*
X126524D01*
X128023D02*
X129523Y126030D01*
X131022Y130528D02*
X134021D01*
X132522D01*
Y126030D01*
M02*
