G04*
G04 #@! TF.GenerationSoftware,Altium Limited,Altium Designer,20.1.7 (139)*
G04*
G04 Layer_Color=8388736*
%FSLAX25Y25*%
%MOIN*%
G70*
G04*
G04 #@! TF.SameCoordinates,395A0049-4C10-4893-9831-33377791372B*
G04*
G04*
G04 #@! TF.FilePolarity,Negative*
G04*
G01*
G75*
%ADD20R,0.13583X0.21654*%
%ADD21R,0.02800X0.02800*%
%ADD22O,0.02965X0.07296*%
%ADD23O,0.07296X0.02965*%
%ADD24R,0.01378X0.01378*%
%ADD25R,0.05524X0.06312*%
%ADD26R,0.09300X0.07300*%
%ADD27R,0.04737X0.13005*%
%ADD28R,0.03162X0.08280*%
%ADD29R,0.05524X0.05524*%
%ADD30R,0.08674X0.08674*%
%ADD31C,0.08674*%
%ADD32O,0.14580X0.12611*%
%ADD33R,0.08674X0.06312*%
%ADD34O,0.08674X0.05918*%
%ADD35O,0.08674X0.06706*%
G36*
X290158Y180807D02*
X293209Y177756D01*
Y153445D01*
X290256Y150492D01*
X296063D01*
Y180807D01*
X290158D01*
D02*
G37*
D20*
X251870Y162008D02*
D03*
D21*
X127756Y170079D02*
D03*
X131056D02*
D03*
D22*
X143476Y174437D02*
D03*
X146626D02*
D03*
X149776D02*
D03*
X152925D02*
D03*
X156075D02*
D03*
X159224D02*
D03*
X162374D02*
D03*
X165524D02*
D03*
Y141563D02*
D03*
X162374D02*
D03*
X159224D02*
D03*
X156075D02*
D03*
X152925D02*
D03*
X149776D02*
D03*
X146626D02*
D03*
X143476D02*
D03*
D23*
X170937Y169024D02*
D03*
Y165874D02*
D03*
Y162724D02*
D03*
Y159575D02*
D03*
Y156425D02*
D03*
Y153276D02*
D03*
Y150126D02*
D03*
Y146976D02*
D03*
X138063D02*
D03*
Y150126D02*
D03*
Y153276D02*
D03*
Y156425D02*
D03*
Y159575D02*
D03*
Y162724D02*
D03*
Y165874D02*
D03*
Y169024D02*
D03*
D24*
X188878Y136122D02*
D03*
X187106D02*
D03*
X181988Y146457D02*
D03*
X180217D02*
D03*
X188681Y144783D02*
D03*
X186909D02*
D03*
D25*
X212598Y116535D02*
D03*
X219685D02*
D03*
X212598Y107874D02*
D03*
X219685D02*
D03*
X153150Y187402D02*
D03*
X146063D02*
D03*
D26*
X257480Y108219D02*
D03*
Y120719D02*
D03*
X243209Y108219D02*
D03*
Y120719D02*
D03*
D27*
X147765Y107087D02*
D03*
X177165D02*
D03*
X110774Y107279D02*
D03*
X140174D02*
D03*
D28*
X155102Y119887D02*
D03*
X160023D02*
D03*
X164944D02*
D03*
X169865D02*
D03*
X118110Y120079D02*
D03*
X123031D02*
D03*
X127953D02*
D03*
X132874D02*
D03*
D29*
X165945Y194095D02*
D03*
X174213D02*
D03*
X165945Y183071D02*
D03*
X174213D02*
D03*
D30*
X109449Y146063D02*
D03*
X109500Y183343D02*
D03*
D31*
X109449Y136221D02*
D03*
X109500Y173500D02*
D03*
Y163657D02*
D03*
D32*
X284446Y158292D02*
D03*
X284646Y172992D02*
D03*
X284747Y134228D02*
D03*
X284547Y119528D02*
D03*
D33*
X209842Y174488D02*
D03*
D34*
Y164488D02*
D03*
D35*
Y154488D02*
D03*
Y144488D02*
D03*
Y134488D02*
D03*
M02*
