G04*
G04 #@! TF.GenerationSoftware,Altium Limited,Altium Designer,20.1.7 (139)*
G04*
G04 Layer_Physical_Order=2*
G04 Layer_Color=16711680*
%FSLAX25Y25*%
%MOIN*%
G70*
G04*
G04 #@! TF.SameCoordinates,395A0049-4C10-4893-9831-33377791372B*
G04*
G04*
G04 #@! TF.FilePolarity,Positive*
G04*
G01*
G75*
%ADD12C,0.00984*%
%ADD14C,0.00394*%
%ADD15C,0.00787*%
%ADD36C,0.00472*%
%ADD40R,0.00984X0.00984*%
%ADD41R,0.04724X0.05512*%
%ADD47C,0.01575*%
%ADD48C,0.01181*%
%ADD49C,0.00492*%
%ADD50R,0.07874X0.07874*%
%ADD51C,0.07874*%
%ADD52O,0.13780X0.11811*%
%ADD53R,0.07874X0.05512*%
%ADD54O,0.07874X0.05118*%
%ADD55O,0.07874X0.05906*%
%ADD56C,0.02362*%
%ADD57C,0.01772*%
%ADD58C,0.03150*%
%ADD59C,0.01800*%
%ADD60C,0.01087*%
G04:AMPARAMS|DCode=61|XSize=59.06mil|YSize=17.72mil|CornerRadius=4.43mil|HoleSize=0mil|Usage=FLASHONLY|Rotation=0.000|XOffset=0mil|YOffset=0mil|HoleType=Round|Shape=RoundedRectangle|*
%AMROUNDEDRECTD61*
21,1,0.05906,0.00886,0,0,0.0*
21,1,0.05020,0.01772,0,0,0.0*
1,1,0.00886,0.02510,-0.00443*
1,1,0.00886,-0.02510,-0.00443*
1,1,0.00886,-0.02510,0.00443*
1,1,0.00886,0.02510,0.00443*
%
%ADD61ROUNDEDRECTD61*%
%ADD62R,0.12598X0.20709*%
G04:AMPARAMS|DCode=63|XSize=36.61mil|YSize=51.58mil|CornerRadius=2.75mil|HoleSize=0mil|Usage=FLASHONLY|Rotation=180.000|XOffset=0mil|YOffset=0mil|HoleType=Round|Shape=RoundedRectangle|*
%AMROUNDEDRECTD63*
21,1,0.03661,0.04608,0,0,180.0*
21,1,0.03112,0.05158,0,0,180.0*
1,1,0.00549,-0.01556,0.02304*
1,1,0.00549,0.01556,0.02304*
1,1,0.00549,0.01556,-0.02304*
1,1,0.00549,-0.01556,-0.02304*
%
%ADD63ROUNDEDRECTD63*%
G04:AMPARAMS|DCode=64|XSize=127.56mil|YSize=51.58mil|CornerRadius=3.87mil|HoleSize=0mil|Usage=FLASHONLY|Rotation=180.000|XOffset=0mil|YOffset=0mil|HoleType=Round|Shape=RoundedRectangle|*
%AMROUNDEDRECTD64*
21,1,0.12756,0.04384,0,0,180.0*
21,1,0.11982,0.05158,0,0,180.0*
1,1,0.00774,-0.05991,0.02192*
1,1,0.00774,0.05991,0.02192*
1,1,0.00774,0.05991,-0.02192*
1,1,0.00774,-0.05991,-0.02192*
%
%ADD64ROUNDEDRECTD64*%
%ADD65R,0.00984X0.00984*%
%ADD66R,0.05512X0.04724*%
%ADD67C,0.01500*%
G36*
X292421Y177461D02*
Y166142D01*
X270079Y166142D01*
X266339Y169882D01*
X265884D01*
X265699Y169919D01*
X260679D01*
X260236Y170266D01*
Y173829D01*
X260679Y174176D01*
X265699D01*
X265884Y174213D01*
X268996D01*
X274803Y180020D01*
X289862Y180020D01*
X292421Y177461D01*
D02*
G37*
G36*
X270079Y165326D02*
X270079Y165326D01*
X292421Y165326D01*
Y153642D01*
X290059Y151279D01*
X280020Y151279D01*
X271654Y159646D01*
X265884D01*
X265699Y159683D01*
X260679D01*
X260236Y160029D01*
Y163593D01*
X260679Y163939D01*
X265699D01*
X265885Y163976D01*
X265945D01*
X265960Y163991D01*
X266184Y164036D01*
X266595Y164311D01*
X266870Y164722D01*
X266914Y164946D01*
X267323Y165354D01*
X269937D01*
X270079Y165326D01*
D02*
G37*
G36*
X291039Y197351D02*
X292326Y196818D01*
X293484Y196044D01*
X294469Y195059D01*
X295243Y193901D01*
X295776Y192614D01*
X296048Y191248D01*
X296048Y190551D01*
Y127165D01*
X259807D01*
X259784Y145795D01*
X259954Y145931D01*
X260283Y146105D01*
X260679Y146026D01*
X265699D01*
X266184Y146123D01*
X266595Y146397D01*
X266870Y146808D01*
X266966Y147293D01*
Y148179D01*
X266870Y148664D01*
X266820Y148739D01*
X266898Y148939D01*
X267113Y149200D01*
X269599D01*
Y153556D01*
X268509D01*
X268464Y153601D01*
X268121Y153830D01*
X267938Y153867D01*
X267913Y154357D01*
X268318Y154437D01*
X268434Y154515D01*
X269599D01*
Y157099D01*
X267015D01*
Y157024D01*
X266818Y156896D01*
X266515Y156806D01*
X266184Y157027D01*
X265699Y157123D01*
X260679D01*
X260270Y157042D01*
X260042Y157141D01*
X259769Y157344D01*
X259768Y158601D01*
X260056Y158815D01*
X260267Y158903D01*
X260679Y158821D01*
X265699D01*
X265813Y158844D01*
X265884Y158830D01*
X271316D01*
X279443Y150703D01*
X279708Y150526D01*
X280020Y150464D01*
X280020Y150464D01*
X290059Y150464D01*
X290059Y150464D01*
X290371Y150526D01*
X290636Y150703D01*
X290636Y150703D01*
X292998Y153065D01*
X293175Y153330D01*
X293237Y153642D01*
X293237Y153642D01*
Y165326D01*
X293175Y165638D01*
X293111Y165734D01*
X293175Y165830D01*
X293237Y166142D01*
Y177461D01*
X293237Y177461D01*
X293175Y177773D01*
X292998Y178037D01*
X292998Y178037D01*
X290439Y180596D01*
X290174Y180773D01*
X289862Y180835D01*
X289862Y180835D01*
X274803Y180835D01*
X274803Y180835D01*
X274491Y180773D01*
X274226Y180596D01*
X274226Y180596D01*
X272558Y178928D01*
X272098Y179175D01*
X272129Y179334D01*
X271999Y179992D01*
X271626Y180550D01*
X271068Y180922D01*
X270410Y181053D01*
X269753Y180922D01*
X269195Y180550D01*
X268823Y179992D01*
X268692Y179334D01*
X268787Y178857D01*
Y177054D01*
X270031D01*
X270222Y176592D01*
X268658Y175028D01*
X265884D01*
X265813Y175014D01*
X265699Y175037D01*
X260679D01*
X260247Y174951D01*
X260146Y174973D01*
X259747Y175243D01*
X259744Y177362D01*
Y197622D01*
X288976D01*
X289673D01*
X291039Y197351D01*
D02*
G37*
G36*
X107874Y197622D02*
X258928Y197622D01*
Y177362D01*
X258928Y177362D01*
X258928Y177361D01*
X258931Y175242D01*
X258946Y175166D01*
X258946Y175088D01*
X258977Y175011D01*
X258994Y174930D01*
X259037Y174865D01*
X259066Y174793D01*
X259124Y174734D01*
X259171Y174665D01*
X259184Y174656D01*
X259508Y174255D01*
X259487Y174148D01*
X259483Y174141D01*
X259461Y174033D01*
X259426Y173927D01*
X259430Y173878D01*
X259421Y173829D01*
Y173813D01*
X259412Y173770D01*
Y172884D01*
X259421Y172840D01*
Y171254D01*
X259412Y171211D01*
Y170325D01*
X259421Y170281D01*
Y170266D01*
X259430Y170217D01*
X259426Y170167D01*
X259461Y170062D01*
X259483Y169953D01*
X259487Y169947D01*
X259508Y169840D01*
X259783Y169429D01*
X260194Y169154D01*
X260679Y169058D01*
X265699D01*
X265813Y169080D01*
X265884Y169066D01*
X266001D01*
X268435Y166632D01*
X268244Y166170D01*
X267323D01*
X267011Y166108D01*
X266746Y165931D01*
X266746Y165931D01*
X266337Y165522D01*
X266293Y165456D01*
X266236Y165399D01*
X266205Y165325D01*
X266161Y165258D01*
X266145Y165179D01*
X266114Y165105D01*
X265699Y164801D01*
X260679D01*
X260194Y164704D01*
X259783Y164429D01*
X259508Y164018D01*
X259487Y163911D01*
X259483Y163905D01*
X259461Y163796D01*
X259426Y163691D01*
X259430Y163641D01*
X259421Y163593D01*
Y163577D01*
X259412Y163533D01*
Y162648D01*
X259421Y162604D01*
Y161018D01*
X259412Y160974D01*
Y160089D01*
X259421Y160045D01*
Y160029D01*
X259430Y159980D01*
X259426Y159931D01*
X259461Y159826D01*
X259483Y159717D01*
X259490Y159697D01*
X259508Y159604D01*
X259539Y159558D01*
X259570Y159470D01*
X259282Y159257D01*
X259241Y159211D01*
X259190Y159177D01*
X259135Y159095D01*
X259068Y159021D01*
X259048Y158963D01*
X259014Y158913D01*
X258994Y158815D01*
X258961Y158721D01*
X258964Y158660D01*
X258952Y158600D01*
X258953Y157343D01*
X258965Y157286D01*
X258962Y157228D01*
X258996Y157131D01*
X259016Y157031D01*
X259049Y156983D01*
X259068Y156927D01*
X259136Y156852D01*
X259193Y156767D01*
X259201Y156762D01*
X259527Y156370D01*
X259508Y156341D01*
X259412Y155856D01*
Y154970D01*
X259508Y154485D01*
X259743Y154134D01*
X259508Y153782D01*
X259412Y153297D01*
Y152411D01*
X259508Y151926D01*
X259743Y151575D01*
X259508Y151223D01*
X259412Y150738D01*
Y149852D01*
X259508Y149367D01*
X259783Y148956D01*
X260194Y148681D01*
X260679Y148585D01*
X265699D01*
X265952Y148635D01*
X266020Y148580D01*
X266054Y148498D01*
X266073Y148411D01*
X266094Y148380D01*
X266150Y148099D01*
Y147374D01*
X266101Y147127D01*
X266007Y146985D01*
X265865Y146891D01*
X265618Y146842D01*
X260759D01*
X260442Y146905D01*
X260325D01*
X260208Y146917D01*
X260167Y146905D01*
X260124D01*
X260016Y146860D01*
X259903Y146826D01*
X259573Y146652D01*
X259514Y146604D01*
X259446Y146569D01*
X259275Y146433D01*
X259245Y146397D01*
X259206Y146371D01*
X259143Y146277D01*
X259070Y146190D01*
X259056Y146146D01*
X259030Y146107D01*
X259008Y145995D01*
X258973Y145887D01*
X258977Y145840D01*
X258968Y145794D01*
X258991Y127164D01*
X259023Y127008D01*
X259053Y126853D01*
X259054Y126853D01*
X259054Y126852D01*
X259143Y126718D01*
X259230Y126589D01*
X259231Y126588D01*
X259231Y126588D01*
X259362Y126501D01*
X259495Y126412D01*
X259495Y126412D01*
X259496Y126411D01*
X259651Y126381D01*
X259807Y126350D01*
X296048D01*
Y107874D01*
X296048Y107177D01*
X295776Y105811D01*
X295243Y104525D01*
X294469Y103366D01*
X293484Y102381D01*
X292326Y101608D01*
X291039Y101075D01*
X289673Y100803D01*
X107177D01*
X105811Y101075D01*
X104525Y101608D01*
X103366Y102381D01*
X102381Y103366D01*
X101608Y104525D01*
X101075Y105811D01*
X100803Y107177D01*
Y107874D01*
Y190551D01*
Y191248D01*
X101075Y192614D01*
X101608Y193901D01*
X102381Y195059D01*
X103366Y196044D01*
X104525Y196818D01*
X105811Y197351D01*
X107177Y197622D01*
X107874Y197622D01*
D02*
G37*
%LPC*%
G36*
X163287Y195813D02*
X162630Y195683D01*
X162072Y195310D01*
X161966Y195151D01*
X149409D01*
X149005Y195071D01*
X148662Y194842D01*
X145316Y191495D01*
X145087Y191152D01*
X145048Y190957D01*
X142901D01*
Y183846D01*
X148845D01*
Y179045D01*
X148588Y178873D01*
X148215Y178315D01*
X148084Y177657D01*
X148215Y177000D01*
X148588Y176442D01*
X149145Y176069D01*
X149803Y175939D01*
X150461Y176069D01*
X151019Y176442D01*
X151391Y177000D01*
X151522Y177657D01*
X151391Y178315D01*
X151019Y178873D01*
X150958Y178913D01*
Y181158D01*
X151458Y181425D01*
X151652Y181295D01*
X152310Y181164D01*
X152968Y181295D01*
X153526Y181667D01*
X153692Y181916D01*
X161966D01*
X162072Y181757D01*
X162630Y181384D01*
X163287Y181254D01*
X163945Y181384D01*
X164503Y181757D01*
X164875Y182315D01*
X165006Y182972D01*
X164875Y183630D01*
X164503Y184188D01*
X163945Y184560D01*
X163287Y184691D01*
X162630Y184560D01*
X162072Y184188D01*
X161966Y184029D01*
X156312D01*
Y190957D01*
X149987D01*
Y185786D01*
X149704Y185572D01*
X149225Y185788D01*
Y190957D01*
X148420D01*
X148229Y191419D01*
X149847Y193038D01*
X161966D01*
X162072Y192879D01*
X162630Y192507D01*
X163287Y192376D01*
X163945Y192507D01*
X164503Y192879D01*
X164875Y193437D01*
X165006Y194095D01*
X164875Y194752D01*
X164503Y195310D01*
X163945Y195683D01*
X163287Y195813D01*
D02*
G37*
G36*
X226772Y188235D02*
X226114Y188104D01*
X225556Y187731D01*
X225184Y187173D01*
X225053Y186516D01*
X225184Y185858D01*
X225524Y185348D01*
X225549Y185241D01*
X225517Y184982D01*
X225038Y184645D01*
X224803Y184691D01*
X224145Y184560D01*
X223588Y184188D01*
X223215Y183630D01*
X223084Y182972D01*
X223215Y182315D01*
X223588Y181757D01*
X223897Y181550D01*
Y175331D01*
X223397Y174973D01*
X223031Y175046D01*
X222374Y174915D01*
X221816Y174542D01*
X221444Y173985D01*
X221313Y173327D01*
X221444Y172669D01*
X221714Y172264D01*
Y158223D01*
X211655Y148164D01*
X210827Y148273D01*
X208858D01*
X207879Y148144D01*
X206966Y147766D01*
X206182Y147165D01*
X205580Y146381D01*
X205202Y145468D01*
X205073Y144488D01*
X205202Y143509D01*
X205580Y142596D01*
X206182Y141812D01*
X206966Y141210D01*
X207879Y140832D01*
X208858Y140703D01*
X210827D01*
X211806Y140832D01*
X212719Y141210D01*
X213503Y141812D01*
X214105Y142596D01*
X214483Y143509D01*
X214612Y144488D01*
X214483Y145468D01*
X214105Y146381D01*
X213885Y146667D01*
X223963Y156746D01*
X224249Y157173D01*
X224349Y157677D01*
Y161594D01*
X224811Y161785D01*
X234391Y152206D01*
X234734Y151977D01*
X235138Y151896D01*
X235396D01*
X235477Y151792D01*
X235618Y151396D01*
X235321Y150953D01*
X235191Y150295D01*
X235321Y149637D01*
X235513Y149351D01*
X235481Y149154D01*
X235418Y149014D01*
X235259Y148831D01*
X233846D01*
Y146247D01*
X236430D01*
Y146273D01*
X236930Y146425D01*
X236948Y146397D01*
X237359Y146123D01*
X237844Y146026D01*
X242864D01*
X243349Y146123D01*
X243760Y146397D01*
X244035Y146808D01*
X244131Y147293D01*
Y148179D01*
X244035Y148664D01*
X243800Y149016D01*
X244035Y149367D01*
X244131Y149852D01*
Y150738D01*
X244035Y151223D01*
X243800Y151575D01*
X244035Y151926D01*
X244131Y152411D01*
Y153297D01*
X244035Y153782D01*
X243800Y154134D01*
X244035Y154485D01*
X244131Y154970D01*
Y155856D01*
X244035Y156341D01*
X243800Y156693D01*
X244035Y157044D01*
X244131Y157529D01*
Y158415D01*
X244035Y158900D01*
X243800Y159252D01*
X244035Y159604D01*
X244131Y160089D01*
Y160974D01*
X244035Y161459D01*
X243800Y161811D01*
X244035Y162163D01*
X244131Y162648D01*
Y163533D01*
X244035Y164018D01*
X243800Y164370D01*
X244035Y164722D01*
X244131Y165207D01*
Y166093D01*
X244035Y166577D01*
X243800Y166929D01*
X244035Y167281D01*
X244131Y167766D01*
Y168652D01*
X244035Y169137D01*
X243800Y169488D01*
X244035Y169840D01*
X244131Y170325D01*
Y171211D01*
X244035Y171696D01*
X243800Y172047D01*
X244035Y172399D01*
X244131Y172884D01*
Y173770D01*
X244035Y174255D01*
X243800Y174606D01*
X244035Y174958D01*
X244131Y175443D01*
Y176329D01*
X244035Y176814D01*
X243760Y177225D01*
X243349Y177499D01*
X242864Y177596D01*
X241867D01*
Y179121D01*
X243516D01*
Y186233D01*
X237192D01*
Y179121D01*
X239433D01*
Y177596D01*
X237844D01*
X237359Y177499D01*
X236948Y177225D01*
X236733Y176902D01*
X235531D01*
X235142Y176825D01*
X234813Y176604D01*
X234095Y175887D01*
X233595Y176094D01*
Y179656D01*
X233794Y179788D01*
X234167Y180346D01*
X234298Y181004D01*
X234167Y181662D01*
X233794Y182219D01*
X233237Y182592D01*
X232579Y182723D01*
X231921Y182592D01*
X231363Y182219D01*
X230991Y181662D01*
X230860Y181004D01*
X230991Y180346D01*
X231363Y179788D01*
X231562Y179656D01*
Y163200D01*
X231062Y162993D01*
X229855Y164200D01*
Y176604D01*
X230054Y176737D01*
X230427Y177295D01*
X230557Y177953D01*
X230427Y178611D01*
X230054Y179168D01*
X229496Y179541D01*
X228839Y179672D01*
X228288Y179562D01*
X227788Y179834D01*
Y185167D01*
X227987Y185300D01*
X228360Y185858D01*
X228490Y186516D01*
X228360Y187173D01*
X227987Y187731D01*
X227429Y188104D01*
X226772Y188235D01*
D02*
G37*
G36*
X141484Y170268D02*
X140827Y170137D01*
X140269Y169764D01*
X139897Y169207D01*
X139766Y168549D01*
X139897Y167891D01*
X140269Y167333D01*
X140827Y166961D01*
X141484Y166830D01*
X142142Y166961D01*
X142700Y167333D01*
X142882Y167605D01*
X145288D01*
Y170190D01*
X142704D01*
Y170190D01*
X142204Y170096D01*
X142142Y170137D01*
X141484Y170268D01*
D02*
G37*
G36*
X214580Y178044D02*
X205105D01*
Y171874D01*
X205101Y171851D01*
X200237Y166987D01*
X200008Y166645D01*
X199928Y166240D01*
Y164285D01*
X199525Y164139D01*
X199428Y164120D01*
X198886Y164482D01*
X198228Y164613D01*
X197571Y164482D01*
X197013Y164109D01*
X196907Y163950D01*
X195388D01*
X194983Y164450D01*
X194997Y164521D01*
Y168904D01*
X194904Y169368D01*
X194642Y169760D01*
X194249Y170022D01*
X193786Y170115D01*
X181804D01*
X181341Y170022D01*
X180948Y169760D01*
X180686Y169368D01*
X180594Y168904D01*
Y164521D01*
X180608Y164450D01*
X180202Y163950D01*
X173817D01*
X173625Y164412D01*
X177915Y168702D01*
X178150Y168655D01*
X178807Y168786D01*
X179365Y169159D01*
X179738Y169716D01*
X179868Y170374D01*
X179738Y171032D01*
X179365Y171589D01*
X178807Y171962D01*
X178150Y172093D01*
X177492Y171962D01*
X176934Y171589D01*
X176562Y171032D01*
X176431Y170374D01*
X176478Y170139D01*
X157355Y151016D01*
X142687D01*
X142554Y151215D01*
X141996Y151588D01*
X141339Y151719D01*
X140681Y151588D01*
X140123Y151215D01*
X139751Y150658D01*
X139620Y150000D01*
X139751Y149342D01*
X140123Y148785D01*
X140681Y148412D01*
X141339Y148281D01*
X141996Y148412D01*
X142554Y148785D01*
X142687Y148984D01*
X156876D01*
X157067Y148522D01*
X154718Y146173D01*
X154168Y146196D01*
X153611Y146568D01*
X152953Y146699D01*
X152295Y146568D01*
X151737Y146196D01*
X151365Y145638D01*
X151234Y144980D01*
X151365Y144323D01*
X151737Y143765D01*
X152295Y143392D01*
X152953Y143262D01*
X153611Y143392D01*
X154168Y143765D01*
X154274Y143924D01*
X155020D01*
X155424Y144004D01*
X155767Y144233D01*
X173371Y161837D01*
X196907D01*
X197013Y161678D01*
X197571Y161306D01*
X198228Y161175D01*
X198886Y161306D01*
X199428Y161668D01*
X199525Y161649D01*
X199928Y161503D01*
Y160675D01*
X199564Y160481D01*
X199428Y160456D01*
X198819Y160577D01*
X198441Y160502D01*
X198130Y160564D01*
X175561D01*
X175428Y160763D01*
X174870Y161135D01*
X174213Y161266D01*
X173555Y161135D01*
X172997Y160763D01*
X172625Y160205D01*
X172494Y159547D01*
X172625Y158889D01*
X172997Y158332D01*
X173555Y157959D01*
X174213Y157828D01*
X174870Y157959D01*
X175428Y158332D01*
X175561Y158531D01*
X197165D01*
X197231Y158201D01*
X197603Y157643D01*
X198161Y157270D01*
X198819Y157139D01*
X199428Y157261D01*
X199564Y157236D01*
X199928Y157041D01*
Y154253D01*
X199907Y154226D01*
X199424Y154267D01*
X199387Y154280D01*
X199324Y154595D01*
X198952Y155152D01*
X198394Y155525D01*
X197736Y155656D01*
X197078Y155525D01*
X196521Y155152D01*
X196415Y154993D01*
X184153D01*
X183749Y154913D01*
X183406Y154684D01*
X170611Y141889D01*
X170382Y141546D01*
X170302Y141142D01*
Y139511D01*
X170143Y139404D01*
X169819Y138919D01*
X169516Y138934D01*
X169319Y139002D01*
Y146586D01*
X169489Y146840D01*
X169620Y147498D01*
X169489Y148156D01*
X169116Y148713D01*
X168559Y149086D01*
X167901Y149217D01*
X167243Y149086D01*
X166685Y148713D01*
X166313Y148156D01*
X166310Y148143D01*
X163865D01*
Y145558D01*
X166450D01*
X166483Y145072D01*
Y133477D01*
X164554D01*
Y128308D01*
X164076Y128092D01*
X163792Y128306D01*
Y133477D01*
X160154D01*
X159877Y133893D01*
X159319Y134265D01*
X158661Y134396D01*
X158004Y134265D01*
X157446Y133893D01*
X157073Y133335D01*
X156943Y132677D01*
X157073Y132019D01*
X157446Y131462D01*
X157468Y131447D01*
Y126365D01*
X161931D01*
X162194Y126189D01*
X162598Y126109D01*
X162890Y126167D01*
X163675Y125382D01*
X164018Y125153D01*
X164422Y125073D01*
X194830D01*
X195234Y125153D01*
X195577Y125382D01*
X201731Y131536D01*
X201960Y131879D01*
X202041Y132283D01*
Y165803D01*
X206889Y170651D01*
X207077Y170932D01*
X214580D01*
Y178044D01*
D02*
G37*
G36*
X114237Y188080D02*
X104763D01*
Y178605D01*
X108189D01*
X108263Y178115D01*
X107111Y177638D01*
X106122Y176878D01*
X105362Y175889D01*
X104885Y174737D01*
X104722Y173500D01*
X104885Y172263D01*
X105362Y171111D01*
X106122Y170122D01*
X107111Y169362D01*
X108263Y168885D01*
X109500Y168722D01*
X110737Y168885D01*
X111889Y169362D01*
X112879Y170122D01*
X113638Y171111D01*
X114115Y172263D01*
X114278Y173500D01*
X114115Y174737D01*
X113638Y175889D01*
X112879Y176878D01*
X111889Y177638D01*
X110737Y178115D01*
X110811Y178605D01*
X114237D01*
Y182595D01*
X134007D01*
X151707Y164895D01*
X152052Y164664D01*
X152461Y164583D01*
X166008D01*
X166107Y164434D01*
X166665Y164062D01*
X167323Y163931D01*
X167981Y164062D01*
X168538Y164434D01*
X168911Y164992D01*
X169042Y165650D01*
X168911Y166307D01*
X168538Y166865D01*
X167981Y167238D01*
X167323Y167368D01*
X166665Y167238D01*
X166107Y166865D01*
X166008Y166716D01*
X152902D01*
X135203Y184416D01*
X134857Y184647D01*
X134449Y184728D01*
X114237D01*
Y188080D01*
D02*
G37*
G36*
X211221Y167876D02*
X208465D01*
X207588Y167761D01*
X206770Y167422D01*
X206069Y166884D01*
X205530Y166182D01*
X205192Y165365D01*
X205077Y164488D01*
X205192Y163611D01*
X205530Y162794D01*
X206069Y162092D01*
X206770Y161554D01*
X207588Y161216D01*
X208465Y161100D01*
X211221D01*
X212097Y161216D01*
X212914Y161554D01*
X213616Y162092D01*
X214155Y162794D01*
X214493Y163611D01*
X214609Y164488D01*
X214493Y165365D01*
X214155Y166182D01*
X213616Y166884D01*
X212914Y167422D01*
X212097Y167761D01*
X211221Y167876D01*
D02*
G37*
G36*
X133477Y163005D02*
X126365D01*
Y156680D01*
X131535D01*
X131751Y156202D01*
X131537Y155918D01*
X126365D01*
Y149594D01*
X133477D01*
Y154780D01*
X133487Y154827D01*
X133902Y155243D01*
X140804D01*
X140911Y155084D01*
X141468Y154711D01*
X142126Y154580D01*
X142784Y154711D01*
X143341Y155084D01*
X143448Y155243D01*
X144095D01*
X144499Y155323D01*
X144842Y155552D01*
X144985Y155696D01*
X146174D01*
Y158280D01*
X143590D01*
Y157950D01*
X143090Y157683D01*
X142784Y157887D01*
X142126Y158018D01*
X141468Y157887D01*
X140911Y157515D01*
X140804Y157356D01*
X134084D01*
X134076Y157381D01*
X134118Y157497D01*
X134426Y157891D01*
X134910Y157987D01*
X135467Y158359D01*
X135840Y158917D01*
X135971Y159575D01*
X135840Y160233D01*
X135467Y160790D01*
X134910Y161163D01*
X134252Y161294D01*
X133977Y161239D01*
X133477Y161640D01*
Y163005D01*
D02*
G37*
G36*
X210827Y158273D02*
X208858D01*
X207879Y158144D01*
X206966Y157766D01*
X206182Y157165D01*
X205580Y156381D01*
X205202Y155468D01*
X205073Y154488D01*
X205202Y153508D01*
X205580Y152596D01*
X206182Y151812D01*
X206966Y151210D01*
X207879Y150832D01*
X208858Y150703D01*
X210827D01*
X211806Y150832D01*
X212719Y151210D01*
X213503Y151812D01*
X214105Y152596D01*
X214483Y153508D01*
X214612Y154488D01*
X214483Y155468D01*
X214105Y156381D01*
X213503Y157165D01*
X212719Y157766D01*
X211806Y158144D01*
X210827Y158273D01*
D02*
G37*
G36*
X114186Y150800D02*
X104712D01*
Y141326D01*
X114186D01*
Y145007D01*
X141098D01*
X148122Y137983D01*
X148084Y137795D01*
X148215Y137137D01*
X148588Y136580D01*
X149145Y136207D01*
X149803Y136076D01*
X150461Y136207D01*
X151019Y136580D01*
X151391Y137137D01*
X151522Y137795D01*
X151391Y138453D01*
X151019Y139011D01*
X150461Y139383D01*
X149803Y139514D01*
X149616Y139477D01*
X142282Y146810D01*
X141940Y147039D01*
X141535Y147119D01*
X114186D01*
Y150800D01*
D02*
G37*
G36*
X181902Y123241D02*
X175578D01*
Y121632D01*
X175058Y121528D01*
X174272Y121003D01*
X173747Y120218D01*
X173563Y119291D01*
X173747Y118365D01*
X174272Y117579D01*
X175058Y117054D01*
X175578Y116951D01*
Y116129D01*
X181902D01*
Y123241D01*
D02*
G37*
G36*
X188989D02*
X182665D01*
Y116129D01*
X184189D01*
X184239Y115878D01*
X184611Y115320D01*
X185169Y114947D01*
X185827Y114817D01*
X186485Y114947D01*
X187042Y115320D01*
X187415Y115878D01*
X187465Y116129D01*
X188989D01*
Y123241D01*
D02*
G37*
G36*
X170079Y117861D02*
X169421Y117730D01*
X168863Y117357D01*
X168491Y116799D01*
X168360Y116142D01*
X168491Y115484D01*
X168863Y114926D01*
X169022Y114820D01*
Y113792D01*
X164161D01*
Y106680D01*
X170485D01*
Y111966D01*
X170549Y112009D01*
X170826Y112286D01*
X171055Y112628D01*
X171135Y113033D01*
Y114820D01*
X171294Y114926D01*
X171667Y115484D01*
X171798Y116142D01*
X171667Y116799D01*
X171294Y117357D01*
X170737Y117730D01*
X170079Y117861D01*
D02*
G37*
%LPD*%
G36*
X199928Y153621D02*
Y132721D01*
X194392Y127186D01*
X191633D01*
X191576Y127684D01*
X192362Y128209D01*
X192887Y128995D01*
X193071Y129921D01*
X192887Y130848D01*
X192362Y131633D01*
X191576Y132158D01*
X190650Y132343D01*
X189723Y132158D01*
X189472Y131990D01*
X181735Y139727D01*
X181431Y139930D01*
Y142678D01*
X181348Y143097D01*
X181282Y143195D01*
X181509Y143535D01*
X181640Y144193D01*
X181509Y144851D01*
X181137Y145408D01*
X180579Y145781D01*
X179921Y145912D01*
X179263Y145781D01*
X178706Y145408D01*
X178333Y144851D01*
X178202Y144193D01*
X177816Y143774D01*
X177223D01*
X176804Y143690D01*
X176449Y143453D01*
X176211Y143097D01*
X176128Y142678D01*
Y138070D01*
X176211Y137651D01*
X176449Y137295D01*
X176804Y137058D01*
X177223Y136974D01*
X179772D01*
X179823Y136964D01*
X179920D01*
X187911Y128974D01*
X188436Y128623D01*
X188696Y128571D01*
X188937Y128209D01*
X189723Y127684D01*
X189667Y127186D01*
X171552D01*
X171400Y127686D01*
X171889Y128012D01*
X172414Y128798D01*
X172599Y129724D01*
X172414Y130651D01*
X171889Y131437D01*
X171104Y131961D01*
X170879Y132006D01*
Y133477D01*
X169319D01*
Y137376D01*
X169516Y137444D01*
X169819Y137459D01*
X170143Y136974D01*
X170701Y136601D01*
X171358Y136470D01*
X172016Y136601D01*
X172574Y136974D01*
X172946Y137531D01*
X173077Y138189D01*
X172946Y138847D01*
X172574Y139404D01*
X172415Y139511D01*
Y140704D01*
X184591Y152881D01*
X196415D01*
X196521Y152722D01*
X197078Y152349D01*
X197736Y152218D01*
X198394Y152349D01*
X198952Y152722D01*
X199324Y153279D01*
X199387Y153594D01*
X199424Y153607D01*
X199907Y153648D01*
X199928Y153621D01*
D02*
G37*
%LPC*%
G36*
X186681Y145256D02*
X186023Y145125D01*
X185466Y144753D01*
X185093Y144195D01*
X184962Y143537D01*
X185093Y142880D01*
X185163Y142775D01*
X185143Y142678D01*
Y138070D01*
X185227Y137651D01*
X185350Y137466D01*
X185449Y136968D01*
X185822Y136410D01*
X186379Y136038D01*
X187037Y135907D01*
X187695Y136038D01*
X188253Y136410D01*
X188625Y136968D01*
X188626Y136974D01*
X189351D01*
X189771Y137058D01*
X190126Y137295D01*
X190364Y137651D01*
X190447Y138070D01*
Y142678D01*
X190364Y143097D01*
X190126Y143453D01*
X189771Y143690D01*
X189351Y143774D01*
X188353D01*
X188269Y144195D01*
X187897Y144753D01*
X187339Y145125D01*
X186681Y145256D01*
D02*
G37*
%LPD*%
D12*
X209842Y144488D02*
X223031Y157677D01*
Y173327D01*
D14*
X235316Y170787D02*
X237121D01*
X234547Y171555D02*
Y174902D01*
Y171555D02*
X235316Y170787D01*
X235531Y175886D02*
X240354D01*
X234547Y174902D02*
X235531Y175886D01*
X237106Y173327D02*
X240354D01*
X174213Y159547D02*
X198130D01*
X198819Y158858D01*
X157776Y150000D02*
X178150Y170374D01*
X141339Y150000D02*
X157776D01*
X240354Y150295D02*
X240650Y150000D01*
X236910Y150295D02*
X240354D01*
X236910Y150295D02*
X236910Y150295D01*
X234744Y157874D02*
X240551D01*
X228839Y163779D02*
X234744Y157874D01*
X228839Y163779D02*
Y177953D01*
X240354Y155413D02*
X240551D01*
X226772Y163976D02*
X235335Y155413D01*
X240551D01*
X240551Y155413D02*
X240551Y155413D01*
X226772Y163976D02*
Y186516D01*
X232579Y162992D02*
X235138Y160433D01*
X232579Y162992D02*
Y181004D01*
X235138Y160433D02*
X240453D01*
X240453Y157972D02*
X240551Y157874D01*
X240354Y157972D02*
X240453D01*
X240354Y160531D02*
X240453Y160433D01*
X240354Y160531D02*
X240354D01*
X237106Y162992D02*
X239961D01*
X240059Y162894D02*
X240256Y163091D01*
X240354D01*
X239961Y162992D02*
X240059Y162894D01*
X237205Y165650D02*
X237205Y165650D01*
X240354D01*
X240551Y168209D02*
X240551Y168209D01*
X240354Y168209D02*
X240551D01*
X237106Y168209D02*
X237106Y168209D01*
X240354D01*
X237140Y170768D02*
X240354D01*
X237121Y170787D02*
X237140Y170768D01*
X240158Y147835D02*
X240256Y147736D01*
X235138Y147539D02*
X235433Y147835D01*
X240256Y147736D02*
X240354D01*
X235433Y147835D02*
X240158D01*
D15*
X270079Y178347D02*
X270177Y178445D01*
Y178835D01*
X270308Y178966D01*
Y179232D01*
X270410Y179334D01*
X240354Y182382D02*
Y182677D01*
X187037Y137626D02*
X187106Y137695D01*
Y139685D01*
X187795Y140374D01*
X186681Y141488D02*
X187795Y140374D01*
X186681Y141488D02*
Y143537D01*
X240650Y176181D02*
Y182087D01*
X240354Y175886D02*
X240650Y176181D01*
X240354Y182382D02*
X240650Y182087D01*
D36*
X179113Y143385D02*
X179921Y144193D01*
X178779Y140374D02*
Y140394D01*
X179113Y140727D02*
Y143385D01*
X178779Y140394D02*
X179113Y140727D01*
X171358Y141142D02*
X184153Y153937D01*
X197736D01*
X209449Y174705D02*
X209665Y174488D01*
X209842D01*
X206142Y171398D02*
Y171772D01*
X209075Y174705D02*
X209449D01*
X200984Y132283D02*
Y166240D01*
X162598Y127165D02*
Y127559D01*
X206142Y171772D02*
X209075Y174705D01*
X200984Y166240D02*
X206142Y171398D01*
X194830Y126129D02*
X200984Y132283D01*
X171358Y138189D02*
Y141142D01*
X155020Y144980D02*
X172933Y162894D01*
X198228D01*
X152953Y144980D02*
X155020D01*
X167717Y129921D02*
Y130020D01*
X167815Y130118D01*
X152310Y182883D02*
X152400Y182972D01*
X163287D01*
X149902Y177854D02*
Y184153D01*
X150630Y184882D01*
X153150Y187008D02*
Y187402D01*
X151024Y184882D02*
X153150Y187008D01*
X150630Y184882D02*
X151024D01*
X149803Y177657D02*
Y177756D01*
X149902Y177854D01*
X129921Y152756D02*
X130315D01*
X132441Y154882D01*
Y155276D01*
X133465Y156299D01*
X142126D01*
X224954Y163137D02*
X235138Y152953D01*
X224803Y182972D02*
X224954Y182822D01*
Y163137D02*
Y182822D01*
X235138Y152953D02*
X240453D01*
X240354Y152854D02*
Y152854D01*
X240453Y152953D01*
X149409Y194095D02*
X163287D01*
X146063Y190748D02*
X149409Y194095D01*
X146063Y187402D02*
Y190748D01*
X263189Y150295D02*
X268110D01*
X268307Y150492D01*
X263189Y152854D02*
X267717D01*
X268307Y152264D01*
X265551Y178248D02*
X268209D01*
X263189Y175886D02*
X263873D01*
X264507Y176520D01*
Y177204D01*
X265551Y178248D01*
X268307Y178347D02*
Y178347D01*
X268209Y178248D02*
X268307Y178347D01*
X263189Y155413D02*
X267913D01*
X268307Y155807D01*
X284446Y158074D02*
Y158292D01*
Y158074D02*
X284449Y158071D01*
X164422Y126129D02*
X194830D01*
X162598Y127559D02*
X162756Y127402D01*
X160630Y129528D02*
X162598Y127559D01*
X160630Y129528D02*
Y129921D01*
X162756Y127402D02*
X163150D01*
X164422Y126129D01*
X167549Y147498D02*
X167901D01*
X166902Y146850D02*
X167549Y147498D01*
X165157Y146850D02*
X166902D01*
X141484Y168549D02*
X141670Y168734D01*
X143833D01*
X143996Y168898D01*
X141535Y146063D02*
X149803Y137795D01*
X109449Y146063D02*
X141535D01*
X158661Y131890D02*
X160630Y129921D01*
X158661Y131890D02*
Y132677D01*
X185827Y116535D02*
Y119685D01*
X167323Y110236D02*
Y110630D01*
X169449Y112756D01*
X169802D01*
X170079Y113033D01*
Y116142D01*
X167323Y110236D02*
X167323Y110236D01*
X185827Y119685D02*
X186221Y119291D01*
X144626Y156732D02*
X144882Y156988D01*
X144528Y156732D02*
X144626D01*
X144095Y156299D02*
X144528Y156732D01*
X142126Y156299D02*
X144095D01*
X144882Y156988D02*
Y157087D01*
X129921Y159843D02*
X130315Y159449D01*
X134126D01*
X134252Y159575D01*
D40*
X235138Y147539D02*
D03*
X233366D02*
D03*
X270079Y178347D02*
D03*
X268307D02*
D03*
X163386Y146850D02*
D03*
X165157D02*
D03*
X145768Y168898D02*
D03*
X143996D02*
D03*
D41*
X178740Y119685D02*
D03*
X185827D02*
D03*
X167717Y129921D02*
D03*
X160630D02*
D03*
X153150Y187402D02*
D03*
X146063D02*
D03*
X160236Y110236D02*
D03*
X167323D02*
D03*
X247441Y182677D02*
D03*
X240354D02*
D03*
D47*
X178779Y139626D02*
Y140374D01*
X189055Y130118D02*
X190453D01*
X190650Y129921D01*
X178779Y139626D02*
X179823Y138583D01*
X180591D01*
X189055Y130118D01*
D48*
X178347Y119291D02*
X178740Y119685D01*
X167717Y129921D02*
X169980D01*
X170177Y129724D01*
X175984Y119291D02*
X178347D01*
X178740Y119685D02*
Y119685D01*
X178839Y119783D01*
X167815Y130118D02*
X167901Y130204D01*
Y147498D01*
D49*
X152461Y165650D02*
X167323D01*
X109449Y183661D02*
X134449D01*
X152461Y165650D01*
D50*
X109449Y146063D02*
D03*
X109500Y183343D02*
D03*
D51*
X109449Y136221D02*
D03*
X109500Y173500D02*
D03*
Y163657D02*
D03*
D52*
X284446Y158292D02*
D03*
X284646Y172992D02*
D03*
X284747Y134228D02*
D03*
X284547Y119528D02*
D03*
D53*
X209842Y174488D02*
D03*
D54*
Y164488D02*
D03*
D55*
Y154488D02*
D03*
Y144488D02*
D03*
Y134488D02*
D03*
D56*
X294095Y187795D02*
D03*
Y180709D02*
D03*
Y152362D02*
D03*
Y145276D02*
D03*
Y138189D02*
D03*
Y131103D02*
D03*
X290551Y194882D02*
D03*
X292323Y191339D02*
D03*
X290551Y187795D02*
D03*
X292323Y184252D02*
D03*
Y148819D02*
D03*
X290551Y145276D02*
D03*
X292323Y141732D02*
D03*
X287008Y194882D02*
D03*
X288780Y191339D02*
D03*
X287008Y187795D02*
D03*
X288780Y184252D02*
D03*
Y148819D02*
D03*
X287008Y145276D02*
D03*
X288780Y141732D02*
D03*
X283465Y194882D02*
D03*
X285237Y191339D02*
D03*
X283465Y187795D02*
D03*
X285237Y184252D02*
D03*
Y148819D02*
D03*
X283465Y145276D02*
D03*
X279922Y194882D02*
D03*
X281693Y191339D02*
D03*
X279922Y187795D02*
D03*
X281693Y184252D02*
D03*
Y148819D02*
D03*
X279922Y145276D02*
D03*
X281693Y141732D02*
D03*
X276378Y194882D02*
D03*
X278150Y191339D02*
D03*
X276378Y187795D02*
D03*
X278150Y184252D02*
D03*
Y148819D02*
D03*
X276378Y145276D02*
D03*
X278150Y141732D02*
D03*
X276378Y138189D02*
D03*
Y131103D02*
D03*
X272835Y194882D02*
D03*
X274606Y191339D02*
D03*
X272835Y187795D02*
D03*
X274606Y184252D02*
D03*
X272835Y152362D02*
D03*
X274606Y148819D02*
D03*
X272835Y145276D02*
D03*
X274606Y141732D02*
D03*
X272835Y138189D02*
D03*
X274606Y134646D02*
D03*
X272835Y131103D02*
D03*
X269292Y194882D02*
D03*
X271063Y191339D02*
D03*
X269292Y187795D02*
D03*
X271063Y184252D02*
D03*
Y155906D02*
D03*
Y148819D02*
D03*
X269292Y145276D02*
D03*
X271063Y141732D02*
D03*
X269292Y138189D02*
D03*
X271063Y134646D02*
D03*
X269292Y131103D02*
D03*
X265748Y194882D02*
D03*
X267520Y191339D02*
D03*
X265748Y187795D02*
D03*
X267520Y184252D02*
D03*
Y141732D02*
D03*
X265748Y138189D02*
D03*
X267520Y134646D02*
D03*
X265748Y131103D02*
D03*
X262205Y194882D02*
D03*
X263977Y191339D02*
D03*
X262205Y187795D02*
D03*
X263977Y184252D02*
D03*
Y141732D02*
D03*
X262205Y138189D02*
D03*
X263977Y134646D02*
D03*
X262205Y131103D02*
D03*
X294095Y124016D02*
D03*
Y116929D02*
D03*
Y109843D02*
D03*
X292323Y113386D02*
D03*
X290551Y109843D02*
D03*
X292323Y106299D02*
D03*
X290551Y102756D02*
D03*
X287008Y109843D02*
D03*
X288780Y106299D02*
D03*
X287008Y102756D02*
D03*
X283465Y109843D02*
D03*
X285237Y106299D02*
D03*
X283465Y102756D02*
D03*
X279922Y109843D02*
D03*
X281693Y106299D02*
D03*
X279922Y102756D02*
D03*
X276378Y124016D02*
D03*
Y116929D02*
D03*
X278150Y113386D02*
D03*
X276378Y109843D02*
D03*
X278150Y106299D02*
D03*
X276378Y102756D02*
D03*
X272835Y124016D02*
D03*
X274606Y120473D02*
D03*
X272835Y116929D02*
D03*
X274606Y113386D02*
D03*
X272835Y109843D02*
D03*
X274606Y106299D02*
D03*
X272835Y102756D02*
D03*
X269292Y124016D02*
D03*
X271063Y120473D02*
D03*
X269292Y116929D02*
D03*
X271063Y113386D02*
D03*
X269292Y109843D02*
D03*
X271063Y106299D02*
D03*
X269292Y102756D02*
D03*
X265748Y124016D02*
D03*
X267520Y120473D02*
D03*
X265748Y116929D02*
D03*
X267520Y113386D02*
D03*
X265748Y109843D02*
D03*
X267520Y106299D02*
D03*
X265748Y102756D02*
D03*
X263977Y120473D02*
D03*
Y113386D02*
D03*
Y106299D02*
D03*
X262205Y102756D02*
D03*
X260433Y113386D02*
D03*
X258662Y102756D02*
D03*
X255118Y194882D02*
D03*
X256890Y191339D02*
D03*
X255118Y187795D02*
D03*
X256890Y184252D02*
D03*
X255118Y180709D02*
D03*
X256890Y177165D02*
D03*
Y148819D02*
D03*
X255118Y145276D02*
D03*
X256890Y141732D02*
D03*
X255118Y138189D02*
D03*
X256890Y134646D02*
D03*
Y113386D02*
D03*
X255118Y102756D02*
D03*
X251575Y194882D02*
D03*
X253347Y191339D02*
D03*
X251575Y187795D02*
D03*
X253347Y184252D02*
D03*
X251575Y180709D02*
D03*
X253347Y177165D02*
D03*
Y148819D02*
D03*
X251575Y145276D02*
D03*
X253347Y141732D02*
D03*
X251575Y138189D02*
D03*
X253347Y134646D02*
D03*
Y113386D02*
D03*
X251575Y102756D02*
D03*
X248032Y194882D02*
D03*
X249803Y191339D02*
D03*
X248032Y187795D02*
D03*
X249803Y177165D02*
D03*
Y148819D02*
D03*
X248032Y145276D02*
D03*
X249803Y141732D02*
D03*
X248032Y138189D02*
D03*
X249803Y134646D02*
D03*
Y113386D02*
D03*
Y106299D02*
D03*
X248032Y102756D02*
D03*
X244488Y194882D02*
D03*
X246260Y191339D02*
D03*
X244488Y187795D02*
D03*
X246260Y177165D02*
D03*
Y148819D02*
D03*
X244488Y145276D02*
D03*
X246260Y141732D02*
D03*
X244488Y138189D02*
D03*
X246260Y134646D02*
D03*
Y113386D02*
D03*
X244488Y102756D02*
D03*
X240945Y194882D02*
D03*
X242717Y191339D02*
D03*
X240945Y187795D02*
D03*
X242717Y141732D02*
D03*
X240945Y138189D02*
D03*
X242717Y134646D02*
D03*
Y113386D02*
D03*
X240945Y102756D02*
D03*
X237402Y194882D02*
D03*
X239173Y191339D02*
D03*
X237402Y187795D02*
D03*
X239173Y141732D02*
D03*
X237402Y138189D02*
D03*
X239173Y134646D02*
D03*
X237402Y102756D02*
D03*
X233858Y194882D02*
D03*
X235630Y191339D02*
D03*
X233858Y187795D02*
D03*
X235630Y184252D02*
D03*
Y141732D02*
D03*
X233858Y138189D02*
D03*
X235630Y134646D02*
D03*
X233858Y124016D02*
D03*
X235630Y120473D02*
D03*
X233858Y116929D02*
D03*
X235630Y106299D02*
D03*
X233858Y102756D02*
D03*
X230315Y194882D02*
D03*
X232087Y191339D02*
D03*
X230315Y187795D02*
D03*
X232087Y184252D02*
D03*
X230315Y145276D02*
D03*
X232087Y141732D02*
D03*
X230315Y138189D02*
D03*
X232087Y134646D02*
D03*
X230315Y124016D02*
D03*
X232087Y120473D02*
D03*
X230315Y116929D02*
D03*
Y102756D02*
D03*
X226772Y194882D02*
D03*
X228543Y191339D02*
D03*
X226772Y152362D02*
D03*
X228543Y148819D02*
D03*
X226772Y145276D02*
D03*
X228543Y141732D02*
D03*
X226772Y138189D02*
D03*
X228543Y134646D02*
D03*
X226772Y124016D02*
D03*
X228543Y120473D02*
D03*
X226772Y116929D02*
D03*
X228543Y113386D02*
D03*
X226772Y102756D02*
D03*
X223229Y194882D02*
D03*
X225000Y191339D02*
D03*
X223229Y152362D02*
D03*
X225000Y148819D02*
D03*
X223229Y145276D02*
D03*
X225000Y141732D02*
D03*
X223229Y138189D02*
D03*
X225000Y134646D02*
D03*
X223229Y124016D02*
D03*
X225000Y120473D02*
D03*
Y113386D02*
D03*
X223229Y102756D02*
D03*
X219685Y194882D02*
D03*
X221457Y191339D02*
D03*
X219685Y173622D02*
D03*
X221457Y148819D02*
D03*
X219685Y145276D02*
D03*
X221457Y141732D02*
D03*
X219685Y138189D02*
D03*
X221457Y134646D02*
D03*
X219685Y124016D02*
D03*
Y102756D02*
D03*
X216142Y194882D02*
D03*
X217914Y191339D02*
D03*
X216142Y173622D02*
D03*
X217914Y148819D02*
D03*
X216142Y145276D02*
D03*
X217914Y141732D02*
D03*
X216142Y138189D02*
D03*
X217914Y134646D02*
D03*
X216142Y124016D02*
D03*
Y102756D02*
D03*
X212599Y194882D02*
D03*
X214370Y191339D02*
D03*
X212599Y124016D02*
D03*
Y102756D02*
D03*
X209055Y194882D02*
D03*
X210827Y191339D02*
D03*
X209055Y124016D02*
D03*
Y102756D02*
D03*
X205512Y194882D02*
D03*
X207284Y191339D02*
D03*
X205512Y138189D02*
D03*
Y124016D02*
D03*
X207284Y120473D02*
D03*
Y113386D02*
D03*
X205512Y109843D02*
D03*
X207284Y106299D02*
D03*
X205512Y102756D02*
D03*
X201969Y194882D02*
D03*
X203740Y191339D02*
D03*
X201969Y173622D02*
D03*
X203740Y148819D02*
D03*
Y134646D02*
D03*
X201969Y124016D02*
D03*
X203740Y120473D02*
D03*
Y113386D02*
D03*
X201969Y109843D02*
D03*
X203740Y106299D02*
D03*
X201969Y102756D02*
D03*
X198425Y194882D02*
D03*
X200197Y191339D02*
D03*
X198425Y173622D02*
D03*
Y124016D02*
D03*
X200197Y120473D02*
D03*
Y113386D02*
D03*
X198425Y109843D02*
D03*
X200197Y106299D02*
D03*
X198425Y102756D02*
D03*
X194882Y194882D02*
D03*
X196654Y191339D02*
D03*
X194882Y173622D02*
D03*
X196654Y148819D02*
D03*
Y134646D02*
D03*
X194882Y116929D02*
D03*
X196654Y113386D02*
D03*
X194882Y109843D02*
D03*
X196654Y106299D02*
D03*
X194882Y102756D02*
D03*
X191339Y194882D02*
D03*
X193110Y191339D02*
D03*
X191339Y173622D02*
D03*
X193110Y148819D02*
D03*
Y134646D02*
D03*
X191339Y116929D02*
D03*
X193110Y113386D02*
D03*
X191339Y109843D02*
D03*
X193110Y106299D02*
D03*
X191339Y102756D02*
D03*
X187795Y194882D02*
D03*
X189567Y191339D02*
D03*
X187795Y173622D02*
D03*
X189567Y148819D02*
D03*
Y113386D02*
D03*
X187795Y109843D02*
D03*
X189567Y106299D02*
D03*
X187795Y102756D02*
D03*
X184252Y194882D02*
D03*
X186024Y191339D02*
D03*
X184252Y173622D02*
D03*
X186024Y148819D02*
D03*
X184252Y145276D02*
D03*
X186024Y113386D02*
D03*
X184252Y109843D02*
D03*
X186024Y106299D02*
D03*
X184252Y102756D02*
D03*
X180709Y194882D02*
D03*
X182481Y191339D02*
D03*
Y148819D02*
D03*
Y106299D02*
D03*
X178937Y191339D02*
D03*
Y184252D02*
D03*
X177165Y131103D02*
D03*
X173622D02*
D03*
X171851Y134646D02*
D03*
Y106299D02*
D03*
X170079Y102756D02*
D03*
X166536D02*
D03*
X164764Y162992D02*
D03*
X162992Y159449D02*
D03*
Y102756D02*
D03*
X161221Y191339D02*
D03*
Y162992D02*
D03*
X159449Y159449D02*
D03*
Y102756D02*
D03*
X157677Y191339D02*
D03*
Y162992D02*
D03*
X155906Y159449D02*
D03*
Y131103D02*
D03*
Y109843D02*
D03*
Y102756D02*
D03*
X154134Y162992D02*
D03*
X152362Y159449D02*
D03*
Y131103D02*
D03*
X154134Y127559D02*
D03*
Y113386D02*
D03*
X152362Y109843D02*
D03*
X154134Y106299D02*
D03*
X152362Y102756D02*
D03*
X150591Y162992D02*
D03*
X148819Y159449D02*
D03*
X150591Y134646D02*
D03*
X148819Y131103D02*
D03*
X150591Y127559D02*
D03*
X148819Y124016D02*
D03*
X150591Y120473D02*
D03*
X148819Y116929D02*
D03*
X145276Y194882D02*
D03*
Y180709D02*
D03*
X147047Y162992D02*
D03*
X145276Y131103D02*
D03*
X147047Y127559D02*
D03*
X145276Y124016D02*
D03*
X147047Y120473D02*
D03*
X145276Y116929D02*
D03*
X141732Y194882D02*
D03*
Y180709D02*
D03*
Y131103D02*
D03*
X143504Y127559D02*
D03*
X141732Y124016D02*
D03*
X143504Y120473D02*
D03*
X141732Y116929D02*
D03*
X138189Y194882D02*
D03*
X139961Y191339D02*
D03*
X138189Y187795D02*
D03*
X139961Y184252D02*
D03*
X138189Y138189D02*
D03*
Y131103D02*
D03*
X139961Y127559D02*
D03*
X138189Y124016D02*
D03*
X139961Y120473D02*
D03*
X138189Y116929D02*
D03*
X134646Y194882D02*
D03*
X136417Y191339D02*
D03*
X134646Y187795D02*
D03*
X136417Y177165D02*
D03*
Y127559D02*
D03*
Y120473D02*
D03*
X134646Y109843D02*
D03*
Y102756D02*
D03*
X131103Y194882D02*
D03*
X132874Y191339D02*
D03*
X131103Y187795D02*
D03*
Y180709D02*
D03*
X132874Y177165D02*
D03*
Y141732D02*
D03*
Y134646D02*
D03*
Y113386D02*
D03*
X131103Y109843D02*
D03*
X132874Y106299D02*
D03*
X131103Y102756D02*
D03*
X127559Y194882D02*
D03*
X129331Y191339D02*
D03*
X127559Y187795D02*
D03*
Y180709D02*
D03*
X129331Y177165D02*
D03*
X127559Y166536D02*
D03*
Y138189D02*
D03*
X129331Y113386D02*
D03*
X127559Y109843D02*
D03*
X129331Y106299D02*
D03*
X127559Y102756D02*
D03*
X124016Y194882D02*
D03*
X125787Y191339D02*
D03*
X124016Y187795D02*
D03*
Y180709D02*
D03*
X125787Y177165D02*
D03*
X124016Y166536D02*
D03*
Y159449D02*
D03*
Y152362D02*
D03*
X125787Y134646D02*
D03*
Y127559D02*
D03*
Y113386D02*
D03*
X124016Y109843D02*
D03*
X125787Y106299D02*
D03*
X124016Y102756D02*
D03*
X120473Y194882D02*
D03*
X122244Y191339D02*
D03*
X120473Y187795D02*
D03*
Y180709D02*
D03*
X122244Y177165D02*
D03*
Y170079D02*
D03*
X120473Y166536D02*
D03*
X122244Y162992D02*
D03*
X120473Y159449D02*
D03*
X122244Y155906D02*
D03*
X120473Y152362D02*
D03*
X122244Y148819D02*
D03*
Y141732D02*
D03*
X120473Y131103D02*
D03*
X122244Y113386D02*
D03*
X120473Y109843D02*
D03*
X122244Y106299D02*
D03*
X120473Y102756D02*
D03*
X116929Y194882D02*
D03*
X118701Y191339D02*
D03*
X116929Y187795D02*
D03*
Y180709D02*
D03*
X118701Y177165D02*
D03*
Y170079D02*
D03*
X116929Y166536D02*
D03*
X118701Y162992D02*
D03*
X116929Y159449D02*
D03*
X118701Y155906D02*
D03*
X116929Y152362D02*
D03*
X118701Y148819D02*
D03*
Y141732D02*
D03*
X116929Y138189D02*
D03*
X118701Y113386D02*
D03*
X116929Y109843D02*
D03*
X118701Y106299D02*
D03*
X116929Y102756D02*
D03*
X113386Y194882D02*
D03*
X115158Y191339D02*
D03*
Y177165D02*
D03*
Y170079D02*
D03*
Y162992D02*
D03*
X113386Y159449D02*
D03*
X115158Y155906D02*
D03*
X113386Y152362D02*
D03*
X115158Y134646D02*
D03*
X113386Y131103D02*
D03*
X115158Y127559D02*
D03*
X113386Y124016D02*
D03*
Y116929D02*
D03*
X115158Y113386D02*
D03*
Y106299D02*
D03*
X109843Y194882D02*
D03*
X111614Y191339D02*
D03*
Y155906D02*
D03*
X109843Y152362D02*
D03*
X111614Y127559D02*
D03*
X109843Y124016D02*
D03*
X111614Y120473D02*
D03*
X109843Y116929D02*
D03*
X106299Y194882D02*
D03*
X108071Y191339D02*
D03*
Y155906D02*
D03*
X106299Y152362D02*
D03*
Y131103D02*
D03*
X108071Y127559D02*
D03*
X106299Y124016D02*
D03*
X108071Y120473D02*
D03*
X106299Y116929D02*
D03*
Y109843D02*
D03*
Y102756D02*
D03*
X104528Y191339D02*
D03*
X102756Y187795D02*
D03*
Y180709D02*
D03*
X104528Y177165D02*
D03*
X102756Y173622D02*
D03*
X104528Y170079D02*
D03*
X102756Y166536D02*
D03*
Y159449D02*
D03*
X104528Y155906D02*
D03*
X102756Y152362D02*
D03*
Y145276D02*
D03*
Y138189D02*
D03*
Y131103D02*
D03*
X104528Y127559D02*
D03*
X102756Y124016D02*
D03*
X104528Y120473D02*
D03*
X102756Y116929D02*
D03*
X104528Y113386D02*
D03*
X102756Y109843D02*
D03*
X104528Y106299D02*
D03*
D57*
X270410Y179334D02*
D03*
X237106Y173327D02*
D03*
X179921Y144193D02*
D03*
X197736Y153937D02*
D03*
X171358Y138189D02*
D03*
X198228Y162894D02*
D03*
X174213Y159547D02*
D03*
X152953Y144980D02*
D03*
X187037Y137626D02*
D03*
X186681Y143537D02*
D03*
X152310Y182883D02*
D03*
X149803Y177657D02*
D03*
X167323Y165650D02*
D03*
X223031Y173327D02*
D03*
X236910Y150295D02*
D03*
X198819Y158858D02*
D03*
X224803Y182972D02*
D03*
X228839Y177953D02*
D03*
X163287Y194095D02*
D03*
Y182972D02*
D03*
X226772Y186516D02*
D03*
X237106Y162992D02*
D03*
X232579Y181004D02*
D03*
X237205Y165650D02*
D03*
X237106Y168209D02*
D03*
X237121Y170787D02*
D03*
X141339Y150000D02*
D03*
X178150Y170374D02*
D03*
X167901Y147498D02*
D03*
X141484Y168549D02*
D03*
X149803Y137795D02*
D03*
X158661Y132677D02*
D03*
X185827Y116535D02*
D03*
X170079Y116142D02*
D03*
X142126Y156299D02*
D03*
X134252Y159575D02*
D03*
D58*
X170177Y129724D02*
D03*
X175984Y119291D02*
D03*
X190650Y129921D02*
D03*
D59*
X247736Y152854D02*
D03*
X256201D02*
D03*
X251870Y162008D02*
D03*
Y152854D02*
D03*
X247736Y162008D02*
D03*
X256201D02*
D03*
X251870Y171260D02*
D03*
X247736D02*
D03*
X256201D02*
D03*
X251870Y166831D02*
D03*
X247736D02*
D03*
X256201D02*
D03*
Y157677D02*
D03*
X251870D02*
D03*
X247736D02*
D03*
D60*
X289346Y160692D02*
D03*
X287546Y162592D02*
D03*
X284446Y153092D02*
D03*
X281246Y153892D02*
D03*
X278646Y158292D02*
D03*
X279546Y155792D02*
D03*
X279646Y161192D02*
D03*
X281846Y163092D02*
D03*
X284746Y163392D02*
D03*
X290246Y158192D02*
D03*
X287446Y153692D02*
D03*
X289346Y155492D02*
D03*
X284546Y167892D02*
D03*
X281546Y168492D02*
D03*
X279646Y170492D02*
D03*
X278746Y173092D02*
D03*
X279746Y175892D02*
D03*
X281846Y177792D02*
D03*
X284946Y178192D02*
D03*
X287846Y177492D02*
D03*
X289646Y175792D02*
D03*
X290446Y173092D02*
D03*
X289446Y170192D02*
D03*
X287546Y168392D02*
D03*
X279847Y131828D02*
D03*
X281647Y129928D02*
D03*
X284747Y139428D02*
D03*
X287947Y138628D02*
D03*
X290547Y134228D02*
D03*
X289647Y136728D02*
D03*
X289547Y131328D02*
D03*
X287347Y129428D02*
D03*
X284447Y129128D02*
D03*
X278947Y134328D02*
D03*
X281747Y138828D02*
D03*
X279847Y137028D02*
D03*
X284647Y124628D02*
D03*
X287647Y124028D02*
D03*
X289547Y122028D02*
D03*
X290447Y119428D02*
D03*
X289447Y116628D02*
D03*
X287347Y114728D02*
D03*
X284247Y114328D02*
D03*
X281347Y115028D02*
D03*
X279547Y116728D02*
D03*
X278747Y119428D02*
D03*
X279747Y122328D02*
D03*
X281647Y124128D02*
D03*
D61*
X263189Y175886D02*
D03*
Y173327D02*
D03*
Y170768D02*
D03*
Y168209D02*
D03*
Y165650D02*
D03*
Y163091D02*
D03*
Y160531D02*
D03*
Y157972D02*
D03*
Y155413D02*
D03*
Y152854D02*
D03*
Y150295D02*
D03*
Y147736D02*
D03*
X240354Y175886D02*
D03*
Y173327D02*
D03*
Y170768D02*
D03*
Y168209D02*
D03*
Y165650D02*
D03*
Y163091D02*
D03*
Y160531D02*
D03*
Y157972D02*
D03*
Y155413D02*
D03*
Y152854D02*
D03*
Y150295D02*
D03*
Y147736D02*
D03*
D62*
X251870Y162008D02*
D03*
D63*
X196811Y140374D02*
D03*
X187795D02*
D03*
X178779D02*
D03*
D64*
X187795Y166713D02*
D03*
D65*
X268307Y155807D02*
D03*
Y157579D02*
D03*
X144882Y158760D02*
D03*
Y156988D02*
D03*
X268307Y150492D02*
D03*
Y152264D02*
D03*
D66*
X129921Y159843D02*
D03*
Y152756D02*
D03*
D67*
X109500Y183343D02*
Y183610D01*
X109449Y183661D02*
X109500Y183610D01*
M02*
