M48
;Layer_Color=9474304
;FILE_FORMAT=2:5
INCH,TZ
;TYPE=PLATED
T1F00S00C0.00787
T2F00S00C0.01181
T3F00S00C0.01575
T4F00S00C0.04016
T5F00S00C0.04724
T6F00S00C0.08268
%
T01
X149803Y137795
X152953Y144980
X141339Y150000
X167901Y147498
X171358Y138189
X179921Y144193
X186681Y143537
X187037Y137626
X185827Y116535
X170079Y116142
X158661Y132677
X197736Y153937
X236910Y150295
X281246Y153892
X279546Y155792
X284446Y153092
X287446Y153692
X289346Y155492
X287947Y138628
X289647Y136728
X290547Y134228
X289547Y131328
X287347Y129428
X284447Y129128
X281647Y129928
X279847Y131828
X278947Y134328
X279847Y137028
X281747Y138828
X284747Y139428
X284647Y124628
X281647Y124128
X279747Y122328
X278747Y119428
X279547Y116728
X281347Y115028
X284247Y114328
X287347Y114728
X289447Y116628
X290447Y119428
X289547Y122028
X287647Y124028
X290246Y158192
X289346Y160692
X287546Y162592
X284746Y163392
X281846Y163092
X279646Y161192
X278646Y158292
X281546Y168492
X284546Y167892
X287546Y168392
X289446Y170192
X290446Y173092
X289646Y175792
X287846Y177492
X284946Y178192
X281846Y177792
X279746Y175892
X278746Y173092
X279646Y170492
X270410Y179334
X237106Y173327
X237121Y170787
X237106Y168209
X237205Y165650
X237106Y162992
X232579Y181004
X228839Y177953
X224803Y182972
X226772Y186516
X223031Y173327
X198228Y162894
X198819Y158858
X174213Y159547
X167323Y165650
X178150Y170374
X163287Y182972
Y194095
X152310Y182883
X149803Y177657
X141484Y168549
X142126Y156299
X134252Y159575
T02
X106299Y102756
X104528Y106299
X102756Y109843
X106299
X104528Y113386
X102756Y116929
X106299
X109843
X113386
X115158Y113386
X118701
X122244
X125787
X129331
X132874
X131103Y109843
X134646
X132874Y106299
X129331
X125787
X122244
X118701
X115158
X116929Y109843
X120473
X124016
X127559
Y102756
X131103
X134646
X124016
X120473
X116929
X111614Y120473
X108071
X104528
X102756Y124016
X106299
X109843
X113386
X115158Y127559
X111614
X108071
X104528
X102756Y131103
X106299
X113386
X115158Y134646
X116929Y138189
X118701Y141732
X122244
Y148819
X118701
X116929Y152362
X120473
X124016
X122244Y155906
X118701
X115158
X111614
X108071
X104528
X102756Y152362
X106299
X109843
X113386
X102756Y145276
Y138189
X127559
X125787Y134646
X132874
Y141732
X138189Y138189
Y131103
X141732
X145276
X148819
X152362
X155906
X154134Y127559
X150591
X147047
X143504
X139961
X136417
X138189Y124016
X141732
X145276
X148819
X150591Y120473
X147047
X143504
X139961
X136417
X138189Y116929
X141732
X145276
X148819
X154134Y113386
X152362Y109843
X155906
X154134Y106299
X152362Y102756
X155906
X150591Y134646
X125787Y127559
X120473Y131103
X173622
X177165
X171851Y134646
X193110
X196654
X203740
X205512Y138189
X216142
X219685
X223229
X226772
X230315
X233858
X237402
X240945
X244488
X248032
X251575
X255118
X256890Y141732
X253347
X249803
X246260
X242717
X239173
X235630
X232087
X228543
X225000
X221457
X217914
X216142Y145276
X219685
X223229
X226772
X230315
X228543Y148819
X225000
X221457
X217914
X223229Y152362
X226772
X228543Y134646
X232087
X235630
X239173
X242717
X246260
X249803
X253347
X256890
X263977
X267520
X271063
X274606
X272835Y138189
X276378
X278150Y141732
X281693
X279922Y145276
X283465
X287008
X290551
X294095
X292323Y148819
X288780
X285237
X281693
X278150
X274606
X271063
X269292Y145276
X272835
X276378
X274606Y141732
X271063
X267520
X263977
X262205Y138189
X265748
X269292
Y131103
X272835
X276378
Y124016
X272835
X269292
X265748
X267520Y120473
X271063
X274606
X272835Y116929
X276378
X278150Y113386
X274606
X271063
X267520
X263977
X260433
X256890
X253347
X249803
X246260
X242717
X240945Y102756
X244488
X248032
X251575
X255118
X258662
X262205
X265748
X269292
X272835
X276378
X279922
X283465
X287008
X290551
X292323Y106299
X288780
X285237
X281693
X278150
X274606
X271063
X267520
X263977
X265748Y109843
X269292
X272835
X276378
X279922
X283465
X287008
X290551
X294095
X292323Y113386
X294095Y116929
Y124016
Y131103
Y138189
X292323Y141732
X288780
X294095Y152362
X272835
X271063Y155906
X256201Y152854
X251870
X247736
X246260Y148819
X249803
X253347
X256890
X255118Y145276
X251575
X248032
X244488
X225000Y134646
X221457
X217914
X216142Y124016
X219685
X223229
X226772
X230315
X233858
X235630Y120473
X232087
X228543
X225000
X226772Y116929
X230315
X233858
X228543Y113386
X225000
X223229Y102756
X226772
X230315
X233858
X237402
X235630Y106299
X249803
X265748Y116929
X269292
X263977Y120473
X262205Y131103
X265748
X212599Y124016
X209055
X205512
X201969
X198425
X200197Y120473
X203740
X207284
Y113386
X203740
X200197
X196654
X193110
X189567
X186024
X184252Y109843
X187795
X191339
X194882
X198425
X201969
X205512
X207284Y106299
X203740
X200197
X196654
X193110
X189567
X186024
X182481
X184252Y102756
X187795
X191339
X194882
X198425
X201969
X205512
X209055
X212599
X216142
X219685
X194882Y116929
X191339
X171851Y106299
X170079Y102756
X166536
X162992
X159449
X184252Y145276
X186024Y148819
X189567
X193110
X196654
X203740
X182481
X184252Y173622
X187795
X191339
X194882
X198425
X201969
X216142
X219685
X221457Y191339
X225000
X228543
X232087
X235630
X239173
X242717
X246260
X249803
X253347
X256890
X255118Y194882
X251575
X248032
X244488
X240945
X237402
X233858
X230315
X226772
X223229
X219685
X216142
X212599
X209055
X205512
X201969
X198425
X194882
X191339
X187795
X184252
X180709
X182481Y191339
X186024
X189567
X193110
X196654
X200197
X203740
X207284
X210827
X214370
X217914
X230315Y187795
X233858
X237402
X240945
X244488
X248032
X251575
X255118
X256890Y184252
X253347
X251575Y180709
X255118
X256890Y177165
X253347
X249803
X246260
X247736Y171260
X251870
X256201
Y166831
X251870
X247736
Y162008
X251870
X256201
Y157677
X251870
X247736
X235630Y184252
X232087
X263977
X267520
X271063
X274606
X278150
X281693
X285237
X288780
X292323
X290551Y187795
X294095
X292323Y191339
X288780
X285237
X281693
X278150
X274606
X271063
X267520
X263977
X262205Y194882
X265748
X269292
X272835
X276378
X279922
X283465
X287008
X290551
X287008Y187795
X283465
X279922
X276378
X272835
X269292
X265748
X262205
X294095Y180709
X178937Y184252
Y191339
X161221
X157677
Y162992
X161221
X164764
X162992Y159449
X159449
X155906
X152362
X148819
X150591Y162992
X154134
X147047
X145276Y180709
X141732
X139961Y184252
X138189Y187795
X134646
X131103
X127559
X124016
X120473
X116929
X118701Y191339
X122244
X125787
X129331
X132874
X136417
X139961
X138189Y194882
X141732
X145276
X134646
X131103
X127559
X124016
X120473
X116929
X113386
X109843
X106299
X108071Y191339
X111614
X115158
X104528
X102756Y187795
Y180709
X104528Y177165
X102756Y173622
X104528Y170079
X102756Y166536
Y159449
X113386
X116929
X120473
X124016
X122244Y162992
X118701
X115158
X116929Y166536
X120473
X124016
X127559
X122244Y170079
X118701
X115158
Y177165
X118701
X122244
X125787
X129331
X132874
X136417
X131103Y180709
X127559
X124016
X120473
X116929
T03
X175984Y119291
X170177Y129724
X190650Y129921
T04
X209842Y134488
Y144488
Y154488
Y164488
Y174488
T05
X109449Y136221
Y146063
X109500Y163657
Y173500
Y183343
T06
X284547Y119528
X284747Y134228
X284446Y158292
X284646Y172992
M30
